<?xml version="1.0" encoding="UTF-8" standalone="no"?>
<!-- Created with Inkscape (http://www.inkscape.org/) -->

<svg
   width="210mm"
   height="297mm"
   viewBox="0 0 210 297"
   version="1.1"
   id="svg5"
   inkscape:version="1.1.2 (b8e25be8, 2022-02-05)"
   sodipodi:docname="skater_04.svg"
   xmlns:inkscape="http://www.inkscape.org/namespaces/inkscape"
   xmlns:sodipodi="http://sodipodi.sourceforge.net/DTD/sodipodi-0.dtd"
   xmlns="http://www.w3.org/2000/svg"
   xmlns:svg="http://www.w3.org/2000/svg">
  <sodipodi:namedview
     id="namedview7"
     pagecolor="#ffffff"
     bordercolor="#999999"
     borderopacity="1"
     inkscape:pageshadow="0"
     inkscape:pageopacity="0"
     inkscape:pagecheckerboard="0"
     inkscape:document-units="mm"
     showgrid="false"
     inkscape:zoom="0.16013082"
     inkscape:cx="346.59161"
     inkscape:cy="527.69354"
     inkscape:window-width="1660"
     inkscape:window-height="969"
     inkscape:window-x="0"
     inkscape:window-y="44"
     inkscape:window-maximized="0"
     inkscape:current-layer="layer1" />
  <defs
     id="defs2" />
  <g
     inkscape:label="Layer 1"
     inkscape:groupmode="layer"
     id="layer1">
    <path
       style="fill:#000000;stroke-width:0.041754"
       d="m 146.05245,244.50595 c -0.10334,-0.0225 -0.25847,-0.0514 -0.34474,-0.0642 -0.0863,-0.0128 -0.16722,-0.04 -0.17991,-0.0606 -0.0127,-0.0205 -0.0574,-0.0373 -0.0993,-0.0373 -0.17995,0 -0.51209,-0.14684 -0.6597,-0.29164 -0.0863,-0.0846 -0.2226,-0.2838 -0.30297,-0.4426 -0.14066,-0.27791 -0.14614,-0.30596 -0.14614,-0.74803 0,-0.44195 0.0238,-0.564 0.18702,-0.96034 0.0189,-0.0459 0.0651,-0.23382 0.10271,-0.41754 0.0376,-0.18372 0.0864,-0.39173 0.1085,-0.46226 0.0221,-0.0705 0.0402,-0.1748 0.0402,-0.23173 0,-0.0569 0.0207,-0.12424 0.0461,-0.14957 0.0591,-0.0591 -0.0109,-0.72429 -0.087,-0.8266 -0.0171,-0.023 -0.0443,-0.097 -0.0605,-0.16447 -0.0437,-0.18246 -0.1714,-0.33958 -0.32549,-0.40055 -0.17567,-0.0695 -0.50396,-0.30046 -0.73519,-0.51718 -0.32037,-0.30028 -0.44748,-0.673 -0.59209,-1.73619 -0.059,-0.43398 -0.0319,-3.2905 0.0357,-3.75786 0.0867,-0.59933 0.20651,-0.96647 0.42253,-1.29437 0.0378,-0.0574 0.1032,-0.18894 0.14529,-0.29228 0.0421,-0.10334 0.11861,-0.28184 0.17006,-0.39666 0.0514,-0.11482 0.11923,-0.26983 0.15063,-0.34447 0.0314,-0.0746 0.0713,-0.1357 0.0886,-0.1357 0.0174,0 0.0316,-0.0197 0.0316,-0.0438 0,-0.0241 0.063,-0.14222 0.13996,-0.26255 0.077,-0.12034 0.20209,-0.33081 0.27803,-0.46773 0.0759,-0.13691 0.15857,-0.28555 0.18363,-0.33031 0.0251,-0.0448 0.0799,-0.11992 0.12184,-0.16702 0.042,-0.0471 0.10708,-0.1373 0.14471,-0.20046 0.0376,-0.0631 0.0832,-0.11482 0.10117,-0.11482 0.018,0 0.0328,-0.0201 0.0328,-0.0446 0,-0.0583 0.22093,-0.33518 0.46802,-0.58665 0.10814,-0.11006 0.24723,-0.28081 0.30908,-0.37944 0.0619,-0.0986 0.17067,-0.23649 0.2418,-0.30633 0.21179,-0.20796 0.38361,-0.41241 0.51069,-0.60767 0.13429,-0.20635 0.28555,-0.37182 0.33989,-0.37182 0.0475,0 0.70757,-0.68382 0.86654,-0.89771 0.0683,-0.0919 0.24626,-0.2895 0.39553,-0.4392 0.30824,-0.30914 0.47193,-0.61256 0.58523,-1.08482 0.0193,-0.0804 0.0459,-0.60214 0.0591,-1.15949 0.0132,-0.55734 0.0412,-1.04586 0.0622,-1.0856 0.021,-0.0397 0.11954,-0.24136 0.21905,-0.44804 0.0995,-0.20668 0.19296,-0.38518 0.20767,-0.39666 0.0147,-0.0115 0.0679,-0.1 0.11816,-0.19666 0.11186,-0.21507 0.0882,-0.30867 -0.11642,-0.45975 -0.35077,-0.25905 -0.57397,-0.54405 -0.66191,-0.84517 -0.083,-0.2843 -0.0551,-0.96509 0.0523,-1.27506 0.0919,-0.2652 0.38914,-0.68637 0.59184,-0.83857 0.086,-0.0645 0.16569,-0.13032 0.17717,-0.14616 0.0115,-0.0159 0.32151,-0.17327 0.68894,-0.34982 0.36744,-0.17656 0.7403,-0.35718 0.82859,-0.40138 0.0883,-0.0442 0.17879,-0.0804 0.20111,-0.0804 0.0547,0 0.32636,-0.20441 0.43949,-0.33068 0.1462,-0.16319 0.15478,-0.2822 0.0375,-0.52038 -0.0579,-0.11751 -0.15279,-0.26451 -0.21095,-0.32666 -0.0582,-0.0622 -0.10577,-0.13825 -0.10577,-0.16911 0,-0.0309 -0.0235,-0.0796 -0.0522,-0.10829 -0.0343,-0.0343 -0.0522,-0.18636 -0.0522,-0.44468 0,-0.25832 0.0179,-0.41033 0.0522,-0.44468 0.0735,-0.0735 0.0649,-0.20194 -0.0264,-0.393 -0.0432,-0.0904 -0.12069,-0.25836 -0.17218,-0.37319 -0.0515,-0.11482 -0.16408,-0.35908 -0.2502,-0.5428 -0.25542,-0.5449 -0.36245,-0.78709 -0.39672,-0.89771 -0.031,-0.10013 -0.21283,-0.51428 -0.33732,-0.76842 -0.0327,-0.0667 -0.0594,-0.13953 -0.0594,-0.16189 0,-0.0224 -0.0626,-0.17448 -0.13919,-0.33805 -0.22571,-0.48229 -0.27835,-0.60989 -0.27835,-0.67461 0,-0.0337 -0.0188,-0.0612 -0.0418,-0.0612 -0.023,0 -0.0418,-0.0284 -0.0418,-0.0632 0,-0.0347 -0.0173,-0.0958 -0.0384,-0.1357 -0.0211,-0.0399 -0.0799,-0.19022 -0.1306,-0.33411 -0.0507,-0.14389 -0.16188,-0.35997 -0.24705,-0.48017 -0.0852,-0.12021 -0.2049,-0.32209 -0.26607,-0.44863 -0.0612,-0.12655 -0.15818,-0.28074 -0.2156,-0.34265 -0.0574,-0.0619 -0.10438,-0.13218 -0.10438,-0.15615 0,-0.024 -0.0173,-0.0436 -0.0385,-0.0436 -0.0212,0 -0.0603,-0.0659 -0.0869,-0.14651 -0.0266,-0.0806 -0.074,-0.17215 -0.10531,-0.20347 -0.0313,-0.0313 -0.1454,-0.20496 -0.2535,-0.38585 -0.10811,-0.18089 -0.24681,-0.38526 -0.30823,-0.45415 -0.0614,-0.0689 -0.18234,-0.22626 -0.26873,-0.3497 -0.0864,-0.12343 -0.19326,-0.26435 -0.23749,-0.31315 -0.16907,-0.18655 -0.62204,-0.76804 -0.62204,-0.79854 0,-0.0176 -0.0334,-0.0624 -0.0742,-0.0995 -0.0408,-0.0371 -0.17395,-0.19436 -0.29587,-0.34937 -0.12193,-0.15501 -0.23887,-0.28184 -0.25985,-0.28184 -0.021,0 -0.0388,-0.0235 -0.0395,-0.0522 -0.002,-0.0626 -0.17961,-0.2851 -0.52459,-0.65565 -0.13999,-0.15035 -0.33001,-0.37672 -0.42227,-0.50302 -0.0923,-0.12631 -0.31802,-0.38936 -0.50167,-0.58456 -0.18365,-0.1952 -0.42578,-0.46509 -0.53807,-0.59975 -0.11229,-0.13467 -0.28872,-0.33298 -0.39206,-0.44069 -0.16885,-0.176 -0.45838,-0.5135 -0.62631,-0.73008 -0.0344,-0.0444 -0.16597,-0.19584 -0.29227,-0.33646 -0.29971,-0.33369 -0.58238,-0.6685 -0.66295,-0.78523 -0.0354,-0.0513 -0.0877,-0.11715 -0.11629,-0.14642 -0.0286,-0.0293 -0.12328,-0.14201 -0.21047,-0.25053 -0.0872,-0.10851 -0.23395,-0.27245 -0.32613,-0.36431 -0.0922,-0.0919 -0.28859,-0.33612 -0.43646,-0.5428 -0.14788,-0.20668 -0.27914,-0.38518 -0.2917,-0.39666 -0.0126,-0.0115 -0.0942,-0.10966 -0.18135,-0.21817 -0.0872,-0.10852 -0.18113,-0.22125 -0.20877,-0.25053 -0.0276,-0.0293 -0.0755,-0.10234 -0.10645,-0.16237 -0.0309,-0.06 -0.0967,-0.15397 -0.14614,-0.20877 -0.0495,-0.0548 -0.14521,-0.17478 -0.21276,-0.26664 -0.0676,-0.0919 -0.16155,-0.2046 -0.20887,-0.25053 -0.0473,-0.0459 -0.16076,-0.18684 -0.2521,-0.31315 -0.0913,-0.12631 -0.18993,-0.25447 -0.21911,-0.28482 -0.0292,-0.0303 -0.0531,-0.0704 -0.0531,-0.089 0,-0.0186 -0.12978,-0.16671 -0.28841,-0.32915 -0.15862,-0.16245 -0.39026,-0.45123 -0.51473,-0.64173 -0.12448,-0.1905 -0.27654,-0.38371 -0.33791,-0.42934 -0.0614,-0.0456 -0.11157,-0.10377 -0.11157,-0.12919 0,-0.0254 -0.0921,-0.14227 -0.20469,-0.25969 -0.11258,-0.11742 -0.21122,-0.23048 -0.2192,-0.25124 -0.074,-0.1924 -1.34964,-1.53829 -2.4529,-2.58796 -0.59065,-0.56197 -0.83931,-0.86749 -0.83931,-1.03124 0,-0.0495 -0.0467,-0.13385 -0.10386,-0.18752 -0.0996,-0.0935 -0.11384,-0.0954 -0.34447,-0.0451 -0.13234,0.0289 -0.27819,0.0668 -0.32412,0.0843 -0.0459,0.0175 -0.14457,0.0284 -0.2192,0.0242 -0.0746,-0.004 -0.24886,-0.0109 -0.38716,-0.0149 -0.22649,-0.007 -0.26898,-0.0229 -0.42798,-0.16388 -0.17677,-0.1568 -0.28892,-0.23682 -0.40617,-0.2898 -0.0344,-0.0156 -0.0866,-0.0616 -0.11593,-0.10232 -0.0532,-0.0738 -1.12261,-0.62042 -1.21388,-0.62042 -0.0264,0 -0.0481,-0.0148 -0.0481,-0.0329 0,-0.0728 -0.70592,-0.46423 -1.6243,-0.90063 -0.14053,-0.0668 -0.58005,-0.0498 -0.76137,0.0293 -0.0835,0.0365 -0.22839,0.1421 -0.32196,0.23474 -0.0936,0.0926 -0.18108,0.16844 -0.19446,0.16844 -0.0134,0 -0.075,0.047 -0.1369,0.10438 -0.10252,0.0951 -0.14571,0.10439 -0.48336,0.10439 -0.29435,0 -0.44074,-0.0237 -0.71024,-0.11483 -0.1867,-0.0632 -0.34573,-0.12891 -0.35338,-0.14614 -0.008,-0.0172 -0.0306,-0.0313 -0.0511,-0.0313 -0.0204,0 -0.13629,-0.0446 -0.25749,-0.0992 -0.12119,-0.0546 -0.39884,-0.17051 -0.61701,-0.25765 -0.21816,-0.0872 -0.41451,-0.17403 -0.43633,-0.19307 -0.0218,-0.019 -0.0636,-0.0346 -0.0928,-0.0346 -0.0292,0 -0.1523,-0.0452 -0.27349,-0.10051 -0.12119,-0.0553 -0.3143,-0.13368 -0.42912,-0.17421 -0.11482,-0.0405 -0.22756,-0.0867 -0.25052,-0.10251 -0.023,-0.0159 -0.25784,-0.14049 -0.52193,-0.27698 -0.52887,-0.27332 -0.86279,-0.41239 -1.0856,-0.45213 -0.18023,-0.0322 -0.45367,-0.16416 -0.59062,-0.28515 -0.13086,-0.11561 -0.24571,-0.19099 -0.33841,-0.22212 -0.0402,-0.0135 -0.0731,-0.0411 -0.0731,-0.0614 0,-0.0203 -0.0202,-0.0369 -0.0449,-0.0369 -0.0247,0 -0.17208,-0.0823 -0.32755,-0.18286 -0.15547,-0.10057 -0.35135,-0.2133 -0.43529,-0.25052 -0.0839,-0.0372 -0.22308,-0.0988 -0.30919,-0.13676 -0.0861,-0.038 -0.25028,-0.13194 -0.3648,-0.20877 -0.11451,-0.0768 -0.22221,-0.13968 -0.23932,-0.13968 -0.0171,0 -0.0988,-0.0658 -0.1816,-0.14613 -0.0828,-0.0804 -0.16806,-0.14614 -0.18954,-0.14614 -0.0428,0 -0.3282,-0.17738 -0.50176,-0.3118 -0.0603,-0.0467 -0.16318,-0.12244 -0.2287,-0.16837 -0.14089,-0.0988 -1.68679,-1.62655 -1.68679,-1.66702 0,-0.0153 -0.047,-0.0748 -0.10439,-0.1322 -0.0574,-0.0574 -0.1044,-0.11762 -0.10443,-0.1338 -3e-5,-0.0162 -0.047,-0.084 -0.10439,-0.15074 -0.0574,-0.0667 -0.10433,-0.13303 -0.10433,-0.14735 0,-0.0143 -0.0615,-0.0913 -0.13661,-0.17097 -0.1681,-0.17834 -0.32562,-0.39661 -0.40589,-0.56245 -0.0333,-0.0689 -0.13726,-0.238 -0.23092,-0.37579 -0.27307,-0.40169 -0.73917,-1.38827 -0.79892,-1.69104 -0.0113,-0.0574 -0.0359,-0.14196 -0.0547,-0.18789 -0.0318,-0.0778 -0.15529,-0.4905 -0.26248,-0.87683 -0.0604,-0.21777 -0.0914,-2.73316 -0.0343,-2.7902 0.0268,-0.0268 0.0236,-0.0713 -0.009,-0.12854 -0.0707,-0.12322 -0.0947,-3.0174 -0.0285,-3.44874 0.10742,-0.70075 0.0949,-1.03379 -0.049,-1.308 -0.022,-0.0419 -0.0493,-0.17346 -0.0607,-0.29228 -0.0208,-0.21746 -0.0801,-0.47893 -0.1438,-0.63356 -0.0189,-0.0459 -0.0474,-0.13048 -0.0633,-0.18789 -0.0159,-0.0574 -0.0614,-0.17954 -0.10109,-0.2714 -0.0397,-0.0919 -0.0936,-0.21957 -0.11982,-0.28381 -0.066,-0.16159 -0.0558,-0.94145 0.0175,-1.34459 0.0334,-0.18372 0.0786,-0.47496 0.10052,-0.64719 0.0355,-0.2795 0.10023,-0.68155 0.21176,-1.31525 0.10588,-0.60163 0.16237,-1.16355 0.18788,-1.86883 0.0156,-0.43078 0.0451,-0.79358 0.0655,-0.80623 0.0205,-0.0126 0.0372,-0.0601 0.0372,-0.10551 0,-0.0916 0.10505,-0.27372 0.21647,-0.37531 0.0399,-0.0363 0.20846,-0.0904 0.37467,-0.12009 0.30674,-0.0548 0.41095,-0.1121 0.41095,-0.22592 0,-0.0347 0.0188,-0.0748 0.0418,-0.0889 0.023,-0.0142 0.0418,-0.0616 0.0418,-0.10539 0,-0.0904 0.10744,-0.44249 0.16833,-0.55167 0.0553,-0.0992 0.0509,-0.35187 -0.008,-0.46207 -0.0298,-0.0557 -0.0582,-0.4293 -0.0735,-0.96803 -0.0243,-0.8545 -0.0281,-0.88355 -0.14272,-1.11427 -0.0647,-0.1303 -0.14439,-0.24714 -0.17699,-0.25965 -0.0326,-0.0125 -0.0593,-0.0492 -0.0593,-0.0816 0,-0.0324 -0.0293,-0.0831 -0.065,-0.11281 -0.0358,-0.0297 -0.0895,-0.11259 -0.11946,-0.18423 -0.0299,-0.0716 -0.0806,-0.15768 -0.11251,-0.19121 -0.0319,-0.0335 -0.0956,-0.13613 -0.1415,-0.22799 -0.0459,-0.0919 -0.0945,-0.17641 -0.10812,-0.1879 -0.0136,-0.0115 -0.0587,-0.11074 -0.10013,-0.22057 -0.0415,-0.10983 -0.0914,-0.20958 -0.111,-0.22167 -0.0196,-0.0121 -0.0356,-0.0584 -0.0356,-0.10302 0,-0.0446 -0.0164,-0.0811 -0.0365,-0.0811 -0.0201,0 -0.0482,-0.0585 -0.0626,-0.13011 -0.0143,-0.0716 -0.11353,-0.31112 -0.22049,-0.53236 l -0.19447,-0.40225 0.006,-0.94458 c 0.003,-0.51952 0.0222,-0.98925 0.0427,-1.04385 0.0204,-0.0546 0.0504,-0.20731 0.0666,-0.33935 0.0162,-0.13205 0.0423,-0.24009 0.058,-0.24009 0.0157,0 0.0549,-0.0611 0.0871,-0.1357 0.15578,-0.36136 0.25162,-0.53179 0.37574,-0.66819 0.31338,-0.34438 0.38592,-0.7052 0.23712,-1.17942 -0.036,-0.11483 -0.0657,-0.25933 -0.066,-0.32113 -4.2e-4,-0.0618 -0.0192,-0.12397 -0.0422,-0.13817 -0.023,-0.0142 -0.0417,-0.0799 -0.0417,-0.14613 0,-0.0662 -0.0167,-0.13064 -0.037,-0.14322 -0.0204,-0.0126 -0.0489,-0.086 -0.0633,-0.16306 -0.0145,-0.0771 -0.0636,-0.21732 -0.10912,-0.3116 -0.0456,-0.0943 -0.0828,-0.21114 -0.0828,-0.25968 0,-0.10186 -0.0625,-0.23458 -0.16673,-0.35419 -0.04,-0.0459 -0.0848,-0.17608 -0.0994,-0.28922 -0.0286,-0.22098 -0.1196,-0.35796 -0.2379,-0.35796 -0.0773,0 -0.26245,0.21344 -0.39732,0.45804 -0.0439,0.0797 -0.0942,0.16424 -0.11174,0.18789 -0.0175,0.0237 -0.16085,0.2309 -0.31851,0.46055 -0.15765,0.22964 -0.33335,0.4739 -0.39043,0.5428 -0.0571,0.0689 -0.14331,0.20316 -0.19161,0.29836 -0.0483,0.0952 -0.11193,0.199 -0.14139,0.23065 -0.14886,0.15996 -0.41412,0.49994 -0.51946,0.66579 -0.0653,0.10275 -0.16125,0.24234 -0.2133,0.31021 -0.0521,0.0679 -0.19953,0.2831 -0.32774,0.4783 -0.1282,0.1952 -0.29699,0.41812 -0.37509,0.49537 -0.0781,0.0773 -0.14199,0.15577 -0.14199,0.17447 0,0.0187 -0.0244,0.0588 -0.0542,0.0892 -0.0298,0.0303 -0.11807,0.14852 -0.19616,0.2626 -0.0781,0.11409 -0.26877,0.34044 -0.42374,0.503 -0.15497,0.16256 -0.3246,0.35105 -0.37697,0.41888 -0.0524,0.0678 -0.15202,0.17975 -0.22146,0.24875 -0.0694,0.069 -0.20141,0.22852 -0.29327,0.35452 -0.0919,0.126 -0.24217,0.30606 -0.33403,0.40014 -0.0919,0.0941 -0.27961,0.28857 -0.41723,0.43223 -0.13762,0.14367 -0.32907,0.31442 -0.42545,0.37947 -0.41218,0.27817 -0.52594,0.36734 -0.9592,0.75186 -0.17969,0.15948 -0.68933,0.73898 -0.80984,0.92084 -0.0586,0.0884 -0.19478,0.25397 -0.30271,0.36796 -0.10793,0.114 -0.19624,0.21882 -0.19624,0.23294 0,0.025 -0.088,0.14551 -0.54994,0.75326 -0.21339,0.28075 -0.34156,0.45852 -0.43127,0.59817 -0.023,0.0357 -0.084,0.11278 -0.1357,0.17118 -0.0517,0.0584 -0.094,0.12124 -0.094,0.13966 0,0.0184 -0.0397,0.075 -0.0881,0.12568 -0.0485,0.0507 -0.16591,0.19554 -0.26096,0.32184 -0.0951,0.12629 -0.2057,0.26606 -0.24588,0.31058 -0.0402,0.0445 -0.0731,0.0933 -0.0731,0.10835 0,0.0151 -0.0471,0.082 -0.10464,0.14871 -0.0575,0.0667 -0.11519,0.15419 -0.12808,0.19438 -0.0129,0.0402 -0.041,0.0731 -0.0624,0.0731 -0.0214,0 -0.0389,0.0182 -0.0389,0.0404 0,0.0507 -0.42503,0.72714 -0.46877,0.746 -0.0178,0.008 -0.0323,0.0499 -0.0323,0.0939 0,0.044 -0.0188,0.08 -0.0418,0.08 -0.023,0 -0.0417,0.0325 -0.0417,0.0722 0,0.15419 -0.39091,1.09867 -0.46841,1.13172 -0.0179,0.008 -0.0326,0.0324 -0.0326,0.055 0,0.0378 -0.19565,0.32143 -0.2549,0.36952 -0.0479,0.0389 -0.16264,0.28774 -0.16264,0.35283 0,0.0356 -0.0188,0.0647 -0.0417,0.0647 -0.023,0 -0.0418,0.0151 -0.0418,0.0335 0,0.0184 -0.12787,0.2298 -0.28415,0.46973 -0.15629,0.23993 -0.31983,0.52079 -0.36342,0.62413 -0.0873,0.20702 -0.37979,0.646 -0.58803,0.88266 -0.0735,0.0836 -0.14526,0.18832 -0.15937,0.23277 -0.0141,0.0444 -0.175737,0.23334 -0.359187,0.41977 -0.31886,0.32404 -0.38377,0.43302 -0.29178,0.48987 0.023,0.0142 0.0418,0.11718 0.0418,0.22886 0,0.18669 -0.0141,0.21509 -0.17453,0.35244 -0.096,0.0822 -0.20027,0.14939 -0.23173,0.14939 -0.11052,0 -0.28782,0.12015 -0.33718,0.22849 -0.0274,0.0602 -0.0499,0.20559 -0.0499,0.32306 0,0.29369 -0.1298,0.48153 -0.76032,1.10032 -0.48233,0.47335 -0.80746,0.81617 -0.9516,1.00334 -0.0345,0.0447 -0.11773,0.15467 -0.18508,0.24429 -0.0673,0.0896 -0.23175,0.26959 -0.36534,0.39991 -0.1336,0.13031 -0.24382,0.2539 -0.24495,0.27462 -0.001,0.0207 -0.0773,0.11285 -0.16936,0.20471 -0.19557,0.19523 -1.12296,1.56904 -1.12296,1.66352 0,0.0354 -0.0188,0.076 -0.0417,0.0901 -0.023,0.0142 -0.0417,0.0555 -0.0417,0.0917 0,0.0363 -0.0752,0.14748 -0.167017,0.24713 -0.0919,0.0996 -0.16702,0.20927 -0.16702,0.24358 0,0.0782 0.353287,0.82857 0.426327,0.90556 0.0297,0.0313 0.10563,0.13634 0.16874,0.23345 0.10541,0.16219 0.11475,0.20996 0.11475,0.58715 0,0.4883 -0.0633,0.65408 -0.3511,0.91936 -0.15472,0.14262 -0.219717,0.17498 -0.351397,0.17498 -0.15606,0 -0.34135,-0.10648 -0.34135,-0.19617 0,-0.20037 -0.83501,-0.15579 -1.30125,0.0695 -0.0967,0.0467 -0.19964,0.0849 -0.22876,0.0849 -0.0291,0 -0.1629,0.10803 -0.2973,0.24008 -0.18854,0.18524 -0.26393,0.29732 -0.32999,0.49061 -0.16616,0.48613 -0.24099,0.8642 -0.28922,1.46139 -0.0148,0.18372 -0.0417,0.35282 -0.0596,0.37578 -0.0387,0.0496 -0.0693,0.33373 -0.12198,1.13571 -0.0214,0.32609 -0.0589,0.63019 -0.0833,0.67576 -0.0244,0.0456 -0.0443,0.13131 -0.0443,0.19055 0,0.0592 -0.0165,0.14032 -0.0367,0.1802 -0.0202,0.0399 -0.0698,0.17584 -0.11022,0.30215 -0.0404,0.1263 -0.0897,0.24749 -0.10943,0.26931 -0.0198,0.0218 -0.0362,0.0782 -0.0365,0.12526 -0.001,0.13927 -0.16436,0.56372 -0.24991,0.64927 -0.0115,0.0115 -0.0564,0.0866 -0.0999,0.16702 -0.14513,0.26854 -0.27491,0.37579 -0.45475,0.37579 -0.0898,0 -0.21822,-0.0325 -0.28547,-0.0722 -0.0923,-0.0545 -0.13992,-0.0613 -0.19434,-0.0275 -0.15716,0.0976 -0.19665,0.26851 -0.22087,0.95564 -0.0176,0.50016 -0.0465,0.75202 -0.11492,1.0021 -0.211447,0.77296 -0.283477,1.00329 -0.378657,1.21086 -0.16101,0.35113 -0.21357,0.48506 -0.21357,0.54422 0,0.0337 -0.0175,0.0612 -0.0389,0.0612 -0.0214,0 -0.0495,0.0329 -0.0624,0.0731 -0.0129,0.0402 -0.0754,0.13368 -0.13892,0.20776 -0.11793,0.13762 -0.1323,0.1635 -0.41201,0.74215 -0.0888,0.18371 -0.17396,0.34348 -0.18923,0.35503 -0.0153,0.0116 -0.12507,0.20884 -0.24402,0.43842 -0.11894,0.22958 -0.23054,0.4362 -0.24799,0.45916 -0.0174,0.023 -0.11139,0.19039 -0.20876,0.37205 -0.0974,0.18166 -0.20418,0.35742 -0.23734,0.39058 -0.0332,0.0332 -0.0998,0.13818 -0.14803,0.23339 -0.0483,0.0952 -0.0995,0.18249 -0.11377,0.19397 -0.0262,0.0211 -0.14921,0.24514 -0.36662,0.66807 -0.0649,0.1263 -0.12843,0.23904 -0.14111,0.25052 -0.0263,0.0238 -0.12569,0.24331 -0.20803,0.45929 -0.0306,0.0804 -0.0992,0.21157 -0.1524,0.29153 -0.0532,0.08 -0.0967,0.16765 -0.0967,0.19486 0,0.0272 -0.0163,0.0557 -0.0361,0.0634 -0.0501,0.0193 -0.40558,0.58166 -0.44381,0.70213 -0.0172,0.0542 -0.0947,0.19771 -0.17232,0.319 -0.0776,0.12129 -0.14107,0.23791 -0.14107,0.25917 0,0.0213 -0.0301,0.0637 -0.067,0.0942 -0.0368,0.0306 -0.0838,0.0939 -0.10428,0.14081 -0.0418,0.0956 -0.12989,0.24137 -0.16494,0.27311 -0.0127,0.0115 -0.0579,0.096 -0.10059,0.1879 -0.0904,0.19467 -0.27993,0.49484 -0.32522,0.51496 -0.0172,0.008 -0.0313,0.0325 -0.0313,0.0553 0,0.0228 -0.0823,0.16861 -0.18286,0.32407 -0.100567,0.15547 -0.217027,0.35605 -0.258777,0.44573 -0.0418,0.0897 -0.0885,0.17245 -0.10382,0.18394 -0.0153,0.0115 -0.0666,0.0973 -0.11394,0.19068 -0.0473,0.0934 -0.11272,0.19193 -0.1453,0.21897 -0.0666,0.0553 -0.16167,0.2707 -0.24299,0.55069 -0.03,0.10334 -0.10134,0.26305 -0.15849,0.35491 -0.0571,0.0918 -0.16405,0.27975 -0.23755,0.41754 -0.15406,0.28882 -0.30424,0.56341 -0.42243,0.77244 -0.0454,0.0804 -0.14456,0.25888 -0.22025,0.39667 -0.0757,0.13778 -0.15377,0.27106 -0.17352,0.29617 -0.0198,0.0251 -0.0997,0.16603 -0.17772,0.31316 -0.20586,0.38833 -0.33615,0.62361 -0.43715,0.78942 -0.049,0.0804 -0.10189,0.17433 -0.11764,0.20877 -0.0157,0.0345 -0.0394,0.072 -0.0525,0.0835 -0.0132,0.0115 -0.0441,0.0585 -0.0688,0.10439 -0.13754,0.2562 -0.20843,0.37806 -0.23077,0.39666 -0.0328,0.0273 -0.22524,0.33505 -0.35621,0.56964 -0.057,0.10205 -0.14866,0.2364 -0.20376,0.29856 -0.17989,0.20296 -0.68845,0.84289 -0.68845,0.86628 0,0.0126 -0.0489,0.0737 -0.10865,0.13583 -0.0598,0.0622 -0.17202,0.20695 -0.24946,0.32177 -0.0774,0.11482 -0.19733,0.28393 -0.26641,0.37579 -0.0691,0.0919 -0.13865,0.1952 -0.1546,0.22964 -0.016,0.0345 -0.042,0.072 -0.058,0.0835 -0.0329,0.0238 -0.373797,0.57576 -0.373797,0.60536 0,0.0106 -0.0642,0.11975 -0.14275,0.24248 -0.18598,0.29075 -0.27405,0.44797 -0.58927,1.05197 -0.14382,0.27557 -0.32919,0.61267 -0.41192,0.74911 -0.0827,0.13644 -0.15043,0.2623 -0.15043,0.27969 0,0.0174 -0.047,0.0823 -0.10438,0.14425 -0.0574,0.0619 -0.10439,0.13099 -0.10439,0.15343 0,0.0224 -0.0845,0.15928 -0.18789,0.3041 -0.10334,0.14482 -0.18789,0.27367 -0.18789,0.28633 0,0.0127 -0.0742,0.17915 -0.16483,0.36996 -0.0907,0.19081 -0.1885,0.43543 -0.21743,0.54361 -0.0289,0.10817 -0.0675,0.19668 -0.0857,0.19668 -0.0182,0 -0.0331,0.0284 -0.0331,0.0632 0,0.0347 -0.0179,0.0958 -0.0397,0.1357 -0.0219,0.0399 -0.0705,0.14766 -0.10818,0.23951 -0.0376,0.0919 -0.1302,0.28915 -0.20568,0.43842 -0.30058,0.59449 -0.36906,0.73406 -0.3995,0.8142 -0.0174,0.0459 -0.0618,0.15211 -0.0986,0.23596 -0.0368,0.0838 -0.0669,0.1731 -0.0669,0.19833 0,0.0252 -0.0142,0.0459 -0.0316,0.0459 -0.0174,0 -0.0567,0.0568 -0.0874,0.12619 -0.0307,0.0694 -0.0777,0.14926 -0.10448,0.17746 -0.0267,0.0282 -0.11672,0.18279 -0.19995,0.34354 -0.0832,0.16075 -0.19999,0.38622 -0.25949,0.50105 -0.0595,0.11482 -0.12333,0.22756 -0.14187,0.25052 -0.0185,0.023 -0.0895,0.11665 -0.15771,0.20818 -0.0682,0.0915 -0.16628,0.20643 -0.21795,0.25531 -0.0517,0.0489 -0.0939,0.10792 -0.0939,0.13118 0,0.0233 -0.0291,0.0664 -0.0646,0.0959 -0.0827,0.0686 -0.27844,0.49485 -0.363617,0.79167 -0.0612,0.21318 -0.15764,0.93186 -0.15671,1.16752 4.2e-4,0.0646 -0.0636,0.16804 -0.17199,0.27847 -0.21611,0.22019 -0.20307,0.33939 0.0516,0.47216 0.307037,0.16004 0.305237,0.15529 0.340857,0.89709 0.0521,1.0859 0.0487,1.27986 -0.0277,1.5898 -0.0584,0.23657 -0.0684,0.4196 -0.0528,0.96034 0.0106,0.36743 0.04,0.76201 0.0652,0.87683 0.0252,0.11483 0.0639,0.36848 0.0859,0.56368 0.022,0.1952 0.0701,0.51462 0.10673,0.70982 0.0367,0.1952 0.0835,0.46764 0.10408,0.60543 0.0206,0.13779 0.066,0.41963 0.10095,0.62631 0.0845,0.49945 0.16461,2.48103 0.10867,2.68624 -0.0229,0.0842 -0.0843,0.2002 -0.13636,0.25785 -0.1172,0.12983 -0.38797,0.3336 -0.443277,0.3336 -0.0226,0 -0.0481,0.0212 -0.0568,0.0471 -0.0101,0.0302 -0.22514,0.0564 -0.60048,0.0731 -0.63991,0.0285 -0.77482,0.0739 -0.85736,0.28915 -0.0239,0.0623 -0.0439,0.45766 -0.0448,0.88509 -9.1e-4,0.42484 -0.0194,0.79454 -0.041,0.82155 -0.0216,0.027 -0.0335,0.13035 -0.0263,0.22965 0.01,0.136 0.0284,0.17655 0.0756,0.16437 0.15447,-0.0399 2.479127,-0.0437 2.818397,-0.005 0.63807,0.0734 1.51685,0.23926 1.58456,0.29901 0.0218,0.0192 0.0635,0.035 0.0927,0.035 0.0714,0 0.52662,0.45658 0.7977,0.8001 0.12073,0.15299 0.26682,0.38785 0.32464,0.52192 0.0578,0.13407 0.12207,0.28134 0.14278,0.32727 0.0207,0.0459 0.0674,0.21503 0.10372,0.37578 0.0363,0.16075 0.0836,0.35804 0.10497,0.43842 0.0214,0.0804 0.0484,0.27766 0.0601,0.43841 0.0116,0.16076 0.043,0.49896 0.0698,0.75158 0.0547,0.51669 0.0268,1.63593 -0.0425,1.70524 -0.0243,0.0243 -0.0442,0.0864 -0.0442,0.13782 0,0.0515 -0.0164,0.10368 -0.0364,0.11604 -0.02,0.0124 -0.0477,0.0791 -0.0615,0.14836 -0.0138,0.0692 -0.0632,0.20468 -0.10977,0.30099 -0.0465,0.0963 -0.0846,0.19616 -0.0846,0.22191 0,0.0257 -0.0612,0.14904 -0.13593,0.27399 -0.0748,0.12496 -0.16827,0.33079 -0.2078,0.45742 -0.0537,0.17195 -0.14165,0.30668 -0.34762,0.53236 -0.15322,0.16788 -0.31027,0.30214 -0.35342,0.30214 -0.0427,0 -0.0884,0.0173 -0.10148,0.0385 -0.0131,0.0212 -0.084,0.0518 -0.15767,0.0679 -0.0736,0.0162 -0.16265,0.0436 -0.19786,0.061 -0.23783,0.11734 -0.51606,0.17873 -1.1496,0.25367 -0.16075,0.019 -0.46138,0.0623 -0.66806,0.0963 -0.25922,0.0425 -0.71383,0.0625 -1.465547,0.0644 l -1.08976,0.003 -0.37093,-0.19085 c -0.20401,-0.10496 -0.45111,-0.25655 -0.54912,-0.33685 -0.21531,-0.17643 -0.46953,-0.44047 -0.47003,-0.48818 0,-0.0191 -0.14598,-0.18431 -0.32396,-0.36719 -0.17797,-0.18289 -0.34238,-0.38527 -0.36534,-0.44975 -0.023,-0.0645 -0.0727,-0.16229 -0.11059,-0.21737 l -0.0688,-0.10014 -0.0307,0.12526 c -0.04,0.16323 -0.13657,0.2714 -0.24222,0.2714 -0.0878,0 -0.36713,0.0873 -0.4036,0.12619 -0.0115,0.0122 -0.0998,0.0571 -0.19626,0.0996 -0.0965,0.0425 -0.20976,0.10777 -0.25177,0.14499 -0.042,0.0372 -0.14159,0.1038 -0.221277,0.14797 -0.0797,0.0442 -0.23407,0.15971 -0.34307,0.25676 -0.10899,0.0971 -0.28272,0.21122 -0.38606,0.25372 -0.10334,0.0425 -0.18797,0.0914 -0.18805,0.10859 0,0.0172 -0.0254,0.0313 -0.0564,0.0313 -0.0309,0 -0.11078,0.0271 -0.17746,0.0603 -0.16332,0.0812 -0.74208,0.14794 -1.23052,0.14183 -0.40758,-0.005 -0.75437,0.051 -0.97841,0.15814 -0.0689,0.033 -0.238,0.16405 -0.37579,0.29131 -0.47624,0.43985 -0.72779,0.59176 -1.1709,0.70708 -0.2534,0.0659 -0.455767,0.0747 -1.584857,0.0688 -0.71191,-0.004 -1.45408,-0.0266 -1.64928,-0.0507 -0.1952,-0.0241 -0.62736,-0.0603 -0.96034,-0.0803 -0.60321,-0.0363 -0.78089,-0.0603 -0.93947,-0.12691 -0.0459,-0.0193 -0.18685,-0.0671 -0.31315,-0.10628 -0.12631,-0.0392 -0.262277,-0.0877 -0.302157,-0.10793 -0.0399,-0.0202 -0.0964,-0.0367 -0.12566,-0.0367 -0.0292,0 -0.10934,-0.0677 -0.17802,-0.1505 -0.0687,-0.0828 -0.18593,-0.22128 -0.26056,-0.30778 -0.0746,-0.0865 -0.1357,-0.17095 -0.1357,-0.18766 0,-0.0655 -0.14614,-0.33805 -0.20702,-0.38614 -0.0354,-0.028 -0.10196,-0.0509 -0.14789,-0.0509 -0.12106,0 -0.19609,0.0748 -0.31126,0.3105 -0.0561,0.11482 -0.16652,0.29332 -0.24535,0.39666 -0.17747,0.23265 -0.63589,0.66544 -0.70645,0.66695 -0.0287,6.3e-4 -0.0522,0.0168 -0.0522,0.0359 0,0.0609 -1.08485,0.18444 -1.39875,0.15933 -0.16076,-0.0129 -0.80138,-0.0411 -1.423607,-0.0626 -0.62222,-0.0216 -1.16711,-0.0584 -1.21086,-0.0819 -0.0437,-0.0235 -0.19228,-0.075 -0.33007,-0.11453 -0.13779,-0.0395 -0.26931,-0.0861 -0.29227,-0.10349 -0.023,-0.0174 -0.13571,-0.0834 -0.25053,-0.14671 -0.11482,-0.0633 -0.21816,-0.12632 -0.22965,-0.14007 -0.0415,-0.0497 -0.19333,-0.11935 -0.32127,-0.14745 -0.12617,-0.0277 -0.36048,-0.24982 -0.65994,-0.62558 -0.0689,-0.0864 -0.17344,-0.21655 -0.23231,-0.28912 -0.17026,-0.20987 -0.26761,-0.36862 -0.34979,-0.57037 -0.0421,-0.10334 -0.11065,-0.26567 -0.15236,-0.36074 -0.0417,-0.0951 -0.0882,-0.22207 -0.1033,-0.28223 -0.0151,-0.0602 -0.0442,-0.11972 -0.0646,-0.13234 -0.0204,-0.0126 -0.0371,-0.0673 -0.0371,-0.1215 0,-0.0593 -0.0804,-0.18719 -0.20194,-0.32113 -0.11107,-0.12241 -0.22381,-0.28644 -0.25053,-0.3645 -0.1,-0.29213 -0.0197,-1.38801 0.12031,-1.64249 0.0219,-0.0399 0.0399,-0.10922 0.0399,-0.15411 0,-0.0449 0.0163,-0.0917 0.0362,-0.10401 0.0199,-0.0123 0.0489,-0.11799 0.0644,-0.2348 0.0336,-0.25301 0.19124,-0.61358 0.35068,-0.80189 0.0632,-0.0747 0.15152,-0.20622 0.19615,-0.29226 l 0.0811,-0.15644 -0.0908,-0.0907 c -0.0874,-0.0874 -0.10152,-0.0887 -0.38169,-0.0359 -0.16001,0.0302 -0.36151,0.0434 -0.44777,0.0295 -0.17667,-0.0287 -0.44622,-0.2625 -0.538097,-0.46679 -0.22939,-0.51008 -0.37532,-2.2862 -0.37622,-4.57917 l -6e-4,-1.53113 0.10055,-0.10699 c 0.0553,-0.0588 0.13415,-0.11767 0.17522,-0.1307 0.0411,-0.013 0.153417,-0.13906 0.249657,-0.28006 0.0962,-0.14099 0.27688,-0.36262 0.40142,-0.49251 0.12453,-0.12988 0.29575,-0.34827 0.38048,-0.48532 0.19174,-0.31011 0.3773,-0.53118 0.89519,-1.06654 0.22391,-0.23146 0.4071,-0.45288 0.4071,-0.49204 0,-0.0392 -0.0329,-0.13516 -0.0731,-0.21333 -0.0554,-0.10765 -0.0731,-0.24412 -0.0731,-0.56272 0,-0.37825 0.0106,-0.43711 0.10517,-0.58455 0.0578,-0.0902 0.13237,-0.21729 0.16562,-0.28248 0.0633,-0.12406 0.74099,-0.77442 1.01659,-0.97555 0.088,-0.0642 0.24557,-0.19806 0.35011,-0.29738 0.10455,-0.0993 0.26271,-0.22865 0.35147,-0.28739 0.0888,-0.0587 0.16137,-0.12309 0.16137,-0.143 0,-0.0199 0.0205,-0.0362 0.0456,-0.0362 0.0251,0 0.12098,-0.0646 0.21316,-0.14347 0.0922,-0.0789 0.23609,-0.17576 0.31979,-0.21523 0.0837,-0.0395 0.24588,-0.13462 0.3604,-0.21144 0.11452,-0.0768 0.227257,-0.14045 0.250527,-0.14139 0.0233,-9.6e-4 0.11034,-0.0526 0.19349,-0.11483 0.44551,-0.33333 0.77768,-0.59288 0.85961,-0.67164 0.0507,-0.0488 0.10862,-0.0887 0.12869,-0.0887 0.0201,0 0.15099,-0.11274 0.29093,-0.25053 0.13994,-0.13779 0.27462,-0.25052 0.29929,-0.25052 0.0247,0 0.0448,-0.0175 0.0448,-0.0389 0,-0.0214 0.0343,-0.0498 0.0761,-0.0631 0.0419,-0.0133 0.11262,-0.0568 0.15719,-0.0968 0.0956,-0.0856 0.38283,-0.25606 0.48691,-0.28891 0.0402,-0.0127 0.0731,-0.0397 0.0731,-0.06 0,-0.0203 0.02,-0.0369 0.0445,-0.0369 0.0245,0 0.10613,-0.047 0.1814,-0.10438 0.0753,-0.0574 0.1521,-0.10439 0.17073,-0.10439 0.0186,0 0.0955,-0.047 0.17072,-0.10438 0.0753,-0.0574 0.1569,-0.10439 0.1814,-0.10439 0.0245,0 0.0445,-0.0188 0.0445,-0.0418 0,-0.023 0.0196,-0.0417 0.0435,-0.0417 0.0239,0 0.14138,-0.0718 0.26096,-0.15943 0.11958,-0.0877 0.24561,-0.17273 0.28006,-0.18898 0.0344,-0.0163 0.20288,-0.11867 0.3743,-0.22759 0.30318,-0.19264 0.53998,-0.45414 0.5429,-0.59954 0.002,-0.11464 0.268167,-0.54935 0.435187,-0.71156 0.0861,-0.0837 0.22093,-0.1959 0.29954,-0.24942 0.0786,-0.0535 0.14305,-0.11141 0.1432,-0.12864 1.7e-4,-0.0172 0.0248,-0.0313 0.0547,-0.0313 0.0515,0 0.41186,-0.15948 0.59276,-0.26233 0.0469,-0.0267 0.3416,-0.0548 0.67285,-0.0641 0.57243,-0.0161 0.59493,-0.0135 0.78436,0.0923 0.1795,0.10022 0.20266,0.10388 0.29102,0.046 0.1822,-0.11938 0.19836,-0.21045 0.23768,-1.33932 0.0411,-1.17929 0.0771,-1.57503 0.15655,-1.71808 0.0284,-0.0512 0.12136,-0.14049 0.20649,-0.19834 0.13201,-0.0897 0.2017,-0.10518 0.4735,-0.10518 0.25832,0 0.33938,0.0163 0.42778,0.0858 0.1057,0.0831 0.27798,0.40848 0.27798,0.52494 0,0.0315 0.0188,0.0573 0.0418,0.0573 0.023,0 0.0417,0.0267 0.0417,0.0592 0,0.0326 0.0264,0.11244 0.0588,0.17746 0.12984,0.26116 0.16068,0.3766 0.29926,1.1203 0.0794,0.4258 0.140287,0.52192 0.330907,0.52192 0.15243,0 0.24778,-0.0896 0.2887,-0.2714 0.0155,-0.0689 0.0444,-0.19102 0.0641,-0.2714 0.0197,-0.0804 0.0761,-0.33403 0.12528,-0.56368 0.0492,-0.22964 0.10544,-0.45511 0.12508,-0.50104 0.0308,-0.072 0.11765,-0.4995 0.18667,-0.91859 0.0114,-0.0689 0.041,-0.21921 0.0659,-0.33403 0.0249,-0.11483 0.0625,-0.31276 0.0836,-0.43986 0.0211,-0.1271 0.0692,-0.34318 0.10703,-0.48017 0.0378,-0.137 0.0929,-0.37121 0.12251,-0.52048 0.0296,-0.14927 0.0667,-0.33717 0.0826,-0.41754 0.0159,-0.0804 0.0447,-0.18372 0.0641,-0.22965 0.13968,-0.33113 0.41281,-2.34115 0.41986,-3.08979 0.002,-0.20668 0.0217,-0.47913 0.0439,-0.60543 0.0222,-0.12631 0.0572,-0.34239 0.0779,-0.48018 0.0207,-0.13778 0.0672,-0.41962 0.10343,-0.6263 0.13297,-0.75916 0.15699,-0.92659 0.18867,-1.31525 0.0178,-0.21817 0.0639,-0.56577 0.10257,-0.77245 0.12014,-0.64276 0.14895,-0.82376 0.18937,-1.18999 0.0431,-0.39046 0.14089,-0.97166 0.20725,-1.23174 0.0234,-0.0919 0.0669,-0.27378 0.0965,-0.40428 0.0296,-0.13049 0.0677,-0.25105 0.0845,-0.26791 0.0169,-0.0169 0.0307,-0.0842 0.0307,-0.14954 0,-0.0654 0.0174,-0.15149 0.0387,-0.19137 0.0558,-0.10451 0.17003,-0.49297 0.17003,-0.57843 0,-0.04 0.0174,-0.13041 0.0388,-0.20093 0.0213,-0.0705 0.0695,-0.37248 0.10698,-0.67103 0.0375,-0.29854 0.0869,-0.64614 0.10982,-0.77244 0.0229,-0.12631 0.0586,-0.3236 0.0793,-0.43842 0.0781,-0.43192 0.17561,-0.87972 0.2092,-0.96034 0.0191,-0.0459 0.0441,-0.13988 0.0556,-0.20877 0.0114,-0.0689 0.0519,-0.24739 0.0901,-0.39666 0.0381,-0.14927 0.085,-0.40293 0.1043,-0.56368 0.0748,-0.62448 0.15625,-1.04839 0.24865,-1.29437 0.0711,-0.1893 0.12477,-0.38598 0.15117,-0.55417 0.0154,-0.0981 0.0443,-0.18847 0.0643,-0.2008 0.02,-0.0123 0.0363,-0.0591 0.0363,-0.10402 0,-0.0449 0.0168,-0.11424 0.0372,-0.15412 0.0575,-0.11203 0.17156,-0.52882 0.17156,-0.62694 0,-0.0483 0.0163,-0.0979 0.0361,-0.11014 0.0199,-0.0123 0.0475,-0.0932 0.0614,-0.17992 0.0227,-0.14162 0.0732,-0.36155 0.19917,-0.86741 0.0229,-0.0919 0.0585,-0.25742 0.0791,-0.36793 0.0392,-0.21011 0.191277,-0.74112 0.253297,-0.88469 0.0198,-0.0459 0.0565,-0.18685 0.0815,-0.31315 0.0508,-0.25658 0.10019,-0.48198 0.16024,-0.7307 0.0222,-0.0919 0.0675,-0.29854 0.10072,-0.45929 0.0332,-0.16075 0.0891,-0.35987 0.12419,-0.44248 0.0351,-0.0826 0.0774,-0.25171 0.0941,-0.37579 0.0167,-0.12407 0.0445,-0.24437 0.0618,-0.26733 0.0173,-0.023 0.043,-0.11691 0.0571,-0.20877 0.0459,-0.29889 0.20551,-0.92275 0.24662,-0.96385 0.0172,-0.0172 0.0313,-0.0714 0.0313,-0.12037 0,-0.049 0.0149,-0.10692 0.0332,-0.12874 0.0182,-0.0218 0.0671,-0.1524 0.10855,-0.29019 0.0414,-0.13778 0.0886,-0.2787 0.10486,-0.31315 0.0322,-0.0683 0.20678,-0.62438 0.32124,-1.02297 0.0396,-0.13779 0.0855,-0.27871 0.10209,-0.31316 0.0166,-0.0344 0.0558,-0.119 0.0872,-0.18789 0.0314,-0.0689 0.0993,-0.17204 0.15101,-0.22922 0.0955,-0.10571 0.13306,-0.37621 0.0522,-0.37621 -0.023,0 -0.0417,-0.0423 -0.0416,-0.0939 0,-0.0817 -0.0651,-0.31402 -0.16722,-0.59499 -0.0448,-0.12324 -0.15099,-0.47698 -0.20057,-0.66807 -0.0238,-0.0918 -0.0679,-0.25156 -0.0979,-0.3549 -0.0357,-0.12295 -0.0579,-0.49592 -0.0641,-1.07906 -0.006,-0.6051 -0.0251,-0.91002 -0.0582,-0.9499 -0.0757,-0.0912 -0.25748,-0.0694 -0.3816,0.0456 -0.0619,0.0574 -0.13219,0.10439 -0.15615,0.10439 -0.024,0 -0.0436,0.015 -0.0436,0.0334 0,0.0568 -0.26775,0.13365 -0.46542,0.13365 -0.14262,0 -0.21004,-0.0234 -0.27888,-0.0966 -0.0499,-0.0531 -0.0908,-0.11233 -0.0908,-0.13153 0,-0.0192 -0.0451,-0.13072 -0.100207,-0.24783 -0.0551,-0.11712 -0.11234,-0.25991 -0.12717,-0.31732 -0.0148,-0.0574 -0.0554,-0.20773 -0.0902,-0.33403 -0.0615,-0.2234 -0.1116,-0.51 -0.17867,-1.02297 -0.018,-0.13779 -0.0546,-0.30342 -0.0814,-0.36807 -0.0268,-0.0647 -0.0486,-0.19173 -0.0486,-0.28241 0,-0.0907 -0.017,-0.19748 -0.0377,-0.23736 -0.17106,-0.32911 -0.25459,-1.39913 -0.25459,-3.26114 0,-0.8385 0.0183,-1.62901 0.0407,-1.7567 0.0224,-0.12768 0.0581,-0.42005 0.0795,-0.6497 0.0399,-0.42921 0.0701,-0.60609 0.1283,-0.75157 0.0184,-0.0459 0.0656,-0.22442 0.10486,-0.39666 0.0393,-0.17223 0.0877,-0.35073 0.10749,-0.39666 0.0198,-0.0459 0.0656,-0.17746 0.10172,-0.29228 0.0361,-0.11482 0.0821,-0.24635 0.10223,-0.29228 0.0201,-0.0459 0.065,-0.14927 0.0998,-0.22964 0.0348,-0.0804 0.124597,-0.27767 0.199597,-0.43842 0.16232,-0.34792 0.16966,-0.54642 0.031,-0.83862 l -0.0974,-0.20523 0.01,-1.65354 c 0.007,-1.28477 0.0241,-1.7364 0.0751,-2.02507 0.066,-0.37342 0.16358,-0.95814 0.21941,-1.31493 0.0298,-0.19041 0.19557,-0.45424 0.28587,-0.45497 0.0259,-4.2e-4 0.0705,-0.0286 0.0991,-0.063 0.0286,-0.0344 0.0873,-0.0626 0.13037,-0.0626 0.0431,0 0.0784,-0.0142 0.0784,-0.0316 0,-0.0174 0.0957,-0.0755 0.21273,-0.12915 0.30978,-0.14212 0.51697,-0.36109 0.59716,-0.63113 0.14392,-0.48464 0.0512,-0.76391 -0.2998,-0.90326 -0.36486,-0.14484 -0.36625,-0.1481 -0.44654,-1.04361 -0.0389,-0.43423 -0.088,-0.82213 -0.10892,-0.862 -0.021,-0.0399 -0.0386,-0.14322 -0.0391,-0.22965 -5.9e-4,-0.0864 -0.0183,-0.2323 -0.0395,-0.32416 -0.0373,-0.16204 -0.0969,-0.54894 -0.17048,-1.10648 -0.0197,-0.14927 -0.0548,-0.38414 -0.0779,-0.52193 -0.0232,-0.13778 -0.0549,-0.38687 -0.0706,-0.55353 -0.0259,-0.27554 -0.0205,-0.30992 0.0595,-0.37924 0.0492,-0.0427 0.22187,-0.0988 0.39227,-0.12743 0.41765,-0.0702 0.73685,-0.23434 0.81484,-0.41888 0.1004,-0.23759 0.0134,-0.90962 -0.16224,-1.25339 -0.13454,-0.2633 -0.13814,-0.28451 -0.16993,-1.0021 -0.0179,-0.4032 -0.0496,-0.95857 -0.0705,-1.23415 -0.0209,-0.27557 -0.0575,-0.76409 -0.0813,-1.0856 -0.0238,-0.3215 -0.0441,-0.93216 -0.0451,-1.357 -0.002,-0.74702 0.002,-0.77932 0.10443,-0.98122 0.0974,-0.19137 0.10619,-0.25228 0.10476,-0.73069 -0.001,-0.47861 -0.03,-0.73037 -0.12794,-1.12736 -0.0198,-0.0804 -0.0485,-0.24009 -0.0636,-0.35491 -0.0151,-0.11482 -0.0433,-0.26514 -0.0626,-0.33403 -0.0699,-0.24951 -0.11924,-0.46598 -0.18549,-0.8142 -0.0371,-0.1952 -0.0855,-0.43504 -0.10754,-0.53297 -0.022,-0.0979 -0.04,-0.23039 -0.04,-0.29436 0,-0.064 -0.0168,-0.13416 -0.0374,-0.15598 -0.033,-0.035 -0.0895,-0.23812 -0.15618,-0.56159 -0.0118,-0.0574 -0.0369,-0.14196 -0.0558,-0.18789 -0.058,-0.14152 -0.1224,-0.52665 -0.14657,-0.87684 -0.0213,-0.30924 -0.0918,-0.60595 -0.16008,-0.67424 -0.0157,-0.0157 -0.0286,-0.0609 -0.0286,-0.10037 0,-0.072 -0.1047,-0.44704 -0.16842,-0.60327 -0.0187,-0.0459 -0.0435,-0.13048 -0.055,-0.18789 -0.0355,-0.17677 -0.115947,-0.47583 -0.151647,-0.56368 -0.0187,-0.0459 -0.064,-0.15211 -0.10082,-0.23595 -0.0368,-0.0839 -0.0669,-0.17336 -0.0669,-0.1989 0,-0.0255 -0.0166,-0.0791 -0.0369,-0.11896 -0.12976,-0.25507 -0.25538,-0.737 -0.25544,-0.98001 -4e-5,-0.12968 -0.0284,-0.21106 -0.10439,-0.29941 -0.0574,-0.0667 -0.10433,-0.13568 -0.10433,-0.15322 0,-0.0175 -0.13153,-0.12758 -0.29228,-0.2445 -0.16075,-0.11692 -0.29228,-0.24056 -0.29228,-0.27475 0,-0.0342 -0.0142,-0.0622 -0.0316,-0.0622 -0.0174,0 -0.0576,-0.0611 -0.0894,-0.1357 -0.0318,-0.0746 -0.10213,-0.2349 -0.15633,-0.35614 -0.0542,-0.12125 -0.0985,-0.23802 -0.0985,-0.25951 0,-0.058 -0.12171,-0.42754 -0.16833,-0.51114 -0.0222,-0.0399 -0.0404,-0.10119 -0.0404,-0.13626 0,-0.0351 -0.0183,-0.0964 -0.0406,-0.13627 -0.0709,-0.12643 -0.37689,-1.1036 -0.37689,-1.20351 0,-0.0527 -0.0188,-0.10742 -0.0417,-0.12161 -0.023,-0.0142 -0.0418,-0.0706 -0.0418,-0.12526 0,-0.0547 -0.0162,-0.10945 -0.0359,-0.12166 -0.0198,-0.0122 -0.0474,-0.10566 -0.0613,-0.20767 -0.014,-0.10201 -0.0667,-0.25754 -0.1172,-0.34561 -0.0712,-0.12432 -0.0937,-0.23696 -0.10017,-0.50357 -0.007,-0.29952 -0.0679,-0.57098 -0.14229,-0.63779 -0.14044,-0.12612 -0.17456,-0.54029 -0.0546,-0.66241 0.0402,-0.0409 0.1423,-0.10618 0.22692,-0.14506 0.14944,-0.0687 0.28444,-0.25806 0.28467,-0.39937 1.7e-4,-0.10252 -0.12676,-0.64212 -0.17024,-0.72371 -0.0212,-0.0399 -0.0386,-0.1106 -0.0386,-0.15715 0,-0.0465 -0.0168,-0.11727 -0.0373,-0.15715 -0.0612,-0.11888 -0.13742,-0.6617 -0.17719,-1.26249 -0.0205,-0.31002 -0.054,-0.7046 -0.0743,-0.87683 -0.11191,-0.948 -0.13502,-1.33155 -0.11696,-1.94156 0.0109,-0.36743 0.0385,-0.71504 0.0613,-0.77245 0.14451,-0.36327 0.1501,-0.43714 0.1438,-1.8998 -0.004,-0.80377 0.008,-1.53617 0.0247,-1.62756 0.0182,-0.0973 0.008,-0.30486 -0.0243,-0.50105 -0.0304,-0.18418 -0.0658,-0.40064 -0.0786,-0.48101 -0.0128,-0.0804 -0.0377,-0.16493 -0.0553,-0.1879 -0.0176,-0.023 -0.0447,-0.10751 -0.0602,-0.18789 -0.0268,-0.1389 -0.078,-0.26768 -0.2574,-0.64719 -0.0658,-0.13921 -0.0792,-0.26779 -0.0806,-0.77244 -9.1e-4,-0.33299 -0.017,-0.64302 -0.0358,-0.68894 -0.1003,-0.24542 -0.1531,-0.34276 -0.2312,-0.42624 -0.0474,-0.0507 -0.0863,-0.10186 -0.0863,-0.11368 0,-0.0335 -0.26226,-0.60477 -0.39613,-0.86288 -0.0227,-0.0437 -0.0555,-0.0795 -0.0731,-0.0795 -0.0175,0 -0.0319,-0.0365 -0.0319,-0.081 0,-0.0446 -0.0172,-0.0916 -0.0381,-0.10461 -0.021,-0.013 -0.0508,-0.0985 -0.0663,-0.19014 -0.0155,-0.0916 -0.0453,-0.17717 -0.0663,-0.19013 -0.021,-0.013 -0.0381,-0.17166 -0.0381,-0.35267 0,-0.181 -0.0163,-0.33918 -0.0363,-0.3515 -0.0199,-0.0123 -0.0487,-0.116 -0.0638,-0.2304 -0.0152,-0.11439 -0.0458,-0.21927 -0.0681,-0.23305 -0.0223,-0.0138 -0.0405,-0.0672 -0.0405,-0.11862 0,-0.0515 -0.015,-0.11142 -0.0333,-0.13324 -0.0344,-0.0409 -0.12691,-0.31585 -0.21714,-0.6451 -0.0283,-0.10334 -0.0669,-0.23487 -0.0858,-0.29228 -0.0189,-0.0574 -0.0467,-0.16704 -0.0619,-0.24363 -0.0152,-0.0766 -0.083,-0.2445 -0.15062,-0.37314 -0.0677,-0.12863 -0.134207,-0.31544 -0.147867,-0.41513 -0.0137,-0.0997 -0.041,-0.19123 -0.0608,-0.20344 -0.0198,-0.0122 -0.0359,-0.0764 -0.0359,-0.14254 0,-0.0662 -0.0188,-0.13194 -0.0418,-0.14614 -0.023,-0.0142 -0.0417,-0.0565 -0.0417,-0.0939 0,-0.0783 -0.19282,-0.72158 -0.27222,-0.90815 -0.0293,-0.0689 -0.0756,-0.238 -0.10291,-0.37579 -0.0273,-0.13778 -0.0668,-0.28315 -0.0878,-0.32302 -0.021,-0.0399 -0.0382,-0.10031 -0.0382,-0.13429 0,-0.0568 -0.0831,-0.27427 -0.17212,-0.45027 -0.0202,-0.0399 -0.0367,-0.10658 -0.0367,-0.14822 0,-0.0417 -0.0173,-0.0936 -0.0385,-0.1154 -0.0498,-0.0513 -0.1703,-0.92582 -0.1703,-1.23595 0,-0.13161 -0.0188,-0.25091 -0.0418,-0.2651 -0.023,-0.0142 -0.0418,-0.067 -0.0419,-0.11729 -2e-4,-0.10763 -0.16369,-0.44227 -0.30939,-0.63329 -0.0564,-0.0739 -0.15371,-0.22654 -0.21626,-0.33911 -0.0626,-0.11258 -0.145,-0.23287 -0.18322,-0.26731 -0.0382,-0.0345 -0.10289,-0.16598 -0.14371,-0.29228 -0.0408,-0.12631 -0.0864,-0.23904 -0.10134,-0.25052 -0.0241,-0.0186 -0.0912,-0.13286 -0.23281,-0.39667 -0.0247,-0.0459 -0.0542,-0.0929 -0.0657,-0.10442 -0.0479,-0.048 -0.16702,-0.30349 -0.16702,-0.35825 0,-0.0326 -0.0188,-0.0593 -0.0417,-0.0593 -0.023,0 -0.0418,-0.0376 -0.0418,-0.0835 0,-0.0459 -0.0179,-0.0835 -0.0399,-0.0835 -0.0219,0 -0.0522,-0.066 -0.0674,-0.1466 -0.0151,-0.0806 -0.0442,-0.15689 -0.0645,-0.16948 -0.0204,-0.0126 -0.037,-0.0594 -0.037,-0.10392 0,-0.0446 -0.0149,-0.0811 -0.033,-0.0811 -0.0375,0 -0.17575,-0.48995 -0.17575,-0.62272 0,-0.0479 -0.0188,-0.0871 -0.0417,-0.0871 -0.023,0 -0.0418,-0.0323 -0.0418,-0.0717 0,-0.0394 -0.0262,-0.14746 -0.0583,-0.24008 -0.0321,-0.0926 -0.0824,-0.25296 -0.1119,-0.356306 -0.0295,-0.103341 -0.0664,-0.206682 -0.082,-0.229647 -0.0156,-0.02296 -0.0398,-0.107516 -0.0537,-0.187892 -0.0139,-0.08038 -0.0557,-0.305848 -0.0929,-0.501048 -0.0372,-0.1952 -0.084,-0.683721 -0.10405,-1.085603 -0.0521,-1.04607 -0.14225,-2.142178 -0.18131,-2.205385 -0.10495,-0.169818 0.0198,-5.701753 0.14092,-6.247185 0.0233,-0.104773 0.0611,-0.275321 0.084,-0.378992 0.023,-0.103667 0.0417,-0.246574 0.0417,-0.317564 0,-0.07099 0.0256,-0.235129 0.0569,-0.36475 0.0597,-0.247092 0.11708,-0.567662 0.19545,-1.091628 0.12372,-0.827296 0.17061,-1.020054 0.31639,-1.300815 0.0316,-0.06096 0.0575,-0.140812 0.0575,-0.177455 0,-0.03664 0.0158,-0.06663 0.0351,-0.06663 0.0193,0 0.0592,-0.0732 0.0887,-0.16266 0.0295,-0.08947 0.0946,-0.2069 0.14452,-0.260963 0.05,-0.05407 0.12681,-0.159366 0.17077,-0.234001 0.044,-0.07464 0.0947,-0.135701 0.11269,-0.135701 0.018,0 0.0327,-0.01983 0.0327,-0.04406 0,-0.06852 0.40173,-0.678105 0.52029,-0.789483 0.0583,-0.05478 0.10601,-0.124507 0.10601,-0.154949 0,-0.03044 0.0188,-0.05535 0.0418,-0.05535 0.023,0 0.0417,-0.01978 0.0417,-0.04395 0,-0.03937 0.4867,-0.781613 0.54613,-0.832879 0.026,-0.02242 0.36061,-0.637975 0.52833,-0.971906 0.0948,-0.188758 0.0982,-0.216432 0.0475,-0.38812 -0.03,-0.101679 -0.0693,-0.18487 -0.0872,-0.18487 -0.0179,0 -0.0322,-0.126828 -0.0317,-0.281839 7.1e-4,-0.215288 0.0202,-0.306487 0.0826,-0.386224 0.10782,-0.137843 0.10417,-0.221847 -0.0157,-0.361214 -0.0935,-0.108639 -0.13048,-0.118259 -0.63675,-0.165408 -0.53928,-0.05022 -0.67548,-0.07549 -1.10121,-0.204281 -0.1263,-0.03821 -0.31419,-0.08656 -0.41754,-0.10745 -0.40107,-0.08107 -0.86064,-0.19707 -0.98121,-0.247668 -0.0459,-0.01928 -0.13988,-0.04649 -0.20877,-0.06048 -0.0689,-0.01399 -0.26619,-0.05497 -0.43842,-0.09107 -0.39311,-0.0824 -0.866067,-0.14993 -1.816297,-0.259346 -0.44501,-0.05124 -0.98399,-0.318579 -1.33683,-0.66307 -0.28171,-0.275037 -0.40248,-0.478596 -0.47777,-0.805237 -0.029,-0.125926 -0.0816,-0.31184 -0.11677,-0.413147 -0.0749,-0.215684 -0.0832,-1.307279 -0.0117,-1.54832 0.0821,-0.276883 0.0177,-0.918863 -0.0922,-0.918863 -0.0174,0 -0.0311,-0.03288 -0.0305,-0.07307 5.9e-4,-0.04019 -0.0639,-0.204595 -0.14341,-0.365348 -0.17623,-0.356516 -0.27546,-0.778819 -0.27531,-1.171737 8e-5,-0.2673 0.0109,-0.305137 0.11493,-0.404245 0.0632,-0.06013 0.20468,-0.131792 0.31449,-0.159241 0.26277,-0.06568 0.51098,-0.28095 0.4706,-0.408162 -0.0276,-0.08693 -0.21636,-0.215713 -0.3162,-0.215713 -0.10906,0 -0.66722,-0.447719 -0.66722,-0.535198 0,-0.02332 -0.0144,-0.04866 -0.0321,-0.05632 -0.0277,-0.012 -0.34828,-0.388742 -0.43699,-0.513544 -0.0169,-0.02375 -0.0779,-0.102256 -0.1357,-0.174465 -0.0578,-0.07221 -0.10501,-0.152064 -0.10501,-0.177454 0,-0.02539 -0.0188,-0.04616 -0.0418,-0.04616 -0.0964,0 -0.0401,-0.384362 0.0997,-0.681078 0.23206,-0.492526 0.25249,-0.562293 0.19854,-0.678022 -0.0262,-0.05626 -0.0676,-0.145358 -0.0919,-0.197997 -0.0243,-0.05264 -0.1284,-0.146586 -0.23135,-0.20877 -0.15916,-0.09613 -0.23391,-0.113061 -0.49927,-0.113061 -0.30966,0 -0.31445,-0.0017 -0.614167,-0.217417 -0.49364,-0.355285 -0.82401,-0.762553 -0.82401,-1.015807 0,-0.05388 -0.0188,-0.109588 -0.0418,-0.12378 -0.0573,-0.03541 -0.053,-0.835196 0.005,-1.020007 0.075,-0.237042 0.4214,-0.910174 0.49575,-0.963306 0.0161,-0.01148 0.0743,-0.09853 0.12937,-0.19345 0.0551,-0.09492 0.21227,-0.339176 0.34928,-0.542801 0.137007,-0.203626 0.268537,-0.400625 0.292277,-0.437774 0.0784,-0.122677 0.20788,-0.307885 0.23009,-0.329117 0.012,-0.01148 0.0576,-0.08664 0.10121,-0.167016 0.0436,-0.08038 0.1396,-0.221296 0.21323,-0.313155 0.0736,-0.09186 0.20545,-0.279751 0.29292,-0.417539 0.0875,-0.137788 0.2217,-0.324366 0.29826,-0.414617 0.0766,-0.09025 0.1392,-0.188895 0.1392,-0.219208 0,-0.03031 0.0173,-0.05512 0.0384,-0.05512 0.0211,0 0.0508,-0.05615 0.0658,-0.124782 0.0151,-0.06863 0.0448,-0.135504 0.066,-0.148602 0.0212,-0.0131 0.0388,-0.06499 0.0392,-0.115304 7.8e-4,-0.118314 0.0983,-0.39655 0.2507,-0.715074 0.15857,-0.331481 0.21956,-0.621629 0.18488,-0.879459 -0.0291,-0.216503 -0.13401,-0.569044 -0.18014,-0.605525 -0.0145,-0.01148 -0.0614,-0.09603 -0.10429,-0.187892 -0.15917,-0.341289 -0.28614,-0.578673 -0.33307,-0.622715 -0.10151,-0.09525 -0.59318,-0.274995 -0.75219,-0.274995 -0.1842,0 -0.861917,-0.267159 -0.861917,-0.339769 0,-0.04697 -0.40116,-0.337898 -0.66229,-0.480308 -0.41617,-0.226962 -0.81274,-0.476981 -0.8339,-0.525733 -0.008,-0.01764 -0.036,-0.03207 -0.0631,-0.03207 -0.027,0 -0.0965,-0.04228 -0.15427,-0.09395 -0.0578,-0.05167 -0.17037,-0.130356 -0.2501,-0.174862 -0.0797,-0.0445 -0.19893,-0.138201 -0.2649,-0.208218 -0.11367,-0.120661 -0.11862,-0.141358 -0.0948,-0.396254 0.0138,-0.147917 0.0406,-0.279689 0.0595,-0.292824 0.0431,-0.02995 0.17616,-0.312959 0.17616,-0.374663 0,-0.02524 0.0188,-0.04588 0.0417,-0.04588 0.023,0 0.0418,-0.01969 0.0418,-0.04376 0,-0.02407 0.0613,-0.141505 0.13633,-0.260963 0.075,-0.119462 0.17363,-0.292361 0.21921,-0.38422 0.0456,-0.09186 0.097,-0.173278 0.11419,-0.180932 0.0172,-0.0077 0.0313,-0.05933 0.0313,-0.114823 0,-0.0555 0.0188,-0.100907 0.0418,-0.100907 0.023,0 0.0417,-0.02972 0.0417,-0.06605 0,-0.03633 0.0447,-0.200738 0.0993,-0.365348 0.0546,-0.16461 0.13121,-0.412027 0.17021,-0.549815 0.039,-0.137788 0.0867,-0.288102 0.10605,-0.334032 0.16318,-0.387621 0.51066,-1.497003 0.60159,-1.920682 0.10604,-0.494087 0.15337,-0.666428 0.19435,-0.707729 0.0217,-0.02182 0.0394,-0.06692 0.0394,-0.100241 0,-0.03332 0.0823,-0.231544 0.18288,-0.440505 0.100587,-0.208961 0.211137,-0.445691 0.245667,-0.526068 0.18886,-0.43963 0.26261,-0.587561 0.41059,-0.823617 0.0896,-0.142966 0.16296,-0.277623 0.16296,-0.299237 0,-0.02161 0.0159,-0.04556 0.0353,-0.05322 0.0194,-0.0077 0.10831,-0.117259 0.19754,-0.243564 0.0892,-0.126306 0.18337,-0.248436 0.20922,-0.271401 0.0258,-0.02296 0.13301,-0.164559 0.23816,-0.314655 0.10515,-0.150096 0.37414,-0.450725 0.59775,-0.668064 0.22362,-0.217338 0.55026,-0.536081 0.72587,-0.708316 0.38821,-0.380755 0.61878,-0.584555 0.66134,-0.584555 0.0175,0 0.10526,-0.07516 0.19496,-0.167016 0.0897,-0.09186 0.18454,-0.167016 0.21077,-0.167016 0.0262,0 0.0835,-0.03953 0.12718,-0.08783 0.0437,-0.04831 0.16406,-0.136925 0.26743,-0.196922 0.10337,-0.06 0.21277,-0.133207 0.24312,-0.162688 0.0303,-0.02948 0.0691,-0.0536 0.0861,-0.0536 0.017,0 0.0679,-0.03288 0.11309,-0.07307 0.09,-0.08 0.24434,-0.170677 0.52408,-0.307874 0.315997,-0.154981 0.431817,-0.217417 0.453327,-0.244365 0.0115,-0.01439 0.11482,-0.06056 0.22964,-0.102608 0.11483,-0.04204 0.3403,-0.13706 0.50105,-0.211146 0.48586,-0.223921 0.59593,-0.271802 0.62481,-0.271802 0.0152,0 0.14389,-0.0537 0.28597,-0.11934 0.14208,-0.06564 0.34288,-0.152118 0.44622,-0.192179 0.10334,-0.04006 0.22052,-0.0897 0.2604,-0.110307 0.0399,-0.02061 0.11851,-0.03747 0.17473,-0.03747 0.0562,0 0.15513,-0.0204 0.21978,-0.04534 0.0647,-0.02494 0.21149,-0.06333 0.32631,-0.08532 0.11482,-0.02199 0.28393,-0.05687 0.37579,-0.07751 0.0919,-0.02064 0.25753,-0.05707 0.36816,-0.08096 0.21523,-0.04648 0.71757,-0.200972 0.82319,-0.253177 0.0352,-0.0174 0.12854,-0.04581 0.2074,-0.06313 0.136327,-0.02994 0.177027,-0.04587 0.378257,-0.148036 0.0473,-0.02401 0.27746,-0.05327 0.51149,-0.06502 0.41186,-0.02068 0.71179,-0.0694 0.8848,-0.14371 0.0459,-0.01973 0.17745,-0.04467 0.29228,-0.05542 0.11482,-0.01076 0.37787,-0.04017 0.58455,-0.06536 0.20668,-0.02519 0.59255,-0.06251 0.8575,-0.08292 0.45003,-0.03468 0.79557,-0.116243 1.13417,-0.267721 0.0758,-0.0339 0.22703,-0.09415 0.33612,-0.133883 0.10908,-0.03973 0.19833,-0.08443 0.19833,-0.09932 0,-0.01489 0.0546,-0.05931 0.12126,-0.09871 0.11048,-0.06526 0.313837,-0.07147 2.286027,-0.06981 1.30969,0.0011 2.23899,0.0186 2.35266,0.04429 0.21637,0.04892 0.955487,0.107753 2.004187,0.159545 0.77526,0.03829 0.88337,0.06308 1.24281,0.284951 0.12091,0.07464 0.24304,0.135974 0.2714,0.136308 0.16246,0.0019 1.03278,0.395329 1.03278,0.466853 0,0.01847 0.0249,0.03359 0.0553,0.03359 0.0304,0 0.0995,0.04697 0.15342,0.104385 0.0539,0.05741 0.12297,0.104385 0.15342,0.104385 0.0304,0 0.0555,0.01409 0.0556,0.03131 0,0.01722 0.0693,0.07829 0.15356,0.135701 0.0843,0.05741 0.17422,0.123174 0.19981,0.146138 0.0756,0.06782 0.20472,0.146781 0.28309,0.173098 0.0402,0.01349 0.0731,0.03708 0.0731,0.05242 0,0.01534 0.0611,0.0634 0.1357,0.106809 0.0746,0.04341 0.1451,0.08974 0.15658,0.102949 0.0115,0.01321 0.0866,0.06002 0.167017,0.104024 0.0804,0.044 0.20452,0.128553 0.27588,0.187893 0.0714,0.05934 0.1653,0.136524 0.20877,0.171521 0.0893,0.0719 0.40194,0.222796 0.5592,0.269893 0.0574,0.01719 0.13257,0.05467 0.16701,0.08327 0.0345,0.02861 0.21295,0.132465 0.39667,0.230797 0.62149,0.332647 0.79301,0.42874 0.90415,0.506553 0.061,0.04268 0.12424,0.0776 0.14063,0.0776 0.0164,0 0.0902,0.05167 0.16406,0.114824 0.0739,0.06315 0.22593,0.18998 0.33796,0.281839 0.2842,0.233034 0.68577,0.619481 0.68646,0.660607 4.2e-4,0.01886 0.0241,0.05948 0.0528,0.09027 0.0287,0.03078 0.13674,0.164251 0.24008,0.296595 0.20621,0.264076 0.62093,0.720495 1.381497,1.520398 0.56429,0.593469 0.77307,0.849884 0.93496,1.148234 0.0623,0.114823 0.14877,0.239735 0.19215,0.277582 0.0979,0.08538 0.49768,0.661841 0.49768,0.717568 0,0.02245 0.047,0.102401 0.10439,0.177672 0.0574,0.07527 0.10438,0.156898 0.10438,0.181395 0,0.0245 0.0141,0.04469 0.0313,0.04487 0.0172,1.67e-4 0.0516,0.04245 0.0764,0.09395 0.0248,0.05149 0.11193,0.225146 0.19361,0.385899 0.0817,0.160752 0.17882,0.362737 0.21587,0.448855 0.0371,0.08612 0.0955,0.220482 0.12999,0.298588 0.0344,0.07811 0.0626,0.191749 0.0626,0.252541 0,0.06079 0.0376,0.188308 0.0835,0.283371 0.0459,0.09506 0.0835,0.187588 0.0835,0.205611 0,0.01802 0.0492,0.141322 0.1094,0.273997 0.0602,0.132675 0.13624,0.306989 0.16904,0.387365 0.0328,0.08038 0.0775,0.178765 0.0994,0.218642 0.0219,0.03988 0.0397,0.109228 0.0397,0.154113 0,0.04489 0.0188,0.09322 0.0418,0.107416 0.023,0.01419 0.0417,0.07056 0.0417,0.125262 0,0.0547 0.0166,0.109712 0.0369,0.122246 0.0203,0.01253 0.0503,0.131076 0.0667,0.263426 0.0164,0.13235 0.0445,0.259426 0.0626,0.282391 0.018,0.02296 0.0435,0.107516 0.0567,0.187893 0.0131,0.08038 0.0455,0.277664 0.0718,0.438416 0.0314,0.191459 0.0405,0.630748 0.0264,1.273496 -0.0198,0.901785 -0.0626,1.275884 -0.15283,1.336127 -0.0172,0.01148 -0.0621,0.08101 -0.0997,0.154502 -0.0542,0.105779 -0.0685,0.260365 -0.0685,0.7417 0,0.334441 -0.0165,0.640698 -0.0366,0.680577 -0.0507,0.100306 -0.12009,0.335397 -0.15244,0.516284 -0.0183,0.102531 -0.006,0.192966 0.0392,0.279768 0.091,0.176035 0.0898,0.743454 -0.002,0.955631 -0.0376,0.08689 -0.0846,0.200269 -0.10438,0.251939 -0.0198,0.05167 -0.0531,0.136223 -0.0741,0.187893 -0.021,0.05167 -0.0703,0.234866 -0.1096,0.407101 -0.0393,0.172235 -0.0922,0.360128 -0.11759,0.41754 -0.0471,0.106589 -0.23283,0.379171 -0.28506,0.418391 -0.0902,0.06773 -0.19178,0.469674 -0.24242,0.959489 -0.0541,0.523006 -0.0607,0.550843 -0.18175,0.757317 -0.0889,0.151784 -0.11106,0.242753 -0.11111,0.457218 0,0.327547 -0.10403,0.941531 -0.17518,1.034575 -0.14815,0.193751 -0.45958,0.465419 -0.56311,0.491206 -0.27084,0.06747 -0.58007,0.284349 -0.70981,0.497829 -0.0272,0.04471 -0.13469,0.223429 -0.23892,0.397151 -0.21429,0.357163 -0.32622,0.498346 -0.39507,0.498346 -0.026,0 -0.0473,0.01752 -0.0473,0.03894 0,0.02142 -0.0408,0.0519 -0.0907,0.06774 -0.0499,0.01584 -0.12406,0.05938 -0.16478,0.09676 -0.0407,0.03738 -0.1643,0.102518 -0.27461,0.144756 -0.30167,0.115504 -0.40104,0.166064 -0.49285,0.250787 -0.0675,0.06228 -0.12894,0.07311 -0.32029,0.05645 -0.19488,-0.01696 -0.25215,-0.0063 -0.32359,0.06027 -0.0477,0.04448 -0.0868,0.116991 -0.0868,0.161129 0,0.09431 0.15434,0.250411 0.24796,0.250782 0.0359,0 0.11901,0.02832 0.18479,0.06263 0.0658,0.03431 0.14563,0.06237 0.17745,0.06237 0.0318,0 0.0579,0.01879 0.0579,0.04175 0,0.02297 0.0197,0.04175 0.0438,0.04175 0.0241,0 0.14192,0.06106 0.2619,0.135701 0.11998,0.07464 0.28504,0.169851 0.36681,0.211592 0.0818,0.04174 0.19797,0.121596 0.25821,0.177454 0.0602,0.05586 0.12684,0.101563 0.147987,0.101563 0.0212,0 0.0636,0.03029 0.0943,0.06731 0.0307,0.03702 0.15986,0.118627 0.28695,0.181346 0.1271,0.06271 0.32504,0.166465 0.43986,0.230553 0.48536,0.270904 0.57174,0.303054 0.94887,0.353226 0.21299,0.02833 0.42484,0.06837 0.47077,0.08897 0.13263,0.05948 0.43653,0.128531 0.73069,0.16603 0.6294,0.08024 0.74583,0.110026 1.14823,0.293752 0.38411,0.175371 0.5007,0.205467 0.79596,0.205467 0.16808,0 0.31593,0.01671 0.32855,0.03714 0.0126,0.02043 0.0842,0.04708 0.15904,0.05923 0.0748,0.01215 0.24883,0.05338 0.38661,0.09162 0.13779,0.03824 0.32569,0.08534 0.41754,0.104661 0.45176,0.09501 0.86057,0.20813 0.89771,0.248394 0.0555,0.06012 0.20884,0.119483 0.3774,0.14608 0.20797,0.03282 0.44135,0.09765 0.55106,0.153074 0.0399,0.02014 0.0953,0.03663 0.1232,0.03663 0.0977,0 0.53499,0.144093 0.53499,0.176268 0,0.01788 0.0369,0.0325 0.0821,0.0325 0.0915,0 0.39033,0.128698 0.412,0.177454 0.008,0.01722 0.0676,0.03132 0.13324,0.03132 0.0656,0 0.13093,0.01879 0.14512,0.04175 0.0142,0.02296 0.0525,0.04175 0.0852,0.04175 0.0535,0 0.23023,0.07789 1.043707,0.460075 0.13862,0.06512 0.3032,0.131253 0.36574,0.146949 0.0625,0.01569 0.12403,0.04524 0.13665,0.06567 0.0126,0.02042 0.0852,0.03713 0.16137,0.03713 0.0761,0 0.22064,0.02877 0.32113,0.06394 0.2754,0.09639 0.78597,0.348332 0.87614,0.432333 0.0438,0.04084 0.25335,0.16345 0.46558,0.272457 0.54108,0.277918 0.62596,0.332633 1.08666,0.700502 0.22467,0.179404 0.42666,0.326186 0.44885,0.326186 0.0222,0 0.0404,0.01489 0.0404,0.03308 0,0.01819 0.11946,0.102957 0.26545,0.188361 0.146,0.08541 0.3198,0.20216 0.38623,0.25945 0.0664,0.05729 0.15786,0.116051 0.20319,0.130578 0.0957,0.03064 0.50655,0.294298 0.624327,0.400591 0.0442,0.03993 0.1179,0.08449 0.1637,0.09902 0.0885,0.0281 0.47888,0.269926 0.62223,0.385493 0.0472,0.03806 0.18427,0.153755 0.30457,0.257096 0.32439,0.278662 0.55302,0.459293 0.58133,0.459293 0.0138,0 0.0761,0.05222 0.13853,0.116043 0.0624,0.06382 0.22616,0.200047 0.36394,0.302716 0.13778,0.102669 0.34445,0.288361 0.45928,0.412646 0.11482,0.124289 0.46596,0.49068 0.78031,0.814202 0.31435,0.323527 0.61464,0.644598 0.6673,0.713492 0.0527,0.06889 0.11019,0.131525 0.12783,0.139178 0.0176,0.0077 0.0323,0.03584 0.0327,0.06263 4.2e-4,0.02679 0.1002,0.16588 0.22195,0.30908 0.12175,0.143203 0.2651,0.349885 0.31856,0.459293 0.0608,0.124452 0.30503,0.409961 0.65235,0.762607 0.30535,0.310023 0.60798,0.630305 0.67252,0.711734 0.0645,0.08143 0.15942,0.192782 0.21083,0.247446 0.0514,0.05466 0.10434,0.133655 0.11763,0.175538 0.0133,0.04188 0.0417,0.07615 0.0631,0.07615 0.0214,0 0.0389,0.02058 0.0389,0.04574 0,0.02516 0.0361,0.09643 0.0802,0.158381 0.077,0.108139 0.32196,0.558451 0.53049,0.975218 0.0545,0.10897 0.0991,0.23204 0.0991,0.273489 0,0.04145 0.016,0.09321 0.0355,0.115028 0.0195,0.02182 0.0679,0.161796 0.10751,0.311067 0.0974,0.367472 0.15975,0.555891 0.1995,0.603344 0.0183,0.02182 0.0332,0.07891 0.0332,0.126866 0,0.09356 0.13519,0.5045 0.18106,0.550375 0.0152,0.01524 0.0283,0.06685 0.029,0.114694 7.1e-4,0.04784 0.0289,0.123458 0.0626,0.168035 0.0337,0.04458 0.0613,0.121545 0.0613,0.171041 0,0.153504 0.12229,0.344729 0.28381,0.443786 0.31181,0.191241 0.62292,0.453109 1.00013,0.841851 0.21242,0.21892 0.38622,0.410237 0.38622,0.425152 0,0.01491 0.11087,0.137984 0.24638,0.273488 0.30101,0.301017 0.50653,0.583424 0.60586,0.832549 0.0412,0.103341 0.0918,0.220519 0.11239,0.260394 0.0206,0.03988 0.0375,0.113383 0.0375,0.163346 0,0.04997 0.0314,0.190602 0.0699,0.312532 0.061,0.193421 0.0923,0.23224 0.24592,0.304433 0.0968,0.04551 0.22508,0.09506 0.28502,0.110105 0.06,0.01504 0.10921,0.03941 0.10947,0.05414 4.2e-4,0.01474 0.0742,0.06209 0.16427,0.105241 0.16983,0.08134 0.92086,0.812757 0.92086,0.896804 0,0.02625 0.0159,0.04772 0.0354,0.04772 0.0195,0 0.0523,0.0364 0.0731,0.08089 0.0207,0.04449 0.1129,0.161922 0.20481,0.260963 0.0919,0.09904 0.22232,0.283409 0.2898,0.409715 0.0675,0.126305 0.14259,0.250565 0.16692,0.276135 0.0243,0.02557 0.10999,0.126297 0.19037,0.223843 0.0804,0.09755 0.17987,0.216703 0.2211,0.264795 0.0412,0.04809 0.11559,0.154043 0.16525,0.235451 0.0497,0.0814 0.16624,0.224419 0.25907,0.31781 0.17883,0.179914 0.24862,0.274177 0.31316,0.423009 0.0219,0.05047 0.0921,0.125626 0.15595,0.167016 0.0639,0.04139 0.2431,0.202081 0.39824,0.357093 0.15514,0.155011 0.31508,0.283212 0.35543,0.284891 0.0404,0.0017 0.12972,0.03905 0.19862,0.08305 0.0689,0.044 0.15344,0.09121 0.18789,0.104919 0.0344,0.01371 0.1284,0.0593 0.20877,0.10132 0.0804,0.04202 0.25892,0.135216 0.39676,0.207112 0.13784,0.07189 0.4068,0.242582 0.59768,0.37931 0.19089,0.136727 0.36173,0.248595 0.37966,0.248595 0.0179,0 0.0684,0.03983 0.11213,0.08851 0.0438,0.04868 0.17517,0.149859 0.29205,0.224836 0.11687,0.07498 0.25779,0.18082 0.31315,0.235196 0.11067,0.108707 0.73237,0.536843 0.7804,0.537424 0.0165,0 0.0958,0.06172 0.17621,0.136727 0.24517,0.228778 0.52786,0.447465 0.57842,0.447465 0.0263,0 0.0479,0.01843 0.0479,0.04096 0,0.02253 0.047,0.05275 0.10438,0.06716 0.0574,0.01441 0.10442,0.03825 0.10446,0.05299 0,0.01474 0.0893,0.0822 0.19834,0.149918 0.17633,0.109516 0.53931,0.380086 0.59491,0.443469 0.0115,0.01309 0.13362,0.105478 0.2714,0.205312 0.13779,0.09983 0.32569,0.245079 0.41754,0.322767 0.0919,0.07769 0.18581,0.154406 0.20877,0.170477 0.53596,0.375067 0.81395,0.54339 0.90467,0.547778 0.0383,0.0018 0.0759,0.01773 0.0835,0.03529 0.0171,0.0393 0.45069,0.176615 0.56039,0.177479 0.0907,7.1e-4 0.37684,0.09456 0.42005,0.137771 0.0157,0.01574 0.0557,0.02861 0.0888,0.02861 0.0331,0 0.17592,0.05526 0.31743,0.122789 0.2458,0.11732 0.50693,0.35645 1.03876,0.95127 0.10691,0.11956 0.21314,0.19017 0.33403,0.222 0.0975,0.0257 0.25243,0.0661 0.34429,0.0899 0.0919,0.0238 0.2046,0.0585 0.25053,0.0772 0.0459,0.0187 0.15866,0.0459 0.25052,0.0604 0.34442,0.0545 0.59026,0.15139 0.85595,0.33751 0.10335,0.0724 0.21062,0.13891 0.23838,0.14782 0.0875,0.0281 0.77344,0.67854 0.85321,0.80911 0.11806,0.19322 0.78705,0.85269 0.93053,0.91728 0.0705,0.0317 0.17519,0.071 0.2326,0.0872 0.0574,0.0162 0.2388,0.0929 0.40309,0.17034 0.16429,0.0775 0.32494,0.14084 0.357,0.14084 0.0321,0 0.0761,0.0158 0.0979,0.0351 0.0218,0.0193 0.10543,0.0602 0.18581,0.0909 0.0804,0.0307 0.30584,0.12896 0.50104,0.2183 0.1952,0.0893 0.39249,0.17801 0.43842,0.19703 0.0459,0.019 0.19206,0.0835 0.32473,0.1433 0.13268,0.0598 0.2689,0.10871 0.30272,0.10871 0.0338,0 0.0615,0.0188 0.0615,0.0417 0,0.023 0.0365,0.0418 0.0811,0.0418 0.0446,0 0.0926,0.0188 0.10684,0.0417 0.0142,0.023 0.0547,0.0418 0.0901,0.0418 0.0354,0 0.1235,0.0265 0.19587,0.059 0.0724,0.0324 0.19839,0.0702 0.28005,0.0839 0.0817,0.0137 0.21319,0.0597 0.29228,0.10212 0.14823,0.0796 0.81389,0.42904 1.29203,0.67829 0.14927,0.0778 0.2808,0.15248 0.29228,0.16594 0.0426,0.0499 0.50412,0.33044 0.54361,0.33044 0.0225,0 0.041,0.0153 0.041,0.0341 0,0.0187 0.0795,0.0787 0.17665,0.13335 0.0972,0.0546 0.25217,0.17687 0.34447,0.2717 0.0923,0.0948 0.29934,0.26378 0.46009,0.37545 0.16076,0.11167 0.33366,0.24652 0.38424,0.29966 0.0506,0.0532 0.1035,0.0966 0.11762,0.0966 0.0314,0 0.27562,0.19576 0.61906,0.49616 0.14133,0.12363 0.33144,0.27394 0.42246,0.33403 0.091,0.0601 0.27049,0.21261 0.39882,0.33892 0.12832,0.1263 0.40145,0.39019 0.60695,0.58641 0.2055,0.19623 0.39508,0.40291 0.4213,0.4593 0.0262,0.0564 0.0737,0.15889 0.10553,0.22778 0.0318,0.0689 0.14441,0.25679 0.25018,0.41754 0.10577,0.16075 0.24457,0.38623 0.30844,0.50105 0.0639,0.11482 0.15207,0.273 0.19599,0.35149 0.0439,0.0785 0.12539,0.2024 0.18102,0.27534 0.0556,0.0729 0.10116,0.14584 0.10116,0.162 0,0.0162 0.0671,0.13429 0.14913,0.26252 0.27976,0.43732 0.76764,1.37461 0.76875,1.47685 4.2e-4,0.0356 0.0169,0.0826 0.0367,0.10439 0.0569,0.0627 0.33981,0.60646 0.33981,0.65307 0,0.0549 0.09,0.26045 0.31667,0.72356 0.10141,0.20715 0.18438,0.3922 0.18438,0.41123 0,0.019 0.0301,0.1032 0.0669,0.18705 0.0838,0.19094 0.11982,0.28133 0.18568,0.4656 0.0287,0.0804 0.0795,0.21191 0.11286,0.29228 0.0995,0.23998 0.12349,0.3034 0.19707,0.52193 0.0766,0.22751 0.11198,0.32082 0.18204,0.48017 0.0252,0.0574 0.0665,0.20772 0.0917,0.33403 0.0252,0.1263 0.0626,0.3142 0.0831,0.41754 0.0206,0.10334 0.0652,0.3476 0.0993,0.5428 0.034,0.1952 0.0826,0.42067 0.10788,0.50105 0.0253,0.0804 0.0634,0.27766 0.0846,0.43841 0.0212,0.16076 0.0693,0.4426 0.10671,0.62631 0.0375,0.18372 0.0779,0.3998 0.0899,0.48017 0.012,0.0804 0.0359,0.16493 0.0532,0.1879 0.0172,0.023 0.0627,0.34238 0.10109,0.70981 0.0383,0.36744 0.0871,0.76201 0.10827,0.87684 0.0212,0.11482 0.0486,0.41545 0.0609,0.66806 0.0123,0.25261 0.0589,0.75053 0.10356,1.10648 0.0446,0.35595 0.10931,0.89504 0.14372,1.19798 0.0497,0.43741 0.088,0.60501 0.18626,0.8142 0.12166,0.25908 0.12405,0.27768 0.14561,1.13238 0.0145,0.57537 0.0385,0.889 0.0711,0.92824 0.0332,0.04 0.0385,0.11727 0.0162,0.23751 -0.0587,0.31746 -0.0299,1.98348 0.0501,2.89225 0.0949,1.07847 0.11004,3.71746 0.0225,3.92227 -0.0381,0.089 -0.0521,0.44648 -0.0513,1.30342 8e-4,0.84722 -0.0171,1.30795 -0.0633,1.63101 -0.0387,0.27051 -0.0791,1.01692 -0.10123,1.86987 -0.0255,0.98521 -0.0617,1.60491 -0.11823,2.02507 -0.0448,0.33299 -0.0934,0.81212 -0.10797,1.06473 -0.0321,0.55621 -0.0995,1.06889 -0.16999,1.29437 -0.0287,0.0919 -0.0729,0.23278 -0.0981,0.31315 -0.0252,0.0804 -0.0655,0.40919 -0.0896,0.7307 -0.0241,0.3215 -0.0617,0.64092 -0.0836,0.70982 -0.0219,0.0689 -0.0583,0.25678 -0.0808,0.41753 -0.0225,0.16076 -0.0595,0.37683 -0.0821,0.48018 -0.0226,0.10334 -0.0699,0.31941 -0.10496,0.48017 -0.0351,0.16075 -0.0826,0.49896 -0.10568,0.75157 -0.023,0.25261 -0.0585,0.54384 -0.0788,0.64718 -0.0991,0.50415 -0.15293,0.73254 -0.17707,0.75157 -0.0388,0.0306 -0.077,0.2094 -0.16921,0.79333 -0.0453,0.28706 -0.10099,0.58139 -0.12364,0.65407 -0.0244,0.0782 -0.0382,0.71771 -0.0338,1.56577 0.006,1.19173 -0.004,1.48999 -0.0616,1.76766 -0.076,0.36768 -0.15191,0.64541 -0.19408,0.70982 -0.015,0.023 -0.0601,0.17328 -0.10027,0.33403 -0.0401,0.16075 -0.0892,0.32986 -0.10918,0.37579 -0.0693,0.15972 -0.16571,0.48355 -0.16571,0.55678 0,0.0405 -0.0215,0.0952 -0.0478,0.12147 -0.0293,0.0293 -0.0601,0.31973 -0.0795,0.74949 -0.0326,0.72292 -0.0473,0.79155 -0.27938,1.30714 -0.20887,0.46405 -0.28518,0.60713 -0.41529,0.77862 -0.0731,0.0964 -0.1648,0.23777 -0.20373,0.31419 -0.0389,0.0764 -0.13219,0.22348 -0.20725,0.32683 -0.11758,0.1619 -0.28006,0.47943 -0.39524,0.77244 -0.0743,0.18894 -0.12566,0.55263 -0.14903,1.05471 -0.0136,0.29257 -0.04,0.56952 -0.0585,0.61545 -0.0186,0.0459 -0.0576,0.16806 -0.0869,0.2714 -0.0292,0.10334 -0.0756,0.22547 -0.10304,0.2714 -0.0275,0.0459 -0.0605,0.13988 -0.0735,0.20877 -0.0661,0.35151 -0.10694,0.44373 -0.46884,1.0582 -0.023,0.039 -0.0802,0.12687 -0.12712,0.19529 -0.2243,0.32686 -0.26175,0.47293 -0.2888,1.12649 -0.0238,0.57354 -0.0627,0.88734 -0.18938,1.52402 -0.0251,0.1263 -0.0626,0.34065 -0.0833,0.47632 -0.0207,0.13567 -0.0528,0.2578 -0.0712,0.2714 -0.0185,0.0136 -0.0589,0.0738 -0.0897,0.13377 -0.0885,0.17198 0.001,0.26919 0.3457,0.37375 0.2336,0.071 0.33305,0.12943 0.49841,0.29307 l 0.20658,0.20442 0.0322,0.41521 c 0.0177,0.22836 0.0553,0.45874 0.0836,0.51195 0.10736,0.20177 0.36785,0.52248 0.52087,0.64129 0.0875,0.0679 0.22601,0.18091 0.30782,0.25105 0.0818,0.0701 0.25208,0.20128 0.37839,0.29142 0.1263,0.0901 0.25087,0.18307 0.27681,0.2065 0.0259,0.0234 0.34535,0.30546 0.70981,0.62672 0.86119,0.75911 1.23388,1.13597 1.32421,1.33905 0.0403,0.0905 0.0911,0.19717 0.11292,0.23704 0.0219,0.0399 0.0397,0.10867 0.0397,0.15287 0,0.10984 0.21714,0.28376 0.42986,0.34429 0.2618,0.0745 0.36373,0.18357 0.36214,0.38752 -7.1e-4,0.0936 -0.0289,0.20665 -0.0626,0.25123 -0.12013,0.15882 -0.0472,0.30573 0.22066,0.44463 0.0624,0.0324 0.14198,0.0812 0.17674,0.10848 0.36254,0.28452 0.59497,0.47722 0.75216,0.62358 0.10334,0.0962 0.29123,0.25135 0.41754,0.34474 0.58009,0.42888 0.76244,0.58884 1.27349,1.11709 0.22965,0.23738 0.6712,0.69302 0.98122,1.01255 0.63581,0.6553 1.03982,1.09367 1.17815,1.27835 0.0516,0.0689 0.10826,0.13153 0.1259,0.13918 0.0176,0.008 0.0321,0.0324 0.0321,0.055 0,0.0431 0.17524,0.28979 0.30697,0.43212 0.0425,0.0459 0.12614,0.1493 0.18581,0.22968 0.0597,0.0804 0.14795,0.18372 0.19621,0.22964 0.0482,0.0459 0.12819,0.15012 0.17765,0.23152 0.0495,0.0814 0.12835,0.19232 0.17532,0.24648 0.047,0.0541 0.0854,0.10968 0.0854,0.12339 3e-5,0.0137 0.047,0.0795 0.10438,0.14624 0.0574,0.0667 0.10434,0.13364 0.10434,0.14871 0,0.0151 0.0338,0.0638 0.075,0.10832 0.0413,0.0445 0.164,0.21247 0.27274,0.37322 0.10874,0.16076 0.27167,0.39562 0.36207,0.52193 0.0904,0.12631 0.19409,0.29088 0.23044,0.36572 0.0363,0.0748 0.18726,0.31354 0.33535,0.53044 0.1481,0.2169 0.26927,0.40649 0.26927,0.42129 0,0.0148 0.0301,0.0955 0.0669,0.17938 0.21752,0.49576 0.37546,1.06161 0.45629,1.63472 0.0295,0.20945 0.10683,0.41754 0.15508,0.41754 0.0174,0 0.0316,0.0282 0.0316,0.0626 0,0.0344 0.0152,0.0626 0.0337,0.0626 0.0185,0 0.0673,0.0798 0.10834,0.17745 0.041,0.0976 0.10103,0.23666 0.1333,0.30903 0.0323,0.0724 0.0587,0.14525 0.0587,0.16196 0,0.0549 0.39068,0.83349 0.42539,0.84774 0.0187,0.008 0.0339,0.033 0.0339,0.0563 0,0.0233 0.0301,0.111 0.0669,0.19485 0.0368,0.0838 0.0819,0.19003 0.10013,0.23596 0.0183,0.0459 0.0633,0.15211 0.10013,0.23596 0.0368,0.0839 0.0669,0.1694 0.0669,0.19013 0,0.0207 0.0457,0.13062 0.10147,0.24422 0.14687,0.2989 0.35782,0.76833 0.35782,0.79625 0,0.0385 0.1392,0.32686 0.16885,0.34974 0.0149,0.0115 0.0609,0.12951 0.10225,0.26229 0.0414,0.13277 0.0912,0.25131 0.11082,0.26342 0.0196,0.0121 0.0356,0.0668 0.0356,0.12147 0,0.0547 0.0188,0.11107 0.0418,0.12527 0.023,0.0142 0.0419,0.0576 0.042,0.0964 0,0.0388 0.0283,0.12442 0.0626,0.1902 0.0343,0.0658 0.0624,0.14563 0.0624,0.17745 0,0.0318 0.0188,0.0579 0.0418,0.0579 0.023,0 0.0418,0.0277 0.0418,0.0615 0,0.0338 0.0452,0.16065 0.10051,0.28184 0.0553,0.12119 0.13228,0.31429 0.1711,0.42912 0.0388,0.11482 0.10551,0.27948 0.1482,0.3659 0.0427,0.0864 0.1088,0.28371 0.14691,0.43842 0.0381,0.1547 0.11409,0.34109 0.16883,0.4142 0.0547,0.0731 0.0995,0.15139 0.0995,0.17397 0,0.0226 0.0154,0.0473 0.0341,0.055 0.0188,0.008 0.10558,0.16423 0.19287,0.34795 0.0873,0.18372 0.17527,0.36666 0.1955,0.40653 0.0202,0.0399 0.0368,0.0927 0.0368,0.11742 0,0.0247 0.0918,0.23633 0.20396,0.4703 0.22719,0.47384 0.27949,0.6087 0.31878,0.82205 0.0284,0.15415 0.093,0.38216 0.14796,0.52192 0.0181,0.0459 0.0426,0.13048 0.0546,0.18789 0.012,0.0574 0.0518,0.20773 0.0885,0.33403 0.0367,0.12631 0.0837,0.36118 0.10448,0.52193 0.0208,0.16075 0.0688,0.46138 0.1068,0.66806 0.038,0.20668 0.0778,0.43216 0.0885,0.50105 0.0107,0.0689 0.0356,0.16284 0.0553,0.20877 0.0197,0.0459 0.0459,0.13048 0.0583,0.18789 0.0882,0.40771 0.14845,0.63086 0.20389,0.75468 0.0352,0.0787 0.0959,0.29335 0.13482,0.47706 0.0389,0.18372 0.0857,0.37161 0.104,0.41754 0.0183,0.0459 0.0664,0.24322 0.10703,0.43842 0.0406,0.1952 0.0896,0.37276 0.10879,0.39457 0.0192,0.0218 0.035,0.0735 0.035,0.11483 0,0.0413 0.0188,0.0751 0.0418,0.0751 0.023,0 0.0418,0.0201 0.0418,0.0445 0,0.0245 0.047,0.10613 0.10438,0.1814 0.0574,0.0753 0.10439,0.17625 0.10439,0.2244 0,0.0481 0.0167,0.0979 0.0371,0.11048 0.0204,0.0126 0.0495,0.0722 0.0646,0.13234 0.0151,0.0602 0.0616,0.18716 0.10329,0.28223 0.0417,0.0951 0.10853,0.2574 0.14847,0.36074 0.04,0.10334 0.0895,0.22052 0.11011,0.2604 0.0206,0.0399 0.0375,0.0988 0.0375,0.13092 0,0.0321 0.0281,0.11225 0.0624,0.17803 0.0343,0.0658 0.0625,0.15159 0.0626,0.19069 0,0.0391 0.0214,0.12367 0.0472,0.1879 0.0258,0.0642 0.0621,0.15437 0.0805,0.2003 0.0185,0.0459 0.0644,0.18684 0.10216,0.31315 0.0377,0.12631 0.0842,0.26723 0.10319,0.31315 0.019,0.0459 0.0661,0.19625 0.10469,0.33404 0.0385,0.13778 0.10515,0.32568 0.14801,0.41754 0.0428,0.0918 0.11039,0.27035 0.15008,0.39666 0.0397,0.1263 0.1272,0.38935 0.19446,0.58455 0.0673,0.1952 0.13283,0.39249 0.14569,0.43842 0.0129,0.0459 0.0345,0.0929 0.0481,0.10439 0.0136,0.0115 0.0501,0.096 0.0811,0.18789 0.031,0.0919 0.0994,0.26096 0.1521,0.37578 0.0527,0.11483 0.12966,0.31211 0.17108,0.43842 0.0414,0.12631 0.0903,0.2475 0.10865,0.26931 0.0183,0.0218 0.0333,0.074 0.0333,0.11602 0,0.0808 0.48395,0.87835 0.54736,0.90208 0.0205,0.008 0.0372,0.0396 0.0372,0.071 0,0.0622 0.19805,0.21847 0.39666,0.31307 0.0689,0.0328 0.18341,0.10232 0.25447,0.15446 0.0711,0.0521 0.15117,0.0948 0.17802,0.0948 0.05,0 0.0867,0.0159 0.33996,0.14754 0.26337,0.13689 0.30784,0.16456 0.41073,0.25555 0.0559,0.0495 0.1508,0.1152 0.21083,0.14607 0.06,0.0309 0.11853,0.0672 0.13001,0.0807 0.0342,0.0402 0.46697,0.30172 0.68508,0.41401 0.21123,0.10876 0.81806,0.68857 0.81806,0.78164 0,0.0294 0.0188,0.0534 0.0418,0.0534 0.023,0 0.0418,0.0216 0.0418,0.048 0,0.1756 0.46089,0.8288 0.58479,0.8288 0.0196,0 0.0604,0.0242 0.0907,0.0538 0.0303,0.0296 0.13033,0.0868 0.22219,0.12728 0.0919,0.0404 0.2046,0.0949 0.25053,0.12116 0.21305,0.12158 0.46382,0.24025 0.508,0.24041 0.0268,0 0.055,0.0143 0.0626,0.0315 0.008,0.0172 0.17874,0.11486 0.38019,0.21697 0.20145,0.10211 0.40265,0.21955 0.44711,0.26096 0.0445,0.0414 0.0935,0.0753 0.10899,0.0753 0.0155,0 0.0647,0.0423 0.1093,0.094 0.0446,0.0517 0.1316,0.15031 0.19329,0.2192 0.0617,0.0689 0.17199,0.21928 0.24512,0.33419 0.0731,0.11491 0.16684,0.24643 0.20826,0.29228 0.0414,0.0458 0.12366,0.1773 0.18274,0.29212 0.18659,0.36263 0.34243,0.62582 0.37909,0.64023 0.0195,0.008 0.0354,0.0405 0.0354,0.0731 0,0.0325 0.0148,0.0592 0.0329,0.0592 0.0489,0 0.25019,0.41607 0.28286,0.58456 0.0156,0.0804 0.089,0.27766 0.16313,0.43841 0.0741,0.16075 0.15832,0.35804 0.18706,0.43842 0.0287,0.0804 0.0684,0.18372 0.0882,0.22964 0.0198,0.0459 0.0655,0.19625 0.1016,0.33404 0.12049,0.45965 0.15559,0.58393 0.18869,0.66806 0.10784,0.27414 0.2499,0.78963 0.2499,0.90682 0,0.0755 0.039,0.26876 0.0866,0.42944 0.18646,0.62905 0.21002,0.82363 0.19345,1.59738 -0.0146,0.68288 -0.0443,0.95852 -0.10889,1.01211 -0.0138,0.0115 -0.0533,0.0821 -0.0877,0.15683 -0.0878,0.19076 -0.87404,1.02878 -1.45024,1.54568 -0.10943,0.0982 -0.23391,0.25788 -0.27662,0.35491 -0.0427,0.097 -0.0944,0.20904 -0.11482,0.24892 -0.0205,0.0399 -0.0372,0.12801 -0.0372,0.19586 0,0.0678 -0.0164,0.13348 -0.0363,0.14584 -0.02,0.0124 -0.0469,0.075 -0.0597,0.13927 -0.0129,0.0642 -0.0636,0.16798 -0.11281,0.23052 -0.0789,0.10035 -0.11781,0.11372 -0.33076,0.11372 -0.39846,0 -0.65047,0.23168 -0.52179,0.4797 0.0362,0.0698 0.0593,0.23943 0.0593,0.4353 0,0.19393 0.0198,0.34074 0.0501,0.37102 0.0914,0.0914 0.26397,0.057 0.38281,-0.0764 0.18993,-0.21316 0.53102,-0.34085 1.02848,-0.38502 0.68821,-0.0611 1.45268,-0.002 1.77454,0.137 0.0459,0.0198 0.16806,0.0447 0.2714,0.0552 0.42186,0.0429 0.90276,0.11615 0.98122,0.14947 0.14502,0.0616 0.52861,0.16982 0.60187,0.16982 0.0387,0 0.0882,0.0155 0.11003,0.0345 0.0218,0.019 0.12422,0.0597 0.22756,0.0904 0.17266,0.0514 0.4123,0.15856 0.73021,0.32667 0.1398,0.0739 0.4389,0.35656 0.4389,0.41473 0,0.0208 0.0489,0.0833 0.10856,0.13898 0.20409,0.19026 0.60125,0.85438 0.60125,1.00535 0,0.0424 0.0164,0.0771 0.0365,0.0771 0.0201,0 0.0475,0.055 0.061,0.12219 0.0134,0.0672 0.065,0.21282 0.11446,0.32359 0.0495,0.11077 0.11694,0.26255 0.14985,0.33727 0.0815,0.18522 0.0654,3.02037 -0.0173,3.0479 -0.0287,0.01 -0.0522,0.0628 -0.0522,0.11828 0,0.0555 -0.0151,0.1009 -0.0336,0.1009 -0.0346,0 -0.27262,0.46086 -0.40975,0.79333 -0.0426,0.10334 -0.0965,0.21316 -0.1198,0.24404 -0.12978,0.17229 -0.74565,0.75805 -0.79702,0.75805 -0.0117,0 -0.0627,0.0388 -0.1134,0.0863 -0.11586,0.10839 -0.27448,0.18082 -0.59326,0.2709 -0.25793,0.0729 -0.40414,0.1254 -0.53372,0.19171 -0.0899,0.046 -0.93506,0.16094 -1.18351,0.16094 -0.0977,0 -0.18772,-0.0163 -0.20005,-0.0363 -0.0205,-0.0332 -0.40873,-0.0901 -1.04725,-0.15349 -0.13778,-0.0137 -0.32568,-0.044 -0.41754,-0.0674 -0.53609,-0.13642 -0.70795,-0.19094 -0.89908,-0.28523 -0.0352,-0.0174 -0.12915,-0.0455 -0.20876,-0.0626 -0.0796,-0.0171 -0.16356,-0.0443 -0.18652,-0.0606 -0.023,-0.0162 -0.17328,-0.0545 -0.33404,-0.0851 -0.25887,-0.0492 -0.63219,-0.19673 -0.87683,-0.34651 -0.12692,-0.0777 -0.46173,-0.41478 -0.51735,-0.52086 -0.0362,-0.0689 -0.0865,-0.0939 -0.18918,-0.0939 -0.11624,0 -0.15127,0.023 -0.20704,0.1357 -0.10033,0.20284 -0.25739,0.36184 -0.46807,0.47386 -0.17443,0.0927 -0.23456,0.10026 -0.80264,0.10026 -0.59979,0 -0.61675,-0.002 -0.72848,-0.10608 -0.0629,-0.0583 -0.1144,-0.14184 -0.1144,-0.18556 0,-0.0437 -0.0423,-0.12844 -0.094,-0.18826 -0.092,-0.10649 -0.10624,-0.10899 -0.6785,-0.11886 -0.3215,-0.006 -0.65971,-0.0315 -0.75157,-0.0576 -0.0919,-0.0262 -0.40188,-0.0688 -0.68894,-0.0947 -0.52509,-0.0474 -1.12758,-0.14803 -1.24956,-0.20862 -0.26111,-0.12969 -0.73559,-0.25114 -0.98118,-0.25114 -0.10233,0 -0.19767,-0.0188 -0.21187,-0.0418 -0.032,-0.0517 -0.22964,-0.0556 -0.22964,-0.005 0,0.0205 -0.0437,0.0482 -0.0971,0.0616 -0.0534,0.0134 -0.15289,0.0765 -0.22107,0.14023 -0.17946,0.16773 -0.69832,0.51305 -0.99323,0.66101 -0.1399,0.0702 -0.40171,0.20642 -0.58181,0.30272 -0.1801,0.0963 -0.35576,0.17509 -0.39035,0.17509 -0.10409,0 -0.36293,0.13298 -0.43994,0.22601 -0.10258,0.12393 -0.0911,0.21367 0.0408,0.31837 0.1133,0.0899 0.12753,0.0907 1.07516,0.0597 0.52819,-0.0173 1.36431,-0.0323 1.85805,-0.0333 0.9518,-0.002 0.89376,-0.0111 1.31524,0.20853 0.0459,0.0239 0.15867,0.0792 0.25052,0.12274 0.23475,0.11134 0.82118,0.70107 1.00259,1.00824 0.0441,0.0746 0.0949,0.1357 0.1129,0.1357 0.018,0 0.0327,0.0253 0.0327,0.0562 0,0.0309 0.0395,0.0919 0.0878,0.13565 0.23526,0.2129 0.5617,1.06347 0.71159,1.85413 0.0549,0.2894 0.0181,1.91969 -0.0484,2.15033 -0.0265,0.0919 -0.0679,0.24217 -0.0919,0.33403 -0.15173,0.58079 -0.44167,1.22824 -0.73219,1.63502 -0.0517,0.0724 -0.0939,0.15137 -0.0939,0.1756 0,0.0441 -0.23744,0.29442 -0.41291,0.43537 -0.0826,0.0664 -0.27067,0.15982 -0.69988,0.34777 -0.0724,0.0317 -0.1605,0.0576 -0.19586,0.0576 -0.0354,0 -0.0759,0.0188 -0.0901,0.0418 -0.0142,0.023 -0.0701,0.0418 -0.12424,0.0418 -0.0541,0 -0.1047,0.0174 -0.11236,0.0386 -0.0351,0.0976 -1.53923,0.20527 -2.93505,0.21016 -0.76387,0.003 -0.85569,-0.005 -1.10003,-0.0916 -0.18267,-0.0648 -0.3273,-0.15371 -0.45941,-0.28245 -0.10604,-0.10334 -0.25926,-0.24041 -0.34048,-0.30461 -0.0812,-0.0642 -0.33975,-0.3072 -0.57452,-0.54001 -0.38088,-0.37769 -0.46363,-0.48965 -0.59478,-0.80466 -0.0191,-0.0459 -0.076,-0.17628 -0.12634,-0.28967 -0.0504,-0.11339 -0.10174,-0.26886 -0.11417,-0.34548 -0.0124,-0.0766 -0.0389,-0.14937 -0.0587,-0.16165 -0.0199,-0.0123 -0.0375,-0.11986 -0.0392,-0.23907 -0.006,-0.41951 -0.26508,-0.63134 -0.45174,-0.36922 -0.074,0.10397 -0.088,0.18404 -0.088,0.50395 0,0.2092 -0.0165,0.41298 -0.0367,0.45286 -0.0764,0.15105 -0.17211,0.39009 -0.17211,0.42972 0,0.0982 -0.25604,0.42494 -0.64545,0.82373 -0.23061,0.23616 -0.4268,0.45223 -0.43599,0.48017 -0.009,0.0279 -0.028,0.0602 -0.0417,0.0717 -0.0533,0.0444 -0.17119,0.34151 -0.17119,0.43136 0,0.1317 -0.26602,0.37022 -0.5428,0.48666 l -0.22964,0.0966 -2.547,0.0118 c -1.55768,0.007 -2.61997,-0.004 -2.73488,-0.0292 z m -76.660262,-8.91201 c 0,-0.11232 -0.0722,-0.13808 -0.11016,-0.0393 -0.0321,0.0836 0.0153,0.19986 0.0681,0.1672 0.0231,-0.0143 0.0421,-0.0719 0.0421,-0.12791 z m -0.69019,-5.20571 c 0.0535,-0.1555 0.34183,-0.53329 0.51274,-0.67173 0.1232,-0.0998 0.11819,-0.16286 -0.0179,-0.22608 -0.10427,-0.0484 -0.12061,-0.041 -0.26064,0.11863 -0.0822,0.0936 -0.23865,0.26193 -0.34773,0.37395 -0.10908,0.11203 -0.19833,0.22053 -0.19833,0.2411 0,0.0206 0.0376,0.0852 0.0835,0.14357 0.0459,0.0584 0.0835,0.12826 0.0835,0.15525 0,0.10053 0.0941,0.0131 0.14488,-0.13469 z m 81.989832,-11.0028 c 0.0244,-0.0632 0.0551,-0.17883 0.0681,-0.25705 l 0.0237,-0.14222 -0.1631,0.0269 c -0.0897,0.0148 -0.23415,0.0271 -0.32099,0.0274 -0.22417,6.7e-4 -0.25114,0.10319 -0.0681,0.25885 0.26578,0.22601 0.39676,0.25051 0.46032,0.0861 z M 80.613172,151.6519 c 0.0281,-0.0449 0.0632,-0.15808 0.0782,-0.25145 0.0149,-0.0934 0.0435,-0.17985 0.0634,-0.19218 0.02,-0.0123 0.0363,-0.0802 0.0363,-0.15081 0,-0.0706 0.0178,-0.19633 0.0395,-0.27937 0.0217,-0.083 0.0705,-0.41404 0.10839,-0.73554 0.0379,-0.32151 0.0844,-0.62214 0.10347,-0.66807 0.019,-0.0459 0.0441,-0.13048 0.0558,-0.18789 0.0483,-0.23871 0.11436,-0.48546 0.1508,-0.56368 0.0214,-0.0459 0.0662,-0.16806 0.0997,-0.2714 0.0334,-0.10334 0.0837,-0.24426 0.11169,-0.31315 0.028,-0.0689 0.0654,-0.16284 0.0832,-0.20877 0.0178,-0.0459 0.0624,-0.15211 0.0992,-0.23596 0.0368,-0.0838 0.0669,-0.17335 0.0669,-0.1989 0,-0.0255 0.0172,-0.0791 0.0383,-0.11895 0.0608,-0.11505 0.21218,-0.46588 0.21218,-0.49188 0,-0.013 0.0357,-0.10244 0.0794,-0.19878 0.28253,-0.62353 0.45876,-1.22545 0.55102,-1.88201 0.0222,-0.15797 0.0773,-0.42065 0.12253,-0.58372 0.0452,-0.16308 0.0822,-0.34057 0.0822,-0.39444 0,-0.0806 0.21218,-0.79096 0.33293,-1.11461 0.0171,-0.0459 0.0658,-0.19624 0.10811,-0.33403 0.0423,-0.13779 0.0897,-0.27871 0.10536,-0.31315 0.11439,-0.25221 0.27139,-0.72183 0.37689,-1.12736 0.0448,-0.17223 0.0975,-0.35073 0.11704,-0.39666 0.0196,-0.0459 0.0698,-0.19625 0.11162,-0.33403 0.0418,-0.13779 0.091,-0.26838 0.10924,-0.29019 0.0182,-0.0218 0.0332,-0.0623 0.0332,-0.0899 0,-0.0276 0.0624,-0.16011 0.138607,-0.29436 0.0762,-0.13426 0.15987,-0.28168 0.18586,-0.32761 0.026,-0.0459 0.0802,-0.15866 0.12047,-0.25052 0.0403,-0.0919 0.13164,-0.26096 0.20309,-0.37579 0.0714,-0.11482 0.16249,-0.27937 0.20233,-0.36565 0.0398,-0.0863 0.12747,-0.19757 0.19473,-0.2473 0.16522,-0.12215 0.23464,-0.38959 0.269,-1.03633 0.056,-1.05376 0.10419,-1.37486 0.26326,-1.75367 0.0947,-0.22548 0.53854,-1.12212 0.67794,-1.36952 0.0734,-0.13021 0.12469,-0.28223 0.12469,-0.36934 0,-0.0814 0.0316,-0.20162 0.0703,-0.26709 0.0607,-0.1027 0.0635,-0.14843 0.0209,-0.33322 -0.0812,-0.35181 -0.045,-0.97082 0.0745,-1.27254 0.0182,-0.0459 0.0663,-0.16806 0.10686,-0.2714 0.0406,-0.10334 0.13679,-0.32173 0.21378,-0.48531 0.077,-0.16357 0.13996,-0.3363 0.13996,-0.38383 0,-0.0475 0.0374,-0.14985 0.0831,-0.22735 l 0.0832,-0.14093 -0.12043,-0.18505 c -0.0662,-0.10179 -0.16472,-0.23203 -0.21885,-0.28945 -0.13147,-0.13944 -0.29769,-0.37253 -0.3573,-0.50104 -0.0266,-0.0574 -0.10504,-0.22699 -0.17425,-0.37682 -0.0692,-0.14985 -0.148,-0.36592 -0.17509,-0.48017 -0.0271,-0.11426 -0.0657,-0.2509 -0.0859,-0.30365 -0.0201,-0.0528 -0.0366,-0.15074 -0.0366,-0.21775 0,-0.21082 -0.12841,-0.51146 -0.30749,-0.71992 -0.28468,-0.33138 -0.76811,-0.82447 -0.80831,-0.82447 -0.0207,0 -0.0749,-0.0329 -0.12064,-0.0731 -0.0457,-0.0402 -0.11968,-0.0932 -0.16444,-0.1179 -0.0448,-0.0246 -0.14715,-0.081 -0.22752,-0.12526 -0.0804,-0.0442 -0.15554,-0.0903 -0.16702,-0.10232 -0.0115,-0.012 -0.11482,-0.0708 -0.229647,-0.1305 -0.37016,-0.1926 -0.62596,-0.34357 -0.64023,-0.37785 -0.008,-0.0184 -0.0315,-0.0334 -0.053,-0.0334 -0.0215,0 -0.11351,-0.047 -0.20446,-0.10439 -0.0909,-0.0574 -0.19177,-0.10438 -0.22404,-0.10438 -0.0323,0 -0.11251,-0.0281 -0.17829,-0.0624 -0.1639,-0.0855 -0.28034,-0.0786 -0.37135,0.022 -0.0683,0.0755 -0.0801,0.19905 -0.1068,1.11692 -0.0484,1.66586 -0.12201,3.49153 -0.167,4.14271 -0.023,0.33299 -0.0594,1.07075 -0.0808,1.63947 -0.036,0.95414 -0.0463,1.0477 -0.13385,1.21087 -0.0521,0.0973 -0.10892,0.18309 -0.12614,0.19074 -0.0172,0.008 -0.0313,0.0326 -0.0313,0.0555 0,0.086 -0.56623,0.5778 -0.66528,0.5778 -0.0245,0 -0.0445,0.0188 -0.0445,0.0418 0,0.023 -0.02,0.0417 -0.0445,0.0417 -0.0245,0 -0.10613,0.047 -0.1814,0.10438 -0.0753,0.0574 -0.15991,0.10439 -0.18809,0.10439 -0.0282,0 -0.0802,0.029 -0.11561,0.0644 -0.072,0.072 -0.0659,-0.0134 -0.16304,2.29472 -0.0358,0.84969 -0.0834,1.67642 -0.10583,1.83717 -0.0224,0.16075 -0.0569,0.6023 -0.0766,0.98122 -0.0197,0.37892 -0.0664,0.85804 -0.10382,1.06473 -0.0374,0.20668 -0.0775,0.62944 -0.0891,0.93946 -0.0116,0.31002 -0.0598,0.86431 -0.10706,1.23174 -0.13049,1.0137 -0.17048,1.47205 -0.15849,1.8163 0.0232,0.66609 0.0135,1.07971 -0.0343,1.46139 -0.0554,0.44187 -0.0231,2.90975 0.0386,2.94784 0.0192,0.0119 0.0347,0.13794 0.0343,0.28011 -6.3e-4,0.25175 0.004,0.26241 0.17298,0.40786 l 0.17362,0.14937 0.0462,0.9801 c 0.0385,0.81539 0.0587,0.99904 0.12027,1.09281 0.0902,0.13739 0.2769,0.15378 0.35355,0.031 z"
       id="path1789" />
  </g>
</svg>
