<?xml version="1.0" encoding="UTF-8" standalone="no"?>
<!-- Created with Inkscape (http://www.inkscape.org/) -->

<svg
   width="210mm"
   height="297mm"
   viewBox="0 0 210 297"
   version="1.1"
   id="svg5"
   inkscape:version="1.1.2 (b8e25be8, 2022-02-05)"
   sodipodi:docname="skater_07.svg"
   xmlns:inkscape="http://www.inkscape.org/namespaces/inkscape"
   xmlns:sodipodi="http://sodipodi.sourceforge.net/DTD/sodipodi-0.dtd"
   xmlns="http://www.w3.org/2000/svg"
   xmlns:svg="http://www.w3.org/2000/svg">
  <sodipodi:namedview
     id="namedview7"
     pagecolor="#ffffff"
     bordercolor="#999999"
     borderopacity="1"
     inkscape:pageshadow="0"
     inkscape:pageopacity="0"
     inkscape:pagecheckerboard="0"
     inkscape:document-units="mm"
     showgrid="false"
     inkscape:zoom="0.16013082"
     inkscape:cx="346.59162"
     inkscape:cy="524.5711"
     inkscape:window-width="1800"
     inkscape:window-height="1098"
     inkscape:window-x="0"
     inkscape:window-y="71"
     inkscape:window-maximized="0"
     inkscape:current-layer="layer1" />
  <defs
     id="defs2" />
  <g
     inkscape:label="Layer 1"
     inkscape:groupmode="layer"
     id="layer1">
    <path
       style="fill:#000000;stroke-width:0.045461"
       d="m 91.752721,239.51964 c -0.06251,-0.0219 -0.170429,-0.0513 -0.239825,-0.0653 -0.199606,-0.0404 -0.435458,-0.32101 -0.569727,-0.67773 -0.188418,-0.50061 -0.197383,-0.62364 -0.222327,-3.05059 -0.02134,-2.07551 -0.01533,-2.40176 0.04918,-2.67366 0.04041,-0.17032 0.07348,-0.36321 0.07348,-0.42865 0,-0.12322 0.06705,-0.36461 0.15299,-0.55085 0.08462,-0.18335 0.385437,-0.34741 0.745711,-0.40669 0.18174,-0.0299 0.666272,-0.0544 1.07674,-0.0544 0.410463,0 0.793663,-0.0183 0.851548,-0.0407 0.121054,-0.0468 0.262097,-0.17044 0.343195,-0.30094 0.03086,-0.0497 0.111256,-0.18019 0.178666,-0.29009 l 0.122563,-0.19981 -0.08774,-0.16092 c -0.05608,-0.10283 -0.192814,-0.22486 -0.378854,-0.33808 -0.341517,-0.20786 -0.362452,-0.22698 -0.517847,-0.47315 -0.103096,-0.16331 -0.331192,-0.33302 -0.4476,-0.33302 -0.02083,0 -0.117294,-0.0563 -0.214371,-0.12502 -0.178349,-0.12632 -0.338467,-0.32985 -0.456015,-0.57963 -0.0353,-0.075 -0.09182,-0.19578 -0.125591,-0.26838 -0.03377,-0.0726 -0.0614,-0.16568 -0.0614,-0.20685 0,-0.0412 -0.01899,-0.0943 -0.0422,-0.11803 -0.06896,-0.0706 -0.139647,-0.87821 -0.139647,-1.59545 0,-0.5712 0.01305,-0.69646 0.08897,-0.85419 0.04894,-0.10165 0.120685,-0.30757 0.159436,-0.4576 0.03876,-0.15002 0.13155,-0.35459 0.206216,-0.45461 0.07466,-0.10001 0.198301,-0.31481 0.274757,-0.47734 0.07645,-0.16252 0.162187,-0.33641 0.190513,-0.38641 0.130587,-0.2305 0.185418,-0.36532 0.246154,-0.60526 0.03599,-0.14217 0.08477,-0.33011 0.108397,-0.41762 0.02363,-0.0875 0.04983,-0.333 0.05824,-0.54553 0.01289,-0.32591 0.03743,-0.42913 0.15669,-0.65919 0.07777,-0.15002 0.185518,-0.40573 0.239439,-0.56826 0.05392,-0.16252 0.186622,-0.42885 0.294897,-0.59183 0.108274,-0.16298 0.210984,-0.3526 0.228246,-0.42137 0.01726,-0.0688 0.114434,-0.19613 0.21594,-0.28302 0.174011,-0.14894 0.208275,-0.28733 0.04164,-0.16818 -0.04256,0.0304 -0.11829,0.0738 -0.168297,0.0963 -0.05001,0.0225 -0.131837,0.0787 -0.181844,0.12491 -0.05001,0.0461 -0.213667,0.142 -0.363688,0.21298 -0.150021,0.071 -0.308289,0.1477 -0.351705,0.17048 -0.114948,0.0603 -0.598221,0.0507 -0.662076,-0.0131 -0.09411,-0.0941 -0.06246,-0.39595 0.06632,-0.63258 0.06648,-0.12215 0.138084,-0.22209 0.159114,-0.22209 0.02103,0 0.03824,-0.029 0.03824,-0.0644 0,-0.0354 0.01758,-0.0712 0.03908,-0.0796 0.02149,-0.008 0.1635,-0.18971 0.315576,-0.40306 0.278108,-0.39016 0.51376,-0.63483 0.850062,-0.8826 0.100014,-0.0737 0.192073,-0.14529 0.204575,-0.15911 0.0125,-0.0138 0.132382,-0.0827 0.266406,-0.15303 0.134019,-0.0704 0.266992,-0.14754 0.295497,-0.17154 0.0285,-0.024 0.150135,-0.11838 0.270293,-0.20974 0.276884,-0.21053 0.395251,-0.4591 0.395251,-0.83005 0,-0.15173 0.01874,-0.31139 0.04164,-0.35481 0.0229,-0.0434 0.07663,-0.16077 0.11939,-0.26079 0.281194,-0.65766 1.160042,-1.43468 1.620494,-1.43273 0.292242,0.001 0.769919,-0.13517 0.980372,-0.27997 0.264024,-0.18165 0.33472,-0.35753 0.389687,-0.9695 0.04614,-0.51373 0.05442,-1.8027 0.01313,-2.04574 -0.01274,-0.075 -0.04627,-0.33073 -0.07449,-0.56827 -0.0714,-0.6009 -0.276744,-1.63533 -0.451205,-2.27305 -0.02394,-0.0875 -0.09617,-0.38414 -0.160523,-0.65918 -0.101878,-0.43546 -0.284822,-1.0796 -0.38735,-1.36383 -0.05755,-0.15955 -0.1274,-0.40079 -0.20402,-0.70465 -0.119113,-0.47237 -0.16616,-0.64604 -0.233129,-0.86049 -0.03457,-0.11072 -0.06286,-0.24007 -0.06286,-0.28745 0,-0.0474 -0.03858,-0.25341 -0.08573,-0.45787 -0.08868,-0.3845 -0.173438,-0.93979 -0.233692,-1.531 -0.01911,-0.18753 -0.05842,-0.43221 -0.08735,-0.54374 -0.02893,-0.11153 -0.0395,-0.2803 -0.02349,-0.37505 0.02494,-0.14763 0.01711,-0.17227 -0.05472,-0.17227 -0.04956,0 -0.108693,0.0562 -0.144675,0.13748 -0.03347,0.0756 -0.194551,0.28531 -0.357951,0.46598 -0.163405,0.18067 -0.361624,0.40009 -0.440495,0.4876 -0.07887,0.0875 -0.224532,0.2614 -0.323696,0.38642 -0.09916,0.12502 -0.191877,0.23753 -0.206029,0.25003 -0.01415,0.0125 -0.08873,0.11479 -0.165737,0.22731 -0.077,0.11252 -0.194442,0.26595 -0.260974,0.34096 -0.06654,0.075 -0.256818,0.31027 -0.422851,0.5228 -0.260846,0.3339 -0.541309,0.64756 -1.012367,1.13219 -0.06308,0.0649 -0.247194,0.27086 -0.409149,0.4577 -0.16196,0.18684 -0.392574,0.44256 -0.512482,0.56827 -0.189759,0.19893 -0.560548,0.70367 -0.817689,1.1131 -0.04456,0.071 -0.08346,0.18735 -0.08644,0.25868 -0.0054,0.12947 0.101292,0.76555 0.193337,1.15254 0.05903,0.2482 0.09798,0.48595 0.20106,1.22745 0.07954,0.57214 0.0698,1.27522 -0.01915,1.38294 -0.02229,0.027 -0.05526,0.13091 -0.07326,0.23093 -0.018,0.10001 -0.04625,0.2023 -0.06278,0.2273 -0.03851,0.0582 -0.11218,0.28622 -0.213031,0.65919 -0.04395,0.16252 -0.127309,0.38126 -0.185249,0.48609 -0.05794,0.10482 -0.105347,0.22246 -0.105347,0.2614 0,0.0389 -0.02046,0.0708 -0.04546,0.0708 -0.025,0 -0.04546,0.024 -0.04546,0.0532 0,0.0293 -0.02906,0.0855 -0.06458,0.12501 -0.03552,0.0395 -0.141506,0.21497 -0.235524,0.39 -0.282209,0.52534 -0.767191,1.01524 -1.836912,1.85552 -0.181358,0.14246 -0.806819,0.53118 -0.854685,0.53118 -0.0298,0 -0.05419,0.0205 -0.05419,0.0455 0,0.025 -0.03096,0.0455 -0.06881,0.0455 -0.03784,0 -0.104328,0.0184 -0.147748,0.0408 -0.04341,0.0225 -0.232369,0.0969 -0.419896,0.16542 -0.288991,0.10559 -0.387132,0.17146 -0.643919,0.43219 -0.166628,0.1692 -0.343744,0.32057 -0.393592,0.33639 -0.08401,0.0267 -0.280859,0.36694 -0.280859,0.4855 0,0.22552 0.136743,0.43954 0.553552,0.86638 0.543245,0.55631 0.559748,0.62498 0.247421,1.02948 -0.30232,0.39155 -0.602935,0.64222 -1.050772,0.87622 -0.34289,0.17916 -0.583428,0.31671 -0.659421,0.37708 -0.09892,0.0786 -0.270357,0.15312 -0.472067,0.20524 -0.142475,0.0368 -0.203925,0.0306 -0.318227,-0.0319 -0.07791,-0.0427 -0.284686,-0.0878 -0.459502,-0.10031 -0.285736,-0.0204 -0.323464,-0.0345 -0.373472,-0.13927 -0.131418,-0.27533 -0.378999,-0.36004 -0.609991,-0.20869 -0.06409,0.042 -0.194632,0.22819 -0.2901,0.41378 -0.178148,0.34629 -0.536786,0.74854 -1.319429,1.47986 -0.327974,0.30646 -0.768641,0.79636 -1.197721,1.33154 -0.226546,0.28257 -0.627994,0.73618 -0.937615,1.05944 -0.280767,0.29314 -0.739396,0.80266 -0.934865,1.03861 -0.0609,0.0735 -0.183072,0.21672 -0.271475,0.31823 -0.08841,0.1015 -0.213871,0.25616 -0.278808,0.34367 -0.06494,0.0875 -0.205266,0.22048 -0.311835,0.29549 -0.106565,0.075 -0.30017,0.23356 -0.43023,0.35233 -0.130055,0.11876 -0.251576,0.21594 -0.270038,0.21594 -0.01847,0 -0.16992,0.12007 -0.336566,0.26683 -0.166647,0.14675 -0.376272,0.31553 -0.465839,0.37505 -0.08957,0.0595 -0.283913,0.1881 -0.43188,0.28573 -0.147967,0.0976 -0.394679,0.27663 -0.548246,0.39779 -0.153568,0.12115 -0.295156,0.22027 -0.31465,0.22027 -0.01949,0 -0.06773,0.0276 -0.107206,0.0614 -0.03947,0.0338 -0.163828,0.11051 -0.276344,0.17048 -0.112516,0.06 -0.214803,0.12032 -0.227305,0.1341 -0.0125,0.0138 -0.120603,0.0618 -0.24022,0.10665 -0.185354,0.0695 -0.250486,0.13046 -0.440768,0.41245 -0.122804,0.18198 -0.250258,0.35903 -0.283235,0.39343 -0.03298,0.0344 -0.128419,0.15019 -0.21209,0.2573 -0.178048,0.22792 -0.873506,0.73191 -1.392234,1.00894 -0.200029,0.10682 -0.414832,0.23019 -0.477341,0.27415 -0.06251,0.044 -0.226169,0.13644 -0.363688,0.20553 -0.13752,0.0691 -0.342094,0.17312 -0.45461,0.23121 -0.112516,0.0581 -0.246513,0.10623 -0.29777,0.10702 -0.05126,7.7e-4 -0.11263,0.0198 -0.136383,0.0422 -0.05326,0.0503 -0.330574,0.0911 -0.845189,0.12435 l -0.392847,0.0254 -0.175415,-0.15397 c -0.09648,-0.0847 -0.232634,-0.17869 -0.302571,-0.20891 -0.153322,-0.0663 -0.74256,-0.0734 -0.782061,-0.009 -0.01545,0.025 -0.127968,0.0455 -0.250036,0.0455 -0.122067,0 -0.234583,-0.0205 -0.250035,-0.0455 -0.01545,-0.025 -0.06421,-0.0455 -0.108343,-0.0455 -0.08378,0 -0.641764,-0.54657 -0.641764,-0.62864 0,-0.0833 -0.259724,-0.23512 -0.402203,-0.23512 -0.130568,0 -0.466525,0.15976 -0.499571,0.23756 -0.01964,0.0462 -0.27047,0.35572 -0.534072,0.65895 -0.192277,0.22119 -0.564094,0.51279 -0.653852,0.51279 -0.02167,0 -0.04621,0.0185 -0.05455,0.041 -0.0083,0.0226 -0.168584,0.0664 -0.35611,0.0974 -0.270693,0.0448 -0.408881,0.0448 -0.67055,4.5e-4 -0.181276,-0.0308 -0.329593,-0.0747 -0.329593,-0.0974 0,-0.0228 -0.02191,-0.0413 -0.04868,-0.0413 -0.174039,0 -1.133307,-0.87235 -1.133307,-1.03062 0,-0.0333 -0.02046,-0.0605 -0.04546,-0.0605 -0.025,0 -0.04546,-0.0213 -0.04546,-0.0474 0,-0.0261 -0.08183,-0.15579 -0.181844,-0.28826 -0.100015,-0.13247 -0.181844,-0.26286 -0.181844,-0.28976 0,-0.0269 -0.01854,-0.0557 -0.0412,-0.0641 -0.05656,-0.0208 -0.504331,-0.94935 -0.504331,-1.04584 0,-0.0428 -0.01781,-0.0888 -0.03959,-0.10221 -0.02177,-0.0135 -0.05228,-0.12206 -0.06779,-0.24135 -0.01552,-0.11929 -0.04862,-0.34986 -0.07356,-0.51239 -0.05559,-0.36216 -0.01065,-1.29938 0.06976,-1.45475 0.124905,-0.24134 0.645674,-0.75033 0.889632,-0.86951 0.407385,-0.19901 0.487428,-0.22155 0.786416,-0.22155 0.158218,0 0.351314,-0.0127 0.429093,-0.0283 0.17142,-0.0343 0.36282,-0.21596 0.396775,-0.37662 0.01371,-0.0648 0.06639,-0.20588 0.11708,-0.31342 0.05869,-0.12451 0.08166,-0.23738 0.06325,-0.31074 -0.04285,-0.17072 -0.23316,-0.3235 -0.448236,-0.35984 -0.192446,-0.0325 -0.230542,-0.0638 -0.693094,-0.56927 -0.165237,-0.18057 -0.411177,-0.49206 -0.685421,-0.86809 -0.05319,-0.0729 -0.226445,-0.27787 -0.385,-0.4554 -0.158554,-0.17753 -0.329124,-0.37611 -0.379049,-0.44129 -0.04993,-0.0652 -0.103079,-0.12873 -0.118113,-0.14123 -0.01503,-0.0125 -0.117553,-0.14548 -0.227814,-0.2955 -0.110261,-0.15002 -0.267438,-0.35316 -0.349281,-0.45143 -0.139698,-0.16772 -0.148717,-0.19972 -0.147326,-0.5228 0.0017,-0.3918 0.08764,-0.68346 0.305985,-1.03831 0.08093,-0.13153 0.147143,-0.25207 0.147143,-0.26787 0,-0.0158 0.0716,-0.11612 0.159114,-0.22291 0.08751,-0.1068 0.159113,-0.20389 0.159113,-0.21576 0,-0.0925 1.060438,-1.15295 1.326917,-1.32695 0.222759,-0.14545 0.356582,-0.24411 0.559716,-0.41264 0.125017,-0.10373 0.329592,-0.2449 0.45461,-0.31373 0.125018,-0.0688 0.27964,-0.16229 0.343599,-0.2077 0.194037,-0.13777 0.648888,-0.36157 0.734845,-0.36157 0.04445,0 0.08081,-0.0181 0.08081,-0.0403 0,-0.0222 0.05626,-0.0516 0.125018,-0.0654 0.06876,-0.0138 0.217076,-0.0469 0.329592,-0.0735 0.4165,-0.0986 0.744588,-0.14245 0.866273,-0.11572 0.181431,0.0399 0.909403,0.83784 1.380138,1.51289 0.29161,0.41818 0.419769,0.52472 0.631167,0.52472 0.116585,0 0.180494,-0.0446 0.348736,-0.24334 0.323742,-0.38244 1.172235,-1.19283 1.673393,-1.59825 0.160905,-0.13017 0.509159,-0.31023 0.600008,-0.31023 0.04764,0 0.09927,-0.0205 0.114721,-0.0455 0.01545,-0.025 0.0619,-0.0455 0.10321,-0.0455 0.09279,0 0.796413,-0.35005 0.907057,-0.45125 0.04444,-0.0406 0.264915,-0.20504 0.489947,-0.36531 0.347876,-0.24776 0.640041,-0.48868 1.425321,-1.17531 0.0662,-0.0579 0.243098,-0.21032 0.393119,-0.33876 0.150022,-0.12844 0.559703,-0.52093 0.910403,-0.87218 0.468253,-0.469 0.669313,-0.70506 0.756894,-0.88868 0.169338,-0.35502 0.186872,-0.43659 0.130555,-0.60724 -0.06093,-0.18462 -0.193619,-0.30505 -0.448446,-0.40701 -0.160723,-0.0643 -0.22736,-0.0688 -0.395524,-0.0264 -0.28375,0.0714 -0.463635,0.0243 -0.776952,-0.2037 -0.296206,-0.21553 -0.616333,-0.56535 -1.066184,-1.16508 -0.159418,-0.21253 -0.300842,-0.39664 -0.314281,-0.40914 -0.06339,-0.059 -0.274011,-0.36185 -0.274525,-0.39476 -4.55e-4,-0.0204 -0.107715,-0.17117 -0.23867,-0.335 -0.130951,-0.16384 -0.279008,-0.35473 -0.329016,-0.4242 -0.05001,-0.0695 -0.187913,-0.25252 -0.306457,-0.40677 -0.285863,-0.37196 -0.287482,-0.45962 -0.02009,-1.08738 0.02929,-0.0688 0.06871,-0.12502 0.08761,-0.12502 0.0189,0 0.03436,-0.0206 0.03436,-0.0459 0,-0.18828 1.239435,-1.52949 1.977554,-2.13994 0.498462,-0.41225 0.544287,-0.44621 0.736332,-0.54572 0.104938,-0.0544 0.309513,-0.19934 0.454611,-0.32213 0.370434,-0.31351 0.982908,-0.60068 1.536718,-0.72053 0.824163,-0.17835 0.771406,-0.18618 1.136912,0.16882 0.175239,0.1702 0.461643,0.48008 0.636455,0.68864 0.174811,0.20855 0.532644,0.60298 0.795181,0.8765 0.262537,0.27352 0.487574,0.54271 0.50008,0.59822 0.03721,0.16512 0.176362,0.39028 0.27323,0.44212 0.04975,0.0266 0.09045,0.0684 0.09045,0.0928 0,0.0244 0.04123,0.13207 0.09163,0.23928 0.06271,0.13341 0.141011,0.21731 0.248104,0.26585 0.143611,0.0651 0.170969,0.0644 0.332765,-0.008 0.130605,-0.0585 0.213208,-0.14434 0.318736,-0.33132 0.11754,-0.20827 0.220182,-0.30618 0.587111,-0.56001 0.244571,-0.16918 0.506045,-0.36738 0.581056,-0.44043 0.196382,-0.19126 0.738678,-0.59227 0.977412,-0.72278 0.112516,-0.0615 0.296633,-0.12622 0.409149,-0.14381 0.190704,-0.0298 0.397061,-0.0855 0.613724,-0.16551 0.114107,-0.0422 0.48175,-0.12134 0.750106,-0.16155 0.112516,-0.0169 0.286405,-0.0673 0.386419,-0.11198 0.278249,-0.12444 0.600717,-0.21486 0.991482,-0.278 0.575609,-0.093 0.632063,-0.15928 1.27239,-1.49349 0.102001,-0.21253 0.231656,-0.4483 0.288123,-0.52394 0.136752,-0.18317 0.834596,-1.6552 0.835133,-1.76161 0,-0.0306 0.03107,-0.11472 0.0687,-0.18688 0.144812,-0.27767 0.511864,-1.47759 0.599567,-1.96002 0.01363,-0.075 0.03923,-0.15684 0.05688,-0.18184 0.01764,-0.025 0.06868,-0.25004 0.113417,-0.50007 0.04473,-0.25004 0.0968,-0.49553 0.115716,-0.54553 0.04686,-0.12393 0.125768,-0.57383 0.163455,-0.93195 0.0171,-0.16253 0.06634,-0.34664 0.109416,-0.40915 0.101746,-0.14764 0.166483,-0.35729 0.231637,-0.75011 0.05867,-0.35373 0.0918,-0.52317 0.20002,-1.02287 0.04061,-0.18753 0.09225,-0.44325 0.114748,-0.56827 0.0525,-0.29172 0.111429,-0.56243 0.202861,-0.93195 0.04021,-0.16252 0.09194,-0.4387 0.114961,-0.61372 0.04327,-0.32903 0.05406,-0.38977 0.157459,-0.88649 0.128891,-0.61917 0.161346,-0.81218 0.22936,-1.36383 0.03853,-0.31255 0.08964,-0.67055 0.113584,-0.79557 0.02394,-0.12502 0.04527,-0.82057 0.04739,-1.54567 0.003,-1.0432 -0.01063,-1.37531 -0.06559,-1.59114 -0.151708,-0.59574 -0.221617,-2.51144 -0.118971,-3.25997 0.025,-0.1823 0.06671,-0.63831 0.0927,-1.01337 0.02599,-0.37505 0.06636,-0.80466 0.08974,-0.95468 0.02337,-0.15002 0.09247,-0.61031 0.153559,-1.02287 0.198983,-1.34377 0.249072,-1.56817 0.446486,-2.00029 0.06283,-0.13752 0.128927,-0.30118 0.146889,-0.36368 0.01796,-0.0625 0.07089,-0.19818 0.117621,-0.30149 0.04673,-0.10331 0.126141,-0.31007 0.176471,-0.45947 0.05032,-0.1494 0.22525,-0.53884 0.38871,-0.86541 0.163464,-0.32658 0.297206,-0.61277 0.297206,-0.63598 0,-0.10951 0.508622,-0.92917 0.864177,-1.39266 0.07478,-0.0975 0.135965,-0.22048 0.135965,-0.27334 0,-0.0529 0.05616,-0.13613 0.125018,-0.1852 0.218799,-0.15594 0.511437,-0.47674 0.511437,-0.56065 0,-0.0446 0.02347,-0.10449 0.05215,-0.13318 0.0731,-0.0731 0.06597,-0.64942 -0.0097,-0.78619 -0.04099,-0.0741 -0.06214,-0.27291 -0.06266,-0.58913 l -7.73e-4,-0.47734 0.202842,-0.31549 0.202843,-0.31548 0.004,-0.6392 c 0.0033,-0.53308 0.01857,-0.66939 0.0918,-0.82104 0.0483,-0.10002 0.104183,-0.2023 0.12419,-0.22731 0.231733,-0.28957 0.447855,-0.61314 0.470649,-0.70464 0.01557,-0.0625 0.0506,-0.14181 0.07784,-0.17622 0.02774,-0.0351 0.04905,-0.24502 0.04844,-0.47734 -0.0013,-0.48799 -0.03686,-0.5604 -0.633308,-1.28844 -0.07905,-0.0965 -0.338303,-0.4812 -0.490147,-0.72732 -0.08047,-0.13044 -0.269052,-0.43157 -0.419073,-0.66919 -0.661567,-1.04786 -1.113795,-1.87595 -1.113795,-2.0395 0,-0.0643 0.590229,-0.62015 1.022873,-0.9633 0.266888,-0.21168 0.302306,-0.25346 0.440876,-0.52016 0.08581,-0.16515 0.103733,-0.26747 0.09954,-0.56826 -0.0054,-0.38378 -6.36e-4,-0.36887 -0.367625,-1.16241 -0.300479,-0.64971 -0.309185,-0.68109 -0.309035,-1.11379 v -0.40915 l 0.210549,-0.3229 c 0.245325,-0.37623 0.513555,-0.92686 0.56243,-1.15458 0.01878,-0.0875 0.07121,-0.2064 0.116512,-0.26418 0.147234,-0.18782 0.200765,-0.55614 0.135064,-0.92929 -0.0319,-0.18121 -0.07295,-0.34994 -0.0912,-0.37494 -0.01826,-0.025 -0.110761,-0.25003 -0.20557,-0.50007 -0.09481,-0.25004 -0.187186,-0.47507 -0.205288,-0.50007 -0.0181,-0.025 -0.04742,-0.10684 -0.06516,-0.18185 -0.01774,-0.075 -0.09881,-0.26935 -0.180175,-0.43188 -0.08136,-0.16252 -0.195201,-0.41824 -0.252982,-0.56826 -0.05778,-0.15002 -0.171329,-0.41597 -0.252327,-0.59099 -0.271847,-0.58744 -0.289204,-0.63246 -0.455683,-1.18199 -0.04545,-0.15002 -0.09947,-0.2922 -0.120058,-0.31595 -0.02058,-0.0238 -0.03743,-0.0837 -0.03743,-0.13316 0,-0.0495 -0.0196,-0.15279 -0.04356,-0.22958 -0.09378,-0.30058 -0.239048,-0.98445 -0.324201,-1.52617 -0.07401,-0.47081 -0.08727,-0.75536 -0.07735,-1.65933 0.0081,-0.74144 -0.005,-1.14204 -0.04114,-1.25017 -0.02922,-0.0875 -0.07823,-0.25118 -0.108915,-0.36369 -0.05583,-0.2047 -0.321428,-0.86283 -0.525221,-1.30146 -0.142347,-0.30636 -0.208257,-0.96533 -0.20857,-2.08539 -4.55e-4,-0.85884 -0.02566,-1.06248 -0.188968,-1.51375 -0.08291,-0.22909 -0.351691,-0.69111 -0.402057,-0.69111 -0.01916,0 -0.03484,-0.0375 -0.03484,-0.0833 0,-0.0458 -0.01534,-0.0986 -0.03409,-0.1173 -0.03987,-0.0397 -0.131715,-0.46062 -0.199265,-0.91315 -0.02613,-0.17503 -0.03822,-0.60002 -0.02688,-0.94444 0.01134,-0.34442 0.0029,-0.63715 -0.01869,-0.6505 -0.02162,-0.0134 -0.0393,-0.0776 -0.0393,-0.14265 0,-0.13728 -0.207502,-0.47866 -0.407285,-0.67006 -0.136269,-0.13056 -0.138233,-0.139 -0.137174,-0.58992 l 0.0011,-0.45747 0.183913,-0.1361 c 0.264774,-0.19595 0.366497,-0.38362 0.36917,-0.68111 0.0023,-0.25417 -0.05193,-0.38265 -0.259437,-0.61481 -0.152567,-0.1707 -0.204874,-0.38041 -0.204874,-0.82142 0,-0.4803 0.08982,-0.85623 0.298583,-1.24975 0.08568,-0.1615 0.17948,-0.33948 0.208457,-0.39551 0.02898,-0.056 0.07507,-0.14279 0.102415,-0.19279 0.03428,-0.0627 0.05426,-1.09393 0.0643,-3.31866 0.01274,-2.82238 0.0053,-3.28197 -0.05958,-3.65961 -0.04078,-0.23753 -0.09184,-0.47279 -0.113462,-0.5228 -0.06239,-0.14427 -0.09814,-0.76475 -0.06509,-1.12951 0.02724,-0.30058 0.04673,-0.35193 0.195105,-0.51396 0.538417,-0.58795 0.798859,-1.0067 0.915453,-1.47191 0.06844,-0.27308 0.119876,-0.4806 0.179966,-0.72608 0.02754,-0.11251 0.08848,-0.33755 0.13542,-0.50007 0.175852,-0.60889 0.192404,-0.70758 0.188063,-1.12131 -0.0025,-0.23308 0.02636,-0.60048 0.06403,-0.81644 0.03879,-0.22244 0.06847,-0.66555 0.06847,-1.02212 0,-0.60335 0.0042,-0.63213 0.102287,-0.69396 0.05626,-0.0355 0.153035,-0.0797 0.215062,-0.0984 0.260269,-0.0781 0.543678,-0.40155 0.548592,-0.62603 0.0012,-0.0548 0.04156,-0.17129 0.08968,-0.2588 0.04812,-0.0875 0.100669,-0.19492 0.116771,-0.23867 0.0161,-0.0438 0.04406,-0.0796 0.06214,-0.0796 0.09017,0 0.141016,-0.22451 0.324351,-1.43202 0.07689,-0.50645 0.185563,-0.93834 0.291683,-1.15926 0.110092,-0.2292 0.215307,-0.42041 0.250149,-0.45461 0.01273,-0.0125 0.079,-0.1089 0.147243,-0.21421 0.06825,-0.10531 0.186018,-0.23726 0.261701,-0.29322 0.32246,-0.2384 0.38456,-0.48172 0.285837,-1.11993 l -0.07272,-0.47013 0.139106,-0.34919 c 0.07651,-0.19204 0.15294,-0.39009 0.169847,-0.44009 0.01691,-0.05 0.04888,-0.42147 0.07104,-0.82548 0.03353,-0.61136 0.05576,-0.76003 0.132541,-0.88649 0.186218,-0.30671 0.365089,-0.71524 0.414946,-0.94771 0.03107,-0.14489 0.04181,-0.46397 0.02732,-0.81247 l -0.02384,-0.57389 -0.487242,-0.97741 c -0.542009,-1.08727 -0.535199,-1.07199 -0.614424,-1.37927 -0.03452,-0.13388 -0.172301,-0.38305 -0.351936,-0.63645 -0.463812,-0.654281 -0.511327,-0.771211 -0.575655,-1.416585 -0.03133,-0.314349 -0.0701,-0.452119 -0.275025,-0.977412 -0.17052,-0.437099 -0.600622,-1.362685 -0.654871,-1.409292 -0.01455,-0.0125 -0.05319,-0.07387 -0.08587,-0.136383 -0.116971,-0.223768 -0.239252,-0.331784 -0.55356,-0.488988 -0.206734,-0.103396 -0.364298,-0.239543 -0.364298,-0.314777 0,-0.033 -0.03069,-0.05999 -0.06819,-0.05999 -0.0375,0 -0.06819,-0.01798 -0.06819,-0.03995 0,-0.06952 -0.272911,-0.156295 -0.481636,-0.15314 -0.291928,0.0044 -0.531913,0.166274 -0.999106,0.673864 -0.734064,0.797537 -1.0829,1.140326 -1.451493,1.42634 -0.200029,0.155213 -0.520429,0.442763 -0.712002,0.639 -0.191572,0.196237 -0.431275,0.41169 -0.532671,0.478791 -0.17853,0.118149 -0.390619,0.399639 -0.512468,0.680165 -0.03258,0.07501 -0.125291,0.241398 -0.206021,0.369748 -0.08073,0.12835 -0.216285,0.37384 -0.301234,0.545532 -0.08495,0.171697 -0.224313,0.434907 -0.309694,0.584937 -0.08538,0.15002 -0.193773,0.36482 -0.240875,0.47734 -0.08751,0.20904 -0.527466,1.1045 -0.703582,1.43202 -0.113748,0.21154 -0.413832,0.87424 -0.413832,0.91391 0,0.0149 -0.03277,0.10172 -0.07283,0.19301 -0.04005,0.0913 -0.08868,0.2069 -0.108065,0.25691 -0.01938,0.05 -0.109357,0.24721 -0.199943,0.43822 -0.09058,0.19101 -0.164696,0.36181 -0.164696,0.37955 0,0.11512 -0.876106,1.91334 -0.99581,2.04391 -0.04703,0.0513 -0.14397,0.20375 -0.215403,0.33877 -0.07144,0.13501 -0.329911,0.4521 -0.574391,0.70464 -0.244476,0.25254 -0.653625,0.6819 -0.90922,0.95412 -0.255591,0.27223 -0.587461,0.62016 -0.737483,0.77317 -0.150021,0.15302 -0.368507,0.39058 -0.485528,0.52792 -0.117017,0.13734 -0.328488,0.37245 -0.469935,0.52247 -0.141443,0.15002 -0.320687,0.36482 -0.398316,0.47734 -0.07763,0.11252 -0.228264,0.30686 -0.334738,0.43188 -0.171975,0.20192 -0.502672,0.60331 -0.599263,0.72738 -0.01947,0.025 -0.123977,0.20912 -0.232238,0.40915 -0.108265,0.20002 -0.252545,0.44551 -0.320627,0.54553 -0.131405,0.19304 -0.396825,0.73483 -0.548483,1.11959 -0.05027,0.12752 -0.156658,0.3267 -0.236429,0.44262 -0.138661,0.2015 -0.144784,0.22904 -0.139247,0.62635 0.0033,0.23652 0.03054,0.46179 0.06321,0.52281 0.07601,0.14194 0.08366,1.22581 0.01037,1.47104 -0.07933,0.26546 -0.245794,0.89108 -0.272166,1.02288 -0.01251,0.0625 -0.04963,0.17502 -0.08248,0.25003 -0.03286,0.075 -0.08439,0.22844 -0.114517,0.34096 -0.03012,0.11252 -0.07018,0.24549 -0.08901,0.2955 -0.01884,0.05 -0.07071,0.20343 -0.11528,0.34095 -0.04457,0.13752 -0.119817,0.33187 -0.16722,0.43188 -0.0977,0.20616 -0.234197,0.68223 -0.358273,1.24961 -0.04641,0.21222 -0.105606,0.39292 -0.131555,0.40157 -0.02595,0.009 -0.04717,0.0757 -0.04717,0.14894 0,0.0733 -0.02419,0.17194 -0.05374,0.21927 -0.04071,0.0652 -0.04135,0.14498 -0.0026,0.32897 0.0281,0.13361 0.07505,0.36567 0.104324,0.51569 0.05248,0.2689 0.146635,0.59514 0.22305,0.77284 0.08862,0.20606 0.221918,0.70709 0.387042,1.45475 0.06627,0.30004 0.139665,0.60835 0.163109,0.68514 0.05725,0.18753 0.05423,0.59796 -0.0047,0.63436 -0.100332,0.062 -0.270924,0.38992 -0.270924,0.52076 0,0.0755 -0.01534,0.13732 -0.0341,0.13736 -0.01875,4e-5 -0.0341,0.32378 -0.0341,0.71942 0,0.70413 -0.0026,0.72324 -0.121854,0.90339 -0.06702,0.10123 -0.174515,0.24087 -0.238879,0.31032 -0.09972,0.10761 -1.057828,1.98003 -1.212082,2.36877 -0.106624,0.26872 -0.139829,0.4634 -0.170538,0.99995 l -0.03155,0.55123 -0.164628,0.18223 c -0.186604,0.20655 -0.252972,0.46258 -0.174238,0.67216 0.02775,0.0739 0.139311,0.22641 0.247903,0.33892 0.108588,0.11252 0.271084,0.32122 0.361102,0.46379 0.152735,0.24191 0.163664,0.28355 0.163664,0.62356 0,0.34299 -0.0081,0.37322 -0.138947,0.51574 -0.07642,0.0833 -0.163837,0.20159 -0.19426,0.26293 -0.03449,0.0695 -0.101991,0.11695 -0.179284,0.12592 -0.144621,0.0168 -0.163683,0.12114 -0.04207,0.23032 0.04504,0.0404 0.137101,0.14706 0.204575,0.23693 0.118444,0.15776 0.122681,0.1836 0.122681,0.74838 v 0.58499 l -0.191309,0.19492 -0.191309,0.19494 h -0.349582 c -0.289114,0 -0.383805,-0.0196 -0.547432,-0.11311 -0.230479,-0.13176 -0.413114,-0.14308 -0.657908,-0.0408 -0.204042,0.0853 -0.886394,0.0697 -0.916594,-0.0209 -0.0096,-0.0289 -0.05159,-0.0525 -0.09325,-0.0526 -0.15449,-4.5e-4 -0.357656,-0.17405 -0.458965,-0.39241 -0.110134,-0.23738 -0.341395,-0.4709 -0.466517,-0.47107 -0.04228,0 -0.08952,-0.0206 -0.104969,-0.0456 -0.01545,-0.025 -0.07747,-0.0455 -0.137825,-0.0455 -0.06035,0 -0.217685,-0.0488 -0.34964,-0.10844 -0.131951,-0.0596 -0.333634,-0.15019 -0.448182,-0.20121 -0.225496,-0.10043 -0.472799,-0.35079 -0.566531,-0.57354 -0.115762,-0.27509 -0.484455,-0.5234 -0.78017,-0.52542 -0.154604,-0.001 -0.289919,-0.16976 -0.531253,-0.66233 -0.255432,-0.52134 -0.283209,-0.58729 -0.3218,-0.76403 -0.01562,-0.0715 -0.06522,-0.21472 -0.110239,-0.31823 -0.04502,-0.1035 -0.118517,-0.3007 -0.163337,-0.43822 -0.04482,-0.13752 -0.09909,-0.26947 -0.120603,-0.29323 -0.02151,-0.0238 -0.03911,-0.0877 -0.03911,-0.14219 0,-0.2222 -0.16161,-0.46157 -0.617679,-0.91488 -0.260365,-0.2588 -0.473386,-0.50068 -0.473386,-0.53753 0,-0.0369 -0.01722,-0.067 -0.03826,-0.067 -0.02105,0 -0.06251,-0.0809 -0.09214,-0.17981 -0.02963,-0.0989 -0.07916,-0.2063 -0.11007,-0.23867 -0.08747,-0.0916 -0.214135,-0.30056 -0.214135,-0.35325 0,-0.0262 -0.03896,-0.13428 -0.08658,-0.24027 -0.04762,-0.10599 -0.121385,-0.295 -0.163923,-0.42002 -0.04254,-0.12502 -0.09837,-0.27845 -0.124077,-0.34096 -0.0257,-0.0625 -0.06191,-0.15456 -0.08045,-0.20457 -0.01854,-0.05 -0.05994,-0.1523 -0.09198,-0.22731 -0.06025,-0.14105 -0.122244,-0.44045 -0.164714,-0.79556 -0.01346,-0.11252 -0.04294,-0.22401 -0.06552,-0.24777 -0.02258,-0.0238 -0.04105,-0.13317 -0.04105,-0.24316 0,-0.26264 -0.109671,-0.48723 -0.355892,-0.72881 -0.188554,-0.185 -0.199065,-0.20828 -0.174457,-0.38642 0.0144,-0.10425 0.03891,-0.28161 0.05445,-0.39413 0.02597,-0.18798 0.06685,-0.31843 0.157195,-0.50156 0.01891,-0.0383 0.04888,-0.14062 0.06662,-0.22731 0.05018,-0.24534 0.126927,-0.45767 0.245926,-0.68042 0.233924,-0.4379 0.277216,-0.54239 0.30402,-0.7338 0.03859,-0.27556 0.08411,-0.40195 0.374276,-1.03918 0.120727,-0.26513 0.136552,-0.3539 0.153963,-0.86376 0.01927,-0.564 0.02096,-0.5715 0.226037,-1.00014 0.307848,-0.64345 0.311649,-0.65634 0.31224,-1.05911 4.54e-4,-0.30703 0.01934,-0.40578 0.106924,-0.55892 0.163696,-0.28622 0.256218,-0.60113 0.256218,-0.87205 0,-0.16662 0.02736,-0.2853 0.08461,-0.36695 0.122954,-0.17535 0.180908,-0.39143 0.215263,-0.80259 0.01671,-0.20002 0.0453,-0.38414 0.06352,-0.40914 0.01823,-0.025 0.04718,-0.1273 0.06435,-0.22731 0.191105,-1.11338 0.302316,-1.62547 0.387842,-1.78588 0.02288,-0.0429 0.129977,-0.25882 0.237993,-0.4798 0.250444,-0.51237 0.402771,-0.66583 1.313628,-1.32345 0.456656,-0.3297 0.541477,-0.49436 0.656884,-1.2752 0.06886,-0.46591 0.104401,-0.64305 0.155054,-0.77284 0.177089,-0.45376 0.388228,-1.19985 0.418114,-1.47748 0.02018,-0.18753 0.05677,-0.4637 0.08128,-0.61372 0.167383,-1.02407 0.194214,-1.20272 0.234456,-1.5611 0.045,-0.40071 0.09698,-0.70749 0.201516,-1.1893 0.0762,-0.35116 0.104542,-0.51648 0.222172,-1.29563 0.07913,-0.52417 0.09401,-1.18639 0.02757,-1.22745 -0.025,-0.0155 -0.04546,-0.0739 -0.04546,-0.12998 0,-0.056 -0.01701,-0.12131 -0.0378,-0.14506 -0.119985,-0.1371 -0.203597,-0.97843 -0.103388,-1.04036 0.02236,-0.0138 0.05034,-0.10198 0.06218,-0.19589 0.01184,-0.0939 0.05689,-0.29351 0.100115,-0.44354 0.136551,-0.4739 0.171079,-0.79099 0.200506,-1.84117 0.02598,-0.927315 0.03856,-1.047428 0.134641,-1.285735 0.08822,-0.218817 0.101615,-0.31404 0.07992,-0.568262 -0.05082,-0.595467 -0.01766,-1.103017 0.109075,-1.669229 0.02798,-0.125018 0.06965,-0.400812 0.09261,-0.612874 0.03956,-0.365525 0.06788,-0.476427 0.203388,-0.796418 0.03176,-0.07501 0.103801,-0.289814 0.160091,-0.477341 0.254259,-0.847098 0.484337,-1.451629 0.588274,-1.545674 0.01382,-0.0125 0.06584,-0.104561 0.115608,-0.204575 0.04977,-0.100014 0.105829,-0.188663 0.124581,-0.196996 0.01875,-0.0083 0.0341,-0.03158 0.0341,-0.05165 0,-0.05093 0.332015,-0.537658 0.49432,-0.724657 0.07399,-0.08525 0.161214,-0.207994 0.193823,-0.272767 0.03261,-0.06477 0.136606,-0.228496 0.231106,-0.363833 0.0945,-0.135338 0.171815,-0.273703 0.171815,-0.30748 0,-0.03377 0.01898,-0.09693 0.04217,-0.140348 0.02319,-0.04341 0.09743,-0.252827 0.16496,-0.465357 0.06753,-0.21253 0.154767,-0.451555 0.193855,-0.531166 0.08581,-0.174766 0.407767,-0.492389 0.698036,-0.688649 0.116893,-0.07903 0.239638,-0.170115 0.272766,-0.202406 0.03313,-0.03229 0.131837,-0.0943 0.219349,-0.137801 0.172579,-0.08578 0.327592,-0.17668 0.363688,-0.213267 0.05951,-0.06031 0.641373,-0.244067 0.86376,-0.27278 0.283304,-0.03657 0.515546,-0.114034 0.681915,-0.227437 0.259119,-0.176625 0.962637,-0.545077 1.040766,-0.545077 0.02258,0 0.160773,-0.06259 0.307085,-0.139093 0.305275,-0.159623 0.713038,-0.537263 0.83155,-0.770128 0.09463,-0.185926 0.275494,-0.737264 0.275494,-0.839788 0,-0.07636 0,-0.0767 0.230869,-0.54275 0.174066,-0.351609 0.507213,-0.744138 0.760604,-0.896187 0.09228,-0.05537 0.259842,-0.194568 0.372358,-0.30933 0.286158,-0.291864 0.499898,-0.469344 0.659184,-0.547364 0.380477,-0.186363 0.704646,-0.612824 0.704646,-0.92701 0,-0.139097 0.41405,-0.940447 0.613997,-1.188319 0.08067,-0.100014 0.226136,-0.304589 0.323241,-0.45461 0.0971,-0.150022 0.212126,-0.312172 0.255596,-0.360338 0.04347,-0.04816 0.092,-0.128418 0.107847,-0.178348 0.01585,-0.04993 0.06923,-0.133265 0.118639,-0.185195 0.120149,-0.126291 0.366053,-0.510145 0.469404,-0.732741 0.04596,-0.09899 0.130777,-0.24328 0.188486,-0.32065 0.0577,-0.07737 0.104919,-0.15604 0.104919,-0.174825 0,-0.01878 0.03799,-0.08845 0.08442,-0.154822 0.08241,-0.117794 0.231942,-0.376285 0.44595,-0.770896 0.05835,-0.107588 0.106083,-0.226791 0.106083,-0.264897 0,-0.07254 0.23803,-0.335057 0.303798,-0.335057 0.103024,0 0.412686,-0.465602 0.725644,-1.091064 0.04379,-0.08751 0.0924,-0.169343 0.108029,-0.181844 0.01563,-0.0125 0.04214,-0.05342 0.05891,-0.09092 0.03766,-0.08423 0.136001,-0.242149 0.169856,-0.272767 0.01382,-0.0125 0.08542,-0.10456 0.159113,-0.204574 0.07369,-0.100014 0.15955,-0.208875 0.190805,-0.241916 0.03125,-0.03304 0.05683,-0.07568 0.05683,-0.09474 0,-0.06242 0.80181,-0.743929 1.028665,-0.874334 0.214771,-0.123454 0.511132,-0.269929 0.744315,-0.367884 0.06251,-0.02625 0.175025,-0.07412 0.250035,-0.106361 0.375572,-0.161427 1.041731,-0.376158 1.636597,-0.527548 0.200029,-0.0509 0.383123,-0.110861 0.406876,-0.133237 0.02375,-0.02238 0.09926,-0.04068 0.167797,-0.04068 0.06853,0 0.135592,-0.01777 0.149012,-0.03949 0.01342,-0.02172 0.104579,-0.05231 0.202561,-0.06798 0.176979,-0.0283 0.560116,-0.202329 0.58912,-0.267588 0.0083,-0.01875 0.04925,-0.03422 0.09092,-0.03438 0.04167,0 0.134365,-0.03084 0.205984,-0.06819 0.07162,-0.03735 0.174929,-0.06791 0.229578,-0.06791 0.05465,0 0.123499,-0.02414 0.153004,-0.05364 0.03436,-0.03436 0.344003,-0.0658 0.861486,-0.08749 0.444313,-0.01861 0.899905,-0.05467 1.012421,-0.08011 0.112516,-0.02545 0.296633,-0.06671 0.409149,-0.0917 0.112517,-0.02499 0.388692,-0.106143 0.613724,-0.180349 0.498603,-0.164419 1.09787,-0.279549 1.455067,-0.279549 0.146298,0 0.328824,-0.02057 0.405607,-0.04571 0.865333,-0.283309 1.153646,-0.361383 1.503442,-0.40714 0.43443,-0.05683 0.735468,-0.106792 1.068334,-0.177312 0.112516,-0.02384 0.318632,-0.06404 0.458052,-0.08934 0.13941,-0.02529 0.32478,-0.08604 0.41194,-0.134996 0.0872,-0.04895 0.23903,-0.100624 0.33751,-0.114826 0.54258,-0.07826 0.82719,-0.14347 0.95039,-0.217758 0.0758,-0.04573 0.20093,-0.111961 0.278,-0.147175 0.0771,-0.03521 0.18642,-0.122759 0.24302,-0.194546 0.0895,-0.113567 0.1006,-0.17147 0.0852,-0.445618 -0.0108,-0.191664 -0.0392,-0.322255 -0.0725,-0.33338 -0.0302,-0.01006 -0.0549,-0.06801 -0.0549,-0.128773 0,-0.06076 -0.0183,-0.146002 -0.0408,-0.189422 -0.0224,-0.04341 -0.0764,-0.170997 -0.11987,-0.283513 -0.0435,-0.112516 -0.12457,-0.306862 -0.18018,-0.43188 -0.0556,-0.125018 -0.12647,-0.298906 -0.15748,-0.386419 -0.18402,-0.519305 -0.4916,-0.928968 -0.97067,-1.292811 -0.18739,-0.14232 -0.75602,-0.962455 -0.82147,-1.184814 -0.0221,-0.07501 -0.0533,-0.606905 -0.06944,-1.181987 l -0.02929,-1.045604 -0.169238,-0.355641 c -0.09308,-0.195605 -0.169233,-0.383628 -0.169233,-0.417832 0,-0.03421 -0.0182,-0.07344 -0.04044,-0.08718 -0.02224,-0.01375 -0.05076,-0.09167 -0.06337,-0.173161 -0.01261,-0.08149 -0.05793,-0.260687 -0.100701,-0.398207 -0.04277,-0.137519 -0.09496,-0.393238 -0.115971,-0.568263 -0.04593,-0.382672 -0.170065,-0.790858 -0.269588,-0.88649 -0.01301,-0.0125 -0.08488,-0.155704 -0.159691,-0.318227 -0.07482,-0.162523 -0.202679,-0.401916 -0.284132,-0.531985 -0.08146,-0.130064 -0.148098,-0.26406 -0.148098,-0.297769 0,-0.0337 -0.02164,-0.08292 -0.04808,-0.109361 -0.08078,-0.08078 -0.09773,-0.511469 -0.04176,-1.06117 0.02928,-0.287541 0.07109,-0.768291 0.09291,-1.068334 0.08555,-1.176499 0.07251,-1.115877 0.284068,-1.320456 0.295233,-0.2855 0.332566,-0.34635 0.533762,-0.869997 0.02098,-0.05458 0.06267,-0.320532 0.09265,-0.590993 0.04693,-0.423338 0.07128,-0.511064 0.175003,-0.630599 0.06627,-0.07637 0.147148,-0.209344 0.179734,-0.295497 0.07186,-0.189968 0.111457,-0.289628 0.197733,-0.497603 0.0363,-0.08751 0.0916,-0.230714 0.122878,-0.318227 0.0313,-0.08751 0.073,-0.200028 0.0927,-0.250035 0.0465,-0.117926 0.12572,-0.412164 0.18552,-0.689276 0.0261,-0.120967 0.0682,-0.312003 0.0935,-0.42452 0.0253,-0.112516 0.0702,-0.429606 0.0997,-0.704645 0.0385,-0.358986 0.0809,-0.544963 0.15038,-0.659185 0.0532,-0.08751 0.12118,-0.240944 0.15101,-0.340958 0.0536,-0.179844 0.0902,-0.264535 0.36264,-0.841029 0.24941,-0.527709 0.56774,-1.058051 0.79638,-1.326779 0.0784,-0.09214 0.18774,-0.255797 0.243,-0.363688 0.24776,-0.48374 1.12225,-1.335516 1.67609,-1.632563 0.33615,-0.18029 0.66954,-0.367715 0.72013,-0.404842 0.025,-0.01835 0.15798,-0.06946 0.2955,-0.113584 0.13752,-0.04412 0.27049,-0.0954 0.2955,-0.113957 0.025,-0.01855 0.10683,-0.0448 0.18184,-0.05832 0.12066,-0.02175 0.29067,-0.06229 0.88649,-0.211382 0.0875,-0.0219 0.30225,-0.08262 0.4772,-0.134943 0.3883,-0.116128 0.8454,-0.123061 1.38278,-0.02097 0.37968,0.07213 0.40276,0.07138 0.84495,-0.02726 0.25004,-0.05578 0.60804,-0.118014 0.79557,-0.138305 0.29904,-0.03236 0.60177,-0.07898 1.79571,-0.276529 0.72648,-0.120206 1.42386,-0.312676 1.72752,-0.476781 0.10001,-0.05405 0.3455,-0.152966 0.54553,-0.219814 0.20003,-0.06685 0.4046,-0.138916 0.45461,-0.160154 0.33576,-0.142596 1.40994,-0.180389 2.06848,-0.07278 0.63793,0.104248 0.74803,0.126572 0.79556,0.161315 0.025,0.01827 0.1247,0.04752 0.22154,0.06499 0.0968,0.01747 0.20936,0.04844 0.25004,0.06882 0.11534,0.05778 0.28129,0.124422 0.52857,0.212269 0.12501,0.04442 0.23753,0.09289 0.25003,0.107725 0.0125,0.01483 0.11479,0.05588 0.22731,0.09122 0.18928,0.05945 0.68504,0.378512 0.7198,0.463254 0.008,0.02032 0.0417,0.03695 0.0742,0.03695 0.0325,0 0.18332,0.122744 0.33521,0.272766 0.1519,0.150021 0.29751,0.272766 0.3236,0.272766 0.0261,0 0.0474,0.01605 0.0474,0.03566 0,0.01961 0.0665,0.07472 0.14775,0.122467 0.0813,0.04774 0.1735,0.112243 0.20497,0.143331 0.0315,0.03109 0.22581,0.173609 0.43187,0.316715 0.4422,0.307094 0.6247,0.467651 0.6247,0.549589 0,0.03283 0.0205,0.05969 0.0455,0.05969 0.025,0 0.0455,0.06096 0.0455,0.135463 0,0.290017 0.12027,0.470126 0.44962,0.673363 0.29849,0.184184 0.79499,0.627851 0.98364,0.878952 0.0493,0.06566 0.30449,0.348085 0.56703,0.627623 0.47519,0.505957 0.60543,0.646889 0.91017,0.984853 0.19383,0.21497 0.57079,0.553705 0.95282,0.856207 0.15565,0.123246 0.32566,0.281789 0.37781,0.352322 0.0521,0.07053 0.11475,0.128241 0.13913,0.128241 0.0244,0 0.15862,0.119467 0.29831,0.265483 0.1397,0.146012 0.42788,0.39597 0.64041,0.555461 0.38395,0.288128 0.58954,0.461593 0.80508,0.67927 0.14532,0.146757 0.57124,0.799105 0.671,1.027724 0.0425,0.09735 0.0926,0.207679 0.11137,0.245185 0.0188,0.03751 0.0716,0.211393 0.11734,0.386418 0.0458,0.175025 0.0971,0.338685 0.11411,0.363688 0.017,0.025 0.0554,0.147749 0.0853,0.272767 0.0637,0.266251 0.18312,0.68853 0.23136,0.818298 0.0186,0.05001 0.0695,0.244353 0.11306,0.43188 0.0436,0.187527 0.11807,0.408613 0.1655,0.491306 0.0474,0.08269 0.0862,0.195914 0.0862,0.251609 0,0.05569 0.0432,0.2233 0.096,0.372457 0.12264,0.346363 0.16381,0.944953 0.085,1.235776 -0.0985,0.363443 -0.20649,0.530508 -0.44994,0.696159 -0.12747,0.08673 -0.24323,0.193496 -0.25725,0.237252 -0.014,0.04376 -0.0446,0.07956 -0.0679,0.07956 -0.0233,0 -0.0424,0.03069 -0.0424,0.06819 0,0.0375 -0.016,0.06819 -0.0355,0.06819 -0.0195,0 -0.0646,0.06649 -0.10007,0.147748 -0.066,0.150958 -0.0652,0.132523 -0.17403,4.284701 -0.0353,1.347829 -0.0527,1.590654 -0.13612,1.897066 -0.0526,0.193264 -0.11876,0.394629 -0.14705,0.447478 -0.0692,0.129227 -0.0211,0.295296 0.12845,0.443567 0.27117,0.268921 0.2689,0.23773 0.16305,2.240033 l -0.0279,0.527503 -0.21048,0.226577 c -0.2482,0.267202 -0.32412,0.48426 -0.32412,0.926701 0,0.30352 -0.01,0.334334 -0.15912,0.508968 -0.19497,0.227787 -0.20999,0.42031 -0.0478,0.613046 0.0916,0.108834 0.18037,0.146771 0.5011,0.214076 0.21439,0.04499 0.40078,0.09956 0.41419,0.121254 0.0134,0.02169 0.0709,0.03945 0.12777,0.03945 0.0569,0 0.11697,0.01358 0.13356,0.03017 0.0464,0.04644 0.49409,0.197137 0.5856,0.197137 0.0447,0 0.0813,0.02046 0.0813,0.04546 0,0.025 0.031,0.04546 0.0688,0.04546 0.0378,0 0.10433,0.01922 0.14775,0.04271 0.11246,0.06084 0.87957,0.415077 0.98816,0.456315 0.088,0.03343 0.55488,0.24588 0.71539,0.325555 0.0434,0.02155 0.12042,0.03918 0.1711,0.03918 0.0507,0 0.12768,0.019 0.1711,0.04223 0.0434,0.02323 0.23941,0.118676 0.43555,0.212108 0.19613,0.09344 0.38025,0.192354 0.40914,0.219827 0.0515,0.04892 0.23093,0.147025 0.87084,0.476017 0.17503,0.08999 0.32505,0.178953 0.33338,0.197706 0.008,0.01875 0.0409,0.0341 0.0723,0.0341 0.0314,0 0.23423,0.122744 0.45065,0.272766 0.21641,0.150021 0.41062,0.272766 0.43158,0.272766 0.0209,0 0.15911,0.08522 0.30703,0.189381 0.14791,0.104161 0.40191,0.260888 0.56443,0.348277 0.16252,0.08739 0.53076,0.314145 0.8183,0.503899 0.28754,0.18975 0.55349,0.35832 0.59099,0.37459 0.0375,0.01627 0.11789,0.07765 0.17864,0.136383 0.0607,0.05874 0.15538,0.137483 0.21031,0.174989 0.0549,0.03751 0.29854,0.257423 0.54137,0.488706 0.24283,0.231283 0.47015,0.420514 0.50518,0.420514 0.035,0 0.0997,0.0297 0.14375,0.06599 0.5145,0.424006 0.88279,0.706847 0.9204,0.706847 0.0254,0 0.0462,0.02046 0.0462,0.04546 0,0.025 0.0201,0.04546 0.0447,0.04546 0.0246,0 0.14222,0.09045 0.2614,0.20101 0.3643,0.337935 0.52989,0.474768 0.64858,0.535958 0.12405,0.06396 0.34843,0.253982 0.55233,0.467749 0.13814,0.14483 0.44781,0.744761 0.44781,0.867555 0,0.126446 0.18876,0.344713 0.35909,0.415228 0.21548,0.08921 0.5357,0.352827 0.61366,0.505185 0.0342,0.06676 0.0764,0.207739 0.094,0.313268 0.0411,0.247217 0.16476,0.401375 0.37737,0.47033 0.0934,0.03029 0.22407,0.09314 0.29044,0.139675 0.0664,0.04654 0.14129,0.08461 0.16648,0.08461 0.18455,0 1.13094,1.228007 1.2788,1.659327 0.21321,0.621984 0.30754,1.217483 0.35823,2.261472 0.0221,0.454156 0.0548,0.735814 0.0895,0.770565 0.0301,0.03012 0.0548,0.149689 0.0548,0.265706 0,0.116021 0.043,0.372762 0.0956,0.570536 0.11597,0.436262 0.15414,0.590434 0.241,0.97332 0.0369,0.162523 0.0901,0.377327 0.11828,0.477341 0.0282,0.100014 0.0681,0.253445 0.0887,0.340958 0.0513,0.218017 0.14269,0.468426 0.19005,0.520528 0.0216,0.02375 0.0393,0.09052 0.0393,0.148367 0,0.05785 0.0187,0.140697 0.0414,0.184117 0.0228,0.04341 0.077,0.181226 0.12041,0.306244 0.0435,0.125018 0.14371,0.370507 0.22281,0.545532 0.0791,0.175025 0.17047,0.389828 0.20305,0.477341 0.0326,0.08751 0.15916,0.367534 0.2813,0.622266 0.12214,0.254736 0.22207,0.50193 0.22207,0.549324 0,0.04739 0.0136,0.09974 0.0302,0.11633 0.0397,0.03972 0.19713,0.488106 0.19713,0.561525 0,0.0725 0.30756,0.776879 0.36362,0.832755 0.0586,0.05846 0.45349,0.902115 0.47872,1.022873 0.0282,0.134792 0.0851,0.289223 0.16311,0.442627 0.0221,0.04342 0.0402,0.103778 0.0402,0.134137 0,0.106334 0.15688,0.582492 0.19191,0.582492 0.0195,0 0.0354,0.04985 0.0354,0.110775 0,0.06092 0.0426,0.28084 0.0947,0.488706 0.0521,0.207862 0.11152,0.449533 0.13203,0.537045 0.0205,0.08751 0.0722,0.27163 0.1148,0.409149 0.0426,0.13752 0.0864,0.362552 0.0973,0.500071 0.0109,0.13752 0.0378,0.290951 0.0597,0.340958 0.0533,0.121381 0.16105,0.452524 0.22937,0.704637 0.0305,0.11252 0.0713,0.25572 0.0907,0.31823 0.0194,0.0625 0.0697,0.28754 0.11181,0.50007 0.0421,0.21253 0.0947,0.45802 0.11689,0.54553 0.0222,0.0875 0.0732,0.30232 0.11335,0.47735 0.0752,0.32773 0.14341,0.56851 0.20617,0.72737 0.09,0.22779 0.39712,1.37672 0.50435,1.88663 0.0771,0.36638 0.10036,1.08427 0.0377,1.15982 -0.0538,0.0648 -0.0729,0.44039 -0.0262,0.51592 0.0589,0.0952 0.16295,0.7456 0.16298,1.01833 4e-5,0.33188 -0.11002,0.63897 -0.30516,0.85143 -0.0572,0.0622 -0.10395,0.13727 -0.10395,0.16669 0,0.0294 -0.0252,0.0619 -0.0561,0.0722 -0.10699,0.0357 -0.0615,0.53222 0.0719,0.78446 0.076,0.14369 0.12026,0.29934 0.12038,0.42311 0,0.21756 0.082,0.59886 0.14276,0.66568 0.0216,0.0238 0.0393,0.17951 0.0393,0.34612 0,0.26436 0.0148,0.31775 0.1163,0.41924 0.0651,0.0651 0.19519,0.12963 0.29549,0.14658 0.19077,0.0322 0.53398,-0.008 0.61358,-0.072 0.0264,-0.0212 0.19565,-0.0614 0.37616,-0.0895 0.31851,-0.0494 0.33436,-0.0473 0.53728,0.0716 0.115,0.0674 0.21917,0.1611 0.2315,0.20824 0.0123,0.0472 0.0405,0.0857 0.0626,0.0857 0.0221,0 0.0403,0.0256 0.0404,0.0568 0,0.0313 0.0346,0.1182 0.0766,0.19321 0.0584,0.10439 0.0824,0.3023 0.10221,0.8435 l 0.0259,0.70711 0.16496,0.19271 c 0.14052,0.16417 0.16783,0.23264 0.18445,0.46234 0.0157,0.21662 0.0473,0.3042 0.16084,0.44551 0.2493,0.31021 0.28359,0.45069 0.28197,1.15535 -0.002,0.7283 -0.0371,0.85813 -0.29143,1.06776 -0.12126,0.1 -0.19379,0.21383 -0.25568,0.40145 -0.0475,0.14404 -0.0864,0.28872 -0.0864,0.32149 0,0.0328 -0.0335,0.137 -0.0745,0.23162 -0.10885,0.25136 -0.14375,0.34192 -0.17542,0.45513 -0.0156,0.0557 -0.0998,0.18679 -0.18712,0.29132 -0.27798,0.33272 -0.3358,0.50399 -0.3358,0.99462 0,0.60842 -0.0853,1.41145 -0.16268,1.53206 -0.0356,0.0554 -0.0646,0.1348 -0.0646,0.17648 0,0.0991 0.17556,0.38202 0.23705,0.38202 0.0263,0 0.086,0.044 0.13267,0.0979 0.0738,0.0851 0.0846,0.17547 0.0829,0.69328 -0.001,0.32747 -0.0206,0.67723 -0.0434,0.77725 -0.0228,0.10001 -0.0541,0.24321 -0.0696,0.31822 -0.0155,0.075 -0.045,0.1773 -0.0656,0.22731 -0.0206,0.05 -0.0626,0.16252 -0.0934,0.25003 -0.19574,0.55623 -0.51055,0.9797 -0.8965,1.20592 -0.0813,0.0476 -0.14775,0.10264 -0.14775,0.12225 0,0.0196 -0.0212,0.0357 -0.0471,0.0357 -0.0259,0 -0.27741,0.16123 -0.55886,0.35827 -0.28146,0.19705 -0.61314,0.40433 -0.73708,0.46062 -0.12394,0.0563 -0.31041,0.16071 -0.41437,0.23204 -0.10397,0.0713 -0.36992,0.21198 -0.591,0.31257 -0.22108,0.10059 -0.43748,0.20319 -0.4809,0.228 -0.0434,0.0248 -0.1099,0.0451 -0.14775,0.0451 -0.0378,0 -0.0688,0.0179 -0.0688,0.0398 0,0.0219 -0.0605,0.0519 -0.13447,0.0667 -0.074,0.0148 -0.29389,0.10103 -0.48871,0.19164 -0.19483,0.0906 -0.47697,0.22193 -0.62699,0.29183 -0.15003,0.0699 -0.34437,0.14084 -0.43188,0.15765 -0.19179,0.0368 -0.23184,0.0529 -0.73952,0.29694 -0.21922,0.10537 -0.50562,0.22195 -0.63646,0.25906 -0.24124,0.0684 -0.32347,0.0895 -0.85161,0.21823 -0.75379,0.18371 -1.5865,0.21431 -1.88664,0.0693 -0.23193,-0.11203 -0.28599,-0.11155 -0.57794,0.005 -0.44188,0.17665 -0.79929,0.23119 -1.55872,0.23791 -0.79396,0.007 -1.31123,-0.054 -1.84117,-0.21736 -0.18753,-0.0578 -0.43302,-0.13324 -0.54554,-0.16767 -0.24971,-0.0764 -1.27888,-0.0718 -1.45164,0.007 -0.0642,0.0291 -0.17468,0.0817 -0.24546,0.11692 -0.0708,0.0352 -0.15773,0.064 -0.19321,0.064 -0.0355,0 -0.0645,0.0205 -0.0645,0.0455 0,0.025 -0.031,0.0455 -0.0688,0.0455 -0.0378,0 -0.10433,0.0195 -0.14775,0.0433 -0.29847,0.16356 -0.77786,0.29535 -0.95276,0.26192 -0.1763,-0.0337 -0.40352,0.0727 -0.48123,0.2254 -0.0472,0.0927 -0.0726,0.37629 -0.0912,1.01509 -0.0322,1.11087 -0.13347,1.68533 -0.48536,2.75362 -0.0253,0.0768 -0.0461,0.47571 -0.0462,0.88649 0,0.6783 -0.0105,0.77611 -0.1127,1.06511 -0.0619,0.17503 -0.11292,0.35232 -0.11345,0.394 -5.4e-4,0.0417 -0.0265,0.0844 -0.0578,0.0949 -0.0438,0.0148 -0.0537,0.2564 -0.0431,1.0523 0.0156,1.17184 -0.0135,1.34742 -0.29688,1.79079 -0.30278,0.47376 -0.43833,0.56075 -1.08069,0.69358 -0.15002,0.031 -0.36229,0.10456 -0.4717,0.16343 -0.11863,0.0638 -0.27601,0.10702 -0.38986,0.10702 -0.14058,0 -0.21505,0.027 -0.28241,0.10228 -0.16818,0.18803 -0.19681,0.34775 -0.18538,1.03424 0.0115,0.68828 -0.0139,0.82688 -0.23699,1.29564 -0.39033,0.82014 -0.48205,1.0401 -0.59711,1.43202 -0.0725,0.24699 -0.33392,0.61684 -0.55533,0.78572 -0.0891,0.0679 -0.17498,0.12351 -0.19094,0.12351 -0.0571,0 -0.16332,0.13586 -0.22875,0.29244 -0.0407,0.0973 -0.0665,0.30921 -0.0665,0.54498 0,0.21216 -0.0233,0.44297 -0.0519,0.5129 -0.0285,0.0699 -0.0797,0.19162 -0.11365,0.27041 -0.034,0.0788 -0.0618,0.16206 -0.0618,0.18503 0,0.023 -0.0716,0.12542 -0.15911,0.22766 -0.0875,0.10224 -0.15911,0.20375 -0.15911,0.22559 0,0.0218 -0.0951,0.13622 -0.21145,0.25418 -0.17783,0.18037 -0.23871,0.21447 -0.38293,0.21447 -0.12913,0 -0.20447,0.033 -0.30512,0.13365 -0.15937,0.15937 -0.19149,0.29587 -0.19182,0.81535 -4.6e-4,0.36932 -0.0431,0.63815 -0.13503,0.84671 -0.022,0.05 -0.074,0.20344 -0.1155,0.34095 -0.0977,0.3238 -0.17808,0.50046 -0.28039,0.61621 -0.0454,0.0514 -0.10662,0.1332 -0.13604,0.18184 -0.0294,0.0486 -0.13936,0.23016 -0.24431,0.40338 -0.10496,0.17321 -0.24103,0.36755 -0.3024,0.43188 -0.16027,0.16798 -0.44714,0.59384 -0.60501,0.89812 -0.10981,0.21164 -0.13589,0.31827 -0.13589,0.55544 0,0.39356 -0.0776,0.60037 -0.52232,1.39105 -0.0703,0.12501 -0.19326,0.35005 -0.27322,0.50007 -0.21738,0.40782 -0.26391,0.48857 -0.36715,0.63709 -0.0519,0.0747 -0.12291,0.2072 -0.15783,0.29453 -0.0349,0.0873 -0.13499,0.23793 -0.22239,0.33467 -0.21833,0.24166 -0.27405,0.4337 -0.27485,0.94725 -4.5e-4,0.24231 -0.0188,0.45177 -0.041,0.46547 -0.0222,0.0137 -0.0545,0.10037 -0.0718,0.19261 -0.0173,0.0922 -0.10145,0.25311 -0.18699,0.35751 -0.0855,0.10439 -0.15554,0.20576 -0.15554,0.22525 0,0.0195 -0.037,0.0685 -0.0821,0.10897 -0.0452,0.0404 -0.11387,0.11999 -0.15271,0.17678 -0.0388,0.0568 -0.14042,0.17954 -0.22576,0.27277 -0.1331,0.14541 -0.32066,0.47628 -0.45689,0.80597 -0.0207,0.05 -0.0663,0.25838 -0.10139,0.46305 -0.0668,0.38937 -0.175,0.59524 -0.524,0.99687 -0.18002,0.20718 -0.27559,0.49534 -0.27559,0.83096 0,0.22154 -0.0485,0.37645 -0.25034,0.80046 -0.0595,0.12502 -0.13461,0.3296 -0.16686,0.45462 -0.0322,0.12501 -0.0694,0.23753 -0.0825,0.25003 -0.0131,0.0125 -0.0632,0.13525 -0.11137,0.27277 -0.0481,0.13752 -0.24743,0.50111 -0.44287,0.80798 -0.19545,0.30688 -0.35537,0.58567 -0.35537,0.61953 0,0.0339 -0.0287,0.0854 -0.0638,0.11451 -0.0586,0.0487 -0.12041,0.16506 -0.38573,0.72677 -0.0854,0.1807 -0.13502,0.38734 -0.28509,1.18624 -0.0798,0.42472 -0.13827,0.69503 -0.20318,0.93895 -0.0343,0.12887 -0.0623,0.28645 -0.0623,0.35019 0,0.0637 -0.0179,0.16287 -0.0397,0.2203 -0.0219,0.0574 -0.0747,0.21695 -0.11751,0.35447 -0.0428,0.13752 -0.0944,0.29095 -0.1148,0.34095 -0.0203,0.05 -0.0633,0.16253 -0.0954,0.25004 -0.15063,0.41037 -0.51527,1.07544 -0.87276,1.59184 -0.40121,0.57957 -0.64741,0.91616 -0.7487,1.0236 -0.0312,0.0331 -0.0568,0.0751 -0.0568,0.0933 0,0.0182 -0.0512,0.1001 -0.11366,0.18206 -0.0625,0.082 -0.11365,0.16912 -0.11365,0.19371 0,0.0246 -0.016,0.0515 -0.0356,0.0599 -0.0549,0.0234 -0.37867,0.56527 -0.57947,0.96983 -0.0993,0.20003 -0.19093,0.37392 -0.20366,0.38642 -0.0508,0.0499 -0.25896,0.39582 -0.32902,0.54684 -0.0409,0.0882 -0.23927,0.32817 -0.44075,0.5332 -0.20149,0.20503 -0.36633,0.4039 -0.36633,0.44194 0,0.038 -0.0161,0.0692 -0.0359,0.0692 -0.061,0 -0.26633,0.45718 -0.39818,0.88649 -0.0691,0.22503 -0.14076,0.45006 -0.15922,0.50007 -0.0185,0.05 -0.068,0.19321 -0.1101,0.31823 -0.0421,0.12501 -0.0934,0.26822 -0.11391,0.31822 -0.0206,0.05 -0.0717,0.21367 -0.1136,0.36369 -0.0779,0.27881 -0.0969,0.33143 -0.22374,0.62059 -0.0401,0.0913 -0.0728,0.18446 -0.0728,0.20704 0,0.0226 -0.0591,0.13429 -0.13139,0.24824 -0.0723,0.11395 -0.14631,0.27511 -0.16454,0.35814 -0.0338,0.15369 -0.10796,0.30206 -0.31535,0.6306 -0.0639,0.10115 -0.1161,0.19299 -0.1161,0.2041 0,0.0111 -0.13808,0.23757 -0.30686,0.50326 -0.16877,0.26568 -0.36527,0.57921 -0.43666,0.69672 -0.0714,0.11751 -0.22772,0.33361 -0.34741,0.48023 -0.11969,0.14662 -0.24487,0.32051 -0.27817,0.38642 -0.0925,0.18305 -0.66593,0.99148 -0.79437,1.11992 -0.0625,0.0625 -0.13027,0.11372 -0.15051,0.11372 -0.0597,0 -0.73191,0.66144 -0.73191,0.72023 0,0.0296 -0.0246,0.0932 -0.0546,0.14134 -0.0426,0.0683 -0.0419,0.23051 0.003,0.73813 0.0318,0.35784 0.078,0.74518 0.10264,0.86076 0.0485,0.22802 0.0255,2.28454 -0.0436,3.88135 -0.0386,0.89334 -0.12334,1.62125 -0.23812,2.04575 -0.14332,0.53 -0.2593,1.15485 -0.43033,2.31851 -0.0834,0.56771 -0.11558,0.70967 -0.31393,1.38656 -0.0403,0.13752 -0.0857,0.32675 -0.1008,0.42051 -0.0151,0.0938 -0.0414,0.17048 -0.0582,0.17048 -0.0169,0 -0.0678,0.14832 -0.11303,0.32959 -0.0966,0.3866 -0.12703,0.48094 -0.43685,1.35247 -0.26018,0.73186 -0.31386,0.90574 -0.34934,1.13158 -0.0133,0.0848 -0.0728,0.22573 -0.13216,0.3132 -0.0756,0.11149 -0.10792,0.22281 -0.10792,0.3723 0,0.1173 -0.0434,0.43665 -0.0964,0.70967 -0.053,0.27303 -0.11204,0.63961 -0.13114,0.81464 -0.0442,0.40469 -0.16371,1.1984 -0.22936,1.52294 -0.0278,0.13752 -0.068,0.42392 -0.0893,0.63645 -0.0213,0.21253 -0.0517,0.4478 -0.0676,0.52281 -0.0158,0.075 -0.0596,0.31027 -0.0972,0.5228 -0.0376,0.21253 -0.0857,0.42733 -0.10679,0.47734 -0.0211,0.05 -0.0519,0.14206 -0.0683,0.20457 -0.0164,0.0625 -0.0812,0.308 -0.14381,0.54554 -0.0627,0.23753 -0.12379,0.48302 -0.13586,0.54553 -0.0121,0.0625 -0.0499,0.23639 -0.0841,0.38642 -0.0342,0.15002 -0.0857,0.39551 -0.11451,0.54553 -0.0288,0.15002 -0.0716,0.35459 -0.0952,0.45461 -0.0487,0.20666 -0.12159,0.78711 -0.18277,1.45475 -0.0229,0.25004 -0.0528,1.15017 -0.0664,2.00029 -0.0216,1.34855 -0.0152,1.58046 0.0504,1.81844 0.0413,0.15002 0.0928,0.34436 0.11446,0.43188 0.068,0.2752 0.45105,0.98911 0.60284,1.1236 0.18233,0.16154 0.3349,0.39524 0.54266,0.83122 0.17343,0.36394 0.20135,0.47148 0.25727,0.99097 0.0351,0.32591 0.12786,0.52625 0.27979,0.60423 0.14087,0.0723 0.39975,0.17779 0.43647,0.17784 0.0636,0 0.26248,0.1964 0.32238,0.31817 0.12933,0.26294 0.13937,0.8682 0.0411,2.47646 -0.0107,0.17438 -0.001,0.36515 0.0213,0.42393 0.0409,0.1077 0.14785,0.23642 0.19635,0.23642 0.0391,0 0.6115,0.40311 0.83271,0.58647 0.10626,0.0881 0.1932,0.18481 0.1932,0.21493 0,0.0301 0.0162,0.0616 0.0359,0.0699 0.0197,0.008 0.11279,0.16858 0.20679,0.35611 0.094,0.18752 0.20571,0.38216 0.24824,0.43252 0.0961,0.11382 1.51846,1.06769 1.59205,1.06769 0.0295,0 0.0537,0.0156 0.0537,0.0347 0,0.0191 0.043,0.0549 0.0956,0.0796 0.14668,0.0688 0.25537,0.27815 0.1947,0.37495 -0.0683,0.10896 -0.39304,0.12698 -0.60209,0.0334 -0.34223,-0.1532 -0.39838,-0.18553 -0.6175,-0.35555 -0.12354,-0.0959 -0.32042,-0.22284 -0.43752,-0.28218 -0.1171,-0.0593 -0.30398,-0.19896 -0.41529,-0.31027 -0.23667,-0.23666 -0.42629,-0.30135 -0.8845,-0.3017 l -0.32533,-4.6e-4 -0.16252,-0.22622 c -0.18157,-0.25273 -0.32304,-0.31325 -0.53095,-0.22713 -0.16712,0.0692 -0.27651,0.2633 -0.31961,0.56701 -0.0613,0.43183 -0.27253,1.27134 -0.36305,1.44277 -0.0229,0.0434 -0.0417,0.11558 -0.0417,0.16036 0,0.0448 -0.0638,0.20361 -0.14178,0.35295 -0.17688,0.33872 -0.27252,0.62894 -0.42657,1.29438 -0.20702,0.89432 -0.19791,0.86104 -0.37366,1.36383 -0.0393,0.11252 -0.0875,0.24549 -0.10711,0.2955 -0.0196,0.05 -0.0588,0.17275 -0.0871,0.27276 -0.0754,0.26609 -0.58597,1.33719 -0.68262,1.43203 -0.0127,0.0125 -0.0639,0.10279 -0.11366,0.20064 -0.0498,0.0978 -0.32918,0.426 -0.62092,0.72923 -0.37537,0.39017 -0.56418,0.6251 -0.64586,0.80368 -0.0635,0.13879 -0.14668,0.27829 -0.18488,0.30999 -0.0382,0.0317 -0.11569,0.15024 -0.17222,0.26342 -0.0565,0.11317 -0.16935,0.25656 -0.25073,0.31863 -0.0814,0.0621 -0.14797,0.15406 -0.14797,0.20442 0,0.0504 -0.046,0.13219 -0.10228,0.18186 -0.12452,0.10992 -0.46344,0.26132 -0.585,0.26132 -0.11854,0 -0.31286,0.13091 -0.31286,0.21078 0,0.0532 0.14704,0.0619 0.87166,0.0516 l 0.87165,-0.0123 0.12439,-0.22614 c 0.23826,-0.43311 0.1875,-0.41825 1.54967,-0.45364 0.65831,-0.0171 1.72145,-0.0348 2.36252,-0.0393 1.30762,-0.009 1.30142,-0.0107 1.40441,0.32684 0.0277,0.0907 0.067,0.20589 0.0875,0.2559 0.0855,0.20956 0.14095,0.4868 0.20445,1.02287 0.0836,0.70551 0.0977,5.07078 0.018,5.54625 -0.11679,0.69645 -0.0766,0.67424 -1.31432,0.72654 -0.53723,0.0227 -1.01721,0.0548 -1.06662,0.0714 -0.26949,0.0903 -0.39907,0.18051 -0.5067,0.35263 -0.24536,0.39236 -0.26771,0.39572 -2.90178,0.43696 -1.22517,0.0192 -2.27653,0.0218 -2.33634,0.006 -0.0845,-0.0225 -0.13768,-0.10427 -0.23867,-0.3672 -0.0715,-0.18605 -0.12992,-0.39389 -0.12992,-0.46188 0,-0.068 -0.0183,-0.17061 -0.0407,-0.22804 -0.0224,-0.0574 -0.0666,-0.19137 -0.0982,-0.29764 -0.0316,-0.10626 -0.0761,-0.19321 -0.0989,-0.19321 -0.0844,0 -0.17132,-0.13392 -0.17132,-0.26395 0,-0.14934 -0.0906,-0.25084 -0.18985,-0.21275 -0.0932,0.0358 -0.2193,0.26636 -0.2193,0.40106 0,0.0781 -0.0474,0.14817 -0.14775,0.21862 -0.19871,0.13949 -0.25823,0.22161 -0.25995,0.35866 -0.002,0.16856 -0.204031,0.2712 -0.533537,0.2712 -0.147412,0 -0.287468,0.0194 -0.311231,0.0432 -0.0243,0.0243 -0.550601,0.0492 -1.202443,0.0568 -1.119283,0.0131 -1.164194,0.0172 -1.303041,0.11619 -0.107265,0.0765 -0.152044,0.15139 -0.176261,0.29471 -0.01785,0.10568 -0.06566,0.21744 -0.106233,0.24834 -0.05366,0.0409 -0.389829,0.0577 -1.23303,0.0616 -0.637591,0.003 -1.640007,0.012 -2.22759,0.0201 -0.587584,0.008 -1.119478,-0.003 -1.181987,-0.025 z M 135.29363,116.15213 c 0.19887,-0.17872 0.5235,-0.42182 0.65138,-0.48779 0.0602,-0.031 0.24245,-0.12162 0.40497,-0.20125 1.06716,-0.52287 1.47785,-0.7603 1.58057,-0.91375 0.13868,-0.20716 0.26849,-0.32612 0.61356,-0.56226 0.30055,-0.20568 0.35632,-0.31608 0.16984,-0.3362 -0.42426,-0.0458 -0.54139,-0.11979 -0.84387,-0.53327 -0.0732,-0.10002 -0.14435,-0.19207 -0.1582,-0.20458 -0.12289,-0.11093 -0.54551,-0.87848 -0.60779,-1.10382 -0.0153,-0.0555 -0.17051,-0.25432 -0.34483,-0.44185 -0.17433,-0.18753 -0.31727,-0.36591 -0.31766,-0.3964 -4.5e-4,-0.0305 -0.0416,-0.12829 -0.0916,-0.21732 -0.0729,-0.12985 -0.0909,-0.24615 -0.0909,-0.58771 0,-0.39897 -0.0102,-0.44571 -0.16219,-0.74112 -0.20889,-0.40608 -0.26892,-0.64969 -0.38396,-1.55795 -0.0488,-0.3851 -0.13025,-0.72902 -0.18793,-0.79329 -0.0213,-0.0238 -0.0388,-0.0907 -0.0388,-0.14866 0,-0.11378 -0.16739,-0.40648 -0.29124,-0.50927 -0.0565,-0.0469 -0.0895,-0.0501 -0.12747,-0.0122 -0.0819,0.0819 -0.1708,0.37963 -0.17226,0.57689 -0.001,0.19965 -0.086,0.47545 -0.21803,0.71141 -0.3674,0.65659 -0.339,0.55618 -0.31269,1.10551 0.0238,0.49713 0.0521,0.68042 0.19318,1.2517 0.0401,0.16252 0.0835,0.37733 0.0963,0.47734 0.0128,0.10001 0.0416,0.20128 0.0641,0.22503 0.0224,0.0238 0.0412,0.29993 0.0417,0.61373 5e-4,0.31379 0.023,0.70351 0.05,0.86603 0.20693,1.24672 0.22591,1.4578 0.25045,2.78449 0.0128,0.69385 0.0393,1.26154 0.0588,1.26154 0.0195,0 0.0981,-0.0563 0.17463,-0.12502 z m -8.57934,-45.416193 c 0.0298,-0.09342 0.0814,-0.231219 0.11462,-0.30623 0.0333,-0.07501 0.10434,-0.269357 0.15797,-0.43188 0.0536,-0.162523 0.12497,-0.34664 0.15852,-0.409149 0.0336,-0.06251 0.0952,-0.21594 0.13695,-0.340958 0.0418,-0.125017 0.0928,-0.26822 0.1133,-0.318227 0.0776,-0.188936 0.0665,-0.223859 -0.12791,-0.403039 -0.10971,-0.101128 -0.24105,-0.266615 -0.29186,-0.367757 -0.0508,-0.101137 -0.12386,-0.219686 -0.16233,-0.263442 -0.0948,-0.10787 -0.26852,-0.100919 -0.32959,0.01319 -0.0627,0.117094 -0.009,2.902745 0.0576,2.986734 0.0632,0.07977 0.11045,0.03622 0.17276,-0.159245 z"
       id="path25595" />
  </g>
</svg>
