<?xml version="1.0" encoding="UTF-8" standalone="no"?>
<!-- Created with Inkscape (http://www.inkscape.org/) -->

<svg
   width="210mm"
   height="297mm"
   viewBox="0 0 210 297"
   version="1.1"
   id="svg5"
   inkscape:version="1.1.2 (b8e25be8, 2022-02-05)"
   sodipodi:docname="skater_02.svg"
   xmlns:inkscape="http://www.inkscape.org/namespaces/inkscape"
   xmlns:sodipodi="http://sodipodi.sourceforge.net/DTD/sodipodi-0.dtd"
   xmlns="http://www.w3.org/2000/svg"
   xmlns:svg="http://www.w3.org/2000/svg">
  <sodipodi:namedview
     id="namedview7"
     pagecolor="#ffffff"
     bordercolor="#999999"
     borderopacity="1"
     inkscape:pageshadow="0"
     inkscape:pageopacity="0"
     inkscape:pagecheckerboard="0"
     inkscape:document-units="mm"
     showgrid="false"
     inkscape:zoom="0.45291836"
     inkscape:cx="347.74479"
     inkscape:cy="526.58497"
     inkscape:window-width="1660"
     inkscape:window-height="969"
     inkscape:window-x="0"
     inkscape:window-y="44"
     inkscape:window-maximized="0"
     inkscape:current-layer="layer1" />
  <defs
     id="defs2" />
  <g
     inkscape:label="Layer 1"
     inkscape:groupmode="layer"
     id="layer1">
    <path
       style="fill:#000000;stroke-width:0.041197"
       d="m 94.508626,256.13174 c -0.0564,-0.0381 -0.13613,-0.10722 -0.1772,-0.1535 -0.0411,-0.0463 -0.12601,-0.13941 -0.18872,-0.20695 -0.13588,-0.14631 -0.52156,-0.65092 -0.84472,-1.10517 -0.26645,-0.37456 -0.24777,-0.35735 -0.7992,-0.73605 -0.22805,-0.15662 -0.46709,-0.33082 -0.5312,-0.38711 -0.0641,-0.0563 -0.21337,-0.16861 -0.33168,-0.2496 -0.24361,-0.16674 -0.28766,-0.23821 -0.37757,-0.61246 -0.19309,-0.80381 -0.27098,-0.9617 -0.52584,-1.06591 -0.15411,-0.063 -0.32693,0.002 -0.47833,0.17944 -0.10565,0.12394 -0.10707,0.134 -0.0792,0.55859 0.0255,0.38846 0.0204,0.44266 -0.0508,0.53363 -0.0435,0.0557 -0.13348,0.23936 -0.19985,0.40817 -0.13688,0.34815 -0.42261,0.7998 -0.662977,1.04798 -0.0894,0.0923 -0.31044,0.27652 -0.49116,0.40932 l -0.32859,0.24146 h -0.89458 c -0.7473,0 -0.93287,-0.0121 -1.1271,-0.0736 -0.16629,-0.0526 -0.46738,-0.0846 -1.05731,-0.11235 -1.05264,-0.0494 -1.18231,-0.0703 -1.508957,-0.24316 -0.44981,-0.23798 -1.02688,-0.91331 -1.201,-1.4055 -0.0412,-0.1166 -0.1636,-0.43303 -0.2719,-0.70318 -0.21967,-0.54801 -0.25988,-0.69108 -0.31055,-1.10518 -0.0193,-0.15758 -0.058,-0.36941 -0.0861,-0.47072 -0.0281,-0.1013 -0.05,-0.33155 -0.0488,-0.51165 0.003,-0.4043 0.0375,-0.62952 0.21836,-1.41216 0.0182,-0.0788 0.0526,-0.23536 0.0765,-0.34793 0.0869,-0.40972 0.42299,-1.12183 0.64107,-1.35841 0.13969,-0.15155 0.72488,-0.48608 0.9752,-0.55749 0.0937,-0.0267 0.987917,-0.0524 2.322027,-0.0666 l 2.16969,-0.0232 0.14189,-0.15289 c 0.10436,-0.11246 0.1419,-0.19036 0.1419,-0.29451 0,-0.20296 -0.26603,-0.69934 -0.51697,-0.96462 -0.1172,-0.1239 -0.24526,-0.27606 -0.28458,-0.33813 -0.0393,-0.0621 -0.17678,-0.19444 -0.30548,-0.29415 -0.2312,-0.17914 -0.38553,-0.44101 -0.38563,-0.65432 -10e-6,-0.0434 -0.0176,-0.13553 -0.039,-0.20467 -0.0214,-0.0691 -0.0611,-0.23622 -0.0882,-0.37129 -0.0495,-0.24715 -0.18891,-0.80561 -0.38589,-1.54619 -0.0585,-0.22004 -0.15656,-0.51475 -0.21786,-0.65491 -0.0883,-0.20197 -0.11807,-0.3525 -0.14339,-0.72556 -0.0625,-0.92085 -0.11328,-1.21086 -0.31211,-1.78192 -0.0686,-0.19705 -0.0726,-0.4523 -0.0144,-0.92068 0.0405,-0.32614 0.0663,-0.45265 0.22985,-1.13057 0.0361,-0.14963 0.0805,-0.35685 0.0987,-0.46048 0.0182,-0.10364 0.0628,-0.27132 0.0992,-0.37263 0.0364,-0.10131 0.11512,-0.3443 0.17497,-0.53998 0.0598,-0.19569 0.19606,-0.52724 0.3027,-0.73678 0.10664,-0.20955 0.21857,-0.46389 0.24874,-0.56519 0.0302,-0.10131 0.082,-0.23025 0.11521,-0.28653 0.1596,-0.2706 0.34811,-0.68681 0.37003,-0.81697 0.0134,-0.0797 0.0689,-0.28308 0.12331,-0.45193 0.20413,-0.63354 0.24138,-0.8773 0.29087,-1.90335 0.0244,-0.5063 0.04,-0.59582 0.13362,-0.76847 0.11861,-0.21869 0.20468,-0.25772 0.47485,-0.21533 0.48308,0.0758 0.856467,0.0703 1.090207,-0.016 0.12637,-0.0467 0.32298,-0.0849 0.43691,-0.0849 0.14028,0 0.27696,-0.0344 0.42344,-0.10673 0.44099,-0.21759 0.58758,-0.43954 0.62086,-0.94006 0.0227,-0.3416 0.096,-0.63749 0.26291,-1.06122 0.0532,-0.13508 0.11789,-0.32801 0.14375,-0.42876 0.0259,-0.10073 0.10299,-0.29265 0.17143,-0.42648 0.15374,-0.30067 0.23473,-0.78537 0.32217,-1.92815 0.0224,-0.29267 0.0598,-0.65646 0.0832,-0.80842 0.0837,-0.54446 0.12344,-0.83239 0.14543,-1.054 0.0202,-0.20343 0.0429,-0.33164 0.12668,-0.71632 0.0147,-0.0675 0.0785,-0.29778 0.1417,-0.51165 0.1442,-0.48785 0.20916,-0.82669 0.20916,-1.09099 0,-0.11332 0.0398,-0.31482 0.0884,-0.44779 0.10149,-0.27755 0.13874,-0.8288 0.20167,-2.98424 0.021,-0.72041 0.0585,-1.65059 0.0832,-2.06708 0.0247,-0.41648 0.0604,-1.36509 0.0793,-2.10801 0.0339,-1.33249 0.0507,-1.49923 0.18808,-1.86242 0.0383,-0.10131 0.11695,-0.34997 0.17472,-0.55259 0.0985,-0.34554 0.1071,-0.45215 0.13807,-1.71915 0.0328,-1.34188 0.0338,-1.35251 0.14551,-1.61683 0.0619,-0.14633 0.15175,-0.33973 0.19972,-0.42979 0.15599,-0.29282 0.19391,-0.51861 0.23369,-1.39169 0.0215,-0.47277 0.069,-1.00694 0.10534,-1.18704 0.13382,-0.66222 0.20073,-1.11635 0.23217,-1.57589 0.079,-1.15412 0.170837,-1.98266 0.237337,-2.14043 0.0265,-0.0628 0.12027,-0.21942 0.20839,-0.34792 0.23684,-0.34536 0.28719,-0.45817 0.36014,-0.80683 0.0811,-0.38739 0.0661,-0.91167 -0.0456,-1.59623 -0.0441,-0.27015 -0.0782,-0.66617 -0.0759,-0.88004 0.004,-0.34224 0.0252,-0.4502 0.17882,-0.90051 0.096,-0.28141 0.22935,-0.62051 0.29634,-0.75355 0.067,-0.13305 0.1218,-0.26895 0.1218,-0.30201 0,-0.0664 0.22577,-0.47901 0.32406,-0.59222 0.0343,-0.0395 0.0502,-0.0839 0.0353,-0.0987 -0.0419,-0.0414 -0.18257,0.10234 -0.37526,0.38361 -0.15652,0.22847 -0.5639,0.70957 -0.73044,0.86261 -0.12381,0.11377 -0.576727,0.41564 -0.784737,0.52301 -0.11703,0.0604 -0.2293,0.1403 -0.24948,0.17752 -0.0675,0.12445 -0.56032,0.58409 -0.70724,0.65959 -0.21406,0.10999 -0.69538,0.48208 -1.42919,1.10486 -0.85142,0.72259 -1.37609,1.1145 -2.01228,1.50311 -0.5621,0.34336 -2.184777,1.43142 -2.384777,1.59909 -0.70537,0.59132 -0.73996,0.6049 -1.62068,0.63644 -0.78034,0.0279 -1.00827,0.0631 -1.46058,0.22521 -0.25398,0.091 -0.34243,0.14938 -0.539017,0.35555 -0.12935,0.13566 -0.35326,0.44421 -0.49758,0.68568 -0.29302,0.49027 -0.4213,0.63349 -0.75338,0.84119 -0.2359,0.14755 -0.6323,0.45451 -0.65658,0.50846 -0.008,0.0169 -0.0361,0.0307 -0.0633,0.0307 -0.0272,0 -0.10778,0.0525 -0.17901,0.11677 -0.0712,0.0642 -0.2573,0.18174 -0.4135,0.26114 -0.24844,0.12628 -0.33074,0.14657 -0.65718,0.16198 -0.30803,0.0145 -0.40792,0.0369 -0.57225,0.12808 -0.2446,0.13573 -0.3282,0.212 -0.43434,0.39627 -0.27942,0.48508 -0.49968,0.80854 -0.62929,0.92413 -0.0816,0.0728 -0.325357,0.33178 -0.541627,0.57552 -0.81856,0.92252 -1.44133,1.46733 -2.33304,2.04099 -0.17496,0.11257 -0.4538,0.30093 -0.61964,0.41858 -0.16583,0.11765 -0.43213,0.30391 -0.59176,0.41392 -0.15964,0.11 -0.38354,0.29965 -0.49756,0.42143 -0.11403,0.12178 -0.27597,0.26316 -0.35988,0.31418 -0.0839,0.051 -0.15854,0.10618 -0.16585,0.1226 -0.007,0.0164 -0.10657,0.10321 -0.22056,0.19288 -0.11399,0.0897 -0.22753,0.18145 -0.25229,0.20396 -0.02476,0.0225 -0.146065,0.12301 -0.269564,0.22333 -0.123499,0.10033 -0.356834,0.31215 -0.518521,0.47073 -0.161687,0.15857 -0.404248,0.3914 -0.539025,0.51739 -0.134776,0.12599 -0.375658,0.36206 -0.535292,0.5246 -0.159635,0.16254 -0.372338,0.36338 -0.472675,0.44631 -0.100334,0.0829 -0.510822,0.43376 -0.912196,0.77962 -0.40137,0.34586 -0.841716,0.71336 -0.978545,0.81667 -0.13683,0.10331 -0.370061,0.29553 -0.518293,0.42714 -0.148232,0.13162 -0.358141,0.2874 -0.466464,0.34617 -0.108323,0.0588 -0.196951,0.12036 -0.196951,0.13685 0,0.0165 -0.04364,0.0408 -0.09698,0.054 -0.154489,0.0383 -0.697714,0.40616 -0.858907,0.58166 -0.08104,0.0882 -0.239642,0.2306 -0.352439,0.31635 -0.112797,0.0858 -0.391672,0.33541 -0.619721,0.55478 -0.41633,0.40048 -0.565147,0.51956 -1.140244,0.91236 -0.171037,0.11682 -0.38561,0.27205 -0.47683,0.34495 -0.248706,0.19877 -0.561838,0.41556 -0.731651,0.50656 -0.08314,0.0446 -0.176431,0.10464 -0.207317,0.13352 -0.03089,0.0289 -0.140118,0.0976 -0.24274,0.15263 -0.102622,0.0551 -0.29252,0.1748 -0.421994,0.26606 -0.372325,0.26245 -0.613402,0.42283 -0.925568,0.61575 -0.159634,0.0986 -0.312592,0.1988 -0.339908,0.22256 -0.02732,0.0238 -0.132965,0.0891 -0.234779,0.14521 -0.101813,0.0561 -0.359342,0.22114 -0.572287,0.36672 -0.212945,0.14558 -0.601631,0.40724 -0.863747,0.58145 -0.262115,0.17421 -0.495347,0.33193 -0.518293,0.35047 -0.148237,0.11982 -0.642662,0.4603 -0.743906,0.51229 -0.119126,0.0612 -0.589768,0.40902 -0.743917,0.54981 -0.04279,0.0391 -0.210722,0.16524 -0.373171,0.28033 -0.285563,0.20232 -0.516923,0.35948 -1.352677,0.91882 -0.216647,0.145 -0.494035,0.35218 -0.616419,0.46042 -0.122383,0.10823 -0.383603,0.30221 -0.580488,0.43106 -0.671323,0.43935 -0.883544,0.58436 -1.367109,0.93411 -0.265951,0.19236 -0.632815,0.44015 -0.815254,0.55065 -0.182439,0.1105 -0.480976,0.34043 -0.663415,0.51097 -0.415947,0.3888 -1.086016,0.92276 -1.413585,1.12644 -0.523259,0.32536 -0.674871,0.46392 -0.822654,0.75182 -0.127857,0.24908 -0.133298,0.38832 -0.02443,0.62518 0.119793,0.26062 0.108447,0.39236 -0.04485,0.52083 -0.562753,0.47161 -0.823717,0.79831 -0.824578,1.03228 -5.06e-4,0.13803 -0.414482,0.72462 -0.819767,1.16159 -0.3967,0.4277 -0.493333,0.88157 -0.3031,1.42359 0.11895,0.33891 0.101566,0.47891 -0.09763,0.78632 -0.0815,0.12577 -0.148182,0.23948 -0.148182,0.25268 0,0.0132 -0.133332,0.1648 -0.296292,0.3369 -0.162961,0.17209 -0.341382,0.38 -0.396492,0.46203 -0.13838,0.20597 -0.218196,0.53101 -0.219684,0.89464 -0.0012,0.28219 -0.06932,0.75218 -0.160284,1.10517 -0.123318,0.47852 -0.349454,0.91784 -0.787941,1.53075 -0.344148,0.48105 -0.638213,0.72055 -0.932273,0.7593 l -0.17167,0.0226 -0.005,0.65492 c -0.0036,0.46774 -0.02961,0.78771 -0.09104,1.11958 -0.08015,0.43297 -0.100712,0.48565 -0.301513,0.7724 -0.274729,0.39232 -0.623528,0.71848 -1.095107,1.02403 -0.395663,0.25636 -0.596767,0.45015 -0.671762,0.64732 -0.08677,0.22812 -0.186514,0.65309 -0.20631,0.87898 -0.01784,0.20354 -0.004,0.25498 0.137402,0.51166 l 0.157233,0.28536 -0.0039,0.75725 c -0.0052,0.99882 -0.12989,3.08715 -0.189778,3.17811 -0.03095,0.047 -0.131063,0.4489 -0.197375,0.79232 -0.01956,0.1013 -0.07472,0.33155 -0.122581,0.51165 -0.04786,0.1801 -0.105207,0.41956 -0.127442,0.53212 -0.121125,0.61319 -0.466812,1.46424 -0.652582,1.60659 -0.04919,0.0377 -0.329655,0.0512 -1.064921,0.0512 -1.09156,0 -0.970672,0.0201 -1.743319,-0.28989 -0.182439,-0.0732 -0.415671,-0.14666 -0.518293,-0.16325 -0.102622,-0.0166 -0.289208,-0.0593 -0.414635,-0.095 -0.125427,-0.0357 -0.29714,-0.0651 -0.381586,-0.0653 -0.08445,-4.1e-4 -0.196396,-0.0176 -0.24878,-0.0386 -0.05238,-0.0209 -0.14525,-0.0486 -0.206369,-0.0615 -0.178805,-0.0376 -0.241314,-0.12977 -0.241314,-0.35586 0,-0.37147 -0.247909,-0.76278 -0.60122,-0.949 -0.118111,-0.0623 -0.279242,-0.0956 -0.559756,-0.11571 -0.355463,-0.0255 -0.648886,-0.074 -1.20244,-0.19848 -0.102622,-0.0231 -0.270549,-0.0569 -0.373171,-0.0752 -0.102622,-0.0183 -0.363841,-0.13013 -0.580488,-0.24857 -0.216646,-0.11845 -0.515183,-0.25181 -0.663415,-0.29636 -0.148232,-0.0446 -0.326812,-0.0984 -0.396846,-0.11957 -0.565771,-0.17135 -1.137301,0.26298 -1.137301,0.86429 0,0.19284 -0.01812,0.26113 -0.08742,0.32955 -0.08314,0.0821 -0.116127,0.0852 -0.673781,0.0629 -0.322498,-0.0128 -0.698311,-0.0427 -0.83514,-0.0663 -0.249234,-0.0431 -0.682456,-0.0929 -1.264635,-0.14553 -0.267285,-0.0241 -0.625243,-0.10765 -1.143188,-0.26666 -0.07003,-0.0215 -0.265949,-0.0392 -0.435366,-0.0392 -0.235779,0 -0.340226,-0.0195 -0.445284,-0.0828 -0.252367,-0.1519 -0.256795,-0.18718 -0.255294,-2.03402 0.0014,-1.69519 0.01316,-1.88408 0.162837,-2.61075 0.04637,-0.22513 0.08437,-0.46328 0.08445,-0.52921 8.3e-5,-0.066 0.01753,-0.17646 0.03879,-0.2456 0.02126,-0.0691 0.06251,-0.20859 0.09166,-0.3099 0.02915,-0.1013 0.105054,-0.29891 0.168664,-0.43912 0.06361,-0.14021 0.115653,-0.32041 0.115653,-0.40045 0,-0.2018 -0.163603,-0.49772 -0.394236,-0.71309 l -0.194292,-0.18144 0.02783,-0.26881 c 0.02672,-0.25814 0.181702,-0.91297 0.276753,-1.16934 0.09083,-0.24499 0.347634,-0.77944 0.408339,-0.84983 0.118181,-0.13703 0.376786,-0.58314 0.397164,-0.68513 0.02592,-0.12974 1.088847,-2.2383 1.361839,-2.70153 0.112773,-0.19136 0.273057,-0.43081 0.356187,-0.53212 0.08313,-0.10131 0.18258,-0.23201 0.221,-0.29045 0.09903,-0.15063 0.238609,-0.20125 0.477813,-0.17328 0.231815,0.0271 0.367935,0.0993 0.801522,0.42529 0.49178,0.36971 0.923502,0.61149 1.091876,0.61149 0.178244,0 0.490784,-0.1567 0.621854,-0.31178 0.160498,-0.1899 0.2631,-0.44374 0.265993,-0.65806 0.0013,-0.0945 0.06453,-0.32448 0.140732,-0.51166 0.07613,-0.18699 0.150364,-0.38767 0.164968,-0.44596 0.03638,-0.14518 0.409848,-0.70267 0.621658,-0.92797 0.224379,-0.23866 0.226438,-0.24061 0.502568,-0.47527 0.30449,-0.25876 0.455179,-0.54097 0.421217,-0.78884 -0.01344,-0.0981 -0.0358,-0.26319 -0.04969,-0.3669 -0.02854,-0.21304 0.03855,-0.62037 0.137479,-0.83475 0.03636,-0.0788 0.135242,-0.24457 0.219734,-0.36839 0.236719,-0.34691 0.300251,-0.49104 0.333797,-0.75725 0.09937,-0.78861 0.225234,-0.97491 1.097842,-1.62509 0.518597,-0.3864 0.789398,-0.77363 0.931924,-1.33258 0.02941,-0.11534 0.122435,-0.26058 0.275066,-0.42944 0.258189,-0.28565 0.362786,-0.46657 0.406257,-0.70271 0.0396,-0.2151 0.251817,-0.73775 0.391962,-0.96532 0.06239,-0.1013 0.124501,-0.21182 0.138029,-0.24559 0.01353,-0.0338 0.11565,-0.17192 0.22694,-0.30699 0.29137,-0.35365 0.468482,-0.68108 0.532958,-0.98529 0.06651,-0.31381 0.154164,-0.44651 0.454414,-0.68796 0.194556,-0.15645 0.255835,-0.18241 0.484335,-0.2051 0.245812,-0.0244 0.787286,0.014 1.25672,0.089 0.114024,0.0182 0.317247,0.0929 0.451605,0.16601 0.228642,0.12435 0.652567,0.23854 1.045514,0.28163 0.300627,0.033 0.655547,-0.19616 0.849131,-0.54816 0.04817,-0.0876 0.189635,-0.18145 0.528768,-0.35087 0.533171,-0.26634 1.023813,-0.61493 1.179887,-0.83829 0.05945,-0.0851 0.158937,-0.26519 0.221092,-0.40027 0.06215,-0.13507 0.169806,-0.33769 0.239225,-0.45025 0.21302,-0.34542 0.811246,-1.17297 1.041591,-1.44089 0.47817,-0.55615 0.808518,-1.05749 1.516237,-2.30106 0.221956,-0.39001 0.307154,-0.4994 0.514759,-0.66094 0.268358,-0.20881 0.768569,-0.76347 0.911833,-1.01109 0.04863,-0.0841 0.144346,-0.21294 0.212711,-0.28643 0.108711,-0.11686 0.265464,-0.39255 0.459316,-0.80782 0.09483,-0.20314 0.598415,-0.69692 0.827782,-0.81166 0.116592,-0.0583 0.280926,-0.18507 0.365186,-0.28165 0.278786,-0.31955 0.787136,-1.12187 1.101929,-1.73917 0.08265,-0.16207 0.169658,-0.31864 0.193353,-0.34793 0.0237,-0.0293 0.114129,-0.19139 0.200964,-0.36024 0.08684,-0.16884 0.233002,-0.41751 0.324815,-0.55258 0.09181,-0.13508 0.266604,-0.43659 0.388425,-0.67003 0.12182,-0.23344 0.310476,-0.55578 0.419234,-0.71632 0.108759,-0.16053 0.307572,-0.47607 0.441807,-0.7012 0.134235,-0.22513 0.256843,-0.41853 0.272462,-0.42979 0.01562,-0.0112 0.09459,-0.13098 0.175486,-0.26606 0.0809,-0.13507 0.339503,-0.53583 0.574675,-0.89057 0.235173,-0.35473 0.51155,-0.7776 0.614172,-0.93969 0.302718,-0.47816 0.910744,-1.38448 1.085295,-1.61773 0.171177,-0.22875 0.424954,-0.70664 0.612739,-1.15386 0.424868,-1.01184 0.680758,-1.50233 1.131371,-2.16858 0.11276,-0.16672 0.274499,-0.44301 0.359421,-0.61398 0.209617,-0.42202 0.314221,-0.58022 0.855119,-1.29323 0.407687,-0.53742 0.792412,-0.95167 1.140431,-1.22797 0.886426,-0.70374 1.443558,-1.22584 1.583991,-1.48437 0.05792,-0.10662 0.14739,-0.30948 0.198829,-0.4508 0.07349,-0.2019 0.136411,-0.2924 0.29369,-0.42239 0.27948,-0.231 0.689972,-0.73305 0.920994,-1.12643 0.107303,-0.18271 0.234011,-0.37612 0.281566,-0.42979 0.04756,-0.0537 0.157984,-0.23753 0.245393,-0.40859 0.179267,-0.35081 0.461969,-0.67656 0.815868,-0.9401 0.131961,-0.0983 0.407859,-0.33611 0.613103,-0.52852 0.205244,-0.19241 0.503781,-0.42877 0.663415,-0.52525 0.159634,-0.0965 0.458171,-0.27811 0.663415,-0.40365 0.205244,-0.12554 0.569085,-0.3284 0.808537,-0.45081 0.239451,-0.12241 0.479578,-0.26289 0.533618,-0.31217 0.140328,-0.12797 0.29565,-0.38032 0.29565,-0.48034 0,-0.0469 0.01858,-0.11963 0.04129,-0.16152 0.06125,-0.11299 0.378038,-0.31088 0.695001,-0.43417 0.431734,-0.16792 0.582342,-0.28846 0.965659,-0.77287 0.262173,-0.33131 0.441598,-0.49833 0.665206,-0.61922 0.249125,-0.13468 0.435146,-0.28298 0.964154,-0.76861 0.476191,-0.43715 0.497776,-0.4645 0.712806,-0.90311 0.12196,-0.24877 0.243394,-0.54441 0.269852,-0.65697 0.08721,-0.37103 0.136568,-0.53029 0.210588,-0.67935 0.0849,-0.17095 0.44767,-0.51038 0.72462,-0.67796 0.30709,-0.18582 0.5366,-0.40796 0.61612,-0.59633 0.17,-0.40266 0.40874,-0.91843 0.46795,-1.0109 0.035,-0.0546 0.13826,-0.2388 0.22954,-0.40932 0.0913,-0.17053 0.2284,-0.40673 0.30471,-0.5249 0.40435,-0.62614 0.59593,-1.14267 0.59593,-1.6067 0,-0.38683 0.0742,-0.56249 0.41006,-0.97073 0.15558,-0.18911 0.26356,-0.3889 0.42033,-0.77772 0.41707,-1.0344 0.48778,-1.14941 1.05792,-1.72089 0.295327,-0.29602 0.549437,-0.58924 0.596737,-0.68859 0.0453,-0.0952 0.18299,-0.32675 0.30594,-0.51462 0.12295,-0.18788 0.28628,-0.46132 0.36297,-0.60765 0.1679,-0.32041 0.58812,-0.7473 0.91471,-0.92926 0.55086,-0.30691 0.97086,-0.77156 1.1598,-1.28313 0.0744,-0.20135 0.12118,-0.26192 0.28099,-0.36358 0.72983,-0.46429 1.64785,-1.49402 2.072767,-2.325 0.14532,-0.28418 0.55488,-0.91213 0.76175,-1.16792 0.0744,-0.092 0.20992,-0.27298 0.30114,-0.40216 0.0912,-0.12919 0.28869,-0.40683 0.43882,-0.61699 0.2993,-0.41896 0.3705,-0.53652 0.49176,-0.81189 0.0446,-0.10131 0.11815,-0.24866 0.16341,-0.32746 0.1182,-0.20576 0.50236,-1.01498 0.50236,-1.05821 0,-0.0201 0.0961,-0.18157 0.21364,-0.35893 0.30977,-0.46756 0.36488,-0.60675 0.36593,-0.92429 7.9e-4,-0.24004 0.0217,-0.31322 0.16677,-0.58523 0.0912,-0.17098 0.16585,-0.33316 0.16585,-0.3604 0,-0.0272 0.0992,-0.16186 0.22055,-0.29917 0.12131,-0.13731 0.24477,-0.31216 0.27437,-0.38856 0.0296,-0.0764 0.16087,-0.37836 0.29171,-0.67102 0.13085,-0.29267 0.3269,-0.83604 0.43566,-1.2075 0.10876,-0.37146 0.26184,-0.85958 0.34017,-1.08471 0.0783,-0.22513 0.196007,-0.58431 0.261497,-0.79818 0.19996,-0.65298 0.5426,-1.45824 0.72279,-1.69869 0.15664,-0.20902 0.58168,-0.92753 0.7178,-1.21344 0.21077,-0.44264 0.228,-0.54005 0.20935,-1.1831 -0.0144,-0.4975 -0.0342,-0.64213 -0.12444,-0.90996 -0.22761,-0.67558 -0.70744,-1.27328 -1.19873,-1.49319 -0.25341,-0.11343 -0.27606,-0.13539 -0.42146,-0.40854 -0.0852,-0.1601 -0.154467,-0.3498 -0.155477,-0.42594 -0.003,-0.18603 -0.085,-0.40116 -0.22202,-0.57846 -0.11845,-0.1533 -0.24246,-0.61992 -0.31789,-1.19611 -0.0206,-0.15759 -0.0552,-0.351 -0.0768,-0.42979 -0.0216,-0.0788 -0.0515,-0.18931 -0.0664,-0.24559 -0.0149,-0.0563 -0.0828,-0.28653 -0.15092,-0.51166 -0.0681,-0.22512 -0.14485,-0.483 -0.1706,-0.57305 -0.0257,-0.0901 -0.13835,-0.36634 -0.25022,-0.61398 -0.11186,-0.24764 -0.26337,-0.58841 -0.33669,-0.75725 -0.0733,-0.16885 -0.21872,-0.44541 -0.32312,-0.61459 -0.1044,-0.16919 -0.26504,-0.46833 -0.35696,-0.66476 -0.18451,-0.39424 -0.35942,-0.66229 -0.59416,-0.91053 -0.11211,-0.11855 -0.23956,-0.36136 -0.46195,-0.88004 -0.34677,-0.80881 -0.35087,-0.82059 -0.51971,-1.49403 -0.0677,-0.27015 -0.18254,-0.65696 -0.25515,-0.85958 -0.0726,-0.20261 -0.16578,-0.51574 -0.20706,-0.69585 -0.0413,-0.1801 -0.10497,-0.43427 -0.14154,-0.56481 -0.0366,-0.13055 -0.0665,-0.28581 -0.0665,-0.34502 0,-0.0592 -0.018,-0.16423 -0.04,-0.23336 -0.022,-0.0691 -0.0788,-0.30069 -0.12615,-0.51456 -0.078,-0.35212 -0.0849,-0.49713 -0.073,-1.53496 0.013,-1.13969 0.0551,-1.61791 0.22692,-2.57874 0.0362,-0.20261 0.08,-0.50654 0.0973,-0.67538 0.0648,-0.63236 0.12522,-1.13263 0.16311,-1.35077 0.0215,-0.12382 0.0573,-0.33564 0.0795,-0.47072 0.0222,-0.13507 0.0644,-0.36532 0.0938,-0.51165 0.0752,-0.37434 0.0687,-0.68938 -0.0175,-0.85563 -0.13175,-0.25406 -0.0969,-0.39873 0.40256,-1.67329 0.0819,-0.20898 0.1753,-0.48 0.20756,-0.60226 0.0323,-0.12225 0.0873,-0.28282 0.12225,-0.3568 0.035,-0.074 0.0905,-0.23583 0.12349,-0.35966 0.0582,-0.21876 0.45814,-1.10165 0.66753,-1.47356 0.27141,-0.48205 0.63885,-1.23015 0.70367,-1.43263 0.0396,-0.12382 0.14603,-0.36822 0.23644,-0.54312 0.0904,-0.17489 0.20144,-0.42944 0.24675,-0.56567 0.1706,-0.51305 0.60704,-1.29844 0.77816,-1.40035 0.25212,-0.15015 0.56743,-0.47439 0.780827,-0.80294 0.12552,-0.19325 0.26182,-0.3882 0.3029,-0.43322 0.0411,-0.045 0.1464,-0.21986 0.23405,-0.38852 0.19636,-0.37783 0.20084,-0.51856 0.0391,-1.22788 -0.1046,-0.45882 -0.11159,-0.53436 -0.0682,-0.73679 0.0767,-0.35776 0.20683,-0.64907 0.30356,-0.67938 0.0472,-0.0148 0.17129,-0.10518 0.27565,-0.20084 0.10436,-0.0957 0.2349,-0.18774 0.29008,-0.20462 0.0552,-0.0169 0.23245,-0.0912 0.3939,-0.16508 0.16147,-0.0739 0.38233,-0.16361 0.49082,-0.19931 0.19263,-0.0634 0.51765,-0.24887 0.58064,-0.33136 0.0174,-0.0227 0.0267,-0.11499 0.0207,-0.20504 -0.0101,-0.15274 -0.0214,-0.16632 -0.16896,-0.20229 -0.12068,-0.0294 -0.22383,-0.0207 -0.43537,0.0369 -0.15247,0.0415 -0.33319,0.0824 -0.40161,0.0909 -0.34228,0.0424 -0.72123,0.13526 -0.91291,0.22377 -0.0999,0.0461 -1.437307,0.0186 -2.030987,-0.0418 -0.3968,-0.0404 -0.577,-0.0697 -1.03659,-0.16878 -0.11402,-0.0246 -0.29128,-0.0605 -0.3939,-0.0799 -0.10262,-0.0193 -0.36384,-0.0989 -0.58049,-0.17682 -0.21665,-0.0779 -0.51518,-0.17922 -0.66341,-0.22511 -0.58618,-0.18149 -0.85136,-0.29678 -0.95366,-0.41459 -0.057,-0.0657 -0.14469,-0.13123 -0.19483,-0.14571 -0.0502,-0.0145 -0.10271,-0.0622 -0.11682,-0.10611 -0.0141,-0.0439 -0.0456,-0.0798 -0.07,-0.0798 -0.0305,0 -0.0353,0.13276 -0.0155,0.42448 0.0332,0.48989 0.002,0.55809 -0.25886,0.55763 -0.201837,-4.1e-4 -0.334997,-0.0932 -0.589767,-0.41119 -0.1163,-0.14516 -0.40327,-0.45733 -0.63771,-0.69372 -0.37883,-0.38198 -0.73496,-0.78336 -0.82671,-0.93177 -0.0304,-0.0491 -0.12792,-0.37447 -0.26048,-0.86876 -0.0693,-0.2583 -0.15094,-0.35705 -0.47722,-0.57698 -0.27719,-0.18685 -0.70479,-0.64534 -0.97243,-1.04269 -0.10528,-0.15629 -0.22699,-0.32257 -0.27047,-0.36949 -0.0715,-0.0771 -0.23709,-0.36833 -0.46364,-0.81519 -0.0457,-0.09 -0.14377,-0.26503 -0.21803,-0.38885 -0.0743,-0.12382 -0.2209,-0.47789 -0.32586,-0.78683 l -0.19084,-0.56168 0.008,-1.22166 c 0.004,-0.67192 -0.007,-1.2456 -0.0255,-1.27486 -0.0183,-0.0293 -0.0495,-0.11549 -0.0693,-0.19163 -0.0458,-0.17608 -0.0944,-0.34648 -0.179537,-0.62962 -0.0373,-0.12388 -0.0855,-0.51047 -0.10718,-0.85958 -0.0217,-0.34895 -0.0511,-0.7507 -0.0654,-0.89278 -0.0261,-0.25974 0.0719,-1.15171 0.15825,-1.44036 0.0236,-0.0788 0.10554,-0.26665 0.182167,-0.41745 0.0766,-0.15079 0.17591,-0.37694 0.22063,-0.50255 0.19012,-0.53399 0.76138,-1.32486 1.29037,-1.786424 0.13883,-0.121127 0.34744,-0.309628 0.46359,-0.418893 0.11616,-0.109261 0.39029,-0.328367 0.6092,-0.486902 0.2189,-0.158535 0.54728,-0.431774 0.72972,-0.607206 0.18243,-0.175427 0.59292,-0.526954 0.91219,-0.781168 0.62923,-0.501019 0.65667,-0.527838 0.85134,-0.832255 0.550027,-0.860106 0.708267,-1.084706 0.764207,-1.084706 0.18098,0 0.54451,-0.567698 0.93814,-1.465003 0.0636,-0.144966 0.16593,-0.276387 0.3095,-0.397477 0.21567,-0.181891 0.25588,-0.258037 0.43225,-0.818584 0.0783,-0.248811 0.33286,-0.667082 0.61204,-1.00562 0.35688,-0.432753 0.92693,-0.968286 1.11191,-1.044584 0.30668,-0.126501 0.74783,-0.603624 1.511097,-1.634327 0.49423,-0.667389 0.77899,-1.03149 1.18399,-1.513869 0.20792,-0.24764 0.4407,-0.542352 0.51729,-0.654916 0.0766,-0.112564 0.28023,-0.371911 0.45253,-0.576331 0.1723,-0.204415 0.43455,-0.54119 0.58278,-0.748385 0.14823,-0.207195 0.37299,-0.509644 0.49946,-0.672104 0.12647,-0.162464 0.29274,-0.387485 0.36949,-0.500049 0.0767,-0.112564 0.21792,-0.296759 0.31371,-0.409323 0.0958,-0.112564 0.24746,-0.315179 0.33704,-0.450255 0.38645,-0.582724 1.028887,-1.431431 1.322027,-1.746482 0.25455,-0.273567 0.29607,-0.393143 0.20345,-0.585831 -0.0988,-0.20548 -0.2359,-0.2759 -0.5534,-0.284177 -0.206937,-0.0054 -0.344117,-0.03851 -0.563727,-0.136087 -0.15964,-0.07093 -0.37775,-0.159612 -0.48469,-0.197069 -0.15293,-0.05357 -0.20942,-0.0999 -0.26459,-0.21699 -0.0386,-0.08188 -0.12982,-0.222557 -0.20276,-0.312608 -0.0729,-0.09005 -0.20718,-0.274246 -0.29831,-0.409323 -0.0911,-0.135076 -0.22281,-0.328481 -0.29263,-0.429789 -0.0698,-0.101307 -0.15544,-0.267083 -0.1903,-0.36839 -0.0349,-0.101308 -0.0928,-0.239454 -0.12882,-0.306992 -0.036,-0.06754 -0.0656,-0.151347 -0.0657,-0.186242 0,-0.0349 -0.0175,-0.08094 -0.0385,-0.102331 -0.0211,-0.02139 -0.0961,-0.212831 -0.16669,-0.42543 -0.15449,-0.465039 -0.20973,-0.534432 -0.4254,-0.534432 -0.12041,0 -0.18669,-0.02693 -0.26096,-0.106043 -0.0547,-0.05832 -0.11916,-0.09408 -0.14314,-0.07945 -0.10058,0.06137 -0.0454,0.498646 0.12483,0.98937 0.29037,0.837033 0.44775,1.211817 0.59067,1.406642 0.23473,0.320005 0.48481,0.767718 0.48481,0.867961 0,0.149522 -0.13399,0.277967 -0.28998,0.277967 -0.0947,0 -0.20234,-0.06804 -0.45382,-0.286804 -0.18134,-0.157741 -0.34015,-0.303493 -0.35292,-0.323897 -0.0128,-0.0204 -0.10062,-0.05 -0.19521,-0.06578 -0.22798,-0.03802 -0.33043,-0.154487 -0.58088,-0.660361 -0.25497,-0.514998 -0.32454,-0.746506 -0.37322,-1.241894 -0.021,-0.213871 -0.0553,-0.480954 -0.0763,-0.593518 -0.0209,-0.112563 -0.0486,-0.632935 -0.0615,-1.156377 -0.0458,-1.862714 0.0766,-2.218186 1.12378,-3.264309 0.34491,-0.344547 0.59619,-0.74306 0.59724,-0.947173 0.001,-0.261889 0.16778,-0.610959 0.45208,-0.9482 0.22953,-0.272282 0.82409,-0.660979 1.36452,-0.892062 0.51238,-0.219094 0.6791,-0.459948 0.52371,-0.756588 -0.0352,-0.06716 -0.1,-0.236626 -0.14402,-0.376589 -0.044,-0.139964 -0.12721,-0.322575 -0.18482,-0.405803 -0.15593,-0.225254 -0.13872,-0.38354 0.0754,-0.693262 0.26499,-0.383363 0.28976,-0.439637 0.32129,-0.729851 0.0158,-0.145527 0.0498,-0.271524 0.0755,-0.279989 0.0645,-0.02124 0.16941,-0.230604 0.16941,-0.338236 0,-0.04879 -0.0724,-0.160225 -0.16097,-0.247624 -0.14327,-0.141429 -0.18337,-0.158915 -0.36449,-0.158915 -0.20609,0 -0.84194,0.181723 -1.1249,0.321494 -0.0843,0.04165 -0.26415,0.142915 -0.39964,0.225038 -0.31841,0.192999 -0.44437,0.192238 -0.70932,-0.0043 -0.11391,-0.08449 -0.33215,-0.206082 -0.48499,-0.270207 -0.2488,-0.104385 -0.28061,-0.13088 -0.30383,-0.253043 -0.029,-0.152624 0.0315,-0.36586 0.13912,-0.490037 0.11703,-0.135077 0.49121,-0.388492 0.57433,-0.388968 0.13511,-7.74e-4 0.48298,-0.120121 0.56581,-0.194116 0.0439,-0.03922 0.10736,-0.123896 0.14103,-0.188172 0.0794,-0.151616 0.0197,-0.304611 -0.18884,-0.483343 -0.20268,-0.173752 -0.25108,-0.267152 -0.25119,-0.484691 0,-0.229418 0.15741,-0.471129 0.39284,-0.602766 0.13175,-0.07366 0.22945,-0.09187 0.49595,-0.09241 0.43717,-8.88e-4 0.78994,0.1237 1.141,0.402962 0.33122,0.263481 0.57046,0.374078 0.809207,0.374078 0.10401,0 0.24515,0.02861 0.31366,0.06359 0.0685,0.03497 0.22151,0.07339 0.34001,0.08537 0.20719,0.02095 0.5692,0.146057 1.5371,0.531193 0.261,0.103855 0.51818,0.179423 0.61064,0.179423 0.0879,0 0.27676,0.04429 0.41982,0.09842 0.29214,0.11055 1.20731,0.553929 1.43688,0.696139 0.2061,0.127671 0.46394,0.267867 1.103467,0.599996 0.3907,0.202901 0.58997,0.283669 0.69988,0.283669 0.26771,0 0.58792,0.21629 0.88907,0.600529 0.0736,0.09391 0.21823,0.211084 0.3214,0.260387 l 0.18759,0.08965 0.19505,-0.09807 c 0.1712,-0.08608 0.21532,-0.137946 0.3609,-0.424292 0.2275,-0.447467 0.31097,-0.54697 0.74359,-0.886355 0.52182,-0.409358 0.63236,-0.541785 0.91415,-1.095169 0.0854,-0.16769 0.23245,-0.381395 0.32681,-0.4749 0.0944,-0.09351 0.22752,-0.231273 0.29594,-0.30615 0.0684,-0.07488 0.29231,-0.2704 0.49756,-0.434496 0.20524,-0.164096 0.4594,-0.372559 0.56479,-0.463249 0.29082,-0.250262 0.65351,-0.451787 0.81308,-0.451787 0.19841,0 0.43041,-0.130317 0.62949,-0.353583 0.24149,-0.270839 0.32173,-0.3172 0.60483,-0.349483 0.35014,-0.03993 0.60804,-0.09301 0.70488,-0.145082 0.0762,-0.04095 0.37119,-0.339186 0.78781,-0.796372 0.23627,-0.259276 0.57362,-0.508163 0.8003,-0.590436 0.30857,-0.111993 0.45809,-0.245339 0.59698,-0.532382 0.18046,-0.372947 0.52647,-0.633807 0.94972,-0.716011 0.32058,-0.06226 0.49487,-0.205015 0.63995,-0.52417 0.13072,-0.287529 0.26052,-0.372777 0.56457,-0.370777 0.24224,0.0016 0.62824,0.08135 0.77887,0.160931 0.16231,0.08575 0.32986,0.252824 0.44057,0.439308 0.0855,0.144119 0.10402,0.223709 0.0958,0.412649 -0.006,0.128749 0.003,0.272511 0.0189,0.319472 0.016,0.04696 0.15073,0.191448 0.29938,0.321083 0.4728,0.412327 0.632,0.845913 0.44587,1.214303 -0.17748,0.351247 -0.9491,1.15044 -1.36329,1.411999 -0.12784,0.08073 -0.29007,0.230672 -0.36281,0.335329 -0.0724,0.104114 -0.20597,0.270627 -0.29692,0.370028 -0.21205,0.231778 -0.80772,0.703027 -0.88863,0.703027 -0.0341,0 -0.13216,0.06761 -0.21789,0.150245 -0.15257,0.14708 -0.15534,0.155147 -0.13122,0.382966 0.0238,0.224435 0.0193,0.238573 -0.12576,0.397069 -0.0827,0.09039 -0.15041,0.183899 -0.15041,0.207794 0,0.02389 -0.0349,0.05437 -0.0775,0.06771 -0.10669,0.03343 -0.22666,0.171551 -0.19414,0.22351 0.026,0.04154 0.34853,-0.113146 0.61849,-0.296632 0.0654,-0.04443 0.20172,-0.09606 0.30302,-0.114741 0.19032,-0.0351 0.34174,-0.09276 0.69765,-0.265663 0.21292,-0.103433 1.15379,-0.285393 1.7622,-0.340799 0.17104,-0.01558 0.40427,-0.06279 0.51829,-0.104928 0.16336,-0.06036 0.32602,-0.07712 0.76708,-0.07901 0.66326,-0.0028 0.73283,0.02476 1.01913,0.404375 0.20663,0.273971 0.21536,0.326455 0.10423,0.626589 -0.12439,0.335962 -0.24077,0.489346 -0.51551,0.67944 -0.28466,0.19695 -0.40543,0.255344 -0.85622,0.414022 -0.64876,0.228353 -1.54193,0.723179 -2.00518,1.110885 -0.0878,0.07348 -0.26039,0.182268 -0.38353,0.241746 -0.28569,0.137983 -0.29608,0.224821 -0.0269,0.225169 0.10832,0 0.25039,0.02776 0.31572,0.0614 0.18313,0.09428 0.34434,0.07439 0.55462,-0.06843 0.22503,-0.152841 0.40369,-0.198481 0.8849,-0.226061 l 0.35585,-0.02039 0.18318,-0.389553 c 0.14992,-0.318846 0.23048,-0.433313 0.44383,-0.630635 0.14337,-0.132592 0.27716,-0.241079 0.29732,-0.241079 0.0202,0 0.0489,-0.05526 0.064,-0.122797 0.015,-0.06754 0.0461,-0.122797 0.0691,-0.122797 0.023,0 0.16189,-0.113878 0.30872,-0.253064 0.22835,-0.216466 0.29829,-0.258663 0.4836,-0.29179 0.42096,-0.07525 1.12183,-0.03829 1.37763,0.07264 0.86723,0.376098 0.91373,0.389213 1.48351,0.418467 0.44699,0.02295 0.66874,-0.04836 0.88489,-0.284549 0.12883,-0.14077 0.14606,-0.182857 0.12566,-0.306919 -0.013,-0.07908 -0.0702,-0.210313 -0.12716,-0.291633 -0.22433,-0.320366 -0.3724,-0.815718 -0.33876,-1.133342 0.0141,-0.133365 0.0419,-0.399049 0.0618,-0.590407 0.0198,-0.191359 0.0659,-0.495281 0.10236,-0.675383 0.0866,-0.427816 0.15681,-1.579504 0.15016,-2.463195 -0.004,-0.528087 0.0104,-0.752246 0.0579,-0.900511 0.0347,-0.108571 0.0846,-0.472057 0.11069,-0.807747 0.0457,-0.587197 0.0552,-0.629011 0.2505,-1.102518 0.11163,-0.270695 0.2398,-0.557835 0.28482,-0.638089 0.45397,-0.809378 0.62319,-1.408615 0.62319,-2.206859 0,-0.296106 0.0178,-0.412238 0.0823,-0.537112 0.0453,-0.08763 0.10152,-0.17103 0.12498,-0.185341 0.0735,-0.04486 0.19607,-0.31962 0.2282,-0.511654 0.0326,-0.195007 0.28435,-0.707561 0.55985,-1.139981 0.0911,-0.142965 0.16561,-0.266972 0.16561,-0.275571 0,-0.0086 0.0767,-0.139386 0.1705,-0.290637 0.175,-0.28226 0.20303,-0.318802 0.7004,-0.913477 0.16004,-0.191358 0.37416,-0.469978 0.47581,-0.619155 0.20132,-0.295443 0.84439,-0.920011 1.13928,-1.106495 0.10162,-0.06427 0.28821,-0.21005 0.41464,-0.323964 0.12642,-0.113914 0.38092,-0.316309 0.56555,-0.449766 0.18462,-0.133458 0.48316,-0.368599 0.66341,-0.522537 0.45693,-0.390227 0.61277,-0.477905 1.14617,-0.644861 0.25681,-0.08038 0.64092,-0.218425 0.85358,-0.306764 0.21266,-0.08834 0.41066,-0.160618 0.44,-0.160618 0.0293,0 0.17855,-0.05605 0.33159,-0.12455 0.60851,-0.272375 0.8187,-0.332292 1.2881,-0.367184 0.30124,-0.02239 0.54056,-0.06533 0.70487,-0.126464 l 0.24879,-0.09256 3.18517,-0.0125 c 3.14069,-0.01232 3.18874,-0.0113 3.44146,0.07322 0.36599,0.122408 0.65801,0.138663 1.02337,0.05696 0.49149,-0.109901 0.73207,-0.136561 1.26571,-0.140257 l 0.49863,-0.0035 0.30807,0.18926 c 0.16943,0.104093 0.36487,0.206981 0.43429,0.22864 0.30205,0.09423 0.36215,0.13338 0.46136,0.300489 0.16288,0.274371 0.4234,0.485393 0.72226,0.585026 0.35014,0.116729 0.41179,0.112989 0.90634,-0.05498 0.8028,-0.272666 1.25575,-0.184652 2.17086,0.421828 0.52574,0.348422 0.58139,0.401164 1.22613,1.161926 0.61839,0.729663 0.66175,0.768765 1.05544,0.951634 0.17657,0.08202 0.43779,0.245675 0.58049,0.363683 0.3219,0.266205 0.77906,0.601084 1.21122,0.887231 0.40349,0.267162 0.9599,0.725583 1.1026,0.908419 0.18929,0.242514 0.32067,0.500058 0.43514,0.85295 0.10651,0.328352 0.29787,0.714705 0.50195,1.01342 0.0506,0.0741 0.124,0.230664 0.16306,0.347924 0.17386,0.521918 0.41013,0.92305 0.88938,1.509954 0.24626,0.301585 0.37096,0.558304 0.59286,1.220583 0.14447,0.431179 0.23524,0.778984 0.25105,0.961908 0.0277,0.320439 0.13571,0.676526 0.41601,1.371232 0.10446,0.258896 0.18996,0.486799 0.19,0.506449 0,0.01965 0.10554,0.240685 0.23444,0.491188 l 0.23435,0.455459 -0.0424,1.248434 c -0.0397,1.167972 -0.0492,1.268221 -0.14751,1.555427 -0.20797,0.607424 -0.22098,0.745111 -0.1298,1.374157 0.016,0.110282 0.001,0.221049 -0.0442,0.327458 -0.0376,0.08844 -0.0937,0.303576 -0.12469,0.478074 -0.031,0.174502 -0.0941,0.377117 -0.1403,0.450255 -0.17579,0.278466 -0.55776,0.594283 -0.97703,0.807823 -0.22638,0.115298 -0.4664,0.262531 -0.53339,0.327184 -0.067,0.06465 -0.1803,0.139194 -0.25182,0.165649 -0.0715,0.02645 -0.16734,0.06331 -0.21295,0.0819 -0.0456,0.0186 -0.17622,0.0448 -0.29025,0.05824 -0.86786,0.102265 -1.13442,0.141359 -1.23623,0.181326 -0.0642,0.0252 -0.18927,0.04582 -0.27793,0.04582 -0.30094,0 -0.64895,0.208346 -1.0773,0.644946 -0.17104,0.17433 -0.34623,0.336103 -0.38932,0.3595 -0.0739,0.04014 -0.0743,0.04648 -0.007,0.112563 0.039,0.03851 0.13205,0.07003 0.20675,0.07003 0.24894,0 0.35554,0.174855 0.25385,0.416392 -0.039,0.09263 -0.10687,0.11344 -0.4684,0.143607 -0.36765,0.03068 -0.48748,0.110259 -0.64957,0.431373 -0.13677,0.270943 -0.13775,0.465928 -0.003,0.64592 0.17626,0.235843 0.10833,0.468171 -0.15641,0.534956 -0.0619,0.01562 -0.0884,0.04935 -0.0804,0.102331 0.007,0.04347 0.0293,0.198754 0.0505,0.345087 0.0598,0.41207 0.10699,0.604337 0.26658,1.08523 0.0813,0.244934 0.1478,0.490876 0.1478,0.54654 0,0.09191 0.0997,0.519471 0.27321,1.172092 0.12928,0.486156 0.15172,0.620025 0.16993,1.013634 0.0154,0.333905 0.004,0.43685 -0.0672,0.625757 -0.0471,0.124352 -0.0857,0.281769 -0.0857,0.349811 0,0.173729 -0.32034,0.496762 -0.74206,0.748291 -0.32186,0.191968 -0.34325,0.198575 -0.55308,0.170802 -0.35302,-0.04672 -0.49975,-0.046 -0.51658,0.0025 -0.009,0.02506 0.0367,0.06703 0.10086,0.09326 0.0642,0.02623 0.18148,0.102466 0.26071,0.169403 0.0792,0.06693 0.22111,0.15756 0.3153,0.201395 0.16499,0.07679 0.37863,0.205529 0.59543,0.358808 0.0568,0.04016 0.28424,0.176672 0.50543,0.30337 0.42284,0.242208 0.52707,0.321183 1.20861,0.915745 0.23225,0.202615 0.50611,0.431532 0.60858,0.508702 0.39846,0.300095 1.98116,1.853471 2.3406,2.297234 0.13584,0.167704 0.35974,0.424828 0.49756,0.57139 0.13782,0.146558 0.37187,0.413425 0.5201,0.593031 0.14823,0.179611 0.37214,0.430383 0.49756,0.557273 0.34241,0.346402 0.59215,0.643766 1.07562,1.280759 0.86551,1.140328 0.72266,0.895438 1.88852,3.237645 0.29136,0.585331 0.58325,1.168125 0.64865,1.295097 0.0654,0.126972 0.11892,0.270182 0.11892,0.318249 0,0.04806 0.0382,0.19284 0.085,0.321727 0.0467,0.128884 0.12005,0.390904 0.16293,0.582262 0.0429,0.191358 0.1,0.412393 0.1269,0.491187 0.0269,0.07879 0.0635,0.226151 0.0813,0.327459 0.0178,0.101307 0.0733,0.313132 0.12325,0.470721 0.13241,0.417448 0.16206,0.530777 0.25164,0.961908 0.0444,0.213872 0.10765,0.517794 0.14046,0.675383 0.0328,0.157589 0.0709,0.424672 0.0846,0.593518 0.0233,0.286575 0.0398,0.392602 0.15292,0.982375 0.0812,0.423207 0.1678,0.755041 0.25081,0.960836 0.12755,0.31621 0.28167,0.809305 0.28167,0.901181 0,0.123248 0.18592,0.836145 0.26697,1.023709 0.0389,0.09005 0.11626,0.296534 0.17187,0.45885 0.0556,0.162317 0.1942,0.483026 0.30797,0.712682 0.11376,0.22967 0.20684,0.44456 0.20684,0.47755 0,0.17856 0.84762,1.49041 1.19059,1.8427 0.0286,0.0294 0.13918,0.16755 0.24565,0.30699 0.2602,0.34074 0.54161,0.62966 0.7294,0.74887 0.12476,0.0792 0.20958,0.0982 0.43859,0.0982 0.20941,0 0.3538,0.0279 0.55021,0.1061 0.38626,0.15391 0.61795,0.33381 1.64215,1.27511 0.255,0.23436 0.62206,0.54903 0.81568,0.69926 0.56238,0.43635 1.02038,0.82833 1.06586,0.91223 0.0231,0.0427 0.1509,0.13183 0.2839,0.19811 0.13301,0.0663 0.37954,0.2291 0.54784,0.36182 0.35388,0.27907 1.13223,1.0717 1.37494,1.40018 0.0915,0.12382 0.3004,0.3549 0.46425,0.51353 0.3462,0.33517 0.46506,0.558 0.5994,1.12376 0.0978,0.41166 0.27506,0.99164 0.43799,1.43263 0.0984,0.26629 0.36659,1.08116 0.4446,1.35076 0.0228,0.0788 0.0579,0.29062 0.078,0.47072 0.0612,0.54856 0.13414,0.98675 0.24539,1.47356 0.11774,0.5153 0.13421,0.75881 0.16052,2.37408 0.019,1.1648 0.0436,1.75465 0.0765,1.82922 0.0267,0.0605 0.0955,0.34603 0.15305,0.63445 0.0575,0.28841 0.12445,0.58885 0.14878,0.66765 0.0509,0.16489 0.11379,0.43083 0.16455,0.69585 0.0194,0.1013 0.0569,0.25787 0.0833,0.34792 0.0264,0.0901 0.0628,0.23741 0.0808,0.32746 0.018,0.0901 0.089,0.31108 0.15771,0.49119 0.0687,0.1801 0.2404,0.66821 0.38146,1.0847 0.14107,0.41649 0.2714,0.79409 0.28961,0.83911 0.0182,0.045 0.0644,0.20159 0.10268,0.34793 0.0383,0.14633 0.0968,0.36366 0.13004,0.48295 0.0333,0.11929 0.0605,0.26285 0.0605,0.31901 0,0.0562 0.0634,0.2717 0.14083,0.47896 0.0774,0.20726 0.16561,0.45051 0.1959,0.54056 0.0303,0.0901 0.11921,0.28346 0.19759,0.42979 0.0784,0.14634 0.21258,0.45947 0.29821,0.69585 0.0856,0.23639 0.1899,0.52174 0.23171,0.63412 0.0865,0.23267 0.27785,0.43573 0.92601,0.98292 0.7996,0.67504 0.91318,0.8214 1.16598,1.50252 0.1177,0.31715 0.16924,0.4816 0.31154,0.99414 0.0975,0.35119 0.36202,0.84281 0.68977,1.28195 0.17334,0.23223 0.32718,0.4763 0.34187,0.54236 0.0161,0.0722 -0.001,0.20394 -0.044,0.33036 -0.16654,0.49498 0.0399,1.08364 0.62061,1.77004 0.36544,0.43192 0.87202,0.72764 1.49236,0.87119 0.29236,0.0677 0.60512,0.22787 0.68923,0.35307 0.0443,0.066 0.0669,0.27236 0.0838,0.76574 0.0196,0.57286 0.0377,0.71266 0.11917,0.92098 0.0528,0.13507 0.11086,0.33769 0.12897,0.45025 0.0181,0.11257 0.0567,0.34281 0.0857,0.51165 0.0477,0.27781 0.0533,0.45213 0.0317,0.99261 -0.004,0.0957 0.014,0.24764 0.0396,0.33769 0.0269,0.0944 0.047,0.49517 0.0476,0.94659 9.5e-4,0.75362 -0.003,0.79177 -0.106,1.02168 -0.0848,0.18937 -0.10262,0.28154 -0.0859,0.44511 0.0234,0.22926 0.0803,0.53083 0.14699,0.77934 0.0251,0.0937 0.0444,0.59788 0.0449,1.17907 l 9.9e-4,1.01534 -0.14512,0.26996 c -0.10535,0.19599 -0.14512,0.3217 -0.14512,0.45877 0,0.14827 -0.0314,0.23487 -0.14635,0.40335 -0.1302,0.19085 -0.28671,0.36269 -1.02167,1.12168 -0.1065,0.10998 -0.325,0.36982 -0.48556,0.57743 -0.39369,0.50904 -1.0628,1.18418 -1.28367,1.29523 -0.099,0.0498 -0.2669,0.1515 -0.37317,0.22608 -0.10628,0.0746 -0.23989,0.14896 -0.2969,0.16528 -0.057,0.0163 -0.18161,0.0738 -0.2769,0.12775 -0.0953,0.0539 -0.23753,0.0981 -0.31612,0.0981 -0.21747,0 -0.44778,0.0959 -0.73915,0.30774 -0.50607,0.36796 -0.74882,0.42718 -1.07114,0.26133 -0.29352,-0.15103 -0.46223,-0.40666 -0.51727,-0.78376 -0.0159,-0.1086 -0.0704,-0.24396 -0.12367,-0.307 -0.0524,-0.062 -0.16325,-0.23527 -0.24627,-0.385 -0.14129,-0.25483 -0.15094,-0.29528 -0.15094,-0.63246 0,-0.33014 0.0106,-0.37748 0.12753,-0.56687 0.10478,-0.16977 0.18887,-0.2408 0.47125,-0.398 0.18904,-0.10525 0.52814,-0.25014 0.75356,-0.32199 0.70588,-0.22498 0.75975,-0.24773 0.96407,-0.40717 0.2207,-0.17222 0.47031,-0.48605 0.56554,-0.71105 0.0352,-0.0832 0.0619,-0.27175 0.0619,-0.4369 0,-0.15979 0.0168,-0.32155 0.0374,-0.35947 0.0205,-0.0379 0.0507,-0.1565 0.0669,-0.26352 0.0286,-0.18856 0.0243,-0.19974 -0.14031,-0.36225 -0.16904,-0.16687 -0.17103,-0.16756 -0.409,-0.14143 -0.21036,0.0231 -0.30707,0.005 -0.80368,-0.15286 l -0.56454,-0.17911 -0.1818,0.0728 c -0.25633,0.10266 -0.79886,0.10287 -1.04101,4.1e-4 -0.26768,-0.11327 -0.64966,-0.44534 -0.91968,-0.79953 -0.1559,-0.20448 -0.29604,-0.34107 -0.40763,-0.39726 -0.0935,-0.0471 -0.22732,-0.13849 -0.29733,-0.20308 -0.07,-0.0646 -0.26964,-0.19307 -0.44361,-0.28551 -0.17398,-0.0924 -0.40094,-0.23565 -0.50436,-0.31826 -0.10342,-0.0826 -0.25506,-0.20151 -0.33696,-0.26426 -0.1613,-0.12356 -0.36199,-0.41152 -0.56905,-0.81653 -0.0918,-0.17963 -0.25353,-0.37696 -0.53993,-0.65893 -0.37335,-0.36758 -0.40883,-0.41593 -0.40883,-0.55713 0,-0.085 -0.0466,-0.29971 -0.10366,-0.47704 -0.10986,-0.34174 -0.1425,-0.89261 -0.0648,-1.09428 0.0274,-0.0712 0.0188,-0.16515 -0.0294,-0.31989 -0.0444,-0.1427 -0.0693,-0.37605 -0.0715,-0.66933 -0.004,-0.53629 -0.0806,-0.80205 -0.28906,-1.00151 -0.12518,-0.11979 -0.17684,-0.13892 -0.43927,-0.16266 -0.34682,-0.0314 -0.41212,-0.088 -0.41212,-0.35713 0,-0.10796 -0.0478,-0.27838 -0.12439,-0.44345 -0.0684,-0.14746 -0.12439,-0.27711 -0.12439,-0.28811 0,-0.0222 -0.99031,-1.33594 -1.20212,-1.59478 -0.32314,-0.39488 -0.51663,-1.06034 -0.35477,-1.22012 0.0385,-0.038 0.12002,-0.0795 0.18113,-0.0922 0.31663,-0.0656 0.5155,-0.24268 0.62113,-0.55305 0.10334,-0.3036 0.0291,-0.47862 -0.28626,-0.67517 -0.0917,-0.0571 -0.19793,-0.17377 -0.2492,-0.27359 -0.0491,-0.0957 -0.13816,-0.23258 -0.1978,-0.30422 -0.0597,-0.0716 -0.22973,-0.32602 -0.37796,-0.5653 -0.14823,-0.23928 -0.38592,-0.60432 -0.52819,-0.8112 -0.14227,-0.20688 -0.33401,-0.4999 -0.42608,-0.65116 -0.14645,-0.24061 -0.32445,-0.46667 -0.98845,-1.2553 -0.0832,-0.0988 -0.18725,-0.2369 -0.23133,-0.30699 -0.0441,-0.0701 -0.15788,-0.21954 -0.25289,-0.3321 -0.095,-0.11256 -0.28132,-0.37503 -0.41401,-0.58326 -0.28993,-0.45499 -1.08438,-1.24963 -1.41436,-1.4147 -0.11511,-0.0576 -0.29508,-0.16935 -0.39993,-0.24836 -0.10485,-0.079 -0.33645,-0.20323 -0.51465,-0.27605 -0.17821,-0.0728 -0.41006,-0.1904 -0.51524,-0.26129 -0.10517,-0.0709 -0.30109,-0.17275 -0.43537,-0.22635 -0.13427,-0.0536 -0.27539,-0.12592 -0.31358,-0.16072 -0.0962,-0.0877 -0.61814,-0.39341 -0.73304,-0.42941 -0.0519,-0.0163 -0.32614,-0.18913 -0.60939,-0.38413 -0.28324,-0.19501 -0.64579,-0.43429 -0.80566,-0.53175 -0.15987,-0.0975 -0.63127,-0.44469 -1.04755,-0.77161 -0.41628,-0.32693 -0.84083,-0.63707 -0.94346,-0.68921 -0.25683,-0.13049 -0.63361,-0.47319 -0.81208,-0.73863 -0.14162,-0.21062 -0.2613,-0.57172 -0.26449,-0.79801 -8.3e-4,-0.0576 -0.0686,-0.21417 -0.15061,-0.34792 -0.082,-0.13376 -0.18598,-0.33529 -0.23102,-0.44785 -0.045,-0.11257 -0.13748,-0.29065 -0.20544,-0.39574 -0.068,-0.10509 -0.17677,-0.35375 -0.24178,-0.55258 -0.065,-0.19883 -0.19157,-0.53665 -0.28123,-0.7507 -0.0897,-0.21405 -0.20424,-0.55481 -0.25462,-0.75725 -0.0504,-0.20243 -0.10945,-0.43466 -0.13126,-0.51607 -0.0218,-0.0814 -0.0405,-0.33007 -0.0415,-0.55259 -0.003,-0.58302 -0.0427,-0.74474 -0.2218,-0.89443 -0.35441,-0.2962 -1.03303,-0.99113 -1.10627,-1.13285 -0.0902,-0.17454 -0.10294,-0.39056 -0.0321,-0.54405 0.0263,-0.0569 0.18648,-0.21591 0.356,-0.35326 0.18833,-0.15259 0.33175,-0.30534 0.36874,-0.39273 0.0547,-0.1292 0.0533,-0.15752 -0.0139,-0.29335 -0.0564,-0.11384 -0.13192,-0.17739 -0.31111,-0.2617 -0.27154,-0.12776 -0.33533,-0.20981 -0.40667,-0.5231 -0.0817,-0.35888 -0.19996,-0.73054 -0.35196,-1.10628 -0.0777,-0.19197 -0.16971,-0.4571 -0.20456,-0.58919 -0.063,-0.23887 -0.30469,-0.81076 -0.60674,-1.43585 -0.087,-0.1801 -0.28667,-0.48402 -0.44364,-0.67538 -0.33742,-0.41134 -0.90308,-1.21019 -1.06545,-1.50469 -0.15031,-0.27265 -0.3077,-0.41729 -0.48212,-0.44309 -0.18418,-0.0272 -0.39552,0.1008 -0.47453,0.28748 -0.0654,0.15463 -0.17451,1.03164 -0.3032,2.43801 -0.0216,0.23639 -0.067,0.5311 -0.10075,0.65492 -0.0338,0.12382 -0.0847,0.3909 -0.11307,0.59352 -0.0537,0.38308 -0.0736,0.47904 -0.21218,1.0233 -0.0459,0.18011 -0.10026,0.4564 -0.12089,0.61399 -0.0925,0.70677 -0.11517,0.80638 -0.37254,1.63729 -0.0488,0.15759 -0.10678,0.3602 -0.12882,0.45025 -0.0579,0.23643 -0.19098,0.66366 -0.28057,0.90051 -0.0426,0.11257 -0.10094,0.28755 -0.12971,0.38886 -0.11527,0.40601 -0.17198,0.54682 -0.41338,1.02639 -0.1383,0.27474 -0.362,0.64437 -0.49712,0.82139 -0.13512,0.17702 -0.34889,0.49219 -0.47506,0.70037 -0.23695,0.39101 -0.46094,0.6814 -1.05053,1.36196 -0.18883,0.21796 -0.36847,0.45571 -0.39921,0.52835 -0.0308,0.0726 -0.36138,0.44493 -0.73474,0.82733 -0.73136,0.74906 -1.34062,1.39613 -1.59677,1.69585 -0.0881,0.10303 -0.23475,0.24471 -0.32597,0.31484 -0.0912,0.0701 -0.32032,0.27814 -0.50913,0.46226 -0.27826,0.27137 -0.37485,0.40008 -0.50999,0.67961 -0.16457,0.34039 -0.40942,0.94355 -0.51236,1.26214 -0.0483,0.14936 -0.0733,0.23374 -0.20016,0.67538 -0.0226,0.0788 -0.0574,0.18557 -0.0773,0.23729 -0.0199,0.0517 -0.0362,0.15088 -0.0362,0.22037 0,0.0695 -0.0176,0.19297 -0.0391,0.27437 -0.0215,0.0814 -0.10704,0.40589 -0.19013,0.72106 -0.0831,0.31518 -0.20548,0.74804 -0.27198,0.96191 -0.28833,0.92728 -0.36263,1.17959 -0.40983,1.3917 -0.0275,0.12382 -0.24676,0.62115 -0.48713,1.10517 -0.24037,0.48403 -0.49232,1.00898 -0.55989,1.16657 -0.0676,0.15759 -0.30517,0.65492 -0.52799,1.10517 -0.22282,0.45026 -0.44266,0.92917 -0.48854,1.06424 -0.14011,0.41249 -0.17664,0.53547 -0.17719,0.59643 -9.5e-4,0.10545 -0.49407,1.03225 -0.75485,1.41869 -0.10985,0.16278 -0.2186,0.34499 -0.24168,0.40491 -0.0755,0.19597 -0.57005,1.15759 -0.65827,1.2799 -0.0474,0.0657 -0.0865,0.13499 -0.0868,0.15403 -4.1e-4,0.019 -0.085,0.17276 -0.18807,0.3416 -0.10306,0.16885 -0.34433,0.62013 -0.53615,1.00284 -0.24114,0.48112 -0.4116,0.76533 -0.55235,0.92098 -0.29564,0.32695 -0.87821,1.2348 -0.87978,1.371 -4.9e-4,0.0451 -0.063,0.19261 -0.13894,0.32769 -0.0759,0.13508 -0.24468,0.43619 -0.37507,0.66913 -0.13039,0.23295 -0.26592,0.51845 -0.30119,0.63445 -0.0353,0.116 -0.0923,0.28459 -0.12679,0.37464 -0.0345,0.09 -0.17048,0.46765 -0.30225,0.83911 -0.4227,1.19156 -0.3909,1.1162 -0.98466,2.33314 -0.14829,0.30393 -0.32042,0.62627 -0.38251,0.71632 -0.24949,0.36186 -0.29014,0.48781 -0.33194,1.02832 -0.036,0.46617 -0.052,0.53561 -0.16488,0.71669 -0.0687,0.11027 -0.12497,0.21662 -0.12497,0.23632 0,0.0197 -0.083,0.14717 -0.18454,0.28327 -0.20548,0.27555 -0.36426,0.56705 -0.45913,0.84289 -0.0347,0.10079 -0.13471,0.33619 -0.22232,0.5231 -0.0876,0.18691 -0.1923,0.43944 -0.23264,0.56116 -0.0403,0.12173 -0.17514,0.43487 -0.29957,0.69585 -0.12442,0.26099 -0.2535,0.55742 -0.28684,0.65872 -0.0333,0.10131 -0.0765,0.22104 -0.096,0.26606 -0.0901,0.20814 -0.29679,0.76234 -0.37408,1.00284 -0.047,0.14634 -0.0996,0.28804 -0.11678,0.31491 -0.0298,0.0465 -0.62978,0.30159 -1.43905,0.61178 -0.6403,0.24542 -0.69572,0.25914 -1.0491,0.25975 -0.31257,5.3e-4 -0.36985,-0.0125 -0.62308,-0.14186 -0.37106,-0.18957 -0.49186,-0.20879 -0.66052,-0.10509 -0.22359,0.13745 -0.3054,0.31009 -0.27505,0.58041 0.0142,0.12678 0.008,0.26159 -0.0132,0.29956 -0.0215,0.038 -0.18553,0.16449 -0.36444,0.28113 -0.25047,0.1633 -0.37372,0.27954 -0.53578,0.50531 -0.34694,0.48333 -0.6131,0.8324 -0.83516,1.09536 -0.11552,0.13679 -0.32455,0.42404 -0.46451,0.63833 -0.15337,0.23481 -0.34787,0.46922 -0.48953,0.58995 -0.26886,0.22914 -0.38858,0.4517 -0.38989,0.72482 -10e-4,0.21604 -0.0605,0.30445 -0.31873,0.47427 -0.19457,0.12793 -0.73607,0.7754 -0.8258,0.98741 -0.0993,0.23457 -0.0588,0.54141 0.13046,0.98855 0.0524,0.12383 0.13611,0.39091 0.18602,0.59352 0.0499,0.20262 0.17853,0.5618 0.28583,0.79818 0.21001,0.46269 0.27368,0.65321 0.31463,0.94144 0.0144,0.10131 0.0421,0.2763 0.0615,0.38886 0.0194,0.11257 0.047,0.29676 0.0612,0.40932 0.0431,0.34139 0.055,0.37094 0.25262,0.63047 0.31008,0.40722 0.77798,0.60912 1.28969,0.55651 0.27441,-0.0282 0.50916,0.0422 0.75094,0.22532 0.10288,0.0779 0.6937,0.4729 0.80874,0.54069 0.0272,0.016 0.19364,0.0929 0.36981,0.17082 0.38881,0.17196 1.63763,1.08802 1.80828,1.32643 0.13315,0.18603 0.42141,0.73145 0.42141,0.79735 0,0.0341 0.12095,0.29884 0.26877,0.58828 0.14782,0.28945 0.31519,0.68582 0.37194,0.88083 0.0567,0.19502 0.16607,0.48217 0.24294,0.63811 0.0769,0.15594 0.15054,0.31873 0.1637,0.36174 0.098,0.32022 0.45932,1.28023 0.51147,1.3588 0.11904,0.17935 0.18361,0.53372 0.17762,0.97483 l -0.006,0.42699 0.1609,0.23008 c 0.0885,0.12655 0.26724,0.39794 0.39721,0.60308 l 0.23629,0.373 0.002,0.35616 c 0.002,0.36485 0.0594,0.6491 0.21156,1.05056 0.30917,0.81573 0.45298,2.75367 0.27682,3.73028 -0.0386,0.21387 -0.0705,0.46218 -0.0709,0.5518 -4.1e-4,0.0896 -0.0362,0.25539 -0.0795,0.36839 -0.0433,0.11299 -0.11995,0.33439 -0.17027,0.49197 -0.0503,0.15759 -0.12683,0.36461 -0.17,0.46005 -0.0432,0.0954 -0.0785,0.19963 -0.0785,0.23154 0,0.0319 -0.0568,0.1831 -0.12632,0.33597 -0.14106,0.31037 -0.1912,0.42153 -0.34511,0.76518 -0.0584,0.13052 -0.16288,0.30511 -0.23206,0.38795 -0.0692,0.0828 -0.12578,0.17407 -0.12578,0.20271 0,0.0286 -0.0155,0.0521 -0.0345,0.0521 -0.0189,0 -0.0609,0.0506 -0.0933,0.11256 -0.0324,0.0619 -0.17786,0.29528 -0.32334,0.51861 -0.14547,0.22332 -0.37815,0.62855 -0.51706,0.90051 -0.1389,0.27196 -0.27176,0.51476 -0.29525,0.53957 -0.0836,0.0884 -0.36698,0.4992 -0.93575,1.35682 -0.31727,0.4784 -0.59131,0.86984 -0.60897,0.86986 -0.062,0 -0.24596,0.1861 -0.38462,0.38881 -0.077,0.11257 -0.18936,0.26913 -0.2497,0.34793 -0.26408,0.34483 -0.90658,1.25969 -0.96655,1.37628 -0.0648,0.12591 -0.677,0.94048 -0.82685,1.10012 -0.0423,0.045 -0.1538,0.18317 -0.24785,0.30699 -0.48012,0.63209 -0.76502,0.81949 -1.24238,0.8172 -0.18322,-8.6e-4 -0.34275,-0.0245 -0.40564,-0.06 -0.057,-0.0322 -0.17455,-0.0591 -0.26121,-0.0599 -0.27373,-0.003 -0.38848,0.0853 -0.79611,0.60925 -0.23471,0.30169 -0.62982,0.54049 -1.32683,0.80194 -0.22908,0.0859 -0.34368,0.16204 -0.54382,0.36119 -0.56737,0.56456 -1.3037,1.53934 -1.6747,2.21707 -0.0986,0.1801 -0.22284,0.39616 -0.2761,0.48014 -0.0533,0.084 -0.0968,0.16095 -0.0968,0.17106 0,0.0101 -0.0736,0.12781 -0.1636,0.26155 -0.18989,0.28221 -0.37112,0.37661 -0.723,0.37661 -0.1837,0 -0.24823,-0.021 -0.37804,-0.12279 -0.18903,-0.1483 -0.3761,-0.16013 -0.53845,-0.0341 -0.15894,0.12341 -0.22862,0.31368 -0.22862,0.62423 0,0.20049 -0.0357,0.36338 -0.1462,0.66646 -0.0804,0.22062 -0.18057,0.44774 -0.22257,0.50471 -0.10073,0.13665 -0.25318,0.43341 -0.25318,0.49287 0,0.0991 -0.3014,0.83504 -0.55971,1.36666 -0.14826,0.30512 -0.26956,0.56147 -0.26956,0.56967 0,0.008 -0.11046,0.19376 -0.24547,0.41235 -0.13501,0.2186 -0.3057,0.54792 -0.37931,0.73184 -0.19366,0.4838 -0.39866,0.86925 -0.62719,1.17926 -0.2054,0.27863 -0.53096,0.91423 -0.53096,1.03662 0,0.0376 -0.0864,0.32962 -0.19209,0.64888 -0.17103,0.51684 -0.31671,0.84106 -0.55511,1.2354 -0.0408,0.0675 -0.16244,0.34383 -0.27024,0.61398 -0.10781,0.27015 -0.29183,0.68459 -0.40895,0.92098 -0.11711,0.23638 -0.23816,0.51267 -0.26899,0.61398 -0.0666,0.2188 -0.22216,0.52833 -0.3837,0.76336 -0.24217,0.35238 -0.69807,1.2295 -0.69889,1.34465 -5.9e-4,0.0783 -0.0224,0.12795 -0.20495,0.46493 -0.16122,0.29768 -0.82137,1.6662 -0.85182,1.76588 -0.0172,0.0563 -0.15964,0.34358 -0.31655,0.63843 -0.15691,0.29485 -0.28546,0.56193 -0.28567,0.59352 -4.9e-4,0.0798 -0.59073,1.23439 -0.70294,1.37511 -0.52036,0.65253 -0.58642,0.79459 -0.8909,1.91596 -0.055,0.20262 -0.13971,0.50654 -0.18821,0.67538 -0.0485,0.16885 -0.10341,0.3651 -0.12201,0.43612 -0.0186,0.071 -0.095,0.23679 -0.1698,0.36839 -0.27944,0.49172 -0.33065,0.60422 -0.33103,0.72716 -4.1e-4,0.0693 -0.0906,0.33044 -0.20096,0.5802 -0.11032,0.24976 -0.27069,0.67341 -0.35637,0.94144 -0.23935,0.74876 -0.26521,0.82512 -0.43533,1.28552 -0.0873,0.23638 -0.20698,0.57714 -0.26586,0.75724 -0.0589,0.1801 -0.16308,0.48667 -0.23156,0.68125 -0.0685,0.19458 -0.14441,0.4893 -0.16876,0.65492 -0.0243,0.16562 -0.0703,0.3748 -0.10219,0.46485 -0.0718,0.203 -0.14817,0.48056 -0.19141,0.69585 -0.0181,0.0901 -0.0532,0.24662 -0.0779,0.34793 -0.0755,0.30881 -0.13064,0.88376 -0.15978,1.66639 l -0.0278,0.74541 -0.16978,0.17556 c -0.39179,0.40514 -0.51437,0.73491 -0.51437,1.38378 0,0.53964 0.0562,0.64465 0.45954,0.85887 0.79477,0.42208 1.11574,0.77464 1.20678,1.32554 0.0228,0.13769 0.0596,0.35166 0.0819,0.47548 0.0402,0.22329 0.0472,0.29992 0.11388,1.24843 0.0429,0.61066 0.12412,0.80206 0.48624,1.1461 0.14217,0.13508 0.39497,0.41428 0.56178,0.62044 0.81816,1.01119 0.98451,1.16792 1.36061,1.28195 0.44997,0.13642 0.69728,0.34972 0.93292,0.80461 0.1953,0.37701 0.36048,0.59046 0.51807,0.66948 0.17439,0.0874 0.62507,0.2051 0.78559,0.2051 0.13788,0 0.37643,0.15166 0.60366,0.38375 0.79948,0.81661 0.98625,1.05603 1.87622,2.40508 0.20288,0.30753 0.25947,0.42736 0.26063,0.55185 8.3e-4,0.0875 0.0307,0.26955 0.0663,0.40462 0.0635,0.24056 0.10478,0.45613 0.16335,0.85279 0.0515,0.34838 -0.15596,1.04092 -0.34923,1.16609 -0.11156,0.0722 -0.36483,0.0987 -1.45751,0.15207 -0.48511,0.0237 -0.63051,0.0452 -0.75289,0.11144 -0.19079,0.10322 -0.30661,0.33505 -0.26433,0.52908 0.0163,0.0746 0.0423,0.35669 0.0578,0.62684 0.0155,0.27016 0.0505,0.53011 0.0776,0.57768 0.0897,0.15712 0.3376,0.33872 0.49738,0.36431 0.086,0.0138 0.231,0.0589 0.32222,0.1002 0.0912,0.0413 0.27162,0.12368 0.40088,0.18301 0.29637,0.13604 0.90468,0.65782 1.09202,0.93668 0.26712,0.39761 0.42871,0.85813 0.47662,1.3583 0.0173,0.1801 0.0536,0.40114 0.0808,0.49119 0.18878,0.62469 0.1896,0.98105 0.005,2.06708 -0.0913,0.53624 -0.22808,1.00501 -0.45988,1.57589 -0.064,0.15759 -0.14636,0.37125 -0.18304,0.47479 -0.11922,0.33654 -0.62473,0.80966 -0.92828,0.8688 -0.14189,0.0276 -0.21892,0.0578 -0.7534,0.29463 -0.17103,0.0758 -0.39494,0.15184 -0.49756,0.16899 -0.28009,0.0468 -2.70259,0.0366 -3.13049,-0.0131 -0.36447,-0.0424 -0.71536,-0.1485 -0.91225,-0.27586 -0.0539,-0.0349 -0.23231,-0.22213 -0.39646,-0.41613 -0.32678,-0.38623 -0.55667,-0.84603 -0.82733,-1.65468 -0.11744,-0.35089 -0.17482,-0.4605 -0.31253,-0.59708 -0.26106,-0.25894 -0.56383,-0.27629 -0.74115,-0.0425 -0.16411,0.21641 -0.16671,0.2881 -0.0207,0.5718 0.10706,0.20806 0.12779,0.28745 0.10556,0.40441 -0.0315,0.16571 -0.0931,0.19404 -0.42374,0.19491 -0.30545,8.2e-4 -0.45791,0.11568 -0.64424,0.4854 -0.083,0.16469 -0.197,0.34861 -0.25334,0.40872 -0.0563,0.0601 -0.18255,0.22901 -0.28049,0.37534 -0.0979,0.14634 -0.26059,0.36277 -0.36146,0.48096 l -0.183377,0.21489 h -2.64123 c -2.41429,0 -2.650027,-0.006 -2.743747,-0.0693 z m -4.23606,-8.49437 c 0.0155,-0.0806 -0.19198,-0.29854 -0.41071,-0.43151 -0.14918,-0.0907 -0.20331,-0.0858 -0.20331,0.0183 0,0.0676 0.19874,0.38149 0.28786,0.4546 0.0905,0.0742 0.30931,0.0464 0.32616,-0.0414 z m 11.815774,-0.50511 c 0.11478,-0.0794 0.11738,-0.18064 0.008,-0.29695 -0.0689,-0.073 -0.13076,-0.0896 -0.3343,-0.0896 -0.15165,0 -0.35404,-0.0359 -0.51524,-0.0915 -0.34425,-0.11861 -0.40158,-0.0779 -0.26951,0.19143 0.10796,0.22016 0.18069,0.26697 0.42343,0.2725 0.0984,0.002 0.22559,0.0188 0.2826,0.0369 0.1679,0.0531 0.307,0.0453 0.40541,-0.0228 z m -3.677287,-0.12412 c 0.0363,-0.01 0.0922,-0.0685 0.12439,-0.13007 0.0322,-0.0615 0.0865,-0.13367 0.12066,-0.16029 0.049,-0.0381 0.0515,-0.0592 0.0116,-0.0991 -0.0402,-0.0402 -0.085,-0.0394 -0.21818,0.004 -0.13219,0.0431 -0.20035,0.0445 -0.32259,0.007 -0.14424,-0.0446 -0.16145,-0.0407 -0.24828,0.057 -0.11149,0.1254 -0.12108,0.28445 -0.0207,0.34403 0.0653,0.0387 0.37762,0.0262 0.55312,-0.0222 z m 2.250757,-62.57158 c 0.0323,-0.0507 0.0722,-0.13815 0.0886,-0.19443 0.0164,-0.0563 0.0616,-0.13917 0.10054,-0.18419 0.0389,-0.045 0.15131,-0.22002 0.24981,-0.38886 0.45154,-0.77403 0.58153,-0.96785 0.80229,-1.19626 0.0277,-0.0287 0.0831,-0.10259 0.12306,-0.16421 0.0923,-0.14237 0.35707,-0.27682 0.54514,-0.27682 0.18917,0 0.23116,-0.0805 0.23116,-0.4431 0,-0.4473 0.13078,-0.67735 0.56328,-0.99085 0.66584,-0.48263 0.88794,-0.66141 0.86575,-0.69686 -0.0413,-0.0659 -0.0781,-0.0461 -0.40429,0.21722 -0.17427,0.14071 -0.37818,0.29784 -0.45312,0.34918 -0.0749,0.0513 -0.20156,0.1387 -0.28138,0.19412 -0.0798,0.0554 -0.23299,0.14408 -0.34037,0.19701 -0.10739,0.0529 -0.21934,0.11488 -0.24878,0.13767 -0.0294,0.0228 -0.16477,0.10087 -0.30074,0.17351 -0.13596,0.0726 -0.31085,0.18724 -0.38864,0.25467 -0.0778,0.0674 -0.19045,0.14317 -0.25035,0.16831 -0.0599,0.0252 -0.18356,0.10268 -0.27478,0.17228 -0.0912,0.0696 -0.22183,0.16153 -0.29024,0.20431 -0.0684,0.0428 -0.27833,0.23493 -0.46647,0.42702 -0.35549,0.36296 -0.39533,0.45126 -0.30097,0.66712 0.0226,0.0517 0.0613,0.26901 0.086,0.48288 0.0247,0.21387 0.0578,0.49938 0.0736,0.63445 0.0158,0.13508 0.0435,0.26862 0.0616,0.29676 0.0508,0.079 0.14434,0.0607 0.20929,-0.0409 z m 8.44308,-104.004653 c 0.0798,-0.04814 0.28506,-0.138089 0.4561,-0.199892 0.75372,-0.272347 0.7228,-0.25787 1.39469,-0.652956 0.13329,-0.07837 0.35446,-0.261218 0.4915,-0.406327 0.42613,-0.451192 1.09106,-1.082393 1.36869,-1.299239 0.46781,-0.365395 1.14919,-0.709521 1.46293,-0.73884 0.10759,-0.01005 0.24225,-0.03781 0.29926,-0.06169 0.2196,-0.09198 0.27716,-0.110582 0.52002,-0.168043 0.13779,-0.0326 0.3337,-0.09651 0.43537,-0.142035 0.10167,-0.04552 0.26882,-0.103964 0.37144,-0.129874 0.10262,-0.02591 0.40116,-0.120083 0.66342,-0.209283 0.6763,-0.230019 0.71989,-0.242761 0.83221,-0.243252 0.12624,-5.73e-4 0.48234,-0.105769 0.59577,-0.176025 0.047,-0.0291 0.1694,-0.0768 0.27202,-0.105994 0.10262,-0.0292 0.35306,-0.109179 0.55653,-0.177741 0.43754,-0.147425 0.58931,-0.186909 0.89469,-0.232753 0.30644,-0.046 0.82733,-0.189484 1.13293,-0.312072 0.13731,-0.05508 0.27909,-0.10028 0.31507,-0.100443 0.11167,-4.91e-4 1.04532,-0.325572 1.15958,-0.403728 0.0595,-0.04073 0.2109,-0.106374 0.33632,-0.145874 0.12543,-0.0395 0.36049,-0.153124 0.52236,-0.252503 0.36931,-0.22674 0.58669,-0.287901 1.14386,-0.321834 0.68391,-0.04166 1.04602,-0.206536 1.517,-0.690728 0.19964,-0.205247 0.26639,-0.308094 0.32159,-0.495531 0.0676,-0.229478 0.067,-0.244591 -0.0203,-0.507122 -0.0495,-0.148826 -0.15872,-0.374596 -0.24272,-0.501711 -0.31774,-0.480815 -0.85497,-1.461021 -0.94117,-1.717228 -0.0736,-0.218627 -0.31816,-0.469133 -0.50274,-0.514863 -0.0645,-0.01599 -0.23074,0.0029 -0.39423,0.04474 -0.36241,0.09279 -0.76559,0.05839 -1.01659,-0.08676 -0.36666,-0.212025 -0.57856,-0.210543 -0.82485,0.0058 -0.0836,0.07341 -0.22919,0.155919 -0.32355,0.183348 -0.0943,0.02743 -0.39546,0.170454 -0.66912,0.317839 -0.27365,0.147385 -0.61073,0.32806 -0.74906,0.401505 -0.43945,0.23333 -0.76414,0.305227 -1.37838,0.305227 -0.53735,0 -0.8115,-0.04256 -1.13545,-0.176266 -0.0842,-0.03476 -0.29032,-0.08596 -0.45799,-0.113776 -0.27047,-0.04487 -0.32648,-0.04242 -0.49642,0.02165 -0.19316,0.07282 -0.61393,0.44971 -0.77841,0.697224 -0.0445,0.06697 -0.11416,0.134732 -0.15479,0.150581 -0.12174,0.04748 -0.31957,0.03811 -0.40674,-0.01926 -0.1623,-0.106825 -0.53143,-0.232696 -0.68241,-0.232696 -0.0906,0 -0.3407,0.0781 -0.60605,0.189217 -0.68595,0.287247 -0.85149,0.342902 -1.01984,0.342902 -0.25808,0 -0.5881,0.147594 -0.77313,0.345764 -0.19206,0.20568 -0.24032,0.380674 -0.19074,0.691522 0.054,0.338731 5.8e-4,1.409024 -0.088,1.761242 -0.0352,0.139845 -0.29585,0.871354 -0.45412,1.274234 -0.0619,0.15759 -0.14783,0.422949 -0.19095,0.589691 -0.0431,0.166742 -0.0948,0.323308 -0.1148,0.347925 -0.0941,0.11567 -0.45012,0.800005 -0.49382,0.949162 -0.027,0.0922 -0.10055,0.224382 -0.16341,0.293754 -0.0628,0.06937 -0.16684,0.196557 -0.23107,0.282634 -0.0642,0.08608 -0.24027,0.322276 -0.39118,0.524891 -0.52699,0.707498 -0.68195,0.902106 -0.89632,1.125637 -0.53848,0.561485 -0.61564,0.65472 -0.59206,0.71539 0.0337,0.08661 0.14618,0.07757 0.31708,-0.0255 z M 96.016213,78.381024 c 0.0555,-0.07317 0.17726,-0.252757 0.27058,-0.39909 0.33402,-0.523777 0.40203,-0.629247 0.5647,-0.87575 0.1881,-0.285044 0.62655,-0.735209 0.87169,-0.894996 0.3845,-0.250621 0.96824,-0.439597 1.35791,-0.439597 h 0.1555 v -0.202246 c 0,-0.111234 0.0187,-0.21363 0.0415,-0.227543 0.0228,-0.01391 0.0421,-0.07487 0.0428,-0.135445 7e-4,-0.06058 0.0443,-0.193036 0.0969,-0.294344 0.24748,-0.476848 0.49681,-0.926735 0.54446,-0.982374 0.223077,-0.260514 0.293727,-0.684298 0.145157,-0.870749 -0.120687,-0.151474 -0.117717,-0.603337 0.005,-0.773612 0.17535,-0.243096 -0.048,-0.245921 -0.407367,-0.0051 -0.0798,0.05348 -0.31441,0.152751 -0.52129,0.220605 -0.20688,0.06785 -0.47554,0.168448 -0.59702,0.223547 -0.12148,0.0551 -0.32235,0.146231 -0.44636,0.202513 -0.12402,0.05628 -0.23963,0.10233 -0.25692,0.10233 -0.0173,0 -0.0977,0.04258 -0.17878,0.09463 -0.48331,0.310381 -0.6472,0.418446 -0.66565,0.438908 -0.0114,0.01264 -0.086,0.06772 -0.16585,0.12238 -0.14516,0.09941 -0.46545,0.425176 -0.57809,0.587967 -0.0329,0.04753 -0.0707,0.09562 -0.084,0.106879 -0.18935,0.159992 -0.49056,0.591 -0.65864,0.942429 -0.3494,0.730567 -0.3881,0.876982 -0.38513,1.45705 0.002,0.459162 0.0152,0.54444 0.13343,0.886012 0.14213,0.410608 0.17637,0.486684 0.25618,0.569183 0.0289,0.0299 0.0753,0.105012 0.10304,0.166922 0.0717,0.159955 0.22612,0.151085 0.35625,-0.02047 z"
       id="path1295" />
  </g>
</svg>
