<?xml version="1.0" encoding="UTF-8" standalone="no"?>
<!-- Created with Inkscape (http://www.inkscape.org/) -->

<svg
   width="210mm"
   height="297mm"
   viewBox="0 0 210 297"
   version="1.1"
   id="svg5"
   inkscape:version="1.1.2 (b8e25be8, 2022-02-05)"
   sodipodi:docname="skater_06.svg"
   xmlns:inkscape="http://www.inkscape.org/namespaces/inkscape"
   xmlns:sodipodi="http://sodipodi.sourceforge.net/DTD/sodipodi-0.dtd"
   xmlns="http://www.w3.org/2000/svg"
   xmlns:svg="http://www.w3.org/2000/svg">
  <sodipodi:namedview
     id="namedview7"
     pagecolor="#ffffff"
     bordercolor="#999999"
     borderopacity="1"
     inkscape:pageshadow="0"
     inkscape:pageopacity="0"
     inkscape:pagecheckerboard="0"
     inkscape:document-units="mm"
     showgrid="false"
     inkscape:zoom="0.16013082"
     inkscape:cx="346.59162"
     inkscape:cy="527.69354"
     inkscape:window-width="1660"
     inkscape:window-height="969"
     inkscape:window-x="0"
     inkscape:window-y="44"
     inkscape:window-maximized="0"
     inkscape:current-layer="layer1" />
  <defs
     id="defs2" />
  <g
     inkscape:label="Layer 1"
     inkscape:groupmode="layer"
     id="layer1">
    <path
       style="fill:#000000;stroke-width:0.041092"
       d="m 63.956337,226.09714 c -0.358355,-0.13969 -0.535186,-0.28016 -0.722487,-0.57395 -0.0423,-0.0663 -0.0876,-0.12988 -0.100663,-0.14118 -0.01307,-0.0113 -0.102689,-0.18116 -0.199164,-0.37747 -0.190211,-0.38705 -0.257495,-0.59393 -0.415153,-1.27648 -0.0465,-0.20131 -0.01812,-1.40957 0.04463,-1.90051 0.02312,-0.1808 0.08708,-0.48955 0.142142,-0.68611 0.05507,-0.19656 0.10012,-0.39534 0.10012,-0.44174 0,-0.0464 0.01849,-0.0844 0.04109,-0.0844 0.0226,0 0.04109,-0.0244 0.04109,-0.0542 0,-0.0893 0.282269,-0.39119 0.465736,-0.49819 0.09416,-0.0549 0.254401,-0.12673 0.356104,-0.1596 0.201925,-0.0652 1.307768,-0.11883 1.47931,-0.0717 0.13472,0.037 0.401806,-0.068 0.434441,-0.17078 0.01624,-0.0512 -0.0056,-0.11267 -0.06073,-0.17141 -0.102984,-0.10962 -0.109399,-0.21962 -0.02023,-0.34693 0.03621,-0.0517 0.05594,-0.10387 0.04385,-0.11596 -0.01209,-0.0121 -0.171715,-0.028 -0.354726,-0.0353 -0.301139,-0.012 -0.353535,-0.0271 -0.551512,-0.1585 -0.20629,-0.13692 -0.221761,-0.15935 -0.271458,-0.39353 -0.02899,-0.13659 -0.06866,-0.24834 -0.08817,-0.24834 -0.01952,0 -0.03548,-0.0561 -0.03548,-0.12472 0,-0.13206 -0.08862,-0.29971 -0.222632,-0.42119 -0.06592,-0.0598 -0.08377,-0.13981 -0.09622,-0.43147 -0.01871,-0.43819 0.05762,-1.07862 0.155336,-1.30322 0.01967,-0.0452 0.07452,-0.1707 0.121899,-0.27889 0.10875,-0.24832 0.569329,-0.92997 0.806903,-1.19421 0.216316,-0.2406 0.247455,-0.34279 0.185818,-0.60982 -0.05893,-0.25527 -0.01865,-0.34052 0.308571,-0.65318 0.351892,-0.33622 0.943213,-0.73617 1.088408,-0.73617 0.01815,0 0.13059,-0.045 0.249863,-0.10003 0.11927,-0.055 0.309312,-0.1294 0.422315,-0.1653 0.208406,-0.0662 0.272304,-0.0908 0.493104,-0.18993 0.181178,-0.0813 0.659974,-0.38963 0.759268,-0.48892 0.04727,-0.0473 0.182391,-0.14822 0.300268,-0.22432 0.117872,-0.0761 0.251314,-0.17255 0.296532,-0.21432 0.04522,-0.0418 0.146924,-0.12433 0.226005,-0.18347 0.07909,-0.0591 0.218462,-0.17933 0.309723,-0.2671 0.255387,-0.24559 0.79769,-0.72582 0.896327,-0.79372 0.04857,-0.0334 0.153034,-0.12154 0.232137,-0.19579 0.0791,-0.0743 0.158495,-0.13517 0.176432,-0.13537 0.01794,0 0.08246,-0.0466 0.14339,-0.10307 0.06093,-0.0565 0.170668,-0.13114 0.243873,-0.16588 0.07321,-0.0347 0.193593,-0.11863 0.267533,-0.18644 0.07394,-0.0678 0.176038,-0.13384 0.22689,-0.14676 0.05085,-0.0129 0.09246,-0.04 0.09246,-0.0601 0,-0.0202 0.0262,-0.0366 0.05821,-0.0366 0.03201,0 0.06437,-0.0142 0.07191,-0.0315 0.02418,-0.0555 0.579614,-0.50959 0.678461,-0.55462 0.05249,-0.0239 0.09544,-0.059 0.09544,-0.078 0,-0.019 0.02192,-0.0345 0.04872,-0.0345 0.0268,0 0.09243,-0.0411 0.145856,-0.0913 0.08328,-0.0782 0.159872,-0.0949 0.536842,-0.11698 0.241838,-0.0141 0.476691,-0.0395 0.521892,-0.0563 0.33739,-0.12552 0.390374,-0.22215 0.390374,-0.71196 0,-0.34434 0.0062,-0.36992 0.113003,-0.46958 0.166307,-0.15511 0.270459,-0.19762 0.484191,-0.19762 0.38633,0 0.59481,-0.19805 0.735365,-0.69856 0.04126,-0.14691 0.108183,-0.34239 0.148733,-0.4344 0.04055,-0.092 0.08576,-0.23995 0.100469,-0.32874 0.01471,-0.0888 0.04303,-0.19842 0.06294,-0.24362 0.09459,-0.21476 0.126391,-0.47038 0.148239,-1.19166 0.02287,-0.75504 0.0108,-0.92967 -0.117926,-1.70532 -0.02438,-0.1469 -0.04462,-0.45201 -0.04499,-0.67802 -0.0014,-0.82675 0.05647,-3.78224 0.07515,-3.8421 0.04039,-0.12937 0.119179,-1.35971 0.121049,-1.89023 0.0039,-1.09196 -0.06263,-2.47693 -0.12709,-2.64794 -0.03356,-0.089 -0.159416,-0.26817 -0.27968,-0.39807 -0.242903,-0.26236 -0.46445,-0.67931 -0.652269,-1.22755 -0.177271,-0.51747 -0.200463,-0.65583 -0.230752,-1.37658 -0.02889,-0.68749 -0.03914,-0.75705 -0.145203,-0.98621 -0.06276,-0.13561 -0.130241,-0.25272 -0.149944,-0.26025 -0.0197,-0.008 -0.03582,-0.0319 -0.03582,-0.0541 0,-0.0222 -0.04438,-0.0993 -0.09862,-0.17121 -0.148843,-0.19743 -0.250053,-0.39408 -0.331678,-0.64446 -0.04053,-0.1243 -0.08756,-0.2445 -0.104534,-0.2671 -0.09615,-0.12805 -0.202969,-1.00988 -0.23394,-1.93132 -0.02287,-0.68037 0.05742,-3.53564 0.118435,-4.21193 0.02345,-0.25991 0.05568,-0.83314 0.07162,-1.27385 0.02317,-0.64064 0.04726,-0.86565 0.120161,-1.12228 0.05015,-0.17654 0.106235,-0.35221 0.124632,-0.39037 0.206097,-0.42753 0.269522,-0.51853 0.601024,-0.86235 0.180804,-0.18752 0.334714,-0.36782 0.34202,-0.40065 0.0073,-0.0328 0.03042,-0.0597 0.05137,-0.0597 0.02094,0 0.03808,-0.028 0.03808,-0.0622 0,-0.0342 0.01694,-0.0943 0.03764,-0.13355 0.0389,-0.0737 0.114294,-0.25305 0.211427,-0.50282 0.157275,-0.40442 0.495906,-0.87955 0.860421,-1.20724 0.37526,-0.33736 0.640936,-0.62516 0.706358,-0.76517 0.03696,-0.0791 0.125729,-0.27327 0.197262,-0.43147 0.142799,-0.31581 0.144784,-0.31976 0.447418,-0.8889 0.115752,-0.21768 0.210456,-0.42505 0.210456,-0.46082 0,-0.0563 0.05841,-0.17545 0.2634,-0.53742 0.08023,-0.14167 0.164175,-0.24376 0.407238,-0.49527 l 0.239172,-0.24748 h 0.274477 c 0.161927,0 0.368678,0.0321 0.504199,0.0782 0.216115,0.0736 0.237787,0.0742 0.365871,0.0103 0.07842,-0.0391 0.234733,-0.0679 0.368664,-0.0679 0.23948,0 0.536049,-0.10848 0.659498,-0.24124 0.157756,-0.16965 0.369864,-0.51247 0.549925,-0.88879 0.108138,-0.22601 0.241153,-0.50046 0.295591,-0.6099 0.05444,-0.10944 0.09898,-0.22347 0.09898,-0.2534 0,-0.0299 0.01387,-0.0606 0.03082,-0.0681 0.02915,-0.013 0.175873,-0.27955 0.380684,-0.69171 0.05054,-0.10171 0.110558,-0.22102 0.133376,-0.26514 0.02282,-0.0441 0.05642,-0.26602 0.07468,-0.4931 0.03607,-0.44875 0.0549,-0.54444 0.149989,-0.76217 0.226779,-0.51926 0.380639,-0.78412 0.656453,-1.13002 0.07688,-0.0964 0.258772,-0.4686 0.258772,-0.52949 0,-0.0365 0.01849,-0.0663 0.04109,-0.0663 0.0226,0 0.04109,-0.0298 0.04109,-0.0663 0,-0.0365 0.175669,-0.33165 0.390374,-0.656 0.214706,-0.32434 0.390374,-0.60234 0.390374,-0.61778 0,-0.0154 0.06934,-0.11197 0.154095,-0.21453 0.08475,-0.10255 0.293922,-0.38671 0.46482,-0.63147 0.170901,-0.24476 0.466763,-0.62755 0.657471,-0.85065 0.38038,-0.445 0.520451,-0.53815 1.086402,-0.72254 0.180805,-0.0589 0.365719,-0.12334 0.41092,-0.1432 0.0452,-0.0199 0.193132,-0.0665 0.328736,-0.10375 0.510625,-0.14008 0.562405,-0.16189 0.660076,-0.27796 0.09048,-0.10753 0.100125,-0.156 0.100125,-0.50308 0,-0.21125 -0.02155,-0.47744 -0.04788,-0.59154 -0.03706,-0.16053 -0.03639,-0.25883 0.003,-0.4346 0.02796,-0.12493 0.06675,-0.22715 0.08621,-0.22715 0.01946,0 0.04702,-0.0367 0.06126,-0.0815 0.03488,-0.10992 0.332413,-0.39713 0.478282,-0.46169 0.06476,-0.0287 0.117757,-0.0646 0.117757,-0.0799 0,-0.0153 0.05413,-0.0397 0.12028,-0.0542 0.153914,-0.0338 0.319083,-0.1988 0.352832,-0.35246 0.01447,-0.0659 0.04339,-0.13036 0.06424,-0.14325 0.02086,-0.0129 0.03793,-0.0767 0.03793,-0.14187 0,-0.0651 0.01849,-0.12986 0.04109,-0.14382 0.0226,-0.014 0.04109,-0.0539 0.04109,-0.0887 0,-0.0348 0.02554,-0.12154 0.05676,-0.19276 0.03122,-0.0712 0.08503,-0.1942 0.119578,-0.27331 0.03455,-0.0791 0.08406,-0.22703 0.110015,-0.32873 0.07677,-0.30077 0.157333,-0.43969 0.34343,-0.59218 0.115489,-0.0946 0.22772,-0.24779 0.327368,-0.44672 0.139675,-0.27884 0.424241,-0.64587 0.500751,-0.64587 0.102935,0 0.25567,-0.27641 0.313363,-0.5671 0.03925,-0.19778 0.04294,-0.20233 0.409966,-0.50632 0.145055,-0.12015 0.307907,-0.25889 0.361889,-0.30831 0.05398,-0.0494 0.197291,-0.14174 0.318463,-0.20513 0.121172,-0.0634 0.22031,-0.12985 0.22031,-0.14768 0,-0.0178 0.02558,-0.0324 0.05685,-0.0324 0.07446,0 0.525188,-0.52403 0.6456,-0.7506 0.06106,-0.11489 0.0601,-0.13454 -0.01405,-0.28801 -0.04377,-0.0906 -0.136919,-0.21294 -0.207005,-0.27189 -0.205271,-0.17265 -0.265812,-0.24959 -0.371525,-0.47217 -0.188604,-0.39713 -0.202883,-0.45806 -0.223248,-0.9527 -0.01976,-0.47973 -0.01699,-0.50112 0.08504,-0.65748 0.058,-0.0889 0.164097,-0.22632 0.235766,-0.30542 l 0.130306,-0.14383 0.404185,0.006 c 0.2223,0.004 0.47453,0.0303 0.560511,0.0595 0.101119,0.0344 0.343406,0.0508 0.686084,0.0464 0.453569,-0.006 0.545167,0.004 0.636926,0.0683 0.05894,0.0413 0.17289,0.10577 0.253216,0.14333 0.131795,0.0616 0.158221,0.0622 0.270727,0.006 0.277173,-0.13827 0.334127,-0.29793 0.241341,-0.67656 -0.0484,-0.1975 -0.06277,-0.38589 -0.04913,-0.64425 0.02101,-0.39793 0.0944,-0.89245 0.151773,-1.0226 0.01993,-0.0452 0.08725,-0.23936 0.149611,-0.43147 0.223319,-0.68794 0.667585,-1.20338 1.236873,-1.43502 0.159071,-0.0647 0.368135,-0.29124 0.405237,-0.43907 0.02369,-0.0944 0.0013,-0.20743 -0.108989,-0.55033 -0.01817,-0.0565 -0.0641,-0.21368 -0.102072,-0.34929 -0.03797,-0.1356 -0.08402,-0.28353 -0.10234,-0.32873 -0.01831,-0.0452 -0.06341,-0.18389 -0.100207,-0.30819 -0.03679,-0.12431 -0.08468,-0.26761 -0.106407,-0.31846 -0.08753,-0.20485 -0.11719,-0.28695 -0.181877,-0.50338 -0.03715,-0.1243 -0.112769,-0.32359 -0.168046,-0.44286 -0.05528,-0.11928 -0.100503,-0.24039 -0.100503,-0.26915 0,-0.0288 -0.01553,-0.0699 -0.0345,-0.0913 -0.01898,-0.0215 -0.05829,-0.10376 -0.08737,-0.18286 -0.07986,-0.21727 -0.387498,-0.84049 -0.422594,-0.85608 -0.01695,-0.008 -0.03082,-0.0318 -0.03082,-0.0539 0,-0.0667 -0.209693,-0.49332 -0.355947,-0.72421 -0.07544,-0.11909 -0.137157,-0.2318 -0.137157,-0.25046 0,-0.0187 -0.03829,-0.0686 -0.0851,-0.11094 -0.09621,-0.0871 -0.266005,-0.43761 -0.322897,-0.66661 -0.02085,-0.0839 -0.07744,-0.30977 -0.125754,-0.50187 -0.08612,-0.34241 -0.087,-0.37879 -0.04438,-1.84914 0.04145,-1.43015 0.03969,-1.518 -0.03794,-1.89023 -0.06414,-0.30754 -0.08153,-0.55315 -0.08195,-1.15753 -5.75e-4,-0.80814 -0.04816,-1.12969 -0.209779,-1.41745 -0.04312,-0.0768 -0.0784,-0.16676 -0.0784,-0.19998 0,-0.0332 -0.01643,-0.0604 -0.03652,-0.0604 -0.02008,0 -0.04937,-0.0693 -0.06507,-0.15409 -0.0157,-0.0848 -0.07599,-0.24655 -0.133968,-0.35956 -0.05798,-0.113 -0.125782,-0.24692 -0.150664,-0.29759 -0.02488,-0.0507 -0.05912,-0.0923 -0.07606,-0.0925 -0.01695,0 -0.03082,-0.0283 -0.03082,-0.0625 0,-0.0342 -0.01635,-0.0943 -0.03633,-0.13355 -0.273517,-0.53717 -0.370983,-0.88026 -0.458007,-1.6123 -0.01746,-0.1469 -0.04277,-0.32257 -0.05623,-0.39037 -0.03166,-0.15947 -0.103839,-1.06027 -0.149817,-1.86969 -0.07062,-1.24318 -0.132649,-1.77639 -0.291621,-2.50661 -0.02215,-0.1017 -0.05571,-0.45303 -0.07458,-0.78074 -0.03237,-0.56188 -0.08848,-0.91556 -0.171025,-1.07811 -0.01993,-0.0393 -0.03624,-0.10448 -0.03624,-0.14496 0,-0.0405 -0.04368,-0.21178 -0.09707,-0.38066 -0.05339,-0.16888 -0.129176,-0.418 -0.168419,-0.5536 -0.123798,-0.42779 -0.234027,-0.73356 -0.333309,-0.92457 -0.05286,-0.1017 -0.12734,-0.28662 -0.165515,-0.41092 -0.03817,-0.1243 -0.08522,-0.24357 -0.104558,-0.26504 -0.01933,-0.0215 -0.03515,-0.0897 -0.03515,-0.15167 0,-0.0619 -0.01849,-0.12407 -0.04109,-0.13803 -0.0226,-0.014 -0.04109,-0.0607 -0.04109,-0.10376 0,-0.0862 -0.103643,-0.33161 -0.207807,-0.49208 -0.03667,-0.0565 -0.09809,-0.20443 -0.136462,-0.32873 -0.08084,-0.26183 -0.274535,-0.65747 -0.321877,-0.65747 -0.01783,0 -0.03242,-0.0245 -0.03242,-0.0545 0,-0.03 -0.06492,-0.10856 -0.144266,-0.17464 -0.08163,-0.068 -0.173909,-0.20043 -0.212535,-0.30506 -0.03755,-0.1017 -0.08025,-0.2034 -0.09489,-0.226 -0.01464,-0.0226 -0.0506,-0.12431 -0.07992,-0.22601 -0.08609,-0.29863 -0.175873,-0.5897 -0.209137,-0.67802 -0.04736,-0.12575 -0.112239,-0.39156 -0.142865,-0.58535 -0.01516,-0.0959 -0.04445,-0.18485 -0.06508,-0.19761 -0.02064,-0.0127 -0.03752,-0.0668 -0.03752,-0.12006 0,-0.0533 -0.01659,-0.10305 -0.03687,-0.11058 -0.02028,-0.008 -0.07081,-0.18012 -0.1123,-0.38353 -0.04149,-0.2034 -0.08961,-0.37599 -0.10695,-0.38352 -0.01734,-0.008 -0.03152,-0.0324 -0.03152,-0.0553 0,-0.1628 -0.566457,-0.5342 -0.965661,-0.63313 -0.0678,-0.0168 -0.187996,-0.0671 -0.267098,-0.11172 -0.344203,-0.19429 -0.75841,-0.39837 -0.808526,-0.39837 -0.02992,0 -0.0544,-0.0185 -0.0544,-0.0411 0,-0.0226 -0.03329,-0.0411 -0.07397,-0.0411 -0.04068,0 -0.09228,-0.0183 -0.114663,-0.0407 -0.02238,-0.0224 -0.132407,-0.0529 -0.244497,-0.0678 -0.112091,-0.0149 -0.321985,-0.0808 -0.466431,-0.1464 -0.144451,-0.0656 -0.320119,-0.12946 -0.390374,-0.14187 -0.07026,-0.0124 -0.229445,-0.0558 -0.353748,-0.0965 -0.124304,-0.0407 -0.336955,-0.10542 -0.472558,-0.14392 -0.135604,-0.0385 -0.274289,-0.0804 -0.30819,-0.0931 -0.0339,-0.0127 -0.210888,-0.0617 -0.393303,-0.1087 -0.375388,-0.0968 -0.532651,-0.20723 -0.682517,-0.47911 -0.106996,-0.1941 -0.278255,-0.61081 -0.361787,-0.8803 -0.07094,-0.22885 -0.395991,-0.91011 -0.450244,-0.94364 -0.02459,-0.0152 -0.07303,-0.0957 -0.107632,-0.17893 -0.0346,-0.0832 -0.106552,-0.216 -0.159881,-0.2951 -0.05333,-0.0791 -0.109486,-0.20424 -0.124792,-0.27807 -0.03705,-0.1787 -0.222932,-0.35816 -0.618821,-0.59744 -0.179707,-0.10862 -0.419199,-0.27194 -0.532202,-0.36294 -0.113003,-0.091 -0.279426,-0.22043 -0.369828,-0.28763 -0.226454,-0.16834 -0.604611,-0.50983 -1.140906,-1.03028 -0.54068,-0.52472 -0.672918,-0.59642 -1.324612,-0.71828 -0.0678,-0.0127 -0.141768,-0.036 -0.164368,-0.0519 -0.0226,-0.0159 -0.133549,-0.0612 -0.246552,-0.10076 -0.113003,-0.0396 -0.242443,-0.0881 -0.287644,-0.10787 -0.0452,-0.0198 -0.146904,-0.0538 -0.226006,-0.0756 -0.0791,-0.0218 -0.25477,-0.08 -0.390373,-0.12932 -0.220574,-0.0802 -0.269547,-0.0845 -0.4648,-0.041 -0.371734,0.083 -0.711692,0.004 -1.425431,-0.32985 -0.135604,-0.0635 -0.339009,-0.15464 -0.452012,-0.20258 -0.113003,-0.0479 -0.276549,-0.12328 -0.363438,-0.16744 -0.08689,-0.0442 -0.18334,-0.0803 -0.21434,-0.0803 -0.031,0 -0.126329,-0.0303 -0.211849,-0.0673 -0.08552,-0.037 -0.197094,-0.0833 -0.247945,-0.10273 -0.05085,-0.0195 -0.134063,-0.0524 -0.184914,-0.0732 -0.190153,-0.0777 -0.675462,-0.24756 -0.89375,-0.31274 -0.573796,-0.17136 -0.90411,-0.28579 -1.150576,-0.39861 -0.146903,-0.0673 -0.327642,-0.1321 -0.401645,-0.14411 -0.074,-0.012 -0.144434,-0.0378 -0.156519,-0.0574 -0.01208,-0.0196 -0.06341,-0.0356 -0.114059,-0.0356 -0.05065,0 -0.109654,-0.0154 -0.131125,-0.0342 -0.02147,-0.0188 -0.159231,-0.0671 -0.306135,-0.10735 -0.146904,-0.0403 -0.313326,-0.088 -0.369827,-0.10619 -0.0565,-0.0182 -0.23217,-0.0661 -0.390374,-0.1066 -0.158204,-0.0405 -0.406959,-0.13452 -0.552786,-0.20895 -0.145827,-0.0744 -0.289135,-0.13532 -0.318463,-0.13532 -0.02933,0 -0.05332,-0.0156 -0.05332,-0.0346 0,-0.0191 -0.06472,-0.0695 -0.143821,-0.11208 -0.0791,-0.0426 -0.143822,-0.0917 -0.143822,-0.1092 0,-0.0175 -0.02428,-0.0317 -0.05395,-0.0317 -0.02967,0 -0.145244,-0.0433 -0.256825,-0.0963 -0.111585,-0.0529 -0.262976,-0.12219 -0.336428,-0.15385 -0.07345,-0.0317 -0.133549,-0.0696 -0.133549,-0.0842 0,-0.0146 -0.04972,-0.0391 -0.110496,-0.0543 -0.06078,-0.0153 -0.157855,-0.0609 -0.215733,-0.10148 -0.05788,-0.0406 -0.179202,-0.0975 -0.269604,-0.12648 -0.0904,-0.029 -0.219842,-0.0982 -0.287644,-0.15374 -0.0678,-0.0555 -0.400647,-0.28275 -0.739656,-0.50488 -0.339008,-0.22214 -0.635212,-0.41903 -0.658231,-0.43753 -0.156898,-0.12613 -0.801881,-0.5473 -0.838141,-0.5473 -0.02452,0 -0.04458,-0.0165 -0.04458,-0.0366 0,-0.0202 -0.04198,-0.0472 -0.09327,-0.0601 -0.0513,-0.0129 -0.129888,-0.0573 -0.174641,-0.0988 -0.04475,-0.0415 -0.210806,-0.16005 -0.36901,-0.26348 -0.363902,-0.23791 -1.270593,-1.159161 -1.65126,-1.677778 -0.313779,-0.427492 -0.647967,-0.755883 -0.899072,-0.883478 -0.08896,-0.0452 -0.170984,-0.09143 -0.182284,-0.10273 -0.0113,-0.0113 -0.05753,-0.0404 -0.10273,-0.06466 -0.242998,-0.130446 -0.372014,-0.204848 -0.390374,-0.225122 -0.02297,-0.02536 -0.233752,-0.121156 -0.452012,-0.205431 -0.0791,-0.03054 -0.258086,-0.134848 -0.397743,-0.231788 -0.139657,-0.09694 -0.435519,-0.271988 -0.657471,-0.388989 -0.221953,-0.117005 -0.544083,-0.302088 -0.715845,-0.411302 -0.171762,-0.109214 -0.333562,-0.198569 -0.359555,-0.198569 -0.02599,0 -0.04726,-0.01849 -0.04726,-0.04109 0,-0.0226 -0.01786,-0.04109 -0.03968,-0.04109 -0.02183,0 -0.22331,-0.12944 -0.447739,-0.287644 C 58.560011,95.743 58.36339,95.61356 58.347505,95.61356 c -0.01588,0 -0.08715,-0.02557 -0.158367,-0.05682 -0.07122,-0.03125 -0.194206,-0.08083 -0.273308,-0.110184 -0.0791,-0.02935 -0.242084,-0.115255 -0.362182,-0.190901 -0.285426,-0.179777 -0.621082,-0.340657 -0.710747,-0.340657 -0.09352,0 -0.321762,0.193704 -0.366311,0.310873 -0.02608,0.06859 -0.08875,0.103676 -0.245037,0.137194 -0.257083,0.05513 -0.358176,0.05684 -0.389246,0.0066 -0.01308,-0.02116 -0.166721,-0.06869 -0.341434,-0.105611 -0.174713,-0.03693 -0.354642,-0.08318 -0.399843,-0.102775 -0.0452,-0.01959 -0.126943,-0.04828 -0.181649,-0.06375 -0.05471,-0.01547 -0.193391,-0.08653 -0.30819,-0.157912 -0.114798,-0.07139 -0.264199,-0.156943 -0.332001,-0.190129 -0.0678,-0.03319 -0.132521,-0.07056 -0.143821,-0.08306 -0.04288,-0.04742 -0.397742,-0.162325 -0.501305,-0.162325 -0.07043,0 -0.17033,-0.05895 -0.28627,-0.168946 -0.278951,-0.264632 -0.372946,-0.291371 -0.779827,-0.221843 -0.188856,0.03227 -0.472815,0.08924 -0.631019,0.1266 -0.230535,0.05444 -0.532393,0.06905 -1.520403,0.0736 l -1.232759,0.0057 -0.440314,-0.231697 c -0.400242,-0.210613 -0.648078,-0.375573 -0.874629,-0.582163 -0.0452,-0.04122 -0.183887,-0.152332 -0.30819,-0.246921 -0.124303,-0.09459 -0.232169,-0.185847 -0.239703,-0.202797 -0.0075,-0.01695 -0.04099,-0.03082 -0.07434,-0.03082 -0.03335,0 -0.299924,-0.235022 -0.592379,-0.522271 -0.292455,-0.287254 -0.562967,-0.539751 -0.601137,-0.561111 -0.125324,-0.07014 -0.482535,-0.190457 -0.567004,-0.190991 -0.100061,-6.17e-4 -0.475475,-0.187146 -0.73221,-0.363784 -0.102961,-0.07084 -0.205443,-0.128798 -0.227738,-0.128798 -0.02229,0 -0.0467,-0.01387 -0.05423,-0.03082 -0.01279,-0.02877 -0.298475,-0.175409 -0.7341,-0.376805 -0.265313,-0.12266 -0.67255,-0.531956 -0.820095,-0.82424 -0.09545,-0.189092 -0.123586,-0.299367 -0.123109,-0.482555 0.001,-0.398843 0.155571,-0.710008 0.352607,-0.710008 0.05166,0 0.105364,-0.01849 0.119332,-0.04109 0.01397,-0.0226 0.10412,-0.04109 0.200338,-0.04109 0.09622,0 0.282116,-0.01981 0.413106,-0.04402 0.299079,-0.05529 0.744859,0.01174 1.009362,0.151765 0.101523,0.05375 0.208766,0.09772 0.238319,0.09772 0.02955,0 0.103666,0.02551 0.164695,0.05669 0.127614,0.0652 0.295877,0.02294 0.295877,-0.07431 0,-0.03375 -0.0378,-0.09657 -0.08399,-0.13961 -0.04619,-0.04304 -0.128136,-0.138085 -0.182094,-0.211221 -0.05396,-0.07314 -0.22081,-0.261345 -0.370781,-0.418238 -0.233956,-0.244756 -0.278412,-0.31564 -0.313076,-0.499214 -0.02222,-0.117675 -0.05051,-0.262722 -0.06287,-0.322321 -0.01377,-0.06643 0.0047,-0.149801 0.04769,-0.215433 0.104369,-0.159289 0.0501,-0.291766 -0.249693,-0.609567 -0.147938,-0.156823 -0.325292,-0.401501 -0.403515,-0.556693 -0.17292,-0.343069 -0.258445,-0.422167 -0.48445,-0.448038 -0.258389,-0.02958 -0.385523,-0.08768 -0.448235,-0.20486 -0.03046,-0.05692 -0.108395,-0.141238 -0.173185,-0.187372 -0.09932,-0.07072 -0.132418,-0.07606 -0.210988,-0.03401 -0.121854,0.06521 -0.900266,0.0102 -1.112378,-0.07862 -0.219493,-0.09191 -0.463813,-0.166381 -0.545842,-0.166381 -0.0501,0 -0.09108,-0.01484 -0.09108,-0.03298 0,-0.05043 -0.37305,-0.172915 -0.525963,-0.172685 -0.07458,0 -0.191295,0.02901 -0.25938,0.06421 -0.239519,0.12386 -1.538584,0.02085 -1.926727,-0.152788 -0.255631,-0.114359 -0.326718,-0.216579 -0.327822,-0.471407 -8.3e-4,-0.191797 0.01397,-0.225784 0.163454,-0.375264 0.240228,-0.240228 0.222877,-0.389207 -0.06869,-0.58981 -0.17593,-0.121044 -0.181663,-0.131708 -0.169697,-0.315672 0.01069,-0.164364 0.03148,-0.203225 0.152011,-0.284217 0.07679,-0.0516 0.191274,-0.09382 0.2544,-0.09382 0.06312,0 0.126202,-0.01849 0.14017,-0.04109 0.01397,-0.0226 0.107321,-0.04109 0.207452,-0.04109 0.100131,0 0.297822,-0.04399 0.439314,-0.09776 0.499467,-0.1898 0.551331,-0.196687 1.325648,-0.175944 0.406811,0.01089 0.85985,0.04107 1.006754,0.06705 0.146903,0.02598 0.609188,0.06251 1.027299,0.08116 0.64901,0.02896 0.785455,0.04663 0.932857,0.120802 0.09496,0.04778 0.231578,0.08687 0.303594,0.08687 0.0923,0 0.183421,0.04548 0.308775,0.154095 0.2257,0.195569 0.35981,0.304331 0.817562,0.663031 0.203405,0.159392 0.388319,0.30452 0.41092,0.322506 0.0226,0.01799 0.133356,0.1064 0.246124,0.196465 0.112767,0.09007 0.223715,0.177349 0.246551,0.193958 0.02284,0.01661 0.09868,0.07588 0.168535,0.131704 0.256293,0.204819 0.917335,0.516115 1.095973,0.516115 0.360152,0 1.031263,0.171748 1.304169,0.333762 0.0339,0.02012 0.08937,0.0494 0.123276,0.06507 0.0339,0.01566 0.09748,0.06177 0.141297,0.102467 0.04381,0.04069 0.103856,0.07399 0.13343,0.07399 0.02958,0 0.130114,0.06897 0.22342,0.153269 l 0.169649,0.153265 0.606549,8.21e-4 c 0.596333,8.22e-4 0.607988,0.0025 0.692034,0.103556 0.04702,0.0565 0.0861,0.123239 0.08685,0.14831 0.0025,0.08486 0.346134,0.437871 0.481048,0.494241 0.07373,0.03081 0.20097,0.05601 0.28275,0.05601 0.125715,0 0.181479,0.03384 0.360875,0.218979 0.116701,0.120441 0.267657,0.246844 0.335459,0.280897 0.0678,0.03405 0.252716,0.127935 0.41092,0.208623 0.34869,0.177847 0.638315,0.277708 0.805431,0.277708 0.0685,0 0.162293,0.02021 0.208435,0.0449 0.06067,0.03247 0.09632,0.03247 0.128793,0 0.06183,-0.06183 0.73779,-0.05879 0.800182,0.0036 0.03246,0.03246 0.196319,0.04571 0.495284,0.04005 0.41027,-0.0078 0.461545,-1.7e-5 0.62746,0.09483 0.09938,0.05681 0.230441,0.103503 0.291258,0.103778 0.06082,4.11e-4 0.122006,0.01899 0.135974,0.04158 0.01397,0.0226 0.162237,0.04109 0.329487,0.04109 0.257828,0 0.332111,0.01693 0.488282,0.111257 0.120242,0.07263 0.208818,0.165863 0.255119,0.268544 0.09009,0.199785 0.355802,0.442039 0.484843,0.442039 0.155549,0 0.421753,0.163143 0.674952,0.413648 0.296257,0.293101 0.330231,0.309209 0.72479,0.343615 0.180172,0.01571 0.346595,0.04372 0.369828,0.06225 0.02323,0.01853 0.106961,0.0439 0.186063,0.05638 0.0791,0.01248 0.310244,0.05313 0.51365,0.09033 0.203405,0.0372 0.434547,0.07655 0.513649,0.08745 0.0791,0.0109 0.180805,0.0346 0.226006,0.05266 0.187606,0.07499 0.385538,0.127266 0.577216,0.152448 0.111942,0.01471 0.272137,0.0611 0.355991,0.103087 0.09027,0.04521 0.240026,0.07635 0.367132,0.07635 0.215532,0 0.679242,0.105093 0.752205,0.170478 0.02147,0.01924 0.07787,0.03498 0.125331,0.03498 0.04746,0 0.105277,0.01898 0.128478,0.04218 0.0232,0.0232 0.14247,0.0524 0.265043,0.06488 0.122573,0.01248 0.259841,0.03838 0.305042,0.05755 0.0452,0.01917 0.165395,0.0453 0.267098,0.05809 0.158582,0.01993 0.536271,0.08889 0.95589,0.17453 0.06243,0.01274 0.123617,0.03953 0.135977,0.05952 0.01236,0.02 0.06135,0.03635 0.108885,0.03635 0.08225,0 0.452296,0.09743 0.627841,0.165305 0.220906,0.08541 0.389297,0.169533 0.411597,0.205624 0.0136,0.02199 0.07678,0.03999 0.140403,0.03999 0.06363,0 0.196597,0.02886 0.295493,0.06413 0.176165,0.06283 0.493523,0.05201 0.590726,-0.02014 0.0226,-0.01678 0.15204,-0.06303 0.287643,-0.102787 0.135604,-0.03975 0.348255,-0.11113 0.472558,-0.158611 0.271454,-0.103688 1.029605,-0.141007 1.467226,-0.07222 0.153552,0.02414 0.343903,0.05421 0.423005,0.06682 0.0791,0.01262 0.180804,0.03819 0.226006,0.05682 0.0452,0.01864 0.198975,0.08209 0.341716,0.141024 0.142746,0.05893 0.294206,0.107143 0.336585,0.107143 0.04238,0 0.08848,0.01849 0.102446,0.04109 0.01397,0.0226 0.05306,0.04109 0.08686,0.04109 0.03381,0 0.139039,0.0349 0.233855,0.07757 0.09481,0.04266 0.274087,0.118534 0.398391,0.168609 0.351266,0.141496 0.416269,0.173359 0.647995,0.3176 0.119093,0.07413 0.238276,0.134786 0.26485,0.134786 0.02657,0 0.09731,0.04694 0.157198,0.104311 0.08647,0.08284 0.182744,0.115099 0.467643,0.156705 0.197319,0.02881 0.371233,0.06974 0.386474,0.09094 0.05659,0.07874 0.241247,0.135604 0.520812,0.160395 0.271121,0.02404 0.511624,0.07363 0.698563,0.144035 0.0452,0.01703 0.183887,0.0638 0.30819,0.103946 0.124303,0.04014 0.243573,0.0889 0.265043,0.108343 0.02147,0.01944 0.07535,0.03535 0.119726,0.03535 0.09734,0 0.930174,0.411174 0.930174,0.459231 0,0.01863 0.01938,0.03387 0.04306,0.03387 0.02369,0 0.144241,0.06472 0.267899,0.143821 0.123654,0.0791 0.235896,0.143822 0.249424,0.143822 0.01353,0 0.08483,0.05085 0.15845,0.113003 0.07362,0.06215 0.251631,0.20546 0.395589,0.318463 0.296922,0.233078 0.316794,0.249671 0.723514,0.604114 0.163349,0.142351 0.372417,0.322001 0.464598,0.399221 0.09218,0.07722 0.192373,0.199678 0.222641,0.272127 0.09108,0.217985 0.261932,0.403971 0.979082,1.065803 0.219821,0.202862 0.463862,0.407583 0.542307,0.454925 0.07845,0.04735 0.175479,0.11553 0.21563,0.151526 0.04015,0.03599 0.242796,0.152037 0.450319,0.257869 0.421829,0.215125 0.422758,0.215979 0.669696,0.615969 0.212816,0.34472 0.497866,0.63651 0.876007,0.896717 0.153639,0.105721 0.290171,0.19222 0.303411,0.19222 0.01324,0 0.0632,0.0436 0.111034,0.0969 0.04783,0.05329 0.197912,0.171542 0.333515,0.262783 0.135604,0.09124 0.300863,0.223298 0.367243,0.293475 0.06638,0.07017 0.145334,0.12759 0.175459,0.12759 0.03012,0 0.127997,0.04623 0.2175,0.10273 0.0895,0.0565 0.181593,0.10273 0.204642,0.10273 0.02305,0 0.04191,0.01849 0.04191,0.04109 0,0.0226 0.0233,0.04109 0.05178,0.04109 0.02848,0 0.101641,0.04623 0.162576,0.102732 0.06094,0.0565 0.125466,0.10333 0.143403,0.10407 0.01794,7.4e-4 0.16205,0.13001 0.320254,0.28729 l 0.287644,0.28595 0.295492,4.1e-4 c 0.162519,0 0.306612,0.0184 0.320209,0.0404 0.05645,0.0914 0.309645,0.16276 0.637604,0.17984 0.192105,0.01 0.497213,0.0497 0.678018,0.0883 0.180804,0.0385 0.504403,0.0854 0.719109,0.10415 0.214706,0.0187 0.492076,0.0532 0.61638,0.0766 0.399915,0.0753 0.758541,0.15345 0.821839,0.17909 0.0339,0.0137 0.126358,0.0339 0.20546,0.0447 0.230308,0.0316 0.701029,0.17872 0.934641,0.29216 0.118542,0.0576 0.234113,0.10466 0.256825,0.10466 0.02271,0 0.04129,0.0164 0.04129,0.0364 0,0.02 0.06934,0.069 0.154095,0.10876 0.08475,0.0398 0.22806,0.12235 0.318463,0.18346 0.275702,0.18638 0.701974,0.36993 0.859089,0.36993 0.132809,0 0.296318,0.059 0.353124,0.12749 0.0113,0.0136 0.122248,0.0569 0.246552,0.0961 0.124303,0.0393 0.304393,0.1067 0.400198,0.14988 0.09581,0.0432 0.200007,0.0785 0.231562,0.0785 0.03155,0 0.156569,0.0296 0.277819,0.0658 0.205258,0.0613 0.342041,0.1207 0.666585,0.28964 0.07104,0.037 0.15689,0.0801 0.19079,0.0958 0.06961,0.0323 0.481126,0.15322 0.698564,0.20526 0.0791,0.0189 0.247152,0.0639 0.37344,0.0999 0.126288,0.036 0.25627,0.0654 0.288843,0.0654 0.03258,0 0.08643,0.039 0.119664,0.0868 0.124903,0.1793 0.393472,0.30064 0.861732,0.38931 0.0791,0.015 0.217787,0.0599 0.30819,0.0999 0.0904,0.0399 0.192105,0.0841 0.226005,0.0981 0.0339,0.014 0.117113,0.0609 0.184914,0.10417 0.0678,0.0433 0.155579,0.0801 0.19506,0.0817 0.07145,0.003 0.673604,0.30643 0.748001,0.37693 0.02147,0.0203 0.07078,0.037 0.10958,0.037 0.03879,0 0.0767,0.0146 0.08424,0.0325 0.01536,0.0364 0.394627,0.29623 0.432469,0.29623 0.0398,0 -0.0159,-0.69549 -0.06011,-0.75056 -0.0224,-0.0279 -0.05085,-0.11545 -0.06321,-0.19455 -0.04793,-0.30659 -0.08975,-0.45048 -0.190527,-0.65564 -0.01615,-0.0329 -0.116319,-0.082 -0.222587,-0.10908 -0.337592,-0.0861 -0.463867,-0.27002 -0.41775,-0.6084 0.01566,-0.1149 0.0438,-0.35685 0.06253,-0.53766 0.04137,-0.39931 0.09881,-0.69821 0.165851,-0.86293 0.201096,-0.49412 0.255083,-0.68786 0.326332,-1.17112 0.03672,-0.24903 0.193067,-0.918363 0.244769,-1.047852 0.06248,-0.156495 0.217471,-0.616914 0.24898,-0.739656 0.02979,-0.116051 0.170947,-0.517146 0.245837,-0.698563 0.134913,-0.3268 0.212002,-0.526392 0.270997,-0.701617 0.03748,-0.111322 0.130282,-0.335721 0.206224,-0.498663 0.07594,-0.162938 0.149912,-0.343406 0.164377,-0.401033 0.01446,-0.05763 0.04274,-0.114943 0.06284,-0.127365 0.0201,-0.01242 0.03654,-0.04959 0.03654,-0.08261 0,-0.03302 0.04961,-0.13825 0.110264,-0.233854 0.17927,-0.282606 0.38284,-0.651308 0.38284,-0.693395 0,-0.02151 0.0647,-0.140292 0.14382,-0.26395 0.0791,-0.123654 0.14382,-0.233998 0.14382,-0.245204 0,-0.02191 0.41248,-0.601332 0.4524,-0.635499 0.0132,-0.0113 0.13696,-0.177723 0.27502,-0.369828 0.39585,-0.550805 1.07946,-1.202105 1.75362,-1.670742 0.18357,-0.127607 0.3615,-0.257733 0.3954,-0.289165 0.0339,-0.03143 0.19108,-0.141541 0.34928,-0.244686 0.15821,-0.103149 0.37417,-0.259528 0.47993,-0.34751 0.10576,-0.08798 0.21055,-0.159967 0.23286,-0.159967 0.0223,0 0.0467,-0.01387 0.0543,-0.03082 0.0292,-0.06571 0.68868,-0.544469 0.74999,-0.544469 0.0104,0 0.20035,-0.113504 0.42207,-0.252235 0.42126,-0.263584 0.82264,-0.486611 1.30583,-0.72559 l 0.28633,-0.141615 0.2003,0.06405 c 0.17511,0.056 0.2321,0.05696 0.45332,0.0076 0.13917,-0.03103 0.3871,-0.07611 0.55095,-0.100166 0.16386,-0.02406 0.42645,-0.06503 0.58353,-0.09104 0.28046,-0.04645 0.66124,-0.03299 1.35807,0.048 0.1695,0.0197 0.48122,0.05363 0.6927,0.0754 0.21149,0.02177 0.40472,0.05978 0.42941,0.08447 0.0247,0.02469 0.0824,0.0449 0.12827,0.0449 0.0739,0 0.47829,0.135303 0.76313,0.255345 0.0565,0.02381 0.13971,0.05807 0.18491,0.07614 0.42493,0.169813 0.72015,0.342108 0.88742,0.517891 0.22207,0.233373 0.34332,0.405549 0.38576,0.547752 0.0169,0.0565 0.0701,0.146784 0.11839,0.200631 0.0965,0.107727 0.61924,0.45684 0.68399,0.45684 0.0581,0 0.33137,0.28116 0.52431,0.539509 0.0906,0.121382 0.20383,0.261526 0.25151,0.311432 0.0477,0.04991 0.088,0.10538 0.0895,0.123276 0.003,0.03892 0.63848,0.600773 0.70546,0.624076 0.0257,0.0089 0.10903,0.07366 0.18519,0.143822 0.0762,0.07017 0.19633,0.159445 0.26705,0.1984 0.0707,0.03896 0.21031,0.149904 0.31021,0.246552 0.17483,0.169147 0.5017,0.578111 0.5017,0.627713 0,0.01322 0.0183,0.04637 0.0406,0.07367 0.12622,0.154457 0.33966,0.459503 0.40191,0.574396 0.0395,0.07299 0.13182,0.219251 0.20508,0.325026 0.0733,0.105774 0.1332,0.201502 0.1332,0.212729 0,0.01123 0.0623,0.155829 0.13836,0.321335 0.0761,0.165502 0.15262,0.347145 0.17003,0.403646 0.0174,0.0565 0.0754,0.19877 0.12888,0.316154 0.0535,0.117383 0.12372,0.330034 0.15611,0.472557 0.0324,0.142524 0.0798,0.3331 0.10536,0.423502 0.0786,0.278148 0.11346,0.512347 0.16199,1.088938 0.0257,0.305107 0.0637,0.619461 0.0846,0.698563 0.10471,0.397466 0.16141,0.710649 0.18598,1.027299 0.0308,0.39744 -0.0428,1.3981 -0.12545,1.70532 -0.0304,0.113 -0.0667,0.52905 -0.0806,0.92456 -0.0404,1.14834 -0.0973,1.7921 -0.18297,2.07191 -0.0844,0.27567 -0.13321,0.59646 -0.14739,0.9689 -0.0214,0.56135 -0.0986,0.90505 -0.28632,1.27385 -0.24267,0.47683 -0.36561,0.66067 -0.57288,0.8567 -0.24673,0.23334 -0.37658,0.26486 -0.60485,0.14682 -0.25142,-0.13002 -0.39363,0.006 -0.73567,0.7018 -0.0999,0.2034 -0.19579,0.37599 -0.21299,0.38352 -0.0172,0.008 -0.0315,0.0353 -0.0319,0.0616 -5.8e-4,0.0468 -0.28736,0.39765 -0.49266,0.60268 -0.16833,0.16812 -0.30577,0.37258 -0.46265,0.68826 -0.13382,0.26927 -0.41319,0.66688 -0.49347,0.70231 -0.0513,0.0226 -0.15323,0.2422 -0.15323,0.3301 0,0.0446 0.0456,0.13523 0.10126,0.20142 0.10348,0.12298 0.29396,0.1959 0.78222,0.29947 0.1356,0.0288 0.26504,0.0652 0.28764,0.0809 0.0226,0.0157 0.17978,0.0612 0.34928,0.10108 0.16951,0.0399 0.32576,0.0886 0.34723,0.10835 0.0215,0.0197 0.0642,0.0358 0.095,0.0358 0.0308,0 0.16115,0.0477 0.2897,0.10604 0.12856,0.0583 0.27072,0.12116 0.31592,0.13963 0.0452,0.0185 0.1497,0.0632 0.23221,0.0994 0.0825,0.0362 0.17061,0.0658 0.19575,0.0658 0.0251,0 0.0778,0.0173 0.11707,0.0384 0.0392,0.0211 0.30093,0.15197 0.58154,0.29075 0.2806,0.13877 0.56897,0.29715 0.6408,0.35194 0.0718,0.0548 0.14736,0.1004 0.16783,0.10136 0.0205,9.4e-4 0.12967,0.0933 0.24267,0.2051 0.11301,0.11185 0.22858,0.20353 0.25683,0.20373 0.0282,0 0.0514,0.0143 0.0514,0.0314 0,0.0311 0.0827,0.0726 0.39038,0.19586 0.0904,0.0362 0.21984,0.091 0.28764,0.12182 0.0678,0.0308 0.23423,0.0966 0.36983,0.14633 0.1356,0.0497 0.26412,0.10658 0.28559,0.12639 0.0215,0.0198 0.0717,0.036 0.11161,0.036 0.0766,0 0.24061,0.0655 0.60566,0.24194 0.25486,0.12317 0.71688,0.52225 0.88845,0.76742 0.0643,0.0918 0.15504,0.18652 0.20171,0.21042 0.55722,0.28526 0.76645,0.38281 0.8211,0.38281 0.0358,0 0.065,0.0185 0.065,0.0411 0,0.0226 0.0348,0.0411 0.0772,0.0411 0.13714,0 1.19602,0.58354 1.51337,0.83401 0.0345,0.0272 0.17607,0.15601 0.31467,0.28623 0.1386,0.13021 0.28899,0.24828 0.33421,0.26236 0.0452,0.0141 0.0929,0.0421 0.10591,0.0623 0.013,0.0202 0.16576,0.0527 0.33937,0.0721 0.17361,0.0195 0.36035,0.0647 0.41499,0.10049 0.18655,0.12224 0.84084,0.82066 0.88756,0.94744 0.0759,0.20596 0.15266,0.3293 0.23212,0.37304 0.0411,0.0226 0.0839,0.0522 0.0952,0.0658 0.021,0.0253 0.30176,0.11623 0.59584,0.19295 0.40222,0.10494 0.50539,0.12768 0.69856,0.15399 0.23352,0.0318 0.47329,0.2239 0.55632,0.4457 0.0263,0.0702 0.0624,0.1647 0.0802,0.2099 0.0178,0.0452 0.0528,0.15776 0.0777,0.25014 0.0249,0.0924 0.0778,0.19608 0.11753,0.23046 0.0981,0.0848 0.32212,0.15633 0.48987,0.15633 0.076,0 0.17036,0.0166 0.20961,0.0369 0.0392,0.0203 0.15456,0.0707 0.25626,0.11214 0.1017,0.0414 0.24964,0.13559 0.32874,0.20932 0.0791,0.0737 0.16378,0.13422 0.18818,0.13441 0.0244,0 0.20007,0.167 0.39038,0.37067 0.36343,0.38896 0.43982,0.43976 0.83911,0.55804 0.1356,0.0402 0.31553,0.11584 0.39983,0.16818 0.0843,0.0523 0.1706,0.0951 0.19176,0.0951 0.0212,0 0.0447,0.0142 0.0522,0.0316 0.008,0.0174 0.19861,0.15014 0.42461,0.29505 0.22601,0.14491 0.42017,0.27541 0.43147,0.28999 0.0113,0.0146 0.0806,0.0615 0.15409,0.10419 0.0735,0.0427 0.13355,0.0919 0.13355,0.10939 0,0.0174 0.0786,0.0809 0.17464,0.141 0.0961,0.0601 0.27886,0.19903 0.40623,0.30871 0.12737,0.10968 0.25219,0.19942 0.27737,0.19942 0.0252,0 0.0458,0.0185 0.0458,0.0411 0,0.0226 0.037,0.0411 0.0822,0.0411 0.0452,0 0.0822,0.0185 0.0822,0.0411 0,0.0226 0.0193,0.0411 0.0428,0.0411 0.0236,0 0.14297,0.074 0.26534,0.16437 0.12237,0.0904 0.24178,0.16436 0.26535,0.16436 0.0236,0 0.0428,0.014 0.0428,0.0311 0,0.0171 0.0508,0.0533 0.11301,0.0805 0.0622,0.0272 0.19678,0.0863 0.29917,0.13124 0.17327,0.0761 0.49966,0.2908 0.59504,0.39138 0.0229,0.0241 0.10387,0.16797 0.18003,0.31971 0.26217,0.52229 0.41625,0.55267 0.81117,0.15989 0.20165,-0.20056 0.22151,-0.21016 0.45201,-0.21866 0.55257,-0.0204 0.78524,-0.0153 0.96021,0.0207 0.1017,0.021 0.83874,0.0352 1.63787,0.0316 l 1.45296,-0.007 0.19072,0.20141 c 0.25671,0.27109 0.43676,0.34848 0.75877,0.32614 0.50713,-0.0352 0.75404,-0.10827 0.91075,-0.26961 0.0794,-0.0817 0.14433,-0.16054 0.14433,-0.17515 0,-0.0146 0.0778,-0.078 0.17281,-0.14092 0.11562,-0.0765 0.28176,-0.13327 0.50198,-0.17148 0.18104,-0.0314 0.33904,-0.0721 0.35111,-0.0904 0.045,-0.0684 0.28544,-0.0999 0.88106,-0.11574 l 0.61257,-0.0163 0.1984,0.12334 c 0.10913,0.0678 0.3235,0.1547 0.47638,0.19303 0.15288,0.0383 0.34694,0.11323 0.43124,0.16644 0.0843,0.0532 0.18138,0.0967 0.21573,0.0967 0.0344,0 0.0625,0.0141 0.0625,0.0314 0,0.0173 0.0786,0.0647 0.17464,0.10545 0.096,0.0407 0.22549,0.0958 0.28764,0.12246 0.0622,0.0266 0.11301,0.0624 0.11301,0.0795 0,0.0171 0.0205,0.0311 0.0455,0.0311 0.0952,0 0.60691,0.27061 0.98181,0.5192 0.54416,0.36081 0.79568,0.57736 0.94814,0.81629 0.0721,0.11301 0.17316,0.24786 0.22456,0.29967 0.0514,0.0518 0.12316,0.15352 0.15947,0.22601 0.0363,0.0725 0.11304,0.21501 0.17053,0.31671 0.0944,0.16703 0.10201,0.2133 0.0786,0.4785 -0.0391,0.44275 0.0634,0.69886 0.56966,1.42279 0.20855,0.2982 0.32205,0.42139 0.4414,0.47905 0.0884,0.0427 0.17104,0.0608 0.18373,0.0403 0.0436,-0.0705 0.34358,-0.038 0.50796,0.0551 0.0898,0.0508 0.26035,0.17567 0.37908,0.27737 0.31986,0.27401 1.27122,1.22852 1.41241,1.41709 0.0674,0.0901 0.16141,0.20103 0.20878,0.24656 0.24558,0.23593 0.40682,0.75404 0.2625,0.84345 -0.0829,0.0513 -0.0648,0.84141 0.0253,1.1069 0.075,0.22101 0.24271,0.45411 0.32669,0.45411 0.0327,0 0.0596,0.0185 0.0596,0.0411 0,0.0226 0.018,0.0411 0.04,0.0411 0.0381,0 0.25644,0.0929 0.73142,0.31131 0.11915,0.0548 0.24064,0.0996 0.26997,0.0996 0.0293,0 0.126,0.0619 0.21482,0.13746 0.0888,0.0756 0.17998,0.14497 0.20259,0.15414 0.0226,0.009 0.2011,0.12299 0.39667,0.25291 0.19557,0.12993 0.37586,0.23624 0.40065,0.23624 0.0248,0 0.0451,0.0139 0.0452,0.0308 0,0.017 0.0879,0.0664 0.19519,0.10997 0.10727,0.0435 0.20428,0.0898 0.21558,0.10273 0.0113,0.013 0.0853,0.0586 0.16437,0.10141 0.0791,0.0428 0.1808,0.10949 0.226,0.14817 0.0452,0.0387 0.14635,0.10536 0.22478,0.14817 0.0784,0.0428 0.17409,0.10557 0.21258,0.13947 0.0385,0.0339 0.32468,0.19108 0.63596,0.34929 0.31129,0.1582 0.60617,0.32601 0.6553,0.37291 0.0491,0.0469 0.15183,0.10884 0.2282,0.13766 0.4384,0.1654 1.19934,0.63924 1.45123,0.90368 0.0664,0.0697 0.13653,0.12669 0.15589,0.12669 0.0194,0 0.085,0.0462 0.14599,0.10273 0.0609,0.0565 0.12565,0.10273 0.14382,0.10273 0.0182,0 0.0831,0.0466 0.14424,0.10356 0.0612,0.057 0.16206,0.12619 0.22421,0.15385 0.0622,0.0277 0.11301,0.0615 0.11301,0.0752 0,0.0137 0.13897,0.0576 0.30882,0.0976 0.16986,0.04 0.31888,0.089 0.33116,0.10887 0.0123,0.0199 0.0492,0.0361 0.0821,0.0361 0.14725,0 0.63186,0.27508 0.8859,0.50287 0.069,0.0619 0.20234,0.13521 0.2963,0.16297 0.094,0.0278 0.27254,0.1066 0.39685,0.17516 0.1243,0.0686 0.27434,0.14957 0.33341,0.17999 0.0591,0.0304 0.15535,0.0998 0.21395,0.15408 0.0586,0.0543 0.12133,0.0988 0.13943,0.0988 0.0181,0 0.0839,0.0843 0.1461,0.18739 0.0902,0.14925 0.16119,0.20824 0.34899,0.28981 0.55982,0.24315 0.81701,0.3987 1.03708,0.62722 0.23409,0.24308 0.66292,0.58035 0.7379,0.58035 0.0236,0 0.0428,0.0155 0.0428,0.0344 0,0.0189 0.10633,0.0691 0.23628,0.11155 0.12995,0.0424 0.2871,0.11138 0.34921,0.15324 0.19266,0.12985 0.3333,0.10425 0.61065,-0.11113 l 0.25019,-0.19428 0.31441,0.0251 c 0.17292,0.0138 0.45508,0.0237 0.62702,0.0219 0.37543,-0.004 1.01844,0.12298 1.41337,0.27872 0.36151,0.14256 0.37896,0.15441 0.5605,0.38053 0.0823,0.10256 0.23026,0.2264 0.32873,0.2752 0.20374,0.10098 0.54201,0.21635 0.63436,0.21635 0.0341,0 0.10759,0.0455 0.16324,0.10117 0.17175,0.17175 0.33674,0.19343 1.33331,0.1752 1.00931,-0.0185 1.15447,-0.0405 1.58012,-0.24013 0.15715,-0.0737 0.3698,-0.1492 0.47256,-0.1678 0.45277,-0.0819 0.90484,-0.12142 1.1441,-0.0999 0.25836,0.0232 1.1805,-0.0745 1.26071,-0.13363 0.11866,-0.0875 0.42966,-0.13233 0.97046,-0.14002 l 0.59964,-0.009 0.11705,0.13855 c 0.21167,0.25054 0.26571,0.39397 0.26571,0.70532 0,0.68 -0.42231,0.97954 -1.38627,0.98326 -0.20873,8.2e-4 -0.46761,0.0224 -0.57528,0.048 -0.36465,0.0866 -0.64763,0.17169 -0.68683,0.20649 -0.0215,0.0191 -0.0677,0.0348 -0.10273,0.0349 -0.035,0 -0.11666,0.0279 -0.18139,0.0616 -0.0647,0.0338 -0.2083,0.0614 -0.31903,0.0614 -0.11072,0 -0.23342,0.0156 -0.27267,0.0347 -0.0392,0.0191 -0.11271,0.0561 -0.16325,0.0822 -0.0505,0.0261 -0.11084,0.0475 -0.134,0.0475 -0.0232,0 -0.18962,0.0925 -0.36993,0.20546 -0.18032,0.113 -0.35116,0.20605 -0.37966,0.20677 -0.0285,7e-4 -0.0877,0.0285 -0.13157,0.0616 -0.0439,0.0332 -0.13944,0.0603 -0.21238,0.0603 -0.17294,0 -0.2626,0.0363 -0.2626,0.10634 0,0.0932 0.1489,0.10602 1.34256,0.11565 1.24796,0.0101 1.30558,0.0189 1.686,0.25932 0.11756,0.0743 0.24793,0.13507 0.2897,0.13507 0.0418,0 0.0945,0.0185 0.11715,0.0412 0.0227,0.0227 0.26214,0.0597 0.53215,0.0823 0.6574,0.0551 0.84527,0.0796 0.94293,0.12336 0.0452,0.0202 0.3688,0.0458 0.71911,0.0567 1.0507,0.0329 1.34026,0.12119 1.63192,0.49765 0.21941,0.28321 0.25831,0.39157 0.25831,0.71959 0,0.23137 -0.0204,0.32071 -0.10943,0.48026 -0.13184,0.23614 -0.15915,0.26468 -0.33862,0.35382 -0.17234,0.0856 -0.42866,0.0883 -0.80527,0.009 -0.1582,-0.0335 -0.40442,-0.0613 -0.54715,-0.0616 -0.14275,-4.1e-4 -0.29992,-0.0224 -0.34929,-0.0489 -0.053,-0.0285 -0.30819,-0.0513 -0.62395,-0.0558 -0.60317,-0.009 -1.37794,-0.0999 -1.68477,-0.19874 -0.2298,-0.074 -0.41483,-0.0861 -0.44986,-0.0295 -0.0664,0.10747 -0.8907,0.085 -1.37873,-0.0375 -0.10171,-0.0255 -0.28939,-0.0615 -0.41709,-0.0799 -0.12769,-0.0184 -0.24877,-0.0438 -0.26906,-0.0563 -0.0203,-0.0125 -0.0632,-0.007 -0.0954,0.0134 -0.0477,0.0295 -0.0435,0.0416 0.0225,0.0656 0.0446,0.0162 0.12726,0.061 0.18376,0.0995 0.0565,0.0386 0.14896,0.0829 0.20546,0.0986 0.10813,0.03 0.25997,0.0906 0.37954,0.15142 0.0393,0.02 0.11321,0.0366 0.16437,0.0369 0.0512,4.1e-4 0.16698,0.0273 0.25738,0.0598 0.0904,0.0326 0.22472,0.06 0.29848,0.061 0.13521,0.002 0.28088,0.0639 0.35817,0.15266 0.0728,0.0836 0.34879,0.21897 0.4464,0.21897 0.0516,0 0.18961,0.0462 0.30673,0.10273 0.11713,0.0565 0.23179,0.10273 0.25481,0.10273 0.023,0 0.0739,0.0166 0.1132,0.0369 0.0392,0.0203 0.15456,0.0687 0.25627,0.10765 0.29858,0.11428 0.33936,0.13117 0.54669,0.22635 0.10857,0.0498 0.30273,0.1042 0.43146,0.12079 0.12873,0.0166 0.31727,0.0622 0.41897,0.10136 0.1017,0.0392 0.22652,0.0811 0.27737,0.0932 0.0508,0.0121 0.0925,0.0383 0.0925,0.0583 0,0.02 0.026,0.0363 0.0579,0.0363 0.049,0 0.28398,0.10367 0.56824,0.25073 0.0393,0.0203 0.14408,0.0369 0.23295,0.0369 0.0889,0 0.2232,0.0309 0.29848,0.0686 0.24663,0.12359 0.27897,0.13687 0.33322,0.13687 0.0661,0 0.36453,0.31136 0.43476,0.4536 0.0625,0.12663 0.009,0.53066 -0.10211,0.76378 -0.0847,0.1785 -0.32133,0.4263 -0.40709,0.4263 -0.0331,0 -0.0603,0.0185 -0.0603,0.0411 0,0.0476 -0.87348,0.0579 -0.92051,0.0109 -0.0388,-0.0388 -0.46004,-0.12813 -0.62062,-0.13156 -0.0679,-10e-4 -0.27594,-0.0766 -0.46232,-0.167 -0.18637,-0.0904 -0.35759,-0.16437 -0.38048,-0.16437 -0.0229,0 -0.0784,-0.0185 -0.12324,-0.0411 -0.0449,-0.0226 -0.11799,-0.0593 -0.16242,-0.0817 -0.11931,-0.0599 -0.39992,-0.12787 -0.67941,-0.16454 -0.1356,-0.0178 -0.38524,-0.0711 -0.55474,-0.11838 -0.20924,-0.0584 -0.42998,-0.0862 -0.6875,-0.0867 -0.35785,-6.6e-4 -0.39154,-0.008 -0.59583,-0.13683 -0.22965,-0.14438 -0.59004,-0.27479 -0.75937,-0.27479 -0.10781,0 -0.22627,-0.0733 -0.5772,-0.35728 -0.11882,-0.0961 -0.31691,-0.22251 -0.44022,-0.28085 -0.18818,-0.089 -0.23928,-0.0983 -0.31817,-0.0576 -0.19343,0.0998 -0.2789,0.21208 -0.2789,0.36642 0,0.17507 0.0702,0.25116 0.54106,0.58675 0.50655,0.361 0.93801,0.72469 1.22266,1.03059 0.0809,0.0869 0.23952,0.21821 0.35252,0.29176 0.113,0.0736 0.35339,0.25258 0.53419,0.39786 0.18081,0.14527 0.48592,0.34281 0.67802,0.43897 0.19211,0.0962 0.45099,0.24584 0.57529,0.33261 0.23769,0.16593 0.92337,0.82887 1.12554,1.08824 0.11337,0.14543 0.11772,0.16646 0.0954,0.46118 -0.0213,0.28103 -0.0385,0.32891 -0.19203,0.53221 -0.0928,0.12288 -0.19581,0.22341 -0.22898,0.22341 -0.0332,0 -0.0603,0.0185 -0.0603,0.0411 0,0.0576 -0.87175,0.0527 -1.0151,-0.006 -0.31644,-0.12904 -0.4242,-0.18857 -0.78876,-0.43574 -0.21701,-0.14714 -0.4223,-0.27799 -0.4562,-0.29081 -0.0814,-0.0308 -0.16437,-0.1145 -0.16437,-0.16597 0,-0.0667 -0.20932,-0.1927 -0.44598,-0.26847 -0.12098,-0.0387 -0.2874,-0.11431 -0.36982,-0.16793 -0.19425,-0.12637 -0.53369,-0.31514 -0.86897,-0.48325 -0.14691,-0.0737 -0.27326,-0.1478 -0.2808,-0.16475 -0.008,-0.017 -0.0445,-0.0312 -0.0822,-0.0317 -0.069,-9e-4 -0.56719,-0.46691 -1.00168,-0.93694 -0.12904,-0.1396 -0.25386,-0.25382 -0.27737,-0.25382 -0.0235,0 -0.0427,-0.014 -0.0427,-0.0311 0,-0.0336 -0.16386,-0.10976 -0.32874,-0.15277 -0.0565,-0.0147 -0.13971,-0.0432 -0.18491,-0.0632 -0.0452,-0.02 -0.1654,-0.0633 -0.2671,-0.0962 -0.1017,-0.0329 -0.24039,-0.0824 -0.30819,-0.10992 -0.0678,-0.0276 -0.16026,-0.0641 -0.20546,-0.0812 -0.50839,-0.19211 -0.56172,-0.21593 -0.77852,-0.34766 -0.15278,-0.0928 -0.17056,-0.095 -0.30763,-0.0377 -0.08,0.0334 -0.1882,0.10092 -0.24041,0.14996 -0.0741,0.0696 -0.15449,0.0917 -0.3661,0.10046 -0.21539,0.009 -0.29903,0.0325 -0.40664,0.1146 -0.11238,0.0857 -0.19786,0.10775 -0.5017,0.12932 -0.25515,0.0181 -0.37501,0.0118 -0.39517,-0.0208 -0.0406,-0.0657 -0.16885,-0.0583 -0.22808,0.013 -0.0611,0.0736 -0.0358,0.1131 0.32109,0.501 0.43735,0.47539 0.47608,0.5229 0.56092,0.68809 0.0499,0.0971 0.15281,0.20214 0.26178,0.2671 0.0988,0.0589 0.20378,0.13019 0.23334,0.15844 0.0296,0.0283 0.0708,0.0514 0.0916,0.0514 0.0754,0 0.81512,0.80556 0.88669,0.96566 0.0608,0.13597 0.23806,0.51089 0.40292,0.8521 0.11693,0.242 -0.0298,0.69013 -0.29134,0.88958 -0.12852,0.098 -0.17364,0.10731 -0.51365,0.10578 -0.41238,-0.002 -0.44795,-0.015 -0.82688,-0.30523 -0.13677,-0.10477 -0.39217,-0.25952 -0.56755,-0.3439 -0.18601,-0.0895 -0.37347,-0.21559 -0.44989,-0.30263 -0.36441,-0.41507 -0.58306,-0.60595 -0.97824,-0.85398 -0.18301,-0.11486 -0.31097,-0.22131 -0.58039,-0.48284 -0.2782,-0.27004 -0.76429,-0.64782 -0.83357,-0.64782 -0.1313,0 -0.52708,-0.26614 -0.80457,-0.54104 -0.53898,-0.53393 -0.70785,-0.99648 -0.75835,-2.07723 -0.0356,-0.76071 -0.10225,-0.87696 -0.65492,-1.14151 -0.50112,-0.23986 -0.66186,-0.32713 -0.84729,-0.45997 -0.1044,-0.0748 -0.20787,-0.136 -0.22991,-0.136 -0.0685,0 -0.17611,-0.14593 -0.17611,-0.23892 0,-0.13119 -0.0942,-0.45964 -0.13179,-0.45964 -0.0179,0 -0.0326,-0.0245 -0.0326,-0.0545 0,-0.0532 -0.16589,-0.23317 -0.21497,-0.23317 -0.0442,0 -0.50997,-0.50478 -0.79825,-0.86516 -0.26865,-0.33585 -0.33589,-0.43301 -0.44866,-0.64829 -0.0806,-0.15378 -0.18907,-0.23354 -0.39675,-0.29159 -0.10693,-0.0299 -0.21552,-0.0798 -0.24131,-0.11085 -0.0258,-0.0311 -0.0641,-0.0565 -0.0852,-0.0565 -0.0211,0 -0.0974,-0.0558 -0.16961,-0.12401 -0.0722,-0.0682 -0.18679,-0.16273 -0.25459,-0.21004 -0.0678,-0.0473 -0.18694,-0.16596 -0.26474,-0.26365 -0.0778,-0.0977 -0.18766,-0.20196 -0.24413,-0.23171 -0.0565,-0.0297 -0.27018,-0.21746 -0.47492,-0.41717 -0.46603,-0.45457 -0.6349,-0.57234 -0.95781,-0.66798 -0.14125,-0.0418 -0.25682,-0.0905 -0.25682,-0.10805 0,-0.0176 -0.0271,-0.032 -0.0603,-0.032 -0.0589,0 -0.15951,-0.04 -0.57668,-0.22926 -0.113,-0.0513 -0.3349,-0.15194 -0.4931,-0.22371 -0.15821,-0.0718 -0.38935,-0.1819 -0.51365,-0.24473 -0.35145,-0.17761 -0.77568,-0.39023 -1.06839,-0.53547 -0.14691,-0.0729 -0.3873,-0.19277 -0.5342,-0.2664 -0.2943,-0.1475 -0.56061,-0.26677 -0.78075,-0.34965 -0.0791,-0.0298 -0.19929,-0.0938 -0.2671,-0.14226 -0.11129,-0.0796 -0.28548,-0.1668 -0.78074,-0.39106 -0.3465,-0.1569 -0.46556,-0.20625 -0.49754,-0.20625 -0.0182,0 -0.21881,-0.0903 -0.4458,-0.20068 -0.77257,-0.37568 -1.24267,-0.58007 -1.33416,-0.58007 -0.0379,0 -0.0864,-0.0157 -0.10789,-0.035 -0.0503,-0.0451 -0.51063,-0.17048 -0.62584,-0.17048 -0.0837,0 -0.36002,-0.13539 -0.58432,-0.28635 -0.18883,-0.12707 -0.36221,-0.1759 -0.523,-0.14728 -0.39262,0.0699 -0.57007,0.0714 -0.62479,0.006 -0.0297,-0.0357 -0.0794,-0.065 -0.11054,-0.065 -0.0311,0 -0.0566,-0.0151 -0.0566,-0.0335 0,-0.0185 -0.11557,-0.0857 -0.25683,-0.14957 -0.48266,-0.21806 -0.60728,-0.28244 -0.65281,-0.3373 -0.025,-0.0302 -0.0695,-0.0549 -0.0987,-0.0549 -0.0292,0 -0.0593,-0.0139 -0.0669,-0.0308 -0.0174,-0.0392 -0.23131,-0.15968 -0.77389,-0.43582 -0.23731,-0.12078 -0.53317,-0.28396 -0.65747,-0.36263 -0.36486,-0.23091 -1.01038,-0.52677 -1.14936,-0.52677 -0.0424,0 -0.13293,-0.047 -0.20117,-0.1044 -0.11638,-0.0979 -0.47279,-0.24045 -0.84789,-0.33905 -0.0904,-0.0238 -0.3123,-0.0833 -0.49311,-0.1322 -0.1808,-0.0489 -0.42836,-0.10813 -0.55014,-0.13155 -0.23037,-0.0443 -0.3567,-0.13726 -0.53494,-0.39367 -0.1233,-0.17735 -0.35711,-0.27837 -0.77959,-0.33683 -0.40374,-0.0559 -0.48003,-0.0817 -0.63252,-0.214 -0.0626,-0.0543 -0.21056,-0.14824 -0.32874,-0.20866 -0.42002,-0.21476 -0.53112,-0.23409 -1.34886,-0.23473 -0.86593,-7e-4 -0.9293,-0.0168 -1.20826,-0.30832 -0.23973,-0.25048 -0.34928,-0.38605 -0.34928,-0.43225 0,-0.0224 -0.0185,-0.0408 -0.0411,-0.0408 -0.0226,0 -0.0411,-0.0276 -0.0411,-0.0613 0,-0.0909 -0.24758,-0.3108 -0.37975,-0.33724 -0.0633,-0.0127 -0.12502,-0.0391 -0.13718,-0.0588 -0.0122,-0.0197 -0.0675,-0.0358 -0.12298,-0.0358 -0.0555,0 -0.13297,-0.0176 -0.17222,-0.0391 -0.26073,-0.14288 -0.96306,-0.37182 -1.14066,-0.37182 -0.0695,0 -0.14403,-0.0147 -0.1655,-0.0327 -0.0215,-0.018 -0.11301,-0.0571 -0.20341,-0.0869 -0.0904,-0.0298 -0.29381,-0.1148 -0.45201,-0.18882 -0.34676,-0.16223 -0.68662,-0.26683 -0.86697,-0.26683 -0.0731,0 -0.1391,-0.017 -0.14663,-0.0378 -0.0169,-0.0466 -0.71472,-0.37308 -0.79744,-0.37308 -0.0329,0 -0.0919,-0.0163 -0.13111,-0.0363 -0.14474,-0.0736 -0.28501,-0.12447 -0.62826,-0.22772 -0.26958,-0.0811 -0.38393,-0.13923 -0.49089,-0.24959 -0.23017,-0.23747 -0.50276,-0.17126 -0.66149,0.16068 -0.0442,0.0924 -0.14921,0.24407 -0.23337,0.33704 -0.19158,0.2116 -0.26494,0.29935 -0.52879,0.63247 -0.2143,0.27058 -0.49258,0.54886 -0.57905,0.57907 -0.0261,0.009 -0.11777,0.0764 -0.20377,0.14951 -0.3289,0.27967 -0.61013,0.46287 -0.71001,0.46253 -0.0571,0 -0.2795,-0.089 -0.4942,-0.19744 -0.21471,-0.10839 -0.50133,-0.23141 -0.63693,-0.27336 -0.1356,-0.042 -0.27429,-0.0896 -0.30819,-0.10596 -0.2346,-0.11296 -0.64076,-0.24473 -0.75433,-0.24473 -0.0774,0 -0.13428,-0.0144 -0.50565,-0.12835 -0.0828,-0.0254 -0.30004,-0.1502 -0.48283,-0.27737 -0.18278,-0.12716 -0.4063,-0.26801 -0.4967,-0.31299 -0.0904,-0.045 -0.17699,-0.0995 -0.19242,-0.12123 -0.0593,-0.0833 -0.31417,-0.0338 -0.43197,0.0839 l -0.11527,0.11518 -0.0136,0.72849 c -0.0131,0.70174 0.0332,1.15311 0.15537,1.51493 0.0191,0.0565 0.0654,0.21368 0.10294,0.34928 0.0375,0.1356 0.0857,0.27866 0.10694,0.3179 0.0213,0.0393 0.0387,0.10551 0.0387,0.14725 0,0.0417 0.0128,0.0887 0.0284,0.10427 0.0156,0.0156 0.0689,0.162 0.11832,0.32532 0.0495,0.16331 0.12916,0.40279 0.17709,0.53218 0.0479,0.12939 0.0871,0.29799 0.0871,0.37467 0,0.11834 0.10052,0.35518 0.31666,0.74611 0.025,0.0452 0.0778,0.19776 0.11745,0.33901 0.0396,0.14125 0.0876,0.25683 0.10659,0.25683 0.019,0 0.0346,0.02 0.0346,0.0444 0,0.0245 0.0625,0.12153 0.13887,0.21574 0.0764,0.0942 0.17665,0.24525 0.22283,0.33565 0.0804,0.15736 0.11894,0.21307 0.32659,0.4719 0.0508,0.0634 0.0925,0.13294 0.0925,0.15456 0,0.0216 0.0462,0.12626 0.10273,0.23253 0.0565,0.10626 0.10276,0.21534 0.1028,0.24239 0,0.0271 0.0804,0.20637 0.17854,0.39848 0.16845,0.32968 0.30014,0.67432 0.45533,1.19166 0.0373,0.12431 0.0837,0.26299 0.10319,0.30819 0.0195,0.0452 0.0664,0.19314 0.10429,0.32874 0.0758,0.27126 0.0879,0.3036 0.24326,0.64832 0.0588,0.13057 0.10699,0.26354 0.10699,0.29549 0,0.0319 0.0185,0.0695 0.0411,0.0835 0.0226,0.014 0.0411,0.0668 0.0411,0.11748 0,0.0506 0.0159,0.10965 0.0353,0.13112 0.0195,0.0215 0.0701,0.14074 0.11267,0.26505 0.0425,0.1243 0.0876,0.23525 0.10017,0.24655 0.0126,0.0113 0.0575,0.137 0.0999,0.27933 0.0424,0.14234 0.0923,0.26825 0.11102,0.2798 0.0187,0.0116 0.034,0.0582 0.034,0.1037 0,0.0659 0.2839,0.87968 0.44969,1.28904 0.0326,0.0804 0.22554,0.70071 0.29403,0.94511 0.24985,0.8917 0.3658,1.19904 0.46698,1.23787 0.0556,0.0213 0.41763,0.72339 0.50592,0.9811 0.13596,0.39683 0.15848,1.14694 0.0524,1.74641 -0.17981,1.01646 -0.25335,1.32379 -0.36163,1.51116 -0.12174,0.21068 -0.11482,0.28652 0.10165,1.11405 0.21555,0.82398 0.22297,0.88105 0.25733,1.97709 0.0174,0.55371 0.0543,1.14544 0.082,1.31494 0.0752,0.45951 0.0605,2.14584 -0.0201,2.30167 -0.0361,0.0697 -0.0614,0.2294 -0.0614,0.38723 0,0.1477 -0.0177,0.3474 -0.0393,0.44377 -0.0216,0.0964 -0.0793,0.38789 -0.12828,0.64779 -0.049,0.25991 -0.10641,0.55577 -0.12769,0.65748 -0.0213,0.1017 -0.0548,0.36058 -0.0746,0.57528 -0.0522,0.56854 -0.12369,0.96143 -0.25408,1.39713 -0.054,0.18045 -0.11695,0.32575 -0.3677,0.8487 -0.11004,0.22948 -0.20007,0.44701 -0.20007,0.48339 0,0.0364 -0.0163,0.0983 -0.0363,0.13751 -0.02,0.0392 -0.055,0.11758 -0.0778,0.17408 -0.0228,0.0565 -0.0874,0.20443 -0.14361,0.32874 -0.16128,0.35692 -0.19429,0.44964 -0.19456,0.5464 0,0.0498 -0.0279,0.14348 -0.0616,0.20822 -0.0338,0.0647 -0.0614,0.14048 -0.0614,0.16833 0,0.0278 -0.0263,0.10432 -0.0585,0.16994 -0.06,0.1225 -0.26942,0.58254 -0.38165,0.83843 -0.11198,0.2553 -0.27838,0.59526 -0.3017,0.61638 -0.0125,0.0113 -0.0568,0.0945 -0.0985,0.18491 -0.0417,0.0904 -0.12855,0.24167 -0.19304,0.33614 -0.0645,0.0945 -0.11725,0.18592 -0.11725,0.20321 0,0.0173 -0.0482,0.0817 -0.10711,0.14324 -0.082,0.0856 -0.11585,0.17764 -0.1444,0.39262 -0.0645,0.48546 -0.0853,0.58914 -0.12286,0.61237 -0.0201,0.0124 -0.0366,0.0501 -0.0366,0.0838 0,0.0336 -0.0647,0.16236 -0.14382,0.28601 -0.0791,0.12366 -0.14382,0.2361 -0.14382,0.24988 0,0.0309 -0.38464,0.59763 -0.5068,0.74679 -0.21708,0.26504 -0.61101,0.62422 -0.7126,0.64972 -0.0611,0.0153 -0.18078,0.009 -0.2659,-0.0134 -0.1213,-0.0324 -0.18404,-0.0273 -0.29012,0.0236 -0.15205,0.0729 -0.32027,0.22558 -0.32027,0.29067 0,0.0236 -0.0139,0.0431 -0.0308,0.0433 -0.0962,9.9e-4 -0.25683,0.64102 -0.25683,1.0233 0,0.17447 -0.0191,0.25444 -0.0719,0.30133 -0.10285,0.0913 -0.37252,0.23655 -0.43919,0.23655 -0.0311,0 -0.15508,0.0508 -0.27544,0.113 -0.23701,0.12238 -0.47333,0.34178 -0.57013,0.52929 -0.0335,0.0648 -0.0726,0.12715 -0.0869,0.13845 -0.0143,0.0113 -0.0549,0.10598 -0.0902,0.21038 -0.0353,0.10441 -0.0991,0.25234 -0.14173,0.32874 -0.0427,0.0764 -0.11172,0.23136 -0.15347,0.34436 -0.0418,0.113 -0.10656,0.25169 -0.14401,0.30819 -0.0986,0.14872 -0.41031,0.79887 -0.41031,0.85574 0,0.0266 -0.014,0.0483 -0.0311,0.0483 -0.0171,0 -0.0551,0.0543 -0.0845,0.1207 -0.0721,0.16297 -0.36029,0.45455 -0.44942,0.45477 -0.0816,0 -0.69238,0.30089 -0.78931,0.38861 -0.10555,0.0955 -0.359,0.63515 -0.41568,0.88506 -0.0179,0.0791 -0.0512,0.20854 -0.074,0.28765 -0.0228,0.0791 -0.0625,0.22703 -0.0884,0.32873 -0.0259,0.10171 -0.0633,0.2219 -0.0831,0.2671 -0.0198,0.0452 -0.0671,0.18389 -0.10516,0.30819 -0.038,0.1243 -0.085,0.24357 -0.10432,0.26504 -0.0193,0.0215 -0.0351,0.0816 -0.0351,0.13355 0,0.052 -0.0185,0.0945 -0.0411,0.0945 -0.0226,0 -0.0411,0.0213 -0.0411,0.0474 0,0.0567 -0.17638,0.44949 -0.29238,0.65117 -0.0455,0.0791 -0.0929,0.17618 -0.10543,0.21573 -0.0125,0.0396 -0.039,0.0719 -0.059,0.0719 -0.02,0 -0.0363,0.0233 -0.0363,0.0518 0,0.0285 -0.0462,0.10164 -0.10273,0.16257 -0.0565,0.0609 -0.10302,0.12547 -0.10339,0.1434 -7.4e-4,0.0365 -0.16196,0.22751 -0.42633,0.50517 -0.24333,0.25556 -0.81206,0.5342 -1.09036,0.5342 -0.0604,0 -0.13061,0.0207 -0.15593,0.046 -0.0253,0.0253 -0.17232,0.0501 -0.32668,0.0551 -0.15435,0.005 -0.31147,0.0226 -0.34913,0.0392 -0.0894,0.0394 -0.23167,0.25819 -0.41656,0.64041 -0.082,0.1695 -0.19623,0.38215 -0.25386,0.47255 -0.0576,0.0904 -0.11588,0.19673 -0.12946,0.23628 -0.0136,0.0396 -0.0389,0.0719 -0.0562,0.0719 -0.0173,0 -0.0812,0.105 -0.14195,0.23332 -0.11343,0.23957 -0.18991,0.35114 -0.42444,0.61922 -0.0742,0.0848 -0.2909,0.38536 -0.48155,0.66787 -0.19064,0.2825 -0.40267,0.57489 -0.47118,0.64973 -0.0685,0.0748 -0.12457,0.1519 -0.12457,0.17122 0,0.0193 -0.0142,0.0413 -0.0315,0.0488 -0.15336,0.0666 -0.54372,0.87362 -0.54381,1.1242 -4e-5,0.0988 -0.0674,0.18927 -0.35117,0.47153 -0.19312,0.19211 -0.43745,0.46948 -0.54295,0.61638 -0.29858,0.41576 -0.4996,0.6079 -0.77778,0.74342 -0.28557,0.13912 -0.50593,0.32364 -0.50593,0.42365 0,0.0361 -0.0185,0.0657 -0.0411,0.0657 -0.0226,0 -0.0411,0.035 -0.0411,0.0778 0,0.0428 -0.0248,0.0873 -0.0552,0.099 -0.0931,0.0357 -0.19655,0.30142 -0.1665,0.42778 0.0375,0.15796 0.12128,0.24399 0.34153,0.35094 0.18281,0.0888 0.68928,0.39724 0.81388,0.49571 0.16266,0.12855 0.62775,0.59737 0.62775,0.63277 0,0.0221 0.0391,0.0753 0.0869,0.11838 0.11956,0.10766 0.43872,0.65867 0.49758,0.85903 0.0266,0.0904 0.0908,0.24189 0.1428,0.33664 0.052,0.0948 0.0945,0.22048 0.0945,0.27941 0,0.2457 0.20793,0.4811 0.42496,0.4811 0.13618,0 0.41295,-0.0756 0.49961,-0.13639 0.11545,-0.0811 0.58506,-0.15947 0.955,-0.15947 0.39111,0 0.49071,0.0219 0.76003,0.16701 0.0392,0.0212 0.0978,0.0385 0.13012,0.0385 0.0323,0 0.0649,0.0139 0.0725,0.0308 0.0136,0.0306 0.45882,0.25682 0.50548,0.25682 0.0354,0 0.47042,0.44798 0.63613,0.65515 0.27644,0.34559 0.60304,0.84783 0.69625,1.07072 0.1527,0.36514 0.26298,0.57528 0.3019,0.57528 0.02,0 0.0326,0.15477 0.0281,0.34393 -0.005,0.18917 0.005,0.36565 0.0216,0.39219 0.0197,0.0318 0.10903,-0.0307 0.26256,-0.1838 0.128,-0.12764 0.27733,-0.24933 0.33185,-0.27043 0.18241,-0.0706 0.63523,0.0281 0.91709,0.19996 0.0843,0.0514 0.17213,0.0934 0.19518,0.0934 0.0231,0 0.0419,0.015 0.0419,0.0334 0,0.0184 0.0647,0.0588 0.14389,0.0899 0.0791,0.031 0.18407,0.0992 0.23317,0.1515 0.0491,0.0523 0.10578,0.095 0.12595,0.095 0.0202,0 0.0955,0.0426 0.16748,0.0946 0.0719,0.052 0.23251,0.12859 0.35681,0.17011 0.12431,0.0415 0.24357,0.0914 0.26505,0.11086 0.0215,0.0194 0.0689,0.0353 0.10531,0.0353 0.0365,0 0.1621,0.0462 0.27922,0.10273 0.11712,0.0565 0.23153,0.10273 0.25424,0.10273 0.0227,0 0.0413,0.0185 0.0413,0.0411 0,0.0226 0.0197,0.0411 0.0438,0.0411 0.0907,0 0.33262,0.22395 0.38987,0.36099 0.0522,0.12491 0.0519,0.168 -0.002,0.35019 -0.0339,0.11427 -0.0617,0.29113 -0.0617,0.39302 0,0.30753 -0.17048,1.03012 -0.32603,1.38187 -0.02,0.0452 -0.0471,0.10992 -0.0603,0.14382 -0.0225,0.0579 -0.30876,0.50982 -0.57404,0.90621 -0.0649,0.097 -0.1518,0.21258 -0.19314,0.25696 -0.0413,0.0444 -0.0868,0.13367 -0.10104,0.19841 -0.0142,0.0648 -0.0429,0.11773 -0.0637,0.11773 -0.0208,0 -0.0378,0.0206 -0.0378,0.0459 0,0.0252 -0.0647,0.13402 -0.14382,0.24178 -0.0791,0.10776 -0.14382,0.20855 -0.14382,0.22398 0,0.0154 -0.0508,0.0958 -0.113,0.1786 -0.3724,0.49609 -0.43996,0.56061 -0.64412,0.61522 -0.18446,0.0493 -0.19932,0.0462 -0.48693,-0.10335 -0.16317,-0.0848 -0.30288,-0.16811 -0.31048,-0.18506 -0.008,-0.017 -0.0482,-0.0308 -0.0901,-0.0308 -0.042,0 -0.0865,-0.0164 -0.0988,-0.0364 -0.0124,-0.02 -0.0897,-0.049 -0.17185,-0.0644 -0.0821,-0.0154 -0.17942,-0.0433 -0.21619,-0.0619 -0.0624,-0.0316 -0.65264,-0.21708 -0.92978,-0.29213 -0.29068,-0.0787 -0.79156,-0.12304 -0.88882,-0.0786 -0.111,0.0507 -0.23053,0.22377 -0.34005,0.49247 -0.0415,0.10171 -0.0909,0.2219 -0.10995,0.2671 -0.019,0.0452 -0.066,0.18389 -0.10435,0.30819 -0.0384,0.12431 -0.13153,0.36142 -0.20704,0.52692 -0.0755,0.16551 -0.13729,0.32361 -0.13729,0.35134 0,0.0277 -0.0161,0.068 -0.0357,0.0895 -0.0196,0.0215 -0.0686,0.13149 -0.10892,0.2445 -0.0403,0.113 -0.18836,0.44584 -0.32906,0.73965 -0.14069,0.29381 -0.2872,0.60816 -0.32558,0.69856 -0.10486,0.24704 -0.16597,0.38408 -0.30298,0.67951 -0.0685,0.14773 -0.13751,0.32022 -0.15335,0.38332 -0.0158,0.0631 -0.0727,0.20565 -0.12627,0.31677 -0.0536,0.11112 -0.0975,0.22088 -0.0975,0.2439 0,0.023 -0.0163,0.0739 -0.0363,0.1132 -0.0874,0.1719 -0.12245,0.29703 -0.16938,0.60555 -0.0275,0.1808 -0.0664,0.40732 -0.0865,0.50337 -0.0201,0.0961 -0.0521,0.25323 -0.0712,0.34929 -0.049,0.2469 -0.13749,0.53751 -0.17775,0.5835 -0.0188,0.0215 -0.0342,0.11045 -0.0342,0.19774 0,0.19432 -0.11854,0.60082 -0.25135,0.86188 -0.02,0.0392 -0.0363,0.10536 -0.0363,0.14693 0,0.0416 -0.0462,0.11901 -0.10273,0.17209 -0.13754,0.1292 -0.14116,0.36049 -0.008,0.48594 0.0523,0.0491 0.11703,0.0893 0.14382,0.0893 0.0268,0 0.0487,0.014 0.0487,0.0311 0,0.0312 0.0847,0.0736 0.39037,0.19559 0.77296,0.30847 1.17112,0.67338 1.17112,1.07329 0,0.34008 -0.16305,1.07442 -0.32724,1.47376 -0.047,0.11427 -0.24954,0.56017 -0.29375,0.64664 -0.0201,0.0393 -0.0368,0.10397 -0.0372,0.14382 -4.1e-4,0.0399 -0.11384,0.29437 -0.25207,0.56558 -0.13823,0.27121 -0.29775,0.58556 -0.3545,0.69856 -0.12223,0.24341 -0.72135,0.88928 -1.00058,1.07867 -0.33665,0.22832 -0.72613,0.16124 -1.28134,-0.22068 -0.11104,-0.0764 -0.22755,-0.13888 -0.25891,-0.13888 -0.0314,0 -0.057,-0.0185 -0.057,-0.0411 0,-0.0226 -0.0228,-0.0411 -0.0508,-0.0411 -0.049,0 -0.48275,-0.20352 -0.52452,-0.24614 -0.0518,-0.0528 -0.28642,-0.16478 -0.34535,-0.16478 -0.0361,0 -0.0656,-0.0185 -0.0656,-0.0411 0,-0.0226 -0.0382,-0.0411 -0.0849,-0.0411 -0.0695,0 -0.3247,-0.15533 -0.40818,-0.24845 -0.0592,-0.066 -0.33129,-0.1592 -0.3969,-0.13595 -0.12083,0.0428 -0.26057,0.18671 -0.26057,0.26829 0,0.0413 -0.0222,0.075 -0.0493,0.075 -0.0384,0 -0.0384,0.011 0,0.0493 0.0597,0.0597 0.0656,0.3056 0.008,0.34107 -0.0685,0.0423 -0.0466,0.17213 0.0616,0.366 0.0982,0.17585 0.10274,0.21462 0.10293,0.87466 0,0.54214 -0.0146,0.73189 -0.0685,0.88241 -0.0688,0.19199 -0.3381,0.50647 -0.71243,0.83198 -0.17988,0.15642 -0.58774,0.43503 -0.63685,0.43503 -0.0134,0 -0.16265,0.0647 -0.33161,0.14382 -0.30315,0.14194 -0.31442,0.14383 -0.85789,0.14383 -0.30289,0 -0.6492,-0.0201 -0.76958,-0.0446 -0.44244,-0.0902 -0.71463,-0.17234 -0.82104,-0.24783 -0.06,-0.0426 -0.1278,-0.0774 -0.15067,-0.0774 -0.0229,0 -0.0478,-0.0147 -0.0553,-0.0328 -0.008,-0.018 -0.14313,-0.14173 -0.30134,-0.27493 -0.3407,-0.28683 -0.30677,-0.25172 -0.61645,-0.63799 -0.36178,-0.45125 -0.55445,-0.87765 -0.55492,-1.22805 0,-0.10399 -0.025,-0.23529 -0.0553,-0.29179 -0.16198,-0.30244 -0.29224,-0.51697 -0.35452,-0.58381 -0.0384,-0.0413 -0.096,-0.1243 -0.12786,-0.18449 -0.0319,-0.0602 -0.11928,-0.17474 -0.19425,-0.25454 -0.2123,-0.22598 -0.39697,-0.69479 -0.544,-1.38104 -0.0759,-0.3541 -0.0246,-1.57015 0.084,-1.99296 0.0916,-0.35657 0.168,-0.76335 0.20847,-1.10948 0.0225,-0.19211 0.0591,-0.50646 0.0815,-0.69857 0.073,-0.62662 0.12181,-0.83217 0.3758,-1.58204 0.23112,-0.68236 0.32465,-0.91771 0.5879,-1.47931 0.053,-0.113 0.1082,-0.25169 0.12273,-0.30819 0.0145,-0.0565 0.0419,-0.13971 0.0607,-0.18491 0.0797,-0.19092 0.18182,-0.42153 0.25356,-0.57273 0.0422,-0.089 0.0768,-0.18608 0.0768,-0.21574 0,-0.0297 0.0164,-0.0539 0.0365,-0.0539 0.0201,0 0.0484,-0.0634 0.0629,-0.14083 0.0145,-0.0775 0.0405,-0.1468 0.0578,-0.15409 0.0173,-0.007 0.1102,-0.17044 0.20649,-0.36255 0.17642,-0.35197 0.25584,-0.4964 0.29376,-0.5342 0.0624,-0.0622 0.13249,-0.26714 0.20375,-0.59583 0.12197,-0.56249 0.14556,-0.64255 0.24831,-0.84238 0.17483,-0.34004 0.11694,-0.59057 -0.16985,-0.73496 -0.0987,-0.0497 -0.13864,-0.0397 -0.45824,0.11426 -0.19258,0.0928 -0.36141,0.16868 -0.37519,0.16868 -0.0138,0 -0.10342,0.0346 -0.19923,0.0768 -0.42403,0.18699 -0.85065,0.24339 -1.0657,0.14088 -0.25352,-0.12085 -0.48858,-0.2177 -0.52835,-0.2177 -0.0243,0 -0.14006,-0.0432 -0.25727,-0.096 -0.1172,-0.0528 -0.35179,-0.12775 -0.52129,-0.16657 -0.1695,-0.0388 -0.34517,-0.0868 -0.39037,-0.10662 -0.0452,-0.0198 -0.15615,-0.058 -0.24656,-0.0848 -0.0904,-0.0268 -0.31728,-0.12058 -0.50417,-0.20832 -0.18689,-0.0877 -0.35446,-0.15953 -0.37238,-0.15953 -0.0179,0 -0.11464,-0.0397 -0.21494,-0.0883 -0.1003,-0.0485 -0.26095,-0.0972 -0.357,-0.10807 -0.0961,-0.0109 -0.17464,-0.0359 -0.17464,-0.0556 0,-0.0197 -0.0243,-0.0357 -0.0539,-0.0357 -0.0297,0 -0.12674,-0.0346 -0.21573,-0.0768 -0.31157,-0.14782 -0.45126,-0.20571 -0.67546,-0.2799 -0.12431,-0.0411 -0.23526,-0.0854 -0.24656,-0.0984 -0.0113,-0.013 -0.113,-0.0479 -0.226,-0.0776 -0.174318,-0.0458 -0.859568,-0.30615 -1.376583,-0.52295 -0.15116,-0.0634 -0.69249,-0.33578 -1.058253,-0.53251 -0.23489,-0.12634 -0.760099,-0.61183 -1.015868,-0.93904 -0.08833,-0.113 -0.232178,-0.28867 -0.319663,-0.39037 -0.08748,-0.1017 -0.171875,-0.2034 -0.187535,-0.22601 -0.01566,-0.0226 -0.11334,-0.14279 -0.217064,-0.26709 -0.103721,-0.12431 -0.223812,-0.29073 -0.266868,-0.36983 -0.04306,-0.0791 -0.08753,-0.15307 -0.09883,-0.16437 -0.06031,-0.0603 -0.33331,-0.6629 -0.372326,-0.82184 -0.114984,-0.46838 -0.156557,-1.23723 -0.09473,-1.75184 0.02513,-0.20915 0.02726,-0.21178 0.256468,-0.31766 0.127122,-0.0587 0.255653,-0.14612 0.285626,-0.19421 0.02997,-0.0481 0.08898,-0.25648 0.131116,-0.46309 0.04214,-0.2066 0.106658,-0.50508 0.14337,-0.66329 0.03671,-0.1582 0.07621,-0.36161 0.08777,-0.45201 0.01156,-0.0904 0.03627,-0.20135 0.05491,-0.24655 0.01864,-0.0452 0.06455,-0.23011 0.102011,-0.41092 0.07453,-0.35968 0.131868,-0.6205 0.185194,-0.84238 0.07313,-0.30429 0.136158,-0.64819 0.169455,-0.92457 0.04108,-0.34099 0.08988,-0.57624 0.183257,-0.88348 0.03778,-0.1243 0.07798,-0.27686 0.08933,-0.33901 0.01135,-0.0622 0.03578,-0.113 0.05429,-0.113 0.01851,0 0.04436,-0.0337 0.05744,-0.0749 0.01308,-0.0412 0.05833,-0.11202 0.100539,-0.15733 0.119048,-0.12778 0.287061,-0.40633 0.528879,-0.87682 0.203532,-0.39601 0.299404,-0.53698 0.601068,-0.88387 0.05896,-0.0678 0.107226,-0.13464 0.107254,-0.14853 2.9e-5,-0.0139 0.05524,-0.0879 0.122697,-0.16437 0.145124,-0.16461 0.303119,-0.47715 0.371529,-0.73495 0.02699,-0.1017 0.06368,-0.2219 0.08153,-0.2671 0.01785,-0.0452 0.06389,-0.19313 0.102303,-0.32873 0.03842,-0.13561 0.08885,-0.31127 0.112074,-0.39038 0.05545,-0.18883 0.246322,-0.67233 0.275781,-0.69856 0.04301,-0.0383 0.123013,-0.18389 0.293503,-0.53414 0.09349,-0.19207 0.209442,-0.40462 0.257659,-0.47234 0.04822,-0.0677 0.140346,-0.22492 0.204725,-0.34934 0.132252,-0.2556 0.318892,-0.59637 0.536782,-0.9801 0.0815,-0.14342 0.14808,-0.27748 0.14808,-0.29792 0,-0.0204 0.014,-0.0371 0.0311,-0.0371 0.0171,0 0.0555,-0.0786 0.0853,-0.17464 0.0653,-0.21048 0.2789,-0.66939 0.37766,-0.81157 0.0392,-0.0565 0.15904,-0.26915 0.26621,-0.47255 0.10716,-0.20341 0.21592,-0.39757 0.24167,-0.43147 0.0258,-0.0339 0.0822,-0.12636 0.12545,-0.20546 0.0433,-0.0791 0.0897,-0.15307 0.10329,-0.16437 0.0135,-0.0113 0.0684,-0.10467 0.12193,-0.20749 0.0953,-0.18323 0.0958,-0.18999 0.0253,-0.3387 -0.0469,-0.0988 -0.0622,-0.19131 -0.044,-0.26506 0.0348,-0.14085 0.24021,-0.46572 0.44172,-0.69856 0.21258,-0.24563 0.34746,-0.55724 0.38706,-0.89422 0.0292,-0.24829 0.0917,-0.32515 0.29606,-0.3637 0.22202,-0.0419 0.35223,-0.16678 0.51295,-0.49199 0.0832,-0.16841 0.15133,-0.31619 0.15133,-0.32842 0,-0.0122 0.0555,-0.14207 0.12328,-0.28856 0.0678,-0.14648 0.12328,-0.27666 0.12328,-0.28929 0,-0.14286 0.43562,-0.8335 0.57297,-0.9084 0.0419,-0.0229 0.18734,-0.13401 0.32316,-0.24702 0.25913,-0.21561 0.4053,-0.42396 0.49009,-0.69856 0.0633,-0.20496 0.0687,-1.24184 0.008,-1.47455 -0.0244,-0.093 -0.0635,-0.2431 -0.087,-0.3335 -0.071,-0.27353 -0.16409,-0.57108 -0.20236,-0.64664 -0.0199,-0.0392 -0.0361,-0.35766 -0.0361,-0.70758 0,-0.54138 0.0113,-0.65633 0.0756,-0.77104 0.17391,-0.31026 0.26255,-0.65705 0.23587,-0.92287 -0.0157,-0.15627 -0.009,-0.26384 0.0165,-0.2798 0.0231,-0.0143 0.0419,-0.0975 0.0419,-0.18493 0,-0.12411 -0.0304,-0.19123 -0.1384,-0.30577 -0.14433,-0.15303 -0.28568,-0.18657 -0.43945,-0.10428 -0.085,0.0455 -0.24398,0.32435 -0.24398,0.42804 0,0.0346 -0.0862,0.1971 -0.19153,0.36119 -0.10533,0.16408 -0.28145,0.4716 -0.39138,0.68336 -0.10992,0.21175 -0.26412,0.46009 -0.34267,0.55186 -0.0786,0.0918 -0.14282,0.18482 -0.14282,0.20679 0,0.0442 -0.12896,0.22389 -0.54446,0.7587 -0.15256,0.19636 -0.27738,0.37345 -0.27738,0.39354 0,0.0201 -0.0647,0.1266 -0.14382,0.2367 -0.0791,0.11011 -0.14382,0.21864 -0.14382,0.24119 0,0.0225 -0.0185,0.041 -0.0411,0.041 -0.0226,0 -0.0411,0.0246 -0.0411,0.0547 0,0.14048 -0.53864,1.07714 -0.81924,1.42463 -0.0456,0.0565 -0.0834,0.1243 -0.0839,0.15067 -5e-4,0.0264 -0.0163,0.0541 -0.0351,0.0616 -0.0188,0.008 -0.10471,0.12464 -0.19086,0.26025 -0.0861,0.1356 -0.22783,0.32976 -0.31484,0.43146 -0.087,0.1017 -0.23485,0.27737 -0.32851,0.39037 -0.30369,0.36638 -0.785127,0.8871 -1.279361,1.38376 l -0.48357,0.48593 H 98.3307 c -0.281036,0 -0.553455,-0.0166 -0.605366,-0.0369 -0.05192,-0.0203 -0.214587,-0.0686 -0.361491,-0.10727 -0.146903,-0.0387 -0.30408,-0.0846 -0.349281,-0.10195 -0.240635,-0.0926 -0.483332,-0.19462 -0.752929,-0.31643 -0.165506,-0.0748 -0.318976,-0.13596 -0.341047,-0.13596 -0.02207,0 -0.106769,-0.0647 -0.188217,-0.14383 -0.254421,-0.24709 -0.474169,-0.19358 -0.767927,0.18698 -0.04274,0.0554 -0.209158,0.24027 -0.369828,0.4109 -0.160665,0.17062 -0.444615,0.47893 -0.630996,0.68513 -0.33499,0.3706 -0.906423,0.81361 -1.263713,0.97971 -0.0904,0.042 -0.185083,0.0965 -0.210404,0.12107 -0.05872,0.057 -0.17997,0.29032 -0.17997,0.34637 0,0.0235 -0.07881,0.16772 -0.175138,0.3205 -0.183751,0.29146 -0.193584,0.3104 -0.40015,0.7709 -0.120851,0.26941 -0.145815,0.32735 -0.243437,0.56501 -0.02089,0.0508 -0.133676,0.29586 -0.25064,0.54447 -0.331843,0.70532 -0.409946,0.92533 -0.409946,1.15471 0,0.0798 -0.02034,0.1831 -0.0452,0.22955 -0.137457,0.25684 0.02325,0.54341 0.332454,0.59286 0.319848,0.0511 0.331411,0.0777 0.337715,0.77604 0.0058,0.64169 -0.0488,0.99084 -0.212039,1.35604 -0.04041,0.0904 -0.08659,0.20666 -0.102631,0.25835 -0.04726,0.1523 -0.323489,0.64944 -0.454675,0.81827 -0.224748,0.28926 -0.943554,0.97728 -1.109109,1.06161 -0.0903,0.046 -0.299166,0.1291 -0.464142,0.18466 l -0.299951,0.10102 -0.160201,-0.0922 c -0.331168,-0.1906 -0.626209,-0.0623 -0.679895,0.29574 -0.02994,0.19964 -0.126054,0.32439 -0.383471,0.49774 -0.229309,0.15442 -0.374948,0.41108 -0.374948,0.66077 0,0.1833 -0.09832,0.69243 -0.165576,0.85743 -0.03146,0.0772 -0.09116,0.25676 -0.199049,0.59875 -0.02546,0.0807 -0.04629,0.28765 -0.04629,0.45986 0,0.17222 -0.0164,0.32326 -0.03643,0.33564 -0.02004,0.0124 -0.04924,0.0907 -0.06488,0.17413 -0.01564,0.0834 -0.06264,0.2269 -0.10444,0.31892 -0.04179,0.092 -0.107065,0.27825 -0.145046,0.41385 -0.03798,0.1356 -0.08554,0.27866 -0.105685,0.31791 -0.02014,0.0392 -0.03663,0.0965 -0.03663,0.12723 0,0.052 -0.07748,0.24081 -0.16701,0.40696 -0.02115,0.0393 -0.03845,0.11674 -0.03845,0.17222 0,0.0555 -0.01676,0.11122 -0.03724,0.12388 -0.02048,0.0127 -0.05057,0.11992 -0.06686,0.23836 -0.01629,0.11843 -0.09198,0.33496 -0.168218,0.48116 -0.07623,0.1462 -0.13878,0.28504 -0.138998,0.30854 -4.11e-4,0.0235 -0.06494,0.1239 -0.143822,0.22313 -0.07888,0.0992 -0.143423,0.20556 -0.143423,0.23628 0,0.0307 -0.01849,0.0559 -0.04109,0.0559 -0.0226,0 -0.04109,0.0193 -0.04109,0.0429 0,0.0236 -0.04623,0.0927 -0.10273,0.15367 -0.0565,0.0609 -0.10273,0.13256 -0.10273,0.15915 0,0.0266 -0.01584,0.0545 -0.0352,0.0621 -0.03742,0.0146 -0.397828,0.58745 -0.499786,0.79444 -0.03339,0.0678 -0.0723,0.13252 -0.08646,0.14382 -0.01415,0.0113 -0.06355,0.0915 -0.109765,0.17815 -0.04622,0.0867 -0.15594,0.21914 -0.243819,0.29437 -0.11546,0.0988 -0.192393,0.2204 -0.277318,0.43823 -0.06464,0.16581 -0.176432,0.4309 -0.248429,0.58911 -0.072,0.1582 -0.143802,0.34312 -0.159565,0.41092 -0.01576,0.0678 -0.08436,0.24012 -0.152438,0.38293 -0.197271,0.41382 -0.341331,0.92766 -0.618443,2.20586 -0.0245,0.113 -0.06073,0.25907 -0.08052,0.3246 -0.01979,0.0655 -0.03611,0.19496 -0.03628,0.28764 -4.11e-4,0.18975 -0.09238,0.50992 -0.282018,0.98114 -0.136795,0.33993 -0.164569,0.62712 -0.08635,0.89296 0.0798,0.27122 -0.05999,2.20862 -0.213456,2.95835 -0.116866,0.57093 -0.121225,0.586 -0.203426,0.70347 -0.152065,0.21731 -0.166874,0.31595 -0.0777,0.51754 0.10317,0.23323 0.10379,0.21925 -0.02388,0.53838 -0.09499,0.23744 -0.1013,0.28423 -0.05879,0.43607 0.04469,0.15963 0.03835,0.18898 -0.102984,0.4769 -0.08283,0.16875 -0.168675,0.3451 -0.190766,0.3919 -0.02414,0.0511 -0.03076,0.34622 -0.01661,0.73965 0.01295,0.36001 0.03414,1.13826 0.04708,1.72945 l 0.02353,1.07489 -0.10979,0.23207 c -0.07036,0.14873 -0.16014,0.26446 -0.249991,0.32224 -0.186619,0.12002 -0.344766,0.43775 -0.344766,0.69266 0,0.16269 -0.02111,0.21757 -0.124307,0.32313 -0.06837,0.07 -0.194127,0.15843 -0.279463,0.19663 -0.152213,0.0682 -0.664621,0.57377 -0.664621,0.65582 0,0.0516 -0.09875,0.0916 -0.226014,0.0916 -0.06516,0 -0.124201,-0.0456 -0.18371,-0.14189 -0.105401,-0.17054 -0.287406,-0.26903 -0.49716,-0.26903 -0.130253,0 -0.17432,0.0249 -0.279807,0.15808 -0.06887,0.087 -0.146177,0.24875 -0.171806,0.35956 -0.02563,0.1108 -0.0633,0.26833 -0.08371,0.35005 -0.05713,0.22876 -0.0456,0.51233 0.02315,0.56938 0.0492,0.0408 0.07914,0.0286 0.16307,-0.0669 0.05655,-0.0643 0.103391,-0.13219 0.104106,-0.15087 6.99e-4,-0.0187 0.124036,-0.15737 0.274051,-0.30819 l 0.272752,-0.27422 0.600452,-0.0131 c 0.330248,-0.007 0.618019,-0.0303 0.63949,-0.0514 0.05184,-0.0508 0.216608,-0.0489 0.248606,0.003 0.01559,0.0252 0.349228,0.0411 0.863922,0.0411 0.881838,0 1.015288,0.0204 1.408193,0.21501 0.216661,0.10733 0.727883,0.63716 0.815084,0.84477 0.03522,0.0838 0.126621,0.28188 0.203117,0.44008 0.195615,0.40455 0.268298,0.8082 0.248529,1.38024 -0.03414,0.98795 -0.116389,1.45693 -0.316454,1.80439 -0.01952,0.0339 -0.06495,0.11985 -0.100967,0.191 -0.120559,0.23823 -0.639329,0.72232 -0.988722,0.92264 -0.624581,0.3581 -0.645694,0.36173 -2.113064,0.36386 l -1.254213,0.002 -0.338101,-0.33986 c -0.185953,-0.18693 -0.3381,-0.35331 -0.3381,-0.36974 0,-0.0164 -0.06267,-0.11774 -0.139278,-0.22514 -0.186824,-0.26195 -0.477102,-0.8142 -0.477102,-0.90767 0,-0.0414 -0.01322,-0.0884 -0.02939,-0.1046 -0.03868,-0.0387 -0.130861,-0.39048 -0.133171,-0.50823 -0.0016,-0.0834 -0.02206,-0.0925 -0.209314,-0.0925 -0.285108,0 -0.449969,0.09 -0.449969,0.2456 0,0.21559 -0.150335,0.69288 -0.320111,1.01634 -0.04995,0.0952 -0.09081,0.1982 -0.09081,0.229 0,0.0714 -0.22223,0.53197 -0.294543,0.61045 -0.03011,0.0327 -0.07472,0.0948 -0.09914,0.13801 -0.02442,0.0432 -0.113956,0.1349 -0.198967,0.20372 -0.141911,0.11488 -0.183706,0.12609 -0.510342,0.13688 -0.488164,0.0161 -0.531064,0.0295 -0.596466,0.18603 -0.1323,0.31664 -0.444094,0.36862 -2.319108,0.38662 -1.211679,0.0116 -1.421778,0.005 -1.498727,-0.0492 -0.04922,-0.0345 -0.114634,-0.0627 -0.14535,-0.0627 -0.108845,0 -0.422204,-0.30204 -0.612904,-0.59076 -0.106337,-0.161 -0.207909,-0.29888 -0.22571,-0.30642 -0.0178,-0.008 -0.03236,-0.0394 -0.03236,-0.0708 0,-0.0314 -0.04386,-0.15468 -0.09747,-0.27395 -0.05361,-0.11927 -0.119791,-0.30007 -0.147072,-0.40177 -0.09724,-0.36257 -0.122351,-0.389 -0.382562,-0.40267 -0.184713,-0.01 -0.24709,-0.031 -0.296167,-0.10106 -0.09265,-0.13228 -0.130002,-0.0551 -0.174706,0.3609 -0.03067,0.28543 -0.06509,0.4108 -0.149464,0.54447 -0.106338,0.16844 -0.116134,0.17365 -0.327043,0.17365 -0.294781,0 -0.602815,0.1528 -0.680795,0.33771 -0.228706,0.54231 -0.33527,0.69799 -0.614831,0.89818 l -0.225163,0.16123 h -0.722964 c -0.39763,0 -0.78756,0.0197 -0.866515,0.0437 -0.157065,0.0478 -1.461838,0.0938 -1.561223,0.0551 z m 8.664842,-6.69821 c 0.02566,-0.0563 0.04666,-0.13742 0.04666,-0.18022 0,-0.0428 0.0201,-0.0902 0.04467,-0.10544 0.02978,-0.0184 0.03097,-0.0413 0.0036,-0.0687 -0.0543,-0.0543 -0.130438,-0.004 -0.130438,0.0857 0,0.0394 -0.01605,0.0891 -0.03566,0.11057 -0.01961,0.0215 -0.04672,0.0983 -0.06024,0.17077 -0.02962,0.15865 0.05719,0.1503 0.131432,-0.0126 z M 115.56785,109.99575 c 0,-0.0226 -0.0185,-0.0411 -0.0411,-0.0411 -0.0226,0 -0.0411,0.0185 -0.0411,0.0411 0,0.0226 0.0185,0.0411 0.0411,0.0411 0.0226,0 0.0411,-0.0185 0.0411,-0.0411 z m 0.0994,-0.14822 c 0.0357,-0.0137 0.065,-0.0507 0.065,-0.0822 0,-0.073 -0.0317,-0.0725 -0.10566,10e-4 -0.0946,0.0946 -0.0786,0.12647 0.0407,0.0807 z m 0.24233,-0.39825 c -0.0115,-0.0186 -0.0452,-4.6e-4 -0.0749,0.0402 -0.0297,0.0407 -0.0447,0.0891 -0.0332,0.10765 0.0115,0.0186 0.0452,4.5e-4 0.0749,-0.0402 0.0297,-0.0407 0.0447,-0.0891 0.0332,-0.10765 z m 0.13968,-0.17752 c -0.0394,-0.0394 -0.15658,0.068 -0.12678,0.11621 0.0148,0.024 0.0511,0.0142 0.0896,-0.0242 0.0355,-0.0355 0.0523,-0.0769 0.0372,-0.092 z m 0.13583,-0.16048 c 0.071,-0.0856 0.0186,-0.12707 -0.0605,-0.0479 -0.035,0.035 -0.0636,0.0742 -0.0636,0.0871 0,0.0456 0.0728,0.0227 0.1241,-0.0392 z m 0.14515,-0.23181 c 0.0155,-0.0489 0.0815,-0.13379 0.14659,-0.18857 0.0651,-0.0548 0.11835,-0.12476 0.11835,-0.15553 0,-0.0308 0.0246,-0.0707 0.0546,-0.0888 0.0811,-0.0488 0.27379,-0.34944 0.24934,-0.38901 -0.0534,-0.0865 -0.34504,0.0122 -0.34504,0.11671 0,0.0393 -0.14064,0.35288 -0.2871,0.64009 -0.0615,0.12063 -0.0662,0.15409 -0.0218,0.15409 0.0312,0 0.0695,-0.04 0.085,-0.089 z m -17.034777,-4.5955 c 0,-0.0858 -0.02006,-0.12328 -0.06603,-0.12328 -0.04333,0 -0.05746,0.0224 -0.04109,0.065 0.01372,0.0357 0.02494,0.0912 0.02494,0.12328 0,0.0321 0.01849,0.0583 0.04109,0.0583 0.0226,0 0.04109,-0.0555 0.04109,-0.12327 z"
       id="path1395" />
  </g>
</svg>
