<?xml version="1.0" encoding="UTF-8" standalone="no"?>
<!-- Created with Inkscape (http://www.inkscape.org/) -->

<svg
   width="210mm"
   height="297mm"
   viewBox="0 0 210 297"
   version="1.1"
   id="svg5"
   inkscape:version="1.1.2 (b8e25be8, 2022-02-05)"
   sodipodi:docname="1 pose skater jammer.svg"
   xmlns:inkscape="http://www.inkscape.org/namespaces/inkscape"
   xmlns:sodipodi="http://sodipodi.sourceforge.net/DTD/sodipodi-0.dtd"
   xmlns="http://www.w3.org/2000/svg"
   xmlns:svg="http://www.w3.org/2000/svg">
  <sodipodi:namedview
     id="namedview7"
     pagecolor="#ffffff"
     bordercolor="#999999"
     borderopacity="1"
     inkscape:pageshadow="0"
     inkscape:pageopacity="0"
     inkscape:pagecheckerboard="0"
     inkscape:document-units="mm"
     showgrid="false"
     inkscape:zoom="0.64052329"
     inkscape:cx="166.2703"
     inkscape:cy="579.21391"
     inkscape:window-width="1800"
     inkscape:window-height="1042"
     inkscape:window-x="0"
     inkscape:window-y="44"
     inkscape:window-maximized="0"
     inkscape:current-layer="layer1" />
  <defs
     id="defs2" />
  <g
     inkscape:label="Layer 1"
     inkscape:groupmode="layer"
     id="layer1">
    <g
       id="g886"
       transform="matrix(0.52832457,0,0,0.52832457,42.525577,63.820736)"
       style="fill:#000000;fill-opacity:1">
      <path
         style="fill:#000000;fill-opacity:1;stroke-width:0.105833"
         d="m 192.76408,293.83598 c 0.005,-0.12329 0.0302,-0.14836 0.0639,-0.0639 0.0306,0.0764 0.0268,0.16768 -0.008,0.20285 -0.0352,0.0352 -0.0602,-0.0274 -0.0556,-0.13891 z m 13.3068,-0.11639 c 0.0764,-0.0306 0.16769,-0.0268 0.20285,0.008 0.0352,0.0352 -0.0273,0.0602 -0.1389,0.0556 -0.1233,-0.005 -0.14837,-0.0302 -0.064,-0.0639 z M 101.32407,281.87682 c 0.005,-0.1233 0.0302,-0.14837 0.0639,-0.064 0.0306,0.0764 0.0268,0.16768 -0.008,0.20285 -0.0352,0.0352 -0.0602,-0.0273 -0.0556,-0.1389 z m 89.86087,-11.1566 c 0,-0.14552 0.024,-0.20506 0.0534,-0.1323 0.0294,0.0728 0.0294,0.19183 0,0.26459 -0.0294,0.0728 -0.0534,0.0132 -0.0534,-0.13229 z m 19.46497,-10.32757 c 0.005,-0.1233 0.0302,-0.14837 0.064,-0.0639 0.0306,0.0764 0.0268,0.16768 -0.008,0.20285 -0.0352,0.0352 -0.0602,-0.0274 -0.0556,-0.13891 z m -43.62519,-20.86681 c -0.13163,-0.16786 -0.1279,-0.1716 0.04,-0.04 0.17629,0.13826 0.23236,0.22517 0.14525,0.22517 -0.022,0 -0.10532,-0.0833 -0.18521,-0.18521 z M 42.712524,113.59021 c 0.102976,-0.0268 0.245851,-0.0251 0.3175,0.004 0.07166,0.029 -0.01259,0.0509 -0.187219,0.0488 -0.174625,-0.002 -0.233246,-0.0259 -0.130281,-0.0527 z m 1.532573,-0.003 c 0.189177,-0.0235 0.498739,-0.0235 0.687917,0 0.189177,0.0235 0.0344,0.0427 -0.343959,0.0427 -0.378354,0 -0.533135,-0.0192 -0.343958,-0.0427 z m 9.04875,-0.94889 c 0.101865,-0.0266 0.268552,-0.0266 0.370417,0 0.101864,0.0266 0.01852,0.0484 -0.185208,0.0484 -0.20373,0 -0.287073,-0.0218 -0.185209,-0.0484 z m 17.338559,-4.43378 c 0.0051,-0.12329 0.03016,-0.14837 0.06395,-0.0639 0.03057,0.0764 0.02682,0.16768 -0.0084,0.20285 -0.03517,0.0352 -0.06019,-0.0273 -0.05559,-0.13891 z m -7.178326,-7.92872 c 0.0012,-0.23284 0.02285,-0.315631 0.04817,-0.18397 0.02531,0.13164 0.02435,0.32214 -0.0021,0.42333 -0.02649,0.10118 -0.0472,-0.007 -0.04603,-0.23936 z M 24.197099,92.708553 c 0,-0.378355 0.01921,-0.533136 0.04268,-0.343959 0.02347,0.189177 0.02347,0.49874 0,0.687917 -0.02347,0.189177 -0.04268,0.0344 -0.04268,-0.343958 z m 31.52901,-11.7475 c 0,-0.203729 0.02178,-0.287073 0.0484,-0.185209 0.02663,0.101865 0.02663,0.268553 0,0.370417 -0.02662,0.101865 -0.0484,0.01852 -0.0484,-0.185208 z M 38.169501,64.080636 c 0,-0.465666 0.019,-0.643001 0.04135,-0.394081 0.02235,0.248931 0.02205,0.629931 -0.0011,0.846667 -0.02274,0.216747 -0.04103,0.01308 -0.04065,-0.452586 z"
         id="path898" />
      <path
         style="fill:#000000;fill-opacity:1;stroke-width:0.105833"
         d="m 155.59472,229.78918 c -0.13163,-0.16787 -0.1279,-0.1716 0.04,-0.04 0.17629,0.13826 0.23236,0.22517 0.14525,0.22517 -0.022,0 -0.10532,-0.0833 -0.18521,-0.1852 z m -4.86284,-4.02167 -0.25657,-0.29104 0.29104,0.25657 c 0.27202,0.23981 0.33958,0.32551 0.25657,0.32551 -0.0189,0 -0.14992,-0.13097 -0.29104,-0.29104 z m 3.19136,-94.80902 c 0.005,-0.1233 0.0302,-0.14837 0.064,-0.064 0.0306,0.0764 0.0268,0.16768 -0.008,0.20285 -0.0352,0.0352 -0.0602,-0.0273 -0.0556,-0.1389 z m 45.80398,-49.970979 c -0.13163,-0.167862 -0.1279,-0.171598 0.04,-0.03996 0.10187,0.07989 0.18521,0.163238 0.18521,0.185209 0,0.08711 -0.0869,0.03104 -0.22517,-0.145246 z M 42.419472,53.761887 c 0.105357,-0.116417 0.215371,-0.211667 0.244475,-0.211667 0.0291,0 -0.03328,0.09525 -0.138642,0.211667 -0.105357,0.116416 -0.215371,0.211666 -0.244475,0.211666 -0.0291,0 0.03328,-0.09525 0.138642,-0.211666 z"
         id="path896" />
      <path
         style="fill:#000000;fill-opacity:1;stroke-width:0.105833"
         d="m 160.83692,181.47626 -0.20161,-0.23813 0.23812,0.20162 c 0.22378,0.18946 0.2863,0.27463 0.20162,0.27463 -0.0201,0 -0.12725,-0.10715 -0.23813,-0.23812 z m -5.98303,-7.99042 c -0.13164,-0.16786 -0.1279,-0.1716 0.04,-0.04 0.17629,0.13826 0.23236,0.22517 0.14525,0.22517 -0.022,0 -0.10532,-0.0833 -0.18521,-0.18521 z M 141.30722,94.005011 c -0.13164,-0.167862 -0.1279,-0.171598 0.04,-0.03996 0.17629,0.138261 0.23236,0.225171 0.14525,0.225171 -0.022,0 -0.10532,-0.08334 -0.18521,-0.185208 z"
         id="path894" />
      <path
         style="fill:#000000;fill-opacity:1;stroke-width:0.105833"
         d="m 188.61472,262.28001 c -0.13163,-0.16786 -0.1279,-0.1716 0.04,-0.04 0.17629,0.13826 0.23236,0.22517 0.14525,0.22517 -0.022,0 -0.10531,-0.0833 -0.18521,-0.18521 z M 97.280553,205.34168 c -0.131636,-0.16787 -0.1279,-0.1716 0.03996,-0.04 0.176287,0.13826 0.232357,0.22517 0.145246,0.22517 -0.02197,0 -0.105315,-0.0833 -0.185208,-0.1852 z"
         id="path892" />
      <path
         style="fill:#000000;fill-opacity:1;stroke-width:0.105833"
         d="m 210.75574,294.36515 c 0.005,-0.1233 0.0302,-0.14837 0.064,-0.0639 0.0306,0.0764 0.0268,0.16768 -0.008,0.20285 -0.0352,0.0352 -0.0602,-0.0273 -0.0556,-0.13891 z m 3.78181,-18.10806 c 0.0764,-0.0306 0.16768,-0.0268 0.20285,0.008 0.0352,0.0352 -0.0273,0.0602 -0.13891,0.0556 -0.12329,-0.005 -0.14836,-0.0302 -0.0639,-0.0639 z m -0.92431,-0.94194 c 0.005,-0.1233 0.0302,-0.14837 0.064,-0.0639 0.0306,0.0764 0.0268,0.16768 -0.008,0.20285 -0.0352,0.0352 -0.0602,-0.0274 -0.0556,-0.13891 z m -64.89769,-51.98181 c -0.13163,-0.16786 -0.1279,-0.1716 0.04,-0.04 0.17628,0.13826 0.23235,0.22517 0.14524,0.22517 -0.022,0 -0.10531,-0.0833 -0.18521,-0.18521 z M 176.44389,47.015012 c -0.13164,-0.167863 -0.1279,-0.171599 0.04,-0.03996 0.17629,0.138261 0.23236,0.225171 0.14525,0.225171 -0.022,0 -0.10532,-0.08334 -0.18521,-0.185208 z"
         id="path890" />
      <path
         style="fill:#000000;fill-opacity:1;stroke-width:0.105833"
         d="m 111.26406,298.1318 c -1.19321,-0.10137 -1.59257,-0.21465 -2.0176,-0.57228 -0.36781,-0.3095 -0.58841,-0.3527 -2.16282,-0.42358 -1.76646,-0.0795 -3.44627,-0.59474 -4.49202,-1.37778 -0.2391,-0.17903 -0.49986,-0.27294 -0.75788,-0.27294 -0.39882,0 -0.61049,0.16946 -1.05674,0.84599 l -0.16831,0.25516 -0.746418,-0.18016 c -0.410527,-0.0991 -1.025356,-0.18182 -1.366277,-0.18385 -0.34092,-0.002 -1.000855,-0.0725 -1.466522,-0.15667 -0.465666,-0.0841 -1.087024,-0.15391 -1.380786,-0.15506 -1.120394,-0.004 -3.409199,-0.62185 -3.852524,-1.03935 -0.671248,-0.63216 -0.928793,-3.50205 -0.546174,-6.08632 0.11901,-0.80382 0.287687,-1.7087 0.37483,-2.01083 0.08715,-0.30214 0.259048,-0.90652 0.382005,-1.34308 0.244264,-0.86727 1.052852,-2.487 1.383983,-2.77233 0.317447,-0.27353 1.070525,-0.33911 2.361671,-0.20565 0.644144,0.0666 2.043324,0.20018 3.109299,0.29689 l 1.938123,0.17585 0.28438,-0.28524 c 0.26986,-0.27068 0.28292,-0.33142 0.25617,-1.19173 -0.0296,-0.95048 -0.11761,-1.23843 -0.42973,-1.40548 -0.12017,-0.0643 -0.86923,-0.0596 -2.067073,0.0129 l -1.878594,0.11378 -0.179462,-0.25148 c -0.600752,-0.84189 -0.755269,-1.67714 -0.539496,-2.91625 0.106056,-0.609 0.09681,-0.69869 -0.105833,-1.02657 -0.270807,-0.43818 -0.284618,-1.01447 -0.05132,-2.14256 0.113379,-0.54824 0.155353,-1.14682 0.124979,-1.78214 -0.04509,-0.94296 -0.04034,-0.96568 0.331988,-1.59119 0.207751,-0.34903 0.642546,-0.92138 0.966206,-1.27191 0.32367,-0.35052 0.703379,-0.804 0.84382,-1.00773 0.14043,-0.20373 0.356478,-0.45149 0.480102,-0.55056 0.123624,-0.0991 0.452554,-0.5542 0.730959,-1.01136 0.2843,-0.46688 0.641264,-0.90875 0.814354,-1.00809 0.44937,-0.2579 0.65325,-0.83042 0.58747,-1.64972 l -0.0541,-0.67475 1.03091,-1.12464 c 1.37827,-1.50357 1.48442,-1.72963 1.06348,-2.26477 -0.11642,-0.14799 -0.21167,-0.34335 -0.21167,-0.43411 0,-0.0908 0.30816,-0.81356 0.68479,-1.60621 0.37664,-0.79264 0.71277,-1.61574 0.74693,-1.82911 0.0342,-0.21336 0.0838,-0.49369 0.1102,-0.62296 0.0283,-0.1383 0.30268,-0.40793 0.66679,-0.65519 0.5857,-0.39774 0.96629,-0.91505 0.96629,-1.31341 0,-0.0926 0.1346,-0.19037 0.31737,-0.23051 0.63069,-0.13852 0.83306,-0.92479 0.41299,-1.60448 -0.18928,-0.30625 -0.20102,-0.38492 -0.0794,-0.53159 0.21918,-0.2643 0.77207,-0.45688 1.31168,-0.45688 0.39808,0 0.54471,-0.0569 0.7973,-0.30951 l 0.30951,-0.30951 -0.0403,-1.15522 c -0.0222,-0.63537 -0.0953,-1.25804 -0.16257,-1.38371 -0.0757,-0.1414 -0.0961,-0.42571 -0.0536,-0.74604 0.0412,-0.31041 0.0175,-0.67247 -0.0591,-0.90463 -0.0703,-0.21289 -0.14314,-0.94446 -0.16193,-1.62568 -0.0208,-0.75155 -0.1438,-1.82126 -0.3129,-2.72028 -0.15329,-0.81492 -0.30373,-2.05317 -0.33432,-2.75167 -0.0526,-1.20046 -0.38364,-3.25867 -1.06398,-6.61458 -0.3051,-1.505 -0.52579,-2.90317 -0.67655,-4.28625 -0.0571,-0.52387 -0.15022,-1.21127 -0.20694,-1.52757 -0.0567,-0.31628 -0.10312,-0.82063 -0.10312,-1.12077 0,-0.30014 -0.1017,-0.92243 -0.22599,-1.38285 -0.62236,-2.30553 -0.83467,-3.00874 -1.09379,-3.62288 -0.15525,-0.36798 -0.35003,-0.9871 -0.43282,-1.37583 -0.0828,-0.38873 -0.22414,-0.94489 -0.31407,-1.23593 -0.24214,-0.78355 -0.57917,-3.22237 -0.57917,-4.19103 0,-0.75677 -0.0273,-0.87299 -0.25976,-1.10545 -0.26897,-0.26897 -0.79262,-0.34076 -2.09503,-0.28724 -0.50108,0.0206 -0.50271,0.0195 -0.50271,-0.32411 0,-0.89495 -0.698476,-2.81219 -1.568395,-4.30509 -0.686847,-1.17871 -1.2515,-1.85901 -2.025999,-2.44096 l -0.560451,-0.42111 -1.00947,0.0335 c -0.926476,0.0307 -1.033367,0.0134 -1.300099,-0.21109 -0.15984,-0.1345 -0.514297,-0.70811 -0.787686,-1.27471 -0.273388,-0.56659 -1.012147,-2.07791 -1.641687,-3.3585 -0.629549,-1.28058 -1.242187,-2.57701 -1.36144,-2.88095 -0.119242,-0.30394 -0.462576,-0.98858 -0.762941,-1.52143 -0.300377,-0.53284 -0.590074,-1.16433 -0.643774,-1.40331 -0.05369,-0.239 -0.477435,-1.09237 -0.941652,-1.89641 -0.817891,-1.4166 -1.171935,-2.16357 -1.390703,-2.93415 -0.05784,-0.20372 -0.427927,-1.08479 -0.82242,-1.95791 -0.394505,-0.87313 -0.77396,-1.80181 -0.843238,-2.06375 -0.06928,-0.26194 -0.171821,-0.64294 -0.22787,-0.84667 -0.05604,-0.20373 -0.140928,-0.81003 -0.188616,-1.34732 -0.0477,-0.5373 -0.139065,-1.03997 -0.203041,-1.11705 -0.178478,-0.21505 -0.07485,-4.53171 0.125042,-5.20855 0.472493,-1.59988 0.683175,-2.17429 0.995881,-2.71522 0.190309,-0.32922 0.410538,-0.81297 0.489405,-1.07502 0.162232,-0.53906 1.142831,-1.89103 1.672283,-2.3056 0.193167,-0.15125 0.498602,-0.35123 0.678752,-0.44438 0.460713,-0.23825 0.993955,-0.87854 0.993955,-1.1935 0,-0.70253 1.144693,-2.25215 2.864051,-3.8772 1.614551,-1.52599 1.639453,-1.60704 0.768307,-2.50009 -0.944594,-0.96834 -1.919001,-2.28607 -2.730097,-3.692 -0.208788,-0.36192 -0.437674,-0.6953 -0.508646,-0.74084 -0.246708,-0.15833 -3.059388,-4.46088 -3.194526,-4.88666 -0.038,-0.11974 -0.184849,-0.30876 -0.326327,-0.42004 -0.463021,-0.36422 -1.068906,-1.27547 -1.259798,-1.89474 -0.314198,-1.01932 -0.611663,-1.74827 -0.918051,-2.24973 -0.16075,-0.2631 -0.343725,-0.70797 -0.406622,-0.98861 -0.172043,-0.76768 -0.351536,-1.13215 -0.829628,-1.68454 -0.512117,-0.59171 -0.653383,-1.02959 -0.656304,-2.03432 -0.0026,-0.89741 -0.154146,-1.23255 -0.626967,-1.38656 -0.51036,-0.16622 -0.761185,-0.83101 -0.8489,-2.24993 -0.06628,-1.07219 -0.07532,-1.10267 -0.407945,-1.37583 -0.187092,-0.15364 -0.486008,-0.58891 -0.664263,-0.96727 -0.178255,-0.37835 -0.391605,-0.76264 -0.474112,-0.85398 -0.148961,-0.16492 -0.385763,-1.34546 -0.523695,-2.61081 -0.03987,-0.36568 -0.154327,-0.76701 -0.256583,-0.89958 -0.101536,-0.13166 -0.243395,-0.4775 -0.315246,-0.76854 -0.07186,-0.29105 -0.272182,-0.85188 -0.445177,-1.2463 -0.583978,-1.33142 -1.028763,-2.98981 -1.149308,-4.2852 -0.06237,-0.67017 -0.1651,-1.43805 -0.228293,-1.70641 -0.0632,-0.26837 -0.146113,-1.1078 -0.184266,-1.86544 -0.07479,-1.48546 -0.01795,-1.30138 -1.045231,-3.38499 -0.647129,-1.31255 -1.207358,-2.72807 -1.461114,-3.69182 -0.136155,-0.51708 -0.337217,-1.04096 -0.446818,-1.16417 -0.66439,-0.74687 -1.289473,-2.44222 -1.721485,-4.66901 -0.293264,-1.51158 -0.33455,-1.96596 -0.384651,-4.23333 -0.06134,-2.77537 -0.01225,-2.50953 -0.899065,-4.86833 -0.17508,-0.46567 -0.435472,-1.18005 -0.578654,-1.587504 -0.143193,-0.407459 -0.369041,-0.839005 -0.501894,-0.958988 -0.31769,-0.286903 -0.48786,-0.798713 -0.48786,-1.467294 0,-0.901658 -0.212746,-2.308119 -0.419999,-2.776654 -0.107358,-0.242718 -0.31767,-0.521536 -0.46735,-0.619612 -0.28666,-0.187822 -1.374203,-2.149009 -1.965113,-3.543702 -0.184965,-0.436563 -0.446543,-1.008063 -0.581279,-1.27 -0.134737,-0.261938 -0.305477,-0.66675 -0.379413,-0.899583 -0.07394,-0.232834 -0.298238,-0.780521 -0.498432,-1.217084 -0.200195,-0.436562 -0.638514,-1.508125 -0.974059,-2.38125 C 62.5687,83.950844 62.138805,82.929214 61.948908,82.553675 61.563431,81.791368 60.955154,80.179971 60.689915,79.218443 60.540256,78.675889 60.452234,78.544423 60.06427,78.283861 59.695558,78.036222 59.525473,77.7987 59.136398,76.988059 58.874386,76.442128 58.555256,75.922095 58.42723,75.832422 c -0.351399,-0.246126 -0.791147,-0.202184 -1.103609,0.110279 -0.248465,0.248465 -0.267198,0.325416 -0.205994,0.84618 0.08445,0.718576 -0.228738,1.681384 -0.894345,2.749412 -0.516297,0.828432 -0.535675,0.985795 -0.371602,3.018525 0.08062,0.998824 0.06738,1.181375 -0.122777,1.693334 -0.117232,0.315595 -0.273717,0.931005 -0.347758,1.367567 -0.166211,0.980081 -0.413036,1.274435 -1.607809,1.917499 -0.94451,0.50836 -1.133507,0.723445 -1.217687,1.385761 -0.03173,0.249608 -0.09823,0.505566 -0.147807,0.56879 -0.04956,0.06324 -0.159004,0.310198 -0.243184,0.54881 -0.257799,0.730673 -1.21631,2.041895 -1.61417,2.208128 -0.400812,0.16747 -0.477065,0.53359 -0.174212,0.836443 0.197051,0.197061 0.705707,0.169809 1.463305,-0.07839 0.376671,-0.123402 0.462777,-0.222049 0.81299,-0.931492 0.215435,-0.436404 0.620491,-1.04811 0.900134,-1.359355 0.487045,-0.542079 0.532162,-0.566568 1.072515,-0.582084 0.51072,-0.01466 0.592772,0.0159 0.867452,0.323088 0.166857,0.186606 0.334582,0.519981 0.372735,0.740834 0.03814,0.220853 0.12881,0.615865 0.201475,0.877803 l 0.132122,0.47625 0.556789,0.0324 c 0.313373,0.01823 0.768107,-0.0396 1.04013,-0.132291 0.265843,-0.09057 0.615485,-0.164688 0.777007,-0.164688 0.535993,0 0.822082,-0.218249 1.125273,-0.858435 0.380704,-0.803836 0.76109,-1.013767 1.510962,-0.833871 0.376946,0.09042 0.617887,0.235013 0.885772,0.531526 0.60344,0.667936 0.733192,1.011534 0.778065,2.060364 0.04394,1.027176 -0.116067,1.718902 -0.433091,1.872382 -0.09718,0.04704 -0.260032,0.126121 -0.361897,0.175715 -0.347271,0.1691 -0.28467,0.534183 0.16292,0.95014 0.524245,0.487182 0.807815,1.35274 0.711719,2.172345 -0.05141,0.438478 -0.02203,0.611346 0.150971,0.888376 0.118152,0.189177 0.251238,0.343979 0.295751,0.344 0.04451,2.2e-5 0.07857,0.348055 0.07568,0.773403 -0.004,0.5879 -0.05784,0.86072 -0.224557,1.13767 -0.509333,0.84607 -0.788003,1.54965 -0.893953,2.25707 -0.184393,1.23119 -0.58547,2.57154 -0.981308,3.27934 -0.973867,1.74145 -3.005243,3.51372 -5.726599,4.99617 l -0.9525,0.51888 -1.247235,0.0387 c -1.208585,0.0375 -1.273133,0.028 -2.082959,-0.30633 l -0.835713,-0.34505 -0.562885,0.27425 c -1.528964,0.74496 -1.836865,0.8462 -3.453882,1.13571 -0.805804,0.14426 -1.696053,0.21965 -2.653337,0.22469 -1.421617,0.008 -1.456034,0.002 -2.604823,-0.41275 -0.640292,-0.23118 -1.354667,-0.4809 -1.5875,-0.55495 -0.232833,-0.074 -0.613833,-0.26456 -0.846667,-0.42337 -0.232833,-0.1588 -0.648059,-0.41526 -0.922739,-0.56989 -0.27467,-0.15464 -0.774732,-0.5312 -1.11125,-0.83683 -1.298808,-1.17954 -1.314514,-1.18864 -3.007308,-1.74363 -0.894408,-0.29325 -1.79289,-0.56608 -1.996619,-0.60631 -0.20373,-0.0402 -0.656167,-0.2518 -1.005417,-0.47017 -0.34925,-0.21836 -0.792861,-0.49199 -0.985806,-0.60807 -0.192934,-0.11607 -0.645372,-0.54669 -1.005417,-0.95694 -0.56733,-0.64644 -0.728937,-0.93442 -1.212045,-2.15982 -0.306578,-0.77765 -0.695188,-1.89017 -0.863569,-2.47226 -0.16838,-0.58208 -0.354192,-1.18221 -0.412919,-1.33361 -0.185759,-0.478925 -1.193377,-2.238976 -1.546754,-2.701774 -0.252265,-0.330391 -0.389329,-0.681736 -0.532977,-1.366256 -0.184753,-0.880374 -0.185134,-0.944403 -0.0087,-1.435121 0.119676,-0.332814 0.162295,-0.65424 0.121063,-0.913024 -0.035,-0.219657 -0.07249,-1.022995 -0.0833,-1.785175 -0.0182,-1.283229 -0.0024,-1.407679 0.212916,-1.68148 0.12792,-0.162624 0.327469,-0.602869 0.443431,-0.978324 0.115972,-0.375465 0.307954,-0.819023 0.426635,-0.9857 0.292269,-0.410453 0.692245,-1.339617 0.777801,-1.806881 0.0385,-0.210291 0.168148,-0.47116 0.2881,-0.579713 0.289401,-0.261906 1.334177,-1.957176 1.657318,-2.689193 0.14133,-0.320146 0.396896,-0.853546 0.567933,-1.185344 0.171027,-0.331788 0.47135,-1.02235 0.667375,-1.534583 1.193736,-3.119311 2.008124,-4.562422 2.854716,-5.058559 0.380175,-0.222789 0.546852,-0.436308 0.972524,-1.245817 0.36921,-0.70214 0.688901,-1.140682 1.136534,-1.55903 1.545473,-1.444403 1.680009,-1.60545 2.099363,-2.51315 0.228631,-0.494867 0.582591,-1.548691 0.786574,-2.341838 0.203983,-0.793157 0.520012,-1.7272 0.702278,-2.075656 0.321332,-0.614299 0.334095,-0.691155 0.419915,-2.528644 0.07444,-1.593999 0.130334,-2.016274 0.35178,-2.657867 0.144801,-0.419523 0.305001,-1.095026 0.355991,-1.501108 0.05099,-0.406093 0.17598,-0.901383 0.27776,-1.100667 0.202036,-0.395562 1.01926,-1.558427 1.850676,-2.633387 0.290787,-0.375973 0.528701,-0.72589 0.528701,-0.777621 0,-0.05172 0.440531,-0.555964 0.978958,-1.120542 1.844072,-1.933649 2.558055,-2.75607 4.872715,-5.612765 0.303181,-0.374184 1.313244,-1.451684 2.244577,-2.394437 1.556068,-1.575149 1.977993,-1.951874 3.539384,-3.160278 0.647584,-0.501185 0.685991,-0.695675 0.138325,-0.700628 -0.218282,-0.002 -0.587376,-0.09561 -0.820209,-0.208079 -0.232833,-0.112469 -0.518583,-0.207994 -0.635,-0.212291 -0.264922,-0.0097 -1.950455,-1.145138 -2.106835,-1.41914 -0.06362,-0.111474 -0.367167,-0.585311 -0.674571,-1.052973 -0.307393,-0.467662 -0.587713,-0.971768 -0.622924,-1.120236 -0.03521,-0.148468 -0.123137,-0.389005 -0.19539,-0.534526 -0.131466,-0.264769 -0.284173,-0.812893 -0.530733,-1.905 -0.07227,-0.320146 -0.304673,-1.167526 -0.516424,-1.883067 -0.420582,-1.421122 -0.395214,-1.106672 -0.54446,-6.750258 -0.0524,-1.981342 -0.0347,-2.349562 0.158465,-3.297457 0.310885,-1.52554 0.293465,-1.926797 -0.100045,-2.303801 -0.418433,-0.400881 -0.414496,-0.780103 0.02138,-2.06375 0.300958,-0.886324 0.411236,-1.074554 0.931037,-1.589089 0.324305,-0.32102 0.859726,-0.725078 1.189831,-0.897908 0.330094,-0.17283 0.649732,-0.410239 0.7103,-0.527578 0.06057,-0.117338 0.179758,-0.719643 0.264848,-1.338456 0.0851,-0.618814 0.251915,-1.380814 0.370703,-1.693333 0.278257,-0.73213 0.272066,-0.896843 -0.04475,-1.190462 -0.215307,-0.199533 -0.250063,-0.308063 -0.199136,-0.621853 0.05569,-0.343206 0.01799,-0.42296 -0.388112,-0.821019 l -0.449791,-0.4408865 0.07046,-0.9695 c 0.185642,-2.5541425 0.269176,-2.862853 0.806651,-2.9809027 0.272012,-0.059743 0.386937,-0.011901 0.742018,0.3088979 0.655892,0.5925587 0.882597,0.5237289 1.519915,-0.4614757 0.252741,-0.390688 0.799116,-1.1771323 1.214163,-1.7476533 0.415057,-0.5705211 0.754644,-1.1031548 0.754644,-1.1836305 0,-0.080476 0.539115,-0.7176738 1.198023,-1.4159949 1.131073,-1.19871386 1.498611,-1.49696171 3.299894,-2.6777452 0.407458,-0.267099 1.098021,-0.7289515 1.534583,-1.0263378 0.436563,-0.2973875 0.949251,-0.6068706 1.139317,-0.6877421 0.372872,-0.1586621 1.892734,-1.2675901 1.94871,-1.4218284 0.05851,-0.1612752 1.904428,-1.4920384 2.460413,-1.7737762 0.849588,-0.4305184 1.835563,-0.7708932 2.233073,-0.7708932 0.246877,0 0.848064,-0.244221 1.823201,-0.7406555 1.494166,-0.7606622 3.732329,-1.6414983 4.576953,-1.8012801 0.261938,-0.049552 0.762001,-0.1855946 1.111251,-0.3023161 1.925436,-0.6434967 3.096567,-0.8518797 6.307656,-1.1223427 1.662567,-0.140034 1.798838,-0.137061 2.54,0.05541 0.430742,0.111862 0.99749,0.204078 1.259427,0.204924 0.5637,0.0018 1.805781,0.268115 2.328334,0.499183 0.203729,0.090088 0.608541,0.2500425 0.899583,0.3554546 0.291042,0.1054132 0.910167,0.3411517 1.375833,0.5238644 0.465667,0.1827128 1.299104,0.4886431 1.852084,0.6798469 0.721794,0.249574 1.252876,0.5251894 1.882637,0.9770396 0.482473,0.3461691 1.300925,0.8590766 1.818778,1.1397953 0.517853,0.2807187 1.242293,0.7581646 1.609862,1.0609919 0.36757,0.3028262 1.215994,0.8429614 1.88539,1.2003002 2.460663,1.3135621 5.354423,3.49085427 6.273703,4.72040687 0.845,1.13020153 1.13457,1.54554343 1.13522,1.62833043 0,0.041595 0.2887,0.5042514 0.64083,1.0281264 0.69551,1.0347388 1.46835,2.5627023 1.8468,3.65125 0.13153,0.3783541 0.28891,0.8307916 0.34971,1.0054166 0.11086,0.3183996 0.19335,0.7991909 0.50841,2.9633328 0.21054,1.446091 0.14827,3.137427 -0.17531,4.7625 -0.24072,1.208887 -0.24738,2.3134 -0.0349,5.796487 l 0.0695,1.13982 -0.55637,1.100288 c -0.48265,0.954496 -0.57442,1.238189 -0.69257,2.141014 -0.2303,1.759724 -0.47671,2.498657 -1.54107,4.621191 -0.22858,0.45584 -0.4156,0.899797 -0.4156,0.986571 0,0.308339 -0.56538,1.116001 -0.96749,1.382111 -0.40298,0.26668 -0.52554,0.580514 -0.2848,0.729299 0.0679,0.042 1.1276,0.08867 2.3548,0.103717 2.15447,0.02642 2.28447,0.04039 3.77825,0.406139 1.79803,0.440246 2.19632,0.460725 2.94106,0.151228 0.49225,-0.204569 0.60433,-0.214846 1.10966,-0.101758 0.62495,0.139856 0.97184,0.05919 2.27307,-0.528571 1.20895,-0.546082 2.14879,-0.61199 4.45878,-0.312679 1.35836,0.176005 2.05855,0.386243 2.6567,0.797695 0.58573,0.402908 1.07956,0.475116 1.789,0.261586 0.59633,-0.179486 2.7674,-0.421071 4.7618,-0.529867 1.56203,-0.08521 1.92548,-0.07607 2.32073,0.05839 0.79662,0.270995 1.1539,0.212438 1.96859,-0.322655 0.40369,-0.265142 0.8192,-0.559207 0.92338,-0.653477 0.10416,-0.09427 0.40644,-0.295712 0.67171,-0.447649 0.35826,-0.205185 0.59588,-0.464335 0.92375,-1.007396 0.71501,-1.184311 2.65008,-2.609238 4.40562,-3.244182 0.43906,-0.158799 1.32218,-0.477221 1.96247,-0.707603 1.25346,-0.451001 2.2752,-0.681193 3.86292,-0.870297 1.98702,-0.236662 4.03348,0.15941 6.02934,1.166925 0.34767,0.175499 0.68006,0.31909 0.73865,0.31909 0.0586,0 0.45286,0.161231 0.87615,0.358291 0.42328,0.197061 1.13097,0.507846 1.57262,0.690634 0.90046,0.372673 1.21941,0.66005 1.61824,1.458054 0.33711,0.674522 0.5672,0.847365 2.5,1.878103 0.84402,0.450104 1.65364,0.950533 1.79917,1.112063 0.14552,0.161531 0.43127,0.403163 0.635,0.536958 0.8627,0.566568 1.48166,1.31706 1.48166,1.796524 0,0.722264 0.93925,1.588539 1.72236,1.588539 0.94747,0 2.52737,0.88497 4.59628,2.574566 0.84854,0.692975 0.98108,0.864827 1.19768,1.552934 0.11048,0.350986 0.36077,0.685017 0.95166,1.27 0.44098,0.436563 1.05314,1.087141 1.36035,1.445726 0.55798,0.651267 0.5584,0.652325 0.39221,0.973698 -0.21734,0.420307 -0.20707,0.814473 0.0351,1.347767 0.31183,0.686636 0.75396,0.892471 2.24543,1.045368 1.23428,0.126524 1.27962,0.140283 1.65996,0.503746 0.52913,0.50564 0.79112,0.624057 1.32012,0.596678 0.38635,-0.02 0.54254,0.04569 1.12092,0.471477 0.36961,0.272086 0.78399,0.494707 0.92084,0.494707 0.25672,0 0.6804,-0.366808 0.6804,-0.589079 0,-0.06921 0.0797,-0.191199 0.17702,-0.271092 0.0974,-0.07988 0.35317,-0.423016 0.56846,-0.762519 l 0.39143,-0.617262 0.35759,0.310219 c 0.19667,0.170624 0.65841,0.530225 1.0261,0.799105 0.36768,0.26888 1.00431,0.799772 1.41472,1.179756 0.83092,0.769302 0.82655,0.723889 0.14295,1.485455 -0.90289,1.005861 -1.00677,1.569434 -0.4164,2.25914 0.71474,0.835004 1.33333,0.970481 1.88656,0.413152 0.18779,-0.189177 0.38963,-0.43143 0.44855,-0.538353 0.10103,-0.183325 0.13843,-0.185092 0.65729,-0.03101 0.71331,0.211836 2.17362,1.242483 2.50563,1.768422 0.14196,0.224874 0.39888,0.481658 0.57093,0.570632 0.39045,0.201909 1.24258,0.203528 1.59333,0.003 0.14552,-0.08319 0.50751,-0.15294 0.80442,-0.155003 0.60588,-0.0042 1.12326,-0.153109 1.54026,-0.443273 0.41549,-0.289115 0.60867,-0.243776 1.08659,0.255059 0.31305,0.32675 0.58914,0.822346 1.00484,1.803781 0.31527,0.744294 0.61383,1.378352 0.66348,1.409044 0.14603,0.09025 0.5717,0.986631 1.13282,2.385472 0.28826,0.718619 0.67083,1.568524 0.85013,1.88867 0.43639,0.779156 0.74861,1.806141 0.75146,2.471769 0.003,0.783961 0.26588,1.256337 1.36139,2.449481 0.63189,0.688213 1.07559,1.281716 1.26874,1.69708 0.1826,0.392705 0.48065,0.800375 0.77375,1.058333 0.6514,0.573299 1.18416,1.275144 1.11157,1.464331 -0.0329,0.08576 -0.1699,0.171524 -0.30444,0.190585 -0.17878,0.02535 -0.25375,0.114628 -0.27867,0.331872 -0.0276,0.241046 0.0773,0.409501 0.55563,0.891625 0.32433,0.32693 0.5897,0.629888 0.5897,0.673227 0,0.04335 0.23353,0.334317 0.51894,0.64662 0.33156,0.362765 0.56424,0.735976 0.64436,1.033516 0.069,0.256138 0.33997,0.927999 0.60222,1.493033 0.46932,1.011153 0.47392,1.03178 0.29244,1.308756 -0.23371,0.35669 -0.57499,0.530955 -1.3544,0.69161 -1.18742,0.24475 -1.52182,0.01818 -2.74805,-1.861873 -0.8613,-1.320556 -1.57072,-2.079064 -1.90065,-2.032158 -0.31905,0.04535 -0.36073,0.437007 -0.0839,0.788902 0.12049,0.153173 0.21907,0.336138 0.21907,0.40658 0,0.07044 0.0974,0.216207 0.21641,0.323914 0.19747,0.178721 1.43853,2.198624 1.81807,2.959047 0.0872,0.174625 0.31341,0.769937 0.5028,1.322917 0.39383,1.1499 0.66726,1.720807 1.20979,2.525892 l 0.38274,0.567976 -0.38728,0.437441 c -0.21301,0.24059 -0.60643,0.570981 -0.87429,0.734208 -0.46759,0.284935 -0.52493,0.294068 -1.43949,0.229298 -1.17313,-0.0831 -1.63976,-0.335671 -2.80583,-1.518687 -0.43724,-0.4436 -1.16293,-1.11289 -1.61263,-1.487318 -0.44969,-0.374417 -1.83026,-1.697122 -3.06793,-2.939341 -1.86363,-1.870498 -2.29574,-2.253604 -2.51486,-2.229644 -0.38748,0.04236 -0.40469,0.428329 -0.0354,0.793962 0.16292,0.161311 0.36851,0.419439 0.45685,0.573606 0.0883,0.154167 0.29907,0.486516 0.46828,0.738569 0.41541,0.618786 0.48901,1.018624 0.32079,1.742323 -0.15732,0.676751 -0.60784,1.313413 -1.03785,1.466649 -0.36735,0.130905 -1.90394,-0.08788 -2.6316,-0.374692 -0.64479,-0.254159 -2.1865,-1.665891 -2.98387,-2.732299 -0.93279,-1.247553 -1.89221,-2.255266 -2.95027,-3.098758 -1.21913,-0.971899 -1.52323,-1.144185 -2.01958,-1.144185 -0.22795,0 -0.78258,-0.202258 -1.45108,-0.529167 -0.59515,-0.291042 -1.17187,-0.529167 -1.28161,-0.529167 -0.11226,0 -0.27834,-0.140853 -0.37979,-0.322135 -0.0992,-0.177165 -0.37079,-0.616331 -0.60362,-0.975911 -0.51082,-0.788881 -1.06663,-1.793673 -1.74879,-3.161389 -0.59501,-1.192975 -1.45455,-2.203133 -2.57621,-3.027617 -0.87855,-0.645795 -1.13179,-0.833755 -2.9775,-2.210033 -2.32978,-1.737211 -2.86475,-2.275564 -3.65306,-3.676099 -0.39842,-0.707845 -0.82708,-1.019186 -1.404,-1.019757 -0.44539,0 -1.19231,-0.343482 -1.7953,-0.824527 -0.44087,-0.351726 -0.54789,-0.378872 -2.35514,-0.59727 -0.83666,-0.101113 -1.48667,-0.245057 -1.905,-0.421862 -0.34925,-0.147606 -0.69761,-0.269505 -0.77413,-0.270891 -0.27523,-0.005 -1.25779,-0.477086 -2.38133,-1.144238 -1.01941,-0.605304 -1.23338,-0.690679 -1.95578,-0.780373 -0.44613,-0.05538 -0.89917,-0.07768 -1.00675,-0.04955 -0.11333,0.02964 -0.38135,-0.08179 -0.63715,-0.264891 -2.46959,-1.767734 -3.46588,-2.502609 -3.80204,-2.804382 -0.33527,-0.301 -0.47549,-0.355991 -0.89959,-0.352827 -0.63912,0.0048 -0.89898,0.152792 -1.38255,0.787506 -0.44229,0.580517 -1.26133,1.053761 -2.02092,1.16767 -0.62111,0.09313 -0.93342,0.257492 -1.96726,1.035314 -1.13323,0.852583 -2.50989,1.435301 -3.80584,1.610932 -0.83628,0.113337 -1.55597,0.434424 -2.49707,1.114033 -0.48209,0.348149 -1.0694,0.690774 -1.30511,0.761397 -0.23571,0.07062 -0.59677,0.298037 -0.80237,0.505375 -0.75603,0.762455 -1.9353,1.334442 -3.70753,1.798278 -0.54017,0.141372 -1.19738,0.767334 -2.1891,2.085033 -0.38094,0.506158 -0.81762,0.935207 -1.23713,1.215506 -0.35659,0.238263 -0.78368,0.557509 -0.94909,0.709422 -0.34168,0.313817 -0.70468,0.96375 -0.70468,1.261713 0,0.110109 -0.21505,0.527622 -0.47791,0.92782 -0.53121,0.808789 -0.66875,1.186064 -0.75993,2.084419 -0.0465,0.458216 -0.0158,0.713518 0.12265,1.020604 0.16534,0.366649 0.17254,0.540882 0.0688,1.664335 -0.0637,0.69015 -0.16349,1.51675 -0.22171,1.836896 -0.14158,0.778553 -0.0459,1.939597 0.32178,3.904224 0.44999,2.404512 0.92767,3.181455 2.06054,3.351339 0.61867,0.09277 0.70909,0.17907 1.1581,1.10527 0.21163,0.436563 0.51915,1.055688 0.68336,1.375834 0.16421,0.320146 0.32559,0.827659 0.35861,1.127813 0.0644,0.585078 0.62903,1.809834 1.27834,2.772695 0.21021,0.311722 0.48157,0.893953 0.60304,1.293855 0.23896,0.786733 0.68621,1.304534 1.23562,1.43056 0.90714,0.208068 4.74967,2.861955 5.90739,4.080002 1.79116,1.8845 2.63247,3.228668 5.18997,8.292156 1.28103,2.53628 2.01027,4.26231 2.42394,5.73729 0.34246,1.22103 0.5847,1.5152 1.46493,1.77894 l 0.43705,0.13095 -0.0325,0.62478 c -0.0367,0.70549 0.11026,1.31308 1.03243,4.26929 1.24794,4.00054 1.3904,4.56848 1.50564,6.00246 0.1016,1.26402 0.16968,2.36211 0.18613,3.00169 0.004,0.1501 0.15744,0.49999 0.34129,0.77755 0.32681,0.49341 0.33157,0.51801 0.21317,1.10294 -0.0666,0.32905 -0.19321,0.85869 -0.28136,1.17697 -0.0881,0.31828 -0.16119,0.81834 -0.16236,1.11125 -0.003,0.75378 -0.28701,3.14634 -0.47784,4.02506 -0.0885,0.40746 -0.20314,1.02658 -0.25479,1.37583 -0.2578,1.7433 -0.75292,3.36018 -1.32329,4.32142 -0.23598,0.3977 -0.62992,1.10653 -0.87541,1.57519 -0.24549,0.46865 -0.67974,1.19102 -0.96501,1.60525 -0.28526,0.41422 -0.62189,0.95701 -0.74808,1.20618 -0.12617,0.24917 -0.53107,0.84448 -0.89975,1.32292 -0.36869,0.47843 -0.8484,1.22706 -1.06603,1.66363 -0.21762,0.43656 -0.6217,1.17475 -0.89794,1.64041 -0.27625,0.46567 -0.76681,1.32874 -1.09014,1.91793 -0.32332,0.5892 -0.76156,1.29884 -0.97389,1.57699 -0.21231,0.27815 -0.48521,0.70015 -0.60644,0.93778 -0.12124,0.23763 -0.35776,0.59955 -0.52561,0.80426 -1.80627,2.2029 -2.62865,3.32304 -2.62841,3.58009 0,0.16642 0.22251,0.61425 0.53541,1.07837 0.29433,0.43656 0.74165,1.19856 0.99406,1.69333 0.57568,1.12847 1.86139,2.93663 2.71768,3.82201 0.35952,0.37175 0.98334,1.09263 1.38626,1.60195 0.40292,0.50932 0.77334,0.92604 0.82317,0.92604 0.09,0 1.91674,2.10634 4.43772,5.11683 0.72374,0.86427 1.60042,1.81677 1.94818,2.11667 2.05275,1.7702 2.77782,2.64189 3.66667,4.40817 0.24463,0.48612 1.60171,2.36469 1.79419,2.48364 0.0584,0.0361 0.28143,0.32958 0.49552,0.6521 0.21409,0.32254 0.97352,1.17071 1.68764,1.88482 1.00974,1.00974 1.32345,1.39147 1.41112,1.71705 0.16502,0.61287 0.72587,1.39933 1.26419,1.7728 0.38345,0.26601 0.54833,0.49372 0.88789,1.22625 0.22934,0.49478 0.53321,1.05321 0.67527,1.24097 0.14205,0.18776 0.60833,1.06883 1.03618,1.95792 0.47809,0.99351 1.0729,2.02441 1.54333,2.67486 1.39743,1.93214 2.32462,4.11189 3.2413,7.62 0.59629,2.28198 0.93342,3.1013 1.45381,3.5332 0.29643,0.24601 0.48835,1.08932 0.36768,1.61555 -0.16619,0.72475 -0.053,1.64207 0.31797,2.57709 0.28799,0.72582 0.46598,0.98261 1.2471,1.79916 0.8516,0.89023 1.93554,2.382 2.16025,2.97302 0.0542,0.14256 0.33608,0.65387 0.62639,1.13626 0.29033,0.48238 0.60374,1.06482 0.69648,1.29431 0.0927,0.22949 0.4489,0.98875 0.79146,1.68725 0.75352,1.53651 1.84445,4.0106 2.13198,4.83507 0.11541,0.33096 0.27795,0.65826 0.36117,0.72734 0.0832,0.0691 0.15134,0.18248 0.15134,0.25202 0,0.46302 2.80954,5.95097 3.6605,7.15015 0.18587,0.26194 0.60238,1.01025 0.92556,1.66294 0.32318,0.65267 0.67888,1.31942 0.79044,1.48167 0.58962,0.85749 2.03876,3.20865 2.20395,3.57581 0.10475,0.23283 0.3474,0.64458 0.53923,0.91498 0.19182,0.2704 0.7582,1.27053 1.25861,2.2225 0.50041,0.95197 0.96757,1.80229 1.03814,1.8896 0.0706,0.0873 0.33683,0.51594 0.59169,0.9525 0.25486,0.43656 0.6857,1.0795 0.95741,1.42875 0.27171,0.34925 0.85649,1.18269 1.2995,1.85208 0.73495,1.11049 1.301,1.88069 2.20627,3.00196 0.44803,0.55493 0.83591,0.69989 1.56786,0.58597 1.20457,-0.18748 2.71027,-0.31616 3.02417,-0.25845 0.3311,0.0609 0.76742,0.44798 0.98771,0.8763 0.28455,0.55332 1.14319,0.68253 1.5498,0.23322 0.2871,-0.31723 0.89575,-0.27504 1.23153,0.0854 0.14913,0.16007 0.29665,0.4101 0.32783,0.55562 0.18667,0.87133 0.6514,1.91748 1.71602,3.86292 0.19112,0.34925 0.3788,0.84931 0.41708,1.11125 0.0383,0.26194 0.13296,0.59181 0.2104,0.73304 0.0926,0.16897 0.1117,0.35832 0.0557,0.5536 -0.11099,0.387 0.0488,0.94797 0.34857,1.22361 0.31503,0.2897 1.03316,0.66475 1.27281,0.66475 0.15336,0 0.97088,0.3514 1.11717,0.4802 0.0193,0.017 -0.0196,0.13287 -0.0863,0.25759 -0.0667,0.12471 -0.16938,0.66872 -0.22808,1.20892 -0.14603,1.34384 0.0503,2.28981 0.72188,3.4776 1.22735,2.17084 1.35421,2.50172 2.30259,6.00569 0.54101,1.99885 0.61112,3.40569 0.21646,4.34336 -0.30098,0.71509 -0.27416,1.01299 0.12491,1.38791 0.23243,0.21835 0.35123,0.24444 0.99386,0.21829 l 0.72988,-0.0297 0.32939,0.71777 c 0.38465,0.8382 0.81096,2.72904 0.93582,4.15068 0.0823,0.93703 0.10831,1.01712 0.42094,1.29646 0.25309,0.22613 0.44099,0.29812 0.78135,0.29935 0.78065,0.003 0.7563,-0.0883 0.66872,2.50227 -0.043,1.27133 -0.11429,3.88691 -0.15847,5.81238 -0.0968,4.22103 -0.089,4.18998 -1.15477,4.56856 -0.66286,0.23546 -1.41201,0.31018 -5.15153,0.51387 -1.52045,0.0828 -1.56476,0.0527 -1.59102,-1.08286 -0.0246,-1.06165 -0.095,-1.27262 -0.49408,-1.47896 -0.25989,-0.1344 -0.40993,-0.14574 -0.75978,-0.0575 -0.51017,0.12874 -4.74675,0.35144 -5.50778,0.28954 -0.70547,-0.0574 -0.83374,-0.30316 -0.90821,-1.74026 -0.0511,-0.98518 -0.0818,-1.11617 -0.30448,-1.29646 -0.37657,-0.30493 -1.0027,-0.26774 -1.27278,0.0756 -0.2024,0.25731 -0.21685,0.41446 -0.21167,2.30187 0.005,1.95408 -0.0629,2.4973 -0.33483,2.66537 -0.14362,0.0888 -7.06515,0.0727 -7.57328,-0.0175 -0.41901,-0.0744 -0.5691,-0.38812 -0.56594,-1.18275 0.004,-1.00391 -0.32513,-3.28997 -0.63542,-4.41356 -0.16075,-0.58208 -0.44321,-1.89177 -0.62769,-2.91042 -0.18449,-1.01864 -0.45231,-2.39977 -0.59517,-3.06916 -0.49601,-2.3241 -0.48295,-2.44469 0.31555,-2.91265 0.52308,-0.30655 1.9643,-0.79152 2.3522,-0.79152 0.47394,0 0.97489,-0.28415 1.05357,-0.59763 0.13815,-0.55042 -0.12023,-1.3525 -0.64206,-1.99317 -0.26629,-0.32693 -0.60926,-0.84215 -0.76217,-1.14493 -0.15291,-0.30279 -0.41572,-0.7514 -0.58403,-0.99691 -0.36699,-0.53535 -1.2998,-2.5788 -1.41467,-3.09903 -0.045,-0.20373 -0.0865,-1.02915 -0.0924,-1.83428 l -0.0106,-1.46386 -0.32609,-0.29139 c -0.3111,-0.278 -0.33133,-0.34695 -0.44,-1.49947 -0.13876,-1.47167 -0.38796,-2.98003 -0.5885,-3.56211 -0.15571,-0.45194 -0.38355,-0.78744 -1.06186,-1.56362 l -0.40562,-0.46416 0.12384,-0.56075 c 0.15642,-0.70841 -0.0422,-1.20024 -0.91479,-2.26512 -0.20344,-0.24828 -0.42467,-0.67794 -0.49429,-0.96004 -0.10335,-0.41876 -0.19118,-0.54314 -0.48828,-0.69144 -0.20626,-0.10295 -0.42083,-0.32013 -0.49828,-0.50433 -0.0748,-0.17792 -0.20946,-0.35168 -0.2992,-0.38612 -0.10601,-0.0407 -0.16318,-0.19872 -0.16318,-0.45108 0,-0.49435 -0.18685,-0.75585 -0.93363,-1.30672 -0.33053,-0.2438 -0.91051,-0.74865 -1.28887,-1.12188 -0.37835,-0.37323 -1.25064,-1.13089 -1.93843,-1.6837 -0.68778,-0.55283 -1.30691,-1.09876 -1.37583,-1.2132 -0.15212,-0.25259 -2.73445,-2.46282 -4.24069,-3.62964 -1.24462,-0.96415 -2.61761,-2.1496 -4.76602,-4.11502 -0.81966,-0.74984 -1.82655,-1.59056 -2.23756,-1.86826 -0.411,-0.27771 -1.0521,-0.84873 -1.42465,-1.26896 -0.74963,-0.84555 -2.89301,-2.70384 -3.82456,-3.31588 -0.32945,-0.21645 -0.72362,-0.55692 -0.87593,-0.75662 -0.35232,-0.46192 -2.99388,-2.72939 -4.5612,-3.91526 -1.03834,-0.78564 -3.16007,-2.64088 -3.85599,-3.3717 -0.40008,-0.42012 -0.93641,-0.85231 -1.27331,-1.02607 -0.97879,-0.5048 -1.46397,-0.88364 -2.22917,-1.74057 -0.40379,-0.45218 -0.73416,-0.85746 -0.73416,-0.90061 0,-0.0431 -0.31535,-0.42967 -0.7008,-0.85892 -1.26512,-1.40896 -1.91184,-2.26755 -2.21228,-2.93701 -0.30926,-0.6891 -0.67563,-1.07137 -1.02683,-1.07137 -0.11396,0 -0.56889,-0.1284 -1.01094,-0.28534 -0.88682,-0.31482 -1.42022,-0.76538 -1.98123,-1.67352 -0.27371,-0.44306 -0.41446,-0.55278 -1.02045,-0.79551 -0.38662,-0.15486 -0.8473,-0.3962 -1.02372,-0.53631 -0.40941,-0.32512 -1.26049,-1.48499 -1.51982,-2.07124 -0.10987,-0.24837 -0.28606,-0.51276 -0.39156,-0.58753 -0.10548,-0.0748 -0.29279,-0.42894 -0.41625,-0.787 -0.25943,-0.75249 -0.22356,-1.52888 0.10051,-2.1758 0.27326,-0.54548 0.25503,-1.05022 -0.0482,-1.33514 -0.13471,-0.12656 -0.31569,-0.23011 -0.40215,-0.23011 -0.26175,0 -1.42543,-0.90902 -1.66976,-1.30434 -0.24974,-0.40411 -0.7374,-0.63499 -1.13199,-0.53596 -0.15801,0.0397 -0.37547,-0.0172 -0.596,-0.15581 -0.33284,-0.2092 -0.60273,-0.55641 -1.98591,-2.55473 -0.97741,-1.41209 -1.07669,-1.54959 -1.70812,-2.36596 -0.32732,-0.4232 -0.63165,-0.88551 -0.6763,-1.02737 -0.13677,-0.43456 -0.68691,-1.34669 -0.84997,-1.40925 -0.20053,-0.077 -0.44048,0.0182 -0.51131,0.2028 -0.0309,0.0805 0.10329,0.49354 0.29816,0.91786 0.66368,1.44512 0.68624,1.81951 0.51197,8.49734 -0.082,3.14295 -0.12433,3.73227 -0.33432,4.65667 -0.44018,1.93773 -0.56745,2.53321 -0.71245,3.33354 -0.19067,1.05237 -0.42034,2.66514 -0.56521,3.96896 -0.0647,0.58208 -0.23429,1.55839 -0.37691,2.16958 -0.14261,0.61119 -0.26078,1.37319 -0.26258,1.69333 -0.003,0.52705 -0.29684,2.64953 -0.47623,3.43959 -0.0397,0.17462 -0.19049,0.68542 -0.33518,1.1351 -0.26404,0.82053 -0.52443,2.07988 -0.83757,4.05073 -0.0925,0.58208 -0.25631,1.43933 -0.36407,1.905 -0.2414,1.04327 -0.45186,2.10947 -0.68939,3.4925 -0.1,0.58208 -0.2899,1.48696 -0.42209,2.01083 -0.13217,0.52388 -0.27411,1.3335 -0.31539,1.79917 -0.0489,0.55138 -0.23688,1.33402 -0.539,2.24403 -0.676,2.03618 -0.88994,3.10696 -0.88994,4.45411 0,0.62927 -0.0567,1.78469 -0.1259,2.56758 -0.0692,0.78289 -0.12878,1.69597 -0.13229,2.02905 -0.008,0.78535 0.20415,1.01701 1.0362,1.12993 0.40255,0.0546 0.68632,0.16279 0.86331,0.32907 0.2449,0.23008 0.26368,0.31886 0.26368,1.24693 0,0.66917 0.0591,1.16567 0.17897,1.50313 0.16095,0.45319 0.16508,0.62071 0.0409,1.66465 -0.16368,1.37645 -0.12869,1.48323 0.70249,2.14329 0.41101,0.3264 0.56934,0.53091 0.61998,0.80085 0.0608,0.32407 0.0173,0.41887 -0.40995,0.8941 -0.76576,0.85172 -0.81492,1.10709 -0.81492,4.23345 0,2.9993 -0.0985,3.66772 -0.74642,5.06651 -0.17156,0.37033 -0.31192,0.7588 -0.31192,0.86326 0,0.48849 -0.79584,1.9272 -1.49174,2.69673 -0.39459,0.43633 -0.62492,1.19311 -0.62492,2.05317 0,0.89909 -0.20642,1.21883 -0.85364,1.32233 -0.71656,0.11458 -1.1431,0.3456 -1.38025,0.74752 -0.12211,0.20698 -0.33168,0.40384 -0.4657,0.43747 -0.32887,0.0825 -0.63459,0.43697 -0.78661,0.91192 -0.15104,0.47186 -0.59501,0.77044 -1.2941,0.87031 -0.27174,0.0388 -0.54788,0.13542 -0.61367,0.21469 -0.16168,0.19482 -0.26229,0.86224 -0.14124,0.93706 0.0535,0.0331 0.45166,0.0898 0.88478,0.12598 l 0.78751,0.0659 0.58304,-0.57533 c 0.4364,-0.43065 0.73395,-0.62291 1.18314,-0.76451 0.5715,-0.18015 0.6925,-0.18076 2.53905,-0.0129 1.06641,0.097 2.40094,0.17605 2.9656,0.17572 1.48367,-10e-4 2.0185,0.13923 2.56408,0.67165 0.39277,0.38329 0.48493,0.56734 0.72609,1.45015 0.15193,0.55613 0.32882,1.34028 0.39308,1.74256 0.14445,0.90426 0.14491,3.41258 0.001,4.17271 -0.0588,0.31005 -0.1068,0.71201 -0.10665,0.89324 0,0.18123 -0.13872,0.78195 -0.30857,1.33493 -0.16985,0.55298 -0.40602,1.33934 -0.52481,1.74747 -0.15965,0.5485 -0.31526,0.83828 -0.59662,1.11098 l -0.38065,0.36894 -1.92585,-0.045 c -1.05921,-0.0248 -2.90619,-0.0485 -4.1044,-0.0527 l -2.17856,-0.008 -0.6102,0.47087 -0.6102,0.47086 -2.7675,0.022 c -1.52212,0.0121 -3.21993,-0.0164 -3.77291,-0.0634 z m 90.68248,-15.54932 c 0.17602,-0.0942 0.2322,-0.20559 0.20823,-0.41293 -0.0289,-0.2506 -0.0763,-0.28242 -0.40321,-0.27122 -0.20373,0.007 -0.62045,0.0493 -0.92604,0.0941 -0.54067,0.0792 -0.55563,0.0745 -0.55563,-0.17674 0,-0.35924 -0.18959,-0.51216 -0.635,-0.51216 -0.46979,0 -0.635,0.15389 -0.635,0.59152 0,0.5183 0.30479,0.81394 0.91144,0.88404 0.65247,0.0754 1.71955,-0.0277 2.03521,-0.19663 z M 95.536483,35.760216 c 0.28939,-0.227633 0.69924,-0.924088 0.69924,-1.188213 0,-0.08157 0.185685,-0.547815 0.412634,-1.036092 0.22696,-0.488276 0.492326,-1.173524 0.589703,-1.522774 0.09739,-0.34925 0.22278,-0.777875 0.27866,-0.9525 0.05587,-0.174625 0.148209,-0.960438 0.205189,-1.74625 0.05697,-0.785813 0.174234,-1.643063 0.260562,-1.905 0.08633,-0.261938 0.179906,-0.747587 0.207941,-1.079221 0.0469,-0.554585 0.512593,-1.902038 1.396154,-4.039629 l 0.300408,-0.726767 2.894876,0.0038 c 2.93768,0.0038 3.47829,-0.05055 4.46054,-0.448538 0.20373,-0.08255 0.48979,-0.175346 0.63568,-0.206221 0.4041,-0.08552 0.95182,-0.587136 0.95182,-0.871705 0,-0.14214 -0.10528,-0.315779 -0.24827,-0.409471 -0.13656,-0.08947 -0.30382,-0.348052 -0.3717,-0.574622 -0.0679,-0.226569 -0.34907,-0.714057 -0.62485,-1.083304 -0.27579,-0.369248 -0.57287,-0.774751 -0.66018,-0.901117 -0.44603,-0.645547 -3.15462,-3.911487 -3.91926,-4.725761 l -0.87695,-0.93385 0.0652,-3.9656785 c 0.0699,-4.2514753 0.0539,-4.4534243 -0.59018,-7.45947193 -0.41615,-1.94234537 -1.24054,-2.22921717 -1.976242,-0.68769864 -0.178647,0.37431662 -0.49585,0.93463214 -0.704903,1.24514608 C 98.713462,0.85574894 98.479739,1.23089 98.403127,1.378881 98.326525,1.526873 97.875844,2.193623 97.401626,2.8605476 96.927418,3.5274733 96.444882,4.2240069 96.329333,4.4084014 96.089208,4.7916017 95.12423,5.5522935 94.600842,5.7709822 94.253941,5.9159231 94.235653,5.9095149 93.574809,5.411513 92.153753,4.3406194 88.44548,2.1496175 86.975307,1.5122479 85.25017,0.76434387 84.370441,0.34223292 83.866008,0.02033767 c -0.705125,-0.44995253 -1.466184,-0.7925763 -1.590231,-0.71590852 -0.05134,0.0317288 -0.298302,-0.014623 -0.548809,-0.10300546 -0.425154,-0.15000288 -0.468598,-0.14755072 -0.653024,0.0368734 -0.19287,0.19286854 -0.189843,0.20992464 0.127202,0.71703881 0.178625,0.28570872 0.485055,0.8528452 0.680942,1.2603035 0.195897,0.4074583 0.540946,0.9642613 0.766783,1.2373388 0.390663,0.4723934 0.698712,0.9929421 2.023481,3.4193278 0.525939,0.9632802 1.682358,3.1534449 2.151401,4.0745833 0.191082,0.3752517 0.916961,2.1258177 1.017651,2.4542057 0.04257,0.138838 -0.165079,0.28923 -0.929227,0.673008 -1.259004,0.632307 -3.647377,2.129224 -5.016871,3.144326 -1.421701,1.053802 -1.897676,1.378309 -2.217832,1.51208 -0.202925,0.08479 -0.473816,0.295996 -0.601991,0.469351 -0.128164,0.173356 -0.403384,0.369101 -0.6116,0.434989 -0.208217,0.06589 -0.497639,0.195656 -0.64316,0.288372 -0.145521,0.09272 -0.642461,0.361252 -1.104318,0.596746 -0.461857,0.235495 -0.858287,0.486351 -0.880946,0.557457 -0.02266,0.07111 0.07922,0.249701 0.226388,0.396875 0.206597,0.206597 0.375666,0.26759 0.741754,0.26759 0.260795,0 0.6056,0.04997 0.766233,0.111042 0.628746,0.239045 1.887559,0.334635 8.337191,0.633092 2.122932,0.09824 3.880136,0.287985 4.653121,0.502448 0.26778,0.07429 0.331989,0.178472 0.538766,0.874092 0.129117,0.434359 0.379804,1.14693 0.557085,1.583493 0.403194,0.992851 0.736135,2.061174 0.935334,3.001254 0.08459,0.399212 0.248624,0.859001 0.364512,1.021754 0.115898,0.162755 0.210714,0.346742 0.210714,0.408863 0,0.06212 0.219001,0.65008 0.486674,1.306579 0.267674,0.656498 0.554207,1.503195 0.636747,1.88155 0.08254,0.378354 0.223625,0.997479 0.313531,1.375833 0.377296,1.587784 0.389445,1.674625 0.278627,1.992501 -0.0772,0.221463 -0.07473,0.346848 0.0085,0.430052 0.1709,0.1709 0.328422,0.14548 0.645869,-0.104224 z"
         id="path888" />
    </g>
  </g>
</svg>
