<?xml version="1.0" encoding="UTF-8" standalone="no"?>
<!-- Created with Inkscape (http://www.inkscape.org/) -->

<svg
   width="210mm"
   height="297mm"
   viewBox="0 0 210 297"
   version="1.1"
   id="svg5"
   inkscape:version="1.1.2 (b8e25be8, 2022-02-05)"
   sodipodi:docname="skater-jam_03.svg"
   xmlns:inkscape="http://www.inkscape.org/namespaces/inkscape"
   xmlns:sodipodi="http://sodipodi.sourceforge.net/DTD/sodipodi-0.dtd"
   xmlns="http://www.w3.org/2000/svg"
   xmlns:svg="http://www.w3.org/2000/svg">
  <sodipodi:namedview
     id="namedview7"
     pagecolor="#ffffff"
     bordercolor="#999999"
     borderopacity="1"
     inkscape:pageshadow="0"
     inkscape:pageopacity="0"
     inkscape:pagecheckerboard="0"
     inkscape:document-units="mm"
     showgrid="false"
     inkscape:zoom="0.16013082"
     inkscape:cx="346.59162"
     inkscape:cy="527.69354"
     inkscape:window-width="1660"
     inkscape:window-height="969"
     inkscape:window-x="0"
     inkscape:window-y="44"
     inkscape:window-maximized="0"
     inkscape:current-layer="layer1" />
  <defs
     id="defs2" />
  <g
     inkscape:label="Layer 1"
     inkscape:groupmode="layer"
     id="layer1">
    <path
       style="fill:#000000;stroke-width:0.0351342"
       d="m 70.84156,216.882 c -0.306399,-0.11944 -0.457591,-0.23954 -0.617737,-0.49074 -0.03617,-0.0567 -0.0749,-0.11105 -0.08607,-0.12071 -0.01117,-0.01 -0.0878,-0.15489 -0.170288,-0.32274 -0.162633,-0.33094 -0.220161,-0.50782 -0.354961,-1.09141 -0.03975,-0.17212 -0.01549,-1.2052 0.03816,-1.62495 0.01976,-0.15459 0.07445,-0.41858 0.121532,-0.58664 0.04708,-0.16806 0.08561,-0.33802 0.08561,-0.37769 0,-0.0397 0.01581,-0.0721 0.03513,-0.0721 0.01932,0 0.03513,-0.0209 0.03513,-0.0464 0,-0.0763 0.241344,-0.33447 0.398211,-0.42596 0.0805,-0.0469 0.217515,-0.10836 0.304472,-0.13646 0.17265,-0.0558 1.11816,-0.1016 1.264831,-0.0613 0.115187,0.0317 0.343549,-0.0581 0.371452,-0.14602 0.01389,-0.0438 -0.0047,-0.0963 -0.05193,-0.14656 -0.08805,-0.0937 -0.09354,-0.18778 -0.0173,-0.29663 0.03096,-0.0442 0.04783,-0.0888 0.03749,-0.0992 -0.01034,-0.0103 -0.146819,-0.0239 -0.303296,-0.0301 -0.257477,-0.0103 -0.302276,-0.0232 -0.471549,-0.13552 -0.176381,-0.11708 -0.189609,-0.13625 -0.2321,-0.33648 -0.02478,-0.11678 -0.05871,-0.21233 -0.07539,-0.21233 -0.01668,0 -0.03034,-0.048 -0.03034,-0.10664 0,-0.11291 -0.07577,-0.25626 -0.190354,-0.36013 -0.05636,-0.0511 -0.07162,-0.11953 -0.08227,-0.36891 -0.016,-0.37466 0.04927,-0.92223 0.132815,-1.11427 0.01682,-0.0386 0.06372,-0.14595 0.104225,-0.23845 0.09298,-0.21231 0.486784,-0.79514 0.689912,-1.02107 0.184954,-0.20571 0.211578,-0.29308 0.158877,-0.5214 -0.05038,-0.21826 -0.01595,-0.29115 0.263833,-0.55847 0.300872,-0.28748 0.806459,-0.62944 0.930603,-0.62944 0.01552,0 0.111656,-0.0385 0.213636,-0.0855 0.101977,-0.047 0.264466,-0.11064 0.361085,-0.14133 0.17819,-0.0566 0.232823,-0.0777 0.42161,-0.16239 0.15491,-0.0695 0.564286,-0.33314 0.649185,-0.41804 0.04042,-0.0404 0.155946,-0.12673 0.256732,-0.1918 0.100782,-0.0651 0.214877,-0.14752 0.253539,-0.18324 0.03866,-0.0357 0.125622,-0.10631 0.193238,-0.15687 0.06762,-0.0506 0.186787,-0.15333 0.264817,-0.22837 0.218359,-0.20999 0.682035,-0.62059 0.766371,-0.67864 0.04153,-0.0286 0.130847,-0.10392 0.19848,-0.16741 0.06763,-0.0635 0.135516,-0.11557 0.150852,-0.11574 0.01534,0 0.07051,-0.0398 0.122601,-0.0881 0.05209,-0.0483 0.145922,-0.11212 0.208514,-0.14183 0.06259,-0.0297 0.165524,-0.10143 0.228745,-0.1594 0.06322,-0.058 0.150514,-0.11445 0.193993,-0.12549 0.04348,-0.011 0.07905,-0.0342 0.07905,-0.0514 0,-0.0172 0.0224,-0.0313 0.04977,-0.0313 0.02737,0 0.05504,-0.0121 0.06149,-0.0269 0.02067,-0.0475 0.495578,-0.43571 0.580093,-0.47422 0.04488,-0.0204 0.0816,-0.0505 0.0816,-0.0667 0,-0.0162 0.01874,-0.0295 0.04165,-0.0295 0.02291,0 0.07903,-0.0351 0.124709,-0.078 0.0712,-0.0669 0.136693,-0.0812 0.459007,-0.10002 0.206775,-0.0121 0.407577,-0.0337 0.446225,-0.0481 0.288473,-0.10732 0.333775,-0.18993 0.333775,-0.60873 0,-0.29441 0.0053,-0.31629 0.09662,-0.40149 0.142195,-0.13263 0.231246,-0.16897 0.413989,-0.16897 0.330318,0 0.508571,-0.16934 0.628747,-0.59728 0.03527,-0.12561 0.0925,-0.29275 0.127168,-0.37142 0.03467,-0.0787 0.07332,-0.20516 0.0859,-0.28108 0.01258,-0.0759 0.03679,-0.16964 0.05381,-0.20829 0.08087,-0.18362 0.108066,-0.40219 0.126747,-1.01889 0.01955,-0.64557 0.0092,-0.79488 -0.100829,-1.45807 -0.02085,-0.12561 -0.03816,-0.38648 -0.03847,-0.57972 -0.0012,-0.70688 0.04828,-3.23386 0.06426,-3.28504 0.03453,-0.11061 0.1019,-1.16257 0.103498,-1.61617 0.0033,-0.93365 -0.05354,-2.11781 -0.108663,-2.26403 -0.02869,-0.0761 -0.136303,-0.22928 -0.23913,-0.34035 -0.207685,-0.22432 -0.397111,-0.58082 -0.557699,-1.04958 -0.151569,-0.44244 -0.171398,-0.56074 -0.197296,-1.17699 -0.0247,-0.58781 -0.03346,-0.64729 -0.12415,-0.84322 -0.05366,-0.11595 -0.111358,-0.21608 -0.128205,-0.22252 -0.01685,-0.006 -0.03063,-0.0273 -0.03063,-0.0463 0,-0.019 -0.03794,-0.0849 -0.08432,-0.14639 -0.127263,-0.1688 -0.213798,-0.33694 -0.283589,-0.55102 -0.03465,-0.10628 -0.07487,-0.20905 -0.08938,-0.22837 -0.08221,-0.10949 -0.173542,-0.86346 -0.200023,-1.65131 -0.01956,-0.58172 0.04909,-3.02302 0.101264,-3.60125 0.02005,-0.22223 0.04761,-0.71235 0.06123,-1.08916 0.01981,-0.54776 0.04041,-0.74014 0.10274,-0.95956 0.04288,-0.15095 0.09083,-0.30115 0.106562,-0.33378 0.176215,-0.36554 0.230445,-0.44335 0.513883,-0.73732 0.15459,-0.16034 0.286185,-0.31449 0.292432,-0.34256 0.0062,-0.0281 0.02601,-0.051 0.04392,-0.051 0.01791,0 0.03256,-0.0239 0.03256,-0.0532 0,-0.0293 0.01448,-0.0806 0.03218,-0.11419 0.03326,-0.063 0.09772,-0.21636 0.180772,-0.42991 0.134473,-0.34579 0.424007,-0.75203 0.735671,-1.03221 0.320853,-0.28845 0.548009,-0.53452 0.603946,-0.65423 0.0316,-0.0676 0.1075,-0.23365 0.168662,-0.36891 0.122095,-0.27002 0.123792,-0.2734 0.382548,-0.76002 0.09897,-0.18612 0.179943,-0.36343 0.179943,-0.39401 0,-0.0481 0.04994,-0.15001 0.22521,-0.4595 0.0686,-0.12113 0.140372,-0.20842 0.348194,-0.42346 l 0.204495,-0.2116 h 0.234682 c 0.13845,0 0.315224,0.0274 0.431096,0.0668 0.184781,0.0629 0.203311,0.0634 0.312824,0.009 0.06705,-0.0335 0.200701,-0.0581 0.315214,-0.0581 0.204758,0 0.458328,-0.0928 0.563879,-0.20627 0.134883,-0.14505 0.316239,-0.43816 0.470193,-0.75992 0.09246,-0.19324 0.206189,-0.4279 0.252734,-0.52147 0.04655,-0.0936 0.08463,-0.19107 0.08463,-0.21667 0,-0.0256 0.01186,-0.0518 0.02635,-0.0582 0.02492,-0.0111 0.150374,-0.23902 0.32549,-0.59142 0.04321,-0.087 0.09453,-0.18897 0.114038,-0.2267 0.01951,-0.0377 0.04824,-0.22745 0.06385,-0.42161 0.03084,-0.38369 0.04694,-0.4655 0.128243,-0.65166 0.193898,-0.44397 0.325451,-0.67043 0.561275,-0.96619 0.06573,-0.0824 0.221254,-0.40065 0.221254,-0.45271 0,-0.0312 0.01581,-0.0567 0.03513,-0.0567 0.01932,0 0.03513,-0.0255 0.03513,-0.0567 0,-0.0312 0.150198,-0.28356 0.333774,-0.56088 0.183576,-0.27732 0.333775,-0.51502 0.333775,-0.52821 0,-0.0132 0.05929,-0.0957 0.131753,-0.18343 0.07246,-0.0877 0.251308,-0.33065 0.397427,-0.53992 0.146123,-0.20927 0.399089,-0.53656 0.562147,-0.72732 0.32523,-0.38047 0.444992,-0.46012 0.928888,-0.61777 0.15459,-0.0504 0.312694,-0.10546 0.351342,-0.12244 0.03865,-0.017 0.16513,-0.0569 0.281073,-0.0887 0.436592,-0.11977 0.480864,-0.13842 0.564375,-0.23766 0.07736,-0.0919 0.08561,-0.13338 0.08561,-0.43014 0,-0.18062 -0.01842,-0.40822 -0.04094,-0.50578 -0.03168,-0.13725 -0.03111,-0.2213 0.0025,-0.37158 0.02391,-0.10682 0.05707,-0.19422 0.07371,-0.19422 0.01664,0 0.0402,-0.0314 0.05237,-0.0697 0.02983,-0.094 0.284218,-0.33955 0.408937,-0.39475 0.05537,-0.0245 0.100684,-0.0553 0.100684,-0.0683 0,-0.0131 0.04628,-0.0339 0.102841,-0.0464 0.131599,-0.0289 0.272821,-0.16997 0.301676,-0.30136 0.01237,-0.0563 0.03709,-0.11146 0.05493,-0.12248 0.01784,-0.011 0.03243,-0.0656 0.03243,-0.1213 0,-0.0557 0.01581,-0.11103 0.03513,-0.12297 0.01932,-0.0119 0.03513,-0.0461 0.03513,-0.0758 0,-0.0298 0.02184,-0.10392 0.04853,-0.16481 0.02669,-0.0609 0.0727,-0.16605 0.102241,-0.23368 0.02954,-0.0676 0.07187,-0.19412 0.09406,-0.28108 0.06564,-0.25716 0.134522,-0.37594 0.293638,-0.50632 0.09874,-0.0809 0.194703,-0.21186 0.279903,-0.38195 0.119425,-0.23841 0.362732,-0.55223 0.428149,-0.55223 0.08801,0 0.218601,-0.23633 0.267929,-0.48487 0.03356,-0.1691 0.03671,-0.173 0.350527,-0.43292 0.124024,-0.10272 0.263264,-0.22134 0.30942,-0.2636 0.04616,-0.0423 0.168686,-0.12119 0.27229,-0.17539 0.103603,-0.0542 0.188368,-0.11103 0.188368,-0.12627 0,-0.0152 0.02187,-0.0277 0.04861,-0.0277 0.06367,0 0.449042,-0.44805 0.551996,-0.64177 0.05221,-0.0982 0.05139,-0.11504 -0.01201,-0.24626 -0.03742,-0.0774 -0.117067,-0.18206 -0.176992,-0.23246 -0.175509,-0.14762 -0.227273,-0.2134 -0.317659,-0.40372 -0.161259,-0.33955 -0.173468,-0.39164 -0.19088,-0.81457 -0.01689,-0.41017 -0.01453,-0.42846 0.07271,-0.56215 0.04959,-0.076 0.140305,-0.19351 0.201583,-0.26114 l 0.111414,-0.12297 0.345583,0.005 c 0.190069,0.003 0.40573,0.0259 0.479244,0.0509 0.08646,0.0294 0.293617,0.0434 0.586611,0.0396 0.387808,-0.005 0.466125,0.003 0.54458,0.0584 0.0504,0.0353 0.147823,0.0904 0.216504,0.12255 0.112685,0.0527 0.13528,0.0532 0.231474,0.005 0.236987,-0.11822 0.285683,-0.25473 0.20635,-0.57846 -0.04138,-0.16887 -0.05367,-0.32995 -0.04201,-0.55085 0.01796,-0.34024 0.08071,-0.76306 0.129768,-0.87434 0.01704,-0.0386 0.0746,-0.20465 0.12792,-0.36891 0.19094,-0.5882 0.570793,-1.02891 1.057542,-1.22696 0.136008,-0.0553 0.314761,-0.24902 0.346491,-0.37541 0.0202,-0.0807 0.001,-0.17735 -0.0932,-0.47054 -0.0155,-0.0483 -0.0548,-0.1827 -0.08727,-0.29864 -0.03246,-0.11595 -0.07184,-0.24243 -0.0875,-0.28108 -0.01566,-0.0386 -0.05421,-0.15722 -0.08568,-0.2635 -0.03146,-0.10628 -0.0724,-0.22881 -0.09098,-0.27229 -0.07484,-0.17515 -0.100199,-0.24534 -0.155507,-0.4304 -0.03177,-0.10628 -0.09642,-0.27667 -0.143681,-0.37865 -0.04726,-0.10198 -0.08593,-0.20554 -0.08593,-0.23013 0,-0.0246 -0.01328,-0.0597 -0.0295,-0.0781 -0.01623,-0.0184 -0.04984,-0.0887 -0.0747,-0.15635 -0.06828,-0.18577 -0.331315,-0.71862 -0.361323,-0.73196 -0.01449,-0.006 -0.02635,-0.0272 -0.02635,-0.0461 0,-0.057 -0.17929,-0.42179 -0.304339,-0.61921 -0.0645,-0.10183 -0.117271,-0.19819 -0.117271,-0.21414 0,-0.016 -0.03274,-0.0586 -0.07276,-0.0949 -0.08226,-0.0744 -0.227438,-0.37416 -0.276081,-0.56996 -0.01783,-0.0718 -0.06621,-0.26486 -0.107521,-0.42911 -0.07363,-0.29276 -0.07438,-0.32387 -0.03794,-1.58104 0.03544,-1.22279 0.03393,-1.2979 -0.03244,-1.61617 -0.05484,-0.26295 -0.06971,-0.47295 -0.07007,-0.9897 -4.92e-4,-0.69097 -0.04117,-0.9659 -0.179363,-1.21194 -0.03687,-0.0656 -0.06704,-0.14258 -0.06704,-0.17098 0,-0.0284 -0.01405,-0.0516 -0.03122,-0.0516 -0.01717,0 -0.04221,-0.0593 -0.05563,-0.13175 -0.01343,-0.0725 -0.06497,-0.2108 -0.114545,-0.30742 -0.04957,-0.0966 -0.107545,-0.21112 -0.128819,-0.25445 -0.02128,-0.0433 -0.05054,-0.0789 -0.06504,-0.079 -0.01449,0 -0.02635,-0.0242 -0.02635,-0.0535 0,-0.0292 -0.01398,-0.0806 -0.03106,-0.11418 -0.23386,-0.45929 -0.317194,-0.75264 -0.391602,-1.37854 -0.01493,-0.12561 -0.03657,-0.27581 -0.04808,-0.33378 -0.02707,-0.13634 -0.08878,-0.90654 -0.128096,-1.5986 -0.06038,-1.06294 -0.113417,-1.51884 -0.24934,-2.14319 -0.01893,-0.087 -0.04763,-0.38735 -0.06377,-0.66755 -0.02768,-0.48041 -0.07565,-0.78281 -0.146228,-0.92179 -0.01704,-0.0336 -0.03099,-0.0893 -0.03099,-0.12395 0,-0.0346 -0.03735,-0.18107 -0.08299,-0.32546 -0.04565,-0.1444 -0.110448,-0.3574 -0.144001,-0.47334 -0.105849,-0.36576 -0.200096,-0.6272 -0.284984,-0.79052 -0.04519,-0.087 -0.108877,-0.24506 -0.141517,-0.35134 -0.03264,-0.10628 -0.07287,-0.20826 -0.0894,-0.22662 -0.01653,-0.0183 -0.03006,-0.0767 -0.03006,-0.12968 0,-0.053 -0.01581,-0.10607 -0.03513,-0.11801 -0.01932,-0.0119 -0.03513,-0.0519 -0.03513,-0.0887 0,-0.0737 -0.08862,-0.28353 -0.177677,-0.42073 -0.03136,-0.0483 -0.08387,-0.17479 -0.116677,-0.28107 -0.06912,-0.22387 -0.234732,-0.56215 -0.27521,-0.56215 -0.01524,0 -0.02772,-0.021 -0.02772,-0.0466 0,-0.0256 -0.05551,-0.0928 -0.123349,-0.14932 -0.0698,-0.0581 -0.148695,-0.17137 -0.181721,-0.26083 -0.03211,-0.087 -0.06861,-0.17392 -0.08113,-0.19324 -0.01251,-0.0193 -0.04326,-0.10628 -0.06833,-0.19324 -0.07361,-0.25533 -0.150374,-0.5042 -0.178815,-0.57971 -0.0405,-0.10752 -0.09597,-0.33479 -0.122151,-0.50048 -0.01296,-0.082 -0.038,-0.15806 -0.05565,-0.16896 -0.01764,-0.0109 -0.03208,-0.0571 -0.03208,-0.10266 0,-0.0456 -0.01419,-0.0881 -0.03153,-0.0945 -0.01734,-0.006 -0.06055,-0.154 -0.09602,-0.32791 -0.03547,-0.17392 -0.07662,-0.32148 -0.09144,-0.32792 -0.01482,-0.006 -0.02695,-0.0277 -0.02695,-0.0473 0,-0.1392 -0.484328,-0.45675 -0.825653,-0.54134 -0.05797,-0.0144 -0.160739,-0.0573 -0.228372,-0.0955 -0.294298,-0.16611 -0.64845,-0.3406 -0.6913,-0.3406 -0.02559,0 -0.04652,-0.0158 -0.04652,-0.0351 0,-0.0193 -0.02846,-0.0351 -0.06324,-0.0351 -0.03478,0 -0.0789,-0.0157 -0.09804,-0.0348 -0.01914,-0.0191 -0.11321,-0.0452 -0.209049,-0.058 -0.09584,-0.0127 -0.275301,-0.0691 -0.398804,-0.12517 -0.123507,-0.0561 -0.273706,-0.11069 -0.333775,-0.1213 -0.06007,-0.0106 -0.196179,-0.0477 -0.30246,-0.0825 -0.10628,-0.0348 -0.2881,-0.0901 -0.404043,-0.12305 -0.115942,-0.0329 -0.23452,-0.0687 -0.263506,-0.0796 -0.02899,-0.0109 -0.180312,-0.0527 -0.33628,-0.0929 -0.320961,-0.0828 -0.455423,-0.17719 -0.583561,-0.40964 -0.09148,-0.16596 -0.237911,-0.52226 -0.309332,-0.75268 -0.06065,-0.19566 -0.338577,-0.77816 -0.384965,-0.80683 -0.02103,-0.013 -0.06244,-0.0818 -0.09203,-0.15298 -0.02959,-0.0711 -0.0911,-0.18468 -0.1367,-0.25232 -0.0456,-0.0676 -0.09361,-0.17462 -0.106699,-0.23775 -0.03167,-0.15278 -0.19061,-0.30623 -0.529099,-0.51082 -0.153653,-0.0929 -0.358422,-0.23251 -0.455041,-0.31031 -0.09662,-0.0778 -0.238912,-0.18847 -0.316207,-0.24593 -0.193621,-0.14393 -0.51695,-0.43591 -0.97549,-0.88091 -0.462288,-0.44863 -0.575354,-0.50994 -1.132561,-0.61413 -0.05797,-0.0108 -0.121213,-0.0308 -0.140536,-0.0444 -0.01932,-0.0136 -0.114186,-0.0523 -0.210805,-0.0862 -0.09662,-0.0338 -0.207292,-0.0753 -0.24594,-0.0922 -0.03865,-0.0169 -0.125604,-0.046 -0.193238,-0.0646 -0.06763,-0.0186 -0.217831,-0.0684 -0.333774,-0.11057 -0.188593,-0.0686 -0.230466,-0.0723 -0.39741,-0.035 -0.317838,0.0709 -0.608506,0.004 -1.218762,-0.28203 -0.115943,-0.0543 -0.289857,-0.13223 -0.386476,-0.17321 -0.09662,-0.041 -0.236453,-0.10541 -0.310744,-0.14316 -0.07429,-0.0378 -0.156759,-0.0686 -0.183264,-0.0686 -0.0265,0 -0.108013,-0.0259 -0.181134,-0.0576 -0.07312,-0.0317 -0.168518,-0.0712 -0.211996,-0.0878 -0.04348,-0.0166 -0.114625,-0.0448 -0.158104,-0.0626 -0.162583,-0.0665 -0.577529,-0.21166 -0.764168,-0.2674 -0.490603,-0.14651 -0.773026,-0.24435 -0.983757,-0.34081 -0.125605,-0.0575 -0.280139,-0.11295 -0.343412,-0.12322 -0.06327,-0.0103 -0.123493,-0.0323 -0.133826,-0.0491 -0.01033,-0.0167 -0.05422,-0.0304 -0.09752,-0.0304 -0.04331,0 -0.09376,-0.0131 -0.112113,-0.0292 -0.01836,-0.016 -0.136145,-0.0574 -0.26175,-0.0918 -0.125605,-0.0344 -0.267898,-0.0753 -0.316208,-0.0908 -0.04831,-0.0155 -0.198508,-0.0565 -0.333774,-0.0911 -0.135267,-0.0346 -0.347955,-0.11502 -0.472639,-0.17865 -0.124684,-0.0636 -0.247215,-0.11571 -0.27229,-0.11571 -0.02508,0 -0.04559,-0.0133 -0.04559,-0.0296 0,-0.0163 -0.05534,-0.0594 -0.12297,-0.0958 -0.06763,-0.0364 -0.122969,-0.0784 -0.122969,-0.0934 0,-0.0149 -0.02076,-0.0271 -0.04613,-0.0271 -0.02537,0 -0.124185,-0.037 -0.219588,-0.0823 -0.09541,-0.0453 -0.224848,-0.10448 -0.287651,-0.13155 -0.0628,-0.0271 -0.114186,-0.0595 -0.114186,-0.072 0,-0.0125 -0.04252,-0.0334 -0.09448,-0.0465 -0.05196,-0.0131 -0.134968,-0.0521 -0.184455,-0.0868 -0.04949,-0.0347 -0.15322,-0.0834 -0.230515,-0.10814 -0.07729,-0.0248 -0.187968,-0.084 -0.245939,-0.13145 -0.05797,-0.0475 -0.342559,-0.24176 -0.632416,-0.43168 -0.289857,-0.18994 -0.543114,-0.35828 -0.562796,-0.3741 -0.13415,-0.10784 -0.685619,-0.46794 -0.716622,-0.46794 -0.02096,0 -0.03811,-0.0141 -0.03811,-0.0313 0,-0.0172 -0.03589,-0.0403 -0.07975,-0.0513 -0.04386,-0.011 -0.111056,-0.049 -0.149321,-0.0845 -0.03826,-0.0355 -0.180241,-0.13685 -0.315508,-0.22528 -0.311141,-0.20342 -1.086373,-0.9911 -1.411849,-1.43453 -0.268285,-0.36551 -0.55402,-0.64629 -0.768718,-0.75538 -0.07606,-0.0387 -0.146194,-0.0782 -0.155856,-0.0878 -0.0097,-0.01 -0.04919,-0.0345 -0.08783,-0.0553 -0.207766,-0.11153 -0.318077,-0.17514 -0.333775,-0.19248 -0.01964,-0.0217 -0.19986,-0.10359 -0.386476,-0.17564 -0.06763,-0.0261 -0.220667,-0.1153 -0.340075,-0.19819 -0.119409,-0.0829 -0.372375,-0.23255 -0.562147,-0.33259 -0.189772,-0.10004 -0.465198,-0.25829 -0.612057,-0.35167 -0.146858,-0.0934 -0.285199,-0.16977 -0.307424,-0.16977 -0.02222,0 -0.04041,-0.0158 -0.04041,-0.0351 0,-0.0193 -0.01527,-0.0351 -0.03393,-0.0351 -0.01866,0 -0.190933,-0.11068 -0.382823,-0.24594 -0.191891,-0.13527 -0.360004,-0.24594 -0.373586,-0.24594 -0.01358,0 -0.07451,-0.0219 -0.135406,-0.0486 -0.06089,-0.0267 -0.166048,-0.0691 -0.233682,-0.0942 -0.06763,-0.0251 -0.206985,-0.0986 -0.30967,-0.16323 -0.244043,-0.15371 -0.531033,-0.29126 -0.607698,-0.29126 -0.07996,0 -0.275111,0.16562 -0.313201,0.2658 -0.02229,0.0586 -0.07588,0.0886 -0.209509,0.1173 -0.21981,0.0471 -0.306246,0.0486 -0.332811,0.006 -0.01118,-0.0181 -0.142549,-0.0587 -0.29193,-0.0903 -0.149382,-0.0316 -0.303224,-0.0711 -0.341872,-0.0879 -0.03865,-0.0168 -0.108538,-0.0413 -0.155312,-0.0545 -0.04677,-0.0132 -0.165352,-0.074 -0.263506,-0.13502 -0.09815,-0.061 -0.225894,-0.13419 -0.283865,-0.16256 -0.05797,-0.0284 -0.113308,-0.0603 -0.12297,-0.071 -0.03666,-0.0405 -0.340074,-0.13879 -0.428622,-0.13879 -0.06022,0 -0.145634,-0.0504 -0.244765,-0.14445 -0.238506,-0.22627 -0.318873,-0.24913 -0.666762,-0.18968 -0.161474,0.0276 -0.404263,0.0763 -0.539529,0.10824 -0.197111,0.0466 -0.455204,0.059 -1.299965,0.0629 l -1.054025,0.005 -0.376474,-0.1981 c -0.342213,-0.18008 -0.554115,-0.32112 -0.74782,-0.49776 -0.03865,-0.0352 -0.157225,-0.13024 -0.263506,-0.21112 -0.106281,-0.0809 -0.198508,-0.1589 -0.204949,-0.17339 -0.0064,-0.0145 -0.03504,-0.0264 -0.06356,-0.0264 -0.02852,0 -0.25644,-0.20095 -0.506493,-0.44655 -0.250053,-0.24561 -0.481343,-0.4615 -0.51398,-0.47976 -0.107154,-0.06 -0.412573,-0.16284 -0.484796,-0.1633 -0.08555,-5.3e-4 -0.406537,-0.16001 -0.626049,-0.31104 -0.08803,-0.0606 -0.175656,-0.11012 -0.194719,-0.11012 -0.01906,0 -0.03993,-0.0119 -0.04637,-0.0264 -0.01093,-0.0246 -0.255199,-0.14998 -0.627665,-0.32218 -0.226845,-0.10487 -0.575039,-0.45483 -0.701192,-0.70473 -0.08161,-0.16168 -0.105667,-0.25597 -0.105259,-0.41259 8.89e-4,-0.34102 0.133015,-0.60707 0.301483,-0.60707 0.04417,0 0.09009,-0.01581 0.102031,-0.03513 0.01194,-0.01932 0.08902,-0.03513 0.171291,-0.03513 0.08227,0 0.241213,-0.01694 0.353211,-0.03764 0.255716,-0.04727 0.636864,0.01004 0.863018,0.129762 0.0868,0.04596 0.178498,0.08355 0.203766,0.08355 0.02527,0 0.08864,0.02181 0.140817,0.04847 0.109111,0.05575 0.252978,0.01961 0.252978,-0.06354 0,-0.02886 -0.03232,-0.08257 -0.07181,-0.119369 -0.0395,-0.0368 -0.109559,-0.118065 -0.155694,-0.180596 -0.04613,-0.06254 -0.188795,-0.223454 -0.317022,-0.3576 -0.200036,-0.209269 -0.238046,-0.269876 -0.267684,-0.426834 -0.019,-0.100614 -0.04319,-0.224631 -0.05375,-0.275589 -0.01177,-0.0568 0.004,-0.128082 0.04077,-0.184198 0.08924,-0.136194 0.04284,-0.249463 -0.21349,-0.521188 -0.12649,-0.134086 -0.278129,-0.343289 -0.345011,-0.47598 C 53.604972,96.77575 53.531847,96.70812 53.338609,96.686 c -0.220926,-0.02529 -0.329626,-0.07497 -0.383246,-0.175158 -0.02604,-0.04867 -0.09268,-0.12076 -0.148076,-0.160205 -0.08492,-0.06047 -0.113218,-0.06503 -0.180397,-0.02908 -0.104187,0.05576 -0.769739,0.0087 -0.951098,-0.06722 -0.187669,-0.07858 -0.396566,-0.142259 -0.466702,-0.142259 -0.04283,0 -0.07788,-0.01269 -0.07788,-0.0282 0,-0.04312 -0.318963,-0.147844 -0.449706,-0.147648 -0.06376,0 -0.16356,0.0248 -0.221772,0.0549 -0.204793,0.105902 -1.315511,0.01782 -1.647378,-0.130635 -0.218567,-0.09778 -0.279348,-0.185179 -0.280292,-0.40306 -7.1e-4,-0.163988 0.01195,-0.193048 0.139755,-0.320856 0.205399,-0.205397 0.190563,-0.332776 -0.05873,-0.504294 -0.150423,-0.103495 -0.155324,-0.112613 -0.145093,-0.269905 0.0091,-0.140533 0.02691,-0.173759 0.129971,-0.243009 0.06566,-0.04412 0.163542,-0.08022 0.217515,-0.08022 0.05397,0 0.107905,-0.01581 0.119848,-0.03513 0.01194,-0.01932 0.09176,-0.03513 0.177375,-0.03513 0.08561,0 0.254641,-0.03761 0.375618,-0.08358 0.427051,-0.162281 0.471396,-0.168169 1.133447,-0.150434 0.347828,0.0093 0.735183,0.03511 0.860787,0.05733 0.125605,0.02222 0.520865,0.05344 0.878355,0.0694 0.554912,0.02476 0.671574,0.03987 0.797605,0.103288 0.08119,0.04085 0.198002,0.07428 0.259577,0.07428 0.07891,0 0.156827,0.03888 0.264006,0.131753 0.192977,0.167214 0.307643,0.260207 0.699027,0.566901 0.173914,0.136281 0.332018,0.260368 0.351342,0.275747 0.01932,0.01538 0.114021,0.09097 0.210439,0.16798 0.09642,0.07701 0.19128,0.151635 0.210805,0.165836 0.01952,0.0142 0.08437,0.06488 0.144099,0.112609 0.219134,0.175123 0.784334,0.441285 0.937071,0.441285 0.307935,0 0.881743,0.146847 1.115082,0.285371 0.02898,0.01721 0.07642,0.04224 0.105402,0.05564 0.02899,0.01339 0.08335,0.05282 0.120811,0.08761 0.03746,0.03479 0.0888,0.06326 0.114085,0.06326 0.02529,0 0.111249,0.05897 0.191027,0.131047 l 0.145052,0.131043 0.518607,7.03e-4 c 0.509872,7.03e-4 0.519838,0.0022 0.591698,0.08854 0.0402,0.04831 0.07362,0.10537 0.07426,0.126806 0.0022,0.07255 0.295949,0.374386 0.411303,0.422583 0.06304,0.02634 0.171832,0.04789 0.241755,0.04789 0.107487,0 0.155167,0.02893 0.308552,0.18723 0.09978,0.102978 0.228851,0.211054 0.286822,0.24017 0.05797,0.02912 0.216075,0.109387 0.351342,0.178376 0.298134,0.152061 0.545768,0.237444 0.688654,0.237444 0.05857,0 0.138763,0.01727 0.178215,0.03839 0.05187,0.02776 0.08236,0.02776 0.11012,0 0.05287,-0.05287 0.630819,-0.05026 0.684166,0.0031 0.02775,0.02775 0.167855,0.03908 0.423474,0.03424 0.350786,-0.0066 0.394627,-1.4e-5 0.536487,0.08108 0.08497,0.04857 0.197029,0.0885 0.249029,0.08873 0.052,3.51e-4 0.104317,0.01623 0.11626,0.03556 0.01194,0.01932 0.138715,0.03513 0.281715,0.03513 0.220447,0 0.283959,0.01447 0.417488,0.09513 0.102809,0.0621 0.178542,0.141815 0.21813,0.229609 0.07703,0.170818 0.304215,0.377949 0.414547,0.377949 0.132996,0 0.360604,0.139489 0.577093,0.353674 0.253303,0.250605 0.282352,0.264378 0.619705,0.293796 0.154049,0.01343 0.296343,0.03738 0.316207,0.05322 0.01986,0.01584 0.09145,0.03753 0.159087,0.04821 0.06763,0.01067 0.265263,0.04543 0.439177,0.07724 0.173914,0.0318 0.371544,0.0654 0.439177,0.0748 0.06763,0.009 0.154591,0.0296 0.193238,0.045 0.160406,0.0641 0.32964,0.10881 0.493528,0.13034 0.09571,0.0126 0.232681,0.0522 0.304376,0.0881 0.07718,0.0387 0.205226,0.0653 0.313903,0.0653 0.184282,0 0.580761,0.0899 0.643145,0.14576 0.01836,0.0165 0.06658,0.0299 0.10716,0.0299 0.04058,0 0.09001,0.0162 0.10985,0.0361 0.01984,0.0198 0.121814,0.0448 0.226615,0.0555 0.104802,0.0107 0.222168,0.0328 0.260816,0.0492 0.03865,0.0164 0.141415,0.0387 0.228372,0.0497 0.135589,0.017 0.458518,0.076 0.817298,0.14923 0.05338,0.0109 0.105694,0.0338 0.116262,0.0509 0.01056,0.0171 0.05246,0.0311 0.0931,0.0311 0.07032,0 0.386718,0.0833 0.536811,0.14134 0.188878,0.073 0.332855,0.14495 0.351922,0.17581 0.01163,0.0188 0.06565,0.0342 0.120046,0.0342 0.0544,0 0.168093,0.0247 0.25265,0.0548 0.150624,0.0537 0.421969,0.0445 0.505079,-0.0172 0.01932,-0.0143 0.129996,-0.0539 0.245939,-0.0879 0.115943,-0.034 0.297762,-0.095 0.404043,-0.13561 0.232096,-0.0887 0.880325,-0.12057 1.254497,-0.0618 0.13129,0.0206 0.294042,0.0464 0.361675,0.0571 0.06763,0.0108 0.15459,0.0327 0.193238,0.0486 0.03865,0.0159 0.170127,0.0702 0.292172,0.12057 0.122049,0.0504 0.25155,0.0916 0.287784,0.0916 0.03623,0 0.07565,0.0158 0.08759,0.0351 0.01194,0.0193 0.04537,0.0351 0.07427,0.0351 0.02891,0 0.11888,0.0298 0.199949,0.0663 0.08106,0.0365 0.234348,0.10135 0.340629,0.14417 0.300338,0.12098 0.355917,0.14822 0.554045,0.27155 0.101826,0.0634 0.203729,0.11524 0.22645,0.11524 0.02272,0 0.08321,0.0401 0.134406,0.0892 0.07393,0.0708 0.156249,0.0984 0.399841,0.13398 0.168711,0.0246 0.317409,0.0596 0.330441,0.0778 0.04839,0.0673 0.206269,0.11594 0.445301,0.13714 0.231812,0.0206 0.437445,0.063 0.597281,0.12315 0.03865,0.0145 0.157225,0.0546 0.263506,0.0889 0.106281,0.0343 0.208258,0.076 0.226615,0.0926 0.01836,0.0166 0.06442,0.0302 0.102367,0.0302 0.08323,0 0.795312,0.35156 0.795312,0.39265 0,0.0159 0.01657,0.029 0.03682,0.029 0.02026,0 0.123328,0.0553 0.229058,0.12297 0.105725,0.0676 0.201694,0.12297 0.21326,0.12297 0.01157,0 0.07253,0.0435 0.135478,0.0966 0.06294,0.0531 0.215147,0.17567 0.338233,0.27229 0.253873,0.19929 0.270863,0.21347 0.618615,0.51653 0.139665,0.12171 0.318421,0.27531 0.397237,0.34134 0.07882,0.066 0.164481,0.17072 0.190361,0.23267 0.07787,0.18638 0.223955,0.3454 0.837127,0.91127 0.187951,0.17345 0.396609,0.34849 0.46368,0.38897 0.06707,0.0405 0.150037,0.0988 0.184367,0.12956 0.03433,0.0308 0.207594,0.12999 0.385028,0.22048 0.36067,0.18393 0.361464,0.18466 0.572599,0.52666 0.18196,0.29474 0.425683,0.54423 0.748998,0.76671 0.131363,0.0904 0.2481,0.16435 0.25942,0.16435 0.01132,0 0.05404,0.0373 0.09494,0.0828 0.04089,0.0456 0.169217,0.14667 0.28516,0.22468 0.115942,0.078 0.257241,0.19092 0.313997,0.25092 0.05676,0.06 0.124263,0.1091 0.15002,0.1091 0.02575,0 0.109439,0.0395 0.185965,0.0878 0.07653,0.0483 0.155265,0.0878 0.174972,0.0878 0.01971,0 0.03583,0.0158 0.03583,0.0351 0,0.0193 0.01992,0.0351 0.04428,0.0351 0.02435,0 0.0869,0.0395 0.139005,0.0878 0.0521,0.0483 0.107275,0.0884 0.122611,0.089 0.01534,6.3e-4 0.138555,0.11116 0.273822,0.24564 l 0.245939,0.24449 0.25265,3.5e-4 c 0.138956,0 0.262157,0.0157 0.273783,0.0345 0.04827,0.0781 0.26475,0.13916 0.545159,0.15376 0.164253,0.009 0.425124,0.0425 0.579714,0.0755 0.154591,0.0329 0.431272,0.073 0.614848,0.089 0.183576,0.016 0.420732,0.0455 0.527013,0.0655 0.341933,0.0644 0.648563,0.13119 0.702683,0.15312 0.02899,0.0118 0.108038,0.0289 0.175671,0.0382 0.196917,0.027 0.599389,0.15281 0.799131,0.2498 0.101355,0.0492 0.20017,0.0895 0.219588,0.0895 0.01942,0 0.03531,0.014 0.03531,0.0311 0,0.0171 0.05929,0.059 0.131753,0.093 0.07246,0.034 0.194994,0.10461 0.27229,0.15686 0.235729,0.15935 0.600197,0.3163 0.734532,0.3163 0.113554,0 0.253356,0.0505 0.301926,0.109 0.0097,0.0116 0.104524,0.0486 0.210805,0.0822 0.106281,0.0336 0.26026,0.0912 0.342175,0.12816 0.08191,0.0369 0.171009,0.0671 0.197988,0.0671 0.02698,0 0.133868,0.0253 0.237539,0.0563 0.175499,0.0524 0.29245,0.1032 0.569939,0.24765 0.06074,0.0316 0.134143,0.0685 0.163128,0.0819 0.05952,0.0276 0.411369,0.131 0.597281,0.1755 0.06763,0.0162 0.211318,0.0546 0.319296,0.0854 0.107978,0.0308 0.219115,0.056 0.246965,0.056 0.02786,0 0.07389,0.0334 0.102315,0.0742 0.106793,0.15331 0.336423,0.25705 0.736791,0.33287 0.06763,0.0128 0.186212,0.0512 0.263507,0.0854 0.0773,0.0342 0.164252,0.0719 0.193238,0.0839 0.02898,0.012 0.100132,0.052 0.158103,0.0891 0.05797,0.037 0.133022,0.0685 0.166779,0.0699 0.06109,0.003 0.575936,0.26199 0.639546,0.32228 0.0184,0.0174 0.0605,0.0316 0.0937,0.0316 0.0332,0 0.0656,0.0125 0.072,0.0278 0.0131,0.0312 0.33741,0.25329 0.36977,0.25329 0.034,0 -0.0136,-0.59465 -0.0514,-0.64174 -0.0192,-0.0239 -0.0435,-0.0987 -0.0541,-0.16635 -0.041,-0.26213 -0.0767,-0.38516 -0.1629,-0.56057 -0.0138,-0.0281 -0.0995,-0.0701 -0.19032,-0.0933 -0.288639,-0.0736 -0.396606,-0.23087 -0.357175,-0.52019 0.01339,-0.0982 0.03745,-0.30511 0.05346,-0.45971 0.03537,-0.34141 0.08447,-0.59697 0.141805,-0.73781 0.17194,-0.42248 0.2181,-0.58814 0.27902,-1.00133 0.0314,-0.21292 0.16507,-0.7852 0.20928,-0.89592 0.0534,-0.1338 0.18594,-0.52747 0.21288,-0.63241 0.0257,-0.1002 0.14775,-0.44659 0.21041,-0.59728 0.0161,-0.0387 0.0718,-0.18095 0.12395,-0.31621 0.13515,-0.3509 0.13645,-0.35266 0.25032,-0.34106 0.53476,0.0545 0.55783,0.0683 0.52508,0.31566 -0.0121,0.0913 -0.0302,0.24499 -0.0403,0.34161 -0.0101,0.0966 -0.0316,0.20729 -0.0478,0.24593 -0.0162,0.0387 -0.0566,0.29162 -0.0897,0.56215 -0.0331,0.27053 -0.0732,0.5235 -0.089,0.56215 -0.0159,0.0386 -0.0397,0.2758 -0.053,0.52701 -0.0133,0.25121 -0.0343,0.62807 -0.0466,0.83746 -0.0164,0.27797 -0.011,0.39019 0.0199,0.41585 0.0614,0.0509 0.10516,0.0107 0.15074,-0.13829 0.0221,-0.0722 0.0549,-0.16684 0.0728,-0.21031 0.0758,-0.18338 0.17195,-0.45377 0.19674,-0.55337 0.0328,-0.13199 0.12545,-0.32991 0.32876,-0.70268 0.0632,-0.11594 0.12448,-0.21871 0.13608,-0.22837 0.0116,-0.01 0.0383,-0.0492 0.0594,-0.0878 0.17302,-0.31748 0.23889,-0.42916 0.2814,-0.47707 0.0271,-0.0305 0.0492,-0.0669 0.0492,-0.0808 0,-0.0139 0.0612,-0.11544 0.13597,-0.22561 0.0748,-0.11017 0.21313,-0.31888 0.30743,-0.46381 0.26037,-0.40018 0.23634,-0.38758 0.71304,-0.37394 0.22486,0.006 0.44297,0.0299 0.48468,0.0523 0.0447,0.0239 0.24157,0.0406 0.48011,0.0406 0.23162,0 0.41356,0.015 0.426,0.0351 0.0124,0.0201 0.19733,0.0354 0.43246,0.0358 0.22592,3.9e-4 0.51353,0.0159 0.63913,0.0344 0.1256,0.0185 0.28023,0.0243 0.34362,0.0128 0.0981,-0.0178 0.11178,-0.0321 0.0919,-0.0959 -0.0129,-0.0412 -0.0661,-0.12397 -0.11837,-0.18389 -0.0522,-0.0599 -0.1271,-0.1785 -0.16635,-0.26351 -0.16644,-0.36048 -0.21367,-0.477 -0.23695,-0.58454 -0.0136,-0.0626 -0.0392,-0.1228 -0.0571,-0.13382 -0.0178,-0.011 -0.0324,-0.051 -0.0324,-0.0887 0,-0.0378 -0.0151,-0.0961 -0.0334,-0.12968 -0.0184,-0.0336 -0.0588,-0.12425 -0.0898,-0.20155 -0.031,-0.0773 -0.0943,-0.21958 -0.14054,-0.3162 -0.11652,-0.24327 -0.13381,-0.33804 -0.0905,-0.49595 0.0337,-0.12287 0.18272,-0.26692 0.3367,-0.32551 0.0193,-0.007 0.0629,-0.0376 0.0969,-0.0671 0.0339,-0.0296 0.0919,-0.071 0.12881,-0.092 0.0369,-0.021 0.29745,-0.1845 0.57901,-0.36325 0.28156,-0.17874 0.5225,-0.32499 0.53542,-0.32499 0.0129,0 0.0737,-0.0383 0.1351,-0.0851 0.0614,-0.0468 0.16924,-0.1175 0.23969,-0.15707 0.20448,-0.11485 0.5337,-0.39722 0.5337,-0.45776 0,-0.0463 -0.0751,-0.0597 -0.45675,-0.0813 -0.2512,-0.0142 -0.49306,-0.0419 -0.53745,-0.0615 -0.0444,-0.0196 -0.12422,-0.0356 -0.17742,-0.0356 -0.0532,0 -0.11446,-0.0177 -0.13613,-0.0394 -0.0256,-0.0256 -0.11747,-0.032 -0.26175,-0.0184 -0.41366,0.039 -0.46391,0.0575 -0.72595,0.26632 -0.37214,0.2966 -0.40794,0.31185 -0.52479,0.2236 -0.0925,-0.0699 -0.0957,-0.0833 -0.0904,-0.379 0.003,-0.16861 0.0228,-0.32384 0.0439,-0.34496 0.0211,-0.0211 0.0384,-0.10362 0.0384,-0.18335 0,-0.10919 0.0217,-0.16531 0.0878,-0.22747 0.0858,-0.0806 0.11731,-0.17567 0.0582,-0.17567 -0.0163,0 -0.0756,0.041 -0.13176,0.0911 -0.11257,0.10045 -0.50344,0.40223 -0.83613,0.64557 -0.33325,0.24375 -0.62109,0.51474 -1.04839,0.987 -0.30582,0.33799 -0.39794,0.44514 -0.5117,0.5952 -0.0513,0.0676 -0.13315,0.16285 -0.18194,0.21161 -0.0488,0.0487 -0.15195,0.16732 -0.22925,0.2635 -0.1908,0.23741 -0.61601,0.64918 -0.67038,0.64918 -0.19029,0 -0.20157,-0.14181 -0.0323,-0.40641 0.0676,-0.10573 0.12297,-0.20007 0.12297,-0.20965 0,-0.0187 0.35267,-0.51415 0.3868,-0.54336 0.0113,-0.01 0.11711,-0.15196 0.23515,-0.31621 0.33846,-0.47095 0.92295,-1.02782 1.49936,-1.42851 0.15696,-0.1091 0.30909,-0.22036 0.33808,-0.24724 0.029,-0.0269 0.16337,-0.12102 0.29864,-0.20921 0.13527,-0.0882 0.31992,-0.2219 0.41035,-0.29712 0.0904,-0.0752 0.18001,-0.13678 0.19909,-0.13678 0.0191,0 0.04,-0.0119 0.0464,-0.0264 0.025,-0.0562 0.58883,-0.46553 0.64125,-0.46553 0.009,0 0.17131,-0.097 0.36088,-0.21566 0.36019,-0.22537 0.70337,-0.41606 1.11651,-0.62039 l 0.24481,-0.12108 0.17125,0.0548 c 0.14973,0.0479 0.19846,0.0487 0.38761,0.007 0.11898,-0.0265 0.33097,-0.0651 0.47106,-0.08565 0.1401,-0.02057 0.36462,-0.0556 0.49893,-0.07784 0.23979,-0.03971 0.56536,-0.0282 1.16116,0.04104 0.14493,0.01684 0.41145,0.04585 0.59227,0.06446 0.18083,0.0186 0.34604,0.0511 0.36716,0.0722 0.0211,0.0211 0.0705,0.0384 0.10966,0.0384 0.0632,0 0.40895,0.11569 0.65249,0.21833 0.0483,0.0204 0.11945,0.0496 0.1581,0.0651 0.36332,0.14519 0.61574,0.2925 0.75876,0.4428 0.18987,0.19954 0.29354,0.34675 0.32983,0.46834 0.0144,0.0483 0.06,0.1255 0.10123,0.17154 0.0825,0.0921 0.52946,0.3906 0.58482,0.3906 0.0497,0 0.28332,0.2404 0.44828,0.46129 0.0775,0.10378 0.17428,0.22361 0.21505,0.26628 0.0408,0.0427 0.0752,0.0901 0.0765,0.1054 0.003,0.0336 0.54616,0.51376 0.60397,0.53386 0.0224,0.008 0.10128,0.0702 0.17528,0.13864 l 0.13455,0.1245 -0.0101,0.2617 c -0.0128,0.32959 -0.0496,0.36093 -0.29234,0.24845 -0.096,-0.0445 -0.25141,-0.13315 -0.34537,-0.19702 -0.0939,-0.0639 -0.19974,-0.11612 -0.23508,-0.11612 -0.0353,0 -0.0746,-0.0168 -0.0873,-0.0373 -0.025,-0.0404 -0.0671,-0.0588 -0.48685,-0.21233 -0.24755,-0.0906 -0.29207,-0.0971 -0.41396,-0.0606 -0.10403,0.0312 -0.14634,0.0311 -0.1776,0 -0.0226,-0.0226 -0.0695,-0.041 -0.10428,-0.041 -0.0348,0 -0.0632,-0.0158 -0.0632,-0.0351 0,-0.0429 -0.094,-0.0468 -0.11988,-0.005 -0.0102,0.0166 0.056,0.067 0.14725,0.11201 0.18772,0.0927 0.60649,0.50355 0.86855,0.85221 0.17482,0.23257 0.30422,0.32124 0.64998,0.44537 0.13543,0.0486 0.28939,0.11278 0.46841,0.19521 0.0644,0.0297 0.19677,0.12846 0.29419,0.21959 0.28357,0.26524 0.31063,0.52933 0.14838,1.44809 -0.0188,0.10628 -0.0437,0.27653 -0.0553,0.37834 -0.0117,0.10181 -0.035,0.19365 -0.052,0.20409 -0.0169,0.0105 -0.031,0.0695 -0.0312,0.13111 -4.9e-4,0.10604 -0.0675,0.33862 -0.13611,0.47268 -0.0172,0.0336 -0.0607,0.12132 -0.0966,0.195 -0.036,0.0737 -0.093,0.15913 -0.12687,0.1899 -0.11985,0.10905 -0.074,0.14208 0.22837,0.16457 1.29603,0.0964 1.49908,0.13138 1.6651,0.28702 0.10267,0.0962 0.22781,0.42112 0.25998,0.67487 0.0189,0.14919 0.0514,0.35821 0.0723,0.46449 0.0989,0.50446 0.14013,1.65032 0.0838,2.33108 -0.0211,0.25483 -0.0168,0.28215 0.0568,0.3605 0.0782,0.0833 0.0789,0.0914 0.0393,0.46209 -0.0222,0.20753 -0.0559,0.42475 -0.0748,0.48272 -0.0707,0.21605 -0.11464,0.50156 -0.12698,0.82565 -0.0183,0.47996 -0.0843,0.77383 -0.24481,1.08916 -0.20749,0.4077 -0.3126,0.56488 -0.48982,0.73249 -0.21095,0.19951 -0.32197,0.22646 -0.51715,0.12553 -0.21497,-0.11116 -0.33656,0.005 -0.62901,0.60005 -0.0855,0.17392 -0.1674,0.32148 -0.18211,0.32792 -0.0147,0.006 -0.027,0.0302 -0.0272,0.0527 -4.9e-4,0.04 -0.24569,0.34 -0.42123,0.5153 -0.14392,0.14374 -0.26143,0.31856 -0.39557,0.58847 -0.11442,0.23023 -0.35328,0.57019 -0.42192,0.60049 -0.0439,0.0194 -0.13102,0.20708 -0.13102,0.28224 0,0.0381 0.039,0.11562 0.0866,0.17221 0.0885,0.10515 0.25134,0.1675 0.66881,0.25605 0.11594,0.0246 0.22661,0.0557 0.24594,0.0691 0.0193,0.0135 0.15371,0.0523 0.29864,0.0864 0.14493,0.0341 0.27853,0.0758 0.29688,0.0926 0.0184,0.0168 0.0549,0.0306 0.0812,0.0306 0.0263,0 0.13778,0.0408 0.2477,0.0907 0.10991,0.0499 0.23146,0.1036 0.27011,0.11939 0.0386,0.0158 0.12799,0.0541 0.19855,0.085 0.0705,0.031 0.14587,0.0563 0.16736,0.0563 0.0215,0 0.0665,0.0148 0.1001,0.0329 0.0336,0.0181 0.2573,0.12994 0.49722,0.2486 0.23992,0.11865 0.48648,0.25407 0.5479,0.30091 0.0614,0.0468 0.12599,0.0858 0.14349,0.0867 0.0175,8e-4 0.11087,0.0797 0.20749,0.17536 0.0966,0.0956 0.19544,0.17402 0.21959,0.17419 0.0241,0 0.0439,0.0123 0.0439,0.0269 0,0.0266 0.0707,0.062 0.33377,0.16746 0.0773,0.031 0.18797,0.0778 0.24594,0.10416 0.058,0.0263 0.20027,0.0826 0.31621,0.12511 0.11594,0.0425 0.22582,0.0911 0.24418,0.10807 0.0184,0.0169 0.0613,0.0308 0.0954,0.0308 0.0655,0 0.20572,0.056 0.51785,0.20686 0.21791,0.10531 0.61294,0.44653 0.75964,0.65616 0.055,0.0785 0.13255,0.15948 0.17246,0.17991 0.47643,0.2439 0.65533,0.32731 0.70205,0.32731 0.0306,0 0.0556,0.0158 0.0556,0.0351 0,0.0193 0.0297,0.0351 0.066,0.0351 0.11726,0 1.02261,0.49894 1.29395,0.71309 0.0295,0.0233 0.15054,0.13339 0.26905,0.24474 0.1185,0.11133 0.24709,0.21228 0.28575,0.22432 0.0387,0.012 0.0794,0.036 0.0906,0.0533 0.0112,0.0173 0.14172,0.045 0.29016,0.0617 0.14844,0.0167 0.30811,0.0553 0.35482,0.0859 0.15951,0.10451 0.71893,0.70167 0.75888,0.81007 0.0649,0.1761 0.13052,0.28156 0.19847,0.31896 0.0351,0.0193 0.0717,0.0447 0.0814,0.0563 0.018,0.0216 0.258,0.0994 0.50944,0.16498 0.3439,0.0897 0.43212,0.10916 0.59728,0.13166 0.19967,0.0272 0.40467,0.19144 0.47566,0.38108 0.0225,0.0601 0.0534,0.14082 0.0686,0.17947 0.0152,0.0386 0.0451,0.13488 0.0664,0.21387 0.0213,0.079 0.0665,0.16765 0.10049,0.19704 0.0838,0.0725 0.27541,0.13367 0.41885,0.13367 0.065,0 0.14565,0.0142 0.17921,0.0315 0.0335,0.0173 0.13215,0.0605 0.21911,0.0959 0.087,0.0354 0.21344,0.11593 0.28107,0.17898 0.0676,0.063 0.14004,0.11476 0.1609,0.11492 0.0209,0 0.17106,0.14278 0.33378,0.31693 0.31074,0.33256 0.37606,0.37599 0.71745,0.47712 0.11594,0.0344 0.26978,0.0991 0.34186,0.1438 0.0721,0.0447 0.14586,0.0814 0.16396,0.0814 0.0181,0 0.0382,0.0121 0.0446,0.027 0.006,0.0148 0.16981,0.12837 0.36305,0.25227 0.19324,0.12391 0.35925,0.23548 0.36891,0.24795 0.01,0.0125 0.069,0.0526 0.13175,0.0891 0.0628,0.0365 0.11419,0.0786 0.11419,0.0935 0,0.0149 0.0672,0.0692 0.14932,0.12055 0.0821,0.0514 0.23842,0.17017 0.34733,0.26395 0.1089,0.0938 0.21562,0.17051 0.23715,0.17051 0.0215,0 0.0392,0.0158 0.0392,0.0351 0,0.0193 0.0316,0.0351 0.0703,0.0351 0.0386,0 0.0703,0.0158 0.0703,0.0351 0,0.0193 0.0165,0.0351 0.0366,0.0351 0.0202,0 0.12224,0.0632 0.22687,0.14054 0.10463,0.0773 0.20673,0.14054 0.22687,0.14054 0.0202,0 0.0366,0.0119 0.0366,0.0266 0,0.0146 0.0435,0.0456 0.0966,0.0688 0.0531,0.0233 0.16825,0.0738 0.2558,0.11221 0.14815,0.0651 0.42721,0.24863 0.50876,0.33463 0.0195,0.0206 0.0888,0.14362 0.15393,0.27336 0.22416,0.44657 0.3559,0.47254 0.69356,0.13671 0.17242,-0.17148 0.18939,-0.17969 0.38648,-0.18696 0.47245,-0.0174 0.67139,-0.0131 0.82099,0.0177 0.087,0.0179 0.71713,0.0301 1.4004,0.027 l 1.2423,-0.006 0.16307,0.1722 c 0.21949,0.23179 0.37344,0.29796 0.64876,0.27886 0.4336,-0.0301 0.64471,-0.0926 0.7787,-0.23052 0.0679,-0.0699 0.1234,-0.13727 0.1234,-0.14976 0,-0.0125 0.0665,-0.0667 0.14776,-0.12048 0.0989,-0.0654 0.2409,-0.11395 0.4292,-0.14663 0.15479,-0.0269 0.28988,-0.0617 0.3002,-0.0773 0.0385,-0.0584 0.24406,-0.0854 0.75332,-0.099 l 0.52375,-0.0139 0.16964,0.10545 c 0.0933,0.058 0.27659,0.13227 0.40731,0.16505 0.13071,0.0328 0.29664,0.0968 0.36872,0.1423 0.0721,0.0455 0.15508,0.0827 0.18445,0.0827 0.0294,0 0.0534,0.0121 0.0534,0.0268 0,0.0148 0.0672,0.0553 0.14932,0.0902 0.0821,0.0348 0.1928,0.0819 0.24594,0.1047 0.0531,0.0228 0.0966,0.0533 0.0966,0.0679 0,0.0146 0.0175,0.0266 0.0389,0.0266 0.0814,0 0.51892,0.23138 0.83946,0.44392 0.46526,0.3085 0.68032,0.49365 0.81067,0.69795 0.0617,0.0966 0.14805,0.21191 0.192,0.25622 0.0439,0.0443 0.10531,0.13126 0.13635,0.19324 0.031,0.062 0.0967,0.18383 0.14581,0.27079 0.0807,0.14281 0.0872,0.18237 0.0672,0.40912 -0.0335,0.37856 0.0542,0.59753 0.48707,1.2165 0.17831,0.25497 0.27535,0.3603 0.3774,0.4096 0.0755,0.0365 0.14624,0.052 0.15709,0.0345 0.0373,-0.0603 0.29377,-0.0325 0.43431,0.0471 0.0768,0.0435 0.22261,0.1502 0.32412,0.23716 0.27349,0.23428 1.08691,1.0504 1.20763,1.21163 0.0577,0.077 0.138,0.17188 0.17851,0.2108 0.20997,0.20173 0.34783,0.64472 0.22443,0.72117 -0.0708,0.0439 -0.0554,0.71942 0.0216,0.94641 0.0642,0.18897 0.20752,0.38827 0.27934,0.38827 0.028,0 0.0509,0.0158 0.0509,0.0351 0,0.0193 0.0154,0.0351 0.0342,0.0351 0.0326,0 0.21926,0.0795 0.62537,0.26617 0.10188,0.0469 0.20575,0.0852 0.23084,0.0852 0.0251,0 0.10773,0.0529 0.18367,0.11753 0.0759,0.0646 0.15389,0.12395 0.17321,0.1318 0.0193,0.008 0.17195,0.10515 0.33916,0.21624 0.16722,0.11109 0.32137,0.20198 0.34256,0.20198 0.0212,0 0.0386,0.0119 0.0387,0.0264 0,0.0145 0.0752,0.0568 0.16689,0.094 0.0917,0.0372 0.17466,0.0768 0.18432,0.0878 0.01,0.0111 0.0729,0.0501 0.14054,0.0867 0.0676,0.0366 0.15459,0.0936 0.19324,0.12669 0.0387,0.0331 0.12513,0.0901 0.19219,0.12669 0.067,0.0366 0.14884,0.0903 0.18176,0.11925 0.0329,0.029 0.2776,0.16337 0.54375,0.29864 0.26616,0.13527 0.51829,0.27875 0.56029,0.31884 0.042,0.0401 0.12981,0.0931 0.19512,0.1177 0.37483,0.14143 1.02544,0.54656 1.24082,0.77266 0.0568,0.0596 0.11673,0.10833 0.13328,0.10833 0.0165,0 0.0727,0.0395 0.12482,0.0878 0.0521,0.0483 0.10744,0.0878 0.12297,0.0878 0.0155,0 0.071,0.0398 0.12333,0.0885 0.0523,0.0487 0.13856,0.10789 0.19171,0.13155 0.0531,0.0237 0.0966,0.0526 0.0966,0.0643 0,0.0117 0.11883,0.0493 0.26405,0.0835 0.14523,0.0342 0.27265,0.0761 0.28315,0.0931 0.0105,0.017 0.0421,0.0309 0.0702,0.0309 0.1259,0 0.54025,0.23519 0.75746,0.42996 0.059,0.0529 0.173,0.1156 0.25334,0.13934 0.0803,0.0238 0.23303,0.0911 0.33931,0.14977 0.10628,0.0586 0.23456,0.12787 0.28507,0.15388 0.0505,0.026 0.13283,0.0853 0.18293,0.13175 0.0501,0.0464 0.10374,0.0845 0.11922,0.0845 0.0155,0 0.0717,0.0721 0.12491,0.16022 0.0771,0.12761 0.13782,0.17804 0.29839,0.24779 0.47866,0.20789 0.69856,0.34089 0.88672,0.53628 0.20015,0.20784 0.56681,0.49621 0.63092,0.49621 0.0202,0 0.0366,0.0132 0.0366,0.0294 0,0.0162 0.0909,0.0591 0.20202,0.0954 0.11112,0.0363 0.24548,0.0952 0.29858,0.13103 0.16473,0.11102 0.28498,0.0891 0.52212,-0.095 l 0.21391,-0.16612 0.26882,0.0215 c 0.14786,0.0118 0.38911,0.0203 0.53612,0.0188 0.32099,-0.003 0.87078,0.10515 1.20845,0.23831 0.3091,0.12189 0.32402,0.13202 0.47923,0.32536 0.0704,0.0877 0.19688,0.19357 0.28107,0.2353 0.1742,0.0863 0.46343,0.18498 0.54238,0.18498 0.0292,0 0.092,0.0389 0.13958,0.0865 0.14684,0.14684 0.28791,0.16538 1.14,0.14979 0.86297,-0.0158 0.98708,-0.0347 1.35102,-0.20532 0.13436,-0.063 0.31618,-0.12757 0.40404,-0.14347 0.38713,-0.0701 0.77366,-0.10381 0.97823,-0.0854 0.22089,0.0199 1.00934,-0.0637 1.07792,-0.11426 0.10145,-0.0748 0.36737,-0.11314 0.82975,-0.11972 l 0.5127,-0.007 0.10009,0.11846 c 0.18098,0.21422 0.22718,0.33686 0.22718,0.60307 0,0.5814 -0.36108,0.83751 -1.18528,0.84069 -0.17847,7.1e-4 -0.39981,0.0191 -0.49187,0.041 -0.31178,0.0741 -0.55373,0.1468 -0.58725,0.17655 -0.0184,0.0163 -0.0579,0.0297 -0.0878,0.0298 -0.0299,0 -0.0997,0.0238 -0.15509,0.0527 -0.0553,0.0289 -0.17809,0.0525 -0.27277,0.0525 -0.0947,0 -0.19958,0.0133 -0.23314,0.0297 -0.0335,0.0163 -0.0964,0.0479 -0.13958,0.0703 -0.0432,0.0223 -0.0948,0.0406 -0.11457,0.0406 -0.0198,0 -0.16213,0.0791 -0.3163,0.17567 -0.15417,0.0966 -0.30024,0.17618 -0.32461,0.17679 -0.0244,6e-4 -0.075,0.0243 -0.1125,0.0527 -0.0375,0.0284 -0.11922,0.0516 -0.18158,0.0516 -0.14787,0 -0.22453,0.031 -0.22453,0.0909 0,0.0797 0.12732,0.0907 1.14791,0.0989 1.06702,0.009 1.11629,0.0162 1.44155,0.22171 0.10052,0.0635 0.21198,0.11549 0.2477,0.11549 0.0357,0 0.0808,0.0159 0.10017,0.0352 0.0194,0.0194 0.22413,0.0511 0.45498,0.0704 0.5621,0.0471 0.72273,0.0681 0.80623,0.10548 0.0386,0.0173 0.31532,0.0391 0.61484,0.0485 0.89836,0.0281 1.14594,0.10362 1.39531,0.4255 0.18761,0.24215 0.22087,0.33479 0.22087,0.61525 0,0.19783 -0.0174,0.27421 -0.0936,0.41063 -0.11272,0.20191 -0.13607,0.22631 -0.28952,0.30252 -0.14736,0.0732 -0.36651,0.0755 -0.68852,0.007 -0.13526,-0.0286 -0.34578,-0.0524 -0.46782,-0.0527 -0.12205,-3.6e-4 -0.25644,-0.0192 -0.29864,-0.0419 -0.0454,-0.0244 -0.26352,-0.0439 -0.53349,-0.0477 -0.51572,-0.007 -1.17816,-0.0854 -1.4405,-0.16993 -0.19648,-0.0633 -0.35469,-0.0736 -0.38464,-0.0252 -0.0568,0.0919 -0.76156,0.0727 -1.17883,-0.0321 -0.087,-0.0218 -0.24744,-0.0526 -0.35662,-0.0684 -0.10918,-0.0158 -0.2127,-0.0374 -0.23005,-0.0481 -0.0173,-0.0107 -0.0541,-0.006 -0.0816,0.0114 -0.0408,0.0252 -0.0372,0.0356 0.0192,0.0561 0.0381,0.0138 0.10881,0.0522 0.15712,0.0851 0.0483,0.033 0.12736,0.0709 0.17567,0.0843 0.0925,0.0257 0.22228,0.0775 0.32451,0.12947 0.0336,0.0171 0.0968,0.0313 0.14054,0.0316 0.0437,3.5e-4 0.14277,0.0233 0.22007,0.0512 0.0773,0.0278 0.19213,0.0513 0.2552,0.0522 0.1156,0.002 0.24015,0.0546 0.30624,0.13053 0.0622,0.0715 0.29822,0.18722 0.38167,0.18722 0.0441,0 0.16213,0.0395 0.26226,0.0878 0.10015,0.0483 0.19818,0.0878 0.21786,0.0878 0.0197,0 0.0632,0.0142 0.0968,0.0315 0.0335,0.0173 0.13215,0.0588 0.21911,0.092 0.25529,0.0977 0.29016,0.11215 0.46743,0.19353 0.0928,0.0426 0.25884,0.0891 0.3689,0.10328 0.11007,0.0142 0.27127,0.0532 0.35823,0.0867 0.087,0.0335 0.19368,0.0693 0.23715,0.0796 0.0435,0.0103 0.0791,0.0328 0.0791,0.0498 0,0.0171 0.0222,0.031 0.0495,0.031 0.0419,0 0.24281,0.0886 0.48586,0.21438 0.0336,0.0174 0.12319,0.0316 0.19918,0.0316 0.076,0 0.19083,0.0264 0.2552,0.0587 0.21087,0.10567 0.23852,0.11702 0.28491,0.11702 0.0565,0 0.31167,0.26622 0.37172,0.38784 0.0535,0.10827 0.007,0.45372 -0.0873,0.65304 -0.0724,0.15262 -0.27475,0.36449 -0.34806,0.36449 -0.0284,0 -0.0515,0.0158 -0.0515,0.0351 0,0.0407 -0.74683,0.0495 -0.78704,0.009 -0.0332,-0.0332 -0.39334,-0.10954 -0.53064,-0.11247 -0.058,-0.001 -0.23593,-0.0655 -0.39529,-0.1428 -0.15935,-0.0773 -0.30574,-0.14053 -0.32531,-0.14053 -0.0196,0 -0.067,-0.0158 -0.10538,-0.0351 -0.0384,-0.0193 -0.10088,-0.0507 -0.13887,-0.0698 -0.10201,-0.0512 -0.34194,-0.10934 -0.5809,-0.14069 -0.11594,-0.0152 -0.32938,-0.0608 -0.47431,-0.10121 -0.17891,-0.0499 -0.36764,-0.0737 -0.58782,-0.0742 -0.30597,-5.6e-4 -0.33477,-0.007 -0.50944,-0.117 -0.19636,-0.12344 -0.5045,-0.23495 -0.64928,-0.23495 -0.0922,0 -0.19346,-0.0627 -0.49351,-0.30547 -0.10159,-0.0822 -0.27096,-0.19025 -0.37639,-0.24013 -0.1609,-0.0761 -0.20459,-0.084 -0.27204,-0.0492 -0.16539,0.0853 -0.23846,0.18133 -0.23846,0.3133 0,0.14968 0.06,0.21475 0.46261,0.50168 0.4331,0.30866 0.80201,0.61961 1.04539,0.88116 0.0691,0.0743 0.20479,0.18658 0.30141,0.24946 0.0966,0.0629 0.30215,0.21597 0.45674,0.34018 0.15459,0.12421 0.41546,0.29311 0.57971,0.37532 0.16426,0.0822 0.3856,0.2102 0.49188,0.28439 0.20323,0.14187 0.78949,0.7087 0.96235,0.93046 0.0969,0.12434 0.10065,0.14232 0.0816,0.39432 -0.0182,0.24028 -0.0329,0.28122 -0.16418,0.45504 -0.0793,0.10506 -0.16742,0.19102 -0.19578,0.19102 -0.0284,0 -0.0516,0.0158 -0.0516,0.0351 0,0.0493 -0.74536,0.045 -0.86792,-0.005 -0.27056,-0.11033 -0.3627,-0.16123 -0.67441,-0.37257 -0.18554,-0.1258 -0.36107,-0.23768 -0.39005,-0.24864 -0.0696,-0.0263 -0.14054,-0.0979 -0.14054,-0.14191 0,-0.057 -0.17897,-0.16476 -0.38131,-0.22955 -0.10345,-0.0331 -0.24574,-0.0977 -0.31621,-0.14358 -0.16608,-0.10804 -0.45631,-0.26944 -0.74298,-0.41318 -0.1256,-0.063 -0.23364,-0.12637 -0.24008,-0.14086 -0.006,-0.0145 -0.0381,-0.0267 -0.0703,-0.0271 -0.059,-7.7e-4 -0.48496,-0.39921 -0.85645,-0.80109 -0.11033,-0.11936 -0.21705,-0.21702 -0.23715,-0.21702 -0.0201,0 -0.0365,-0.0119 -0.0365,-0.0266 0,-0.0287 -0.1401,-0.0938 -0.28107,-0.13062 -0.0483,-0.0126 -0.11946,-0.0369 -0.15811,-0.0541 -0.0386,-0.0171 -0.14141,-0.0542 -0.22837,-0.0823 -0.087,-0.0281 -0.20554,-0.0704 -0.26351,-0.094 -0.058,-0.0236 -0.13702,-0.0548 -0.17567,-0.0694 -0.43468,-0.16426 -0.48027,-0.18462 -0.66565,-0.29726 -0.13062,-0.0794 -0.14582,-0.0812 -0.26302,-0.0323 -0.0684,0.0286 -0.16092,0.0863 -0.20555,0.12822 -0.0633,0.0595 -0.1321,0.0784 -0.31302,0.0859 -0.18417,0.008 -0.25568,0.0278 -0.34769,0.098 -0.0961,0.0733 -0.16917,0.0921 -0.42896,0.11057 -0.21815,0.0155 -0.32064,0.0101 -0.33787,-0.0178 -0.0347,-0.0561 -0.14437,-0.0499 -0.19502,0.0112 -0.0522,0.0629 -0.0306,0.0967 0.27454,0.42836 0.37394,0.40646 0.40706,0.44708 0.47959,0.58832 0.0426,0.083 0.13066,0.17283 0.22383,0.22837 0.0845,0.0504 0.17423,0.11132 0.19951,0.13547 0.0253,0.0242 0.0605,0.0439 0.0783,0.0439 0.0645,0 0.69695,0.68877 0.75813,0.82566 0.052,0.11625 0.20355,0.43682 0.34451,0.72855 0.1,0.20692 -0.0255,0.59008 -0.2491,0.7606 -0.10989,0.0838 -0.14846,0.0918 -0.43918,0.0905 -0.35259,-0.002 -0.383,-0.0128 -0.70699,-0.26098 -0.11694,-0.0896 -0.33531,-0.22189 -0.48527,-0.29403 -0.15904,-0.0765 -0.31932,-0.18434 -0.38466,-0.25876 -0.31157,-0.35489 -0.49852,-0.51809 -0.8364,-0.73016 -0.15648,-0.0982 -0.26589,-0.18923 -0.49625,-0.41283 -0.23786,-0.2309 -0.65348,-0.5539 -0.71271,-0.5539 -0.11226,0 -0.45066,-0.22755 -0.68792,-0.4626 -0.46083,-0.45651 -0.60522,-0.852 -0.6484,-1.77605 -0.0304,-0.65043 -0.0874,-0.74982 -0.55996,-0.97601 -0.42846,-0.20509 -0.5659,-0.2797 -0.72445,-0.39329 -0.0893,-0.064 -0.17772,-0.11627 -0.19657,-0.11627 -0.0586,0 -0.15057,-0.12478 -0.15057,-0.20429 0,-0.11217 -0.0805,-0.39299 -0.11269,-0.39299 -0.0153,0 -0.0279,-0.021 -0.0279,-0.0466 0,-0.0455 -0.14183,-0.19936 -0.1838,-0.19936 -0.0378,0 -0.43603,-0.4316 -0.68251,-0.73973 -0.2297,-0.28715 -0.2872,-0.37023 -0.38361,-0.5543 -0.0689,-0.13148 -0.16166,-0.19968 -0.33924,-0.24931 -0.0914,-0.0255 -0.18426,-0.0682 -0.20632,-0.0948 -0.0221,-0.0266 -0.0548,-0.0483 -0.0728,-0.0483 -0.018,0 -0.0833,-0.0477 -0.14502,-0.10604 -0.0618,-0.0583 -0.15971,-0.13913 -0.21768,-0.17958 -0.058,-0.0405 -0.15983,-0.1419 -0.22636,-0.22543 -0.0665,-0.0835 -0.16045,-0.17268 -0.20873,-0.19811 -0.0483,-0.0254 -0.231,-0.18593 -0.40606,-0.35668 -0.39847,-0.38867 -0.54285,-0.48936 -0.81894,-0.57114 -0.12078,-0.0358 -0.21959,-0.0773 -0.21959,-0.0924 0,-0.0151 -0.0232,-0.0274 -0.0515,-0.0274 -0.0503,0 -0.13638,-0.0342 -0.49307,-0.19602 -0.0966,-0.0438 -0.28634,-0.12991 -0.42161,-0.19128 -0.13527,-0.0614 -0.3329,-0.15553 -0.43918,-0.20924 -0.30049,-0.15187 -0.66321,-0.33366 -0.91349,-0.45784 -0.1256,-0.0623 -0.33114,-0.16482 -0.45674,-0.22778 -0.25163,-0.12611 -0.47933,-0.22809 -0.66755,-0.29895 -0.0676,-0.0255 -0.1704,-0.0802 -0.22837,-0.12164 -0.0952,-0.068 -0.2441,-0.14261 -0.66755,-0.33436 -0.29626,-0.13415 -0.39806,-0.17635 -0.4254,-0.17635 -0.0156,0 -0.18709,-0.0772 -0.38117,-0.17158 -0.66056,-0.32121 -1.0625,-0.49597 -1.14072,-0.49597 -0.0324,0 -0.0739,-0.0135 -0.0923,-0.0299 -0.043,-0.0385 -0.4366,-0.14576 -0.5351,-0.14576 -0.0716,0 -0.30782,-0.11576 -0.4996,-0.24483 -0.16145,-0.10865 -0.30969,-0.15039 -0.44717,-0.12592 -0.3357,0.0598 -0.48742,0.0611 -0.53421,0.005 -0.0254,-0.0306 -0.0679,-0.0556 -0.0945,-0.0556 -0.0266,0 -0.0484,-0.0129 -0.0484,-0.0287 0,-0.0158 -0.0988,-0.0733 -0.21959,-0.12788 -0.41269,-0.18644 -0.51923,-0.2415 -0.55816,-0.2884 -0.0214,-0.0258 -0.0594,-0.0469 -0.0844,-0.0469 -0.025,0 -0.0507,-0.0118 -0.0572,-0.0263 -0.0149,-0.0336 -0.19778,-0.13652 -0.66169,-0.37263 -0.2029,-0.10326 -0.45587,-0.24278 -0.56215,-0.31005 -0.31196,-0.19743 -0.86389,-0.45039 -0.98271,-0.45039 -0.0363,0 -0.11366,-0.0402 -0.17201,-0.0893 -0.0995,-0.0837 -0.40424,-0.2056 -0.72496,-0.2899 -0.0773,-0.0203 -0.26702,-0.0712 -0.42161,-0.11303 -0.15459,-0.0418 -0.36626,-0.0925 -0.47037,-0.11248 -0.19698,-0.0379 -0.30499,-0.11736 -0.45739,-0.33659 -0.10542,-0.15164 -0.30533,-0.23801 -0.66656,-0.288 -0.3452,-0.0478 -0.41043,-0.0698 -0.54081,-0.18297 -0.0536,-0.0465 -0.18003,-0.12674 -0.28108,-0.17841 -0.35912,-0.18362 -0.45411,-0.20015 -1.15329,-0.20069 -0.74038,-6e-4 -0.79456,-0.0144 -1.03307,-0.26362 -0.20498,-0.21417 -0.29865,-0.33008 -0.29865,-0.36958 0,-0.0192 -0.0158,-0.0349 -0.0351,-0.0349 -0.0193,0 -0.0351,-0.0236 -0.0351,-0.0524 0,-0.0778 -0.21169,-0.26575 -0.3247,-0.28835 -0.0541,-0.0108 -0.10688,-0.0334 -0.11728,-0.0503 -0.0104,-0.0168 -0.0577,-0.0306 -0.10515,-0.0306 -0.0474,0 -0.11369,-0.015 -0.14725,-0.0334 -0.22293,-0.12216 -0.82343,-0.31791 -0.97528,-0.31791 -0.0595,0 -0.12315,-0.0126 -0.14151,-0.028 -0.0184,-0.0154 -0.0966,-0.0488 -0.17391,-0.0743 -0.0773,-0.0255 -0.25121,-0.0982 -0.38648,-0.16144 -0.29648,-0.13871 -0.58707,-0.22815 -0.74127,-0.22815 -0.0625,0 -0.11893,-0.0146 -0.12537,-0.0324 -0.0144,-0.0398 -0.61109,-0.31899 -0.68182,-0.31899 -0.0281,0 -0.0786,-0.014 -0.11211,-0.031 -0.12375,-0.063 -0.24368,-0.10643 -0.53717,-0.1947 -0.23049,-0.0693 -0.32826,-0.11905 -0.41971,-0.2134 -0.19681,-0.20305 -0.42987,-0.14643 -0.56559,0.13738 -0.0378,0.079 -0.12757,0.20868 -0.19953,0.28817 -0.1638,0.18092 -0.22653,0.25595 -0.45212,0.54077 -0.18323,0.23135 -0.42117,0.46929 -0.4951,0.49511 -0.0223,0.008 -0.10069,0.0653 -0.17423,0.12784 -0.28121,0.23912 -0.52166,0.39576 -0.60706,0.39546 -0.0488,0 -0.23898,-0.0761 -0.42255,-0.16881 -0.18358,-0.0927 -0.42864,-0.19785 -0.54458,-0.23373 -0.11595,-0.0359 -0.23452,-0.0766 -0.26351,-0.0906 -0.20059,-0.0966 -0.54785,-0.20925 -0.64496,-0.20925 -0.0662,0 -0.11482,-0.0123 -0.43234,-0.10974 -0.0708,-0.0217 -0.25654,-0.12842 -0.41282,-0.23715 -0.15629,-0.10873 -0.3474,-0.22916 -0.42469,-0.26762 -0.0773,-0.0385 -0.15133,-0.0851 -0.16452,-0.10365 -0.0507,-0.0712 -0.26862,-0.0289 -0.36934,0.0718 l -0.0986,0.0985 -0.0116,0.62287 c -0.0112,0.6 0.0284,0.98593 0.13284,1.29529 0.0163,0.0483 0.0559,0.18269 0.088,0.29864 0.0321,0.11594 0.0732,0.23826 0.0914,0.27181 0.0182,0.0335 0.0331,0.0902 0.0331,0.1259 0,0.0357 0.0109,0.0758 0.0243,0.0891 0.0134,0.0134 0.0589,0.13851 0.10117,0.27815 0.0423,0.13963 0.11042,0.34439 0.1514,0.45502 0.041,0.11063 0.0745,0.25479 0.0745,0.32035 0,0.10118 0.0859,0.30369 0.27075,0.63794 0.0214,0.0386 0.0666,0.16908 0.10042,0.28985 0.0339,0.12078 0.0749,0.21959 0.0911,0.21959 0.0163,0 0.0296,0.0171 0.0296,0.038 0,0.0209 0.0534,0.1039 0.11873,0.18445 0.0653,0.0806 0.15104,0.20969 0.19053,0.28699 0.0687,0.13454 0.10169,0.18217 0.27924,0.40348 0.0435,0.0542 0.0791,0.11366 0.0791,0.13215 0,0.0185 0.0395,0.10795 0.0878,0.19881 0.0483,0.0909 0.0879,0.18412 0.0879,0.20725 0,0.0231 0.0687,0.17645 0.15265,0.3407 0.14403,0.28189 0.25662,0.57656 0.38931,1.01889 0.0319,0.10629 0.0716,0.22486 0.0882,0.26351 0.0166,0.0386 0.0568,0.16513 0.0892,0.28107 0.0648,0.23193 0.0752,0.25959 0.208,0.55433 0.0503,0.11164 0.0915,0.22533 0.0915,0.25265 0,0.0273 0.0158,0.0594 0.0351,0.0714 0.0193,0.0119 0.0351,0.0571 0.0351,0.10045 0,0.0433 0.0136,0.0937 0.0302,0.11211 0.0166,0.0184 0.06,0.12034 0.0963,0.22662 0.0364,0.10628 0.0749,0.20114 0.0857,0.2108 0.0108,0.01 0.0492,0.11714 0.0854,0.23884 0.0362,0.12169 0.0789,0.22935 0.0949,0.23923 0.016,0.01 0.0291,0.0498 0.0291,0.0887 0,0.0563 0.24274,0.75213 0.3845,1.10214 0.0278,0.0687 0.19284,0.59912 0.25139,0.80809 0.21363,0.76241 0.31276,1.0252 0.39927,1.05839 0.0475,0.0182 0.35708,0.61851 0.43258,0.83886 0.11624,0.33929 0.1355,0.98064 0.0448,1.4932 -0.15374,0.86909 -0.21662,1.13186 -0.3092,1.29207 -0.10409,0.18013 -0.0982,0.24497 0.0869,0.95252 0.18429,0.70451 0.19064,0.75331 0.22001,1.69044 0.0148,0.47343 0.0464,0.97936 0.0701,1.12429 0.0643,0.39289 0.0517,1.83472 -0.0172,1.96795 -0.0308,0.0596 -0.0525,0.19615 -0.0525,0.33109 0,0.12629 -0.0151,0.29704 -0.0336,0.37944 -0.0185,0.0824 -0.0678,0.33164 -0.10968,0.55387 -0.0418,0.22222 -0.091,0.47518 -0.10918,0.56214 -0.0182,0.087 -0.0469,0.3083 -0.0637,0.49188 -0.0447,0.48611 -0.10576,0.82203 -0.21724,1.19456 -0.0462,0.15429 -0.1,0.27853 -0.31439,0.72565 -0.0941,0.19621 -0.17106,0.3822 -0.17106,0.41331 0,0.0311 -0.014,0.084 -0.031,0.11757 -0.0171,0.0336 -0.047,0.10053 -0.0665,0.14884 -0.0195,0.0483 -0.0748,0.17479 -0.12279,0.28107 -0.1379,0.30518 -0.16613,0.38446 -0.16636,0.46719 0,0.0426 -0.0238,0.12268 -0.0527,0.17803 -0.0289,0.0554 -0.0525,0.12011 -0.0525,0.14392 0,0.0238 -0.0225,0.0892 -0.05,0.14531 -0.0513,0.10473 -0.23036,0.49807 -0.32632,0.71686 -0.0957,0.21829 -0.23802,0.50896 -0.25796,0.52701 -0.0107,0.01 -0.0486,0.0808 -0.0842,0.15811 -0.0357,0.0773 -0.10992,0.20662 -0.16506,0.2874 -0.0551,0.0808 -0.10025,0.15896 -0.10025,0.17375 0,0.0148 -0.0412,0.0699 -0.0916,0.12247 -0.0701,0.0732 -0.099,0.15188 -0.12346,0.3357 -0.0551,0.41506 -0.0729,0.50371 -0.10505,0.52358 -0.0172,0.0106 -0.0312,0.0428 -0.0312,0.0716 0,0.0288 -0.0553,0.13882 -0.12297,0.24455 -0.0676,0.10572 -0.12297,0.20186 -0.12297,0.21364 0,0.0264 -0.32887,0.51098 -0.43332,0.63851 -0.1856,0.22662 -0.52242,0.53372 -0.60928,0.55553 -0.0523,0.0131 -0.15457,0.008 -0.22735,-0.0115 -0.10371,-0.0277 -0.15736,-0.0233 -0.24806,0.0202 -0.13,0.0623 -0.27383,0.19288 -0.27383,0.24853 0,0.0202 -0.0119,0.0369 -0.0263,0.037 -0.0823,8.4e-4 -0.21959,0.54808 -0.21959,0.87493 0,0.14918 -0.0163,0.21755 -0.0615,0.25764 -0.0879,0.0781 -0.31851,0.20225 -0.37551,0.20225 -0.0266,0 -0.1326,0.0435 -0.23551,0.0966 -0.20264,0.10464 -0.4047,0.29223 -0.48746,0.45255 -0.0286,0.0555 -0.0621,0.10872 -0.0743,0.11838 -0.0122,0.01 -0.047,0.0906 -0.0771,0.17988 -0.0302,0.0893 -0.0847,0.21575 -0.12118,0.28107 -0.0365,0.0653 -0.0955,0.19782 -0.13123,0.29444 -0.0357,0.0966 -0.0911,0.21519 -0.12313,0.2635 -0.0843,0.12716 -0.35081,0.68305 -0.35081,0.73167 0,0.0227 -0.0119,0.0413 -0.0266,0.0413 -0.0146,0 -0.0471,0.0464 -0.0722,0.1032 -0.0617,0.13934 -0.30805,0.38865 -0.38426,0.38883 -0.0698,0 -0.59199,0.25727 -0.67487,0.33227 -0.0902,0.0817 -0.30695,0.54307 -0.35541,0.75674 -0.0153,0.0676 -0.0438,0.17831 -0.0632,0.24594 -0.0195,0.0676 -0.0535,0.19412 -0.0756,0.28107 -0.0221,0.087 -0.0541,0.18973 -0.071,0.22838 -0.0169,0.0386 -0.0574,0.15722 -0.0899,0.2635 -0.0325,0.10628 -0.0727,0.20826 -0.0892,0.22662 -0.0165,0.0184 -0.0301,0.0697 -0.0301,0.11418 0,0.0444 -0.0158,0.0808 -0.0351,0.0808 -0.0193,0 -0.0351,0.0182 -0.0351,0.0405 0,0.0485 -0.1508,0.38432 -0.24999,0.55675 -0.0389,0.0676 -0.0795,0.15064 -0.0901,0.18446 -0.0107,0.0338 -0.0334,0.0615 -0.0505,0.0615 -0.0171,0 -0.031,0.0199 -0.031,0.0443 0,0.0243 -0.0395,0.0869 -0.0878,0.139 -0.0483,0.0521 -0.0881,0.10728 -0.0884,0.12262 -6.3e-4,0.0312 -0.13847,0.19451 -0.36452,0.43192 -0.20805,0.21851 -0.69432,0.45675 -0.93227,0.45675 -0.0517,0 -0.11167,0.0177 -0.13332,0.0394 -0.0216,0.0216 -0.14734,0.0428 -0.27931,0.0471 -0.13198,0.004 -0.26631,0.0194 -0.29852,0.0335 -0.0764,0.0337 -0.19808,0.22075 -0.35616,0.54755 -0.0701,0.14493 -0.16778,0.32675 -0.21705,0.40405 -0.0493,0.0773 -0.0991,0.1682 -0.1107,0.20202 -0.0116,0.0338 -0.0332,0.0615 -0.048,0.0615 -0.0148,0 -0.0694,0.0898 -0.12137,0.19949 -0.097,0.20484 -0.16237,0.30023 -0.3629,0.52945 -0.0635,0.0725 -0.24873,0.32948 -0.41173,0.57103 -0.163,0.24155 -0.34429,0.49154 -0.40287,0.55553 -0.0586,0.064 -0.10651,0.12987 -0.10651,0.14639 0,0.0165 -0.0121,0.0353 -0.0269,0.0418 -0.13112,0.057 -0.46489,0.74696 -0.46496,0.96121 -3e-5,0.0845 -0.0576,0.16183 -0.30026,0.40317 -0.16512,0.16425 -0.37402,0.40141 -0.46422,0.52701 -0.2553,0.35548 -0.42717,0.51976 -0.66502,0.63564 -0.24417,0.11894 -0.43258,0.27671 -0.43258,0.36221 0,0.0309 -0.0158,0.0562 -0.0351,0.0562 -0.0193,0 -0.0351,0.0299 -0.0351,0.0665 0,0.0366 -0.0212,0.0747 -0.0472,0.0846 -0.0796,0.0306 -0.16805,0.25771 -0.14236,0.36576 0.0321,0.13505 0.1037,0.20861 0.29201,0.30005 0.15631,0.0759 0.58935,0.33965 0.69588,0.42384 0.13908,0.10992 0.53673,0.51076 0.53673,0.54103 0,0.0189 0.0335,0.0644 0.0743,0.10121 0.10222,0.0921 0.37511,0.56317 0.42544,0.73448 0.0227,0.0773 0.0777,0.20682 0.1221,0.28784 0.0444,0.081 0.0808,0.18852 0.0808,0.2389 0,0.21007 0.17778,0.41135 0.36334,0.41135 0.11644,0 0.35309,-0.0646 0.42718,-0.11662 0.0987,-0.0693 0.50023,-0.13635 0.81654,-0.13635 0.3344,0 0.41956,0.0187 0.64983,0.1428 0.0336,0.0181 0.0836,0.0329 0.11126,0.0329 0.0276,0 0.0555,0.0119 0.062,0.0263 0.0116,0.0262 0.3923,0.21959 0.43219,0.21959 0.0303,0 0.40221,0.38303 0.5439,0.56016 0.23637,0.29548 0.5156,0.72491 0.5953,0.91548 0.13057,0.3122 0.22486,0.49187 0.25813,0.49187 0.0171,0 0.0279,0.13233 0.024,0.29407 -0.004,0.16174 0.004,0.31263 0.0184,0.33533 0.0168,0.0272 0.0932,-0.0263 0.22448,-0.15716 0.10945,-0.10913 0.23713,-0.21318 0.28375,-0.23122 0.15596,-0.0604 0.54313,0.0241 0.78412,0.17097 0.0721,0.0439 0.14718,0.0799 0.16688,0.0799 0.0197,0 0.0358,0.0129 0.0358,0.0286 0,0.0157 0.0554,0.0503 0.12302,0.0769 0.0677,0.0266 0.15738,0.0848 0.19936,0.12953 0.042,0.0447 0.0905,0.0812 0.10769,0.0812 0.0173,0 0.0817,0.0364 0.1432,0.0809 0.0615,0.0445 0.1988,0.10994 0.30508,0.14544 0.10628,0.0355 0.20826,0.0782 0.22662,0.0948 0.0184,0.0166 0.0589,0.0302 0.09,0.0302 0.0312,0 0.1386,0.0395 0.23874,0.0878 0.10014,0.0483 0.19796,0.0878 0.21738,0.0878 0.0194,0 0.0353,0.0158 0.0353,0.0351 0,0.0193 0.0169,0.0351 0.0375,0.0351 0.0776,0 0.2844,0.19148 0.33335,0.30865 0.0446,0.1068 0.0444,0.14364 -0.002,0.29942 -0.029,0.0977 -0.0528,0.24891 -0.0528,0.33603 0,0.26295 -0.14577,0.88077 -0.27876,1.18152 -0.0171,0.0386 -0.0403,0.094 -0.0515,0.12297 -0.0192,0.0495 -0.26399,0.4359 -0.49082,0.77482 -0.0555,0.0829 -0.12978,0.18176 -0.16513,0.21971 -0.0354,0.0379 -0.0742,0.11429 -0.0864,0.16964 -0.0122,0.0554 -0.0367,0.10066 -0.0544,0.10066 -0.0178,0 -0.0323,0.0176 -0.0323,0.0392 0,0.0216 -0.0553,0.11459 -0.12297,0.20673 -0.0676,0.0921 -0.12297,0.17831 -0.12297,0.1915 0,0.0132 -0.0435,0.0819 -0.0966,0.1527 -0.3184,0.42417 -0.37617,0.47934 -0.55073,0.52603 -0.15771,0.0422 -0.17042,0.0395 -0.41633,-0.0884 -0.13951,-0.0725 -0.25897,-0.14374 -0.26546,-0.15823 -0.007,-0.0145 -0.0412,-0.0263 -0.0771,-0.0263 -0.0359,0 -0.0739,-0.014 -0.0845,-0.0311 -0.0106,-0.0171 -0.0767,-0.0419 -0.14694,-0.0551 -0.0702,-0.0132 -0.1534,-0.037 -0.18484,-0.0529 -0.0534,-0.0271 -0.55802,-0.18562 -0.79497,-0.24978 -0.24854,-0.0673 -0.6768,-0.1052 -0.75995,-0.0673 -0.0949,0.0433 -0.19711,0.19133 -0.29075,0.42108 -0.0354,0.087 -0.0778,0.18972 -0.094,0.22837 -0.0163,0.0386 -0.0564,0.15722 -0.0892,0.2635 -0.0328,0.10628 -0.11247,0.30902 -0.17703,0.45053 -0.0646,0.14151 -0.11738,0.27669 -0.11738,0.3004 0,0.0237 -0.0137,0.0581 -0.0305,0.0765 -0.0168,0.0184 -0.0587,0.11243 -0.0931,0.20905 -0.0344,0.0966 -0.16104,0.38121 -0.28134,0.63242 -0.1203,0.25121 -0.24557,0.51998 -0.27838,0.59728 -0.0897,0.21121 -0.14191,0.32839 -0.25905,0.58099 -0.0586,0.1263 -0.11758,0.27378 -0.13112,0.32774 -0.0135,0.0539 -0.0621,0.17583 -0.10796,0.27084 -0.0458,0.095 -0.0833,0.18885 -0.0833,0.20853 0,0.0197 -0.014,0.0632 -0.031,0.0968 -0.0748,0.14698 -0.10469,0.25397 -0.14482,0.51776 -0.0235,0.15459 -0.0568,0.34826 -0.074,0.43039 -0.0172,0.0821 -0.0446,0.21651 -0.0609,0.29864 -0.0419,0.21111 -0.11756,0.45958 -0.15198,0.49891 -0.0161,0.0183 -0.0292,0.0944 -0.0292,0.16906 0,0.16615 -0.10136,0.51371 -0.21491,0.73692 -0.0171,0.0336 -0.031,0.0901 -0.031,0.12563 0,0.0355 -0.0395,0.10175 -0.0878,0.14714 -0.1176,0.11047 -0.1207,0.30822 -0.007,0.41548 0.0447,0.042 0.10006,0.0764 0.12297,0.0764 0.0229,0 0.0417,0.0119 0.0417,0.0265 0,0.0266 0.0725,0.063 0.33377,0.16724 0.66089,0.26374 1.00133,0.57575 1.00133,0.91768 0,0.29077 -0.13942,0.91864 -0.2798,1.26008 -0.0402,0.0977 -0.21336,0.47895 -0.25116,0.55289 -0.0172,0.0336 -0.0315,0.0889 -0.0318,0.12297 -3.5e-4,0.0341 -0.0973,0.25169 -0.21553,0.48357 -0.11818,0.23189 -0.25458,0.50066 -0.3031,0.59728 -0.10451,0.20812 -0.61676,0.76034 -0.85551,0.92227 -0.28783,0.19522 -0.62085,0.13787 -1.09556,-0.18868 -0.0949,-0.0653 -0.19456,-0.11874 -0.22138,-0.11874 -0.0268,0 -0.0488,-0.0158 -0.0488,-0.0351 0,-0.0193 -0.0195,-0.0351 -0.0434,-0.0351 -0.0419,0 -0.41275,-0.17401 -0.44846,-0.21045 -0.0443,-0.0452 -0.2449,-0.14089 -0.29528,-0.14089 -0.0308,0 -0.0561,-0.0158 -0.0561,-0.0351 0,-0.0193 -0.0327,-0.0351 -0.0726,-0.0351 -0.0594,0 -0.27762,-0.13281 -0.349,-0.21243 -0.0506,-0.0564 -0.28325,-0.13612 -0.33935,-0.11623 -0.10331,0.0366 -0.22279,0.15963 -0.22279,0.22938 0,0.0353 -0.019,0.0641 -0.0422,0.0641 -0.0328,0 -0.0328,0.009 0,0.0422 0.051,0.051 0.0561,0.26129 0.007,0.29161 -0.0585,0.0362 -0.0398,0.14718 0.0527,0.31294 0.0839,0.15036 0.0878,0.1835 0.088,0.74785 0,0.46353 -0.0125,0.62578 -0.0586,0.75447 -0.0588,0.16415 -0.28909,0.43304 -0.60914,0.71135 -0.1538,0.13374 -0.50253,0.37196 -0.54452,0.37196 -0.0115,0 -0.13907,0.0553 -0.28353,0.12297 -0.2592,0.12135 -0.26883,0.12297 -0.73351,0.12297 -0.25897,0 -0.55507,-0.0172 -0.65799,-0.0381 -0.3783,-0.0771 -0.61103,-0.14736 -0.70201,-0.21191 -0.0513,-0.0364 -0.10926,-0.0662 -0.12882,-0.0662 -0.0196,0 -0.0408,-0.0126 -0.0473,-0.028 -0.006,-0.0154 -0.12239,-0.12118 -0.25765,-0.23506 -0.29131,-0.24525 -0.2623,-0.21523 -0.52708,-0.54549 -0.30932,-0.38583 -0.47406,-0.75041 -0.47446,-1.05001 0,-0.0889 -0.0214,-0.20117 -0.0473,-0.24948 -0.13849,-0.25859 -0.24987,-0.44201 -0.30311,-0.49916 -0.0329,-0.0353 -0.0821,-0.10628 -0.10933,-0.15774 -0.0272,-0.0515 -0.10198,-0.14941 -0.16608,-0.21764 -0.18152,-0.19321 -0.33942,-0.59405 -0.46513,-1.18081 -0.0649,-0.30276 -0.0211,-1.34249 0.0718,-1.704 0.0783,-0.30487 0.14365,-0.65268 0.17825,-0.94863 0.0192,-0.16425 0.0506,-0.43303 0.0697,-0.59728 0.0624,-0.53577 0.10415,-0.71152 0.32132,-1.35266 0.19761,-0.58343 0.27758,-0.78466 0.50266,-1.26483 0.0453,-0.0966 0.0925,-0.2152 0.10493,-0.26351 0.0124,-0.0483 0.0358,-0.11946 0.0519,-0.1581 0.0682,-0.16324 0.15547,-0.36042 0.21681,-0.4897 0.0361,-0.0761 0.0656,-0.1591 0.0656,-0.18445 0,-0.0254 0.014,-0.0461 0.0312,-0.0461 0.0172,0 0.0414,-0.0542 0.0538,-0.12041 0.0124,-0.0662 0.0347,-0.12551 0.0494,-0.13175 0.0148,-0.006 0.0942,-0.14573 0.17655,-0.30998 0.15084,-0.30094 0.21875,-0.42443 0.25116,-0.45675 0.0534,-0.0532 0.11329,-0.22841 0.17422,-0.50944 0.10428,-0.48094 0.12446,-0.5494 0.21231,-0.72025 0.14948,-0.29073 0.1,-0.50495 -0.14523,-0.6284 -0.0844,-0.0425 -0.11854,-0.034 -0.3918,0.0977 -0.16466,0.0793 -0.30901,0.14422 -0.32079,0.14422 -0.0118,0 -0.0884,0.0296 -0.17034,0.0657 -0.36256,0.15988 -0.72733,0.2081 -0.91119,0.12046 -0.21677,-0.10333 -0.41775,-0.18614 -0.45175,-0.18614 -0.0208,0 -0.11976,-0.0369 -0.21997,-0.0821 -0.10021,-0.0451 -0.30078,-0.10922 -0.44571,-0.14242 -0.14493,-0.0332 -0.29513,-0.0742 -0.33377,-0.0911 -0.0387,-0.017 -0.13351,-0.0496 -0.21081,-0.0725 -0.0773,-0.0229 -0.27128,-0.1031 -0.43107,-0.17812 -0.1598,-0.075 -0.30307,-0.13639 -0.31839,-0.13639 -0.0153,0 -0.098,-0.034 -0.18378,-0.0755 -0.0857,-0.0415 -0.22311,-0.0831 -0.30524,-0.0924 -0.0821,-0.009 -0.14932,-0.0307 -0.14932,-0.0475 0,-0.0168 -0.0207,-0.0306 -0.0461,-0.0306 -0.0254,0 -0.10836,-0.0295 -0.18446,-0.0657 -0.26639,-0.12639 -0.38583,-0.17588 -0.57752,-0.23932 -0.10629,-0.0352 -0.20115,-0.073 -0.21081,-0.0841 -0.01,-0.0111 -0.0966,-0.0409 -0.19324,-0.0664 -0.14904,-0.0392 -0.73494,-0.26176 -1.17699,-0.44712 -0.12925,-0.0542 -0.592091,-0.2871 -0.904824,-0.45531 -0.200834,-0.10802 -0.649895,-0.52312 -0.86858,-0.80288 -0.07552,-0.0966 -0.198515,-0.24682 -0.273316,-0.33378 -0.0748,-0.087 -0.146956,-0.17391 -0.160345,-0.19324 -0.01339,-0.0193 -0.09691,-0.12209 -0.185593,-0.22837 -0.08868,-0.10628 -0.191362,-0.24857 -0.228176,-0.31621 -0.03681,-0.0676 -0.07484,-0.13087 -0.0845,-0.14053 -0.05157,-0.0516 -0.284984,-0.56679 -0.318344,-0.70269 -0.09831,-0.40047 -0.133857,-1.05784 -0.08099,-1.49785 0.02149,-0.17882 0.02331,-0.18107 0.219283,-0.2716 0.108691,-0.0502 0.218587,-0.12493 0.244214,-0.16605 0.02563,-0.0411 0.07608,-0.2193 0.112106,-0.39594 0.03603,-0.17666 0.09119,-0.43186 0.122583,-0.56713 0.03139,-0.13526 0.06516,-0.30918 0.07504,-0.38647 0.0099,-0.0773 0.03101,-0.17216 0.04695,-0.21081 0.01594,-0.0386 0.05519,-0.19675 0.08722,-0.35134 0.06372,-0.30753 0.11275,-0.53054 0.158343,-0.72025 0.06253,-0.26017 0.116417,-0.55421 0.144886,-0.79052 0.03512,-0.29154 0.07685,-0.49269 0.156688,-0.75538 0.03231,-0.10628 0.06667,-0.23672 0.07638,-0.28986 0.0097,-0.0531 0.03059,-0.0966 0.04642,-0.0966 0.01583,0 0.03793,-0.0288 0.04911,-0.0641 0.01119,-0.0353 0.04987,-0.0958 0.08596,-0.13452 0.101787,-0.10925 0.24544,-0.34742 0.452198,-0.74969 0.174023,-0.33859 0.255995,-0.45913 0.513922,-0.75573 0.05043,-0.058 0.09168,-0.11511 0.09171,-0.12699 2e-5,-0.0119 0.0472,-0.0751 0.1049,-0.14054 0.12409,-0.14074 0.25917,-0.40797 0.31766,-0.62839 0.0231,-0.087 0.0545,-0.18972 0.0697,-0.22837 0.0153,-0.0387 0.0546,-0.16513 0.0875,-0.28107 0.0328,-0.11595 0.076,-0.26615 0.0958,-0.33378 0.0474,-0.16145 0.2106,-0.57485 0.23579,-0.59728 0.0368,-0.0327 0.10518,-0.15722 0.25095,-0.45669 0.0799,-0.16423 0.17908,-0.34596 0.2203,-0.40386 0.0412,-0.0579 0.12,-0.19232 0.17505,-0.29869 0.11307,-0.21854 0.27265,-0.5099 0.45895,-0.838 0.0696,-0.12263 0.12661,-0.23725 0.12661,-0.25472 0,-0.0175 0.012,-0.0318 0.0266,-0.0318 0.0146,0 0.0474,-0.0672 0.0729,-0.14932 0.0559,-0.17997 0.23846,-0.57234 0.3229,-0.6939 0.0336,-0.0483 0.13599,-0.23013 0.22762,-0.40404 0.0916,-0.17392 0.18461,-0.33993 0.20663,-0.36891 0.022,-0.029 0.0703,-0.10804 0.10726,-0.17567 0.037,-0.0676 0.0767,-0.13088 0.0883,-0.14054 0.0116,-0.01 0.0585,-0.0895 0.10426,-0.17741 0.0815,-0.15666 0.082,-0.16244 0.0216,-0.28959 -0.0401,-0.0844 -0.0532,-0.16357 -0.0376,-0.22663 0.0297,-0.12043 0.20538,-0.3982 0.37767,-0.59728 0.18176,-0.21002 0.29708,-0.47645 0.33094,-0.76457 0.025,-0.2123 0.0784,-0.27801 0.25314,-0.31097 0.18982,-0.0358 0.30116,-0.14259 0.43858,-0.42066 0.0712,-0.14399 0.12939,-0.27035 0.12939,-0.2808 0,-0.0104 0.0474,-0.12147 0.1054,-0.24672 0.058,-0.12525 0.1054,-0.23655 0.1054,-0.24735 0,-0.12215 0.37247,-0.71266 0.48991,-0.77669 0.0358,-0.0195 0.16017,-0.11459 0.2763,-0.21121 0.22156,-0.18435 0.34654,-0.36249 0.41903,-0.59728 0.0541,-0.17524 0.0587,-1.06179 0.007,-1.26075 -0.0208,-0.0795 -0.0543,-0.20786 -0.0744,-0.28515 -0.0607,-0.23388 -0.1403,-0.48828 -0.17302,-0.55289 -0.017,-0.0336 -0.0309,-0.3058 -0.0309,-0.60499 0,-0.46289 0.01,-0.56117 0.0646,-0.65925 0.1487,-0.26527 0.22448,-0.56179 0.20168,-0.78907 -0.0134,-0.13361 -0.008,-0.22558 0.0141,-0.23922 0.0197,-0.0122 0.0358,-0.0833 0.0358,-0.15813 0,-0.10611 -0.026,-0.1635 -0.11833,-0.26143 -0.12341,-0.13085 -0.24426,-0.15953 -0.37574,-0.0892 -0.0727,0.0389 -0.20861,0.27732 -0.20861,0.36597 0,0.0296 -0.0737,0.16853 -0.16376,0.30883 -0.0901,0.14029 -0.24064,0.40322 -0.33463,0.58428 -0.094,0.18105 -0.22583,0.39339 -0.29299,0.47185 -0.0672,0.0785 -0.12211,0.15803 -0.12211,0.17681 0,0.0378 -0.11027,0.19142 -0.46553,0.6487 -0.13043,0.16789 -0.23715,0.3193 -0.23715,0.33647 0,0.0172 -0.0553,0.10825 -0.12297,0.20239 -0.0676,0.0941 -0.12297,0.18694 -0.12297,0.20622 0,0.0193 -0.0158,0.035 -0.0351,0.035 -0.0193,0 -0.0351,0.021 -0.0351,0.0468 0,0.12012 -0.46054,0.92098 -0.70046,1.21808 -0.039,0.0483 -0.0713,0.10628 -0.0717,0.12883 -4.3e-4,0.0225 -0.0139,0.0463 -0.0301,0.0527 -0.0161,0.006 -0.0895,0.10657 -0.16319,0.22251 -0.0737,0.11595 -0.19479,0.28196 -0.26919,0.36891 -0.0744,0.087 -0.2008,0.23716 -0.28088,0.33378 -0.25966,0.31326 -0.67129,0.75848 -1.09386,1.18312 l -0.41346,0.41548 h -0.4369 c -0.240291,0 -0.473213,-0.0142 -0.517598,-0.0316 -0.04439,-0.0174 -0.183474,-0.0587 -0.309079,-0.0917 -0.125604,-0.0331 -0.259993,-0.0723 -0.29864,-0.0872 -0.205746,-0.0792 -0.413255,-0.1664 -0.643764,-0.27055 -0.14151,-0.0639 -0.272729,-0.11625 -0.291599,-0.11625 -0.01887,0 -0.09129,-0.0553 -0.160929,-0.12297 -0.217533,-0.21126 -0.40542,-0.16551 -0.656587,0.15987 -0.03654,0.0473 -0.178833,0.20543 -0.316208,0.35132 -0.137371,0.14589 -0.380152,0.4095 -0.53951,0.5858 -0.286421,0.31687 -0.775004,0.69565 -1.080492,0.83766 -0.0773,0.0359 -0.158248,0.0825 -0.179897,0.10352 -0.05021,0.0487 -0.153877,0.24823 -0.153877,0.29615 0,0.0201 -0.06738,0.1434 -0.149746,0.27404 -0.157109,0.24919 -0.165517,0.26539 -0.342133,0.65912 -0.103329,0.23035 -0.124673,0.27989 -0.208142,0.4831 -0.01786,0.0435 -0.114295,0.25296 -0.214301,0.46552 -0.283729,0.60306 -0.350509,0.79117 -0.350509,0.9873 0,0.0682 -0.01739,0.15655 -0.03865,0.19627 -0.117528,0.21959 0.01987,0.46462 0.284253,0.5069 0.273474,0.0437 0.28336,0.0664 0.28875,0.66352 0.005,0.54865 -0.04172,0.84718 -0.181296,1.15943 -0.03455,0.0773 -0.07404,0.1767 -0.08775,0.22089 -0.0404,0.13022 -0.276587,0.55528 -0.388753,0.69964 -0.192162,0.24732 -0.806751,0.83558 -0.948303,0.90769 -0.07721,0.0393 -0.25579,0.11038 -0.396847,0.15788 l -0.256462,0.0864 -0.136974,-0.0788 c -0.283153,-0.16297 -0.535417,-0.0532 -0.58132,0.25286 -0.02559,0.17069 -0.107777,0.27736 -0.327872,0.42557 -0.196063,0.13203 -0.320585,0.35148 -0.320585,0.56497 0,0.15673 -0.08406,0.59204 -0.14157,0.73311 -0.0269,0.066 -0.07794,0.21954 -0.17019,0.51194 -0.02177,0.069 -0.03958,0.24594 -0.03958,0.39319 0,0.14725 -0.01402,0.27639 -0.03115,0.28697 -0.01714,0.0106 -0.0421,0.0776 -0.05547,0.14889 -0.01337,0.0713 -0.05356,0.194 -0.0893,0.27268 -0.03574,0.0787 -0.09154,0.23791 -0.124016,0.35385 -0.03247,0.11594 -0.07314,0.23826 -0.09036,0.27181 -0.01722,0.0336 -0.03131,0.0825 -0.03131,0.10879 0,0.0445 -0.06625,0.20589 -0.142796,0.34795 -0.01808,0.0336 -0.03288,0.0998 -0.03288,0.14725 0,0.0474 -0.01433,0.0951 -0.03184,0.10592 -0.01751,0.0108 -0.04324,0.10253 -0.05717,0.2038 -0.01393,0.10126 -0.07865,0.2864 -0.143829,0.4114 -0.06518,0.12501 -0.118658,0.24372 -0.118844,0.2638 -3.52e-4,0.0201 -0.05552,0.10594 -0.12297,0.19079 -0.06745,0.0848 -0.122629,0.17575 -0.122629,0.20202 0,0.0263 -0.01581,0.0478 -0.03513,0.0478 -0.01932,0 -0.03513,0.0165 -0.03513,0.0367 0,0.0202 -0.03953,0.0793 -0.08784,0.1314 -0.04831,0.0521 -0.08783,0.11333 -0.08783,0.13607 0,0.0227 -0.01354,0.0466 -0.03009,0.0531 -0.03199,0.0125 -0.340148,0.50228 -0.427323,0.67925 -0.02855,0.058 -0.06182,0.11331 -0.07392,0.12297 -0.0121,0.01 -0.05433,0.0782 -0.09385,0.15232 -0.03952,0.0741 -0.133331,0.18738 -0.208469,0.25169 -0.09872,0.0845 -0.164498,0.18845 -0.23711,0.3747 -0.05527,0.14176 -0.150852,0.36843 -0.21241,0.50369 -0.06156,0.13527 -0.122952,0.29337 -0.13643,0.35134 -0.01348,0.058 -0.07213,0.20531 -0.130337,0.32742 -0.168669,0.35382 -0.291842,0.79316 -0.528777,1.88604 -0.02095,0.0966 -0.05192,0.22151 -0.06884,0.27753 -0.01692,0.056 -0.03088,0.1667 -0.03102,0.24594 -3.51e-4,0.16224 -0.07899,0.43599 -0.241129,0.83889 -0.116962,0.29064 -0.140709,0.53619 -0.07383,0.76349 0.06823,0.2319 -0.05129,1.8884 -0.182508,2.52943 -0.09992,0.48815 -0.103649,0.50103 -0.173931,0.60147 -0.130018,0.18581 -0.14268,0.27015 -0.06644,0.44251 0.08821,0.19941 0.08874,0.18745 -0.02042,0.46032 -0.08122,0.20302 -0.08661,0.24302 -0.05026,0.37285 0.03821,0.13648 0.03279,0.16158 -0.08805,0.40775 -0.07082,0.14428 -0.144219,0.29506 -0.163107,0.33508 -0.02064,0.0437 -0.0263,0.29602 -0.0142,0.63241 0.01107,0.30781 0.02919,0.97323 0.04026,1.4787 l 0.02012,0.91905 -0.09387,0.19842 c -0.06016,0.12717 -0.136921,0.22611 -0.213746,0.27552 -0.159562,0.10262 -0.294779,0.37428 -0.294779,0.59223 0,0.1391 -0.01805,0.18603 -0.106284,0.27629 -0.05845,0.0598 -0.165981,0.13545 -0.238944,0.16812 -0.130144,0.0583 -0.568261,0.49058 -0.568261,0.56073 0,0.0441 -0.08443,0.0783 -0.193245,0.0783 -0.05571,0 -0.106193,-0.039 -0.157074,-0.12131 -0.09012,-0.14582 -0.245735,-0.23003 -0.425078,-0.23003 -0.111368,0 -0.149046,0.0213 -0.239239,0.13517 -0.05888,0.0743 -0.124983,0.21268 -0.146896,0.30742 -0.02191,0.0947 -0.05412,0.22943 -0.07157,0.2993 -0.04884,0.19559 -0.03898,0.43805 0.0198,0.48683 0.04207,0.0349 0.06767,0.0244 0.139427,-0.0572 0.04835,-0.055 0.0884,-0.11302 0.08901,-0.129 5.98e-4,-0.016 0.106053,-0.13455 0.234317,-0.2635 l 0.233207,-0.23446 0.513394,-0.0112 c 0.282367,-0.006 0.528415,-0.0259 0.546772,-0.0439 0.04433,-0.0435 0.185203,-0.0419 0.212562,0.002 0.01333,0.0216 0.298595,0.0351 0.738665,0.0351 0.753983,0 0.868084,0.0174 1.204023,0.18383 0.185249,0.0918 0.622349,0.54478 0.696908,0.72229 0.03011,0.0717 0.108262,0.24101 0.173668,0.37628 0.167253,0.34589 0.229398,0.69101 0.212495,1.18012 -0.02919,0.84471 -0.09951,1.2457 -0.270572,1.54277 -0.01669,0.029 -0.05554,0.10248 -0.08633,0.16332 -0.10308,0.20368 -0.546635,0.61759 -0.84537,0.78887 -0.534026,0.30617 -0.552078,0.30928 -1.806698,0.3111 l -1.072369,0.002 -0.28908,-0.29059 c -0.158993,-0.15983 -0.289081,-0.30208 -0.289081,-0.31613 0,-0.014 -0.05359,-0.10067 -0.119084,-0.1925 -0.159737,-0.22397 -0.407929,-0.69615 -0.407929,-0.77607 0,-0.0354 -0.01131,-0.0756 -0.02512,-0.0894 -0.03307,-0.0331 -0.111888,-0.33387 -0.113863,-0.43455 -0.0014,-0.0713 -0.01886,-0.079 -0.178966,-0.079 -0.243772,0 -0.38473,0.0769 -0.38473,0.21 0,0.18432 -0.128538,0.59242 -0.273699,0.86898 -0.0427,0.0814 -0.07764,0.16946 -0.07764,0.19579 0,0.061 -0.190009,0.45485 -0.251838,0.52195 -0.02574,0.0279 -0.06389,0.081 -0.08477,0.118 -0.02088,0.037 -0.09743,0.11534 -0.17012,0.17418 -0.121336,0.0982 -0.157071,0.10781 -0.436349,0.11704 -0.417387,0.0138 -0.454067,0.0252 -0.509986,0.15905 -0.113118,0.27074 -0.379706,0.31518 -1.982868,0.33057 -1.036001,0.01 -1.215639,0.004 -1.281431,-0.042 -0.04209,-0.0295 -0.09801,-0.0536 -0.124277,-0.0536 -0.09306,0 -0.360989,-0.25824 -0.52404,-0.5051 -0.09092,-0.13766 -0.177765,-0.25555 -0.192985,-0.26199 -0.01522,-0.006 -0.02767,-0.0337 -0.02767,-0.0605 0,-0.0268 -0.0375,-0.13225 -0.08334,-0.23423 -0.04584,-0.10198 -0.102423,-0.25656 -0.125748,-0.34352 -0.08314,-0.31 -0.104612,-0.33259 -0.327096,-0.34428 -0.157932,-0.008 -0.211265,-0.0265 -0.253226,-0.0864 -0.07922,-0.1131 -0.111154,-0.0471 -0.149376,0.30857 -0.02622,0.24405 -0.05565,0.35124 -0.127794,0.46553 -0.09092,0.14402 -0.0993,0.14847 -0.279626,0.14847 -0.252042,0 -0.515415,0.13065 -0.582089,0.28876 -0.195546,0.46368 -0.28666,0.59678 -0.525688,0.76795 l -0.192518,0.13785 h -0.618143 c -0.33998,0 -0.673375,0.0168 -0.740882,0.0374 -0.134293,0.0409 -1.249891,0.0802 -1.334866,0.0471 z m 7.408553,-5.72706 c 0.02194,-0.0482 0.03989,-0.1175 0.03989,-0.15409 0,-0.0366 0.01719,-0.0772 0.03819,-0.0902 0.02546,-0.0157 0.02648,-0.0353 0.0031,-0.0587 -0.04643,-0.0464 -0.111527,-0.004 -0.111527,0.0732 0,0.0337 -0.01372,0.0762 -0.03049,0.0945 -0.01677,0.0184 -0.03995,0.0841 -0.05151,0.146 -0.02532,0.13566 0.0489,0.12852 0.112376,-0.0108 z m 36.719967,-93.54116 c 0,-0.0193 -0.0158,-0.0351 -0.0351,-0.0351 -0.0193,0 -0.0351,0.0158 -0.0351,0.0351 0,0.0193 0.0158,0.0351 0.0351,0.0351 0.0193,0 0.0351,-0.0158 0.0351,-0.0351 z m 0.085,-0.12673 c 0.0306,-0.0117 0.0556,-0.0433 0.0556,-0.0703 0,-0.0624 -0.0271,-0.062 -0.0903,0.001 -0.0809,0.0809 -0.0672,0.10814 0.0348,0.069 z m 0.20719,-0.34051 c -0.01,-0.0159 -0.0386,-3.9e-4 -0.064,0.0344 -0.0254,0.0348 -0.0382,0.0762 -0.0284,0.092 0.01,0.0159 0.0386,3.8e-4 0.064,-0.0344 0.0254,-0.0348 0.0382,-0.0762 0.0284,-0.092 z m 0.11943,-0.15178 c -0.0337,-0.0337 -0.13388,0.0581 -0.1084,0.0994 0.0127,0.0205 0.0437,0.0121 0.0766,-0.0207 0.0304,-0.0304 0.0447,-0.0658 0.0318,-0.0786 z m 0.11613,-0.13721 c 0.0607,-0.0732 0.0159,-0.10865 -0.0517,-0.041 -0.0299,0.0299 -0.0544,0.0634 -0.0544,0.0744 0,0.039 0.0622,0.0194 0.10611,-0.0335 z m 0.12411,-0.1982 c 0.0133,-0.0418 0.0697,-0.1144 0.12534,-0.16123 0.0556,-0.0468 0.10119,-0.10667 0.10119,-0.13298 0,-0.0263 0.021,-0.0605 0.0467,-0.0759 0.0693,-0.0417 0.23409,-0.29878 0.21319,-0.33261 -0.0457,-0.0739 -0.29502,0.0104 -0.29502,0.0998 0,0.0336 -0.12025,0.30172 -0.24547,0.54728 -0.0526,0.10314 -0.0566,0.13176 -0.0186,0.13176 0.0267,0 0.0594,-0.0342 0.0727,-0.0761 z m -14.56496,-3.92922 c 0,-0.0734 -0.0172,-0.1054 -0.0565,-0.1054 -0.037,0 -0.0491,0.0191 -0.0351,0.0556 0.0117,0.0306 0.0213,0.078 0.0213,0.10541 0,0.0274 0.0158,0.0498 0.0351,0.0498 0.0193,0 0.0351,-0.0474 0.0351,-0.1054 z"
       id="path1138" />
  </g>
</svg>
