<?xml version="1.0" encoding="UTF-8" standalone="no"?>
<!-- Created with Inkscape (http://www.inkscape.org/) -->

<svg
   width="210mm"
   height="297mm"
   viewBox="0 0 210 297"
   version="1.1"
   id="svg5"
   inkscape:version="1.1.2 (b8e25be8, 2022-02-05)"
   sodipodi:docname="skater-jam_04.svg"
   xmlns:inkscape="http://www.inkscape.org/namespaces/inkscape"
   xmlns:sodipodi="http://sodipodi.sourceforge.net/DTD/sodipodi-0.dtd"
   xmlns="http://www.w3.org/2000/svg"
   xmlns:svg="http://www.w3.org/2000/svg">
  <sodipodi:namedview
     id="namedview7"
     pagecolor="#ffffff"
     bordercolor="#999999"
     borderopacity="1"
     inkscape:pageshadow="0"
     inkscape:pageopacity="0"
     inkscape:pagecheckerboard="0"
     inkscape:document-units="mm"
     showgrid="false"
     inkscape:zoom="0.16013082"
     inkscape:cx="346.59162"
     inkscape:cy="527.69354"
     inkscape:window-width="1660"
     inkscape:window-height="969"
     inkscape:window-x="0"
     inkscape:window-y="44"
     inkscape:window-maximized="0"
     inkscape:current-layer="layer1" />
  <defs
     id="defs2" />
  <g
     inkscape:label="Layer 1"
     inkscape:groupmode="layer"
     id="layer1">
    <path
       style="fill:#000000;stroke-width:0.0446666"
       d="m 98.51106,254.70012 c -0.01518,-0.0246 -0.08699,-0.0447 -0.159576,-0.0447 -0.07258,0 -0.16687,-0.0168 -0.209531,-0.0373 -0.934663,-0.44944 -0.972027,-0.47268 -1.300805,-0.80894 -0.181453,-0.18559 -0.382449,-0.40778 -0.446662,-0.49376 -0.322408,-0.43172 -1.014424,-1.11441 -1.139053,-1.1237 -0.129613,-0.01 -0.190784,-0.003 -0.474038,0.055 -0.46632,0.0948 -1.412064,0.14251 -2.925665,0.14769 -1.583192,0.005 -1.847721,-0.0181 -2.071112,-0.18413 -0.0647,-0.0481 -0.124004,-0.1416 -0.131901,-0.20799 -0.0089,-0.0749 -0.108736,-0.21501 -0.26352,-0.36979 -0.287416,-0.28742 -0.682367,-0.75331 -0.682671,-0.80529 0,-0.0195 -0.05539,-0.0958 -0.122833,-0.16946 -0.06745,-0.0737 -0.150442,-0.18794 -0.184434,-0.25389 -0.03399,-0.0659 -0.114391,-0.13817 -0.178666,-0.16051 -0.39643,-0.13785 -0.594058,-0.1886 -0.734387,-0.1886 -0.08738,0 -0.171292,-0.0201 -0.186474,-0.0447 -0.01518,-0.0246 -0.07667,-0.0447 -0.136635,-0.0447 -0.05997,0 -0.109032,-0.0201 -0.109032,-0.0447 0,-0.0246 -0.03901,-0.0447 -0.0867,-0.0447 -0.04768,0 -0.09912,-0.0201 -0.114302,-0.0447 -0.01518,-0.0246 -0.104435,-0.0447 -0.198333,-0.0447 -0.142558,0 -0.190365,-0.0257 -0.289708,-0.15598 -0.204068,-0.26755 -0.4981,-0.24826 -0.636397,0.0418 -0.0621,0.13023 -0.06573,0.1844 -0.0221,0.33003 0.0626,0.20895 0.06899,0.73705 0.01023,0.84564 -0.02308,0.0427 -0.05326,0.13143 -0.06707,0.19727 -0.0138,0.0658 -0.05104,0.14624 -0.08275,0.17867 -0.03171,0.0324 -0.08377,0.12283 -0.115682,0.20089 -0.03191,0.0781 -0.09639,0.17666 -0.143281,0.21909 -0.04689,0.0424 -0.08525,0.0993 -0.08525,0.12646 0,0.0475 -0.39651,0.64988 -0.656037,0.99669 -0.16884,0.22563 -0.312568,0.36949 -0.369139,0.36949 -0.02561,0 -0.121998,0.0669 -0.214194,0.14872 -0.211363,0.18752 -0.505546,0.38155 -0.792963,0.52302 -0.122833,0.0605 -0.230033,0.125 -0.23822,0.14343 -0.0082,0.0184 -0.0388,0.0335 -0.06802,0.0335 -0.08727,0 -0.760382,0.26964 -0.83276,0.33359 -0.11419,0.1009 -0.465333,0.12414 -1.898333,0.12565 -1.628599,0.002 -2.289371,-0.0602 -2.769332,-0.25955 -0.259535,-0.10779 -0.475972,-0.20157 -0.600239,-0.26008 -0.197775,-0.0931 -1.164093,-1.14667 -1.164093,-1.26918 0,-0.0227 -0.04222,-0.0795 -0.09382,-0.12634 -0.07238,-0.0657 -0.192317,-0.0919 -0.524834,-0.11471 -0.446072,-0.0307 -0.632917,-0.0569 -0.90001,-0.12638 -0.08598,-0.0224 -0.307083,-0.0734 -0.491333,-0.11342 -0.18425,-0.04 -0.38525,-0.0889 -0.446667,-0.10865 -0.06142,-0.0198 -0.202116,-0.0606 -0.312666,-0.0908 -0.189829,-0.0519 -0.241062,-0.0697 -0.513667,-0.17876 -0.272672,-0.10906 -0.323842,-0.12686 -0.513666,-0.17866 -0.11055,-0.0302 -0.2412,-0.0707 -0.290333,-0.0901 -0.149544,-0.059 -0.566543,-0.20559 -0.826333,-0.29056 -0.135117,-0.0442 -0.350004,-0.12743 -0.477531,-0.18496 -0.127524,-0.0575 -0.28253,-0.12388 -0.344456,-0.14743 -0.06193,-0.0235 -0.183218,-0.13907 -0.269532,-0.25673 -0.138748,-0.18913 -0.157061,-0.24574 -0.15804,-0.48855 -8.93e-4,-0.22012 0.02549,-0.32519 0.132893,-0.52937 0.0737,-0.1401 0.133999,-0.29917 0.133999,-0.35348 0,-0.1765 0.326326,-0.74935 0.572211,-1.00451 0.03321,-0.0344 0.136426,-0.1651 0.229373,-0.29033 0.09295,-0.12522 0.28106,-0.3332 0.41803,-0.46218 l 0.249039,-0.2345 h 0.535915 c 0.455953,0 0.591306,0.0176 0.907175,0.11806 0.204189,0.0649 0.391356,0.13314 0.415923,0.15157 0.149226,0.11198 0.399949,0.22171 0.506604,0.22171 0.151943,0 0.309996,-0.13921 0.343728,-0.30274 0.0138,-0.0669 0.04793,-0.19857 0.07586,-0.29264 0.08748,-0.29468 -0.08479,-0.70535 -0.42884,-1.02229 -0.07099,-0.0654 -0.08267,-0.14089 -0.07894,-0.5105 0.004,-0.39892 -0.0047,-0.44568 -0.10879,-0.58213 -0.08977,-0.1177 -0.145144,-0.14837 -0.267835,-0.14837 -0.08506,0 -0.189565,0.0178 -0.232226,0.0395 -0.262819,0.1337 -0.363234,0.15756 -0.671179,0.15945 l -0.342285,0.002 -0.07707,-0.15634 c -0.04613,-0.0936 -0.07793,-0.26488 -0.07922,-0.4267 -0.0018,-0.22347 -0.02407,-0.30094 -0.12856,-0.44667 -0.200848,-0.2801 -0.244639,-0.43281 -0.21373,-0.74534 0.05553,-0.56158 0.08163,-0.72715 0.121145,-0.76872 0.02218,-0.0233 0.04033,-0.0875 0.04033,-0.14253 0,-0.055 0.0201,-0.11252 0.04467,-0.1277 0.02457,-0.0152 0.04467,-0.0836 0.04467,-0.15211 0,-0.0685 0.02796,-0.18287 0.06213,-0.2542 0.03418,-0.0713 0.09828,-0.21009 0.142465,-0.30836 0.08263,-0.18379 0.458637,-0.76717 0.564943,-0.87654 0.106146,-0.1092 0.257798,-0.34179 0.257798,-0.39538 0,-0.0644 0.111337,-0.17975 0.173446,-0.17975 0.0252,0 0.09202,-0.0462 0.148476,-0.10264 0.05645,-0.0565 0.139043,-0.11662 0.183526,-0.13369 0.09166,-0.0352 0.0609,-0.121 -0.04335,-0.121 -0.03775,0 -0.127014,-0.0416 -0.198365,-0.0924 -0.09911,-0.0706 -0.12973,-0.12779 -0.12973,-0.24238 0,-0.13897 0.0189,-0.15882 0.256834,-0.26965 0.299731,-0.13961 0.373364,-0.16851 0.614166,-0.24103 0.178251,-0.0537 0.257923,-0.083 0.469,-0.17275 0.06142,-0.0261 0.262416,-0.0996 0.446666,-0.16325 0.18425,-0.0637 0.44555,-0.18308 0.580667,-0.26531 0.135116,-0.0822 0.326066,-0.18599 0.424333,-0.23057 0.09827,-0.0446 0.259066,-0.13327 0.357333,-0.19707 0.09827,-0.0638 0.238967,-0.14552 0.312667,-0.18158 0.0737,-0.0361 0.144049,-0.0766 0.156333,-0.0901 0.05585,-0.0614 0.740725,-0.4446 0.794539,-0.4446 0.0332,0 0.144488,-0.0579 0.247301,-0.12862 0.102819,-0.0707 0.262211,-0.17124 0.354216,-0.22334 0.092,-0.0521 0.242651,-0.13716 0.334776,-0.18904 0.09213,-0.0519 0.261939,-0.16338 0.377367,-0.24778 0.187939,-0.13742 0.337438,-0.22102 1.063133,-0.59447 0.11055,-0.0569 0.2412,-0.11834 0.290333,-0.13655 0.262957,-0.0974 1.254936,-0.60251 1.317666,-0.67088 0.01228,-0.0134 0.177952,-0.10048 0.368151,-0.19353 0.190195,-0.0931 0.356525,-0.18652 0.369612,-0.2077 0.01309,-0.0212 0.189124,-0.12084 0.391186,-0.22147 0.433664,-0.21597 0.869946,-0.4502 1.077704,-0.5786 0.08192,-0.0506 0.284861,-0.16166 0.450981,-0.24673 0.16612,-0.0851 0.334585,-0.18181 0.374369,-0.21498 0.03978,-0.0332 0.187904,-0.1286 0.329162,-0.21207 0.141258,-0.0835 0.256833,-0.16764 0.256833,-0.18701 0,-0.0194 0.03015,-0.0352 0.067,-0.0352 0.03685,0 0.067,-0.0167 0.067,-0.0371 0,-0.0204 0.05527,-0.0656 0.122834,-0.10043 0.06756,-0.0348 0.132883,-0.0741 0.145166,-0.0872 0.01228,-0.0132 0.163033,-0.12198 0.335,-0.24182 0.171967,-0.11985 0.444223,-0.34026 0.605014,-0.48981 0.315199,-0.29317 0.383629,-0.34971 0.623319,-0.51499 0.167647,-0.1156 0.596853,-0.48103 0.843351,-0.71802 0.150969,-0.14515 0.151138,-0.14519 0.491333,-0.11444 0.523828,0.0473 1.452296,0.16797 1.775526,0.23066 0.08225,0.016 0.152344,0.007 0.170135,-0.0218 0.01664,-0.0269 0.07731,-0.049 0.134822,-0.049 0.137238,0 0.426164,-0.28893 0.426164,-0.42617 0,-0.0575 0.0201,-0.11698 0.04467,-0.13217 0.02457,-0.0152 0.04467,-0.1345 0.04467,-0.26516 0,-0.28201 0.05336,-0.34109 0.349784,-0.38728 0.554572,-0.0864 0.81928,-0.20033 0.944682,-0.40653 0.04648,-0.0764 0.116129,-0.33174 0.154765,-0.56733 0.105159,-0.64122 0.141683,-0.80496 0.244054,-1.09413 0.05136,-0.14507 0.09338,-0.32238 0.09338,-0.39402 0,-0.14611 0.08874,-0.25788 0.20476,-0.25788 0.124527,0 0.379997,-0.22222 0.451098,-0.39238 0.03614,-0.0865 0.08485,-0.32002 0.108249,-0.51894 0.0234,-0.19892 0.06054,-0.46218 0.08253,-0.58501 0.022,-0.12283 0.05309,-0.31378 0.0691,-0.42433 0.01601,-0.11055 0.04545,-0.2412 0.06542,-0.29034 0.05711,-0.14049 0.135501,-0.55075 0.135501,-0.70914 0,-0.0792 0.01819,-0.16308 0.04043,-0.18642 0.02224,-0.0233 0.05115,-0.20324 0.06424,-0.39977 0.01309,-0.19653 0.04591,-0.47793 0.07293,-0.62533 0.153497,-0.83743 0.222712,-1.6132 0.223673,-2.50689 4.46e-4,-0.41806 0.02209,-0.74153 0.05678,-0.84866 0.07161,-0.22121 0.02649,-4.83865 -0.05298,-5.42145 -0.02848,-0.20881 -0.06019,-0.88216 -0.07047,-1.49633 -0.01029,-0.61417 -0.03013,-1.21717 -0.0441,-1.34 -0.01397,-0.12283 0.0068,-0.62533 0.04608,-1.11667 0.04476,-0.55947 0.0686,-1.319 0.06379,-2.03233 -0.0052,-0.76515 0.0098,-1.20497 0.04572,-1.34 0.06951,-0.26163 0.03819,-1.05501 -0.04762,-1.206 -0.06377,-0.1122 -0.448355,-0.58954 -0.575847,-0.71471 -0.103184,-0.10131 -0.331726,-0.406 -0.427138,-0.56945 -0.0466,-0.0798 -0.100505,-0.14517 -0.119774,-0.14517 -0.01927,0 -0.03504,-0.0262 -0.03504,-0.0582 0,-0.032 -0.07167,-0.1275 -0.159268,-0.21216 -0.0876,-0.0847 -0.192576,-0.22428 -0.233285,-0.31027 -0.07017,-0.14819 -0.436045,-0.54485 -0.680318,-0.73755 -0.115146,-0.0908 -0.222462,-0.33323 -0.222462,-0.50248 0,-0.0521 -0.0201,-0.10712 -0.04467,-0.1223 -0.02457,-0.0152 -0.04467,-0.19727 -0.04467,-0.40463 0,-0.22158 -0.01842,-0.37704 -0.04467,-0.37704 -0.02457,0 -0.04467,-0.0496 -0.04467,-0.11018 0,-0.14452 -0.27955,-0.42582 -0.423185,-0.42582 -0.05915,0 -0.119965,-0.0201 -0.135148,-0.0447 -0.01518,-0.0246 -0.08699,-0.0447 -0.159576,-0.0447 -0.07258,0 -0.16687,-0.0178 -0.209531,-0.0395 -0.04266,-0.0217 -0.137457,-0.0669 -0.210666,-0.1005 -0.07321,-0.0336 -0.290864,-0.21746 -0.483677,-0.40864 -0.343402,-0.34049 -0.452549,-0.5206 -0.790877,-1.30507 -0.02119,-0.0491 -0.03702,-0.1743 -0.03517,-0.27815 0.0018,-0.10385 -0.01786,-0.2747 -0.04378,-0.37967 -0.0543,-0.21988 -0.112355,-0.51033 -0.279203,-1.39685 -0.07247,-0.38505 -0.135505,-0.65665 -0.176232,-0.75933 -0.06746,-0.17009 -0.359741,-1.41515 -0.435147,-1.85367 -0.01056,-0.0614 -0.04145,-0.1574 -0.06866,-0.2133 -0.03677,-0.0756 -0.03511,-0.15759 0.0065,-0.31988 0.04817,-0.18796 0.0454,-0.24823 -0.02,-0.43437 -0.09538,-0.27149 -0.256275,-1.33412 -0.2559,-1.69012 0,-0.1474 0.01595,-0.36483 0.03509,-0.48319 0.03355,-0.20737 -0.02634,-0.5244 -0.119255,-0.63124 -0.02029,-0.0233 -0.0369,-0.0695 -0.0369,-0.10253 0,-0.0331 -0.05109,-0.11118 -0.11352,-0.17362 l -0.113525,-0.11352 -0.150245,0.1146 c -0.08263,0.063 -0.192326,0.18269 -0.243764,0.26592 -0.145354,0.23518 -0.407565,0.38659 -0.669526,0.38659 -0.204828,0 -0.23287,-0.0141 -0.394711,-0.19793 -0.09582,-0.10885 -0.242848,-0.33498 -0.326727,-0.5025 -0.08388,-0.16751 -0.163159,-0.31462 -0.176174,-0.32691 -0.01302,-0.0123 -0.06277,-0.0969 -0.110564,-0.18799 -0.0478,-0.0911 -0.200834,-0.3202 -0.340087,-0.5091 l -0.253184,-0.34345 -0.03195,-0.45123 c -0.01758,-0.24818 -0.04651,-0.66228 -0.06428,-0.92023 -0.01778,-0.25795 -0.06504,-0.5695 -0.105033,-0.69233 -0.279408,-0.85826 -0.343902,-1.76356 -0.157884,-2.21621 0.05435,-0.13225 0.114651,-0.24716 0.134,-0.25534 0.01935,-0.008 0.03518,-0.0396 0.03518,-0.0697 0,-0.0302 0.0352,-0.0938 0.07823,-0.14144 0.04302,-0.0476 0.122047,-0.17704 0.175611,-0.28759 0.09846,-0.20322 0.112828,-0.24647 0.281838,-0.84867 0.05171,-0.18425 0.151147,-0.4958 0.220975,-0.69233 0.06982,-0.19653 0.161939,-0.45783 0.204698,-0.58067 0.04276,-0.12283 0.0952,-0.25823 0.116531,-0.30089 0.02133,-0.0427 0.03879,-0.1269 0.03879,-0.1872 0,-0.0603 0.0201,-0.12206 0.04467,-0.13724 0.02457,-0.0152 0.04467,-0.10563 0.04467,-0.201 0,-0.0954 0.01788,-0.18445 0.03973,-0.19795 0.02185,-0.0135 0.052,-0.0951 0.067,-0.1813 0.015,-0.0862 0.03954,-0.22729 0.05454,-0.3135 0.015,-0.0862 0.04515,-0.16779 0.067,-0.1813 0.02185,-0.0135 0.03973,-0.0537 0.03973,-0.0894 0,-0.14641 0.196671,-0.4618 0.469446,-0.75282 0.180529,-0.1926 0.289887,-0.34747 0.289887,-0.41053 0,-0.0557 0.0201,-0.11367 0.04467,-0.12886 0.02457,-0.0152 0.04467,-0.13051 0.04467,-0.25629 0,-0.33236 0.146006,-0.72991 0.376022,-1.02386 0.225343,-0.28798 0.259347,-0.33457 0.328943,-0.45068 0.04049,-0.0676 0.08939,-0.12283 0.108665,-0.12283 0.01927,0 0.03504,-0.0259 0.03504,-0.0576 0,-0.0317 0.16432,-0.21526 0.365159,-0.40798 0.200835,-0.19272 0.452084,-0.46604 0.558333,-0.60738 0.1667,-0.22176 0.193174,-0.28705 0.193174,-0.47641 0,-0.1207 -0.0171,-0.23854 -0.038,-0.26187 -0.0209,-0.0233 -0.06396,-0.21591 -0.0957,-0.42792 -0.0598,-0.39956 -0.04118,-1.00489 0.04516,-1.46818 0.128037,-0.68701 0.09978,-0.85754 -0.195506,-1.17992 -0.180614,-0.19718 -0.402339,-0.63836 -0.450074,-0.89554 -0.05959,-0.32108 -0.188949,-0.48343 -0.538881,-0.67635 -0.07527,-0.0415 -0.09139,-0.10334 -0.102416,-0.39286 -0.01303,-0.34215 -0.01236,-0.34442 0.158388,-0.5384 0.420357,-0.47756 0.489126,-0.86956 0.228349,-1.30167 -0.08268,-0.137 -0.230721,-0.34651 -0.328988,-0.46559 -0.20627,-0.24995 -0.281208,-0.35726 -0.654322,-0.937 -0.1502,-0.23339 -0.286491,-0.43439 -0.302871,-0.44667 -0.01638,-0.0123 -0.07809,-0.0927 -0.13714,-0.17867 -0.05905,-0.086 -0.11838,-0.16638 -0.131847,-0.17866 -0.01347,-0.0123 -0.143098,-0.20324 -0.288068,-0.42434 -0.14497,-0.2211 -0.280645,-0.4087 -0.3015,-0.41688 -0.02085,-0.008 -0.03792,-0.0345 -0.03792,-0.0585 0,-0.048 -0.161671,-0.2632 -0.535999,-0.71355 -0.389811,-0.46897 -0.402,-0.48497 -0.402,-0.52756 0,-0.0222 -0.01507,-0.0471 -0.0335,-0.0553 -0.03299,-0.0147 -0.131744,-0.1314 -0.385773,-0.45602 -0.07092,-0.0906 -0.262354,-0.2998 -0.425414,-0.46482 -0.16306,-0.16502 -0.346238,-0.37029 -0.40706,-0.45614 -0.06082,-0.0859 -0.190986,-0.23947 -0.289253,-0.34137 -0.206623,-0.21425 -0.273091,-0.29359 -0.422524,-0.50434 -0.05972,-0.0842 -0.215213,-0.26323 -0.345532,-0.39779 -0.130319,-0.13455 -0.236943,-0.2597 -0.236943,-0.27812 0,-0.0184 -0.07159,-0.12082 -0.15908,-0.22756 -0.243764,-0.29736 -0.258986,-0.31708 -0.373891,-0.48439 -0.231141,-0.33657 -0.612898,-0.83107 -0.747175,-0.96784 -0.07763,-0.0791 -0.174651,-0.20048 -0.215606,-0.26981 -0.166558,-0.28196 -0.601557,-0.42552 -0.863907,-0.28512 -0.05013,0.0268 -0.24823,0.0482 -0.440239,0.0476 -0.34052,-0.001 -0.353491,-0.005 -0.527767,-0.1675 -0.09827,-0.0915 -0.201599,-0.21656 -0.229631,-0.27797 -0.06201,-0.13587 -0.191044,-0.65543 -0.238507,-0.96034 -0.06684,-0.4294 -0.228005,-0.91516 -0.459392,-1.38466 -0.06054,-0.12284 -0.137788,-0.28866 -0.171672,-0.3685 -0.03388,-0.0798 -0.07436,-0.14517 -0.08995,-0.14517 -0.01559,0 -0.05332,-0.0603 -0.08385,-0.134 -0.03053,-0.0737 -0.07073,-0.134 -0.08933,-0.134 -0.0186,0 -0.0588,-0.0603 -0.08933,-0.134 -0.03053,-0.0737 -0.07064,-0.134 -0.08915,-0.134 -0.01851,0 -0.08017,-0.14468 -0.137033,-0.32152 -0.07403,-0.23026 -0.161207,-0.38736 -0.307101,-0.55347 -0.38358,-0.43673 -0.480006,-0.57739 -0.760763,-1.10973 -0.154618,-0.29318 -0.318665,-0.57335 -0.364542,-0.62259 -0.04588,-0.0492 -0.08341,-0.13481 -0.08341,-0.19014 0,-0.0553 -0.0201,-0.11303 -0.04467,-0.12821 -0.02457,-0.0152 -0.04467,-0.0646 -0.04467,-0.10977 0,-0.0452 -0.06091,-0.19796 -0.135358,-0.33948 -0.07444,-0.14153 -0.192669,-0.39985 -0.26272,-0.57404 -0.128743,-0.32015 -0.334705,-0.78776 -0.409749,-0.93027 -0.02246,-0.0427 -0.04084,-0.1269 -0.04084,-0.1872 0,-0.0603 -0.01727,-0.12031 -0.03837,-0.13335 -0.02111,-0.013 -0.05208,-0.15995 -0.06883,-0.32647 -0.05704,-0.56704 -0.07684,-0.63128 -0.257909,-0.83699 -0.181758,-0.20648 -0.256874,-0.38889 -0.354814,-0.8616 -0.03181,-0.15354 -0.07379,-0.27917 -0.09329,-0.27917 -0.0195,0 -0.03545,-0.0478 -0.03545,-0.10628 0,-0.10581 -0.312176,-0.47438 -0.401795,-0.47438 -0.06957,0 -0.761655,-0.65473 -1.066358,-1.0088 -0.164748,-0.19144 -0.318513,-0.50815 -0.318513,-0.65605 0,-0.0518 -0.02482,-0.21429 -0.05516,-0.36117 -0.05056,-0.2448 -0.08348,-0.29567 -0.394768,-0.60989 -0.186782,-0.18855 -0.438336,-0.48152 -0.559003,-0.65104 -0.120671,-0.16953 -0.294773,-0.38614 -0.386898,-0.48136 -0.09212,-0.0952 -0.1675,-0.19191 -0.1675,-0.21486 0,-0.0556 -0.332905,-0.54369 -0.458722,-0.67262 -0.05479,-0.0561 -0.190061,-0.2224 -0.300611,-0.36947 -0.11055,-0.14707 -0.236854,-0.30716 -0.280672,-0.35577 -0.04382,-0.0486 -0.13207,-0.19944 -0.196117,-0.33517 -0.101925,-0.21602 -0.430574,-0.74257 -0.502523,-0.80513 -0.03911,-0.034 -0.226687,-0.40519 -0.226687,-0.44859 0,-0.0533 -0.7638,-1.22307 -0.810521,-1.2413 -0.02098,-0.008 -0.03815,-0.0394 -0.03815,-0.0694 0,-0.0674 -0.285848,-0.38467 -0.346546,-0.38467 -0.05293,0 -0.586437,-0.47742 -0.83712,-0.74911 -0.09827,-0.1065 -0.371005,-0.39114 -0.60609,-0.63252 -0.486679,-0.49973 -0.676959,-0.7501 -0.924283,-1.21617 -0.211425,-0.39842 -0.293705,-0.54413 -0.323864,-0.57353 -0.0126,-0.0123 -0.165633,-0.30374 -0.340083,-0.64767 -0.272547,-0.53735 -0.347882,-0.64887 -0.535428,-0.79261 -0.120037,-0.092 -0.253425,-0.16737 -0.296417,-0.1675 -0.04299,0 -0.07817,-0.0203 -0.07817,-0.0449 0,-0.0246 -0.03015,-0.0447 -0.067,-0.0447 -0.03685,0 -0.067,-0.0201 -0.067,-0.0447 0,-0.0246 -0.03015,-0.0447 -0.067,-0.0447 -0.03685,0 -0.067,-0.0201 -0.067,-0.0447 0,-0.0246 -0.02513,-0.045 -0.05583,-0.0455 -0.07211,-0.001 -0.304461,-0.18631 -0.589211,-0.4698 -0.258758,-0.25761 -0.784288,-1.05424 -0.784288,-1.18887 0,-0.0227 -0.123691,-0.22643 -0.274865,-0.45273 -0.356695,-0.53395 -1.110279,-1.30103 -1.623468,-1.65254 -0.570295,-0.39063 -0.554152,-0.37684 -1.008224,-0.86091 -0.195386,-0.20829 -0.32365,-0.41898 -0.596595,-0.98 -0.191236,-0.39306 -0.368004,-0.76491 -0.392816,-0.82633 -0.02482,-0.0614 -0.06287,-0.14657 -0.08458,-0.18923 -0.0217,-0.0427 -0.03945,-0.10798 -0.03945,-0.14516 0,-0.0372 -0.0201,-0.0676 -0.04467,-0.0676 -0.02457,0 -0.04467,-0.0341 -0.04467,-0.0757 0,-0.15104 -0.614349,-1.25656 -0.723233,-1.30147 -0.01985,-0.008 -0.0361,-0.0345 -0.0361,-0.0585 0,-0.0399 -0.212291,-0.33174 -0.346166,-0.47591 -0.03071,-0.0331 -0.05583,-0.0773 -0.05583,-0.0984 0,-0.0211 -0.02834,-0.0666 -0.06297,-0.10125 -0.07816,-0.0782 -0.383695,-0.71614 -0.383695,-0.80119 0,-0.0343 -0.016,-0.0815 -0.03555,-0.10479 -0.01955,-0.0233 -0.06144,-0.12284 -0.09309,-0.2211 -0.03165,-0.0983 -0.09605,-0.26387 -0.143118,-0.36802 -0.04707,-0.10414 -0.08558,-0.21971 -0.08558,-0.25683 0,-0.0371 -0.0201,-0.0675 -0.04467,-0.0675 -0.02457,0 -0.04467,-0.0304 -0.04467,-0.0675 0,-0.0371 -0.03692,-0.1527 -0.08206,-0.25684 -0.140098,-0.32328 -0.289987,-1.01592 -0.330948,-1.52934 -0.02156,-0.27023 -0.04589,-0.57173 -0.05406,-0.67 -0.0082,-0.0983 -0.01698,-0.23193 -0.01957,-0.29703 -0.0059,-0.14753 -0.288071,-0.43997 -0.424571,-0.43997 -0.05405,0 -0.118201,-0.0199 -0.142564,-0.0443 -0.043,-0.043 -0.242238,9.4e-4 -0.430796,0.0949 -0.107622,0.0537 -0.781961,0.0487 -0.815773,-0.006 -0.01518,-0.0246 -0.06689,-0.0447 -0.114909,-0.0447 -0.04802,0 -0.122205,-0.0178 -0.164863,-0.0394 -0.04266,-0.0217 -0.127811,-0.0603 -0.189228,-0.0857 -0.449175,-0.18582 -0.633572,-0.30554 -0.926185,-0.60137 -0.288432,-0.29159 -0.503147,-0.63698 -0.503147,-0.80935 0,-0.10359 -0.355235,-0.60058 -0.501143,-0.70112 -0.08059,-0.0555 -0.288273,-0.23321 -0.461522,-0.39484 -0.17325,-0.16164 -0.38889,-0.35418 -0.479201,-0.42788 -0.09031,-0.0737 -0.164637,-0.15913 -0.165168,-0.18983 -5.32e-4,-0.0307 -0.01632,-0.0558 -0.03509,-0.0558 -0.01877,0 -0.08381,-0.0804 -0.144544,-0.17866 -0.06073,-0.0983 -0.124423,-0.17867 -0.141534,-0.17867 -0.01711,0 -0.04329,-0.0384 -0.05816,-0.0852 -0.01488,-0.0469 -0.121756,-0.21298 -0.23751,-0.36912 -0.115754,-0.15615 -0.240261,-0.34392 -0.276682,-0.41728 -0.03642,-0.0734 -0.116791,-0.17358 -0.1786,-0.22271 -0.372148,-0.29584 -0.756009,-0.74983 -0.93472,-1.1055 -0.08332,-0.16583 -0.168584,-0.3015 -0.189475,-0.3015 -0.02089,0 -0.03798,-0.039 -0.03798,-0.0867 0,-0.0477 -0.0201,-0.0991 -0.04467,-0.1143 -0.02457,-0.0152 -0.04467,-0.0669 -0.04467,-0.11491 0,-0.048 -0.01877,-0.12221 -0.04172,-0.16487 -0.02294,-0.0426 -0.09832,-0.32562 -0.1675,-0.62881 -0.101509,-0.44487 -0.151646,-0.58088 -0.259785,-0.70471 -0.134211,-0.15368 -0.520579,-0.3297 -0.723714,-0.3297 -0.129602,0 -0.4157,-0.28665 -0.413869,-0.41466 0.0021,-0.14542 0.17395,-1.27223 0.260519,-1.70802 0.02451,-0.12339 0.10313,-0.41484 0.174706,-0.64766 0.198038,-0.64419 0.233358,-0.82112 0.233358,-1.16897 0,-0.29786 -0.04516,-0.52989 -0.139483,-0.71658 -0.02155,-0.0427 -0.03918,-0.0994 -0.03918,-0.126 0,-0.0266 -0.09045,-0.17519 -0.201,-0.33011 -0.123382,-0.17291 -0.201,-0.33001 -0.201,-0.40683 0,-0.24406 -0.113462,-0.52332 -0.413167,-1.01695 -0.116691,-0.19219 -0.212166,-0.39086 -0.212166,-0.44148 0,-0.32494 -0.323418,-0.75072 -0.614802,-0.80939 -0.312592,-0.0629 -0.400841,-0.0952 -0.546531,-0.19994 -0.197943,-0.14228 -0.625333,-0.66621 -0.625333,-0.76659 0,-0.0798 -0.562383,-0.95109 -0.630444,-0.97671 -0.02176,-0.008 -0.03956,-0.0391 -0.03956,-0.0687 0,-0.10131 -0.513452,-0.595985 -0.848666,-0.817625 -0.18425,-0.121824 -0.44555,-0.265892 -0.580666,-0.320153 -0.264137,-0.106069 -0.451921,-0.255261 -0.618028,-0.491011 -0.09769,-0.13865 -0.102955,-0.178577 -0.08235,-0.624864 0.01211,-0.262216 0.0449,-0.577254 0.07286,-0.700087 0.02797,-0.122834 0.06117,-0.283634 0.07378,-0.357333 0.01261,-0.0737 0.06306,-0.30485 0.112102,-0.513667 0.04905,-0.208816 0.106739,-0.460066 0.128208,-0.558333 0.222112,-1.01664 0.280435,-1.26152 0.316343,-1.328225 0.02296,-0.04266 0.04175,-0.117089 0.04175,-0.165401 0,-0.04831 0.0226,-0.144059 0.05023,-0.212769 0.02763,-0.06872 0.06783,-0.170163 0.08933,-0.225438 0.02151,-0.05527 0.06189,-0.155774 0.08975,-0.223333 0.126232,-0.306176 0.144849,-0.363247 0.258622,-0.792833 0.02603,-0.09827 0.08526,-0.309316 0.131635,-0.469 0.04637,-0.159683 0.118248,-0.451133 0.15972,-0.647666 0.04147,-0.196533 0.09182,-0.407583 0.111878,-0.469 0.02006,-0.06142 0.0612,-0.202116 0.09141,-0.312666 0.05386,-0.197056 0.111894,-0.35791 0.17727,-0.491333 0.01806,-0.03685 0.08105,-0.07274 0.13999,-0.07975 0.163006,-0.01939 0.871057,0.736499 0.963791,1.028914 0.01363,0.04299 0.04036,0.07817 0.0594,0.07817 0.01904,0 0.06755,0.08234 0.107824,0.182985 0.04027,0.100643 0.129981,0.256418 0.19936,0.346167 0.208923,0.270269 0.235254,0.390931 0.216908,0.993998 -0.01543,0.507181 -0.127971,1.109421 -0.328867,1.759848 -0.05026,0.16273 -0.108975,0.705577 -0.152179,1.406999 -0.02345,0.380784 -0.0621,0.883283 -0.08587,1.116667 -0.10507,1.031388 -0.106729,1.115174 -0.0239,1.206696 0.108431,0.119818 0.228074,0.04627 0.336594,-0.206891 0.116206,-0.2711 0.252454,-0.443022 0.801579,-1.011481 0.257842,-0.266919 0.487566,-0.51921 0.510498,-0.560647 0.02293,-0.04144 0.09839,-0.128631 0.167694,-0.193764 0.0693,-0.06513 0.126002,-0.141723 0.126002,-0.170202 0,-0.02848 0.15075,-0.202041 0.335,-0.385692 0.18425,-0.183656 0.335,-0.354202 0.335,-0.378997 0,-0.05583 0.204575,-0.264355 0.259344,-0.264355 0.02204,0 0.09867,-0.05527 0.17029,-0.122833 0.28958,-0.273159 0.730683,-0.35996 0.999249,-0.196636 0.07464,0.04539 0.230901,0.17106 0.347246,0.279269 0.235722,0.219229 0.610322,0.507025 0.881536,0.677263 0.09827,0.06168 0.237702,0.174722 0.309857,0.251205 0.07215,0.07649 0.147712,0.139065 0.167906,0.139065 0.02019,0 0.09981,0.0603 0.176935,0.134 0.07712,0.0737 0.165712,0.134 0.196871,0.134 0.03116,0 0.06335,0.01758 0.07154,0.03906 0.0082,0.02148 0.185739,0.152849 0.394555,0.291928 0.208817,0.139078 0.439967,0.301138 0.513667,0.360129 0.0737,0.05899 0.1943,0.155266 0.268,0.213944 0.0737,0.05868 0.230824,0.172391 0.349165,0.252689 0.210536,0.142857 0.21713,0.144228 0.306511,0.06362 0.08119,-0.07321 0.08835,-0.117152 0.06444,-0.395041 -0.05903,-0.686017 -0.07994,-0.852325 -0.117895,-0.938 -0.03784,-0.08541 -0.04852,-0.164744 -0.11125,-0.826333 -0.01514,-0.159683 -0.04524,-0.330533 -0.06688,-0.379666 -0.04293,-0.09744 -0.0718,-0.289797 -0.130737,-0.871 -0.06856,-0.676047 -0.163634,-1.115871 -0.378274,-1.749874 -0.174632,-0.515828 -0.161867,-0.615537 0.111704,-0.8725 0.125281,-0.117679 0.250906,-0.222127 0.279167,-0.232115 0.02826,-0.01 0.08153,-0.05121 0.118383,-0.09161 0.03685,-0.0404 0.145021,-0.1098 0.24038,-0.15423 0.09536,-0.04443 0.24611,-0.160272 0.335,-0.25744 0.08889,-0.09716 0.236994,-0.219269 0.329119,-0.271337 0.09213,-0.05207 0.1675,-0.111072 0.1675,-0.131114 0,-0.02005 0.02513,-0.03659 0.05583,-0.03676 0.03071,0 0.136233,-0.07959 0.234499,-0.176478 0.09827,-0.09689 0.222225,-0.177143 0.275464,-0.178345 0.100845,-0.0023 0.509504,-0.163685 0.549973,-0.217214 0.01278,-0.0169 0.11368,-0.0734 0.22423,-0.125544 0.552778,-0.260755 0.808177,-0.403416 0.96702,-0.540159 0.07002,-0.06028 0.207712,-0.14832 0.305979,-0.195639 0.598349,-0.288149 0.894345,-0.473632 0.933503,-0.584977 0.04724,-0.134322 -0.04164,-0.259326 -0.184379,-0.259326 -0.04597,0 -0.102686,-0.01847 -0.126024,-0.04105 -0.02334,-0.02258 -0.173084,-0.05131 -0.332767,-0.06385 -0.159683,-0.01253 -0.410933,-0.04486 -0.558333,-0.07183 -0.536837,-0.09823 -0.860189,-0.138283 -1.429333,-0.177063 -0.319366,-0.02176 -0.671116,-0.06328 -0.781666,-0.09226 -0.11055,-0.02898 -0.60213,-0.07385 -1.092401,-0.0997 -0.614986,-0.03243 -0.909314,-0.06492 -0.949167,-0.10477 -0.120061,-0.120064 -0.06385,-1.29147 0.07916,-1.649812 0.01961,-0.04913 0.04542,-0.149633 0.05736,-0.223333 0.03469,-0.214217 0.09884,-0.436076 0.174566,-0.603692 0.06625,-0.146646 0.09126,-0.249383 0.152054,-0.624641 0.0353,-0.217857 0.132582,-0.312667 0.320833,-0.312667 0.229354,0 0.662226,-0.08806 0.944933,-0.192241 0.212741,-0.07839 0.335464,-0.08903 0.915666,-0.07935 0.655034,0.01093 1.26372,-0.06826 1.382433,-0.179851 0.02334,-0.02194 0.07578,-0.03989 0.116544,-0.03989 0.04076,0 0.16497,-0.07997 0.27602,-0.177728 0.111049,-0.09775 0.25202,-0.196779 0.313269,-0.220064 0.06125,-0.02329 0.470182,-0.0443 0.908741,-0.0467 0.452356,-0.0025 0.816234,-0.02321 0.840952,-0.04793 0.05654,-0.05654 0.360871,-0.05544 0.567901,0.0021 0.172659,0.04795 0.468008,-0.0072 0.814425,-0.152 0.191968,-0.08026 0.765099,-0.09983 0.809712,-0.02764 0.01518,0.02457 0.08672,0.04467 0.158969,0.04467 0.07225,0 0.131364,0.0201 0.131364,0.04467 0,0.02457 0.04906,0.04467 0.109032,0.04467 0.05996,0 0.121453,0.0201 0.136635,0.04467 0.01518,0.02457 0.07799,0.04467 0.139574,0.04467 0.06158,0 0.152443,0.02166 0.201911,0.04814 0.04947,0.02648 0.251116,0.04709 0.448092,0.0458 0.33625,-0.0022 0.382922,0.0099 0.7635,0.197588 0.222945,0.10996 0.437059,0.228336 0.475807,0.263055 0.03874,0.03472 0.231248,0.139521 0.427781,0.232883 0.196534,0.09337 0.367384,0.180538 0.379667,0.193715 0.01228,0.01318 0.07258,0.0462 0.134,0.07338 0.172556,0.07637 0.484812,0.235059 0.804,0.408602 0.420308,0.228519 0.63917,0.332534 0.960332,0.456399 0.4543,0.175214 0.652897,0.31662 1.090747,0.776651 0.13709,0.144036 0.400003,0.375088 0.584253,0.513447 0.18425,0.13836 0.4355,0.353077 0.558333,0.477152 0.471255,0.476021 1.358357,1.436394 1.504265,1.628519 0.250571,0.329935 0.528067,0.751145 0.528067,0.801547 0,0.02592 0.01766,0.04712 0.03925,0.04712 0.02159,0 0.06516,0.06256 0.09683,0.139016 0.03167,0.07646 0.184858,0.266289 0.340418,0.42185 0.155561,0.15556 0.282838,0.302013 0.282838,0.32545 0,0.02344 0.06361,0.160228 0.141357,0.303983 0.268451,0.496358 0.356882,0.689926 0.527549,1.1547 0.05413,0.1474 0.136814,0.345273 0.183754,0.439721 0.04694,0.09445 0.08534,0.208834 0.08534,0.254198 0,0.04536 0.0201,0.0949 0.04467,0.110081 0.02457,0.01518 0.04467,0.06689 0.04467,0.114909 0,0.04802 0.01746,0.122204 0.03879,0.164865 0.02133,0.04266 0.07392,0.178059 0.11687,0.300892 0.04294,0.122833 0.126134,0.357427 0.184866,0.521318 0.09306,0.259683 0.111819,0.420362 0.145926,1.249934 0.0255,0.620294 0.02331,1.058581 -0.0063,1.258022 -0.0448,0.301849 -0.02533,0.506395 0.100705,1.057724 0.237136,1.037374 0.228042,1.380379 -0.04504,1.698745 -0.05201,0.06064 -0.13664,0.159183 -0.188056,0.218982 -0.219921,0.255775 -0.258437,0.487555 -0.258437,1.555085 0,0.54728 -0.01785,1.02997 -0.03967,1.07263 -0.02182,0.0426 -0.06758,0.1963 -0.101674,0.34143 -0.0341,0.14513 -0.09162,0.27795 -0.127823,0.29515 -0.03621,0.0172 -0.127965,0.0635 -0.203907,0.10297 -0.07595,0.0394 -0.226697,0.085 -0.335,0.10119 -0.190066,0.0285 -0.397922,0.17817 -0.397922,0.28656 0,0.0624 0.204453,0.26792 0.266575,0.26792 0.04633,0 0.101152,0.023 0.302317,0.12703 0.05495,0.0284 0.13032,0.0516 0.1675,0.0516 0.03718,0 0.06761,0.0201 0.06761,0.0447 0,0.0246 0.04402,0.0447 0.09783,0.0447 0.05381,0 0.219631,0.0577 0.3685,0.12813 0.957774,0.45338 1.421467,0.56907 2.459337,0.61355 0.270233,0.0116 0.531533,0.0392 0.580666,0.0613 0.04913,0.0221 0.159684,0.0505 0.245667,0.0631 0.400517,0.0587 0.663469,0.11484 0.843114,0.17986 0.107499,0.0389 0.254792,0.0707 0.327317,0.0707 0.07253,0 0.356427,0.0385 0.630885,0.0856 0.738822,0.12679 2.157207,0.30696 2.844015,0.36125 0.881773,0.0697 1.511899,0.13499 1.755364,0.18186 0.117902,0.0227 0.360107,0.0413 0.538233,0.0413 0.178126,0 0.342964,0.0183 0.366302,0.0407 0.02334,0.0224 0.152983,0.0515 0.2881,0.0647 0.384303,0.0374 1.108094,0.10948 1.451666,0.14453 0.223789,0.0228 0.362496,0.0648 0.48797,0.14782 0.167272,0.11061 0.214364,0.11755 1.027332,0.15134 0.468616,0.0195 1.36458,0.0443 1.99103,0.0552 1.428546,0.0248 2.881463,0.0943 3.260665,0.15592 0.615386,0.10006 0.88841,0.13446 1.384666,0.17449 0.282516,0.0228 0.553866,0.0535 0.603,0.0681 0.04913,0.0147 0.320483,0.0577 0.602999,0.0955 0.782547,0.10475 1.142202,0.16609 1.675,0.28571 1.245676,0.27967 1.415486,0.30989 1.75053,0.31154 0.201223,9.8e-4 0.378286,0.0219 0.393469,0.0465 0.01518,0.0246 0.10653,0.0447 0.202996,0.0447 0.167906,0 0.50112,0.0647 0.690337,0.134 0.158356,0.058 0.511821,0.134 0.623336,0.134 0.05962,0 0.119139,0.0174 0.132271,0.0387 0.01314,0.0212 0.109795,0.0529 0.214802,0.0703 0.295667,0.0491 0.575762,0.10453 0.77159,0.15268 0.492856,0.12119 0.868806,0.22304 0.904352,0.24501 0.02179,0.0135 0.200357,0.0446 0.396808,0.0693 0.19645,0.0246 0.44635,0.0731 0.55534,0.10765 0.10899,0.0346 0.28861,0.088 0.39916,0.1187 0.11055,0.0307 0.27828,0.0939 0.37272,0.14044 0.0944,0.0465 0.20601,0.0846 0.2479,0.0846 0.0419,0 0.0953,0.017 0.11862,0.0377 0.0695,0.0617 0.51574,0.21978 0.77943,0.27604 0.27862,0.0594 0.71722,0.18341 1.20053,0.3393 0.18124,0.0585 0.3732,0.10629 0.42657,0.10629 0.0534,0 0.11613,0.016 0.13946,0.0356 0.0233,0.0196 0.12284,0.0614 0.2211,0.093 0.0983,0.0316 0.24902,0.0902 0.335,0.1302 0.086,0.04 0.27694,0.087 0.42434,0.10434 0.30226,0.0357 0.49427,0.074 0.62533,0.125 0.21147,0.0822 0.56628,0.19789 0.98267,0.32038 0.24566,0.0723 0.52394,0.17117 0.61838,0.21978 0.0945,0.0486 0.20884,0.0884 0.2542,0.0884 0.0454,0 0.0949,0.0201 0.11008,0.0447 0.0152,0.0246 0.0767,0.0447 0.13664,0.0447 0.06,0 0.10903,0.0201 0.10903,0.0447 0,0.0246 0.0338,0.0447 0.075,0.0447 0.0413,0 0.13673,0.0187 0.21217,0.0416 0.0755,0.0229 0.22762,0.0657 0.33817,0.0951 0.11055,0.0294 0.2664,0.082 0.34633,0.11687 0.0799,0.0349 0.37401,0.13068 0.6535,0.21292 0.27949,0.0822 0.58594,0.18381 0.681,0.22571 0.0951,0.0419 0.22309,0.0966 0.2845,0.12151 0.0614,0.0249 0.14657,0.0631 0.18923,0.0848 0.0427,0.0217 0.11685,0.0395 0.16487,0.0395 0.048,0 0.0997,0.0201 0.1149,0.0447 0.0152,0.0246 0.0956,0.0447 0.17867,0.0447 0.0831,0 0.16349,0.0201 0.17867,0.0447 0.0152,0.0246 0.0727,0.0447 0.1277,0.0447 0.0551,0 0.11919,0.017 0.14253,0.0378 0.0233,0.0208 0.19318,0.0625 0.37743,0.0928 0.36298,0.0595 0.44492,0.0769 1.18367,0.25053 0.54075,0.1271 0.78186,0.19927 0.84643,0.25337 0.0233,0.0195 0.0875,0.0356 0.14253,0.0356 0.0551,0 0.11252,0.0201 0.12771,0.0447 0.0152,0.0246 0.0755,0.0447 0.134,0.0447 0.0585,0 0.11881,0.0201 0.134,0.0447 0.0152,0.0246 0.066,0.0447 0.11294,0.0447 0.0469,0 0.15691,0.0402 0.24439,0.0893 0.23334,0.13106 0.53278,0.11943 0.72636,-0.0282 0.19488,-0.14864 0.27864,-0.34828 0.27864,-0.6641 0,-0.19286 0.035,-0.32069 0.15633,-0.57078 0.086,-0.17724 0.15634,-0.35348 0.15634,-0.39164 0,-0.0382 0.0188,-0.0885 0.0418,-0.11183 0.0653,-0.0664 0.10745,-1.30145 0.054,-1.58343 -0.0811,-0.42802 -0.1064,-0.51072 -0.19442,-0.63641 -0.13862,-0.19792 -0.0923,-0.35066 0.14332,-0.47265 0.17616,-0.0912 0.24357,-0.10104 0.5455,-0.0797 0.4347,0.0307 0.48913,-0.009 0.45082,-0.33292 -0.0167,-0.14126 -0.006,-0.26233 0.0282,-0.32682 0.0897,-0.1677 0.0153,-1.45135 -0.12716,-2.19384 -0.14916,-0.77717 -0.25658,-1.12213 -0.5146,-1.65267 -0.13143,-0.27023 -0.26477,-0.58178 -0.29632,-0.69233 -0.0315,-0.11055 -0.074,-0.2201 -0.0943,-0.24343 -0.0203,-0.0233 -0.0369,-0.0875 -0.0369,-0.14254 0,-0.0551 -0.0173,-0.11075 -0.0383,-0.12379 -0.0211,-0.013 -0.053,-0.1499 -0.0709,-0.30414 -0.0179,-0.15424 -0.0514,-0.41108 -0.0744,-0.57077 -0.0711,-0.49385 -0.11504,-2.129023 -0.078,-2.903329 0.0339,-0.708207 0.0635,-0.947044 0.17181,-1.384666 0.12139,-0.490645 0.1501,-0.663121 0.14871,-0.893333 -0.002,-0.262523 -0.0369,-0.454496 -0.11233,-0.610253 -0.0637,-0.131557 0.024,-1.108247 0.10392,-1.157648 0.0214,-0.01322 0.0389,-0.06332 0.0389,-0.111341 0,-0.04802 0.0181,-0.122203 0.0403,-0.164864 0.0222,-0.04266 0.0651,-0.168009 0.0953,-0.278559 0.0303,-0.11055 0.0898,-0.31155 0.13237,-0.446667 0.0425,-0.135116 0.10485,-0.335554 0.13844,-0.445416 0.0905,-0.295849 0.0748,-0.655617 -0.0449,-1.031129 -0.23004,-0.721822 -0.27952,-0.871826 -0.31588,-0.957787 -0.12008,-0.283879 -0.17741,-1.122678 -0.0949,-1.389169 0.022,-0.07122 0.0656,-0.276133 0.0969,-0.455358 0.0312,-0.179225 0.0735,-0.336184 0.0939,-0.348802 0.0204,-0.01262 0.0371,-0.06223 0.0371,-0.110246 0,-0.04802 0.0181,-0.122204 0.0403,-0.164865 0.039,-0.07506 0.106,-0.358905 0.33993,-1.439588 0.0611,-0.282351 0.11113,-0.658279 0.11113,-0.8354 0,-0.177117 0.018,-0.368205 0.04,-0.424633 0.022,-0.05643 0.0645,-0.193054 0.0944,-0.303603 0.0299,-0.11055 0.0699,-0.2412 0.0889,-0.290334 0.019,-0.04913 0.0588,-0.179783 0.0886,-0.290333 0.0298,-0.11055 0.0723,-0.235902 0.0944,-0.278559 0.0222,-0.04266 0.0403,-0.107374 0.0403,-0.143809 0,-0.03643 0.0402,-0.137819 0.0893,-0.225298 0.0491,-0.08748 0.0893,-0.178756 0.0893,-0.202845 0,-0.02409 0.0375,-0.129002 0.0832,-0.233142 0.0458,-0.10414 0.11831,-0.279796 0.16121,-0.390346 0.0429,-0.11055 0.0959,-0.247172 0.11779,-0.303604 0.0219,-0.05643 0.0398,-0.139078 0.0398,-0.18366 0,-0.04459 0.078,-0.229564 0.17325,-0.411067 0.43264,-0.824109 0.54988,-1.073595 0.70083,-1.491335 0.19271,-0.533311 0.30818,-0.784824 0.47535,-1.035382 0.0685,-0.102693 0.12457,-0.197672 0.12457,-0.211067 0,-0.02629 0.23982,-0.390722 0.61417,-0.933297 0.12897,-0.186939 0.2345,-0.360893 0.2345,-0.386567 0,-0.02568 0.0187,-0.04669 0.0417,-0.04669 0.0229,0 0.0536,-0.03774 0.0683,-0.08387 0.0146,-0.04613 0.0763,-0.141607 0.13709,-0.212167 0.0607,-0.07056 0.18545,-0.238846 0.2771,-0.373962 0.0917,-0.135117 0.19736,-0.275817 0.2349,-0.312667 0.0375,-0.03685 0.22884,-0.247127 0.42512,-0.467285 0.56303,-0.631555 0.71008,-0.767904 1.12255,-1.040907 0.61781,-0.408914 0.64778,-0.43244 0.97511,-0.765528 0.1713,-0.17432 0.32785,-0.316946 0.34788,-0.316946 0.0354,0 0.83691,-0.524542 0.88165,-0.576972 0.0123,-0.01439 0.0776,-0.05466 0.14516,-0.08948 0.0676,-0.03482 0.12284,-0.08001 0.12284,-0.100428 0,-0.02041 0.0261,-0.03712 0.0579,-0.03712 0.0319,0 0.12842,-0.07538 0.21457,-0.1675 0.26153,-0.279654 0.27214,-0.300642 0.21521,-0.425593 -0.0841,-0.18454 -0.21563,-0.22487 -0.65191,-0.19987 -0.25773,0.01477 -0.44052,0.0037 -0.52814,-0.03203 -0.25782,-0.105069 -0.45411,-0.157677 -0.58835,-0.157677 -0.0744,0 -0.1936,-0.01776 -0.26482,-0.03946 -0.0712,-0.0217 -0.21995,-0.06547 -0.3305,-0.09727 -0.33476,-0.09629 -0.43774,-0.16699 -0.56562,-0.388354 -0.0673,-0.116553 -0.13441,-0.221966 -0.14906,-0.234249 -0.0146,-0.01228 -0.0749,-0.09268 -0.13399,-0.178667 -0.059,-0.08598 -0.12071,-0.166383 -0.13703,-0.178667 -0.0331,-0.02493 -0.0825,-0.41225 -0.10698,-0.83929 -0.0125,-0.217098 -0.0423,-0.315258 -0.13122,-0.431873 -0.13456,-0.176416 -0.37511,-0.270153 -0.5773,-0.224959 -0.078,0.01743 -0.32089,0.0411 -0.53977,0.05259 -0.35208,0.01849 -0.4216,0.009 -0.603,-0.0827 -0.11277,-0.05698 -0.22821,-0.123812 -0.25653,-0.148521 -0.0283,-0.0247 -0.1439,-0.122034 -0.25683,-0.216285 -0.11294,-0.09425 -0.20534,-0.199776 -0.20534,-0.2345 0,-0.03472 -0.0152,-0.06314 -0.0338,-0.06314 -0.0782,0 -0.14487,-0.388971 -0.14487,-0.845326 0,-0.278085 -0.0193,-0.50132 -0.0447,-0.517007 -0.0246,-0.01518 -0.0447,-0.05797 -0.0447,-0.09509 0,-0.03712 -0.0603,-0.155128 -0.134,-0.262247 -0.091,-0.132298 -0.13417,-0.249486 -0.13453,-0.365382 -0.001,-0.428514 -0.29095,-1.098367 -0.62034,-1.43476 -0.42114,-0.4301 -0.72622,-1.304655 -0.64972,-1.862523 0.0168,-0.122834 0.029,-0.279596 0.0269,-0.34836 -0.004,-0.132624 -0.16157,-0.455318 -0.2771,-0.567307 -0.038,-0.03685 -0.11316,-0.130082 -0.16699,-0.207186 -0.0538,-0.0771 -0.19878,-0.20493 -0.3221,-0.284066 -0.24869,-0.159581 -0.29024,-0.251822 -0.25772,-0.572001 0.0194,-0.190785 0.0732,-0.320957 0.39141,-0.946746 0.12375,-0.243366 0.16189,-0.338685 0.20557,-0.513666 0.071,-0.284335 0.007,-2.186741 -0.0763,-2.275766 -0.0219,-0.02334 -0.0398,-0.078 -0.0398,-0.121475 0,-0.04347 -0.0361,-0.144979 -0.0802,-0.225567 -0.0441,-0.08059 -0.108,-0.236974 -0.14193,-0.347524 -0.16671,-0.54316 -0.50505,-1.315013 -0.62653,-1.429333 -0.0392,-0.03685 -0.11984,-0.13735 -0.17928,-0.223333 -0.0594,-0.08598 -0.12884,-0.177389 -0.15422,-0.203122 -0.20438,-0.207284 -0.98749,-0.612978 -1.52013,-0.787522 -0.0983,-0.0322 -0.18872,-0.06874 -0.201,-0.08119 -0.0123,-0.01245 -0.0726,-0.04523 -0.134,-0.07284 -0.2412,-0.108433 -0.36486,-0.150657 -0.44123,-0.150657 -0.1058,0 -0.20405,-0.190255 -0.1657,-0.320898 0.0797,-0.271754 0.15634,-0.581503 0.22436,-0.907435 0.041,-0.196533 0.0909,-0.397533 0.11081,-0.446666 0.06,-0.147943 0.19067,-0.658614 0.21435,-0.83778 0.0122,-0.09228 0.0401,-0.17889 0.0621,-0.192469 0.022,-0.01356 0.04,-0.0826 0.04,-0.1534 0,-0.0708 0.0201,-0.14115 0.0447,-0.156333 0.0246,-0.01518 0.0447,-0.08553 0.0447,-0.156333 0,-0.0708 0.0201,-0.14115 0.0447,-0.156333 0.0246,-0.01518 0.0447,-0.09734 0.0447,-0.182574 0,-0.141921 0.18085,-0.594434 0.40493,-1.013175 0.0496,-0.09263 0.14543,-0.273529 0.21303,-0.402 0.16973,-0.322559 0.2403,-0.437884 0.33121,-0.541232 0.043,-0.04887 0.0782,-0.104546 0.0782,-0.123715 0,-0.01917 0.0881,-0.171153 0.19572,-0.337744 0.10764,-0.166591 0.2422,-0.403392 0.29901,-0.526226 0.0568,-0.122833 0.11447,-0.233383 0.12812,-0.245666 0.0234,-0.02104 0.0835,-0.122987 0.17777,-0.3015 0.0227,-0.04299 0.15525,-0.307837 0.29456,-0.588546 0.22243,-0.448232 0.39692,-0.723344 0.59166,-0.932884 0.0311,-0.03344 0.11113,-0.134437 0.17789,-0.224436 0.0668,-0.09 0.19071,-0.223933 0.27544,-0.297633 0.0847,-0.0737 0.20568,-0.191219 0.26878,-0.261152 0.18756,-0.207889 0.74671,-0.753659 0.95656,-0.933681 0.26682,-0.228891 0.38134,-0.221292 0.57111,0.03789 0.0827,0.112967 0.21068,0.278792 0.28438,0.3685 0.17114,0.208309 0.335,0.44186 0.335,0.477467 0,0.0152 0.0804,0.104892 0.17867,0.199306 0.0983,0.09441 0.17866,0.189549 0.17866,0.211409 0,0.02186 0.0358,0.07871 0.0794,0.126335 0.0713,0.07772 0.16528,0.223104 0.42811,0.662225 0.0458,0.07647 0.096,0.149081 0.11167,0.161364 0.10032,0.07874 0.31878,0.411856 0.31878,0.486078 0,0.04912 0.0201,0.101739 0.0447,0.116922 0.0246,0.01518 0.0447,0.06662 0.0447,0.114303 0,0.04768 -0.0201,0.0867 -0.0447,0.0867 -0.0246,0 -0.0447,0.02723 -0.0447,0.06052 0,0.03328 -0.17813,0.24769 -0.39585,0.47646 -0.21773,0.22877 -0.4338,0.487743 -0.48017,0.575495 -0.0464,0.08775 -0.13958,0.218026 -0.20714,0.289498 -0.0676,0.07147 -0.12284,0.157116 -0.12284,0.190322 0,0.03321 -0.0201,0.06038 -0.0447,0.06038 -0.0246,0 -0.0447,0.02117 -0.0447,0.04704 0,0.02587 -0.0905,0.185605 -0.201,0.354956 -0.11055,0.169352 -0.201,0.329265 -0.201,0.355363 0,0.0261 -0.0603,0.110548 -0.134,0.187669 -0.0737,0.07712 -0.134,0.167387 -0.134,0.200593 0,0.03321 -0.0178,0.06038 -0.0395,0.06038 -0.0217,0 -0.051,0.03517 -0.065,0.07817 -0.0141,0.04299 -0.0871,0.178666 -0.16225,0.3015 -0.12497,0.204203 -0.61507,1.185629 -0.72492,1.451666 -0.0254,0.06142 -0.0639,0.146841 -0.0856,0.189833 -0.0217,0.04299 -0.0572,0.113341 -0.0789,0.156333 -0.0854,0.169291 -0.13433,0.308265 -0.16103,0.457833 -0.0777,0.43535 -0.0764,0.466472 0.0244,0.573913 0.13137,0.140017 0.33234,0.102705 0.50432,-0.09364 0.07,-0.0799 0.23546,-0.265877 0.36773,-0.413277 0.13226,-0.1474 0.276,-0.309234 0.31941,-0.359632 0.0434,-0.0504 0.14929,-0.134509 0.23527,-0.186913 0.086,-0.0524 0.24357,-0.187044 0.35019,-0.2992 0.10663,-0.112157 0.21373,-0.203921 0.238,-0.203921 0.0243,0 0.11815,-0.07538 0.2086,-0.1675 0.0932,-0.09494 0.35774,-0.262344 0.61066,-0.386447 0.24542,-0.120421 0.53534,-0.279704 0.64426,-0.353961 0.10892,-0.07426 0.38027,-0.226203 0.603,-0.337657 0.3608,-0.180548 0.44446,-0.204522 0.7673,-0.21987 0.5242,-0.02492 0.72792,0.09954 1.00075,0.611435 0.0777,0.145854 0.17972,0.306381 0.22662,0.356727 0.0469,0.05035 0.0853,0.110803 0.0853,0.13435 0,0.02355 0.0156,0.04951 0.0347,0.0577 0.0191,0.0082 0.0918,0.145539 0.16153,0.305222 0.23597,0.540389 0.51864,1.111548 0.56398,1.139567 0.0248,0.01533 0.0738,0.09666 0.10896,0.180726 0.0351,0.08407 0.11502,0.204002 0.17754,0.26652 0.0625,0.06252 0.12676,0.168235 0.14277,0.234927 0.016,0.06669 0.0931,0.211709 0.17139,0.322259 0.17176,0.242635 0.25602,0.427172 0.35691,0.781666 0.0419,0.1474 0.0947,0.302903 0.11722,0.345559 0.0225,0.04266 0.0409,0.146998 0.0409,0.231865 0,0.08487 0.0201,0.166727 0.0447,0.181909 0.0246,0.01518 0.0447,0.07606 0.0447,0.135278 0,0.128032 0.15186,0.411661 0.27983,0.522658 0.22244,0.192915 0.39403,0.02907 0.44668,-0.426527 0.0204,-0.176411 0.0584,-0.501642 0.0844,-0.722742 0.0261,-0.221225 0.0557,-1.616661 0.0659,-3.103124 0.0115,-1.673012 0.0351,-2.717735 0.0622,-2.744765 0.024,-0.024 0.0436,-0.07662 0.0436,-0.116936 0,-0.188525 0.71021,-0.712838 0.96558,-0.712838 0.0386,0 0.17709,-0.05863 0.30767,-0.130291 0.2334,-0.128094 0.25084,-0.130541 1.03425,-0.145166 0.43826,-0.0082 1.3825,0.0033 2.09831,0.02553 l 1.30147,0.04041 0.39586,-0.12612 c 0.43759,-0.139417 0.55253,-0.21287 0.55151,-0.352457 -0.002,-0.22372 -0.21082,-0.339243 -0.6143,-0.339243 -0.25354,0 -0.33091,-0.02171 -0.5861,-0.164415 -0.1617,-0.09043 -0.33325,-0.200978 -0.38121,-0.245667 -0.048,-0.04469 -0.1119,-0.08125 -0.14207,-0.08125 -0.0302,0 -0.0616,-0.01507 -0.0697,-0.0335 -0.0185,-0.04165 -0.38671,-0.2345 -0.44771,-0.2345 -0.0246,0 -0.0981,-0.03741 -0.16328,-0.08313 -0.0652,-0.04572 -0.19896,-0.109109 -0.29723,-0.140857 -0.0983,-0.03175 -0.24901,-0.100319 -0.335,-0.15238 -0.086,-0.05206 -0.21663,-0.12435 -0.29033,-0.160643 -0.0737,-0.03629 -0.17297,-0.101161 -0.22059,-0.144153 -0.0476,-0.04299 -0.11128,-0.07817 -0.14144,-0.07817 -0.0302,0 -0.0616,-0.01507 -0.0697,-0.0335 -0.0142,-0.03195 -0.17374,-0.123117 -0.61789,-0.353086 -0.11055,-0.05724 -0.35175,-0.165646 -0.536,-0.240902 -0.34282,-0.140026 -0.64873,-0.290266 -0.74816,-0.367445 -0.0664,-0.05151 -0.0753,-0.4171 -0.0112,-0.456733 0.0246,-0.01518 0.0447,-0.06601 0.0447,-0.112945 0,-0.04694 0.0435,-0.161324 0.0966,-0.254197 0.0531,-0.09287 0.17146,-0.312951 0.26297,-0.489064 0.0915,-0.176113 0.21889,-0.389061 0.28308,-0.473216 0.0642,-0.08416 0.11671,-0.168855 0.11671,-0.188222 0,-0.01937 0.0352,-0.06793 0.0782,-0.107927 0.10065,-0.09363 0.18983,-0.252966 0.18983,-0.339156 0,-0.03718 0.0152,-0.06761 0.0338,-0.06761 0.0186,0 0.0625,-0.06495 0.0976,-0.144329 0.10434,-0.235717 0.31323,-0.436337 0.45433,-0.436337 0.14,0 0.35226,-0.08444 0.35226,-0.14014 0,-0.02006 0.0476,-0.06767 0.10583,-0.105808 0.089,-0.0583 0.15475,-0.06182 0.41316,-0.02206 0.16904,0.026 0.52844,0.06697 0.79868,0.09104 0.87017,0.0775 1.33736,0.145447 1.51866,0.220862 0.0491,0.02044 0.18983,0.06039 0.31267,0.08879 0.26468,0.06119 0.53758,0.132292 0.69233,0.180388 0.0614,0.01909 0.23227,0.05846 0.37967,0.08749 0.1474,0.02903 0.33835,0.07184 0.42433,0.09513 0.086,0.02329 0.34913,0.08098 0.58477,0.128203 0.57624,0.11547 0.96022,0.265628 1.49223,0.583537 0.12283,0.0734 0.34393,0.196363 0.49133,0.273249 0.26076,0.136016 0.88966,0.543217 0.98587,0.638339 0.0263,0.02603 0.22546,0.188024 0.44251,0.359991 0.41112,0.325728 1.02073,0.915066 1.22334,1.182675 0.0647,0.08544 0.17289,0.214044 0.24045,0.285791 0.0676,0.07175 0.12283,0.157618 0.12283,0.190824 0,0.03321 0.0201,0.06038 0.0447,0.06038 0.0246,0 0.0447,0.03562 0.0447,0.07916 0,0.04354 0.0573,0.149061 0.12722,0.2345 0.07,0.08544 0.1644,0.235743 0.20984,0.33401 0.0454,0.09827 0.0947,0.188717 0.10939,0.201 0.0147,0.01228 0.0815,0.132883 0.14849,0.268 0.0669,0.135116 0.17153,0.331631 0.23239,0.436698 0.0609,0.105068 0.11067,0.220916 0.11067,0.25744 0,0.03652 0.0183,0.101309 0.0406,0.143967 0.0223,0.04266 0.1352,0.308711 0.25081,0.591227 0.11561,0.282517 0.22799,0.548569 0.24973,0.591227 0.0217,0.04266 0.0395,0.126897 0.0395,0.187197 0,0.0603 0.0201,0.12206 0.0447,0.137243 0.0246,0.01518 0.0447,0.07265 0.0447,0.127703 0,0.05505 0.0182,0.119192 0.0403,0.14253 0.0222,0.02334 0.051,0.132883 0.0641,0.243433 0.0131,0.11055 0.0466,0.39195 0.0745,0.625333 0.076,0.634894 0.0828,5.536011 0.008,5.828998 -0.0313,0.122833 -0.0686,0.33923 -0.0828,0.480881 -0.0142,0.141651 -0.0435,0.26846 -0.0651,0.281802 -0.0216,0.01334 -0.0393,0.07213 -0.0393,0.13065 0,0.05852 -0.0167,0.116696 -0.037,0.129283 -0.0204,0.01259 -0.0622,0.1394 -0.093,0.281802 -0.0731,0.338457 -0.1224,0.565618 -0.18239,0.840488 -0.0664,0.304255 -0.13457,0.893149 -0.16277,1.406092 -0.0235,0.426844 -0.11585,0.787388 -0.2952,1.152051 -0.0903,0.1835 -0.33939,0.440123 -0.65946,0.679282 -0.0822,0.06142 -0.20114,0.153099 -0.26432,0.203738 -0.0632,0.05064 -0.20532,0.144322 -0.31587,0.208182 -0.11055,0.06386 -0.26003,0.178202 -0.33219,0.254095 -0.0721,0.07589 -0.16608,0.137984 -0.20873,0.137984 -0.1066,0 -0.35096,0.253233 -0.3589,0.371935 -0.025,0.374423 0.0644,0.546072 0.36383,0.698417 0.60116,0.305841 0.91877,0.472568 0.93799,0.492414 0.0123,0.01267 0.0826,0.05282 0.15634,0.08922 0.0737,0.0364 0.28738,0.172043 0.47486,0.301433 0.18747,0.129386 0.37057,0.235246 0.40688,0.235246 0.0363,0 0.15427,0.07613 0.26213,0.16918 0.10787,0.09305 0.33683,0.272337 0.50879,0.398422 0.38568,0.282775 0.48375,0.387889 0.78317,0.839398 0.13033,0.196533 0.24913,0.367383 0.26399,0.379666 0.0149,0.01228 0.0768,0.117808 0.13753,0.2345 0.0608,0.116692 0.1256,0.212166 0.14407,0.212166 0.0185,0 0.0336,0.03055 0.0336,0.06789 0,0.03734 0.0502,0.14749 0.11166,0.244778 0.0614,0.09729 0.11167,0.188444 0.11167,0.202563 0,0.01412 0.0847,0.150192 0.18814,0.302389 0.10347,0.152193 0.32132,0.534405 0.4841,0.849359 0.16278,0.314958 0.32434,0.606689 0.35903,0.648291 0.0347,0.04161 0.0927,0.135666 0.12897,0.209022 0.0362,0.07336 0.16187,0.278193 0.27917,0.455189 0.11729,0.177001 0.21326,0.338158 0.21326,0.358133 0,0.01998 0.0503,0.110264 0.11166,0.200647 0.0614,0.09038 0.11167,0.192969 0.11167,0.22797 0,0.035 0.0956,0.211943 0.21234,0.393205 0.11679,0.181261 0.2406,0.384499 0.27514,0.451642 0.0345,0.06714 0.0948,0.157593 0.13383,0.201 0.0391,0.04341 0.10056,0.139221 0.13666,0.212921 0.0361,0.0737 0.12105,0.217339 0.18878,0.319197 0.0677,0.101858 0.15493,0.282758 0.19376,0.402 0.21889,0.672206 0.72157,1.380878 1.22538,1.727509 0.11125,0.07655 0.27267,0.210152 0.35869,0.2969 0.20916,0.210911 0.63695,0.598354 0.96288,0.872049 0.14604,0.122641 0.36604,0.315512 0.48887,0.428603 0.12283,0.113087 0.29113,0.263993 0.374,0.335344 0.0829,0.07135 0.37999,0.35522 0.66027,0.630818 0.28029,0.275598 0.58434,0.536286 0.67567,0.579304 0.20218,0.09523 0.81373,0.678143 0.81373,0.775619 0,0.03858 0.0352,0.109107 0.0782,0.15673 0.13649,0.151201 0.31723,0.437872 0.39253,0.622591 0.0401,0.09827 0.12349,0.289216 0.18541,0.424333 0.0619,0.135117 0.13058,0.290892 0.15258,0.346167 0.0985,0.247564 0.14244,0.351477 0.17919,0.423725 0.0217,0.04266 0.0395,0.104663 0.0395,0.137783 0,0.05355 0.24333,0.597269 0.35813,0.800217 0.0241,0.04266 0.0439,0.118308 0.0439,0.168107 0,0.0498 0.0181,0.125447 0.0403,0.168108 0.0222,0.04266 0.0643,0.168009 0.0937,0.278559 0.0294,0.11055 0.0715,0.235902 0.0937,0.278559 0.0222,0.04266 0.0403,0.116848 0.0403,0.164864 0,0.04802 0.0201,0.09973 0.0447,0.11491 0.0246,0.01518 0.0447,0.05797 0.0447,0.09509 0,0.03712 0.0623,0.158004 0.1384,0.268639 0.12524,0.182034 0.22109,0.374454 0.59263,1.189763 0.0647,0.141986 0.11764,0.296578 0.11764,0.343531 0,0.04696 0.0201,0.0978 0.0447,0.11298 0.0246,0.01518 0.0447,0.06689 0.0447,0.114909 0,0.04802 0.0178,0.122204 0.0395,0.164865 0.0217,0.04266 0.0642,0.137859 0.0945,0.211559 0.0303,0.0737 0.0728,0.168903 0.0945,0.211559 0.0217,0.04266 0.0395,0.09816 0.0395,0.12332 0,0.02517 0.0386,0.130967 0.0858,0.235108 0.0472,0.10414 0.13872,0.420496 0.20343,0.703013 0.1056,0.461026 0.11666,0.59148 0.10791,1.272999 -0.0109,0.851695 -0.0532,1.036414 -0.40368,1.764333 -0.27487,0.570902 -0.32291,0.707171 -0.39649,1.124831 -0.0298,0.168965 -0.0361,0.32403 -0.0146,0.357333 0.0345,0.05337 0.061,0.534557 0.13095,2.376837 0.0154,0.406485 0.007,0.63692 -0.0235,0.667767 -0.0259,0.0259 -0.0471,0.09214 -0.0471,0.147194 0,0.05505 -0.0201,0.11252 -0.0447,0.127702 -0.10874,0.06721 -0.0343,1.253083 0.0946,1.506892 0.0217,0.04266 0.0394,0.124066 0.0394,0.1809 0,0.05684 0.0219,0.125227 0.0486,0.151978 0.034,0.034 0.0393,0.335742 0.0177,1.002766 -0.017,0.524771 -0.0376,2.356118 -0.0458,4.069658 -0.008,1.71355 -0.0192,3.1708 -0.0244,3.23834 -0.0335,0.42861 0.10765,0.59139 0.59112,0.68185 0.28197,0.0528 0.34863,0.0839 0.47122,0.22019 0.24015,0.267 0.44753,0.74251 0.68283,1.56575 0.0316,0.11055 0.0776,0.27135 0.10227,0.35734 0.0941,0.32813 0.27208,0.71204 0.3877,0.83615 0.0414,0.0444 0.14923,0.21306 0.23966,0.37476 0.18128,0.32417 0.21117,0.57834 0.11172,0.95017 -0.0412,0.15413 -0.0402,0.26856 0.005,0.52548 0.13672,0.77958 0.22446,0.86412 0.9517,0.91689 0.29099,0.0211 0.30682,0.0285 0.48017,0.22547 0.0986,0.11201 0.17926,0.23124 0.17926,0.26497 0,0.0337 0.0197,0.0962 0.0437,0.13888 0.10889,0.19299 0.31207,0.91651 0.3542,1.26122 0.0255,0.20882 0.0674,0.55052 0.0932,0.75934 0.0257,0.20881 0.068,0.48016 0.0939,0.603 0.0921,0.43601 0.14182,1.52673 0.0893,1.95973 -0.094,0.77537 -0.11722,0.89469 -0.22726,1.16693 -0.0199,0.0491 -0.0614,0.15968 -0.0923,0.24567 -0.0309,0.086 -0.20618,0.46292 -0.38951,0.83764 -0.35968,0.7352 -0.66291,1.12983 -1.06178,1.38182 -0.10929,0.0691 -0.19874,0.14061 -0.19879,0.15904 0,0.0184 -0.0391,0.0335 -0.0868,0.0335 -0.0477,0 -0.0978,0.018 -0.11139,0.0399 -0.0447,0.0723 -0.43013,0.11297 -1.28365,0.13556 -0.18657,0.005 -0.36262,0.21578 -0.43188,0.51726 -0.0766,0.33356 -0.1466,0.43685 -0.44546,0.65763 l -0.24342,0.17982 -0.40725,-0.0235 c -0.41031,-0.0236 -0.56783,-0.0701 -1.16659,-0.34406 -0.1474,-0.0674 -0.3484,-0.14857 -0.44666,-0.18026 -0.0983,-0.0317 -0.26521,-0.13355 -0.37098,-0.22635 -0.26972,-0.23664 -0.52088,-0.31699 -0.74743,-0.23911 -0.19624,0.0675 -0.3174,0.20335 -0.34421,0.38606 -0.0386,0.26287 0.0161,0.38187 0.31716,0.69069 0.29034,0.29779 0.54246,0.69954 0.54246,0.86441 0,0.0454 0.0201,0.095 0.0447,0.11018 0.0852,0.0526 0.0512,0.46833 -0.0498,0.61023 -0.18282,0.25675 -0.0998,0.71325 0.15062,0.82786 0.15556,0.0712 0.41132,0.14757 0.49421,0.14757 0.0412,0 0.075,0.0201 0.075,0.0447 0,0.0246 0.0287,0.0447 0.0637,0.0447 0.0351,0 0.12673,0.0754 0.20371,0.1675 0.1399,0.16743 0.13995,0.16767 0.11696,0.59183 -0.0127,0.23338 -0.0364,0.51304 -0.0528,0.62145 -0.0459,0.30376 0.18497,1.25455 0.30458,1.25455 0.0186,0 0.0338,0.039 0.0338,0.0867 0,0.0477 0.0201,0.0991 0.0447,0.1143 0.0246,0.0152 0.0447,0.0727 0.0447,0.1277 0,0.0551 0.0191,0.11919 0.0423,0.14253 0.0535,0.0536 0.13511,0.92423 0.12538,1.33777 -0.006,0.27113 0.0125,0.35421 0.14206,0.62533 0.12622,0.26413 0.15269,0.37596 0.17057,0.72036 0.0199,0.38307 0.0138,0.4203 -0.10109,0.6163 -0.10536,0.17979 -0.12138,0.25345 -0.11596,0.53337 0.003,0.17864 0.0251,0.39053 0.0482,0.47089 0.0485,0.16899 0.11899,1.04601 0.18171,2.25975 0.0241,0.46676 0.0651,1.06976 0.0911,1.34 0.0722,0.75053 -0.006,2.54038 -0.13456,3.082 -0.2455,1.03395 -0.33898,1.52063 -0.45043,2.34499 -0.0249,0.18425 -0.0572,0.42055 -0.0717,0.52512 -0.0145,0.10456 -0.0444,0.20122 -0.0663,0.2148 -0.022,0.0136 -0.04,0.0826 -0.04,0.15342 0,0.0708 -0.018,0.13984 -0.04,0.15341 -0.022,0.0136 -0.0498,0.1002 -0.0619,0.19247 -0.0881,0.67403 -0.572,1.99898 -0.99938,2.73612 -0.0641,0.11055 -0.2074,0.37185 -0.31848,0.58066 -0.27744,0.52159 -0.29154,0.54577 -0.36276,0.62257 -0.0345,0.0372 -0.11057,0.1787 -0.16901,0.31439 -0.22894,0.53163 -0.18354,0.4376 -0.4534,0.93904 -0.24555,0.45625 -0.31982,0.61591 -0.31982,0.68754 0,0.0366 -0.0201,0.0789 -0.0447,0.0941 -0.0246,0.0152 -0.0447,0.0675 -0.0447,0.11617 0,0.0487 -0.0362,0.12743 -0.0805,0.17492 -0.0443,0.0475 -0.12155,0.16223 -0.17179,0.25497 -0.0502,0.0927 -0.13253,0.24086 -0.18288,0.32916 -0.0504,0.0883 -0.15631,0.30941 -0.23546,0.49134 -0.24329,0.55919 -0.31821,0.72774 -0.38336,0.86246 -0.0345,0.0713 -0.0627,0.15703 -0.0627,0.19045 0,0.0334 -0.0185,0.0956 -0.041,0.1383 -0.0226,0.0427 -0.1431,0.28861 -0.26786,0.54656 -0.12476,0.25795 -0.2565,0.51925 -0.29276,0.58067 -0.0363,0.0614 -0.10902,0.21216 -0.16168,0.335 -0.12796,0.29843 -0.54726,1.1459 -0.71824,1.45166 -0.29325,0.52444 -0.39443,0.7261 -0.39443,0.7862 0,0.0344 -0.0201,0.0625 -0.0447,0.0625 -0.0246,0 -0.0447,0.0402 -0.0447,0.0893 0,0.0491 -0.0152,0.0893 -0.0338,0.0893 -0.0186,0 -0.0605,0.0653 -0.0931,0.14517 -0.0326,0.0798 -0.0757,0.18537 -0.0958,0.2345 -0.0201,0.0491 -0.0787,0.18459 -0.13025,0.30101 -0.0516,0.11643 -0.0938,0.23332 -0.0938,0.25976 0,0.0265 -0.0704,0.20035 -0.15633,0.38645 -0.086,0.1861 -0.15633,0.35703 -0.15633,0.37986 0,0.0228 -0.0603,0.12913 -0.134,0.23625 -0.0737,0.10712 -0.134,0.21378 -0.134,0.23702 0,0.0232 -0.12183,0.27912 -0.27073,0.56863 -0.1489,0.28951 -0.32059,0.67892 -0.38154,0.86536 -0.0609,0.18645 -0.12738,0.37919 -0.14763,0.42833 -0.1098,0.26643 -0.15232,0.3648 -0.18798,0.43489 -0.0217,0.0427 -0.0394,0.10826 -0.0394,0.14577 0,0.0375 -0.0178,0.10312 -0.0395,0.14578 -0.0373,0.0733 -0.0883,0.19415 -0.17885,0.42372 -0.0218,0.0553 -0.11376,0.37185 -0.20434,0.7035 -0.0906,0.33165 -0.1833,0.6379 -0.20603,0.68056 -0.0227,0.0427 -0.0413,0.11685 -0.0413,0.16487 0,0.048 -0.0201,0.0997 -0.0447,0.11491 -0.0246,0.0152 -0.0447,0.0755 -0.0447,0.134 0,0.0585 -0.0201,0.11881 -0.0447,0.134 -0.0246,0.0152 -0.0447,0.0857 -0.0447,0.15678 0,0.0711 -0.0324,0.24575 -0.072,0.3882 -0.0396,0.14246 -0.0821,0.31454 -0.0945,0.38239 -0.0124,0.0679 -0.0402,0.13437 -0.062,0.14781 -0.0217,0.0134 -0.0395,0.0695 -0.0395,0.12452 0,0.055 -0.0181,0.11919 -0.0403,0.14253 -0.0732,0.0771 -0.31703,0.87372 -0.31703,1.0358 0,0.0725 -0.19839,0.75469 -0.26968,0.9273 -0.0454,0.10982 -0.0775,0.2957 -0.13122,0.75933 -0.0228,0.19653 -0.064,0.44778 -0.0915,0.55833 -0.0275,0.11055 -0.0609,0.26652 -0.0741,0.34659 -0.0132,0.0801 -0.0419,0.15662 -0.0638,0.17013 -0.0219,0.0135 -0.0397,0.0696 -0.0397,0.12465 0,0.0551 -0.0166,0.11919 -0.0369,0.14253 -0.0203,0.0233 -0.0632,0.13289 -0.0953,0.24344 -0.13699,0.47126 -0.292,0.88167 -0.38859,1.02883 -0.057,0.0868 -0.13485,0.2677 -0.17307,0.402 -0.0382,0.13429 -0.0914,0.29442 -0.1181,0.35583 -0.0869,0.19951 -0.11935,0.28768 -0.16449,0.44667 -0.14378,0.50646 -0.25372,0.86048 -0.34709,1.11761 -0.0582,0.16021 -0.10577,0.32484 -0.10577,0.36587 0,0.041 -0.0201,0.087 -0.0447,0.10218 -0.0246,0.0152 -0.0447,0.0755 -0.0447,0.134 0,0.0585 -0.0179,0.11745 -0.0397,0.13095 -0.0219,0.0135 -0.0506,0.0901 -0.0638,0.17014 -0.0385,0.23287 -0.0792,0.40686 -0.11749,0.50291 -0.049,0.12292 -0.2267,0.51903 -0.27518,0.61356 -0.0219,0.0427 -0.0398,0.11402 -0.0398,0.15857 0,0.0446 -0.0174,0.1001 -0.0386,0.12344 -0.0772,0.0848 -0.14298,0.59637 -0.11356,0.88346 0.0262,0.25519 0.0187,0.30119 -0.0632,0.38906 -0.18281,0.19622 -0.17715,0.53157 0.0122,0.72082 0.1507,0.15065 0.47661,0.23785 0.65566,0.17543 0.21959,-0.0765 0.37118,-0.0594 0.47775,0.054 0.10993,0.11702 0.1234,0.2968 0.0498,0.66492 -0.0568,0.28417 -0.0861,0.34834 -0.38804,0.84952 -0.12905,0.21423 -0.23464,0.41301 -0.23464,0.44175 0,0.0287 0.0346,0.0775 0.0768,0.10841 0.0646,0.0472 0.10542,0.0364 0.25683,-0.068 0.099,-0.0683 0.21832,-0.16674 0.26512,-0.21873 0.0468,-0.052 0.1085,-0.0945 0.13713,-0.0945 0.0286,0 0.1319,-0.0684 0.22951,-0.15191 0.20046,-0.17159 0.4822,-0.33942 0.56978,-0.33942 0.10893,0 0.51949,0.51197 0.51949,0.6478 0,0.0964 -0.19016,0.27359 -0.61999,0.57776 -0.18719,0.13246 -0.38054,0.27827 -0.42968,0.32402 -0.0491,0.0457 -0.15968,0.13199 -0.24566,0.19166 -0.30701,0.21302 -0.59184,0.57134 -0.71075,0.89409 -0.0317,0.086 -0.0736,0.19653 -0.0931,0.24566 -0.0372,0.0937 -0.0983,0.3908 -0.17679,0.85984 -0.0257,0.15354 -0.0695,0.39945 -0.0973,0.54647 -0.0278,0.14702 -0.036,0.343 -0.0181,0.4355 0.0179,0.0925 0.052,0.26869 0.0757,0.39153 0.0238,0.12283 0.061,0.39418 0.0828,0.603 0.0218,0.20881 0.0608,0.47514 0.0866,0.59183 0.0258,0.11669 0.068,0.30764 0.0937,0.42433 0.0257,0.11669 0.0645,0.32272 0.0861,0.45784 0.0486,0.30379 0.10049,0.47413 0.20473,0.6726 0.0642,0.1223 0.0847,0.29073 0.0999,0.82373 0.0181,0.62985 0.027,0.68606 0.14983,0.938 0.23408,0.48028 0.57525,0.9245 0.80542,1.04872 0.63503,0.3427 1.05047,0.85046 1.23422,1.50844 0.0292,0.10441 0.078,0.27526 0.10858,0.37967 0.0313,0.10689 0.054,0.41427 0.0521,0.7035 -0.003,0.44942 -0.0163,0.53597 -0.10557,0.69201 -0.12961,0.22643 -0.13466,0.49882 -0.0157,0.84899 0.15356,0.45216 0.18802,0.61177 0.21216,0.98267 0.0128,0.19653 0.0417,0.45783 0.0642,0.58066 0.0225,0.12284 0.0617,0.33389 0.087,0.469 0.0253,0.13512 0.12794,0.49692 0.228,0.804 0.1294,0.39713 0.19499,0.69375 0.22719,1.02733 0.0413,0.42828 0.11065,0.85068 0.22726,1.38467 0.11753,0.53824 0.13864,0.69645 0.17878,1.34 0.0238,0.38078 0.063,0.99383 0.0873,1.36233 0.0242,0.3685 0.062,1.1323 0.0839,1.69734 0.0219,0.56503 0.0645,1.23838 0.0947,1.49633 0.0613,0.52362 0.064,0.98463 0.0188,3.216 -0.02,0.9885 -0.0489,1.57303 -0.0807,1.63033 -0.0329,0.0592 -0.052,0.54926 -0.0566,1.45167 -0.004,0.74928 -0.0317,1.72413 -0.0619,2.16633 -0.0302,0.4422 -0.0715,1.33665 -0.0919,1.98766 -0.0374,1.19782 -0.0666,1.54662 -0.13662,1.63367 -0.0212,0.0264 -0.0612,0.29775 -0.0888,0.603 -0.0326,0.36051 -0.11243,0.79607 -0.2278,1.24292 -0.26244,1.01642 -0.34123,1.49468 -0.39446,2.39408 -0.0204,0.34393 -0.0591,0.75598 -0.0861,0.91566 -0.027,0.15969 -0.0692,0.59184 -0.0938,0.96034 -0.0246,0.3685 -0.0537,0.78055 -0.0647,0.91566 -0.011,0.13512 -0.0426,0.92264 -0.0701,1.75005 -0.0558,1.6766 -0.0357,1.91239 0.18161,2.12951 0.11589,0.11583 0.43412,0.22977 0.64167,0.22977 0.0726,0 0.20174,0.10258 0.41947,0.33324 0.43779,0.46378 0.4946,0.64794 0.66193,2.14576 0.0384,0.34394 0.0882,0.96704 0.11069,1.38467 0.0446,0.82949 0.0753,1.0822 0.136,1.11972 0.0219,0.0135 0.0397,0.0636 0.0397,0.11125 0,0.0477 0.0201,0.0867 0.0447,0.0867 0.0246,0 0.0447,0.0263 0.0447,0.0586 0,0.0322 0.036,0.0975 0.08,0.14517 0.11485,0.12424 0.52275,1.41289 0.63536,2.00725 0.0612,0.32289 0.0315,3.30685 -0.0367,3.685 -0.0243,0.13512 -0.0593,0.32607 -0.0777,0.42434 -0.0184,0.0983 -0.0691,0.22972 -0.1126,0.29212 -0.18023,0.25835 -0.32553,0.8723 -0.38539,1.62854 -0.0117,0.1474 -0.0396,0.2871 -0.0621,0.31044 -0.0225,0.0233 -0.0409,0.08 -0.0409,0.12602 0,0.1604 -0.10999,0.21121 -0.45727,0.21121 -0.36768,0 -0.42897,0.0303 -0.56654,0.28052 -0.0825,0.15005 -0.0928,0.24424 -0.0928,0.8455 0,0.39971 -0.0211,0.73506 -0.0516,0.81938 -0.0447,0.12371 -0.0398,0.15538 0.0367,0.23751 0.10536,0.11309 0.2106,0.12309 0.59561,0.0566 0.64197,-0.11089 2.16748,-0.0474 2.76933,0.11523 0.26205,0.0708 0.63792,0.23634 0.66256,0.29178 0.008,0.0184 0.0383,0.0335 0.067,0.0335 0.12495,0 0.60876,0.60692 0.61143,0.76685 5.4e-4,0.0327 0.0403,0.10968 0.0883,0.1711 0.0545,0.0696 0.0877,0.18217 0.0883,0.29886 5.3e-4,0.10296 0.0211,0.19962 0.0457,0.2148 0.0246,0.0152 0.0447,0.1028 0.0447,0.19471 0,0.0919 0.0182,0.18619 0.0405,0.20953 0.07,0.0732 0.1013,0.4974 0.12156,1.64667 0.0129,0.73277 0.004,1.12868 -0.0266,1.1591 -0.0254,0.0254 -0.0462,0.0805 -0.0462,0.12237 0,0.0678 -0.16597,0.42937 -0.22341,0.48662 -0.0123,0.0123 -0.0516,0.0789 -0.0873,0.14806 -0.0357,0.0692 -0.11918,0.1797 -0.18557,0.24567 -0.1863,0.18511 -0.39585,0.3656 -0.42447,0.3656 -0.0142,0 -0.0792,0.0366 -0.1444,0.0814 -0.16683,0.11454 -0.55021,0.2704 -0.80017,0.32528 -0.52277,0.1148 -0.75708,0.13828 -1.58428,0.1588 -1.01725,0.0252 -1.70765,-0.0284 -1.89543,-0.14722 -0.1321,-0.0836 -0.81672,-0.7732 -0.98015,-0.98728 -0.16833,-0.2205 -0.46418,-0.82019 -0.46487,-0.94228 -8.9e-4,-0.15893 -0.10213,-0.44199 -0.18922,-0.52908 -0.0559,-0.0559 -0.12228,-0.0637 -0.32583,-0.0383 -0.30948,0.0387 -0.46694,0.16927 -0.46694,0.3873 0,0.17167 -0.10386,0.51883 -0.22855,0.76393 -0.0217,0.0427 -0.0394,0.11402 -0.0394,0.15857 0,0.0446 -0.0166,0.1001 -0.0369,0.12344 -0.0203,0.0233 -0.0646,0.13288 -0.0984,0.24343 -0.0338,0.11055 -0.10264,0.27591 -0.15293,0.36746 -0.1827,0.33256 -0.66402,0.89326 -0.86363,1.00604 -0.32176,0.18181 -0.59948,0.27949 -1.03682,0.36467 -0.13511,0.0263 -0.41651,0.0811 -0.62533,0.12163 -0.21029,0.0409 -0.62154,0.0759 -0.92186,0.0785 -0.47962,0.004 -0.55339,-0.005 -0.63918,-0.0828 -0.0829,-0.0748 -0.19281,-0.0923 -0.75454,-0.12023 -0.51151,-0.0255 -0.70517,-0.0531 -0.87201,-0.12465 -0.11797,-0.0506 -0.24993,-0.0919 -0.29325,-0.0919 -0.20912,0 -0.67874,-0.41305 -1.00816,-0.88669 -0.0737,-0.10598 -0.19932,-0.28165 -0.27916,-0.39038 -0.0798,-0.10873 -0.14517,-0.2138 -0.14517,-0.23348 0,-0.0197 -0.0854,-0.13705 -0.18983,-0.26083 -0.28573,-0.33871 -0.4558,-0.55801 -0.47563,-0.61333 -0.01,-0.0273 -0.0751,-0.13364 -0.14516,-0.23634 -0.0701,-0.10269 -0.12738,-0.20378 -0.12738,-0.22463 0,-0.0209 -0.0402,-0.0669 -0.0893,-0.10232 -0.0491,-0.0354 -0.0893,-0.0861 -0.0893,-0.11262 0,-0.0745 -0.10757,-0.28864 -0.14516,-0.28903 -0.0184,0 -0.0335,-0.0324 -0.0335,-0.0716 0,-0.0392 -0.0416,-0.12965 -0.0924,-0.201 -0.088,-0.12364 -0.10825,-0.12973 -0.43058,-0.12973 -0.3992,0 -0.45612,0.0454 -0.45829,0.36587 -8e-4,0.11524 -0.0215,0.22195 -0.0461,0.23713 -0.0246,0.0152 -0.0447,0.0755 -0.0447,0.134 0,0.0585 -0.0201,0.11882 -0.0447,0.134 -0.0246,0.0152 -0.0447,0.074 -0.0447,0.13068 0,0.0567 -0.10251,0.31179 -0.2278,0.56687 -0.19492,0.39685 -0.27941,0.51374 -0.58539,0.80995 -0.19668,0.19039 -0.38589,0.34617 -0.42047,0.34617 -0.0346,0 -0.0978,0.0183 -0.14044,0.0407 -0.22157,0.11633 -0.60911,0.14379 -1.75256,0.12416 -0.65102,-0.0112 -1.30427,-0.0438 -1.45167,-0.0724 -0.1474,-0.0286 -0.35239,-0.0631 -0.45553,-0.0766 -0.16226,-0.0212 -0.23167,-0.0706 -0.51502,-0.36639 -0.18012,-0.18802 -0.41286,-0.45497 -0.51721,-0.59322 -0.22133,-0.29325 -0.54457,-0.89952 -0.54457,-1.0214 0,-0.0464 -0.0201,-0.0967 -0.0447,-0.1119 -0.0246,-0.0152 -0.0447,-0.1028 -0.0447,-0.1947 0,-0.0919 -0.0208,-0.18789 -0.0462,-0.2133 -0.0511,-0.0511 -0.0331,-2.14118 0.021,-2.45067 0.04,-0.22882 0.37604,-0.91087 0.481,-0.97642 0.10886,-0.068 0.101,-0.19295 -0.0161,-0.2556 -0.10575,-0.0566 -0.89345,-0.0221 -1.1321,0.0497 -0.0737,0.0222 -0.18556,0.0505 -0.24859,0.0629 -0.063,0.0125 -0.16353,0.0652 -0.22334,0.11708 -0.0996,0.0865 -0.10804,0.12394 -0.10052,0.44531 0.005,0.19299 0.0297,0.39093 0.0558,0.43986 0.0619,0.1157 0.062,0.86656 0,0.92846 -0.0843,0.0843 0.006,1.43514 0.11215,1.67858 0.0348,0.0797 -0.0414,0.77104 -0.10711,0.97181 -0.0201,0.0614 -0.0625,0.20212 -0.0941,0.31267 -0.0317,0.11055 -0.0742,0.22009 -0.0945,0.24343 -0.0203,0.0233 -0.0369,0.10903 -0.0369,0.19044 0,0.0814 -0.0187,0.1829 -0.0415,0.22557 -0.0228,0.0427 -0.12421,0.25169 -0.22528,0.46453 -0.10106,0.21284 -0.21302,0.41127 -0.24881,0.44097 -0.0358,0.0297 -0.065,0.0725 -0.065,0.0952 0,0.0912 -0.23752,0.27249 -0.58067,0.44321 -0.72791,0.36216 -0.99388,0.47857 -1.20747,0.52849 -0.25344,0.0592 -0.30039,0.0581 -1.8522,-0.0464 -0.89995,-0.0606 -2.01323,-0.0696 -2.31435,-0.0188 -0.19076,0.0322 -0.23613,0.0637 -0.402,0.27927 -0.30383,0.39485 -0.57702,0.68548 -0.76764,0.81667 -0.24396,0.16787 -0.56422,0.35595 -0.65884,0.38692 -0.043,0.0141 -0.0782,0.0433 -0.0782,0.065 0,0.0217 -0.0294,0.0395 -0.0654,0.0395 -0.036,0 -0.1602,0.0529 -0.27604,0.11759 -0.33161,0.18514 -1.01689,0.39218 -1.54225,0.46596 -0.18001,0.0253 -0.45794,0.0659 -0.61763,0.0904 -0.15968,0.0244 -0.42098,0.05 -0.58066,0.0568 -0.15969,0.007 -0.33054,0.0342 -0.37967,0.0608 -0.0491,0.0267 -0.17978,0.0728 -0.29033,0.10265 -0.11055,0.0298 -0.25125,0.07 -0.31267,0.0894 -0.18158,0.0572 -1.96027,0.0255 -2.18866,-0.0389 -0.11055,-0.0312 -0.26095,-0.0685 -0.33422,-0.0829 -0.0733,-0.0144 -0.1995,-0.0634 -0.28052,-0.10892 -0.081,-0.0455 -0.17765,-0.0827 -0.21472,-0.0827 -0.10737,0 -0.50473,-0.28732 -0.62547,-0.45225 -0.10366,-0.14162 -0.25068,-0.31411 -0.7339,-0.86106 -0.29951,-0.339 -0.41039,-0.50702 -0.72423,-1.09741 l -0.12991,-0.2444 0.0238,-0.73827 c 0.0305,-0.94595 0.0676,-1.3974 0.11934,-1.4507 0.0227,-0.0233 0.0412,-0.11763 0.0412,-0.20954 0,-0.0919 0.0178,-0.17807 0.0395,-0.19149 0.0622,-0.0384 0.22852,-0.41665 0.22852,-0.51958 0,-0.13949 -0.0496,-0.17676 -0.49133,-0.36884 -0.2377,-0.10337 -0.9377,-0.34823 -1.139,-0.39842 -0.0983,-0.0245 -0.21357,-0.0623 -0.25623,-0.0839 -0.0427,-0.0217 -0.11685,-0.0394 -0.16486,-0.0394 -0.048,0 -0.0997,-0.0201 -0.11491,-0.0447 -0.0152,-0.0246 -0.0928,-0.0447 -0.17237,-0.0447 -0.0796,0 -0.16405,-0.0193 -0.18763,-0.0429 -0.0236,-0.0236 -0.17848,-0.0466 -0.34423,-0.0512 -0.25857,-0.007 -0.31318,0.005 -0.38448,0.0875 -0.0736,0.0848 -0.12956,0.0958 -0.4884,0.0958 -0.2229,0 -0.41771,0.0201 -0.43289,0.0447 -0.0152,0.0246 -0.1219,0.0453 -0.23714,0.0461 -0.11524,7.6e-4 -0.24921,0.0314 -0.29771,0.0681 -0.0665,0.0503 -0.15124,0.0595 -0.34502,0.0376 -0.45907,-0.0519 -1.47144,0.1598 -1.50232,0.31422 -0.008,0.0409 0.009,0.10348 0.039,0.13914 0.0596,0.0718 0.31341,0.0868 0.43433,0.0257 0.2971,-0.1501 0.89957,-0.19059 1.05759,-0.0711 0.0477,0.0361 0.12809,0.0657 0.17867,0.0659 0.0506,0 0.14953,0.0303 0.2199,0.067 0.0704,0.0367 0.16584,0.0667 0.21217,0.0667 0.0463,0 0.0842,0.0169 0.0842,0.0377 0,0.0207 0.0955,0.0834 0.21216,0.13935 0.54708,0.26227 0.85885,0.42965 1.1055,0.5935 0.27959,0.18574 0.64767,0.51606 0.64767,0.58122 0,0.0208 0.0602,0.10203 0.13379,0.18054 0.0736,0.0785 0.13389,0.18395 0.134,0.23431 0,0.0504 0.0186,0.11066 0.041,0.134 0.0586,0.0609 0.22597,0.5804 0.27993,0.86876 0.0761,0.40696 0.0933,0.98803 0.0349,1.1833 -0.0294,0.0985 -0.10141,0.32494 -0.15992,0.50326 -0.0585,0.17833 -0.10637,0.36024 -0.10637,0.40424 0,0.044 -0.0166,0.0991 -0.0369,0.12244 -0.0203,0.0233 -0.063,0.12556 -0.0948,0.22717 -0.0318,0.1016 -0.11569,0.25235 -0.18633,0.335 -0.0706,0.0826 -0.12856,0.17036 -0.12873,0.19493 -8e-4,0.11482 -0.51969,0.60807 -0.92038,0.87488 -0.58901,0.3922 -0.90513,0.58797 -1.06719,0.6609 -0.19833,0.0893 -0.23677,0.10878 -0.61025,0.30994 -0.39355,0.21198 -0.67791,0.31903 -0.84995,0.31996 -0.0661,4.4e-4 -0.13262,0.0207 -0.1478,0.0453 -0.0176,0.0284 -0.61747,0.0447 -1.65267,0.0447 -1.035188,0 -1.635074,-0.0162 -1.65266,-0.0447 z m 18.61368,-19.97136 c 0.0514,-0.0275 0.16237,-0.11294 0.24658,-0.18983 0.0842,-0.0769 0.18655,-0.15347 0.22742,-0.17017 0.0409,-0.0167 0.37146,-0.0318 0.73463,-0.0335 0.61244,-0.003 0.6763,-0.0112 0.88068,-0.1148 0.1212,-0.0614 0.25057,-0.11167 0.28749,-0.11167 0.0369,0 0.1387,-0.0402 0.22618,-0.0893 0.0875,-0.0491 0.23381,-0.0902 0.32519,-0.0913 0.20274,-0.002 0.51576,-0.0844 0.72017,-0.18854 0.0836,-0.0426 0.18795,-0.0775 0.23186,-0.0775 0.0439,0 0.0923,-0.0201 0.10744,-0.0447 0.0152,-0.0246 0.0749,-0.0447 0.13268,-0.0447 0.19251,0 0.82637,-0.30425 0.99967,-0.47983 0.16854,-0.17077 0.36818,-0.30976 0.50915,-0.35447 0.043,-0.0136 0.0782,-0.0425 0.0782,-0.0642 0,-0.0217 0.0304,-0.0395 0.0676,-0.0395 0.0372,0 0.1025,-0.0188 0.14516,-0.0418 0.0427,-0.023 0.19816,-0.0955 0.34556,-0.1611 0.1474,-0.0656 0.35845,-0.15989 0.469,-0.20951 0.22916,-0.10286 0.31612,-0.1374 0.536,-0.2129 0.16539,-0.0568 0.31717,-0.11738 0.47641,-0.19018 0.13114,-0.0599 0.15648,-0.18904 0.0801,-0.40819 -0.0778,-0.22338 -0.085,-0.82507 -0.0118,-0.99636 0.0294,-0.0687 0.12033,-0.20936 0.20216,-0.31255 l 0.14881,-0.1876 0.65766,-0.0207 c 1.04627,-0.0329 1.05716,-0.0358 1.3835,-0.36669 0.15916,-0.16138 0.27917,-0.32233 0.27917,-0.37441 0,-0.0502 0.0154,-0.0913 0.0342,-0.0913 0.0188,0 0.0989,-0.0955 0.17796,-0.21217 0.48697,-0.71875 0.70617,-0.9045 1.06738,-0.9045 0.22894,0 0.24978,0.0103 0.49468,0.24567 0.14062,0.13512 0.26468,0.24567 0.2757,0.24567 0.0703,0 0.18339,-0.16791 0.18339,-0.27223 0,-0.0955 0.0731,-0.19512 0.3143,-0.42858 0.17286,-0.16731 0.34097,-0.36449 0.37359,-0.43819 0.0824,-0.1862 0.16078,-0.72223 0.16078,-1.09944 0,-0.35058 0.10719,-0.57556 0.27423,-0.57556 0.15779,0 0.2171,0.10894 0.2171,0.39881 0,0.21517 0.0192,0.29039 0.093,0.36416 0.0886,0.0885 0.097,0.0893 0.17867,0.0154 0.0471,-0.0427 0.0861,-0.12972 0.0867,-0.19347 5.3e-4,-0.0637 0.0403,-0.16616 0.0883,-0.22758 0.05,-0.064 0.0878,-0.18206 0.0883,-0.27653 5.4e-4,-0.0907 0.0187,-0.1758 0.0403,-0.18917 0.0416,-0.0257 0.0761,-0.14369 0.13811,-0.4723 0.0209,-0.11055 0.0917,-0.4422 0.15728,-0.737 0.0656,-0.2948 0.1365,-0.64655 0.15746,-0.78166 0.021,-0.13512 0.0619,-0.33612 0.0911,-0.44667 0.0837,-0.31756 0.13422,-1.58773 0.15741,-3.953 0.0139,-1.41743 0.006,-2.22015 -0.0233,-2.278 -0.0246,-0.0491 -0.0546,-0.38078 -0.0665,-0.737 -0.012,-0.35621 -0.043,-0.85871 -0.069,-1.11666 -0.11153,-1.10648 -0.13561,-1.47535 -0.17635,-2.70234 -0.0237,-0.71243 -0.0636,-1.43603 -0.0887,-1.608 -0.0251,-0.17196 -0.0464,-0.76217 -0.0472,-1.31158 -0.001,-0.94994 -0.006,-1.00798 -0.10196,-1.18366 -0.0553,-0.10162 -0.1241,-0.20979 -0.15295,-0.2404 -0.0458,-0.0486 -0.21732,-0.39176 -0.32936,-0.65902 -0.0785,-0.18719 -0.0971,-0.55441 -0.135,-2.65767 -0.0215,-1.19148 -0.0547,-2.6517 -0.0738,-3.24493 -0.0312,-0.96919 -0.0434,-1.08812 -0.11984,-1.1725 -0.0491,-0.0541 -0.13976,-0.0939 -0.2142,-0.0939 -0.0749,0 -0.17042,-0.0422 -0.22758,-0.1005 -0.1557,-0.15891 -0.46209,-0.82068 -0.56353,-1.21716 -0.11448,-0.44746 -0.34295,-0.96522 -0.50056,-1.13439 -0.0462,-0.0496 -0.084,-0.11307 -0.084,-0.14102 0,-0.0279 -0.0359,-0.10415 -0.0798,-0.16936 -0.0439,-0.0652 -0.10861,-0.17887 -0.14384,-0.25257 -0.0352,-0.0737 -0.14565,-0.26465 -0.24539,-0.42433 -0.0997,-0.15968 -0.20716,-0.34169 -0.23872,-0.40445 -0.0316,-0.0628 -0.11135,-0.17331 -0.17733,-0.24566 -0.12435,-0.13638 -0.34796,-0.48084 -0.53026,-0.81685 -0.0579,-0.10668 -0.13496,-0.22369 -0.17129,-0.26003 -0.0363,-0.0363 -0.0661,-0.0833 -0.0661,-0.10434 0,-0.0211 -0.0251,-0.0653 -0.0558,-0.0984 -0.13888,-0.14956 -0.34617,-0.43676 -0.34617,-0.47963 0,-0.026 -0.0201,-0.0473 -0.0447,-0.0473 -0.0246,0 -0.0447,-0.0265 -0.0447,-0.059 0,-0.0324 -0.0661,-0.13795 -0.14682,-0.2345 -0.0808,-0.0965 -0.21523,-0.29042 -0.29885,-0.43084 -0.0836,-0.14041 -0.20844,-0.32131 -0.2774,-0.402 -0.069,-0.0807 -0.12543,-0.17182 -0.12549,-0.20253 0,-0.0307 -0.0202,-0.0558 -0.0448,-0.0558 -0.0246,0 -0.0447,-0.0402 -0.0447,-0.0893 0,-0.0491 -0.0201,-0.0893 -0.0447,-0.0893 -0.0246,0 -0.0447,-0.0195 -0.0447,-0.0434 0,-0.0239 -0.0905,-0.19637 -0.201,-0.38335 -0.11055,-0.18699 -0.201,-0.34978 -0.201,-0.36175 0,-0.012 -0.0559,-0.10578 -0.1242,-0.20847 -0.0683,-0.10269 -0.15312,-0.24701 -0.18847,-0.32071 -0.0599,-0.12495 -0.28478,-0.47961 -0.36815,-0.58067 -0.0374,-0.0453 -0.28341,-0.45161 -0.44631,-0.737 -0.0491,-0.086 -0.10197,-0.16638 -0.11755,-0.17867 -0.0309,-0.0244 -0.12828,-0.20191 -0.46538,-0.84866 -0.12165,-0.23339 -0.28915,-0.55181 -0.37223,-0.70761 -0.0831,-0.1558 -0.15104,-0.31158 -0.15104,-0.34617 0,-0.0346 -0.0154,-0.0629 -0.0341,-0.0629 -0.0188,0 -0.0678,-0.0778 -0.109,-0.1728 -0.0412,-0.095 -0.10161,-0.20057 -0.1343,-0.2345 -0.0327,-0.0339 -0.12397,-0.16336 -0.20282,-0.28761 -0.0789,-0.12425 -0.19401,-0.27348 -0.2559,-0.33162 -0.0619,-0.0581 -0.11252,-0.13174 -0.11252,-0.16356 0,-0.0318 -0.0402,-0.12943 -0.0893,-0.21691 -0.0491,-0.0875 -0.0893,-0.19674 -0.0893,-0.2428 0,-0.0461 -0.0386,-0.16103 -0.0857,-0.25548 -0.12652,-0.25359 -0.58415,-1.22616 -0.63776,-1.35538 -0.0255,-0.0614 -0.0641,-0.14657 -0.0858,-0.18923 -0.0217,-0.0427 -0.0395,-0.13412 -0.0395,-0.20323 0,-0.0691 -0.0223,-0.14795 -0.0495,-0.17517 -0.0313,-0.0313 -0.0387,-0.12893 -0.0202,-0.26576 0.0794,-0.58632 0.0793,-0.82394 -4.4e-4,-0.91206 -0.0952,-0.10515 -0.14462,-0.10751 -0.2502,-0.012 -0.0666,0.0602 -0.0817,0.14215 -0.0817,0.44244 0,0.41525 -0.0963,0.66461 -0.3061,0.79261 -0.15333,0.0935 -0.54254,0.4567 -0.54267,0.50635 0,0.0211 -0.0603,0.10869 -0.1339,0.19467 -0.0736,0.086 -0.13384,0.19032 -0.1339,0.23187 0,0.0415 -0.0221,0.0891 -0.049,0.10572 -0.0548,0.0339 -0.0338,0.2602 0.0495,0.53341 0.03,0.0983 0.0639,0.27109 0.0754,0.38405 0.02,0.19652 0.0127,0.21244 -0.16962,0.3685 -0.10481,0.0897 -0.22403,0.16312 -0.26493,0.16312 -0.0409,0 -0.10756,0.0367 -0.14812,0.0815 -0.069,0.0763 -0.0652,0.0983 0.0601,0.34318 0.20784,0.40639 0.18133,0.79006 -0.0766,1.10859 -0.12933,0.15971 -0.12837,0.17487 0.0224,0.35235 0.19112,0.22503 0.41139,0.76221 0.41139,1.00329 0,0.0787 0.0201,0.15558 0.0447,0.17076 0.0246,0.0152 0.0447,0.0858 0.0447,0.15687 0,0.0711 0.0233,0.18029 0.0517,0.24265 0.0352,0.0773 0.0377,0.14459 0.008,0.21134 -0.0419,0.0938 0.0485,0.32247 0.3709,0.93887 0.22944,0.43862 0.36001,0.92529 0.39908,1.48761 0.0243,0.34928 0.0874,0.59837 0.20683,0.81652 0.0441,0.0806 0.0802,0.17634 0.0802,0.21277 0,0.0364 0.0179,0.10115 0.0398,0.14381 0.0219,0.0427 0.0844,0.17806 0.13888,0.30089 0.0545,0.12284 0.11701,0.25824 0.13889,0.3009 0.0601,0.11719 0.0485,0.99262 -0.015,1.1375 -0.0565,0.12869 -0.24977,0.32579 -0.31961,0.32588 -0.0217,4e-5 -0.0719,0.0355 -0.11166,0.0787 -0.0397,0.0433 -0.14764,0.13475 -0.23979,0.2033 -0.0922,0.0686 -0.19621,0.18009 -0.23125,0.24785 -0.0601,0.11623 -0.0554,0.13373 0.084,0.3098 0.14937,0.18876 0.28295,0.49058 0.37963,0.85772 0.0291,0.11055 0.0717,0.26272 0.0946,0.33817 0.0229,0.0754 0.0416,0.24008 0.0416,0.36587 0,0.12578 0.0201,0.24111 0.0447,0.25629 0.0246,0.0152 0.0447,0.10564 0.0447,0.201 0,0.0954 0.0201,0.18582 0.0447,0.201 0.0246,0.0152 0.0447,0.0676 0.0447,0.11646 0,0.0489 0.0402,0.17206 0.0893,0.27376 0.0491,0.10169 0.0893,0.23187 0.0893,0.28929 0,0.0574 0.0703,0.24409 0.15633,0.41483 0.12856,0.25528 0.15634,0.35971 0.15634,0.58784 0,0.22334 -0.0189,0.29754 -0.0971,0.38077 -0.0534,0.0569 -0.13755,0.10339 -0.18696,0.10339 -0.11326,0 -0.29659,0.16883 -0.29659,0.27315 0,0.0434 -0.0201,0.0913 -0.0447,0.10651 -0.0271,0.0167 -0.0447,0.33993 -0.0447,0.82004 0,0.43584 -0.0185,0.81152 -0.0411,0.83486 -0.0226,0.0233 -0.0513,0.17308 -0.0638,0.33277 -0.0216,0.27577 -0.0519,0.46509 -0.16388,1.02733 -0.0269,0.13512 -0.066,0.37632 -0.0869,0.536 -0.0532,0.40794 -0.16645,1.05731 -0.22581,1.29533 -0.047,0.18857 -0.0923,0.4206 -0.1593,0.81558 -0.0157,0.0924 -0.0463,0.17897 -0.0682,0.19247 -0.0219,0.0135 -0.0397,0.0724 -0.0397,0.13095 0,0.0585 -0.0201,0.11882 -0.0447,0.134 -0.0246,0.0152 -0.0447,0.0767 -0.0447,0.13664 0,0.06 -0.0201,0.10903 -0.0447,0.10903 -0.0246,0 -0.0447,0.0304 -0.0447,0.0676 0,0.0372 -0.0201,0.10753 -0.0447,0.15633 -0.0246,0.0488 -0.0648,0.12865 -0.0893,0.17745 -0.0246,0.0488 -0.0447,0.12861 -0.0447,0.17735 0,0.0487 -0.0483,0.19473 -0.10738,0.32444 -0.12318,0.27052 -0.29462,0.77839 -0.29462,0.87278 0,0.0351 -0.0603,0.17375 -0.134,0.30804 -0.0737,0.13429 -0.134,0.28194 -0.134,0.32811 0,0.0462 -0.0201,0.0964 -0.0447,0.11155 -0.0246,0.0152 -0.0447,0.0755 -0.0447,0.134 0,0.0585 -0.0201,0.11882 -0.0447,0.134 -0.0246,0.0152 -0.0447,0.0755 -0.0447,0.134 0,0.0585 -0.0201,0.11882 -0.0447,0.134 -0.0246,0.0152 -0.0447,0.057 -0.0447,0.0929 0,0.0359 -0.0804,0.23531 -0.17867,0.44312 -0.0983,0.20782 -0.17866,0.40773 -0.17866,0.44425 0,0.0686 -0.0524,0.19874 -0.27994,0.69475 -0.12988,0.28315 -0.19891,0.43724 -0.38022,0.84867 -0.0487,0.11055 -0.1201,0.29145 -0.15864,0.402 -0.0385,0.11055 -0.13138,0.37168 -0.2063,0.5803 -0.0749,0.20862 -0.13624,0.4436 -0.13624,0.5222 0,0.0786 -0.0201,0.15532 -0.0447,0.1705 -0.0246,0.0152 -0.0447,0.11714 -0.0447,0.22658 0,0.10943 -0.0201,0.23889 -0.0447,0.28769 -0.0246,0.0488 -0.0648,0.12866 -0.0893,0.17745 -0.0246,0.0488 -0.0447,0.11607 -0.0447,0.14948 0,0.0334 -0.0342,0.12916 -0.0759,0.21277 -0.0418,0.0836 -0.0915,0.25253 -0.11045,0.37536 -0.019,0.12284 -0.0767,0.41428 -0.12836,0.64767 -0.0935,0.42311 -0.12171,0.56708 -0.21847,1.11666 -0.0806,0.45763 -0.2193,0.97928 -0.27856,1.04744 -0.0203,0.0233 -0.0369,0.12767 -0.0369,0.23186 0,0.10419 -0.0201,0.20185 -0.0447,0.21704 -0.0246,0.0152 -0.0447,0.0855 -0.0447,0.15633 0,0.0708 -0.0179,0.13978 -0.0397,0.15328 -0.0219,0.0135 -0.0512,0.0901 -0.0651,0.17014 -0.0371,0.21243 -0.10192,0.55437 -0.16313,0.86025 -0.28959,1.44711 -0.43279,2.34103 -0.49371,3.082 -0.0202,0.24566 -0.0592,0.57731 -0.0866,0.73699 -0.0275,0.15969 -0.0597,0.41094 -0.0716,0.55834 -0.0119,0.1474 -0.0403,0.3082 -0.0629,0.35733 -0.0559,0.12121 -0.0921,0.61797 -0.10753,1.474 -0.0115,0.63734 -0.0237,0.7359 -0.11301,0.91089 -0.0713,0.13969 -0.0919,0.23621 -0.0717,0.335 0.0157,0.0763 0.0433,0.23928 0.0613,0.36211 0.0181,0.12283 0.0875,0.33281 0.15432,0.4666 0.0794,0.15897 0.12149,0.31453 0.12149,0.4489 0,0.1131 0.018,0.22473 0.0401,0.24807 0.022,0.0233 0.0506,0.12283 0.0634,0.2211 0.0128,0.0983 0.043,0.25906 0.0672,0.35733 0.11184,0.45504 0.15183,0.64608 0.19166,0.91567 0.0891,0.60314 0.14363,0.86752 0.2244,1.08851 0.0458,0.12534 0.0833,0.27221 0.0833,0.32639 0,0.0542 0.0201,0.11091 0.0447,0.12609 0.0246,0.0152 0.0447,0.0755 0.0447,0.134 0,0.0585 0.0201,0.11882 0.0447,0.134 0.0246,0.0152 0.0447,0.0755 0.0447,0.134 0,0.0585 0.0201,0.11882 0.0447,0.134 0.0246,0.0152 0.0447,0.0755 0.0447,0.134 0,0.0585 0.0201,0.11882 0.0447,0.134 0.0246,0.0152 0.0451,0.0817 0.0457,0.14781 5.3e-4,0.0661 0.0403,0.17044 0.0883,0.23186 0.048,0.0614 0.0878,0.1457 0.0883,0.1873 5.4e-4,0.0416 0.0457,0.10692 0.10026,0.14517 0.11839,0.0829 0.10681,0.0819 0.22342,0.0195 z m -13.39308,-5.81247 c 0.12804,-0.11567 0.2431,-0.42942 0.29896,-0.81516 0.073,-0.5045 0.16628,-0.83529 0.32715,-1.1608 0.0885,-0.17911 0.16095,-0.3669 0.16095,-0.4173 0,-0.0504 0.0201,-0.10405 0.0447,-0.11924 0.0246,-0.0152 0.0447,-0.0755 0.0447,-0.134 0,-0.0585 0.0201,-0.11881 0.0447,-0.134 0.0246,-0.0152 0.0447,-0.0861 0.0447,-0.15761 0,-0.12256 0.0348,-0.20036 0.25901,-0.57939 0.0558,-0.0942 0.11164,-0.30717 0.14069,-0.536 0.0789,-0.62101 0.10081,-0.73022 0.1585,-0.78791 0.0302,-0.0302 0.0886,-0.16178 0.12977,-0.29235 0.0738,-0.23427 0.13344,-0.38667 0.21058,-0.53829 0.0217,-0.0427 0.0395,-0.11685 0.0395,-0.16487 0,-0.048 0.0201,-0.0997 0.0447,-0.11491 0.0246,-0.0152 0.0447,-0.0855 0.0447,-0.15633 0,-0.0708 0.0201,-0.14115 0.0447,-0.15633 0.0246,-0.0152 0.0447,-0.0956 0.0447,-0.17867 0,-0.0831 0.0201,-0.16349 0.0447,-0.17867 0.0246,-0.0152 0.0447,-0.0757 0.0447,-0.13453 0,-0.0588 0.0176,-0.1531 0.0392,-0.20953 0.0862,-0.22586 0.18729,-0.72414 0.27912,-1.3756 0.0225,-0.15969 0.0601,-0.41094 0.0836,-0.55834 0.0235,-0.1474 0.0553,-0.35355 0.0708,-0.45811 0.0155,-0.10456 0.0461,-0.20122 0.0681,-0.2148 0.022,-0.0136 0.04,-0.12282 0.04,-0.24275 0,-0.11994 0.0201,-0.23049 0.0447,-0.24567 0.0255,-0.0157 0.0447,-0.24315 0.0447,-0.5297 0,-0.27616 0.018,-0.52119 0.0401,-0.54453 0.0808,-0.0855 0.10426,-0.48493 0.1428,-2.4321 0.0495,-2.49963 0.0548,-2.64533 0.0992,-2.7139 0.0549,-0.0848 -0.009,-0.2341 -0.10046,-0.2341 -0.14893,0 -0.58103,0.81285 -0.78552,1.47768 -0.0636,0.20679 -0.14678,0.47649 -0.18484,0.59932 -0.21145,0.68241 -0.29801,1.09825 -0.35336,1.69733 -0.0136,0.1474 -0.0419,0.3082 -0.0629,0.35734 -0.021,0.0491 -0.048,0.12953 -0.06,0.17866 -0.012,0.0491 -0.0712,0.23004 -0.13148,0.402 -0.16812,0.47922 -0.25619,0.79968 -0.25619,0.93219 0,0.0662 -0.0278,0.18691 -0.0618,0.26826 -0.034,0.0814 -0.0762,0.2717 -0.0937,0.42298 -0.0176,0.15129 -0.05,0.28626 -0.0722,0.29995 -0.0221,0.0137 -0.0403,0.0828 -0.0403,0.15362 0,0.0708 -0.0201,0.14115 -0.0447,0.15633 -0.0246,0.0152 -0.0447,0.0956 -0.0447,0.17867 0,0.0831 -0.0201,0.16348 -0.0447,0.17867 -0.0246,0.0152 -0.0447,0.13578 -0.0447,0.268 0,0.13221 -0.0201,0.25281 -0.0447,0.268 -0.0246,0.0152 -0.0447,0.0927 -0.0447,0.17237 0,0.0796 -0.0166,0.16386 -0.0369,0.18719 -0.045,0.0517 -0.1374,0.37716 -0.27206,0.9581 -0.098,0.4228 -0.13771,0.74452 -0.13771,1.11549 0,0.21143 -0.0301,0.50016 -0.067,0.64164 -0.0369,0.14148 -0.067,0.3467 -0.067,0.45605 0,0.10935 -0.0201,0.19882 -0.0447,0.19882 -0.0246,0 -0.0447,0.0462 -0.0447,0.10274 0,0.0565 -0.0218,0.12456 -0.0485,0.15124 -0.0267,0.0267 -0.0562,0.21663 -0.0657,0.4221 -0.009,0.20547 -0.0382,0.65499 -0.0639,0.99892 -0.0257,0.34393 -0.0573,0.81628 -0.0703,1.04967 -0.013,0.23338 -0.0419,0.46453 -0.0643,0.51366 -0.0414,0.0908 -0.0655,0.29432 -0.12378,1.04526 -0.0349,0.44927 0.003,0.62597 0.1532,0.71324 0.12149,0.0706 0.17682,0.0614 0.30014,-0.05 z m -5.6092,-57.34974 c 0.08587,-0.0859 0.07433,-2.70672 -0.0134,-3.04353 -0.03685,-0.14147 -0.06689,-0.29142 -0.06676,-0.33321 4.46e-4,-0.0843 -0.218979,-0.66404 -0.3858,-1.02023 -0.08053,-0.17194 -0.11444,-0.34011 -0.13508,-0.67 -0.02692,-0.43017 -0.06384,-0.55279 -0.165995,-0.55141 -0.167728,0.002 -0.170792,0.0323 -0.164373,1.61232 0.0037,0.90838 0.02369,1.55288 0.04895,1.57814 0.02349,0.0235 0.04272,0.0825 0.04272,0.13112 0,0.0486 0.01864,0.15012 0.04143,0.22556 0.02278,0.0755 0.08551,0.28793 0.1394,0.47218 0.05388,0.18425 0.113306,0.38525 0.132057,0.44666 0.01875,0.0614 0.05861,0.20212 0.08859,0.31267 0.02997,0.11055 0.0725,0.24717 0.09451,0.3036 0.02201,0.0564 0.04002,0.18808 0.04002,0.29257 0,0.1993 0.05884,0.29716 0.178667,0.29716 0.03931,0 0.09559,-0.0241 0.125066,-0.0536 z m -2.823494,-7.47151 c 0.239998,-0.27436 0.3656,-0.27236 0.625257,0.01 0.164127,0.17844 0.207731,0.20431 0.274324,0.16277 0.06465,-0.0403 0.08153,-0.12411 0.09201,-0.45637 0.01348,-0.42791 -0.05361,-0.65216 -0.263953,-0.88223 -0.136613,-0.14943 -0.575204,-0.8832 -0.575204,-0.96233 0,-0.026 -0.15075,-0.2648 -0.335,-0.53067 -0.18425,-0.26588 -0.335,-0.50529 -0.335,-0.53204 0,-0.0267 -0.0201,-0.0486 -0.04467,-0.0486 -0.02457,0 -0.04467,-0.0264 -0.04467,-0.0586 0,-0.0322 -0.03518,-0.0986 -0.07817,-0.14744 -0.04299,-0.0489 -0.107101,-0.13809 -0.142464,-0.19825 -0.259714,-0.44188 -0.429349,-0.70595 -0.515011,-0.80173 -0.05493,-0.0614 -0.167201,-0.21217 -0.24949,-0.335 -0.08229,-0.12283 -0.174383,-0.24858 -0.204649,-0.27943 -0.03027,-0.0309 -0.06775,-0.0962 -0.0833,-0.14517 -0.01555,-0.049 -0.04566,-0.0891 -0.06691,-0.0891 -0.02126,0 -0.05137,-0.0401 -0.06692,-0.0891 -0.01555,-0.049 -0.05211,-0.11431 -0.08126,-0.14516 -0.0887,-0.0939 -0.298494,-0.43091 -0.298494,-0.47948 0,-0.0251 -0.01775,-0.0456 -0.03946,-0.0456 -0.0217,0 -0.05061,-0.0352 -0.06424,-0.0782 -0.03314,-0.1045 -0.178198,-0.34242 -0.220131,-0.36105 -0.01843,-0.008 -0.03359,-0.0383 -0.03371,-0.067 0,-0.0287 -0.05649,-0.11241 -0.125276,-0.18611 -0.06879,-0.0737 -0.138922,-0.16415 -0.155855,-0.201 -0.01693,-0.0368 -0.113869,-0.19765 -0.215405,-0.35734 -0.166263,-0.26146 -0.363627,-0.60799 -0.502228,-0.88181 -0.02788,-0.0551 -0.06577,-0.10031 -0.0842,-0.1005 -0.01842,0 -0.0335,-0.0262 -0.0335,-0.0579 0,-0.0316 -0.05528,-0.1235 -0.122834,-0.20413 -0.08728,-0.10418 -0.145456,-0.13786 -0.200999,-0.11637 -0.08282,0.032 -0.10415,0.15297 -0.03951,0.22392 0.03662,0.0402 0.218281,0.36335 0.425602,0.7571 0.05174,0.0983 0.109147,0.18536 0.127572,0.19355 0.01843,0.008 0.0335,0.0904 0.0335,0.1826 0,0.12154 0.07686,0.30814 0.279166,0.67778 0.260336,0.47567 0.324178,0.60109 0.452572,0.88907 0.02738,0.0614 0.05987,0.12171 0.07219,0.134 0.03961,0.0395 0.223405,0.40909 0.223405,0.44926 0,0.0214 0.11055,0.26878 0.245666,0.54984 0.135117,0.28106 0.245667,0.53331 0.245667,0.56056 0,0.0273 0.0179,0.0845 0.03978,0.12711 0.05438,0.10603 0.230779,0.50166 0.278546,0.62473 0.02145,0.0553 0.0618,0.15577 0.08965,0.22333 0.02785,0.0676 0.066,0.16303 0.08478,0.21217 0.01878,0.0491 0.06634,0.16272 0.105691,0.25241 0.03936,0.0897 0.07156,0.17584 0.07156,0.19144 0,0.0156 0.118018,0.27386 0.262264,0.57392 0.144247,0.30006 0.286975,0.61591 0.317174,0.70189 0.07883,0.22442 0.112801,0.30993 0.212979,0.536 0.04899,0.11055 0.136015,0.31155 0.193389,0.44667 0.183901,0.43308 0.218567,0.4447 0.469764,0.15755 z m 5.797864,-8.88496 c 0.18839,-0.0787 0.3399,-0.23996 0.3399,-0.36175 0,-0.0519 0.0182,-0.1134 0.0405,-0.13674 0.0369,-0.0386 0.0924,-0.40341 0.0948,-0.6231 0.002,-0.17125 -0.0558,-0.46973 -0.0954,-0.49425 -0.022,-0.0136 -0.04,-0.0673 -0.04,-0.11938 0,-0.13783 -0.26638,-0.35943 -0.51853,-0.43136 -0.12016,-0.0343 -0.23857,-0.0762 -0.26314,-0.0932 -0.14394,-0.0995 -0.57728,-0.2294 -0.770148,-0.2309 -0.366494,-0.003 -0.559699,0.18452 -0.559699,0.54276 0,0.23184 0.07876,0.38065 0.261112,0.49335 0.07857,0.0486 0.266084,0.274 0.416685,0.50097 0.1506,0.22697 0.2936,0.43695 0.31777,0.46663 0.0242,0.0297 0.044,0.0799 0.0442,0.11166 4.5e-4,0.10452 0.20824,0.3202 0.36224,0.3759 0.19792,0.0716 0.19689,0.0716 0.36964,-5.8e-4 z M 43.334352,89.871253 c -0.08049,-0.08048 -0.06465,-0.230364 0.03573,-0.338109 0.04913,-0.05274 0.08933,-0.107356 0.08933,-0.121372 0,-0.01401 0.09548,-0.151469 0.212167,-0.305458 0.116691,-0.153992 0.232266,-0.311791 0.256833,-0.350664 0.02457,-0.03888 0.140142,-0.214436 0.256833,-0.390132 0.116692,-0.175696 0.212167,-0.338922 0.212167,-0.362724 0,-0.0238 0.01577,-0.04327 0.03504,-0.04327 0.01927,0 0.07267,-0.06372 0.118679,-0.141598 0.046,-0.07788 0.172326,-0.223601 0.280718,-0.323833 0.108391,-0.100228 0.25482,-0.269349 0.325399,-0.375821 0.127987,-0.193072 0.708239,-0.818311 0.877394,-0.945414 0.191236,-0.143697 0.285105,-0.172753 0.712253,-0.22047 0.556234,-0.06214 0.855421,-0.128636 1.625852,-0.361372 0.233384,-0.0705 0.562999,-0.160353 0.732479,-0.199673 0.169481,-0.03932 0.389331,-0.110715 0.488557,-0.158651 0.300289,-0.145086 0.476297,-0.104623 0.476297,0.109496 0,0.03044 -0.09045,0.149753 -0.201,0.265132 -0.11055,0.115374 -0.201,0.225674 -0.201,0.245113 0,0.05536 -0.852984,0.91442 -1.027333,1.034649 -0.08598,0.05929 -0.166383,0.119791 -0.178666,0.134442 -0.01228,0.01465 -0.08263,0.06927 -0.156334,0.121373 -0.0737,0.0521 -0.27149,0.227009 -0.439535,0.38868 -0.168044,0.161671 -0.321904,0.293947 -0.34191,0.293947 -0.02001,0 -0.224215,0.185925 -0.453797,0.413166 -0.35011,0.346542 -0.453438,0.422895 -0.640757,0.473507 -0.122833,0.03319 -0.308539,0.09851 -0.412679,0.145166 -0.104141,0.04666 -0.225746,0.08483 -0.270234,0.08483 -0.04449,0 -0.09998,0.01709 -0.12332,0.03798 -0.02334,0.02089 -0.293683,0.13476 -0.600766,0.253032 -0.307083,0.118278 -0.611686,0.251938 -0.676895,0.297016 -0.06521,0.04508 -0.142506,0.08197 -0.171771,0.08197 -0.02927,0 -0.106563,0.03663 -0.171772,0.0814 -0.303142,0.208133 -0.567249,0.27838 -0.667961,0.177666 z M 122.90669,44.961554 c -0.0455,-0.04712 -0.8885,-0.102213 -2.01539,-0.131715 -0.50675,-0.01327 -0.86972,-0.0415 -0.9045,-0.07037 -0.0319,-0.02651 -0.0581,-0.09538 -0.0581,-0.153032 0,-0.106729 0.19059,-0.252459 0.67,-0.512295 0.11055,-0.05992 0.21105,-0.119023 0.22333,-0.131345 0.0325,-0.03258 0.22205,-0.116804 0.402,-0.178596 0.086,-0.02952 0.19653,-0.07043 0.24567,-0.09091 0.11257,-0.04691 0.54973,-0.188859 0.871,-0.282818 0.13511,-0.03952 0.50696,-0.112791 0.82633,-0.162832 0.62581,-0.09806 0.97496,-0.168257 1.11667,-0.224517 0.0491,-0.01951 0.13958,-0.04855 0.201,-0.06454 0.0614,-0.01599 0.18201,-0.04934 0.268,-0.0741 0.18527,-0.05336 0.4931,-0.118416 1.27299,-0.26905 0.2742,-0.05296 0.81191,-0.115302 1.31922,-0.15295 0.3146,-0.02335 0.39129,-0.01614 0.43893,0.04126 0.12178,0.146739 0.0429,0.262612 -0.30731,0.45159 -0.41304,0.222867 -0.67357,0.391539 -0.75346,0.487796 -0.0334,0.04019 -0.0883,0.07307 -0.12218,0.07307 -0.0338,0 -0.0615,0.01776 -0.0615,0.03946 0,0.0217 -0.0352,0.05096 -0.0782,0.06502 -0.043,0.01406 -0.17866,0.08765 -0.3015,0.163518 -0.12283,0.07587 -0.2585,0.149456 -0.3015,0.163518 -0.043,0.01406 -0.0782,0.04332 -0.0782,0.06502 0,0.0217 -0.0199,0.03946 -0.0442,0.03946 -0.0562,0 -0.65024,0.379681 -0.77319,0.494232 -0.051,0.04754 -0.11176,0.08643 -0.13495,0.08643 -0.0232,0 -0.0749,0.0378 -0.11502,0.084 -0.0421,0.04848 -0.15757,0.0944 -0.27324,0.108615 -0.11021,0.01354 -0.36119,0.04452 -0.55772,0.06885 -0.72772,0.09008 -0.9389,0.104637 -0.97503,0.06722 z"
       id="path1106" />
  </g>
</svg>
