<?xml version="1.0" encoding="UTF-8" standalone="no"?>
<!-- Created with Inkscape (http://www.inkscape.org/) -->

<svg
   width="210mm"
   height="297mm"
   viewBox="0 0 210 297"
   version="1.1"
   id="svg5"
   inkscape:version="1.1.2 (b8e25be8, 2022-02-05)"
   sodipodi:docname="skater_05.svg"
   xmlns:inkscape="http://www.inkscape.org/namespaces/inkscape"
   xmlns:sodipodi="http://sodipodi.sourceforge.net/DTD/sodipodi-0.dtd"
   xmlns="http://www.w3.org/2000/svg"
   xmlns:svg="http://www.w3.org/2000/svg">
  <sodipodi:namedview
     id="namedview7"
     pagecolor="#ffffff"
     bordercolor="#999999"
     borderopacity="1"
     inkscape:pageshadow="0"
     inkscape:pageopacity="0"
     inkscape:pagecheckerboard="0"
     inkscape:document-units="mm"
     showgrid="false"
     inkscape:zoom="0.16013082"
     inkscape:cx="346.59161"
     inkscape:cy="527.69354"
     inkscape:window-width="1660"
     inkscape:window-height="969"
     inkscape:window-x="0"
     inkscape:window-y="44"
     inkscape:window-maximized="0"
     inkscape:current-layer="layer1" />
  <defs
     id="defs2" />
  <g
     inkscape:label="Layer 1"
     inkscape:groupmode="layer"
     id="layer1">
    <path
       style="fill:#000000;stroke-width:0.0940131"
       d="m 38.822425,253.72713 c -0.439512,-0.12105 -1.095253,-0.29502 -1.457204,-0.38659 -0.664089,-0.16802 -1.496021,-0.48011 -1.719327,-0.645 -0.247422,-0.18271 0.05793,-1.61873 0.56932,-2.67744 0.301621,-0.62442 0.442633,-0.81427 0.693777,-0.93404 0.295269,-0.1408 0.315472,-0.18043 0.319337,-0.62646 0.0023,-0.26189 0.06973,-0.64538 0.1499,-0.85221 0.275572,-0.7109 0.265884,-0.82188 -0.106971,-1.22546 -0.452278,-0.48953 -0.741123,-0.99333 -0.980117,-1.70949 -0.246819,-0.7396 -0.250887,-1.57101 -0.0137,-2.80004 0.148218,-0.76801 0.27841,-1.11995 0.711761,-1.92404 0.291699,-0.54125 0.564658,-1.15469 0.606574,-1.36319 0.11858,-0.58985 0.365399,-1.08133 0.595738,-1.18628 0.115505,-0.0526 0.2791,-0.21607 0.363545,-0.3632 0.09597,-0.16724 0.264521,-0.29191 0.449576,-0.33255 0.329298,-0.0723 1.302182,-0.87599 1.489526,-1.23045 0.06629,-0.12541 0.193202,-0.22842 0.282039,-0.22891 0.347444,-0.002 1.129367,-0.55379 1.351435,-0.95385 0.145196,-0.26158 0.380511,-0.48987 0.690348,-0.66972 0.566249,-0.32871 0.956682,-0.68243 1.139411,-1.03229 0.07711,-0.14762 0.321176,-0.34668 0.566437,-0.46197 0.456508,-0.21458 0.748165,-0.58823 0.84053,-1.07683 0.03256,-0.17223 0.168954,-0.37782 0.329319,-0.49638 0.150558,-0.11131 0.273743,-0.25803 0.273743,-0.32602 0,-0.20825 0.292927,-0.39032 1.163808,-0.72336 0.898607,-0.34365 1.066623,-0.50169 1.156888,-1.08821 0.07833,-0.50899 0.191718,-0.69107 0.432495,-0.69453 0.251649,-0.004 0.430617,-0.13717 0.701775,-0.52373 0.138739,-0.19777 0.381172,-0.35605 0.753064,-0.49165 0.706382,-0.25756 1.004609,-0.63127 1.007586,-1.2626 0.0018,-0.38057 0.0432,-0.48049 0.276102,-0.66627 0.242945,-0.19379 0.272095,-0.27205 0.257276,-0.69077 -0.0095,-0.26972 0.04405,-0.58874 0.124987,-0.74393 0.07794,-0.14944 0.14289,-0.44093 0.144345,-0.64776 0.0025,-0.35773 0.182824,-0.82006 0.539991,-1.3846 0.153725,-0.24298 0.153642,-0.28064 -0.0016,-0.71771 -0.203404,-0.5727 -0.206086,-0.8618 -0.01214,-1.30869 0.18369,-0.42324 0.210686,-1.36509 0.100292,-3.49897 -0.06244,-1.20704 -0.15145,-1.86988 -0.401152,-2.98746 -0.176496,-0.78994 -0.320902,-1.58873 -0.320902,-1.77509 0,-0.40073 -0.520634,-1.98124 -0.731044,-2.21925 -0.08064,-0.0912 -0.382779,-0.31958 -0.671421,-0.50746 -0.806624,-0.52506 -1.016944,-0.75814 -1.137477,-1.26058 -0.09268,-0.38633 -0.218246,-0.55702 -0.83897,-1.14052 -1.129327,-1.06157 -1.383878,-1.52812 -1.701437,-3.11842 -0.326571,-1.63544 -0.415522,-3.39787 -0.290044,-5.74684 0.09314,-1.7437 0.180146,-2.39292 0.366778,-2.73699 0.200752,-0.37009 0.764609,-0.7885 1.062608,-0.7885 0.389315,0 0.74456,-0.36892 0.74456,-0.77322 0,-0.84649 0.902117,-2.86459 2.028782,-4.53852 0.174012,-0.25854 0.379112,-0.64982 0.45578,-0.86952 0.350314,-1.00387 1.477629,-2.46795 1.900285,-2.46795 0.07028,0 0.212396,-0.0846 0.31581,-0.18802 0.148696,-0.1487 0.188026,-0.31338 0.188026,-0.7873 0,-0.32959 0.06438,-0.78173 0.143068,-1.00475 0.106604,-0.30215 0.128603,-0.61066 0.08632,-1.2105 -0.0565,-0.80145 -0.05531,-0.80718 0.271619,-1.30589 0.217236,-0.33138 0.36302,-0.69989 0.430755,-1.08885 0.208168,-1.19539 0.11336,-2.0987 -0.504123,-4.80314 -0.307838,-1.34827 -0.278692,-3.54691 0.05908,-4.45702 0.04622,-0.12454 0.167679,-0.99181 0.269904,-1.92727 0.218148,-1.99625 0.369654,-2.75869 0.814359,-4.09817 0.180251,-0.54293 0.430178,-1.47366 0.555393,-2.06829 0.264868,-1.25783 0.603372,-2.56008 0.938537,-3.61063 0.130415,-0.40877 0.275557,-1.06451 0.322538,-1.4572 0.04698,-0.39269 0.168828,-1.05535 0.270771,-1.47259 0.223304,-0.91394 0.386364,-2.73659 0.466212,-5.21122 l 0.05915,-1.83326 0.443257,-0.74357 c 0.338473,-0.56781 0.49031,-0.95673 0.642308,-1.64523 1.050659,-4.75919 1.393471,-6.12016 1.647974,-6.54244 0.780446,-1.29498 1.908859,-2.85023 2.645426,-3.6461 0.656536,-0.70938 0.812889,-1.15221 0.853657,-2.41775 0.02474,-0.76806 -0.01362,-1.33979 -0.132459,-1.97428 -0.09201,-0.49121 -0.168964,-1.18926 -0.171014,-1.55121 -0.0036,-0.64146 0.01109,-0.68305 0.582244,-1.64523 0.322285,-0.54293 0.586113,-1.0586 0.586285,-1.14595 1.88e-4,-0.0873 -0.173991,-0.36019 -0.387029,-0.60634 l -0.387343,-0.44753 0.06598,-0.66284 c 0.06954,-0.69859 0.187189,-2.95088 0.321901,-6.1626 0.04446,-1.06 0.126181,-2.09526 0.1816,-2.3006 0.06442,-0.23869 0.25533,-0.52145 0.529366,-0.78407 0.480821,-0.46077 0.577998,-0.70424 0.433156,-1.0852 -0.05457,-0.14355 -0.09923,-0.51418 -0.09923,-0.82362 0,-0.68258 -0.07294,-0.82822 -0.983467,-1.96348 -0.476808,-0.59451 -0.903028,-1.27034 -1.274725,-2.02129 -0.31308,-0.63252 -0.785251,-1.40556 -1.074737,-1.75957 -0.28398,-0.34729 -0.69219,-0.98188 -0.907133,-1.4102 -0.214944,-0.42833 -0.591513,-1.01146 -0.836821,-1.29585 -0.759208,-0.88016 -1.876069,-2.54935 -2.011957,-3.00693 -0.07118,-0.2397 -0.255121,-0.68712 -0.408751,-0.99426 -0.555681,-1.11094 -0.617371,-1.43434 -0.544266,-2.853247 0.04198,-0.814828 0.02593,-1.630366 -0.04393,-2.231222 -0.102827,-0.884496 -0.09732,-0.977346 0.08345,-1.406932 0.209028,-0.496742 0.494705,-1.262603 0.995802,-2.669602 0.175015,-0.491415 0.442641,-1.147157 0.594724,-1.457204 0.152084,-0.310047 0.330035,-0.732947 0.395446,-0.939776 0.09739,-0.307925 0.612521,-1.347193 1.165067,-2.35048 0.206405,-0.374782 1.021491,-1.548566 1.148579,-1.65404 0.07162,-0.05944 0.130221,-0.170181 0.130221,-0.24609 0,-0.07591 0.190377,-0.360856 0.423059,-0.633214 0.232683,-0.272358 0.423059,-0.543517 0.423059,-0.602576 0,-0.261619 -0.297994,-0.04267 -1.175164,0.863452 -1.10087,1.137203 -1.536935,1.449376 -2.140064,1.532044 -0.76339,0.104635 -0.680205,-0.214608 0.34048,-1.306659 0.134161,-0.143542 0.567782,-0.672366 0.963601,-1.175164 1.336163,-1.697295 2.463082,-2.711269 3.844403,-3.459104 1.107863,-0.599788 1.466212,-0.875139 2.510216,-1.928824 1.068625,-1.078539 1.391326,-1.566256 1.391326,-2.102802 0,-0.278045 -0.08808,-0.421626 -0.540576,-0.881211 -0.852281,-0.865631 -1.342314,-1.551491 -1.398944,-1.957989 -0.118277,-0.849025 -0.290751,-1.013832 -1.064975,-1.017643 -0.415477,-0.002 -0.422209,-0.0073 -0.771854,-0.606274 -0.193998,-0.332315 -0.417571,-0.889327 -0.49683,-1.237803 -0.266906,-1.173497 -0.399711,-1.345559 -0.656012,-0.849928 -0.198882,0.384596 -0.672976,0.469976 -0.968529,0.174423 -0.172836,-0.172837 -0.247261,-0.418884 -0.363057,-1.20027 -0.242947,-1.639398 -1.289146,-4.383292 -2.05323,-5.385056 -0.127227,-0.166804 -0.363593,-0.598339 -0.525257,-0.958966 -0.161664,-0.360627 -0.357062,-0.76145 -0.434216,-0.890718 -0.453784,-0.760283 -0.995843,-2.043135 -1.08147,-2.559437 -0.05892,-0.355242 -0.0722,-1.094797 -0.03339,-1.858654 0.06979,-1.373598 0.193276,-1.75688 0.894239,-2.775695 0.16183,-0.235212 0.458081,-0.754093 0.658336,-1.15307 0.200254,-0.398976 0.618251,-1.127317 0.928881,-1.618536 0.31063,-0.491218 0.678311,-1.104654 0.817067,-1.36319 0.346793,-0.646155 1.348391,-2.085928 2.158668,-3.103033 1.114646,-1.399168 2.193023,-2.235851 4.260165,-3.305348 l 0.977414,-0.505694 0.998446,0.01085 c 0.650091,0.0071 1.203868,-0.04243 1.587222,-0.141848 0.918119,-0.23811 2.762011,-0.425118 4.205893,-0.426563 2.160156,-0.0022 2.75585,0.167988 3.822703,1.091883 0.311462,0.269726 0.721029,0.59126 0.910149,0.714519 1.230185,0.801772 1.534507,1.028259 2.117171,1.575665 0.373299,0.350711 0.7209,0.775251 0.815802,0.996376 0.09095,0.21191 0.412874,0.613762 0.715391,0.893006 0.302519,0.279243 0.846169,0.808631 1.208119,1.176418 0.36195,0.367786 0.89078,0.851134 1.17517,1.074106 0.63882,0.500858 1.08886,0.963732 1.2594,1.295315 0.0838,0.163038 0.16917,0.919111 0.24067,2.132836 0.0609,1.034144 0.17631,2.239863 0.25642,2.679374 0.0801,0.439511 0.17984,1.497159 0.22163,2.350328 0.0418,0.853169 0.10611,1.956369 0.14293,2.451555 0.0549,0.738301 0.0405,0.941339 -0.08,1.128158 -0.23641,0.366619 -0.2748,0.840297 -0.11372,1.402983 0.0814,0.28439 0.17269,0.693405 0.20284,0.908923 0.0533,0.380862 0.0444,0.397146 -0.31538,0.58071 -0.46983,0.23969 -0.62159,0.424231 -0.61326,0.745721 0.009,0.351128 0.35419,2.381272 0.43792,2.576249 0.09,0.209557 0.54236,0.359119 1.08621,0.359119 0.24273,0 0.691207,0.09213 0.996617,0.204741 0.47763,0.176107 0.75909,0.20569 2.01249,0.211529 1.63688,0.0076 3.336227,-0.111961 3.619507,-0.254713 0.10342,-0.05211 0.35507,-0.225749 0.55923,-0.385859 0.29575,-0.231935 0.55373,-0.324085 1.26918,-0.453335 0.49388,-0.08922 1.00374,-0.186355 1.13301,-0.215845 0.17795,-0.0406 0.35022,0.03467 0.70938,0.309927 0.665767,0.510256 0.793007,0.524291 1.726027,0.190393 0.44443,-0.159043 1.11137,-0.391613 1.48209,-0.516821 0.5131,-0.173289 0.7326,-0.304407 0.91923,-0.549087 0.36871,-0.483413 0.91387,-0.609219 2.63994,-0.609219 1.11874,0 1.49062,0.03239 1.7273,0.150465 0.29336,0.146346 0.32014,0.141468 0.97808,-0.178143 0.37206,-0.180736 0.97285,-0.416382 1.3351,-0.523661 1.09152,-0.32325 3.81784,-0.670831 5.26178,-0.670831 1.60802,0 1.85886,-0.102299 2.41128,-0.983364 0.31946,-0.509492 0.46601,-0.644723 1.00389,-0.926335 0.34639,-0.181364 0.88364,-0.401628 1.19389,-0.489478 0.31024,-0.08785 0.86022,-0.320572 1.22217,-0.51716 0.79583,-0.432244 1.13399,-0.525745 2.34107,-0.647292 0.8149,-0.08206 0.99819,-0.135294 1.47137,-0.427356 0.29728,-0.183491 0.63457,-0.333619 0.74954,-0.333619 0.11496,0 0.53164,-0.143135 0.92595,-0.318078 0.82956,-0.368045 1.48981,-0.480607 2.73822,-0.466823 0.89614,0.0099 1.66931,0.102965 2.63237,0.316868 0.98467,0.218707 1.61964,0.662816 1.93617,1.354187 0.20542,0.448694 0.64489,0.909928 1.70683,1.791361 0.16805,0.139484 0.30555,0.305929 0.30555,0.369881 0,0.06395 0.10005,0.210273 0.22235,0.32516 0.2788,0.261927 1.77634,1.28873 2.63811,1.808856 0.78306,0.472621 2.38859,2.035593 2.68072,2.609661 0.16521,0.324674 0.20042,0.522217 0.16759,0.940132 -0.0229,0.290999 -0.0719,0.617647 -0.10889,0.725887 -0.0542,0.158451 0.0962,0.387444 0.77192,1.175164 0.84077,0.980125 2.13036,2.281534 2.74747,2.772642 0.65173,0.51866 2.39002,2.254338 2.53312,2.529319 0.21738,0.417692 0.54908,0.496144 1.05738,0.250081 0.57024,-0.276045 1.56052,-0.276341 2.3053,-6.58e-4 1.15662,0.428079 2.51587,1.585491 2.94437,2.507167 0.18912,0.406793 0.33773,0.566087 0.80255,0.86026 0.69228,0.43812 1.47384,1.425083 1.9444,2.455376 0.35038,0.76717 1.35763,1.945844 1.89805,2.221061 0.28738,0.146355 1.38419,1.046045 1.65094,1.354228 0.25984,0.300195 1.63568,1.261344 2.61532,1.827033 0.73115,0.422198 1.21458,0.79702 1.96275,1.521773 1.38414,1.340834 1.46144,1.456647 1.38429,2.074107 -0.045,0.360348 -0.0192,0.609802 0.0936,0.905157 0.19297,0.505282 0.34656,0.64624 0.97221,0.892261 0.27181,0.106883 0.71602,0.347582 0.98713,0.534885 0.27111,0.187303 0.72238,0.44256 1.00281,0.567239 1.15101,0.511727 1.72742,1.300664 1.51814,2.077871 -0.12144,0.450999 -0.22769,0.552061 -0.66663,0.634066 -0.2647,0.04945 -0.44326,0.0028 -0.89313,-0.233296 -0.30924,-0.162309 -0.64961,-0.376714 -0.75636,-0.476457 -0.10674,-0.09974 -0.22373,-0.181352 -0.25997,-0.181352 -0.0362,0 -0.35672,-0.211529 -0.71217,-0.470065 -0.35546,-0.258537 -0.68773,-0.470066 -0.73839,-0.470066 -0.0507,0 -0.29858,-0.161659 -0.55095,-0.359242 -0.51599,-0.40399 -1.2488,-0.785666 -1.36755,-0.712276 -0.0431,0.02666 -0.0784,0.216038 -0.0784,0.420843 0,0.672911 0.65182,1.516716 3.36747,4.359299 1.25806,1.31686 1.48605,1.64004 1.57045,2.2261 0.0598,0.41538 0.0481,0.44607 -0.26071,0.6816 -0.21404,0.16326 -0.4407,0.24663 -0.67049,0.24663 -0.29835,0 -0.42261,-0.0765 -0.88425,-0.54433 -0.29541,-0.29938 -0.67955,-0.74359 -0.85364,-0.98714 -0.17408,-0.24354 -0.36113,-0.4428 -0.41566,-0.4428 -0.0545,0 -0.17383,-0.0676 -0.26512,-0.15023 -0.22321,-0.202 -0.36588,-0.0926 -0.36588,0.28062 0,0.22677 0.18858,0.58877 0.71948,1.38114 0.39572,0.59061 0.87497,1.2642 1.065,1.49689 0.69888,0.85574 0.9419,1.2869 0.9419,1.6711 0,0.48451 -0.21886,0.67974 -0.75951,0.67751 -0.30609,-0.001 -0.52699,-0.0771 -0.83801,-0.28785 -0.44964,-0.30462 -1.0805,-1.00817 -1.1772,-1.31283 -0.0723,-0.22774 -0.12593,-0.22721 -0.42173,0.004 -0.30942,0.24203 -0.88695,0.24874 -1.05261,0.0122 -0.0677,-0.0967 -0.31338,-0.32106 -0.5459,-0.49858 -0.23253,-0.17752 -0.86698,-0.66184 -1.40991,-1.07626 -0.54293,-0.41442 -1.19867,-0.89439 -1.4572,-1.0666 -0.25854,-0.17221 -1.08413,-0.94142 -1.83464,-1.70935 -1.20585,-1.233824 -1.40019,-1.396228 -1.67076,-1.396228 -0.22233,0 -0.46653,-0.124201 -0.89174,-0.453541 -0.32206,-0.249448 -0.74345,-0.548572 -0.93643,-0.66472 -0.19298,-0.116148 -0.44275,-0.340221 -0.55506,-0.497939 -0.34886,-0.489934 -0.83104,-0.922155 -1.02875,-0.922155 -0.10404,0 -0.29695,0.107788 -0.42869,0.23953 -0.2137,0.213701 -0.23377,0.292267 -0.18609,0.728602 0.18109,1.657268 0.17799,2.015421 -0.0232,2.677821 -0.16073,0.52921 -0.27877,0.72665 -0.62537,1.04614 -0.41043,0.37832 -0.44843,0.39272 -0.96494,0.36572 l -0.53768,-0.0281 -0.058,-0.79911 c -0.0357,-0.49142 -0.15335,-1.06787 -0.30554,-1.497098 -0.21926,-0.618309 -0.24751,-0.83868 -0.24751,-1.930528 0,-1.00008 -0.0362,-1.33558 -0.19201,-1.778861 -0.16208,-0.461128 -0.18774,-0.731833 -0.16453,-1.735985 0.0239,-1.032951 -0.001,-1.282548 -0.19269,-1.894764 -0.32328,-1.035307 -0.34193,-1.070991 -0.6372,-1.219183 -0.14892,-0.07474 -0.35026,-0.201181 -0.44742,-0.280972 -0.2261,-0.185698 -1.16222,-1.432419 -1.46858,-1.955842 -0.79286,-1.354629 -1.17591,-1.929501 -1.43898,-2.159606 -0.74798,-0.654271 -2.69779,-2.713073 -2.79756,-2.953943 -0.0836,-0.201881 -0.22976,-0.308713 -0.59153,-0.432427 -0.56727,-0.193991 -3.17773,-1.509156 -3.69579,-1.861966 -0.57975,-0.394824 -2.07048,-1.073275 -2.59923,-1.182947 -0.26815,-0.05562 -0.64125,-0.181094 -0.82911,-0.278837 -0.22938,-0.119345 -0.43644,-0.158739 -0.63042,-0.119943 -0.33384,0.06677 -1.27395,-0.400255 -1.98165,-0.984444 -1.49795,-1.236499 -2.11028,-1.666785 -2.75579,-1.936495 -0.49742,-0.207835 -0.83494,-0.18075 -1.20577,0.09676 -0.8187,0.612669 -0.96034,0.64984 -2.52605,0.66291 -1.61669,0.0135 -1.65012,0.02663 -1.74562,0.685823 -0.19641,1.355585 -0.51965,2.209447 -1.43415,3.788336 -0.2605,0.449766 -0.36863,0.551479 -0.66116,0.621879 -0.52703,0.126839 -1.90065,0.297612 -2.39384,0.297612 -0.23987,0 -0.46228,0.04231 -0.49424,0.09401 -0.0319,0.05171 -0.14022,0.09401 -0.24058,0.09401 -0.14012,0 -0.18247,0.06554 -0.18247,0.2824 0,0.256772 0.0398,0.293033 0.43867,0.399556 0.85909,0.229433 0.98995,0.995679 0.50266,2.943273 -0.32715,1.307557 -0.32189,1.263454 -0.15058,1.263454 0.39343,0 0.80747,0.988153 0.80747,1.927124 0,0.448558 -0.33793,2.320042 -0.46436,2.57171 -0.16171,0.321883 -0.28274,0.641851 -0.44097,1.165764 -0.15352,0.508352 -0.15382,0.560846 -0.005,0.872811 0.19629,0.411611 0.20052,0.817981 0.0148,1.415262 -0.21332,0.685822 -0.34761,2.506195 -0.23194,3.144067 0.0527,0.290539 0.30679,1.03948 0.56468,1.66432 0.73909,1.79075 0.66399,2.23914 -0.55923,3.33893 -0.27328,0.24569 -0.67199,0.52418 -0.88603,0.61887 -0.21405,0.0947 -0.52234,0.32381 -0.68508,0.50916 -0.32434,0.36942 -0.69176,1.24689 -0.69032,1.64865 9.4e-4,0.20692 -0.34163,0.5945 -1.81566,2.05543 -0.9991,0.99024 -1.96198,1.88908 -2.13971,1.99743 -0.17772,0.10835 -0.47121,0.19781 -0.65219,0.19879 -0.4504,0.002 -0.51997,0.0636 -0.80401,0.70721 -0.13615,0.30848 -0.388,0.75679 -0.55967,0.99623 -0.17166,0.23944 -0.38582,0.57789 -0.47588,0.7521 -0.40962,0.79234 -1.12726,1.39791 -1.65663,1.39791 -0.12878,0 -0.34933,-0.14891 -0.55696,-0.37605 -0.58636,-0.64147 -0.74823,-0.54792 -2.02677,1.17138 -0.75557,1.01603 -0.80722,1.28096 -0.51738,2.65438 0.107,0.50705 0.26393,1.34496 0.34872,1.86203 0.0848,0.51708 0.24567,1.17282 0.35749,1.45721 0.1812,0.46086 0.20219,0.68569 0.19312,2.06829 -0.006,0.85317 -0.0268,1.99542 -0.047,2.53835 l -0.0368,0.98714 0.39402,0.84612 c 0.25739,0.5527 0.41472,1.04172 0.45371,1.41019 0.0821,0.77569 0.49231,2.65827 0.66252,3.04023 0.0769,0.17261 0.37401,0.63048 0.66023,1.01748 0.2862,0.38702 0.70736,1.0582 0.93591,1.49152 0.50613,0.95963 1.12987,2.64889 1.21409,3.28801 0.15359,1.16567 0.57258,2.43603 1.22751,3.72181 0.3937,0.77293 0.54156,1.45542 0.49743,2.29615 -0.0396,0.75531 -0.0502,0.78401 -0.5391,1.46579 -0.62437,0.87068 -2.15504,2.43463 -2.3828,2.43463 -0.31385,0 -0.63218,0.42432 -0.63218,0.84266 0,0.33065 -0.0678,0.45487 -0.51152,0.93756 -0.36538,0.39744 -0.52862,0.65909 -0.57134,0.91582 -0.0329,0.19766 -0.0988,0.48205 -0.14656,0.63195 -0.0477,0.14992 -0.0876,0.55182 -0.0886,0.89313 -0.002,0.63087 -0.0384,0.7554 -0.8839,3.01789 -0.29242,0.78249 -0.33393,0.99991 -0.3351,1.75517 -0.001,0.73184 -0.0523,1.01867 -0.33883,1.89907 -0.28327,0.87034 -0.38792,1.07546 -0.65114,1.27623 -0.20548,0.15672 -0.38151,0.42061 -0.51042,0.76516 -0.11577,0.30942 -0.39922,0.75523 -0.68854,1.08293 -0.43216,0.48949 -0.682,0.8848 -1.27137,2.01167 -0.0811,0.15512 -0.41315,0.65181 -0.73781,1.10376 -0.32467,0.45195 -0.64052,0.91732 -0.7019,1.03415 -0.0614,0.11683 -0.2323,0.35139 -0.37983,0.52123 -0.2426,0.27929 -0.26826,0.37483 -0.26826,0.99911 0,0.37966 0.0602,0.98105 0.13373,1.33641 0.23263,1.12394 0.45025,2.61617 0.41618,2.85378 -0.0258,0.18009 -0.10918,0.24481 -0.39009,0.30288 -0.65582,0.13556 -2.668767,1.17654 -2.918447,1.50924 -0.31089,0.41427 -0.66732,1.14196 -0.90513,1.8479 -0.10864,0.32248 -0.34385,0.9398 -0.52268,1.37182 -0.63833,1.54204 -0.64418,1.58522 -0.64998,4.79419 l -0.005,2.91441 -0.35745,0.89312 c -0.19659,0.49122 -0.48927,1.12581 -0.65039,1.4102 -0.2336,0.41231 -0.30546,0.67118 -0.35469,1.27771 -0.053,0.65277 -0.10227,0.81275 -0.34748,1.12816 -0.576457,0.74144 -1.240277,2.05938 -1.488807,2.95585 -0.66486,2.39822 -1.18293,3.56937 -2.01566,4.55666 -0.26168,0.31025 -0.54926,0.68252 -0.63907,0.82727 -0.0898,0.14475 -0.38502,0.57869 -0.65601,0.9643 -0.271,0.38563 -0.6367,0.98639 -0.81266,1.33505 -0.17595,0.34864 -0.578717,0.99351 -0.895027,1.43302 -0.7227,1.00418 -0.84199,1.35213 -0.62232,1.81506 0.15389,0.3243 0.15237,0.35925 -0.0377,0.86731 -0.2888,0.77189 -0.46034,1.07484 -0.87665,1.54822 -0.20463,0.23268 -0.47261,0.62102 -0.59551,0.86297 -0.1229,0.24195 -0.26967,0.46847 -0.32616,0.50339 -0.10408,0.0643 -0.60953,0.82767 -1.29328,1.95315 -0.20649,0.33989 -0.40424,0.78844 -0.43944,0.99679 -0.0352,0.20835 -0.15568,0.49378 -0.26773,0.63429 -0.11206,0.1405 -0.288349,0.39286 -0.391763,0.5608 -0.481821,0.78243 -1.545146,2.56378 -1.938394,3.24732 -0.08368,0.14545 -0.200218,0.32238 -0.258974,0.39319 -0.05876,0.0708 -0.259222,0.42028 -0.445479,0.77665 -0.186257,0.35635 -0.50952,0.91417 -0.718363,1.23959 -0.322903,0.50315 -0.364322,0.6227 -0.276844,0.79911 0.05658,0.11409 0.115961,0.29079 0.131962,0.39265 0.02093,0.13326 0.136493,0.20644 0.412048,0.26093 0.924384,0.18281 2.02686,1.95433 2.335258,3.75241 0.08525,0.49706 -0.166745,1.04039 -0.708416,1.5274 -0.419525,0.37719 -0.514552,0.41831 -1.103241,0.47743 -0.668903,0.0672 -1.332174,-0.0543 -1.620544,-0.29676 -0.416653,-0.35034 -0.637352,0.0544 -0.235515,0.43187 0.260042,0.24429 0.524957,0.9731 0.524957,1.4442 0,0.48777 -0.24734,0.65386 -0.98403,0.66079 -0.337806,0.003 -0.614194,0.0336 -0.614194,0.0675 0,0.12209 0.385884,1.18022 0.566441,1.55324 0.101404,0.2095 0.225048,0.5691 0.274765,0.79911 0.04972,0.23002 0.194169,0.78544 0.321004,1.23427 0.126834,0.44883 0.27827,1.21033 0.336523,1.69223 0.05826,0.48191 0.168825,1.29925 0.245714,1.81632 0.170315,1.14536 0.192274,4.41963 0.03031,4.51973 -0.07578,0.0468 -0.08638,0.53819 -0.0376,1.74414 0.06143,1.51882 0.05295,1.68466 -0.08884,1.73907 -0.08621,0.0331 -0.19734,0.0196 -0.246959,-0.0301 -0.102374,-0.10237 -0.362293,-1.92566 -0.365954,-2.56712 -0.0013,-0.23268 -0.06721,-0.5473 -0.146394,-0.69916 -0.07919,-0.15185 -0.188199,-0.46915 -0.242246,-0.7051 -0.107469,-0.46916 -0.121267,-2.47431 -0.02446,-3.55493 0.05104,-0.56971 0.03796,-0.68159 -0.07965,-0.68159 -0.100462,0 -0.158038,0.14745 -0.201294,0.51549 -0.03332,0.28351 -0.165525,0.84407 -0.293783,1.24567 -0.128258,0.4016 -0.233737,0.85966 -0.234397,1.0179 -0.0013,0.32187 -0.364282,1.30921 -0.628088,1.70864 -0.340965,0.51626 -0.413282,0.64099 -0.559529,0.96506 -0.08167,0.18097 -0.211883,0.40041 -0.28936,0.48764 -0.19474,0.21926 -0.07712,0.35848 0.302852,0.35848 0.362514,0 0.514832,0.19114 0.514832,0.64607 0,0.30306 -0.226808,1.35872 -0.376529,1.75251 -0.207663,0.5462 -0.478546,2.14269 -0.380238,2.241 0.280829,0.28083 0.0171,1.51027 -1.208561,5.634 -0.21175,0.71243 -0.385,1.35524 -0.385,1.42846 0,0.0732 -0.09669,0.24553 -0.214868,0.38292 l -0.214867,0.2498 -1.12482,-0.28291 c -0.618651,-0.1556 -1.370143,-0.35027 -1.669982,-0.43258 -0.299839,-0.0823 -0.680592,-0.15306 -0.846118,-0.15719 -0.165526,-0.004 -0.554791,-0.0782 -0.865035,-0.16465 -0.554473,-0.15443 -0.564878,-0.16352 -0.611085,-0.53304 l -0.04701,-0.37594 -1.363191,-0.0644 c -1.159439,-0.0548 -1.489657,-0.1068 -2.209309,-0.34794 -0.699237,-0.2343 -0.907084,-0.35143 -1.197322,-0.67475 -0.368386,-0.41039 -0.635919,-0.44743 -0.635919,-0.0881 0,0.27683 -0.218335,0.32431 -0.729676,0.15868 -0.245019,-0.0794 -1.228148,-0.35608 -2.184732,-0.6149 -2.27209,-0.61478 -2.292156,-0.62279 -2.218247,-0.88514 0.03252,-0.11542 0.128277,-0.51605 0.2128,-0.89029 l 0.153678,-0.68044 -0.276444,-0.44714 c -0.152045,-0.24593 -0.345739,-0.46048 -0.430432,-0.47679 -0.08469,-0.0163 -0.33688,0.10395 -0.560417,0.26724 -0.368933,0.2695 -0.454135,0.29253 -0.923502,0.24956 -0.693169,-0.0634 -2.858819,-0.94421 -3.297863,-1.34123 -0.08163,-0.0738 -0.18,-0.13422 -0.218596,-0.13422 -0.0386,0 -0.363727,-0.17439 -0.722515,-0.38755 -0.661703,-0.3931 -1.119775,-0.83363 -1.119775,-1.07686 0,-0.22642 -0.269012,-0.15264 -1.257253,0.34479 -1.66576,0.83849 -1.945669,0.928 -2.703251,0.86448 -0.618829,-0.0519 -0.663084,-0.0433 -0.631175,0.12318 0.027,0.14082 0.144301,0.19143 0.55025,0.23742 0.283766,0.0321 0.642854,0.11212 0.797976,0.17773 0.155122,0.0656 0.415351,0.1768 0.578287,0.24709 0.162936,0.0703 0.493435,0.12781 0.73444,0.12781 0.467062,0 1.164552,0.18226 1.807176,0.47222 0.469644,0.21192 1.002703,0.89394 1.567916,2.00606 l 0.38889,0.76518 -0.0166,1.0498 c -0.0138,0.87286 -0.05565,1.14649 -0.248346,1.62355 -0.335974,0.83179 -0.868433,1.55257 -1.435367,1.94303 l -0.495689,0.34139 -1.48913,0.0789 c -2.258322,0.11966 -3.068131,-0.0733 -4.227798,-1.0075 -0.215531,-0.17362 -0.427061,-0.31541 -0.470066,-0.31508 -0.043,0 -0.148663,0.12446 -0.234796,0.27586 -0.249969,0.43938 -1.230601,0.97884 -2.24073,1.23267 -0.180975,0.0455 -0.984787,0.10437 -1.786249,0.13087 -1.325575,0.0438 -1.529387,0.0283 -2.256315,-0.1719 z m 7.032182,-7.78578 c 0.06205,-0.062 0.112816,-0.18861 0.112816,-0.28124 0,-0.0926 0.08461,-0.22127 0.188026,-0.28585 0.461626,-0.28829 0.07455,-0.46135 -0.537144,-0.24016 -0.386477,0.13975 -0.501562,0.46729 -0.258539,0.73583 0.191432,0.21153 0.334135,0.23213 0.494841,0.0714 z m 18.874644,-13.35456 c 0.03624,-0.11634 0.247603,-0.52882 0.4697,-0.91663 0.788356,-1.37655 0.816181,-1.4957 0.88914,-3.80753 0.06991,-2.2151 0.08329,-2.27955 0.664069,-3.19645 0.358223,-0.56554 0.633838,-1.27267 0.794647,-2.03877 0.284543,-1.35558 0.524871,-2.02148 1.367828,-3.79004 0.09858,-0.20683 0.319048,-0.56938 0.489922,-0.80566 0.171988,-0.23784 0.361854,-0.65828 0.425309,-0.94183 0.14052,-0.6279 0.427995,-1.12131 0.650099,-1.11578 0.09125,0.002 0.321335,0.0596 0.511305,0.12748 0.189969,0.0678 0.386305,0.0977 0.436301,0.0664 0.05,-0.0313 0.14361,-0.39542 0.20803,-0.80908 0.06442,-0.41365 0.344025,-1.47816 0.621346,-2.36555 0.43145,-1.3806 0.503969,-1.7198 0.502492,-2.35032 -0.0011,-0.4493 0.08918,-1.14049 0.2312,-1.77103 0.128109,-0.56878 0.283163,-1.39375 0.344564,-1.83326 0.0614,-0.43951 0.175617,-0.96833 0.253814,-1.17516 0.103624,-0.27409 0.14658,-0.80943 0.158414,-1.97428 0.01555,-1.53076 0.02867,-1.63327 0.310699,-2.42842 0.161955,-0.45661 0.42291,-1.03895 0.579901,-1.29409 0.256771,-0.41731 0.285576,-0.54165 0.286826,-1.23809 7.52e-4,-0.42581 0.06064,-1.02803 0.133065,-1.33828 0.225138,-0.96445 0.523638,-2.83039 0.523638,-3.27329 0,-0.2482 0.138031,-0.80456 0.334456,-1.34805 0.79971,-2.21277 0.931503,-2.88136 0.677237,-3.43566 -0.223096,-0.48634 -0.30719,-1.5507 -0.29934,-3.78865 l 0.0073,-2.06829 -1.558472,-0.018 c -1.54549,-0.0179 -3.074242,-0.17092 -3.246007,-0.32495 -0.04912,-0.044 -0.123691,-0.0801 -0.165709,-0.0801 -0.117115,0 -0.540305,1.01294 -0.688301,1.6475 -0.145215,0.62264 -0.383187,1.36451 -0.738115,2.30105 -0.127373,0.3361 -0.341523,0.90124 -0.475891,1.25587 -0.134366,0.35463 -0.288097,0.72661 -0.341625,0.82663 -0.06807,0.12719 -0.06325,0.38553 0.01601,0.85943 0.110931,0.66323 0.108148,0.68519 -0.131447,1.03718 -0.335729,0.49322 -0.654078,1.37788 -0.588862,1.63639 0.0296,0.11733 0.08008,0.32001 0.112176,0.45042 0.04135,0.16797 -0.01117,0.33927 -0.180136,0.58758 -0.217168,0.31914 -0.233869,0.41143 -0.186749,1.03208 0.03765,0.49584 0.08751,0.68159 0.182969,0.68159 0.07217,0 0.394358,-0.11178 0.715969,-0.24841 0.785009,-0.33349 2.642781,-0.43489 3.308646,-0.18059 0.512072,0.19556 0.895609,0.62519 0.895609,1.00324 0,0.41789 -0.201143,0.41671 -0.802724,-0.005 -0.53549,-0.37511 -0.558373,-0.38151 -1.363344,-0.38151 -1.219771,0 -1.681365,0.21248 -2.7238,1.25386 -0.40985,0.40944 -0.577976,0.99275 -0.361363,1.25376 0.08665,0.10441 0.128694,0.48653 0.136688,1.24242 0.0063,0.6004 0.05977,1.21073 0.118703,1.35629 0.05894,0.14556 0.107157,0.6428 0.107157,1.10499 0,1.01673 -0.137846,1.32765 -0.834587,1.8824 l -0.481597,0.38345 -7.52e-4,0.6736 c -9.87e-4,0.9376 -0.138942,1.74549 -0.476895,2.79282 -0.269796,0.83611 -0.346634,0.96384 -1.131049,1.88027 -0.462874,0.54076 -0.908964,1.11012 -0.991311,1.26524 -0.09957,0.18758 -0.174562,0.6914 -0.223881,1.50421 -0.179545,2.95902 -0.269179,3.72905 -0.474602,4.07722 -0.303023,0.51359 -0.553858,1.40997 -0.48768,1.74278 0.03181,0.15997 0.135038,0.41777 0.229394,0.5729 0.283614,0.46625 0.202516,1.1743 -0.209977,1.83325 -0.272057,0.43461 -0.296656,0.6179 -0.189253,1.4102 0.05958,0.43951 0.0987,1.45665 0.08694,2.26031 l -0.02139,1.46121 0.300449,0.43669 c 0.247381,0.35955 0.308058,0.55079 0.343526,1.08271 0.03089,0.46325 0.127476,0.82639 0.341387,1.28351 l 0.298309,0.63746 -0.04582,1.82481 c -0.04282,1.70548 -0.03485,1.82481 0.121869,1.82481 0.09223,0 0.197336,-0.0952 0.233573,-0.21153 z m 17.054353,-8.55795 c 0.416537,-0.21077 0.660914,-0.69157 0.660914,-1.3003 0,-0.6889 -0.253436,-1.37636 -0.835155,-2.26543 -0.530532,-0.81083 -0.61052,-0.8841 -1.056099,-0.96735 -0.316757,-0.0592 -0.344443,-0.0453 -0.404368,0.20312 -0.03538,0.14666 -0.103952,0.75316 -0.152381,1.3478 -0.04843,0.59463 -0.114184,1.38231 -0.146121,1.7504 -0.06766,0.77984 0.02566,1.02486 0.462728,1.21498 0.374051,0.16272 1.164263,0.17172 1.470482,0.0168 z M 105.38372,103.54636 c 0,-0.0429 0.22757,-0.37079 0.50571,-0.72876 0.32512,-0.41843 0.58874,-0.8896 0.73824,-1.31951 0.21142,-0.60795 0.5856,-1.21602 1.46344,-2.378186 0.55381,-0.733189 0.79281,-1.313276 0.87531,-2.124532 0.0988,-0.971587 0.57774,-2.336133 0.97604,-2.780851 0.24552,-0.274148 0.31481,-0.448454 0.36914,-0.928676 0.0496,-0.438562 0.17563,-0.792297 0.48809,-1.370207 0.53895,-0.996774 0.5972,-1.045466 1.06563,-0.890868 0.65727,0.21692 0.74119,0.140294 1.41169,-1.289056 0.33399,-0.712004 1.0002,-2.098365 1.48048,-3.080802 0.48027,-0.982438 0.87332,-1.850872 0.87344,-1.929854 0,-0.245863 -0.26334,-0.534368 -0.53698,-0.587432 -0.14405,-0.02793 -0.59339,-0.01764 -0.99852,0.02288 -0.63886,0.06389 -0.90155,0.1547 -1.97941,0.684262 -0.68353,0.335827 -1.53662,0.791411 -1.89575,1.012409 -0.35913,0.220997 -1.14727,0.686256 -1.75143,1.033908 -0.60417,0.347651 -1.2072,0.754029 -1.34007,0.90306 -0.22184,0.248792 -0.46158,0.704083 -1.18228,2.245242 -0.14509,0.310244 -0.30669,0.796762 -0.35913,1.081151 -0.0524,0.28439 -0.20399,0.849327 -0.33678,1.255415 -0.22022,0.673479 -0.36196,1.588994 -0.43875,2.834156 -0.016,0.258536 -0.0313,1.889228 -0.0341,3.62376 -0.005,2.930161 0.007,3.172751 0.17115,3.422571 0.14034,0.21409 0.16611,0.38086 0.12643,0.81836 -0.0449,0.49512 -0.0321,0.54948 0.12929,0.54948 0.0985,0 0.17911,-0.0351 0.17911,-0.0779 z M 68.373258,75.287892 c 0.100636,-0.262253 -1.054554,-1.695437 -1.227319,-1.522671 -0.02679,0.02679 0.08342,0.24818 0.244905,0.491979 0.161487,0.243801 0.293612,0.493774 0.293612,0.555498 0,0.168133 0.371661,0.607645 0.513838,0.607645 0.06828,0 0.14701,-0.0596 0.174964,-0.132451 z"
       id="path2056" />
  </g>
</svg>
