<?xml version="1.0" encoding="UTF-8" standalone="no"?>
<!-- Created with Inkscape (http://www.inkscape.org/) -->

<svg
   width="210mm"
   height="297mm"
   viewBox="0 0 210 297"
   version="1.1"
   id="svg5"
   inkscape:version="1.1.2 (b8e25be8, 2022-02-05)"
   sodipodi:docname="skater-jam_02.svg"
   xmlns:inkscape="http://www.inkscape.org/namespaces/inkscape"
   xmlns:sodipodi="http://sodipodi.sourceforge.net/DTD/sodipodi-0.dtd"
   xmlns="http://www.w3.org/2000/svg"
   xmlns:svg="http://www.w3.org/2000/svg">
  <sodipodi:namedview
     id="namedview7"
     pagecolor="#ffffff"
     bordercolor="#999999"
     borderopacity="1"
     inkscape:pageshadow="0"
     inkscape:pageopacity="0"
     inkscape:pagecheckerboard="0"
     inkscape:document-units="mm"
     showgrid="false"
     inkscape:zoom="0.16013082"
     inkscape:cx="346.59161"
     inkscape:cy="527.69354"
     inkscape:window-width="1660"
     inkscape:window-height="969"
     inkscape:window-x="0"
     inkscape:window-y="44"
     inkscape:window-maximized="0"
     inkscape:current-layer="layer1" />
  <defs
     id="defs2" />
  <g
     inkscape:label="Layer 1"
     inkscape:groupmode="layer"
     id="layer1">
    <path
       style="fill:#000000;stroke-width:0.0466526"
       d="m 90.839741,267.20114 c -0.04152,-0.0265 -0.198969,-0.0618 -0.349894,-0.0785 -0.513589,-0.0566 -0.612063,-0.15093 -0.823045,-0.78845 -0.07926,-0.23948 -0.09916,-0.48882 -0.137793,-1.72615 -0.06301,-2.01821 -0.06187,-3.17123 0.0042,-4.1754 0.06034,-0.91816 0.104651,-1.10993 0.351914,-1.52327 0.14313,-0.23926 0.144983,-0.24043 0.423676,-0.26625 0.153953,-0.0143 0.692511,-0.0257 1.196792,-0.0254 1.021463,5.6e-4 1.113191,-0.0189 1.42728,-0.30265 0.147609,-0.13335 0.221912,-0.16673 0.366712,-0.16471 0.447548,0.006 1.221342,-0.0771 1.296592,-0.13966 0.124129,-0.10318 0.08024,-0.33943 -0.07698,-0.41441 -0.138334,-0.066 -0.159594,-0.1472 -0.07428,-0.28381 0.06922,-0.11084 0.02896,-0.21286 -0.123397,-0.31269 -0.09817,-0.0643 -0.143144,-0.0692 -0.237965,-0.026 -0.06431,0.0293 -0.201786,0.0533 -0.305518,0.0533 -0.160415,0 -0.227856,-0.035 -0.451275,-0.23412 -0.340588,-0.30356 -0.665126,-0.41584 -0.967901,-0.33486 -0.114742,0.0307 -0.251047,0.0558 -0.302897,0.0558 -0.113473,0 -0.317102,-0.12514 -0.42932,-0.26383 -0.04496,-0.0556 -0.170921,-0.19313 -0.279916,-0.3057 -0.254737,-0.26309 -0.41497,-0.56301 -0.591079,-1.10633 -0.232675,-0.71784 -0.253631,-0.89264 -0.193542,-1.61416 0.02938,-0.3528 0.07363,-0.6792 0.09833,-0.72536 0.0247,-0.0462 0.04491,-0.16638 0.04491,-0.26717 0,-0.16731 0.107259,-0.47511 0.360946,-1.03584 0.05224,-0.11547 0.148425,-0.35945 0.213748,-0.54218 0.140466,-0.39295 0.438348,-0.89997 0.681897,-1.16064 0.09589,-0.10264 0.256515,-0.29158 0.356939,-0.41988 0.100425,-0.12829 0.207907,-0.25425 0.238847,-0.27991 0.03094,-0.0257 0.121479,-0.19361 0.201199,-0.37322 0.233426,-0.52593 0.338651,-0.72989 0.517284,-1.00268 0.09254,-0.14132 0.232386,-0.38655 0.310767,-0.54497 0.07839,-0.15841 0.241175,-0.45055 0.361758,-0.6492 0.310361,-0.51127 0.395516,-0.78855 0.395516,-1.28793 0,-0.3251 -0.02052,-0.45465 -0.09519,-0.60101 -0.09845,-0.19297 -0.328718,-0.36905 -0.483017,-0.36936 -0.0817,0 -0.08607,-0.0274 -0.05812,-0.36271 0.01663,-0.19939 0.06127,-0.50905 0.0992,-0.68812 0.03793,-0.17908 0.06933,-0.41147 0.06978,-0.51644 9.8e-4,-0.22764 0.166303,-1.04456 0.253785,-1.25393 0.0762,-0.18237 0.34188,-0.49131 0.422519,-0.49131 0.211546,0 1.3302,-0.67197 1.670045,-1.00319 0.261017,-0.25439 0.373366,-0.50281 0.345565,-0.7641 -0.04396,-0.41312 -0.170067,-1.27192 -0.211877,-1.44284 -0.02316,-0.0947 -0.06779,-0.32963 -0.09915,-0.52207 -0.03137,-0.19245 -0.07587,-0.41077 -0.09889,-0.48515 -0.02302,-0.0744 -0.04186,-0.26901 -0.04186,-0.43247 0,-0.28502 0.01154,-0.31475 0.281179,-0.72473 0.154649,-0.23514 0.293188,-0.47536 0.307861,-0.53383 0.03304,-0.13165 0.0052,-0.42138 -0.09568,-0.9962 -0.04278,-0.24376 -0.09552,-0.56916 -0.117177,-0.72312 -0.02166,-0.15395 -0.06196,-0.40587 -0.08955,-0.55983 -0.103275,-0.57625 -0.164278,-1.20379 -0.276645,-2.8458 -0.02282,-0.33357 -0.06607,-0.69046 -0.09609,-0.7931 -0.07315,-0.2501 -0.195483,-1.23137 -0.233225,-1.87085 -0.01949,-0.33014 -0.05379,-0.54581 -0.0946,-0.59482 -0.07488,-0.0899 -0.232446,-0.098 -0.333608,-0.0171 -0.09653,0.0772 -0.465438,0.7089 -0.465438,0.79701 0,0.0389 -0.02229,0.0845 -0.04953,0.10134 -0.02724,0.0168 -0.06918,0.0758 -0.09319,0.13105 -0.02402,0.0552 -0.06324,0.13193 -0.08716,0.17042 -0.02392,0.0385 -0.141875,0.26941 -0.262122,0.51317 -0.120243,0.24376 -0.266792,0.49569 -0.325659,0.55984 -0.05887,0.0641 -0.154895,0.2111 -0.213402,0.32656 -0.05851,0.11547 -0.152508,0.27292 -0.208897,0.3499 -0.05639,0.077 -0.155721,0.24492 -0.220741,0.37322 -0.06501,0.12829 -0.213757,0.36972 -0.330543,0.5365 -0.116781,0.16679 -0.278427,0.42921 -0.359206,0.58316 -0.08078,0.15395 -0.215353,0.37439 -0.299048,0.48985 -0.164357,0.22674 -0.431158,0.70981 -0.76011,1.37625 -0.113982,0.23093 -0.244371,0.47236 -0.28975,0.53651 -0.144819,0.20472 -0.784267,1.51049 -0.815543,1.66537 -0.01657,0.082 -0.164404,0.41433 -0.328527,0.73842 -0.331565,0.65473 -0.401245,0.93012 -0.483671,1.91157 -0.05775,0.68762 -0.104819,0.94511 -0.200406,1.09634 -0.11616,0.18377 -0.14083,0.44333 -0.07779,0.81847 0.08928,0.53133 -0.05113,1.3443 -0.414606,2.40056 -0.07234,0.21021 -0.515618,1.09823 -0.745214,1.49288 -0.325015,0.55866 -1.5819,1.93713 -2.076642,2.27752 -0.237844,0.16364 -0.445429,0.52036 -0.488144,0.83883 -0.03375,0.25162 -0.321021,0.57562 -0.758814,0.85584 -0.193337,0.12376 -0.477484,0.30985 -0.631438,0.41354 -0.621958,0.41892 -1.110275,0.69772 -1.273657,0.7272 -0.216589,0.0391 -0.326769,0.0934 -0.481025,0.23704 -0.06701,0.0624 -0.245458,0.17408 -0.396547,0.24815 -0.48138,0.236 -0.7126,0.54314 -0.644753,0.85643 0.03357,0.15503 0.359883,0.79527 0.469013,0.92023 0.03538,0.0405 0.06432,0.0859 0.06432,0.10079 0,0.0149 0.08397,0.17533 0.186611,0.35646 0.132376,0.23361 0.18661,0.38396 0.18661,0.51735 0,0.10342 -0.02018,0.18804 -0.04484,0.18804 -0.05427,0 -1.212304,0.56221 -1.806495,0.87703 -0.235633,0.12485 -0.603022,0.29579 -0.81642,0.37988 -0.213393,0.0841 -0.47581,0.21191 -0.583143,0.28405 -0.179958,0.12095 -0.852571,0.45944 -1.530993,0.77047 -0.256673,0.11767 -0.708144,0.32859 -1.453774,0.67914 -0.158105,0.0743 -0.307086,0.13515 -0.331065,0.13515 -0.02398,0 -0.109568,0.0329 -0.190193,0.0731 -0.08062,0.0402 -0.203424,0.0665 -0.272881,0.0583 -0.112488,-0.0132 -0.140424,-0.0556 -0.255548,-0.38803 -0.209046,-0.60363 -0.537489,-0.81314 -0.914442,-0.58331 -0.173716,0.10592 -0.273799,0.30113 -0.313771,0.612 -0.04507,0.35044 -0.09335,0.38548 -0.543279,0.39425 -0.674256,0.0131 -1.253345,0.22552 -2.200537,0.80704 -0.274718,0.16866 -0.800726,0.41541 -0.955967,0.44845 -0.08451,0.018 -0.294448,0.10267 -0.466526,0.18821 -0.48416,0.24066 -1.324056,0.56805 -1.552817,0.60529 -0.415996,0.0677 -0.920987,0.20293 -1.033686,0.27677 -0.06365,0.0417 -0.153771,0.16019 -0.20026,0.26328 -0.08003,0.17748 -0.08038,0.20063 -0.0066,0.43462 0.103233,0.32748 0.101884,0.33488 -0.07371,0.40363 -0.08339,0.0327 -0.284296,0.11917 -0.446456,0.19227 -0.162155,0.0731 -0.303568,0.1329 -0.314247,0.1329 -0.01068,0 -0.262365,0.11547 -0.559299,0.25659 -0.296939,0.14113 -0.548196,0.25659 -0.558357,0.25659 -0.01016,0 -0.201567,0.10536 -0.425359,0.23414 -0.223788,0.12877 -0.660368,0.35989 -0.970173,0.5136 -0.793286,0.39359 -1.263511,0.69292 -1.53884,0.97958 -0.325817,0.33923 -1.244355,0.83404 -1.616713,0.87091 l -0.259635,0.0257 -0.170016,-0.27395 c -0.09351,-0.15067 -0.288323,-0.51538 -0.432918,-0.81045 -0.144599,-0.29508 -0.318305,-0.60978 -0.386017,-0.69933 -0.06772,-0.0895 -0.187763,-0.32048 -0.266778,-0.51318 -0.142692,-0.34799 -0.278558,-0.59585 -0.569288,-1.03857 -0.08339,-0.12699 -0.15162,-0.24503 -0.15162,-0.26232 0,-0.0173 -0.09447,-0.1972 -0.209937,-0.39982 -0.215353,-0.3779 -0.243055,-0.48333 -0.16522,-0.62877 0.08604,-0.16076 0.346325,-0.42348 0.419565,-0.42348 0.101418,0 0.408789,-0.2145 0.469246,-0.32746 0.07274,-0.13592 -0.0089,-0.2524 -0.280508,-0.40023 -0.128229,-0.0698 -0.233146,-0.14414 -0.233146,-0.16522 0,-0.0594 -0.587916,-0.32006 -0.721856,-0.32006 -0.0699,0 -0.18884,0.0638 -0.28737,0.15406 -0.231411,0.21207 -0.257774,0.42107 -0.224814,1.78202 0.01491,0.61582 0.01001,1.17489 -0.01089,1.24238 -0.02452,0.0791 -0.236818,0.27703 -0.597843,0.55725 -0.565527,0.43896 -0.969366,0.65072 -1.357254,0.71168 -0.105015,0.0165 -0.291626,0.0746 -0.41469,0.12899 -0.325183,0.14384 -1.053901,0.11468 -1.423758,-0.057 -0.691558,-0.32097 -1.880035,-1.60261 -2.667481,-2.87657 -0.33603,-0.54364 -0.539198,-1.01315 -0.650325,-1.50286 -0.09723,-0.42846 -0.110862,-0.60388 -0.108796,-1.39958 0.003,-1.13973 0.05512,-1.58719 0.203428,-1.74506 0.167994,-0.17882 0.963824,-0.56569 1.403724,-0.68237 0.218101,-0.0579 0.453483,-0.13379 0.523073,-0.16876 0.06959,-0.035 0.292512,-0.10322 0.495385,-0.15168 0.202872,-0.0485 0.412225,-0.1113 0.465227,-0.13967 0.053,-0.0284 0.318258,-0.0516 0.589456,-0.0516 0.384218,0 0.526527,0.0183 0.644539,0.0828 0.242934,0.1328 0.422523,0.25694 0.553888,0.3829 0.379458,0.36382 0.504258,0.46736 0.563306,0.46736 0.07456,0 0.326354,0.25194 0.404912,0.40514 0.02874,0.056 0.05225,0.14161 0.05225,0.19014 0,0.10286 0.184469,0.29112 0.285257,0.29112 0.148019,0 0.181269,-0.10818 0.181269,-0.58974 0,-0.26819 0.02047,-0.49041 0.04665,-0.5066 0.07737,-0.0478 0.05248,-0.28351 -0.03866,-0.36599 -0.111527,-0.10093 -0.205397,-0.0974 -0.427865,0.0161 -0.100592,0.0513 -0.226134,0.0933 -0.278987,0.0933 -0.08831,0 -0.794022,-0.63964 -0.794022,-0.71968 0,-0.0181 -0.04812,-0.0998 -0.106928,-0.18149 -0.05881,-0.0817 -0.178642,-0.30596 -0.266292,-0.49841 -0.08765,-0.19244 -0.204763,-0.41315 -0.260247,-0.49047 -0.05548,-0.0773 -0.146555,-0.25577 -0.202379,-0.39655 -0.05582,-0.14078 -0.184,-0.41601 -0.284837,-0.61162 -0.100838,-0.19562 -0.238674,-0.51052 -0.306304,-0.69979 -0.06763,-0.18927 -0.152111,-0.37727 -0.187735,-0.41778 -0.03562,-0.0405 -0.06477,-0.14559 -0.06477,-0.23352 0,-0.28818 0.434285,-0.65901 1.243259,-1.0616 0.201441,-0.10025 0.471224,-0.24074 0.599518,-0.31219 0.128295,-0.0715 0.746567,-0.38959 1.373947,-0.70694 0.627374,-0.31736 1.173209,-0.6052 1.212967,-0.63966 0.03975,-0.0344 0.219239,-0.12058 0.398851,-0.19139 0.179613,-0.0708 0.561562,-0.23102 0.848774,-0.356 0.287216,-0.12498 0.544673,-0.22724 0.572128,-0.22724 0.02746,0 0.08637,-0.0184 0.130931,-0.0408 0.126307,-0.0636 0.717927,-0.19328 0.880054,-0.19284 0.158749,4.7e-4 0.22125,0.054 0.272479,0.23365 0.01829,0.0642 0.08384,0.24617 0.145668,0.40451 0.06182,0.15833 0.112405,0.36369 0.112405,0.45636 0,0.37801 0.293267,0.72532 0.612459,0.72532 0.111127,0 0.471178,-0.15616 1.171199,-0.50798 1.013388,-0.5093 1.150014,-0.58564 1.783463,-0.99656 0.187884,-0.12188 0.354788,-0.2216 0.370902,-0.2216 0.01611,0 0.118106,-0.0575 0.226648,-0.12775 0.108537,-0.0703 0.249829,-0.15361 0.313976,-0.18521 0.06415,-0.0316 0.242594,-0.15206 0.396547,-0.26767 0.605756,-0.4549 0.635907,-0.46648 1.282946,-0.49262 0.574065,-0.0232 0.587617,-0.0263 0.869175,-0.19827 0.157312,-0.0961 0.342308,-0.17471 0.411107,-0.17471 0.141385,0 0.578912,-0.13074 0.667463,-0.19944 0.08489,-0.0659 0.06864,-0.30915 -0.03499,-0.52368 -0.04958,-0.10264 -0.09085,-0.22182 -0.09172,-0.26486 -8.86e-4,-0.0431 -0.04953,-0.11652 -0.108131,-0.16329 -0.183821,-0.14669 -0.28794,-0.8444 -0.160051,-1.07248 0.09724,-0.17341 0.381949,-0.36269 1.197893,-0.79637 0.219067,-0.11644 0.579906,-0.32313 0.80186,-0.45933 0.469815,-0.28827 0.593589,-0.34393 1.252612,-0.56326 0.269419,-0.0897 0.731279,-0.28472 1.026357,-0.43346 0.295078,-0.14874 0.693957,-0.32495 0.886399,-0.39157 0.192442,-0.0666 0.465359,-0.16536 0.606484,-0.21943 0.4565,-0.17487 0.857735,-0.27788 1.082405,-0.27788 0.21309,0 0.226638,0.009 0.455012,0.2909 0.188658,0.23316 0.23538,0.32544 0.23538,0.46488 0,0.16403 0.08718,0.27058 0.2214,0.27058 0.105845,0 0.245126,-0.19891 0.245126,-0.35008 0,-0.11215 0.02787,-0.17473 0.09345,-0.20983 0.05139,-0.0275 0.188327,-0.19404 0.304296,-0.37007 0.24696,-0.37486 0.592353,-0.70589 1.079429,-1.03457 0.566106,-0.38201 0.580531,-0.38567 1.531921,-0.38872 l 0.839747,-0.003 0.280834,-0.17495 c 0.154462,-0.0962 0.303438,-0.17495 0.331066,-0.17495 0.117098,0 0.353706,-0.15945 0.524449,-0.35342 0.126195,-0.14337 0.215852,-0.31352 0.287497,-0.54561 0.05726,-0.18549 0.151406,-0.45273 0.209218,-0.59385 0.124226,-0.30324 0.285724,-0.75029 0.480326,-1.3296 0.07758,-0.23093 0.224669,-0.6613 0.326871,-0.95638 0.102202,-0.29508 0.231117,-0.69396 0.286475,-0.8864 0.05536,-0.19244 0.118791,-0.38354 0.14096,-0.42467 0.07418,-0.13762 0.380224,-1.27371 0.444847,-1.65137 0.104651,-0.61158 0.303554,-1.44438 0.41783,-1.74947 0.04325,-0.11546 0.09611,-0.30441 0.117471,-0.41987 0.02136,-0.11547 0.07443,-0.36739 0.117928,-0.55983 0.0435,-0.19244 0.10892,-0.55983 0.145379,-0.81642 0.192096,-1.35207 0.211513,-1.44547 0.462966,-2.2268 0.08862,-0.27536 0.161119,-0.5746 0.161119,-0.66497 0,-0.0904 0.04199,-0.24266 0.09331,-0.3384 0.05132,-0.0958 0.09331,-0.21244 0.09331,-0.25932 0,-0.0469 0.02889,-0.18365 0.0642,-0.30393 0.08328,-0.28367 0.21003,-0.7948 0.289265,-1.16647 0.06315,-0.29624 0.219617,-0.81801 0.310356,-1.03497 0.02683,-0.0642 0.07656,-0.2321 0.110506,-0.37322 0.122631,-0.50975 0.225182,-0.87424 0.420041,-1.49288 0.109106,-0.3464 0.233678,-0.75578 0.276822,-0.90973 0.04314,-0.15395 0.169652,-0.53184 0.281124,-0.83975 0.283055,-0.78185 0.285901,-0.79087 0.397172,-1.25962 0.05482,-0.23093 0.149942,-0.57052 0.211383,-0.75466 0.06144,-0.18414 0.11171,-0.38358 0.111705,-0.4432 -9e-6,-0.0596 0.05324,-0.29735 0.118334,-0.52828 0.06509,-0.23093 0.147847,-0.52484 0.183895,-0.65314 0.03605,-0.12829 0.21401,-0.69512 0.395456,-1.25962 0.181445,-0.56449 0.329628,-1.06447 0.329292,-1.11106 -4.66e-4,-0.0466 0.02187,-0.12671 0.04935,-0.17805 0.02747,-0.0513 0.06764,-0.19167 0.08925,-0.31184 0.02162,-0.12017 0.06311,-0.35302 0.09221,-0.51743 0.0291,-0.16442 0.117476,-0.52131 0.196398,-0.7931 0.163252,-0.56222 0.254192,-0.93662 0.320424,-1.31918 0.05804,-0.33523 -0.0219,-0.55541 -0.448163,-1.23447 -0.300671,-0.47897 -0.339402,-0.55472 -0.485611,-0.9496 -0.04275,-0.11546 -0.173968,-0.45136 -0.291593,-0.74644 -0.11763,-0.29508 -0.240349,-0.63097 -0.272717,-0.74644 -0.03237,-0.11546 -0.110109,-0.3254 -0.172759,-0.46653 -0.344655,-0.77636 -0.561893,-1.66221 -0.852324,-3.47561 -0.131486,-0.82098 -0.145257,-1.16401 -0.09284,-2.31301 0.02913,-0.63858 0.07279,-1.28211 0.09702,-1.43008 0.02424,-0.14797 0.04401,-0.51046 0.04394,-0.80554 0,-0.48479 0.04718,-0.81934 0.187959,-1.3296 0.02124,-0.077 0.0522,-0.3184 0.06881,-0.5365 0.01661,-0.2181 0.04903,-0.45953 0.07204,-0.53651 0.02301,-0.077 0.07317,-0.44436 0.111453,-0.81642 l 0.06962,-0.67646 0.260746,-0.23326 c 0.243079,-0.21746 0.268234,-0.26013 0.371243,-0.62981 0.140998,-0.50603 0.267487,-0.86319 0.392422,-1.10809 0.0544,-0.10663 0.143662,-0.31555 0.198358,-0.46428 0.271331,-0.73776 0.650402,-1.3996 1.184359,-2.06787 0.275064,-0.34425 0.722556,-0.99828 0.722556,-1.05604 0,-0.021 0.07846,-0.15208 0.174364,-0.29132 0.201324,-0.29231 0.574041,-0.65708 0.889436,-0.87045 0.315586,-0.21351 0.364669,-0.28349 0.472259,-0.67331 0.0692,-0.25071 0.163321,-0.44248 0.332036,-0.67647 0.129507,-0.17961 0.337778,-0.48402 0.462821,-0.67646 0.125048,-0.19244 0.291784,-0.43788 0.370529,-0.54542 0.07874,-0.10754 0.261245,-0.41195 0.405551,-0.67646 0.14431,-0.26452 0.276897,-0.49144 0.294639,-0.50427 0.09143,-0.0661 0.24083,-0.38619 0.266013,-0.56992 0.05337,-0.38936 -0.199822,-0.75129 -0.879639,-1.25747 -0.134994,-0.10051 -0.323274,-0.27105 -0.418404,-0.37898 -0.145085,-0.16461 -0.173277,-0.23099 -0.174947,-0.4119 -0.0023,-0.25523 0.145416,-0.62174 0.318511,-0.79002 0.285757,-0.2778 0.295488,-0.38961 0.09317,-1.07035 -0.08007,-0.26942 -0.161124,-0.60532 -0.180116,-0.74644 -0.01899,-0.14113 -0.08095,-0.44554 -0.137681,-0.67647 -0.113058,-0.46017 -0.116268,-0.47139 -0.346764,-1.21296 -0.225995,-0.72708 -0.295264,-0.98495 -0.355423,-1.32307 -0.05379,-0.30235 -0.25086,-0.92474 -0.386134,-1.2195 -0.109671,-0.23897 -0.44695,-1.2314 -0.547001,-1.60951 -0.07638,-0.28866 -0.119002,-0.4112 -0.275852,-0.7931 -0.173333,-0.42203 -0.258591,-0.68354 -0.471518,-1.44623 -0.0788,-0.28225 -0.161623,-0.55516 -0.184063,-0.60648 -0.02245,-0.0513 -0.12661,-0.33742 -0.231485,-0.63577 -0.104875,-0.29836 -0.253529,-0.69488 -0.330343,-0.88116 -0.07682,-0.18627 -0.139664,-0.36235 -0.139664,-0.39127 0,-0.0289 -0.04199,-0.13093 -0.09331,-0.22668 -0.05132,-0.0957 -0.09331,-0.21351 -0.09331,-0.2617 0,-0.0921 -0.220261,-0.65954 -0.455049,-1.17234 -0.264012,-0.57663 -0.401231,-0.96236 -0.456388,-1.28295 -0.01766,-0.10264 -0.216762,-0.5645 -0.442458,-1.02636 -0.455506,-0.93214 -0.698151,-1.49839 -0.814279,-1.90023 -0.0425,-0.14706 -0.09494,-0.27831 -0.116542,-0.29166 -0.0324,-0.02 -0.1924,-0.49783 -0.468934,-1.40036 -0.02359,-0.077 -0.0563,-0.29741 -0.0727,-0.48985 -0.01656,-0.19433 -0.09129,-0.52619 -0.168099,-0.74644 -0.295516,-0.84742 -0.4565,-1.36969 -0.575212,-1.8661 -0.04602,-0.19244 -0.141315,-0.52834 -0.21177,-0.74644 -0.07045,-0.21811 -0.174495,-0.59599 -0.23121,-0.83975 -0.05671,-0.24376 -0.12976,-0.52718 -0.162328,-0.62981 -0.234243,-0.73823 -0.331536,-1.19633 -0.440899,-2.07604 -0.07317,-0.58851 -0.08725,-5.35598 -0.01696,-5.73827 0.07726,-0.42017 0.15526,-1.01465 0.201997,-1.53953 0.0217,-0.24376 0.0619,-0.54817 0.08934,-0.67647 0.02743,-0.12829 0.06897,-0.45369 0.09232,-0.72311 0.02335,-0.26942 0.07684,-0.63681 0.118867,-0.81642 0.04202,-0.17961 0.09353,-0.42104 0.114452,-0.53651 0.02092,-0.11546 0.08119,-0.43037 0.13394,-0.69978 0.281371,-1.43721 0.448798,-2.64368 0.529623,-3.81641 0.04679,-0.67893 0.04381,-0.79249 -0.02778,-1.05695 -0.05514,-0.20372 -0.06626,-0.32318 -0.03556,-0.38233 0.02455,-0.0473 0.05489,-0.23299 0.06741,-0.4126 0.01702,-0.24414 0.07166,-0.44109 0.216458,-0.78028 0.189862,-0.44472 0.331299,-1.04279 0.471933,-1.99555 0.03219,-0.2181 0.137243,-0.63798 0.233445,-0.93305 0.103265,-0.31674 0.188994,-0.68939 0.209288,-0.90973 0.03659,-0.39735 0.09502,-0.54886 0.319379,-0.82811 0.202864,-0.25248 0.224959,-0.58277 0.05977,-0.89345 -0.173725,-0.32673 -0.160565,-0.40033 0.100233,-0.56053 0.477899,-0.29355 0.591853,-0.45893 0.688424,-0.99914 0.153085,-0.85635 0.327538,-1.44672 0.581291,-1.96719 0.326932,-0.67055 0.924547,-1.77793 1.094829,-2.02871 0.188476,-0.27758 0.189754,-0.28241 0.215539,-0.81642 0.0289,-0.59847 0.03373,-0.61518 0.28661,-0.99137 0.09953,-0.14807 0.197905,-0.36411 0.220247,-0.4837 0.05297,-0.28351 0.168602,-0.43124 0.470948,-0.60164 0.259515,-0.14626 0.355036,-0.27494 0.472712,-0.63682 0.190977,-0.58728 0.5657,-1.08265 1.307649,-1.72866 0.168747,-0.14692 0.341212,-0.34541 0.385089,-0.44319 0.04371,-0.0974 0.09832,-0.21909 0.121357,-0.2704 0.02304,-0.0513 0.0864,-0.22977 0.140788,-0.39655 0.135993,-0.41697 0.320098,-0.74929 0.662779,-1.19636 0.160173,-0.20897 0.515129,-0.67242 0.788788,-1.0299 0.46103,-0.60224 0.832035,-1.19943 0.832035,-1.33931 0,-0.0324 0.0426,-0.0974 0.09467,-0.14455 0.05207,-0.0471 0.214122,-0.26556 0.360121,-0.48542 0.145994,-0.21986 0.33009,-0.48371 0.409101,-0.58635 0.297121,-0.38596 0.300275,-0.40309 0.313776,-1.70282 0.0098,-0.94649 0.0264,-1.21348 0.08102,-1.30627 0.05252,-0.0892 0.07617,-0.37984 0.100607,-1.23629 0.0377,-1.32136 0.07744,-1.64314 0.243228,-1.96953 0.06799,-0.13385 0.123624,-0.26394 0.123624,-0.28908 0,-0.0251 0.07848,-0.17804 0.174402,-0.33978 0.161208,-0.27183 0.176496,-0.32937 0.202122,-0.7606 0.02165,-0.36437 0.05199,-0.5125 0.138572,-0.67646 0.102696,-0.19449 0.113842,-0.2872 0.15142,-1.25962 0.07859,-2.033487 0.07921,-2.300265 0.0056,-2.414274 -0.08119,-0.125738 -0.25693,-0.137327 -0.353809,-0.02333 -0.07813,0.09194 -0.251079,0.489045 -0.338394,0.776999 -0.08873,0.292624 -0.306274,0.718469 -0.539173,1.055435 -0.115778,0.167507 -0.262673,0.403914 -0.326438,0.52535 -0.06376,0.12144 -0.239276,0.36227 -0.390024,0.53519 -0.387679,0.44469 -0.450417,0.61201 -0.450417,1.20127 0,0.45921 0.0057,0.48705 0.116631,0.57434 0.06415,0.0505 0.116632,0.1103 0.116632,0.13298 0,0.0227 0.08185,0.20128 0.181894,0.3969 0.100041,0.19562 0.197186,0.42528 0.21587,0.51036 0.01869,0.0851 0.05133,0.18686 0.07255,0.22619 0.199771,0.3703 0.297718,2.4105 0.13037,2.71547 -0.039,0.0711 -0.06598,0.37434 -0.07815,0.87831 -0.01022,0.42337 -0.0375,0.78971 -0.06063,0.81409 -0.02312,0.0244 -0.04215,0.0978 -0.04228,0.16328 0,0.0654 -0.09341,0.31184 -0.207282,0.54757 -0.15428,0.31939 -0.290926,0.51691 -0.536258,0.77519 -0.181072,0.19061 -0.329222,0.36734 -0.329222,0.39271 0,0.0619 -0.493752,0.52619 -0.559621,0.52619 -0.02862,0 -0.360527,0.28883 -0.737573,0.64185 -0.377046,0.35303 -0.85349,0.79698 -1.058761,0.98657 -0.42425,0.39183 -1.423599,1.14165 -2.119945,1.59061 -1.223221,0.78864 -2.450254,1.53864 -2.840181,1.73598 -0.08427,0.0426 -0.141124,0.0413 -0.256589,-0.006 -0.306881,-0.12614 -0.400055,-0.11758 -0.772268,0.071 -0.19783,0.10022 -0.480032,0.29708 -0.635683,0.44343 -0.153954,0.14476 -0.479356,0.43659 -0.723115,0.64852 -0.24376,0.21194 -0.747608,0.6922 -1.119662,1.06726 -0.372054,0.37506 -0.79398,0.762 -0.937619,0.85988 -0.143634,0.0979 -0.324053,0.23433 -0.400932,0.30324 -0.359048,0.3218 -0.759084,0.51805 -1.540674,0.75581 -0.256262,0.078 -1.019452,0.0362 -1.218332,-0.0666 -0.349857,-0.18092 -0.516873,-0.089 -1.69862,0.93482 -0.07034,0.0609 -0.146111,0.1108 -0.168383,0.1108 -0.02227,0 -0.132666,0.0798 -0.245327,0.17743 -0.112662,0.0976 -0.361544,0.29887 -0.553062,0.44728 -0.422668,0.32754 -0.514853,0.46698 -0.514853,0.77873 0,0.19265 -0.0259,0.26709 -0.144063,0.41414 -0.119086,0.14818 -0.135358,0.19554 -0.09384,0.27311 0.02762,0.0516 0.07558,0.1023 0.106569,0.11263 0.06652,0.0222 0.350048,-0.0708 0.591634,-0.19409 0.09443,-0.0482 0.276178,-0.10301 0.403871,-0.12184 0.127693,-0.0188 0.465593,-0.11531 0.750892,-0.21439 0.365943,-0.12707 0.596798,-0.18012 0.78381,-0.18012 0.25839,0 0.266792,0.004 0.332684,0.16178 0.03718,0.089 0.0676,0.20052 0.0676,0.24787 0,0.0994 -0.193543,0.29178 -0.396547,0.39418 -1.001855,0.50533 -1.215561,0.58029 -2.29722,0.80575 -0.288434,0.0601 -0.590818,0.14243 -0.67197,0.18292 -0.08115,0.0405 -0.171877,0.0736 -0.201623,0.0736 -0.08608,0 -0.28723,0.24199 -0.345108,0.41517 -0.02915,0.0872 -0.05326,0.24468 -0.05358,0.3499 -9.33e-4,0.30857 -0.269909,1.20303 -0.457354,1.52091 -0.09646,0.16359 -0.475119,1.10234 -0.475119,1.1779 0,0.0221 -0.0393,0.12825 -0.08732,0.2359 -0.159659,0.35785 -0.285897,0.73428 -0.285897,0.85254 0,0.0643 -0.06298,0.25154 -0.139957,0.41618 -0.07698,0.16464 -0.139958,0.32619 -0.139958,0.35899 0,0.0328 -0.0914,0.19638 -0.203107,0.36351 -0.111709,0.16712 -0.27316,0.42385 -0.358777,0.57051 -0.08562,0.14665 -0.199575,0.3146 -0.253225,0.37322 -0.216599,0.23662 -0.340732,0.44691 -0.420933,0.71305 -0.04639,0.15396 -0.143172,0.36625 -0.215068,0.47177 -0.0719,0.10551 -0.175507,0.35744 -0.230249,0.55983 -0.05474,0.20239 -0.141255,0.45196 -0.192251,0.55459 -0.06349,0.1278 -0.113169,0.38813 -0.157606,0.82598 -0.05738,0.56537 -0.08453,0.68075 -0.234597,0.99699 -0.146023,0.30771 -0.252059,0.43914 -0.759737,0.94164 -1.062242,1.05144 -1.569533,1.34112 -2.910748,1.66212 -0.578459,0.13846 -1.290205,0.20098 -1.528114,0.13425 -0.08981,-0.0252 -0.34257,-0.18126 -0.561702,-0.34684 -0.664575,-0.50215 -0.998785,-0.52397 -1.443795,-0.0943 -0.232852,0.22484 -0.310557,0.39586 -0.264049,0.58117 0.0146,0.0582 0.172036,0.28859 0.349857,0.51204 0.482966,0.6069 0.621217,0.87432 0.604072,1.16848 -0.01498,0.25706 0.0083,0.23087 -0.465611,0.52301 -0.08326,0.0513 -0.200187,0.16582 -0.259846,0.25445 -0.09174,0.13628 -0.106844,0.21228 -0.09789,0.4927 0.0077,0.24107 -0.0096,0.36045 -0.06355,0.4374 -0.04077,0.0582 -0.292861,0.21547 -0.560194,0.34947 -0.692842,0.34729 -1.022214,0.61363 -1.204808,0.97426 -0.081,0.15998 -0.1664,0.3143 -0.189764,0.34293 -0.043,0.0527 -0.328863,0.11625 -0.881202,0.19593 -0.166783,0.0241 -0.489441,0.0806 -0.717022,0.1256 -0.354531,0.0701 -0.449003,0.0734 -0.65977,0.0228 -0.220088,-0.0528 -0.264851,-0.0498 -0.425094,0.0289 -0.09851,0.0483 -0.240284,0.1758 -0.315058,0.28324 -0.123257,0.17711 -0.136576,0.23376 -0.142603,0.60649 -0.0044,0.27176 -0.03526,0.48466 -0.09107,0.62805 -0.08289,0.21296 -0.09124,0.21917 -0.45824,0.34047 -0.339216,0.11211 -0.397275,0.11867 -0.62731,0.0709 -0.231788,-0.0481 -0.295268,-0.093 -0.741342,-0.52464 -0.268317,-0.25961 -0.545032,-0.55709 -0.614918,-0.66107 -0.06989,-0.10398 -0.215666,-0.30666 -0.323951,-0.45042 -0.108285,-0.14375 -0.275199,-0.39568 -0.370911,-0.55983 -0.09571,-0.16415 -0.25957,-0.41083 -0.364124,-0.54818 -0.236458,-0.31061 -0.277102,-0.38648 -0.378576,-0.70666 -0.04473,-0.14112 -0.225607,-0.54128 -0.401958,-0.88925 -0.313189,-0.61798 -0.321315,-0.64303 -0.349983,-1.07946 -0.03825,-0.58232 0.04056,-1.2126 0.247986,-1.98327 0.160392,-0.59592 0.316398,-0.93203 0.702756,-1.51407 0.144842,-0.2182 0.337023,-0.684 0.338464,-0.82036 6.07e-4,-0.0577 -0.03276,-0.29915 -0.07416,-0.53651 -0.05219,-0.29925 -0.06788,-0.58173 -0.05116,-0.92141 0.02377,-0.48305 0.05653,-0.59913 0.289661,-1.02635 0.035,-0.0642 0.106219,-0.2562 0.15825,-0.42677 0.1338,-0.43861 0.04678,-0.69428 -0.323698,-0.95102 -0.154607,-0.10714 -0.184399,-0.15386 -0.184399,-0.28918 0,-0.32979 0.259868,-0.53003 1.262787,-0.97306 0.296818,-0.13112 0.693658,-0.33078 0.881869,-0.44369 0.579588,-0.34771 1.03683,-0.57782 1.371441,-0.69021 0.176221,-0.0592 0.438641,-0.17642 0.583157,-0.26053 0.499309,-0.29061 0.807878,-0.44158 0.961388,-0.47038 0.08475,-0.0159 0.340998,-0.16871 0.569442,-0.33959 0.228444,-0.17087 0.477452,-0.34207 0.553346,-0.38043 0.401138,-0.20277 1.84887,-1.9085 1.971706,-2.32309 0.0282,-0.0952 0.08754,-0.29665 0.131873,-0.44771 0.04433,-0.15106 0.126736,-0.32951 0.183116,-0.39655 0.0977,-0.11616 0.166988,-0.2288 0.433687,-0.70505 0.06466,-0.11546 0.183951,-0.28874 0.265094,-0.38505 0.08114,-0.0963 0.237377,-0.34205 0.347193,-0.54609 0.202439,-0.37612 0.549007,-0.81783 1.0431,-1.32945 0.149769,-0.15509 0.326069,-0.37644 0.391779,-0.49191 0.06571,-0.11546 0.229018,-0.37788 0.362906,-0.58316 0.133888,-0.20527 0.297984,-0.46825 0.36466,-0.58441 0.09856,-0.17171 0.180405,-0.24018 0.437797,-0.36623 0.819742,-0.40144 0.889455,-0.45447 1.306524,-0.99387 0.204735,-0.26478 0.470902,-0.57202 0.59148,-0.68275 0.215703,-0.19809 0.725046,-0.47503 0.873793,-0.4751 0.144344,0 0.408579,-0.13935 0.548602,-0.28917 0.07729,-0.0827 0.249307,-0.37164 0.382253,-0.64207 0.132945,-0.27043 0.296701,-0.57602 0.363899,-0.67908 0.200317,-0.3072 0.23296,-0.36191 0.361418,-0.60571 0.184245,-0.34968 0.244394,-0.72434 0.171844,-1.07038 -0.07015,-0.33458 -0.07842,-1.01855 -0.01667,-1.37888 0.09951,-0.58073 0.250925,-1.19967 0.330972,-1.35293 0.183391,-0.35112 0.406152,-0.82359 0.440302,-0.93385 0.04431,-0.14308 0.218386,-0.45126 0.452665,-0.80139 0.09778,-0.14614 0.177779,-0.27758 0.177779,-0.2921 0,-0.0391 0.589876,-0.88866 0.894265,-1.28797 0.527468,-0.69194 1.149566,-1.26648 1.454417,-1.34325 0.239655,-0.0603 0.332489,-0.15547 0.522453,-0.53537 0.192741,-0.38545 0.545318,-1.02849 0.579826,-1.05751 0.07865,-0.0662 0.671751,-0.92386 0.937162,-1.35527 0.09133,-0.14846 0.242789,-0.35485 0.33657,-0.45865 0.09378,-0.10381 0.226704,-0.27873 0.295395,-0.38871 0.06869,-0.10999 0.200648,-0.28737 0.29324,-0.39419 0.09259,-0.10682 0.273318,-0.33707 0.401613,-0.51168 0.128295,-0.1746 0.321572,-0.41753 0.429502,-0.53983 0.107931,-0.12231 0.216151,-0.25957 0.24048,-0.30504 0.0695,-0.12986 0.193091,-0.915798 0.193091,-1.227927 0,-0.33052 0.244669,-1.577245 0.383344,-1.953348 0.139528,-0.378428 0.631279,-1.195487 0.889945,-1.478687 0.226069,-0.247506 0.653751,-0.520983 1.362581,-0.871283 0.205272,-0.101442 0.499183,-0.27372 0.653136,-0.382836 0.312979,-0.221824 0.798576,-0.489428 0.888135,-0.489428 0.112852,0 0.33079,-0.311938 0.506945,-0.725611 0.09776,-0.229558 0.196492,-0.437321 0.219412,-0.461697 0.02292,-0.02438 0.04167,-0.07483 0.04167,-0.112116 0,-0.09833 0.251803,-0.609735 0.392591,-0.797343 0.06632,-0.08837 0.120587,-0.185892 0.120587,-0.216706 0,-0.03081 0.138624,-0.323074 0.308047,-0.64947 0.384096,-0.739956 0.405584,-0.813257 0.336505,-1.1477 -0.04769,-0.230893 -0.0436,-0.293333 0.0322,-0.49121 0.05534,-0.144469 0.09833,-0.421282 0.118535,-0.763194 0.03457,-0.584995 0.08671,-0.777661 0.27775,-1.026357 0.06899,-0.08981 0.204362,-0.305667 0.300826,-0.479696 0.149605,-0.269899 0.180461,-0.376201 0.209899,-0.723115 0.05223,-0.615515 0.151434,-0.79781 0.748704,-1.375817 0.593812,-0.574662 0.542784,-0.406372 0.58318,-1.923346 0.02939,-1.103716 0.08891,-1.612271 0.270254,-2.309303 0.06342,-0.24376 0.162029,-0.663633 0.219132,-0.933052 0.0571,-0.269418 0.133468,-0.589441 0.169699,-0.711162 0.03623,-0.121721 0.07889,-0.321161 0.09479,-0.4432 0.01591,-0.122038 0.04428,-0.242882 0.06305,-0.268541 0.01877,-0.02566 0.04873,-0.127632 0.06658,-0.226601 0.05152,-0.285598 0.57817,-1.831683 0.752473,-2.209037 0.08718,-0.188724 0.214066,-0.48418 0.281978,-0.656566 0.385126,-0.977553 0.979177,-2.128071 1.330111,-2.576085 0.07035,-0.08981 0.197593,-0.299874 0.282766,-0.466815 0.227949,-0.446787 0.775725,-1.282009 1.028349,-1.567966 0.121199,-0.137191 0.278563,-0.339057 0.349698,-0.448588 0.902858,-1.390144 1.692589,-2.207105 2.519529,-2.6064 0.470757,-0.22731 0.963058,-0.415236 1.087765,-0.415236 0.05122,0 0.244926,-0.05315 0.430473,-0.118115 0.572171,-0.200336 1.061066,-0.31239 1.620302,-0.371383 0.29508,-0.03113 0.66247,-0.08894 0.81642,-0.128467 0.55677,-0.142971 1.84086,-0.326983 2.86914,-0.411154 0.63647,-0.0521 0.88811,-0.09051 1.14298,-0.174457 0.56906,-0.187431 0.79067,-0.242654 0.97374,-0.242654 0.27196,0 0.41447,-0.05674 0.51046,-0.203237 0.0984,-0.150231 0.0678,-0.227222 -0.14714,-0.369442 -0.10608,-0.0702 -0.22112,-0.210716 -0.29975,-0.366111 -0.10804,-0.213557 -0.12759,-0.310604 -0.12759,-0.633509 0,-0.583484 0.21305,-1.359923 0.392,-1.428591 0.10182,-0.03907 0.0939,-0.232764 -0.0134,-0.329923 -0.0484,-0.04378 -0.0999,-0.139547 -0.1146,-0.212824 -0.0182,-0.09115 -0.1431,-0.234056 -0.39541,-0.452474 -0.34865,-0.301842 -0.37777,-0.34215 -0.53398,-0.739126 -0.27278,-0.693216 -0.28301,-0.736458 -0.19023,-0.8043 0.0442,-0.03233 0.10737,-0.05877 0.14038,-0.05877 0.033,0 0.0945,-0.05261 0.13657,-0.116907 0.0649,-0.09908 0.0677,-0.138488 0.018,-0.258446 -0.0773,-0.186722 -0.21532,-0.277783 -0.42089,-0.277783 -0.1477,0 -0.21406,-0.046 -0.5552,-0.384884 -0.2131,-0.211686 -0.41831,-0.458362 -0.45601,-0.548168 -0.093,-0.221488 -0.27846,-0.409227 -0.43904,-0.444501 -0.23032,-0.05058 -0.34161,-0.269895 -0.36043,-0.710332 -0.0148,-0.346335 -0.004,-0.40968 0.11098,-0.62981 0.0701,-0.134607 0.18797,-0.321576 0.26197,-0.415479 0.074,-0.0939 0.16631,-0.260811 0.20515,-0.370902 0.0389,-0.110095 0.10681,-0.240158 0.15104,-0.289027 0.12063,-0.1333 0.10847,-0.494204 -0.021,-0.623698 -0.14824,-0.148234 -0.27774,-0.207011 -0.54601,-0.247828 -0.22076,-0.03359 -0.54215,-0.145635 -0.89588,-0.312325 -0.17619,-0.08302 -0.55138,-0.42117 -0.62132,-0.559975 -0.0282,-0.05604 -0.0513,-0.289942 -0.0513,-0.519771 v -0.417872 l 0.23637,-0.23762 c 0.13,-0.130688 0.30321,-0.269932 0.38488,-0.309428 0.15246,-0.07372 0.58877,-0.593911 0.755,-0.900129 0.0513,-0.09454 0.10483,-0.182519 0.11892,-0.195512 0.0141,-0.01299 0.12564,-0.175409 0.2479,-0.360932 0.12226,-0.185523 0.24374,-0.350575 0.26996,-0.366783 0.0262,-0.01621 0.20207,-0.242299 0.39077,-0.502429 0.18869,-0.26013 0.41699,-0.567436 0.50733,-0.682901 0.17233,-0.220249 0.40067,-0.637149 0.40101,-0.732133 4.6e-4,-0.08893 -0.1946,-0.200918 -0.3497,-0.200918 -0.28694,0 -0.43202,-0.225895 -0.3016,-0.469593 0.0647,-0.120885 0.14607,-0.113658 0.29719,0.02639 0.15393,0.142659 0.23132,0.14631 0.36061,0.01701 0.09,-0.08994 0.0968,-0.132987 0.0706,-0.443293 -0.0356,-0.421669 -0.10928,-0.605508 -0.34667,-0.865513 -0.10177,-0.111466 -0.21827,-0.306894 -0.2614,-0.438483 -0.10508,-0.320682 -0.16676,-0.374238 -1.01605,-0.88227 -0.21323,-0.127549 -0.62521,-0.403162 -0.97506,-0.652317 -0.0915,-0.06516 -0.28778,-0.161146 -0.4362,-0.21331 -0.14841,-0.05216 -0.32982,-0.139183 -0.40312,-0.193376 -0.23438,-0.173289 -0.24104,-0.265373 -0.0905,-1.250299 0.0294,-0.192442 0.0817,-0.538838 0.11616,-0.769768 0.0898,-0.601409 0.17539,-0.858865 0.41933,-1.260699 0.11844,-0.19511 0.23313,-0.400647 0.25485,-0.456749 0.0217,-0.0561 0.17092,-0.257901 0.33151,-0.448443 0.16059,-0.190542 0.44489,-0.589422 0.63178,-0.886399 0.18688,-0.296977 0.37903,-0.592443 0.427,-0.65659 0.048,-0.06415 0.1475,-0.2216 0.22118,-0.349895 0.0737,-0.128294 0.19975,-0.327734 0.28013,-0.443199 0.0804,-0.115466 0.15941,-0.245282 0.1756,-0.288483 0.0649,-0.173224 0.71538,-1.098145 0.8798,-1.251053 0.0966,-0.08981 0.32907,-0.292945 0.51667,-0.451419 0.18761,-0.158474 0.47756,-0.404948 0.64434,-0.54772 0.66004,-0.565014 1.34018,-1.044972 1.82444,-1.28745 0.11273,-0.05644 0.44194,-0.242093 0.73159,-0.412561 0.88309,-0.51972 0.95362,-0.556958 1.33946,-0.707197 0.20527,-0.07993 0.4467,-0.174232 0.53651,-0.209563 0.0898,-0.03533 0.21576,-0.07821 0.27991,-0.09528 0.0641,-0.01707 0.36129,-0.133752 0.66032,-0.259292 0.29903,-0.125539 0.60424,-0.228253 0.67824,-0.228253 0.12557,0 0.2286,-0.04573 0.70999,-0.315142 0.12765,-0.07144 0.3223,-0.1191 0.6065,-0.148503 0.23018,-0.02381 0.46427,-0.06779 0.52021,-0.09773 0.0559,-0.02994 0.32485,-0.07359 0.59758,-0.09701 0.6063,-0.05207 0.88021,-0.128001 1.2363,-0.342747 0.28842,-0.173927 0.48322,-0.204771 0.71443,-0.113115 0.17277,0.06849 2.53291,0.106814 3.21346,0.05218 0.43367,-0.03481 0.56462,-0.065 0.81862,-0.188747 0.38519,-0.187654 0.52808,-0.21451 0.78783,-0.148078 0.81851,0.209334 0.92015,0.22338 1.17504,0.162401 0.13633,-0.03261 0.40809,-0.145629 0.60391,-0.251147 0.33696,-0.181563 0.37723,-0.191851 0.75109,-0.191851 0.36139,0 0.41252,0.01185 0.60033,0.139109 0.11291,0.07651 0.25444,0.13949 0.31451,0.139957 0.0601,4.67e-4 0.19515,0.07441 0.30019,0.164319 0.10504,0.08991 0.25533,0.18196 0.33398,0.204558 0.0787,0.0226 0.32341,0.114596 0.5439,0.204437 0.22049,0.08984 0.47242,0.178618 0.55983,0.19728 0.0874,0.01866 0.26391,0.08183 0.39221,0.140379 0.12829,0.05855 0.34872,0.131364 0.48985,0.161818 0.43248,0.09333 1.23065,0.331601 1.33542,0.398657 0.0545,0.03489 0.23247,0.117618 0.39542,0.183832 0.16296,0.06621 0.43325,0.202673 0.60066,0.303241 0.1674,0.100567 0.48418,0.254934 0.70395,0.343038 0.43293,0.17356 1.0537,0.553411 1.41067,0.863189 0.12324,0.106944 0.26958,0.2188 0.3252,0.248569 0.37206,0.199121 1.51795,1.320912 1.96935,1.927933 0.0758,0.101909 0.2776,0.338673 0.4485,0.526142 0.17088,0.187469 0.3933,0.46098 0.49425,0.607804 0.10095,0.146824 0.27985,0.4045 0.39756,0.572615 0.1177,0.168115 0.35972,0.601425 0.53781,0.962912 0.30896,0.627115 0.32519,0.676736 0.35398,1.08232 0.0328,0.461829 0.10956,0.8243 0.31248,1.475127 0.0721,0.231211 0.15496,0.5986 0.18415,0.81642 0.0292,0.21782 0.0968,0.626967 0.15019,0.909215 0.15763,0.833152 0.20006,2.467277 0.0884,3.405639 -0.0275,0.23093 -0.071,0.724281 -0.0966,1.096335 -0.0443,0.641438 -0.19178,1.638368 -0.3486,2.355956 -0.15768,0.721547 -0.21207,1.089818 -0.21213,1.436405 0,0.41839 -0.0789,1.225442 -0.13307,1.36275 -0.0203,0.05132 -0.15607,0.337135 -0.30184,0.635151 -0.20883,0.426988 -0.30229,0.567683 -0.4409,0.663741 -0.0967,0.06704 -0.212,0.183027 -0.25615,0.257751 -0.0441,0.07472 -0.13675,0.150034 -0.20581,0.16737 -0.20698,0.05195 -0.51276,0.252741 -0.64108,0.420965 -0.16118,0.211313 -0.20301,0.332764 -0.28122,0.816355 -0.0373,0.230814 -0.12652,0.539836 -0.20408,0.707071 -0.0758,0.163387 -0.19331,0.446209 -0.26121,0.628499 -0.0907,0.243466 -0.22694,0.460653 -0.51347,0.818296 -0.21453,0.267772 -0.44485,0.51183 -0.51183,0.54235 -0.15648,0.07129 -0.30779,0.319855 -0.30801,0.505962 -4.7e-4,0.2071 0.14938,0.370468 0.48958,0.534545 0.1627,0.07847 0.41822,0.249325 0.56783,0.379682 0.51,0.44437 1.06465,0.946156 1.26643,1.145722 0.11078,0.109568 0.33408,0.25936 0.49621,0.332876 0.16214,0.07352 0.3366,0.172815 0.3877,0.220662 0.71887,0.673098 1.14986,1.157548 1.34331,1.509896 0.0493,0.08981 0.15811,0.250791 0.24179,0.357746 0.0837,0.106956 0.15215,0.223742 0.15215,0.259524 0,0.0884 0.22685,0.298614 0.38792,0.359468 0.0722,0.02729 0.25068,0.04955 0.39655,0.04947 0.14586,0 0.48228,0.03515 0.7476,0.07829 0.45422,0.07387 0.49512,0.08988 0.70013,0.27421 0.15298,0.137537 0.24426,0.270357 0.3069,0.446549 0.12444,0.350016 0.18336,0.428598 0.51943,0.692698 0.22328,0.17546 0.30719,0.274826 0.34365,0.406895 0.0675,0.244506 0.0143,0.275954 -0.31201,0.184389 -0.44359,-0.12446 -1.11323,-0.07017 -1.48065,0.120051 -0.077,0.03985 -0.27642,0.109671 -0.4432,0.155162 -0.63408,0.172946 -1.2992,0.616416 -1.30459,0.869842 -0.003,0.152829 -0.32802,0.269335 -0.75349,0.270301 -0.24086,5.59e-4 -0.33561,0.02194 -0.43154,0.0974 -0.14732,0.115885 -0.15477,0.196566 -0.029,0.313767 0.10273,0.09571 0.95422,0.563815 1.20658,0.663311 0.15533,0.06124 0.54916,0.30801 1.01254,0.634428 0.13037,0.09183 0.33293,0.222664 0.45014,0.290735 0.33764,0.196085 0.60045,0.384515 0.85831,0.61538 0.1324,0.118544 0.35883,0.259948 0.50715,0.316706 0.25311,0.09686 1.00297,0.561603 1.38917,0.860973 0.0969,0.07508 0.30679,0.192605 0.46652,0.261161 0.15973,0.06856 0.37922,0.181838 0.48775,0.251742 0.10855,0.0699 0.21727,0.1271 0.2416,0.1271 0.0243,0 0.072,0.02761 0.1059,0.06137 0.0339,0.03375 0.16661,0.121586 0.29491,0.195185 0.12829,0.0736 0.30976,0.192946 0.40326,0.265202 0.0935,0.07226 0.18797,0.131849 0.20993,0.132418 0.022,5.6e-4 0.21839,0.147852 0.43649,0.327301 0.2181,0.179444 0.50558,0.398394 0.63883,0.486558 0.13328,0.08816 0.50067,0.418535 0.81642,0.734163 0.31577,0.315628 0.64761,0.637377 0.73742,0.714993 0.20277,0.175259 0.7531,1.017982 1.05015,1.608114 0.1227,0.24376 0.26268,0.499878 0.31109,0.569152 0.0484,0.06927 0.14149,0.247716 0.20685,0.396547 0.0654,0.148827 0.13746,0.312582 0.16022,0.3639 0.0228,0.05132 0.12876,0.334732 0.23556,0.62981 0.1068,0.295077 0.25221,0.662466 0.32312,0.81642 0.2493,0.541212 0.41187,1.029221 0.43728,1.312538 0.0141,0.157396 0.0554,0.377829 0.0918,0.489852 0.0363,0.112017 0.14365,0.466092 0.23842,0.786828 0.0948,0.320737 0.19976,0.646138 0.2333,0.723115 0.12789,0.29365 0.51042,1.275454 0.63616,1.632841 0.0722,0.205271 0.19248,0.544892 0.26723,0.754712 0.0747,0.209825 0.15047,0.461749 0.16829,0.559831 0.0279,0.153361 0.46343,1.399055 0.58435,1.671222 0.0228,0.05132 0.0871,0.250758 0.14288,0.443199 0.0558,0.192442 0.12806,0.433869 0.16063,0.536505 0.16076,0.506629 0.2577,1.124696 0.2577,1.643076 0,0.644646 0.10007,1.012874 0.46631,1.71591 0.17378,0.333566 0.33106,0.658968 0.34953,0.723115 0.0185,0.06415 0.11331,0.284581 0.21077,0.489852 0.28514,0.60055 0.69954,1.627812 0.69954,1.734105 0,0.05393 -0.0544,0.133566 -0.12099,0.177219 -0.23615,0.154728 -0.2939,0.392759 -0.32393,1.335127 -0.0277,0.87029 -0.12714,1.498276 -0.26307,1.661868 -0.0837,0.100755 -0.0832,1.470858 9.3e-4,2.252849 0.0345,0.32074 0.0828,1.31794 0.10726,2.216 0.0507,1.85937 0.12797,5.13206 0.14809,6.27478 0.007,0.42337 0.0383,0.85447 0.0685,0.95801 0.10881,0.37313 0.49779,0.60317 1.11783,0.66107 0.21714,0.0203 0.30781,0.0498 0.34051,0.11092 0.0871,0.16282 0.22022,0.89639 0.32516,1.79227 0.10186,0.86959 0.27039,1.67938 0.41607,1.99916 0.0504,0.11056 0.13524,0.3148 0.18861,0.45386 0.0534,0.13905 0.11631,0.29481 0.13989,0.34613 0.0436,0.095 0.15699,0.38031 0.31174,0.78464 0.0473,0.12363 0.17613,0.33107 0.28626,0.46096 0.11013,0.12989 0.2337,0.30165 0.2746,0.38168 0.0409,0.08 0.13975,0.22189 0.21964,0.31523 0.29822,0.3484 0.36352,0.45702 0.79857,1.32821 0.60166,1.20487 0.674,1.55177 0.48894,2.34454 -0.15597,0.66812 -0.23352,0.88928 -0.5339,1.52259 -0.15822,0.33356 -0.33841,0.73244 -0.40044,0.88639 -0.11799,0.29285 -0.58124,1.21251 -0.95175,1.88943 -0.11938,0.2181 -0.27204,0.51202 -0.33925,0.65314 -0.0672,0.14112 -0.27908,0.51901 -0.47081,0.83975 -0.7101,1.18793 -1.10547,1.92422 -1.15235,2.14602 -0.019,0.0898 -0.0714,0.21576 -0.11658,0.27991 -0.12105,0.17201 -0.39741,1.03432 -0.48594,1.51621 -0.31338,1.70586 -0.34037,1.81849 -0.53374,2.22671 -0.10611,0.22399 -0.19292,0.41839 -0.19292,0.432 0,0.0136 -0.12427,0.178 -0.27614,0.36532 -0.28844,0.35578 -0.49515,0.55102 -0.87321,0.82481 -0.31981,0.2316 -0.56487,0.49895 -0.62537,0.68226 -0.0496,0.15031 -0.0624,0.15748 -0.27999,0.15748 -0.18753,0 -0.25672,0.0252 -0.38965,0.14192 -0.0889,0.078 -0.17463,0.20109 -0.19051,0.27341 -0.0342,0.1555 0.10226,0.54592 0.26744,0.76541 0.0616,0.0819 0.14713,0.22032 0.19004,0.30765 0.086,0.17501 0.10459,0.49575 0.0314,0.541 -0.0257,0.0159 -0.0466,0.0646 -0.0466,0.10841 0,0.0438 -0.045,0.16325 -0.0999,0.2655 -0.0549,0.10226 -0.17892,0.39586 -0.27554,0.65245 -0.25238,0.67027 -0.45428,1.16238 -0.64121,1.56286 -0.2636,0.56477 -0.66477,1.53182 -0.81254,1.95872 -0.0754,0.21772 -0.1608,0.4245 -0.18986,0.45951 -0.0291,0.035 -0.0684,0.32924 -0.0873,0.65383 -0.0349,0.59769 -0.092,0.82058 -0.32852,1.28412 -0.054,0.10585 -0.1563,0.37089 -0.22731,0.58899 -0.071,0.21811 -0.17492,0.50152 -0.23093,0.62981 -0.15607,0.35753 -0.32234,0.89895 -0.38325,1.24796 -0.0424,0.2432 -0.0422,0.38947 0.001,0.64234 0.0758,0.44216 0.0711,0.54861 -0.0303,0.67742 -0.30496,0.38768 -0.19242,1.71373 0.22553,2.65737 0.0568,0.1283 0.15522,0.39069 0.21867,0.5831 0.0634,0.19241 0.14206,0.41284 0.17469,0.48985 0.11518,0.27183 0.44034,1.12257 0.51329,1.34295 0.11358,0.34317 0.10098,0.39569 -0.10847,0.45209 -0.10924,0.0294 -0.24016,0.11495 -0.32656,0.21336 l -0.14422,0.16425 v 0.67074 c 0,0.40254 -0.028,0.81695 -0.07,1.03639 -0.0385,0.20112 -0.07,0.49665 -0.07,0.65675 -1e-5,0.28368 -0.006,0.29761 -0.23221,0.5475 -0.12771,0.14102 -0.2466,0.31444 -0.26418,0.38537 -0.0448,0.18077 -0.45794,0.64282 -0.67668,0.75684 -0.1005,0.0524 -0.2425,0.0952 -0.31554,0.0952 -0.073,0 -0.15475,0.0264 -0.18157,0.0587 -0.0268,0.0323 -0.14028,0.33147 -0.25215,0.6648 -0.15069,0.44897 -0.25743,0.67988 -0.41183,0.89087 -0.11463,0.15665 -0.2504,0.34452 -0.30172,0.41748 -0.0513,0.073 -0.20672,0.25446 -0.34533,0.40331 l -0.25203,0.27065 h -0.65839 c -0.56926,0 -0.68196,0.0126 -0.83248,0.0933 -0.21888,0.11732 -0.77111,0.12721 -1.0884,0.0195 -0.14683,-0.0499 -0.30265,-0.0655 -0.47982,-0.0482 -0.1443,0.0141 -0.4723,0.045 -0.72889,0.0687 -0.25659,0.0237 -0.60299,0.0794 -0.76977,0.12391 -0.22114,0.059 -0.4031,0.0741 -0.67206,0.0557 -0.20284,-0.0138 -0.41303,-0.008 -0.46708,0.0122 -0.11277,0.0429 -0.45498,0.46521 -0.77842,0.96066 -0.12225,0.18727 -0.26427,0.36296 -0.3156,0.39043 -0.25005,0.13383 -0.77839,-0.0147 -0.98632,-0.27718 -0.1124,-0.14193 -0.13951,-0.22102 -0.13951,-0.40713 0,-0.33464 -0.0743,-0.38546 -0.5635,-0.38514 -0.47126,4.7e-4 -0.80692,0.0809 -1.17367,0.28191 -0.0446,0.0244 -0.18343,0.0444 -0.30862,0.0444 -0.35298,0 -0.47017,-0.12753 -0.65907,-0.7173 -0.0927,-0.28941 0.0688,-0.91554 0.23621,-0.91554 0.0199,0 0.16119,-0.0831 0.31404,-0.1846 0.15286,-0.10153 0.36116,-0.22799 0.4629,-0.28102 0.10174,-0.053 0.25031,-0.1777 0.33014,-0.27704 0.11156,-0.13882 0.20764,-0.19907 0.41513,-0.26032 0.14849,-0.0438 0.33085,-0.0985 0.40524,-0.12152 0.18445,-0.057 0.44991,-0.0525 0.6313,0.0107 0.16863,0.0588 0.35464,-0.007 0.39977,-0.14164 0.0377,-0.11247 0.59118,-0.47072 0.72722,-0.47072 0.16828,0 0.28964,-0.15516 0.43785,-0.55983 0.0705,-0.19244 0.16782,-0.43525 0.21631,-0.53957 0.0485,-0.10432 0.0882,-0.21568 0.0882,-0.24747 0,-0.0318 0.10941,-0.26133 0.24313,-0.51011 l 0.24312,-0.45232 0.0302,-0.83975 c 0.0166,-0.46186 0.0548,-0.94471 0.0849,-1.07301 0.0301,-0.12829 0.0444,-0.27568 0.0317,-0.32753 -0.0371,-0.1523 -0.27835,-0.36653 -0.59478,-0.52818 -0.16217,-0.0829 -0.41027,-0.21083 -0.55132,-0.2844 -0.36903,-0.19248 -0.44172,-0.13818 -0.55827,0.417 -0.0407,0.1937 -0.0407,0.33092 0,0.55983 0.0847,0.47821 0.11142,1.80358 0.0409,2.02768 -0.0326,0.10357 -0.0749,0.20957 -0.094,0.23554 -0.0191,0.026 -0.081,0.17292 -0.13754,0.32656 -0.17522,0.47624 -0.28641,0.69648 -0.38833,0.76921 -0.14485,0.10336 -0.45979,0.2173 -0.70044,0.25339 -0.1778,0.0267 -0.23482,0.0147 -0.35585,-0.0748 -0.15004,-0.11093 -0.32569,-0.44387 -0.32569,-0.61733 0,-0.0552 -0.0297,-0.14269 -0.0659,-0.19446 -0.0363,-0.0518 -0.0798,-0.27164 -0.0968,-0.48858 -0.0288,-0.36805 -0.15628,-0.81595 -0.27833,-0.97758 -0.0572,-0.0757 -0.10592,-0.17695 -0.25727,-0.53422 -0.0904,-0.21332 -0.0997,-0.34348 -0.12176,-1.70282 -0.0234,-1.4379 0.003,-1.94131 0.12661,-2.46142 0.0498,-0.20869 0.0479,-0.25496 -0.0137,-0.32657 -0.0394,-0.0459 -0.0853,-0.1215 -0.10181,-0.16803 -0.0323,-0.0907 -0.12406,-0.0659 -0.12406,0.0335 0,0.033 -0.0422,0.0982 -0.0938,0.14486 -0.0516,0.0467 -0.12363,0.18114 -0.16012,0.29881 -0.0365,0.11767 -0.11129,0.32941 -0.16622,0.47054 -0.28629,0.7355 -0.31947,0.85795 -0.46296,1.70852 -0.0222,0.13142 -0.0635,0.28225 -0.0918,0.33516 -0.0283,0.0529 -0.0515,0.13533 -0.0515,0.18315 0,0.0478 -0.0827,0.25569 -0.18379,0.46193 -0.10109,0.20624 -0.19906,0.43616 -0.21771,0.51094 -0.0186,0.0748 -0.0845,0.23043 -0.14622,0.34589 -0.0618,0.11547 -0.16548,0.3359 -0.23047,0.48985 -0.12937,0.30649 -0.6695,1.40885 -0.92577,1.88943 -0.0889,0.16679 -0.1618,0.32682 -0.16192,0.35563 -4.7e-4,0.10651 -0.20399,0.51208 -0.32924,0.65601 -0.0711,0.0817 -0.22905,0.33363 -0.35099,0.55983 -0.12194,0.2262 -0.31977,0.57926 -0.43963,0.78458 -0.11986,0.20532 -0.25286,0.44675 -0.29556,0.53651 -0.0427,0.0898 -0.19835,0.32639 -0.34591,0.52586 -0.61197,0.82729 -1.18169,1.64401 -1.78093,2.55311 -0.12685,0.19245 -0.29118,0.43387 -0.36517,0.53651 -0.074,0.10263 -0.34142,0.49102 -0.59426,0.86307 -0.50973,0.75005 -0.76383,1.09363 -1.13042,1.5285 -0.13549,0.16072 -0.24633,0.31686 -0.24633,0.347 0,0.0301 -0.1837,0.24579 -0.40821,0.47925 -0.5412,0.56274 -1.05449,1.13513 -1.40261,1.56407 -0.41076,0.50613 -1.00064,1.20623 -1.54229,1.83046 -0.14997,0.17285 -0.39635,0.49467 -0.54749,0.71516 -0.15115,0.2205 -0.3814,0.50946 -0.51168,0.64213 -0.33237,0.33846 -1.0449,1.27695 -1.53264,2.01867 -0.086,0.13085 -0.2532,0.36934 -0.37145,0.52997 -0.11825,0.16063 -0.21499,0.31332 -0.21499,0.33931 0,0.026 -0.0973,0.1836 -0.2162,0.35023 -0.1189,0.16663 -0.31956,0.50114 -0.44591,0.74336 -0.12635,0.24222 -0.29148,0.53778 -0.36697,0.65681 -0.0755,0.11902 -0.13724,0.23463 -0.13724,0.25689 0,0.084 -0.45832,0.99603 -0.53076,1.05615 -0.0416,0.0346 -0.0757,0.0869 -0.0757,0.1164 0,0.0294 -0.13121,0.25715 -0.29158,0.506 -0.2854,0.44286 -0.4293,0.68158 -0.71145,1.18024 -0.077,0.13605 -0.21136,0.36976 -0.29863,0.51935 -0.0873,0.1496 -0.24098,0.41895 -0.34159,0.59856 -0.10062,0.17961 -0.2645,0.45253 -0.36417,0.60648 -0.17318,0.26747 -0.39161,0.62027 -0.79425,1.28283 -0.10131,0.16672 -0.19742,0.3736 -0.21358,0.45974 -0.0184,0.0983 -0.10742,0.23466 -0.23879,0.36603 -0.19416,0.19416 -0.2078,0.22353 -0.18733,0.40333 0.0121,0.10666 0.16236,0.48406 0.33381,0.83868 0.34207,0.70749 0.40097,0.86573 0.51535,1.38463 0.0424,0.19244 0.0954,0.42337 0.11779,0.51318 0.11005,0.44189 0.10579,0.5331 -0.0393,0.84352 -0.16857,0.3606 -0.23789,0.60951 -0.23931,0.8593 -10e-4,0.19486 -0.13675,0.77429 -0.21863,0.93388 -0.0614,0.11976 -0.13824,0.62391 -0.22374,1.46873 -0.0602,0.59514 -0.11793,0.91447 -0.29923,1.65616 -0.14418,0.58984 -0.17529,0.79786 -0.28255,1.88943 -0.0265,0.26942 -0.0718,0.59482 -0.10073,0.72312 -0.27717,1.22897 -0.646,2.18192 -1.30051,3.3602 -0.0898,0.16167 -0.2116,0.38102 -0.27065,0.48744 -0.059,0.10643 -0.1794,0.3061 -0.26744,0.44373 -0.088,0.13762 -0.2114,0.42737 -0.27415,0.64388 -0.15085,0.52057 -0.35718,0.96743 -0.56221,1.21765 -0.0918,0.11199 -0.23797,0.37942 -0.32489,0.59428 -0.33243,0.82179 -0.44308,1.06346 -0.5981,1.30625 -0.088,0.1379 -0.21483,0.33782 -0.28176,0.44425 -0.0669,0.10644 -0.21149,0.25384 -0.32124,0.32755 -0.10975,0.0737 -0.24733,0.20492 -0.30572,0.29157 l -0.10617,0.15754 -4.7e-4,1.98749 c -4.6e-4,1.96606 -0.0452,2.77925 -0.18992,3.45428 -0.0294,0.13701 -0.0417,0.33539 -0.0273,0.44085 0.0144,0.10546 0.007,0.46466 -0.0175,0.79822 -0.0404,0.56159 -0.0772,0.79113 -0.25796,1.60952 -0.0368,0.16678 -0.0669,0.37686 -0.0668,0.46683 0,0.09 -0.0215,0.23693 -0.048,0.32657 -0.0265,0.0896 -0.0695,0.53036 -0.0955,0.97939 -0.0261,0.44904 -0.0763,0.96338 -0.11158,1.14299 -0.0353,0.17962 -0.0985,0.5575 -0.14046,0.83975 -0.0419,0.28225 -0.0877,0.55517 -0.10164,0.60648 -0.014,0.0513 -0.044,0.59716 -0.0667,1.21297 -0.0227,0.61581 -0.0616,1.39258 -0.0865,1.72615 -0.13295,1.78581 -0.15446,1.94344 -0.30236,2.21599 -0.12338,0.22738 -0.17861,0.65561 -0.14524,1.12624 0.0343,0.48312 -0.037,0.99651 -0.21454,1.54481 -0.0515,0.1591 -0.0872,0.40612 -0.0877,0.60648 -10e-4,0.4989 -0.074,1.10231 -0.16175,1.34108 -0.0424,0.11546 -0.0957,0.44087 -0.11831,0.72311 -0.0403,0.50283 -0.10733,0.97916 -0.25595,1.81946 -0.0409,0.23093 -0.0919,0.62981 -0.11355,0.88639 -0.0216,0.25659 -0.076,0.60299 -0.12099,0.76977 -0.0921,0.34173 -0.17748,0.76532 -0.27476,1.36311 -0.0364,0.22371 -0.0787,0.42699 -0.094,0.45174 -0.0153,0.0248 -0.048,0.2616 -0.0726,0.52632 -0.0735,0.78989 -0.2214,1.51499 -0.39275,1.92509 -0.0419,0.10018 -0.0781,0.41977 -0.0964,0.8512 -0.0162,0.37993 -0.0528,0.76427 -0.0815,0.85407 -0.0316,0.0991 -0.0535,0.58531 -0.0557,1.2363 -0.003,0.96122 0.005,1.09002 0.0832,1.23629 0.15084,0.28354 0.355,0.45951 0.62373,0.53764 0.22998,0.0669 0.25848,0.0907 0.34263,0.28705 0.13091,0.30539 0.33711,0.54724 0.59204,0.69438 0.22909,0.13223 0.2741,0.17203 0.48997,0.43324 0.12148,0.147 0.12728,0.17446 0.0986,0.46653 -0.0168,0.17069 -0.0473,0.34315 -0.0678,0.38325 -0.033,0.0644 -0.11697,0.80963 -0.20996,1.86317 -0.017,0.19244 -0.0599,0.40658 -0.0954,0.47587 -0.0429,0.0837 -0.0645,0.2906 -0.0645,0.61634 v 0.49037 l -0.18717,0.18531 c -0.20943,0.20735 -0.46597,0.73074 -0.46597,0.95068 0,0.0792 -0.0444,0.27542 -0.0987,0.43606 l -0.0986,0.29208 0.10508,0.52763 c 0.0946,0.47484 0.10462,0.65555 0.10041,1.80606 -0.003,0.70314 -0.0259,1.38543 -0.0519,1.51621 -0.026,0.13078 -0.0923,0.46871 -0.14733,0.75096 -0.0551,0.28225 -0.11767,0.59715 -0.13912,0.69979 -0.0215,0.10263 -0.0399,0.27163 -0.041,0.37555 -0.001,0.10392 -0.0229,0.20985 -0.0485,0.2354 -0.0256,0.0256 -0.0899,0.2125 -0.1431,0.41543 -0.15246,0.58207 -0.86072,1.79551 -1.11015,1.902 -0.0678,0.0289 -0.26268,0.17963 -0.43316,0.3349 -0.17049,0.15527 -0.37383,0.33003 -0.45187,0.38835 -0.14923,0.11152 -0.28784,0.47216 -0.28784,0.74894 0,0.12098 -0.0243,0.14883 -0.17232,0.19769 -0.32187,0.10623 -0.44592,0.30248 -0.4802,0.75969 l -0.0239,0.31948 -0.18661,0.0647 c -0.10263,0.0356 -0.22964,0.065 -0.28224,0.0654 -0.12967,9.3e-4 -0.20775,0.0884 -0.20689,0.23163 0.002,0.25365 0.0292,0.26103 0.91906,0.24501 0.51159,-0.009 0.52639,-0.0125 0.6648,-0.1478 0.0779,-0.0761 0.14159,-0.17583 0.14162,-0.2216 0,-0.0788 0.1363,-0.0832 2.60088,-0.0832 1.43046,0 2.63565,0.0172 2.6782,0.0383 0.0956,0.0474 0.15911,0.20487 0.22921,0.56814 0.0297,0.15396 0.0848,0.43737 0.12238,0.62981 0.0468,0.23946 0.082,0.92418 0.11143,2.16935 0.0237,1.0007 0.0663,1.92543 0.0948,2.05496 0.13756,0.62677 -0.12996,2.7178 -0.34924,2.72981 -0.029,0.002 -0.21011,0.0232 -0.40255,0.048 -0.19244,0.0248 -0.64381,0.0623 -1.00303,0.0834 -0.74887,0.0438 -0.91479,0.097 -1.23375,0.39536 l -0.21525,0.20134 -1.30489,0.031 c -0.71768,0.017 -1.9242,0.0297 -2.68114,0.0281 l -1.37625,-0.003 -0.17495,-0.21016 c -0.1522,-0.18283 -0.17504,-0.24156 -0.17571,-0.45188 -0.002,-0.46678 -0.36026,-0.87072 -0.80622,-0.9077 -0.2186,-0.0181 -0.292097,0.002 -0.618609,0.16637 -0.385415,0.19445 -0.517666,0.33968 -0.578011,0.63472 -0.02308,0.11283 -0.06182,0.15011 -0.190655,0.18345 -0.08893,0.023 -0.770514,0.0556 -1.514623,0.0724 -1.492332,0.0337 -1.461271,0.0276 -1.874706,0.36547 -0.150632,0.12308 -0.26249,0.16956 -0.489852,0.20357 -0.437629,0.0654 -4.055914,0.1063 -4.148972,0.0469 z m 9.932119,-7.2143 c 0.11652,-0.0816 0.14624,-0.37933 0.0477,-0.47787 -0.10492,-0.10493 -0.29144,-0.0656 -0.37716,0.0795 -0.10405,0.17615 -0.10099,0.26342 0.0133,0.37768 0.11229,0.11229 0.17915,0.11667 0.31619,0.0207 z m 34.69657,-111.75362 c 0.0464,-0.0513 0.13332,-0.0933 0.19305,-0.0933 0.0842,0 0.13653,-0.0551 0.23265,-0.24493 0.0682,-0.13471 0.17354,-0.30989 0.23405,-0.38928 0.0605,-0.0794 0.11001,-0.16386 0.11001,-0.18768 0,-0.0238 0.0735,-0.15488 0.16329,-0.29125 0.0898,-0.13636 0.16328,-0.26605 0.16328,-0.28819 0,-0.0221 0.0267,-0.057 0.0594,-0.0776 0.0906,-0.0568 0.29877,-0.39012 0.5214,-0.83457 0.10331,-0.20626 0.11356,-0.26622 0.078,-0.45655 -0.0384,-0.20569 -0.13995,-0.37726 -0.27395,-0.46299 -0.0777,-0.0497 -0.0738,-0.19981 0.009,-0.35204 0.11207,-0.20579 0.197,-0.43778 0.25027,-0.68366 0.0612,-0.28249 0.15532,-0.65332 0.30787,-1.21297 0.063,-0.23093 0.16838,-0.6182 0.23429,-0.86061 0.0659,-0.24241 0.11983,-0.49834 0.11983,-0.56874 0,-0.0704 0.0182,-0.13927 0.0405,-0.15305 0.0223,-0.0138 0.0555,-0.1773 0.0739,-0.36339 0.0183,-0.18608 0.0473,-0.35975 0.0644,-0.38591 0.0171,-0.0262 0.0555,-0.20503 0.0853,-0.39748 0.1042,-0.67344 0.1214,-0.742 0.21006,-0.83717 0.066,-0.0709 0.14741,-0.0959 0.31205,-0.0959 0.18516,0 0.2447,-0.023 0.3531,-0.13609 l 0.13039,-0.1361 -0.0296,-0.57535 c -0.0163,-0.31645 -0.0415,-0.7915 -0.056,-1.05567 -0.0211,-0.3835 -0.0114,-0.51187 0.0479,-0.63687 0.0409,-0.0861 0.0743,-0.18333 0.0743,-0.21606 0,-0.101 0.37188,-0.83403 0.54625,-1.07674 0.1375,-0.19138 0.17239,-0.2902 0.20813,-0.58947 0.1079,-0.90331 0.30468,-1.43984 0.6249,-1.7038 0.17541,-0.14458 0.21596,-0.34755 0.0903,-0.45186 -0.0385,-0.0319 -0.07,-0.0849 -0.07,-0.11766 0,-0.0328 -0.0735,-0.16877 -0.16328,-0.30221 -0.13728,-0.20401 -0.16328,-0.2834 -0.16328,-0.49858 0,-0.21178 0.0249,-0.29067 0.14456,-0.45724 0.16456,-0.22915 0.15475,-0.35168 -0.0383,-0.47815 -0.0918,-0.0602 -0.23029,-0.079 -0.59128,-0.0804 -0.40557,-0.002 -0.5025,-0.0177 -0.69424,-0.1157 -0.12256,-0.0626 -0.27583,-0.18334 -0.3406,-0.26826 -0.14188,-0.18601 -0.26292,-0.19533 -0.42551,-0.0327 l -0.12163,0.12164 0.0305,0.77417 c 0.0168,0.42579 0.0515,0.79513 0.0771,0.82074 0.0256,0.0256 0.0466,0.0927 0.0466,0.14898 0,0.0563 0.0849,0.26731 0.18856,0.46886 0.22124,0.42997 0.29209,0.83551 0.1677,0.9599 -0.0412,0.0412 -0.21185,0.1205 -0.3792,0.17619 -0.31139,0.10362 -0.53028,0.27498 -0.65205,0.51045 -0.0599,0.11586 -0.0819,1.02209 -0.0603,2.48241 0.003,0.23195 -0.124,0.53315 -0.31284,0.73948 -0.22735,0.24839 -0.24138,0.40988 -0.0658,0.75747 0.0971,0.1922 -0.0224,0.63923 -0.27124,1.01449 -0.16075,0.24244 -0.1397,0.37504 0.10222,0.64412 0.18905,0.21026 0.20994,0.25646 0.20994,0.46423 0,0.22689 -0.004,0.23257 -0.2132,0.34039 -0.27779,0.14288 -0.39183,0.36926 -0.39722,0.78852 -0.004,0.29081 -0.0197,0.42347 -0.13369,1.11477 -0.0268,0.1625 -0.0559,0.55088 -0.0646,0.86307 -0.0145,0.51724 -0.0289,0.59662 -0.16214,0.89419 -0.0816,0.18212 -0.14682,0.40749 -0.14752,0.50951 -7e-4,0.10062 -0.0336,0.21867 -0.0731,0.26233 -0.0395,0.0437 -0.0896,0.18178 -0.1113,0.30692 -0.0217,0.12513 -0.0964,0.43745 -0.16612,0.69404 -0.0697,0.25659 -0.14433,0.58199 -0.1659,0.72312 -0.0344,0.22488 -0.0974,0.5663 -0.22837,1.23629 -0.02,0.10264 -0.0522,0.24434 -0.0714,0.3149 -0.0414,0.15216 0.0187,0.16735 0.13848,0.035 z M 63.083095,138.63 c 0.05307,-0.0992 -0.0513,-0.28712 -0.159426,-0.28712 -0.03558,0 -0.09637,0.0452 -0.135092,0.10051 -0.09146,0.13058 -0.02105,0.27271 0.135092,0.27271 0.06244,0 0.134043,-0.0387 0.159426,-0.0861 z m 75.684925,-11.628 c 0.0502,-0.0675 0.10757,-0.253 0.12986,-0.41987 0.10574,-0.79184 0.31363,-0.99938 0.72285,-0.72168 0.0922,0.0626 0.24534,0.13827 0.3403,0.16822 0.095,0.0299 0.27762,0.10274 0.40592,0.16177 0.42604,0.19604 0.75183,0.17755 0.98531,-0.0559 l 0.172,-0.172 -0.0308,-1.02383 c -0.03,-0.99866 0.0191,-1.81409 0.11559,-1.91884 0.0225,-0.0244 0.0408,-0.11032 0.0408,-0.19097 0,-0.17428 0.12049,-0.53637 0.31756,-0.95436 0.15019,-0.31854 0.26976,-0.62839 0.33307,-0.86307 0.0208,-0.077 0.0842,-0.26164 0.14092,-0.41037 0.0989,-0.25923 0.1007,-0.29067 0.0434,-0.75976 -0.0816,-0.66783 -0.0209,-0.9712 0.26363,-1.31718 l 0.20395,-0.24799 -0.0918,-0.24187 c -0.0505,-0.13302 -0.1126,-0.27831 -0.13807,-0.32286 -0.0255,-0.0446 -0.0463,-0.1034 -0.0463,-0.13076 0,-0.0274 -0.12347,-0.26382 -0.27438,-0.52547 -0.15091,-0.26165 -0.31773,-0.55309 -0.37071,-0.64764 -0.053,-0.0945 -0.15129,-0.25895 -0.21845,-0.36534 -0.0672,-0.10639 -0.23806,-0.40692 -0.37977,-0.66784 -0.14172,-0.26092 -0.3249,-0.54788 -0.40708,-0.63769 -0.30581,-0.3342 -0.44533,-0.75391 -0.29273,-0.88056 0.0346,-0.0287 0.16583,-0.0735 0.29158,-0.0994 0.4437,-0.0916 0.47868,-0.10332 0.57498,-0.19303 0.083,-0.0773 0.0931,-0.12617 0.0695,-0.3335 l -0.0277,-0.24295 0.21984,-0.1145 c 0.27854,-0.14507 0.41826,-0.42347 0.37567,-0.74858 -0.0151,-0.11546 -0.0587,-0.45136 -0.0968,-0.74644 -0.0852,-0.65958 -0.1441,-0.99414 -0.23632,-1.34178 -0.0969,-0.36543 -0.2057,-0.90577 -0.25581,-1.27076 -0.0676,-0.4922 -0.26109,-1.28276 -0.36172,-1.47761 -0.0242,-0.0469 -0.0695,-0.23221 -0.10055,-0.41182 -0.0311,-0.17961 -0.0863,-0.42104 -0.12258,-0.53651 -0.0363,-0.11546 -0.12664,-0.39888 -0.2007,-0.62981 -0.074,-0.23093 -0.19147,-0.61931 -0.26092,-0.86307 -0.14498,-0.50886 -0.38896,-1.23922 -0.45973,-1.37625 -0.0265,-0.0513 -0.0659,-0.41871 -0.0876,-0.81642 -0.0471,-0.86503 -0.10975,-1.56268 -0.17179,-1.91276 -0.025,-0.14112 -0.0339,-0.54 -0.0198,-0.886395 l 0.0257,-0.62981 -0.12626,-0.116631 -0.12626,-0.116631 -0.11271,0.130897 c -0.0996,0.115703 -0.11318,0.177971 -0.11666,0.536505 -0.005,0.497905 -0.0539,0.832845 -0.17551,1.198705 -0.0512,0.15395 -0.12926,0.4041 -0.17351,0.55588 -0.0443,0.15177 -0.10877,0.33022 -0.14337,0.39654 -0.0346,0.0663 -0.0631,0.15608 -0.0632,0.19947 0,0.0434 -0.0213,0.0919 -0.0469,0.10773 -0.0257,0.0159 -0.0467,0.0707 -0.0467,0.12194 0,0.089 -0.0416,0.1947 -0.28255,0.7178 -0.0922,0.20019 -0.10987,0.32588 -0.12458,0.8864 -0.0182,0.69276 -0.043,0.78815 -0.30084,1.15594 -0.0904,0.12897 -0.13396,0.26426 -0.15796,0.49076 -0.0203,0.19184 -0.0668,0.35571 -0.12011,0.42397 -0.0702,0.0898 -0.087,0.19237 -0.087,0.53171 0,0.50262 -0.11491,0.86979 -0.35649,1.13904 -0.20789,0.23171 -0.22016,0.29465 -0.15354,0.78802 0.082,0.60688 0.10721,1.32546 0.0466,1.32546 -0.0274,0 -0.0498,0.0229 -0.0498,0.0509 0,0.028 -0.0881,0.17647 -0.19574,0.32993 -0.17078,0.24348 -0.18833,0.29089 -0.13766,0.37202 0.0319,0.0511 0.12002,0.26099 0.19573,0.46634 0.12785,0.34676 0.13767,0.41941 0.13767,1.01955 0,0.75581 -0.0483,1.00593 -0.34249,1.77338 -0.0541,0.14113 -0.14612,0.32156 -0.2045,0.40095 -0.0584,0.0794 -0.10615,0.15823 -0.10615,0.17518 0,0.0169 0.051,0.13654 0.11335,0.26577 0.0623,0.12923 0.12654,0.30232 0.14267,0.38465 0.0161,0.0823 0.0472,0.19169 0.0691,0.24301 0.20128,0.47237 0.21064,0.56223 0.24052,2.3093 0.0285,1.6637 0.0549,2.05272 0.13926,2.05272 0.0228,0 0.0416,0.0231 0.0416,0.0513 0,0.0282 0.0293,0.11742 0.065,0.19828 0.25764,0.58224 0.41918,1.68135 0.49471,3.36603 0.0374,0.83449 0.0695,1.07703 0.25646,1.93608 0.11657,0.53578 0.17198,1.01168 0.16606,1.42624 -0.005,0.34264 0.005,0.38809 0.11335,0.50467 0.1432,0.15451 0.28192,0.14688 0.40784,-0.0225 z m -10.0894,-61.364935 c 0.0748,-0.09016 0.0238,-0.234817 -0.12383,-0.350916 -0.0929,-0.07307 -0.19021,-0.09468 -0.42877,-0.09523 -0.4088,-9.33e-4 -0.59618,-0.07391 -0.82641,-0.321898 -0.13206,-0.142243 -0.21506,-0.196822 -0.26825,-0.176407 -0.13242,0.05081 -0.0872,0.135647 0.24663,0.462243 l 0.32366,0.316682 h 0.31108 c 0.26375,0 0.33217,0.01774 0.44969,0.116632 0.15843,0.133314 0.23616,0.145332 0.3162,0.04889 z m 0.5181,-1.753354 c 0.10848,-0.05805 0.11852,-0.243377 0.0177,-0.327039 -0.0606,-0.05028 -0.0888,-0.04387 -0.17168,0.03896 -0.0848,0.08485 -0.0913,0.116263 -0.0451,0.217761 0.0609,0.133599 0.0729,0.137844 0.19907,0.07031 z m -1.78886,-0.682849 c 0.10241,-0.04859 0.22433,-0.171719 0.32339,-0.326568 0.0875,-0.136706 0.18294,-0.24856 0.21221,-0.24856 0.0939,0 0.22384,-0.151122 0.22384,-0.260434 0,-0.118866 -0.19987,-0.299397 -0.33146,-0.299397 -0.0471,0 -0.13121,-0.06167 -0.18694,-0.137037 -0.0557,-0.07537 -0.15607,-0.159786 -0.223,-0.187586 -0.0669,-0.02781 -0.15744,-0.11309 -0.20115,-0.189531 -0.0945,-0.165332 -0.19176,-0.177121 -0.2911,-0.0353 -0.0583,0.08321 -0.0726,0.249059 -0.0726,0.839746 0,0.67386 0.008,0.743946 0.0933,0.829367 0.11376,0.113757 0.23726,0.117924 0.45353,0.0153 z M 126.85007,51.04423 c 0.0259,-0.03207 0.0568,-0.14229 0.0687,-0.244926 0.0119,-0.102636 0.0872,-0.470356 0.16735,-0.817161 0.13456,-0.582146 0.19617,-0.951264 0.35809,-2.145278 0.2079,-1.533155 0.25731,-2.279039 0.25652,-3.872165 -4.7e-4,-0.756938 -0.0227,-1.512109 -0.0497,-1.678157 -0.0435,-0.268207 -0.0399,-0.308565 0.0326,-0.361558 0.0449,-0.03281 0.13558,-0.05965 0.20158,-0.05965 0.066,0 0.22856,-0.0731 0.36123,-0.162456 0.24254,-0.163337 0.36163,-0.216714 0.87719,-0.393185 0.34358,-0.117608 1.20775,-0.346252 1.58618,-0.419679 0.48912,-0.0949 0.69549,-0.160074 0.85967,-0.271481 0.0879,-0.05967 0.20339,-0.117741 0.25659,-0.129049 0.66306,-0.140958 1.09229,-0.210338 1.30128,-0.210338 0.17444,0 0.2727,-0.02306 0.31489,-0.07389 0.11686,-0.140816 0.0212,-0.204275 -0.80958,-0.537267 -0.12274,-0.0492 -0.3037,-0.140283 -0.40213,-0.202416 -0.0984,-0.06213 -0.26042,-0.127839 -0.35998,-0.146013 -0.0996,-0.01817 -0.24232,-0.07609 -0.31724,-0.1287 -0.0749,-0.05261 -0.4816,-0.259186 -0.90374,-0.459058 -0.42213,-0.199872 -0.79204,-0.383755 -0.82202,-0.408631 -0.16758,-0.139084 -0.85716,-0.37858 -1.21978,-0.42364 -0.34591,-0.04298 -0.48641,-0.09292 -1.1065,-0.393244 -0.39065,-0.189204 -0.80999,-0.386807 -0.93187,-0.439118 -0.13331,-0.05722 -0.2216,-0.125056 -0.2216,-0.170272 0,-0.04134 -0.045,-0.17373 -0.10006,-0.294202 -0.055,-0.120472 -0.16938,-0.415265 -0.25412,-0.655094 -0.0847,-0.23983 -0.30511,-0.712187 -0.4897,-1.049683 -0.18459,-0.337497 -0.42986,-0.798736 -0.54505,-1.024978 -0.1152,-0.226242 -0.27493,-0.481159 -0.35497,-0.566482 -0.17593,-0.187541 -0.30985,-0.374157 -0.40279,-0.5613 -0.0381,-0.07675 -0.17953,-0.244094 -0.31424,-0.371866 -0.13471,-0.127771 -0.24492,-0.256593 -0.24492,-0.28627 0,-0.02968 -0.0326,-0.08097 -0.0723,-0.11398 -0.0593,-0.04919 -0.0837,-0.04812 -0.1353,0.006 -0.0914,0.09579 -0.57921,1.055878 -0.66162,1.302265 -0.0386,0.115465 -0.10964,0.29654 -0.15782,0.40239 -0.0482,0.105849 -0.13173,0.329005 -0.18564,0.495901 -0.0539,0.166896 -0.16009,0.401298 -0.23594,0.520894 -0.18663,0.294287 -0.35124,0.624377 -0.47103,0.944525 -0.0548,0.146478 -0.14943,0.316115 -0.21029,0.376972 -0.0968,0.0968 -0.1383,0.106757 -0.33161,0.07954 -0.12152,-0.01711 -0.37168,-0.07055 -0.55591,-0.118746 -0.40265,-0.105348 -0.88343,-0.167408 -1.78774,-0.230764 -0.37205,-0.02607 -0.79192,-0.07106 -0.93305,-0.09999 -0.15975,-0.03274 -1.02728,-0.05826 -2.29871,-0.0676 -1.27304,-0.0094 -2.0757,-0.03298 -2.13128,-0.06273 -0.12719,-0.06807 -0.26114,-0.05899 -0.32857,0.02226 -0.0713,0.08589 0.0114,0.209937 0.13984,0.209937 0.045,0 0.24301,0.07348 0.44008,0.163284 0.19706,0.08981 0.40754,0.163284 0.46772,0.163284 0.0602,0 0.2351,0.09447 0.38871,0.209937 0.1536,0.115465 0.30006,0.209936 0.32547,0.209936 0.0254,0 0.0706,0.02945 0.10051,0.06544 0.0587,0.07074 0.52986,0.305794 0.62319,0.31091 0.0314,0.0017 0.18301,0.09657 0.33696,0.210786 0.15395,0.114213 0.3324,0.232317 0.39655,0.262454 0.0641,0.03014 0.24395,0.143509 0.39958,0.251937 0.15561,0.108428 0.53088,0.335881 0.83393,0.50545 0.91666,0.512921 1.98551,1.33001 1.98551,1.517829 0,0.03991 -0.0478,0.145669 -0.10624,0.235017 -0.0584,0.08935 -0.1347,0.246425 -0.16948,0.349061 -0.10368,0.305971 -0.43996,0.955659 -0.68821,1.329598 -0.27476,0.41387 -0.52895,0.864056 -0.52895,0.936806 0,0.0285 -0.0391,0.107546 -0.087,0.175654 -0.0478,0.06811 -0.16497,0.269157 -0.2603,0.446775 -0.0953,0.177618 -0.25039,0.436836 -0.34457,0.576041 -0.45105,0.666669 -0.66424,1.017713 -0.70274,1.157181 -0.0232,0.08385 -0.10346,0.24334 -0.17845,0.354419 -0.075,0.111079 -0.21593,0.348635 -0.3132,0.527902 -0.0973,0.179267 -0.27958,0.448876 -0.40513,0.599131 -0.23579,0.282188 -0.31925,0.471788 -0.24177,0.549267 0.0533,0.05325 0.1282,0.01514 0.66702,-0.339191 0.60557,-0.398233 1.16207,-0.678377 1.41931,-0.714492 0.16609,-0.02332 0.35084,-0.10936 0.66745,-0.310846 0.43798,-0.278728 1.222,-0.739619 1.25815,-0.739619 0.0216,0 0.29832,-0.123768 0.78384,-0.350525 0.56897,-0.265729 0.88149,-0.405023 1.04968,-0.46785 0.34575,-0.129152 0.94355,-0.391879 1.00195,-0.440345 0.0337,-0.02793 0.16844,-0.06348 0.29954,-0.07901 0.23788,-0.02817 0.23878,-0.02777 0.4598,0.203797 0.12179,0.127615 0.29493,0.334137 0.38473,0.458938 0.24081,0.334646 0.60649,0.866785 0.60649,0.882571 0,0.0075 0.11822,0.221102 0.26272,0.474566 0.3875,0.679705 0.47356,0.860462 0.53037,1.113973 0.0282,0.125951 0.0804,0.292944 0.11583,0.371094 0.0355,0.07815 0.1374,0.321186 0.22647,0.540081 0.0891,0.218894 0.20365,0.470818 0.25461,0.559831 0.051,0.08901 0.11655,0.237513 0.14579,0.330001 0.0292,0.09249 0.12683,0.254239 0.21688,0.359447 0.16828,0.196596 0.30696,0.573346 0.49268,1.338497 0.0498,0.205271 0.12134,0.475352 0.15891,0.600176 0.0376,0.124828 0.0683,0.25184 0.0683,0.282248 0,0.0598 0.0922,0.167259 0.14358,0.167259 0.0174,0 0.0528,-0.02624 0.0787,-0.05832 z"
       id="path2303" />
  </g>
</svg>
