<?xml version="1.0" encoding="UTF-8" standalone="no"?>
<!-- Created with Inkscape (http://www.inkscape.org/) -->

<svg
   width="210mm"
   height="297mm"
   viewBox="0 0 210 297"
   version="1.1"
   id="svg5"
   inkscape:version="1.1.2 (b8e25be8, 2022-02-05)"
   sodipodi:docname="skater_01.svg"
   xmlns:inkscape="http://www.inkscape.org/namespaces/inkscape"
   xmlns:sodipodi="http://sodipodi.sourceforge.net/DTD/sodipodi-0.dtd"
   xmlns="http://www.w3.org/2000/svg"
   xmlns:svg="http://www.w3.org/2000/svg">
  <sodipodi:namedview
     id="namedview7"
     pagecolor="#ffffff"
     bordercolor="#999999"
     borderopacity="1"
     inkscape:pageshadow="0"
     inkscape:pageopacity="0"
     inkscape:pagecheckerboard="0"
     inkscape:document-units="mm"
     showgrid="false"
     inkscape:zoom="0.45291836"
     inkscape:cx="349.95269"
     inkscape:cy="526.58497"
     inkscape:window-width="1660"
     inkscape:window-height="969"
     inkscape:window-x="0"
     inkscape:window-y="44"
     inkscape:window-maximized="0"
     inkscape:current-layer="layer1" />
  <defs
     id="defs2" />
  <g
     inkscape:label="Layer 1"
     inkscape:groupmode="layer"
     id="layer1">
    <path
       style="fill:#000000;stroke-width:0.0370158"
       d="m 44.154428,238.33967 c -0.268815,-0.16415 -0.51041,-0.61557 -0.600525,-1.12211 -0.02452,-0.1378 -0.05782,-0.26005 -0.07401,-0.27168 -0.03863,-0.0277 -0.0384,-6.57258 2.4e-4,-6.62194 0.01632,-0.0208 0.0478,-0.1248 0.06995,-0.231 0.06319,-0.30293 0.174068,-0.54239 0.280863,-0.60656 0.06473,-0.0389 0.20396,-0.0582 0.419675,-0.0582 0.481806,0 0.60584,-0.0635 0.741872,-0.38002 0.08742,-0.20338 0.157142,-0.26756 0.381001,-0.35071 0.445102,-0.16533 0.448837,-0.16551 1.742745,-0.0844 0.250163,0.0157 0.386323,0.0101 0.386323,-0.016 0,-0.0945 -0.04628,-0.16639 -0.107068,-0.16639 -0.09222,0 -0.365831,-0.15207 -0.528218,-0.29358 -0.07555,-0.0658 -0.300153,-0.30053 -0.499121,-0.52155 -0.198969,-0.22101 -0.475276,-0.51855 -0.614016,-0.66119 -0.13874,-0.14264 -0.313194,-0.3222 -0.387676,-0.399 -0.447604,-0.46159 -0.639129,-0.70923 -0.740627,-0.95761 -0.180909,-0.44273 -0.224525,-0.63275 -0.196607,-0.85657 0.01378,-0.11044 0.03744,-0.30853 0.05259,-0.4402 0.04311,-0.37472 0.08305,-0.53511 0.217313,-0.87281 l 0.124924,-0.31421 v -0.98284 -0.98283 l 0.171699,-0.40666 c 0.09443,-0.22367 0.171699,-0.42578 0.171699,-0.44914 0,-0.0234 0.01932,-0.0806 0.04293,-0.12719 0.04638,-0.0915 0.04862,-0.0945 0.451637,-0.5948 0.149243,-0.18528 0.336164,-0.41767 0.415379,-0.51642 0.07921,-0.0988 0.20221,-0.26933 0.273321,-0.37906 0.07111,-0.10972 0.274377,-0.37627 0.4517,-0.59233 l 0.322407,-0.39284 v -0.36993 c 0,-0.26738 0.01799,-0.42394 0.06489,-0.56477 0.03569,-0.10717 0.08382,-0.27565 0.106949,-0.3744 0.06688,-0.28551 0.205393,-0.63657 0.366183,-0.92809 0.08183,-0.14836 0.148774,-0.28322 0.148774,-0.29969 0,-0.0165 0.110493,-0.25419 0.245539,-0.52827 0.135046,-0.27408 0.283307,-0.57912 0.329469,-0.67788 0.04616,-0.0987 0.167774,-0.33354 0.270249,-0.52176 0.244908,-0.44983 0.273799,-0.56177 0.354493,-1.37351 0.01745,-0.17556 0.04639,-0.38204 0.06431,-0.45885 0.05818,-0.24941 0.215042,-0.77385 0.283305,-0.9472 0.03663,-0.093 0.06661,-0.18524 0.06661,-0.20492 0,-0.10466 0.1182,-0.27199 0.247819,-0.35083 0.195443,-0.11887 0.414769,-0.11728 0.818528,0.006 0.178429,0.0545 0.361551,0.0993 0.406939,0.0998 0.04539,4e-4 0.180642,0.0546 0.300565,0.12045 0.392586,0.21552 0.527323,0.16296 0.715963,-0.27931 0.05148,-0.1207 0.153631,-0.32249 0.226997,-0.44843 0.07337,-0.12593 0.133393,-0.24098 0.133393,-0.25566 0,-0.0147 0.05909,-0.11813 0.131313,-0.22988 0.07222,-0.11175 0.199708,-0.33422 0.283303,-0.49437 0.0836,-0.16014 0.193409,-0.36663 0.244031,-0.45885 0.07852,-0.14304 0.400032,-0.87779 0.58844,-1.34474 0.03099,-0.0768 0.09548,-0.21147 0.143311,-0.29925 0.04783,-0.0878 0.118911,-0.2404 0.157959,-0.33916 0.290899,-0.7357 0.385015,-0.95371 0.537319,-1.24466 0.0769,-0.14691 0.158772,-0.33544 0.181932,-0.41896 0.02316,-0.0835 0.05366,-0.1698 0.06777,-0.19175 0.01411,-0.0219 0.03692,-0.0848 0.05069,-0.13965 0.01377,-0.0549 0.09813,-0.27032 0.187469,-0.4788 0.08934,-0.20848 0.220097,-0.54065 0.290565,-0.73816 0.07047,-0.19751 0.15201,-0.42195 0.181205,-0.49876 0.02919,-0.0768 0.0731,-0.21147 0.09757,-0.29925 0.02447,-0.0878 0.0768,-0.2581 0.116287,-0.37849 0.03949,-0.12039 0.0718,-0.25434 0.0718,-0.29767 0,-0.0738 0.0789,-0.36906 0.261801,-0.97971 0.04273,-0.14264 0.118735,-0.42095 0.16891,-0.61845 0.05018,-0.19751 0.127267,-0.49377 0.171317,-0.65836 0.04405,-0.16459 0.09061,-0.37822 0.103477,-0.47474 0.01286,-0.0965 0.04337,-0.23118 0.06779,-0.29925 0.02442,-0.0681 0.06279,-0.2315 0.08527,-0.36317 0.02248,-0.13167 0.05409,-0.30225 0.07023,-0.37906 0.05601,-0.26641 0.106289,-0.53978 0.13944,-0.7581 0.01833,-0.1207 0.04738,-0.30025 0.06455,-0.39901 0.01718,-0.0987 0.04667,-0.26933 0.06555,-0.37905 0.01887,-0.10973 0.05215,-0.26235 0.07394,-0.33916 0.07067,-0.24903 0.105713,-0.4903 0.136181,-0.93766 0.01644,-0.24139 0.04523,-0.54663 0.06398,-0.6783 0.03346,-0.23504 0.0846,-0.64314 0.139975,-1.11721 0.01538,-0.13168 0.05953,-0.37407 0.09811,-0.53866 0.03858,-0.16459 0.11039,-0.48778 0.159574,-0.71821 0.04918,-0.23042 0.118628,-0.53566 0.15432,-0.6783 0.03569,-0.14265 0.08363,-0.34016 0.106528,-0.43891 0.0229,-0.0987 0.06791,-0.26933 0.100034,-0.37905 0.03212,-0.10973 0.07756,-0.30724 0.100991,-0.43891 0.08052,-0.4526 0.213661,-0.91441 0.43137,-1.49626 0.09674,-0.25857 0.176482,-0.50959 0.240812,-0.75811 0.02556,-0.0988 0.09301,-0.3232 0.149892,-0.49876 0.05688,-0.17556 0.130398,-0.40898 0.163379,-0.5187 0.09484,-0.31555 0.254475,-0.72102 0.78542,-1.99502 0.137187,-0.32918 0.277768,-0.67033 0.312403,-0.75811 0.03464,-0.0878 0.129357,-0.28758 0.210493,-0.44399 0.08114,-0.15641 0.15709,-0.34494 0.168784,-0.41895 0.0117,-0.074 0.125829,-0.38594 0.253631,-0.69318 0.351244,-0.84438 0.383552,-0.93621 0.420856,-1.19612 l 0.03449,-0.24029 -0.177672,-0.41038 c -0.263954,-0.60967 -0.271973,-0.95589 -0.03902,-1.68439 0.05965,-0.18654 0.171509,-0.5636 0.248577,-0.83791 0.07707,-0.27432 0.192924,-0.68578 0.257457,-0.91435 0.130257,-0.46138 0.253081,-0.7685 0.444389,-1.1112 0.07025,-0.12586 0.196193,-0.35083 0.279864,-0.49993 0.08367,-0.14911 0.274447,-0.4364 0.423947,-0.63841 0.149501,-0.20202 0.281044,-0.41219 0.292319,-0.46705 0.01128,-0.0549 0.0457,-0.14464 0.07651,-0.1995 0.04442,-0.0791 0.0603,-0.25256 0.07672,-0.83791 0.01583,-0.56415 0.03524,-0.7843 0.08232,-0.9339 0.05812,-0.18469 0.05827,-0.19858 0.0027,-0.24581 -0.04148,-0.0352 -0.09119,-0.0393 -0.167939,-0.0137 -0.166154,0.0554 -0.720637,0.0443 -0.845918,-0.017 -0.130253,-0.0636 -0.242238,-0.26155 -0.242238,-0.42813 0,-0.14064 0.112821,-0.56673 0.228656,-0.86355 0.102844,-0.26354 0.247014,-0.34049 0.801538,-0.42784 0.0661,-0.0104 0.17192,-0.0311 0.235147,-0.0459 0.0659,-0.0154 0.170944,-0.005 0.246153,0.0234 0.127238,0.0488 0.154398,0.0912 0.202149,0.31571 0.01128,0.0531 0.03876,0.10351 0.06106,0.11213 0.04655,0.018 0.318878,-0.25488 0.322309,-0.32296 0.0013,-0.0249 0.05458,-0.12603 0.118512,-0.22478 0.171674,-0.2652 0.346716,-0.63397 0.397728,-0.83791 0.0247,-0.0988 0.07261,-0.23342 0.106465,-0.29926 0.03386,-0.0658 0.06161,-0.14775 0.06168,-0.18203 6.8e-5,-0.0343 0.02949,-0.13304 0.06536,-0.21945 0.12546,-0.30217 0.278162,-0.69797 0.278162,-0.721 0,-0.0128 0.04744,-0.1425 0.105423,-0.28828 0.05798,-0.14578 0.117871,-0.30096 0.133084,-0.34485 0.01521,-0.0439 0.04504,-0.13003 0.06628,-0.19141 0.02124,-0.0614 0.03861,-0.16378 0.03861,-0.22755 0,-0.0638 0.01405,-0.15719 0.03123,-0.2076 0.01718,-0.0504 0.05608,-0.19041 0.08646,-0.3111 0.07777,-0.309 0.724279,-1.78796 0.976187,-2.23314 0.0687,-0.12141 0.149521,-0.27461 0.179602,-0.34044 0.24048,-0.52632 0.355737,-0.76672 0.392162,-0.81796 0.0234,-0.0329 0.09274,-0.16758 0.154081,-0.29925 0.241734,-0.51888 0.323649,-0.68606 0.430104,-0.87781 0.06092,-0.10973 0.150921,-0.29211 0.200008,-0.40529 0.04909,-0.11318 0.163959,-0.30498 0.25527,-0.42623 0.09131,-0.12124 0.209969,-0.3249 0.263686,-0.45257 0.05372,-0.12767 0.16877,-0.35505 0.255675,-0.50528 0.225697,-0.39017 0.312663,-0.55482 0.335177,-0.63458 0.01084,-0.0384 0.03121,-0.0698 0.04527,-0.0698 0.02455,0 0.309829,-0.46096 0.309829,-0.50062 0,-0.0234 0.299154,-0.51289 0.498729,-0.81609 0.07945,-0.1207 0.176126,-0.30025 0.214844,-0.39901 0.06409,-0.16347 0.250452,-0.47795 0.674751,-1.13863 0.223593,-0.34816 1.043116,-1.30601 1.204331,-1.40762 0.423111,-0.26666 0.855487,-0.44628 1.07428,-0.44628 0.267507,0 0.423595,0.18352 0.492092,0.57856 0.01522,0.0878 0.04015,0.23142 0.05539,0.3192 0.04608,0.2654 0.13248,0.21542 0.279248,-0.16154 0.06877,-0.17663 0.190713,-0.45282 0.270983,-0.61376 0.08027,-0.16094 0.145944,-0.30692 0.145944,-0.32439 0,-0.0175 0.01975,-0.0555 0.04388,-0.0845 0.279512,-0.33587 0.5399,-0.83909 0.5399,-1.04339 0,-0.0498 0.01277,-0.10769 0.02837,-0.12854 0.0156,-0.0208 0.0486,-0.1187 0.07332,-0.21746 0.02473,-0.0987 0.06069,-0.24239 0.07993,-0.3192 0.01924,-0.0768 0.05352,-0.19352 0.07617,-0.25935 0.182416,-0.53003 0.246017,-0.709 0.326132,-0.91771 0.05054,-0.13167 0.111426,-0.3202 0.135299,-0.41896 0.02387,-0.0988 0.05725,-0.22079 0.07417,-0.2712 0.01692,-0.0504 0.03077,-0.13891 0.03077,-0.19667 0,-0.0988 0.04292,-0.28892 0.106048,-0.46979 0.01532,-0.0439 0.05116,-0.16059 0.07965,-0.25935 0.04887,-0.16939 0.18561,-0.57766 0.267277,-0.79801 0.05044,-0.13609 0.08044,-0.22249 0.166256,-0.4788 0.04041,-0.1207 0.12623,-0.36659 0.19071,-0.54641 0.06448,-0.17983 0.117233,-0.34072 0.117233,-0.35753 0,-0.0168 0.04571,-0.13901 0.101584,-0.27155 0.05587,-0.13254 0.135034,-0.33075 0.175915,-0.44048 0.109984,-0.29519 0.44308,-1.06224 0.511148,-1.17706 0.03252,-0.0549 0.114623,-0.23 0.182444,-0.38919 0.06782,-0.1592 0.15522,-0.34152 0.194226,-0.40517 0.039,-0.0636 0.07092,-0.1339 0.07092,-0.15611 0,-0.0222 0.01189,-0.0464 0.02641,-0.0537 0.04216,-0.0212 0.380131,-0.55985 0.435288,-0.69372 0.06541,-0.15874 0.109434,-0.19963 0.510358,-0.47406 0.673695,-0.46113 0.925564,-0.8591 1.087524,-1.71835 0.02068,-0.10973 0.06587,-0.27132 0.10043,-0.35911 0.03456,-0.0878 0.08312,-0.23142 0.107906,-0.3192 0.02479,-0.0878 0.122374,-0.34813 0.216846,-0.57855 0.09447,-0.23043 0.183035,-0.45487 0.196808,-0.49876 0.01377,-0.0439 0.03604,-0.11571 0.04947,-0.1596 0.01343,-0.0439 0.03687,-0.19651 0.05209,-0.33916 0.03191,-0.29921 0.0607,-0.46567 0.100083,-0.57855 0.01531,-0.0439 0.04712,-0.1606 0.0707,-0.25935 0.02357,-0.0988 0.06962,-0.27831 0.102332,-0.39901 0.03272,-0.1207 0.07909,-0.30025 0.103061,-0.399 0.02397,-0.0988 0.05996,-0.23763 0.07999,-0.30861 0.04845,-0.17179 -0.05739,-0.53415 -0.279533,-0.95703 -0.318131,-0.60558 -0.321833,-0.62223 -0.299904,-1.34784 0.05219,-1.72681 0.05532,-2.12052 0.01827,-2.29427 -0.07079,-0.33191 -0.1103,-0.49827 -0.137425,-0.57856 -0.05099,-0.15093 -0.09609,-0.31961 -0.138688,-0.51871 -0.02348,-0.10972 -0.05586,-0.21655 -0.07196,-0.2374 -0.0161,-0.0208 -0.02928,-0.0692 -0.02928,-0.10745 0,-0.10055 -0.364908,-0.54344 -0.529468,-0.64261 -0.120804,-0.0728 -0.201801,-0.0848 -0.586575,-0.0872 -0.430041,-0.003 -0.452122,-0.007 -0.601877,-0.11673 -0.0855,-0.0627 -0.174357,-0.16056 -0.197454,-0.21743 -0.08057,-0.19836 -0.0414,-1.04709 0.06203,-1.34434 0.01527,-0.0439 0.03636,-0.13816 0.04686,-0.20948 0.05323,-0.36152 0.237353,-0.60848 0.453656,-0.60848 0.130515,0 0.457743,-0.11158 0.575748,-0.19632 0.16057,-0.11531 0.354926,-0.38121 0.466046,-0.63759 0.173481,-0.40026 0.311029,-0.94004 0.311029,-1.22056 0,-0.0964 0.01545,-0.18634 0.03434,-0.19991 0.01889,-0.0136 0.03434,-0.0764 0.03434,-0.13965 0,-0.0632 0.01545,-0.12609 0.03434,-0.13965 0.01889,-0.0136 0.03434,-0.0854 0.03434,-0.1596 0,-0.0742 0.01375,-0.14482 0.03055,-0.15688 0.03182,-0.0228 0.05634,-0.15716 0.102487,-0.56133 0.02931,-0.25667 0.08131,-0.43545 0.13865,-0.47662 0.04175,-0.03 0.114297,-0.21539 0.173914,-0.44448 0.07618,-0.29275 -0.01255,-1.28125 -0.171616,-1.91183 -0.02215,-0.0878 -0.05418,-0.26733 -0.07118,-0.399 -0.017,-0.13167 -0.04864,-0.37407 -0.07029,-0.53866 -0.02724,-0.20706 -0.03945,-1.33793 -0.03963,-3.67084 -3.43e-4,-3.12694 0.01128,-3.636 0.09071,-4.00999 0.0093,-0.0439 0.03601,-0.21446 0.05932,-0.37905 0.02331,-0.16459 0.05545,-0.31631 0.07143,-0.33716 0.01598,-0.0209 0.02906,-0.0816 0.02906,-0.13492 0,-0.10942 0.183357,-0.77067 0.256958,-0.92667 0.02646,-0.0561 0.08829,-0.24462 0.137397,-0.41896 0.04911,-0.17433 0.102415,-0.35288 0.118469,-0.39677 0.0794,-0.2171 0.305428,-0.93674 0.33837,-1.07731 0.02057,-0.0878 0.06241,-0.24937 0.09297,-0.3591 0.03056,-0.10973 0.06797,-0.25337 0.08313,-0.3192 0.01516,-0.0658 0.07399,-0.23641 0.130725,-0.37906 0.1862,-0.4681 0.249918,-0.63716 0.249918,-0.6631 0,-0.0433 0.343291,-0.82067 0.411652,-0.93222 0.09107,-0.14861 0.388489,-0.79933 0.456235,-0.99821 0.03324,-0.0976 0.137891,-0.34298 0.211306,-0.49552 0.02027,-0.0421 0.143822,-0.26655 0.274564,-0.49875 0.130746,-0.2322 0.309429,-0.58379 0.397078,-0.78129 0.08765,-0.19751 0.23474,-0.49325 0.326871,-0.65719 0.190149,-0.33837 0.897694,-1.2252 1.131802,-1.4186 0.08553,-0.0707 0.274533,-0.25854 0.419996,-0.41752 0.145464,-0.15898 0.36573,-0.37587 0.48948,-0.48198 0.12375,-0.10612 0.302266,-0.26295 0.3967,-0.34853 0.169721,-0.15381 0.582032,-0.44677 0.628779,-0.44677 0.04173,0 0.738261,-0.33801 0.882173,-0.4281 0.250725,-0.15694 0.638583,-0.369912 0.673692,-0.369912 0.01903,0 0.130209,-0.05348 0.247061,-0.118847 0.116855,-0.06536 0.359263,-0.17176 0.538688,-0.236434 0.179426,-0.06468 0.449852,-0.164797 0.600947,-0.222497 0.151095,-0.0577 0.382889,-0.142588 0.515097,-0.188637 0.243878,-0.08495 0.822229,-0.318781 0.978262,-0.395517 0.04698,-0.02311 0.201513,-0.08609 0.343398,-0.139971 0.275093,-0.104459 0.30981,-0.1199 0.549859,-0.244537 0.08499,-0.04413 0.224068,-0.102018 0.309059,-0.128643 0.08499,-0.02663 0.181362,-0.06462 0.214156,-0.08443 0.0328,-0.01981 0.08983,-0.03601 0.126749,-0.03601 0.03691,0 0.07667,-0.01796 0.08834,-0.0399 0.01167,-0.02194 0.0431,-0.0399 0.06985,-0.0399 0.02674,0 0.149842,-0.05387 0.273551,-0.119701 0.123709,-0.06584 0.254537,-0.119701 0.290721,-0.119701 0.03619,0 0.07534,-0.01796 0.08702,-0.0399 0.01167,-0.02194 0.06576,-0.0399 0.120189,-0.0399 0.05443,0 0.108518,-0.01796 0.12019,-0.0399 0.01167,-0.02195 0.05166,-0.0399 0.08885,-0.0399 0.0372,0 0.156047,-0.0514 0.264107,-0.114219 0.108061,-0.06282 0.258287,-0.136978 0.333835,-0.1648 0.07555,-0.02782 0.152812,-0.06393 0.171699,-0.08025 0.01889,-0.01631 0.111604,-0.04197 0.206039,-0.05702 0.245399,-0.03909 0.655186,-0.175426 0.8755,-0.291269 0.119729,-0.06296 0.296047,-0.111769 0.480922,-0.133148 0.251656,-0.0291 0.708252,-0.170586 0.995854,-0.308581 0.04722,-0.02266 0.224926,-0.08864 0.394908,-0.14663 0.169982,-0.058 0.356513,-0.122307 0.414516,-0.14292 0.058,-0.02061 0.138218,-0.03747 0.178258,-0.03747 0.04004,0 0.08235,-0.01796 0.09402,-0.0399 0.01167,-0.02195 0.07826,-0.04054 0.14797,-0.04132 0.111533,-0.0012 0.269884,-0.03963 0.641846,-0.155575 0.05666,-0.01766 0.195737,-0.07134 0.309058,-0.119291 0.113321,-0.04794 0.275577,-0.11431 0.360568,-0.147472 0.085,-0.03316 0.2346,-0.10319 0.33247,-0.155611 l 0.17793,-0.09532 -0.0786,-0.191339 c -0.13649,-0.332143 -0.18434,-0.466076 -0.22517,-0.630239 -0.0445,-0.178818 -0.0602,-0.226758 -0.17637,-0.538655 -0.04496,-0.120699 -0.09334,-0.225438 -0.107505,-0.232752 -0.01417,-0.0073 -0.02575,-0.04546 -0.02575,-0.08476 0,-0.0393 -0.0248,-0.150026 -0.05511,-0.246054 -0.06173,-0.195572 -0.08772,-0.300011 -0.166929,-0.670786 -0.03017,-0.141231 -0.06952,-0.277316 -0.08744,-0.302405 -0.01792,-0.02509 -0.04675,-0.25966 -0.06406,-0.521267 -0.01731,-0.261611 -0.04852,-0.526199 -0.06935,-0.587977 -0.02083,-0.06178 -0.03787,-0.188182 -0.03787,-0.280895 0,-0.177357 -0.06762,-0.522061 -0.142033,-0.723993 -0.02426,-0.06583 -0.06186,-0.442894 -0.08356,-0.837908 -0.0217,-0.395015 -0.06467,-0.906737 -0.09549,-1.137162 -0.03082,-0.230425 -0.07297,-0.553619 -0.09366,-0.718208 -0.0207,-0.164589 -0.04998,-0.335163 -0.06508,-0.379054 -0.02811,-0.08172 -0.05375,-0.190213 -0.160346,-0.678307 -0.03841,-0.175881 -0.06559,-0.478757 -0.07341,-0.817959 -0.01046,-0.454102 -0.0016,-0.579366 0.05648,-0.798008 0.03789,-0.142644 0.09193,-0.358106 0.120097,-0.478805 0.02817,-0.120699 0.100093,-0.407982 0.159838,-0.638407 0.05974,-0.230425 0.12874,-0.517708 0.153331,-0.638406 0.02459,-0.120699 0.06104,-0.273318 0.08102,-0.339154 0.01997,-0.06584 0.06128,-0.279961 0.0918,-0.47584 0.03052,-0.195875 0.07616,-0.402596 0.101437,-0.459378 0.02527,-0.05679 0.05744,-0.192783 0.07148,-0.302222 0.01404,-0.109434 0.04493,-0.234885 0.06863,-0.278776 0.02371,-0.04389 0.05415,-0.142644 0.06767,-0.219452 0.01351,-0.07681 0.06912,-0.251121 0.123561,-0.387365 0.05445,-0.136244 0.09899,-0.27564 0.09899,-0.309771 0,-0.03413 0.01415,-0.09323 0.03144,-0.13134 0.03678,-0.08105 0.174599,-0.611023 0.174599,-0.671397 0,-0.02269 0.0309,-0.115579 0.0687,-0.206425 0.0378,-0.09084 0.0687,-0.183442 0.0687,-0.205782 0,-0.02234 0.0278,-0.09952 0.0617,-0.171504 0.0339,-0.07199 0.0823,-0.211688 0.10747,-0.310441 0.0252,-0.09875 0.0675,-0.237499 0.0941,-0.308327 0.0967,-0.257904 0.24547,-0.834106 0.26938,-1.043615 0.0135,-0.118125 0.052,-0.270744 0.0857,-0.339154 0.0337,-0.0684 0.0954,-0.241082 0.13716,-0.383726 0.0794,-0.271115 0.28427,-0.778736 0.50913,-1.261651 0.0727,-0.15625 0.15802,-0.353757 0.18947,-0.438905 0.0315,-0.08515 0.0722,-0.181746 0.0905,-0.214664 0.0183,-0.03292 0.10069,-0.203492 0.18305,-0.379054 0.25667,-0.547107 0.30139,-0.634333 0.39886,-0.778058 0.0521,-0.07681 0.17371,-0.324167 0.27028,-0.54968 0.0966,-0.225517 0.24751,-0.534622 0.33544,-0.686894 0.18431,-0.319203 0.54959,-0.764249 0.76988,-0.937999 0.0835,-0.06584 0.30704,-0.292538 0.49683,-0.503783 0.51582,-0.574143 0.92226,-0.992483 0.96426,-0.992483 0.0406,0 0.7404,-0.810577 0.89566,-1.037411 0.0526,-0.07681 0.17365,-0.2401 0.26905,-0.362874 0.0954,-0.122773 0.24647,-0.322978 0.33571,-0.444906 0.16217,-0.221571 0.37776,-0.392696 0.56269,-0.446627 0.054,-0.01574 0.17997,-0.07211 0.27998,-0.125263 l 0.18184,-0.09664 1.31248,-0.0022 c 0.99665,-0.0017 1.38272,-0.01637 1.60437,-0.06117 0.16054,-0.03245 0.419,-0.0755 0.57435,-0.09566 0.25897,-0.03362 0.50436,-0.105415 0.67905,-0.198678 0.0378,-0.02017 0.13822,-0.05432 0.22321,-0.07589 0.085,-0.02157 0.22407,-0.06957 0.30906,-0.106658 0.13406,-0.0585 0.24202,-0.06398 0.81511,-0.04133 0.4853,0.01918 0.69942,0.04345 0.80698,0.09147 0.12461,0.05563 0.31772,0.06579 1.29679,0.06824 1.00339,0.0025 1.17519,-0.006 1.34454,-0.06694 0.10679,-0.0384 0.23476,-0.06982 0.28439,-0.06982 0.13812,0 0.48394,0.145314 0.82637,0.34725 0.29158,0.171948 0.32557,0.182485 0.60095,0.186326 0.25637,0.0036 0.32398,-0.01165 0.55563,-0.125102 0.37456,-0.183442 0.54057,-0.175701 0.81796,0.03814 0.0472,0.0364 0.14766,0.07932 0.22321,0.09538 0.0755,0.01606 0.18758,0.06228 0.24896,0.102703 0.0614,0.04043 0.16668,0.109748 0.23399,0.15405 0.23805,0.156684 0.30922,0.217897 0.53063,0.456435 0.12308,0.132593 0.38578,0.375136 0.58378,0.538991 0.198,0.163855 0.43054,0.365851 0.51675,0.448879 0.0862,0.08303 0.17892,0.151371 0.20604,0.151869 0.0501,9.18e-4 0.28272,0.142908 0.68458,0.417937 0.12277,0.08401 0.26957,0.181735 0.32623,0.217146 0.39089,0.244311 1.12074,0.877722 1.43123,1.242116 0.10724,0.12587 0.26285,0.283102 0.34579,0.349408 0.0829,0.0663 0.21665,0.21972 0.29712,0.340925 0.15441,0.232548 0.42794,0.543795 0.47789,0.543795 0.0163,0 0.0468,0.04375 0.0677,0.09722 0.021,0.05347 0.14321,0.237702 0.27165,0.40941 0.12843,0.171707 0.26275,0.374844 0.29847,0.451413 0.0357,0.07657 0.0995,0.184109 0.14176,0.238972 0.0422,0.05486 0.0964,0.144639 0.12028,0.199502 0.0239,0.05486 0.11853,0.230273 0.21024,0.389799 0.0917,0.159526 0.16674,0.297745 0.16674,0.307149 0,0.0094 0.0752,0.177849 0.16704,0.374314 0.0919,0.196466 0.17511,0.399399 0.18496,0.450959 0.0294,0.153912 0.21741,0.717585 0.31073,0.931655 0.0478,0.109726 0.12135,0.325188 0.16339,0.478805 0.042,0.153616 0.10285,0.351123 0.13517,0.438904 0.16304,0.442915 0.20557,0.588468 0.2735,0.936128 0.0406,0.207638 0.0864,0.396167 0.10179,0.418954 0.0154,0.02279 0.0478,0.140186 0.0721,0.260885 0.0242,0.120699 0.0738,0.300251 0.11026,0.399004 0.0994,0.26958 0.19042,0.594545 0.22906,0.817959 0.019,0.109726 0.051,0.2803 0.0711,0.379054 0.0735,0.360089 0.11258,0.710028 0.14033,1.256863 0.0801,1.577918 0.0964,1.840914 0.11836,1.904575 0.0131,0.03804 0.13352,0.134109 0.26758,0.213495 0.4667,0.276354 0.68976,0.513462 0.90794,0.965087 0.19467,0.402995 0.44403,0.711197 0.6972,0.861738 0.16441,0.09776 0.20508,0.146562 0.29877,0.358461 0.0861,0.194766 0.11322,0.315692 0.13154,0.587063 0.0215,0.319107 0.0171,0.354826 -0.0669,0.538655 -0.0495,0.108286 -0.18393,0.308638 -0.29869,0.445229 -0.15627,0.185984 -0.20339,0.267672 -0.18764,0.325316 0.0386,0.141116 0.0868,0.541321 0.0872,0.723104 4.4e-4,0.221132 -0.19481,0.92053 -0.27849,0.99751 -0.0119,0.01097 -0.0704,0.127681 -0.12995,0.259353 -0.0596,0.131671 -0.15039,0.320201 -0.20188,0.418954 -0.0881,0.168951 -0.095,0.217242 -0.11665,0.817959 -0.0127,0.351123 -0.0399,0.764093 -0.0604,0.917709 -0.0798,0.596077 -0.10618,0.805562 -0.12689,1.008224 -0.0118,0.115616 -0.035,0.219919 -0.0515,0.231782 -0.0165,0.01186 -0.03,0.07976 -0.03,0.150883 0,0.07113 -0.0128,0.146375 -0.0284,0.167223 -0.0156,0.02085 -0.0483,0.118703 -0.0726,0.217457 -0.0243,0.09875 -0.0569,0.215462 -0.0724,0.259353 -0.0293,0.08293 -0.0677,0.232755 -0.13803,0.538655 -0.0697,0.302733 -0.10817,0.454825 -0.13944,0.55051 -0.0165,0.05041 -0.0303,0.158138 -0.0308,0.239403 -0.001,0.200923 -0.12261,0.592625 -0.32017,1.033042 -0.15924,0.354994 -0.40362,0.730672 -0.47531,0.730672 -0.0193,0 -0.0827,0.04663 -0.14104,0.103626 -0.0583,0.057 -0.25369,0.188138 -0.4342,0.291428 -0.18052,0.103294 -0.42093,0.248281 -0.53426,0.322196 -0.43246,0.282088 -0.92843,0.530185 -1.49378,0.747227 -0.19763,0.07588 -0.29854,0.09344 -0.43377,0.07552 -0.28165,-0.03734 -0.34357,0.143729 -0.0641,0.187576 0.0755,0.01185 0.20689,0.04227 0.29188,0.06758 0.085,0.02532 0.2049,0.0557 0.26646,0.06751 0.0615,0.01181 0.12041,0.03745 0.1308,0.05697 0.0104,0.01952 0.0527,0.03561 0.0941,0.03575 0.0414,0 0.1216,0.03593 0.17826,0.07954 0.0567,0.0436 0.14513,0.07939 0.1966,0.07954 0.0515,0 0.19479,0.05413 0.3185,0.119965 0.12371,0.06584 0.24385,0.119813 0.26699,0.119948 0.0231,0 0.0884,0.02881 0.14508,0.06373 0.0567,0.03492 0.18801,0.08952 0.29189,0.121337 0.10388,0.03182 0.27187,0.10189 0.3733,0.15572 0.10501,0.05572 0.24833,0.09787 0.33279,0.09787 0.0816,0 0.15685,0.01597 0.16723,0.03548 0.0104,0.01951 0.0566,0.04648 0.10265,0.05991 0.0461,0.01344 0.20082,0.08725 0.34387,0.164024 0.14305,0.0768 0.28191,0.13958 0.30859,0.13958 0.0267,0 0.0537,0.0135 0.06,0.0299 0.006,0.0165 0.0887,0.0744 0.18314,0.12875 0.22534,0.12971 0.34054,0.22179 0.55494,0.4436 0.0975,0.10082 0.2829,0.24446 0.41208,0.3192 0.12918,0.0747 0.24533,0.15277 0.25811,0.17339 0.0128,0.0206 0.0682,0.0655 0.12317,0.0998 0.17982,0.11199 0.47276,0.35104 0.66291,0.54095 0.1026,0.10247 0.24062,0.22072 0.30673,0.26277 0.21256,0.13522 0.83049,0.68924 0.98175,0.8802 0.36896,0.46579 1.3085,1.47373 1.66241,1.78345 0.0661,0.0579 0.57185,0.6322 1.12389,1.27633 0.70692,0.82487 1.03619,1.23793 1.1136,1.39698 0.0604,0.1242 0.17446,0.32458 0.25335,0.44527 0.0789,0.1207 0.2904,0.55163 0.47002,0.95761 0.17962,0.40599 0.42137,0.93285 0.53722,1.1708 0.11584,0.23794 0.21062,0.44847 0.21062,0.46783 0,0.0194 0.0468,0.15398 0.10405,0.29915 0.0572,0.14518 0.12069,0.35661 0.14103,0.46983 0.0203,0.11323 0.0508,0.22293 0.0676,0.24378 0.0169,0.0208 0.0307,0.0841 0.0307,0.14045 0,0.0564 0.0348,0.23685 0.0773,0.401 0.0759,0.29299 0.0772,0.33425 0.0733,2.25357 -0.003,1.39465 -0.0158,2.00088 -0.0453,2.11472 -0.0227,0.0878 -0.0551,0.53404 -0.072,0.99168 -0.0172,0.46511 -0.0466,0.8543 -0.0667,0.88245 -0.0198,0.0277 -0.0521,0.19931 -0.0717,0.38136 -0.0197,0.18206 -0.0504,0.36283 -0.0683,0.40173 -0.0179,0.0389 -0.0326,0.13368 -0.0326,0.21063 0,0.077 -0.0133,0.1495 -0.0296,0.1612 -0.0163,0.0117 -0.0488,0.10703 -0.0722,0.21183 -0.0234,0.10481 -0.0874,0.30359 -0.14207,0.44173 -0.0547,0.13814 -0.0995,0.27173 -0.0995,0.29687 0,0.0251 -0.0449,0.1545 -0.0997,0.28748 -0.0549,0.13299 -0.1244,0.30912 -0.15453,0.39142 -0.181,0.49436 -0.26784,0.65723 -0.51029,0.95703 -0.084,0.10392 -0.22757,0.31844 -0.31896,0.4767 -0.21247,0.36796 -0.62327,0.94258 -0.89334,1.24957 -0.11583,0.13167 -0.30152,0.36509 -0.41265,0.51871 -0.11113,0.15361 -0.24429,0.33073 -0.29591,0.39359 -0.11812,0.1438 -0.2678,0.48888 -0.2678,0.61735 0,0.0536 -0.0321,0.17229 -0.0714,0.26368 l -0.0714,0.16615 0.19836,0.33697 c 0.1091,0.18534 0.20878,0.34596 0.22151,0.35693 0.0318,0.0274 0.22303,0.47568 0.25534,0.5985 0.028,0.1063 0.33571,0.83684 0.45855,1.08854 0.0405,0.083 0.11405,0.26253 0.16344,0.399 0.0494,0.13648 0.19372,0.49951 0.32074,0.80674 0.12701,0.30723 0.25154,0.64838 0.27674,0.75811 0.0252,0.10972 0.0653,0.23541 0.0892,0.2793 0.0239,0.0439 0.0693,0.16958 0.10089,0.2793 0.0316,0.10973 0.11466,0.33417 0.18451,0.49876 0.0699,0.16459 0.16259,0.40698 0.20609,0.53865 0.0897,0.27147 0.16005,0.466 0.22954,0.63456 0.0263,0.0637 0.0478,0.13104 0.0478,0.1496 0,0.0186 0.0598,0.17291 0.13296,0.343 0.0731,0.17009 0.20571,0.47983 0.29462,0.68831 0.0889,0.20848 0.17544,0.40599 0.19231,0.43891 0.06,0.11714 0.12579,0.30243 0.1858,0.52342 0.0586,0.2159 0.0585,0.37453 -5.1e-4,0.64717 -0.017,0.0786 -0.004,0.16409 0.044,0.2793 0.10817,0.26232 0.23318,0.65439 0.33282,1.04388 0.0505,0.19751 0.10658,0.41425 0.12458,0.48164 0.018,0.0674 0.0329,0.15717 0.0331,0.1995 3.4e-4,0.0423 0.062,0.30062 0.13736,0.57397 0.0753,0.27334 0.13694,0.52716 0.13694,0.56404 0,0.0369 0.0395,0.20359 0.0877,0.37048 0.0482,0.1669 0.1088,0.38889 0.13457,0.49332 0.0669,0.2713 0.19838,0.68578 0.26776,0.84439 0.0327,0.0747 0.0594,0.15353 0.0594,0.17519 0,0.042 0.27922,0.74032 0.442,1.10547 0.14383,0.32267 0.22522,0.51672 0.30119,0.71821 0.0372,0.0987 0.11498,0.29626 0.17277,0.43891 0.0578,0.14264 0.16433,0.42094 0.23678,0.61845 0.0725,0.19751 0.15178,0.39452 0.17629,0.43781 0.0245,0.0433 0.0446,0.10044 0.0446,0.127 0,0.0266 0.12899,0.35923 0.28664,0.73925 0.15766,0.38003 0.33669,0.8346 0.39784,1.01017 0.0612,0.17556 0.16011,0.42852 0.21988,0.56214 0.0598,0.13362 0.18295,0.4209 0.27374,0.6384 0.0908,0.21751 0.17965,0.42665 0.19746,0.46476 0.0178,0.0381 0.0324,0.0976 0.0324,0.13213 0,0.0346 0.0773,0.23647 0.1717,0.4487 0.0944,0.21222 0.1717,0.39936 0.1717,0.41586 0,0.0165 0.0443,0.13629 0.0985,0.26619 0.0542,0.1299 0.10943,0.2873 0.12284,0.34977 0.0134,0.0625 0.0451,0.16745 0.0704,0.23328 0.0253,0.0658 0.0541,0.17357 0.064,0.23941 0.01,0.0658 0.0256,0.16458 0.0348,0.21945 0.009,0.0549 0.0356,0.23441 0.0585,0.399 0.0396,0.28475 0.0954,0.45572 0.35842,1.09896 0.0632,0.15454 0.12528,0.32905 0.13797,0.3878 0.0341,0.15766 0.28136,0.44574 0.49691,0.57885 0.10388,0.0641 0.27386,0.17606 0.37774,0.2487 0.10387,0.0726 0.22285,0.15316 0.26439,0.17892 0.15482,0.096 0.58027,0.59759 0.67376,0.79431 0.0782,0.16452 0.10183,0.27743 0.12287,0.58642 l 0.026,0.38267 0.19144,0.27568 c 0.1053,0.15163 0.29526,0.45502 0.42213,0.6742 0.12688,0.21918 0.2604,0.44362 0.29671,0.49876 0.095,0.14423 0.30342,0.51362 0.30342,0.53774 0,0.0113 0.0734,0.12935 0.16312,0.26242 0.20326,0.30151 0.39134,0.59715 0.54469,0.8562 0.065,0.10973 0.17313,0.2803 0.24039,0.37905 0.0673,0.0988 0.15572,0.23298 0.19658,0.29828 0.0409,0.0653 0.10662,0.15755 0.14614,0.20501 0.0395,0.0474 0.10134,0.13989 0.13736,0.20542 0.0799,0.14528 0.21769,0.37449 0.35356,0.58806 0.0558,0.0878 0.18718,0.30324 0.29183,0.4788 0.10466,0.17556 0.2519,0.41796 0.3272,0.53866 0.0753,0.1207 0.20218,0.32718 0.28197,0.45885 0.0798,0.13167 0.21576,0.34019 0.30216,0.46336 0.29597,0.42194 0.4662,0.6929 0.53686,0.85456 0.10432,0.23867 0.27462,0.51533 0.38327,0.62264 0.18998,0.18761 0.4426,0.6404 0.6252,1.12057 0.10249,0.26951 0.26992,0.69649 0.37206,0.94886 0.10213,0.25237 0.20166,0.50375 0.22115,0.55861 0.0195,0.0549 0.0491,0.13093 0.0658,0.16903 0.0167,0.0381 0.0303,0.0872 0.0303,0.10916 0,0.0219 0.0833,0.24212 0.18518,0.48932 0.20603,0.50007 0.32706,0.83871 0.39594,1.10781 0.0727,0.28384 0.20812,0.59534 0.27774,0.63863 0.0351,0.0218 0.10731,0.04 0.1605,0.0403 0.17191,10e-4 0.36323,0.15971 0.45637,0.3782 0.11597,0.27204 0.13898,0.48882 0.16729,1.57626 0.0223,0.85713 0.0307,0.94965 0.0974,1.07731 0.0401,0.0768 0.0841,0.20249 0.0977,0.2793 0.0136,0.0768 0.0595,0.22045 0.10193,0.31921 0.079,0.1837 0.17822,0.51693 0.27741,0.93157 0.0411,0.17162 0.0923,0.27449 0.19391,0.38903 0.076,0.0856 0.15701,0.15571 0.18014,0.15571 0.0884,0 0.2277,0.27132 0.52589,1.0243 0.12683,0.32027 0.14492,0.40104 0.14492,0.64716 0,0.20728 -0.0181,0.3186 -0.0687,0.42331 -0.0378,0.0781 -0.0687,0.16229 -0.0687,0.18699 0,0.0247 0.0618,0.11531 0.13736,0.20136 0.0755,0.0861 0.13735,0.16778 0.13735,0.18162 0,0.0138 0.0525,0.0888 0.1167,0.16651 0.30908,0.37434 0.65026,0.9266 0.82684,1.33834 0.10352,0.2414 0.29527,0.67033 0.42612,0.95318 0.13086,0.28285 0.24505,0.56116 0.25376,0.61846 0.009,0.0573 0.0402,0.18498 0.0699,0.28373 0.13201,0.43843 0.17432,0.63906 0.19774,0.93766 0.0283,0.36107 0.0647,0.55848 0.15059,0.81796 0.0327,0.0988 0.0708,0.21546 0.0846,0.25935 0.0139,0.0439 0.057,0.1606 0.0959,0.25936 0.0389,0.0987 0.0898,0.24239 0.11303,0.3192 0.0233,0.0768 0.0714,0.21577 0.10696,0.30879 0.0355,0.093 0.0648,0.19179 0.0651,0.21946 3.4e-4,0.0277 0.0254,0.13111 0.0558,0.22986 0.0497,0.16139 0.16104,0.65753 0.20599,0.91771 0.009,0.0549 0.061,0.20748 0.11446,0.33915 0.0535,0.13167 0.1166,0.31123 0.14026,0.39901 0.0237,0.0878 0.10075,0.30324 0.17129,0.4788 0.0705,0.17556 0.16821,0.46704 0.21705,0.64772 0.0488,0.18068 0.12571,0.4141 0.17083,0.5187 0.0451,0.10461 0.0926,0.25758 0.10547,0.33995 0.0129,0.0824 0.0691,0.2744 0.12487,0.42674 0.0558,0.15235 0.10144,0.31506 0.10144,0.3616 0,0.0465 0.0141,0.11515 0.0313,0.15247 0.0346,0.0751 0.1632,0.71753 0.24101,1.20371 0.0589,0.36811 0.10185,0.58352 0.15112,0.75811 0.0279,0.0987 0.0852,0.31421 0.12746,0.4788 0.10879,0.42402 0.19113,0.72212 0.23143,0.83791 0.0191,0.0549 0.0546,0.18055 0.0788,0.2793 0.0242,0.0988 0.0542,0.19751 0.0665,0.21946 0.0123,0.0219 0.0432,0.10274 0.0686,0.17955 0.0254,0.0768 0.10526,0.28598 0.17745,0.46483 0.10266,0.25433 0.13126,0.37337 0.13126,0.54628 0,0.1216 0.0155,0.23219 0.0343,0.24575 0.0189,0.0136 0.0343,0.064 0.0342,0.11208 0,0.0859 0.15075,0.65253 0.27847,1.0458 0.0358,0.11016 0.065,0.23832 0.065,0.28482 0,0.0465 0.0404,0.24366 0.0898,0.43813 0.0494,0.19448 0.1196,0.47928 0.15606,0.6329 0.0365,0.15361 0.0876,0.36908 0.11358,0.4788 0.026,0.10973 0.10982,0.40599 0.18626,0.65836 0.0764,0.25237 0.14816,0.53965 0.15941,0.63841 0.0279,0.2453 0.20115,0.83093 0.35998,1.21696 0.0722,0.17556 0.15772,0.41796 0.18998,0.53865 0.0323,0.1207 0.0799,0.25923 0.10577,0.30783 0.0285,0.0534 0.0471,0.20154 0.0471,0.37442 0,0.15733 0.0144,0.35098 0.0319,0.43034 0.0175,0.0794 0.0498,0.25201 0.0717,0.38368 0.0219,0.13167 0.0539,0.27058 0.0711,0.30869 0.0172,0.0381 0.0313,0.10456 0.0313,0.14768 0,0.0932 0.0745,0.43008 0.15057,0.68079 0.03,0.0988 0.0547,0.20219 0.055,0.22986 3.4e-4,0.0277 0.029,0.12643 0.0639,0.21946 0.0349,0.093 0.0822,0.24096 0.10529,0.32874 0.0231,0.0878 0.0548,0.19551 0.0705,0.2394 0.0499,0.13934 0.17291,0.63824 0.17291,0.70138 0,0.0334 0.0136,0.0778 0.0302,0.0986 0.0166,0.0208 0.0494,0.10972 0.0728,0.1975 0.0234,0.0878 0.10846,0.3212 0.1889,0.51871 0.0804,0.19751 0.15644,0.42195 0.16888,0.49875 0.0229,0.14137 0.0408,0.23491 0.14151,0.73816 0.0307,0.15362 0.0778,0.31907 0.10452,0.36768 0.0268,0.0486 0.0487,0.11214 0.0487,0.14119 0,0.0291 0.0322,0.12394 0.0716,0.21088 0.0816,0.18012 0.25135,0.63953 0.32385,0.87627 0.0618,0.20183 0.22976,0.57699 0.35457,0.79205 0.0528,0.0911 0.13011,0.24636 0.17169,0.34511 0.12867,0.30559 0.21089,0.44733 0.45576,0.78566 0.13009,0.17974 0.23653,0.33772 0.23653,0.35108 0,0.0282 0.27166,0.49162 0.33419,0.57007 0.0233,0.0292 0.0968,0.14853 0.16349,0.2652 l 0.12118,0.21213 0.4718,0.0283 c 1.26635,0.076 1.40194,0.10041 1.81154,0.3261 0.0947,0.0522 0.18997,0.0949 0.21169,0.0949 0.0217,0 0.0822,0.0853 0.13445,0.18953 0.09,0.17956 0.0962,0.22517 0.11962,0.86783 0.0251,0.69007 0.0778,1.28429 0.13625,1.53617 0.05,0.21562 0.0388,0.66208 -0.0229,0.9087 -0.065,0.25987 -0.0487,0.59955 0.0383,0.79756 0.0646,0.1469 0.78591,1.00563 0.99608,1.18579 0.31478,0.26981 0.46645,0.43457 0.51939,0.56421 0.0309,0.0756 0.0981,0.18963 0.14943,0.25347 0.0513,0.0638 0.12245,0.16649 0.15807,0.22811 0.17638,0.30518 0.16896,0.23982 0.16896,1.48953 0,1.12441 -0.003,1.18165 -0.0687,1.25888 -0.15704,0.18499 -0.24187,0.21652 -0.58257,0.21652 -0.1954,0 -0.32744,-0.0161 -0.32744,-0.0399 0,-0.022 -0.0169,-0.0399 -0.0376,-0.0399 -0.13708,0 -0.37446,-0.3637 -0.37446,-0.57371 0,-0.23434 -0.11154,-0.30717 -0.17549,-0.11458 -0.0252,0.0759 -0.0257,0.17116 -0.001,0.30923 0.0192,0.10973 0.0529,0.32519 0.0749,0.47881 0.022,0.15361 0.0542,0.33317 0.0716,0.399 0.10483,0.39665 0.21534,0.77147 0.25292,0.85786 0.048,0.11026 0.15698,0.48019 0.22341,0.75811 0.0236,0.0987 0.0548,0.22444 0.0693,0.2793 0.0145,0.0549 0.045,0.17218 0.0677,0.2607 0.0576,0.22394 -0.004,1.64114 -0.0818,1.87397 -0.13913,0.41801 -0.61144,1.4642 -0.77768,1.7226 -0.0934,0.14514 -0.16977,0.28826 -0.16977,0.31804 0,0.0298 -0.0151,0.0541 -0.0335,0.0541 -0.0184,0 -0.056,0.0494 -0.0836,0.10972 -0.0276,0.0603 -0.11059,0.18155 -0.18452,0.26933 -0.0739,0.0878 -0.17926,0.2386 -0.23408,0.33515 -0.14405,0.25372 -0.13413,0.24022 -0.49616,0.67432 -0.37055,0.44431 -0.42256,0.4868 -0.5959,0.4868 -0.15863,0 -0.23446,0.1306 -0.11791,0.20307 0.0845,0.0525 0.50815,0.0253 0.66176,-0.0425 0.13099,-0.0579 2.01172,-0.0544 2.13754,0.004 0.131,0.0607 0.54424,0.11353 1.14978,0.14688 0.27702,0.0153 0.50933,0.0367 0.51624,0.0477 0.062,0.0985 0.0949,0.27738 0.11011,0.59851 0.01,0.20848 0.0344,0.4778 0.0546,0.5985 0.11795,0.70644 0.1203,0.781 0.1203,3.81049 0,2.31573 -0.0105,3.09373 -0.0443,3.29179 -0.0244,0.14264 -0.0563,0.34015 -0.0709,0.4389 -0.0146,0.0987 -0.0511,0.23342 -0.081,0.29925 -0.0831,0.18263 -0.29238,0.4145 -0.44209,0.48986 -0.0739,0.0372 -0.13434,0.0813 -0.13434,0.0981 0,0.0168 -0.0374,0.0305 -0.0832,0.0305 -0.11366,0 -0.26338,0.15535 -0.35488,0.36825 -0.14282,0.33227 -0.28645,0.4065 -0.71716,0.37064 -0.1673,-0.0139 -1.27,-0.0377 -2.45043,-0.0529 l -2.14623,-0.0276 -0.14374,-0.10861 c -0.0898,-0.0678 -0.19254,-0.20262 -0.2738,-0.3591 l -0.13006,-0.2505 -0.0126,-0.81061 c -0.01,-0.64141 -0.0225,-0.81501 -0.0599,-0.83169 -0.026,-0.0116 -0.11347,0.0405 -0.19437,0.11583 -0.15508,0.14435 -0.70927,0.46963 -0.96022,0.56359 -0.29654,0.11103 -0.5699,0.15412 -0.82302,0.12972 -0.57177,-0.0551 -0.91479,-0.11748 -1.04413,-0.18981 -0.0387,-0.0217 -0.14692,-0.0338 -0.24038,-0.0269 l -0.16992,0.0125 -0.0179,0.2793 c -0.0236,0.3687 -0.0982,0.5489 -0.26396,0.63741 -0.0716,0.0383 -0.17511,0.0945 -0.22995,0.12505 -0.0571,0.0318 -0.20704,0.0555 -0.35078,0.0555 -0.27578,0 -0.32157,0.0378 -0.32272,0.26671 -0.001,0.20766 -0.137,0.42181 -0.34283,0.53999 -0.17086,0.0981 -0.2255,0.10857 -0.57296,0.10973 -0.22502,7.6e-4 -0.42412,-0.0186 -0.48076,-0.0467 -0.0667,-0.0331 -0.41625,-0.0505 -1.12686,-0.0563 -0.56661,-0.005 -1.25426,-0.0209 -1.52812,-0.0362 -0.48182,-0.027 -0.50515,-0.0324 -0.72114,-0.16664 -0.12276,-0.0763 -0.27729,-0.19733 -0.3434,-0.26888 -0.0661,-0.0716 -0.17904,-0.18065 -0.25098,-0.24243 -0.14416,-0.12382 -0.18861,-0.20739 -0.2978,-0.55982 -0.13644,-0.44043 -0.15084,-0.78574 -0.14884,-3.56941 0.002,-2.95057 0.0317,-3.93602 0.12404,-4.13769 0.0322,-0.0702 0.0585,-0.17581 0.0585,-0.23463 0,-0.13435 0.22661,-0.63475 0.35129,-0.77571 0.0516,-0.0583 0.15973,-0.13765 0.24038,-0.17635 0.0806,-0.0387 0.17347,-0.0865 0.20626,-0.10618 0.0328,-0.0197 0.17464,-0.0358 0.31521,-0.0358 h 0.25558 l 0.0554,-0.22943 c 0.0782,-0.32396 0.19932,-0.5737 0.32907,-0.6783 0.13877,-0.11188 0.47949,-0.12203 0.83953,-0.025 0.29908,0.0806 0.46996,0.0897 0.48866,0.0261 0.008,-0.0268 -0.0577,-0.13364 -0.14569,-0.23738 -0.20585,-0.24261 -0.36152,-0.60189 -0.39445,-0.91038 -0.0298,-0.2788 -0.12617,-0.46889 -0.37463,-0.73865 -0.14011,-0.15211 -0.17923,-0.22958 -0.25597,-0.5069 -0.0747,-0.27011 -0.0906,-0.4022 -0.0906,-0.75528 0,-0.23536 0.0144,-0.48306 0.032,-0.55045 0.0176,-0.0674 0.0514,-0.20334 0.075,-0.30209 0.0236,-0.0987 0.11128,-0.3591 0.19476,-0.57856 0.16341,-0.42953 0.33467,-0.97961 0.3851,-1.23691 0.0172,-0.0878 0.032,-0.39374 0.0328,-0.6799 9.6e-4,-0.3283 0.0205,-0.60509 0.053,-0.75008 0.0734,-0.32742 0.0734,-2.03958 0,-2.36699 -0.0336,-0.14974 -0.0524,-0.43189 -0.054,-0.80994 -10e-4,-0.31907 -0.0177,-0.6789 -0.0362,-0.7996 -0.0185,-0.12069 -0.0479,-0.35411 -0.0653,-0.5187 -0.0678,-0.64147 -0.0789,-0.69028 -0.26139,-1.146 -0.21974,-0.54878 -0.11632,-0.88892 0.27029,-0.88892 0.21443,0 0.20375,-0.0906 -0.0451,-0.38237 -0.12012,-0.14082 -0.23816,-0.25604 -0.26232,-0.25604 -0.0242,0 -0.0439,-0.0162 -0.0439,-0.036 0,-0.0198 -0.0502,-0.0704 -0.11161,-0.11251 -0.20395,-0.1399 -0.5224,-0.51821 -0.61865,-0.73494 -0.0973,-0.21918 -0.13064,-0.56181 -0.0596,-0.61285 0.0189,-0.0136 0.0343,-0.0506 0.0343,-0.0823 0,-0.0317 0.0631,-0.12387 0.14029,-0.20488 l 0.1403,-0.14726 -0.0184,-0.40126 c -0.0224,-0.48797 -0.053,-0.74784 -0.094,-0.79827 -0.017,-0.0208 -0.0308,-0.11582 -0.0308,-0.21106 0,-0.0952 -0.0309,-0.24355 -0.0687,-0.32959 -0.0378,-0.086 -0.0687,-0.19199 -0.0687,-0.23545 0,-0.0435 -0.0154,-0.0901 -0.0343,-0.1037 -0.0189,-0.0136 -0.0343,-0.0794 -0.0343,-0.14627 0,-0.13274 -0.36022,-1.0025 -0.50948,-1.23014 -0.0503,-0.0767 -0.1282,-0.20241 -0.17309,-0.27931 -0.0449,-0.0769 -0.0913,-0.14878 -0.10302,-0.15975 -0.0667,-0.0622 -0.2446,-0.36351 -0.2446,-0.41426 0,-0.0329 -0.0149,-0.0706 -0.0332,-0.0837 -0.0183,-0.0131 -0.11291,-0.15782 -0.21033,-0.32156 -0.0974,-0.16375 -0.18679,-0.29786 -0.1986,-0.29803 -0.0118,0 -0.0755,-0.0994 -0.14165,-0.22056 -0.19152,-0.35094 -0.24519,-0.43703 -0.4646,-0.74519 -0.11388,-0.15994 -0.28084,-0.43771 -0.37104,-0.61726 -0.0902,-0.17955 -0.21121,-0.39501 -0.26893,-0.4788 -0.12254,-0.17792 -0.31867,-0.51475 -0.44072,-0.75688 -0.0472,-0.0937 -0.18243,-0.30552 -0.30048,-0.47078 -0.11804,-0.16526 -0.21462,-0.3128 -0.21462,-0.32787 0,-0.0398 -0.2336,-0.43702 -0.40677,-0.6916 -0.0821,-0.1207 -0.34095,-0.46513 -0.57522,-0.76541 -0.23427,-0.30027 -0.42594,-0.56105 -0.42594,-0.57951 0,-0.0185 -0.30592,-0.38324 -0.67983,-0.81065 -0.76521,-0.87472 -0.82559,-0.93997 -1.26975,-1.37233 -0.17514,-0.17049 -0.39921,-0.41891 -0.49793,-0.55203 -0.0987,-0.13313 -0.26171,-0.3396 -0.36221,-0.45884 -0.1005,-0.11923 -0.27238,-0.34085 -0.38196,-0.4925 -0.10959,-0.15164 -0.27847,-0.34901 -0.3753,-0.4386 -0.0968,-0.0896 -0.17606,-0.17605 -0.17606,-0.19216 0,-0.0161 -0.14562,-0.21198 -0.3236,-0.43528 -0.17798,-0.2233 -0.37058,-0.50142 -0.428,-0.61804 -0.0574,-0.11662 -0.1791,-0.32769 -0.27039,-0.46905 -0.29439,-0.45587 -0.42386,-0.65472 -0.46611,-0.71588 -0.0227,-0.0329 -0.0747,-0.12269 -0.11554,-0.1995 -0.0408,-0.0768 -0.12164,-0.19239 -0.17963,-0.25684 -0.058,-0.0645 -0.10542,-0.13232 -0.10542,-0.1508 0,-0.0361 -0.19664,-0.34009 -0.40457,-0.62552 -0.0702,-0.0964 -0.16181,-0.24504 -0.20351,-0.33028 -0.0417,-0.0852 -0.12047,-0.2308 -0.17505,-0.32346 -0.0546,-0.0927 -0.1209,-0.20658 -0.14739,-0.25316 -0.0265,-0.0466 -0.11117,-0.18124 -0.18817,-0.29925 -0.077,-0.11801 -0.19037,-0.3223 -0.25191,-0.45397 -0.0615,-0.13167 -0.13917,-0.27531 -0.17249,-0.3192 -0.11875,-0.15643 -0.27109,-0.44576 -0.48255,-0.91642 -0.11799,-0.26264 -0.27676,-0.61276 -0.35284,-0.77806 -0.0761,-0.1653 -0.19848,-0.44419 -0.27203,-0.61975 -0.0735,-0.17556 -0.14856,-0.35038 -0.16671,-0.38848 -0.0181,-0.0381 -0.033,-0.0985 -0.033,-0.13423 0,-0.0357 -0.0298,-0.13022 -0.0662,-0.21001 -0.18741,-0.41066 -0.42721,-1.04289 -0.45264,-1.19341 -0.0458,-0.27132 -0.28786,-0.89283 -0.71797,-1.84369 -0.0941,-0.20806 -0.17111,-0.41359 -0.17111,-0.45673 0,-0.0478 -0.17789,-0.2826 -0.455,-0.60061 -0.45311,-0.51999 -0.55172,-0.59855 -0.86708,-0.69071 -0.29532,-0.0863 -0.46722,-0.12804 -0.52748,-0.12804 -0.099,0 -0.2455,-0.0995 -0.4661,-0.31663 -0.11798,-0.1161 -0.27702,-0.22837 -0.37774,-0.26666 -0.0957,-0.0364 -0.24338,-0.10854 -0.32822,-0.16037 -0.0849,-0.0518 -0.16624,-0.0943 -0.18087,-0.0943 -0.0146,0 -0.14117,-0.0808 -0.28118,-0.17955 -0.14001,-0.0987 -0.27208,-0.17955 -0.2935,-0.17955 -0.0214,0 -0.1234,-0.0449 -0.22663,-0.0998 -0.10323,-0.0549 -0.19605,-0.0998 -0.20626,-0.0998 -0.0331,0 -0.37058,-0.33616 -0.44066,-0.43891 -0.14945,-0.2191 -0.56887,-0.61961 -0.98106,-0.93684 -0.085,-0.0654 -0.23174,-0.19239 -0.32617,-0.28225 -0.0944,-0.0898 -0.24896,-0.21436 -0.3434,-0.27669 -0.18586,-0.12269 -0.54075,-0.54166 -0.8624,-1.01812 -0.11117,-0.16469 -0.24492,-0.3622 -0.29723,-0.43891 -0.0523,-0.0767 -0.23241,-0.34746 -0.40024,-0.60168 -0.16784,-0.25421 -0.32593,-0.48812 -0.35133,-0.51978 -0.0864,-0.10774 -0.1871,-0.29439 -0.26668,-0.49432 -0.12944,-0.32521 -0.20206,-0.41403 -0.4592,-0.56169 -0.57445,-0.32987 -0.97692,-0.88037 -1.51468,-2.07174 -0.0396,-0.0878 -0.0836,-0.16559 -0.0978,-0.1729 -0.0142,-0.007 -0.0258,-0.0453 -0.0258,-0.0843 0,-0.0679 -0.11648,-0.41726 -0.26679,-0.80017 -0.15305,-0.38989 -0.21396,-0.64451 -0.21396,-0.89439 0,-0.13914 -0.0232,-0.31744 -0.0515,-0.39622 -0.0283,-0.0788 -0.0515,-0.19867 -0.0515,-0.26641 0,-0.0677 -0.0327,-0.20748 -0.0727,-0.31052 -0.20838,-0.53694 -0.30493,-0.76111 -0.33803,-0.78488 -0.0202,-0.0145 -0.0694,-0.10142 -0.10946,-0.19319 -0.04,-0.0918 -0.0833,-0.17585 -0.0961,-0.18682 -0.0128,-0.011 -0.1336,-0.28031 -0.26843,-0.59851 -0.13483,-0.31821 -0.29701,-0.67824 -0.36041,-0.80008 -0.0634,-0.12184 -0.1661,-0.37321 -0.22823,-0.5586 -0.0621,-0.1854 -0.14174,-0.40891 -0.17691,-0.49669 -0.0871,-0.21749 -0.30652,-0.99636 -0.34279,-1.21696 -0.0162,-0.0988 -0.0475,-0.26035 -0.0695,-0.35911 -0.022,-0.0987 -0.0514,-0.48479 -0.0654,-0.85786 -0.014,-0.37306 -0.0367,-0.71619 -0.0504,-0.76249 -0.0137,-0.0463 -0.10297,-0.16302 -0.19839,-0.25936 -0.0954,-0.0963 -0.25257,-0.25663 -0.34923,-0.35621 -0.0967,-0.0996 -0.26811,-0.26117 -0.38099,-0.3591 -0.21164,-0.1836 -0.46474,-0.44851 -0.98974,-1.03591 -0.52611,-0.58866 -1.17367,-1.33755 -1.24405,-1.43874 -0.0373,-0.0536 -0.12186,-0.14889 -0.18796,-0.21179 -0.0661,-0.0629 -0.26975,-0.28181 -0.45253,-0.48647 -0.18279,-0.20466 -0.39914,-0.42096 -0.48076,-0.48066 -0.1823,-0.13335 -0.3572,-0.29308 -0.60862,-0.55588 -0.22339,-0.23349 -0.48379,-0.48321 -0.62258,-0.59705 -0.0535,-0.0439 -0.16401,-0.14751 -0.24556,-0.23026 -0.0816,-0.0828 -0.22051,-0.20843 -0.30881,-0.2793 -0.0883,-0.0709 -0.25605,-0.21543 -0.37278,-0.32125 -0.11674,-0.10582 -0.2312,-0.20085 -0.25435,-0.21117 -0.0253,-0.0113 -0.0681,0.0577 -0.10706,0.17245 -0.15788,0.46475 -0.5993,1.41576 -0.87607,1.88745 -0.27446,0.46774 -0.65015,1.30137 -0.65015,1.44263 0,0.11699 0.0893,0.27262 0.15647,0.27262 0.0273,0 0.0496,0.0141 0.0496,0.0313 0,0.0172 0.0502,0.0657 0.1116,0.10773 0.17044,0.11671 0.42559,0.40862 0.47272,0.5408 0.0232,0.065 0.0539,0.11818 0.0682,0.11818 0.0144,0 0.0324,0.16609 0.0402,0.36908 0.009,0.2395 0.0347,0.41676 0.0728,0.50489 0.0713,0.16521 0.0756,0.39572 0.01,0.54262 -0.0268,0.0599 -0.12335,0.16088 -0.21463,0.22429 -0.43448,0.30188 -0.72966,0.60776 -0.73651,0.76321 -0.002,0.0493 -0.002,0.19742 0.001,0.32909 0.003,0.14243 -0.0143,0.27981 -0.043,0.33915 -0.0265,0.0549 -0.0955,0.2024 -0.15338,0.32786 -0.0579,0.12546 -0.15053,0.30501 -0.20597,0.399 -0.0953,0.16158 -0.18507,0.42329 -0.28448,0.82926 -0.0474,0.19364 -0.60006,1.4826 -0.71862,1.67607 -0.0729,0.11892 -0.21196,0.21097 -0.38764,0.25655 -0.10538,0.0273 -0.10237,0.0206 -0.16091,0.36166 -0.0226,0.13167 -0.0652,0.30224 -0.0946,0.37905 -0.0294,0.0768 -0.0652,0.20249 -0.0795,0.2793 -0.0264,0.14115 -0.1798,0.6773 -0.25695,0.89776 -0.023,0.0658 -0.0686,0.22743 -0.10123,0.35911 -0.0912,0.36798 -0.23317,0.80463 -0.34373,1.05736 -0.024,0.0549 -0.15368,0.35104 -0.28817,0.65818 -0.13449,0.30714 -0.25362,0.61471 -0.26472,0.68348 -0.0111,0.0688 0.004,0.23498 0.0337,0.36935 0.0296,0.13438 0.064,0.41112 0.0763,0.61499 0.0182,0.30167 0.012,0.39412 -0.0337,0.49666 -0.0803,0.18045 -0.0738,0.49187 0.0126,0.59958 0.0378,0.0471 0.0687,0.10243 0.0687,0.12293 0,0.0557 0.40025,0.47553 0.52596,0.55169 0.12063,0.0731 0.27101,0.11581 0.60725,0.17248 0.12277,0.0207 0.29275,0.0584 0.37774,0.0838 0.085,0.0254 0.3786,0.0538 0.65246,0.0632 0.27386,0.009 0.5394,0.0378 0.59009,0.0633 0.0695,0.0349 0.13233,0.1449 0.25522,0.4467 0.0897,0.22022 0.18427,0.46868 0.2102,0.55212 0.0259,0.0834 0.0927,0.23519 0.1484,0.33721 0.19664,0.36028 0.31043,0.91097 0.20402,0.98739 -0.0189,0.0136 -0.0343,0.0575 -0.0343,0.0976 0,0.089 -0.19053,0.20169 -0.34111,0.20169 -0.0591,0 -0.16299,0.0269 -0.23079,0.0598 -0.14681,0.0713 -0.61575,0.0804 -0.75653,0.0148 -0.17428,-0.0813 -0.66394,-0.12306 -1.74498,-0.14891 l -1.06454,-0.0255 -0.22321,-0.14472 c -0.12276,-0.0796 -0.27313,-0.17834 -0.33415,-0.21945 -0.12762,-0.086 -0.22481,-0.0465 -0.24343,0.0989 -0.006,0.0471 -0.0254,0.0857 -0.0429,0.0857 -0.0176,0 -0.032,0.0256 -0.032,0.0569 0,0.0693 -0.18563,0.18247 -0.29943,0.18247 -0.10736,0 -0.20688,-0.0608 -0.34148,-0.20877 -0.1637,-0.17992 -0.1932,-0.12541 -0.16539,0.30561 0.018,0.2796 0.0105,0.4269 -0.0314,0.61723 -0.0303,0.13749 -0.0551,0.30432 -0.0551,0.37073 0,0.17945 -0.189,0.60642 -0.39155,0.88456 -0.63299,0.8692 -0.86657,1.2456 -0.96027,1.5474 -0.052,0.16762 -0.10362,0.40605 -0.11461,0.52985 -0.011,0.12379 -0.0332,0.23459 -0.0494,0.24621 -0.0162,0.0116 -0.0294,0.0995 -0.0294,0.19529 0,0.16571 -0.0261,0.3551 -0.10965,0.7961 -0.062,0.32727 -0.33046,0.80488 -0.77376,1.37663 -0.13647,0.17602 -0.25816,0.36979 -0.27043,0.43061 -0.0123,0.0608 -0.0996,0.2694 -0.19417,0.46351 -0.16368,0.33615 -0.17,0.36009 -0.13305,0.50338 0.10398,0.40326 -0.0228,0.64569 -0.40763,0.7792 -0.0472,0.0164 -0.10903,0.0509 -0.13736,0.0766 -0.10683,0.0971 -0.43464,0.19234 -0.5873,0.17061 -0.22259,-0.0317 -0.51371,-0.11052 -0.63695,-0.17248 -0.0595,-0.0299 -0.16769,-0.0547 -0.24038,-0.0551 -0.0727,-4e-4 -0.24033,-0.0273 -0.37253,-0.0598 -0.14204,-0.035 -0.42338,-0.0592 -0.68774,-0.0592 -0.44977,0 -0.53201,0.0221 -0.65153,0.17542 -0.0189,0.0242 -0.15024,0.11164 -0.29189,0.19426 -0.34335,0.20028 -0.58182,0.20688 -0.92002,0.0255 -0.82023,-0.44 -1.24184,-0.70532 -1.72163,-1.08342 -0.18797,-0.14813 -0.3515,-0.26933 -0.3634,-0.26933 -0.0119,0 -0.089,-0.0539 -0.17138,-0.1197 -0.0823,-0.0658 -0.16315,-0.1197 -0.17955,-0.1197 -0.0858,0 -0.66178,-0.81981 -0.66178,-0.94193 0,-0.0118 -0.11518,-0.16834 -0.25597,-0.34778 -0.14079,-0.17944 -0.29146,-0.3834 -0.33481,-0.45324 -0.25148,-0.40507 -0.43201,-0.7265 -0.47049,-0.83772 -0.0241,-0.0697 -0.0725,-0.15688 -0.10747,-0.19366 -0.035,-0.0368 -0.0743,-0.12337 -0.0873,-0.19241 -0.013,-0.0691 -0.0525,-0.18812 -0.0878,-0.2646 -0.0353,-0.0765 -0.0642,-0.15728 -0.0642,-0.17956 0,-0.0223 -0.0341,-0.10333 -0.0756,-0.18014 -0.0782,-0.14477 -0.217,-0.50076 -0.26645,-0.68342 -0.0156,-0.0577 -0.0516,-0.1654 -0.08,-0.2394 -0.0284,-0.074 -0.10632,-0.40174 -0.17319,-0.72831 -0.093,-0.45415 -0.14158,-0.61834 -0.20662,-0.69826 -0.0468,-0.0575 -0.16361,-0.25261 -0.25965,-0.43366 -0.096,-0.18105 -0.24959,-0.4698 -0.34123,-0.64167 -0.16355,-0.30677 -0.34976,-0.70699 -0.40224,-0.86457 -0.0146,-0.0439 -0.0381,-0.27731 -0.0522,-0.51871 -0.038,-0.65182 -0.0489,-0.69275 -0.240593,-0.90383 -0.09271,-0.10209 -0.16856,-0.20198 -0.16856,-0.22196 0,-0.02 -0.04636,-0.088 -0.10302,-0.15102 -0.05666,-0.0631 -0.103019,-0.13487 -0.103019,-0.15954 0,-0.0247 -0.0275,-0.0797 -0.06112,-0.12221 -0.06385,-0.0808 -0.28228,-0.48205 -0.28228,-0.51852 0,-0.0116 -0.04596,-0.13523 -0.102123,-0.27482 -0.05617,-0.13959 -0.11759,-0.33398 -0.136494,-0.43199 -0.0189,-0.098 -0.05233,-0.22994 -0.07428,-0.29317 -0.123459,-0.35568 -0.174584,-0.95304 -0.197657,-2.3095 l -0.02172,-1.27681 -0.128774,-0.26266 -0.128775,-0.26267 v -0.80136 c 0,-0.90975 0.0023,-0.8986 -0.307348,-1.48629 -0.136676,-0.25939 -0.333535,-0.52223 -0.837098,-1.11766 -0.676995,-0.80051 -0.805673,-0.96842 -1.192982,-1.55667 -0.305755,-0.46438 -0.552139,-0.89522 -0.711555,-1.24427 -0.07307,-0.15999 -0.149519,-0.3268 -0.169889,-0.37069 -0.02037,-0.0439 -0.08573,-0.21246 -0.145234,-0.3746 -0.101209,-0.27577 -0.10999,-0.33846 -0.135999,-0.97086 -0.02287,-0.55624 -0.0382,-0.68784 -0.08646,-0.74261 -0.05492,-0.0623 -0.06513,-0.0577 -0.160395,0.0731 -0.05596,0.0768 -0.17663,0.28329 -0.268159,0.45885 -0.09153,0.17556 -0.293286,0.55262 -0.448348,0.83791 -0.155057,0.28529 -0.351979,0.68003 -0.437599,0.8772 -0.133252,0.30686 -0.458299,0.91558 -0.522332,0.97817 -0.01123,0.011 -0.08973,0.11762 -0.174463,0.23699 -0.08473,0.11937 -0.254503,0.3411 -0.377268,0.49273 -0.122765,0.15163 -0.228023,0.29069 -0.233905,0.30903 -0.0217,0.0676 -0.624635,0.75677 -0.66211,0.75677 -0.02134,0 -0.113781,0.0729 -0.205431,0.1621 -0.186056,0.181 -0.443845,0.70937 -0.443845,0.90972 0,0.18495 -0.08567,0.37343 -0.270488,0.59506 -0.214857,0.25765 -0.447983,0.65272 -0.490338,0.83096 -0.02725,0.1147 -0.0182,0.16272 0.05987,0.31751 0.07955,0.15772 0.08935,0.21206 0.07248,0.40199 -0.01073,0.12078 -0.03799,0.24548 -0.06058,0.2771 -0.02259,0.0316 -0.07382,0.1276 -0.11384,0.21328 -0.04002,0.0857 -0.142307,0.24858 -0.227298,0.36203 -0.316029,0.42184 -0.377738,0.50914 -0.377738,0.5344 0,0.0142 -0.03994,0.0994 -0.08875,0.18923 -0.116151,0.21379 -0.18597,0.53475 -0.18597,0.85491 0,0.3364 -0.09018,0.56584 -0.344068,0.87543 -0.231656,0.28247 -0.548767,0.75675 -0.548767,0.82076 0,0.0559 -0.22743,0.542 -0.313904,0.67091 -0.03511,0.0523 -0.06383,0.11348 -0.06383,0.13588 0,0.0224 -0.03592,0.0963 -0.07983,0.1642 -0.0799,0.12357 -0.382727,0.7233 -0.535807,1.06113 -0.04475,0.0987 -0.105588,0.21219 -0.1352,0.25208 -0.02961,0.0399 -0.08526,0.1322 -0.123671,0.20515 -0.180459,0.34268 -0.406,0.68144 -0.705123,1.05909 -0.179426,0.22653 -0.424952,0.53657 -0.545615,0.689 -0.12066,0.15242 -0.406539,0.48214 -0.635287,0.73272 -0.256106,0.28056 -0.450617,0.53011 -0.506258,0.64953 -0.238589,0.51209 -1.04805,1.56687 -1.334561,1.73902 -0.05123,0.0308 -0.238061,0.16747 -0.415182,0.30375 -0.177118,0.13628 -0.529218,0.37047 -0.782443,0.52042 -0.253222,0.14995 -0.480943,0.29244 -0.506042,0.31664 -0.160669,0.15493 -0.519187,0.36721 -0.734641,0.43498 -0.2437,0.0767 -0.289392,0.10339 -0.510547,0.29882 -0.339738,0.3002 -0.536168,0.54185 -0.795115,0.97812 -0.08458,0.14251 -0.165638,0.27717 -0.180129,0.29926 -0.02497,0.038 -0.08636,0.13911 -0.278894,0.45911 -0.124918,0.20762 -0.490908,0.59851 -0.560385,0.59851 -0.01782,0 -0.06987,0.0469 -0.115656,0.10415 -0.04579,0.0573 -0.19142,0.19998 -0.323629,0.31712 -0.132208,0.11713 -0.30219,0.2786 -0.377738,0.3588 -0.07555,0.0802 -0.191444,0.19269 -0.257548,0.24995 -0.147541,0.12781 -0.343398,0.36349 -0.343398,0.41321 0,0.10729 -0.409265,0.7137 -0.789737,1.17015 -0.352209,0.42255 -0.469706,0.59481 -0.626447,0.91845 -0.10611,0.2191 -0.218865,0.47018 -0.250567,0.55796 -0.299392,0.82896 -0.471036,1.12023 -0.773206,1.31205 -0.162451,0.10312 -0.204208,0.17451 -0.204208,0.34909 0,0.0823 -0.01503,0.16041 -0.03341,0.17361 -0.01838,0.0132 -0.04997,0.0995 -0.07021,0.19188 -0.02024,0.0923 -0.07661,0.27562 -0.125258,0.40729 -0.04865,0.13168 -0.109777,0.29776 -0.135834,0.36908 -0.123713,0.33865 -0.167592,0.43677 -0.270975,0.60591 -0.06122,0.10017 -0.138761,0.24497 -0.1723,0.32178 -0.03354,0.0768 -0.199178,0.35394 -0.368072,0.61585 -0.168897,0.26192 -0.321273,0.51957 -0.338614,0.57256 -0.03588,0.10964 -0.278448,0.43686 -0.75176,1.01408 -0.179426,0.21881 -0.341681,0.42927 -0.360568,0.46767 -0.01889,0.0384 -0.358851,0.40794 -0.755476,0.82117 -0.396625,0.41324 -0.759768,0.79193 -0.806985,0.84153 -0.371857,0.39067 -0.515569,0.51667 -0.699245,0.61313 -0.135039,0.0709 -0.274441,0.18785 -0.388007,0.32549 -0.638834,0.77428 -1.003874,1.23838 -1.093326,1.39004 -0.05666,0.0961 -0.242096,0.3475 -0.412078,0.55875 -0.169982,0.21125 -0.403989,0.518 -0.520016,0.68167 -0.116026,0.16368 -0.270965,0.36941 -0.344308,0.4572 -0.07334,0.0878 -0.168934,0.21346 -0.212424,0.2793 -0.04349,0.0658 -0.167803,0.22743 -0.276251,0.3591 -0.108447,0.13167 -0.293746,0.38305 -0.411775,0.55861 -0.118029,0.17556 -0.263733,0.38863 -0.323786,0.47349 -0.06005,0.0849 -0.165353,0.24968 -0.234,0.36626 -0.06865,0.11658 -0.17737,0.26558 -0.241608,0.33112 -0.06424,0.0655 -0.139298,0.17005 -0.1668,0.23225 -0.04707,0.10647 -0.133774,0.25837 -0.474478,0.8313 -0.0783,0.13167 -0.226163,0.35611 -0.328583,0.49876 -0.262749,0.36594 -0.88908,1.27597 -0.930145,1.35146 -0.15507,0.28507 -0.450313,0.7976 -0.84917,1.47412 -0.0429,0.0728 -0.139817,0.22496 -0.215364,0.33819 -0.185883,0.27861 -0.265634,0.43074 -0.42269,0.80632 -0.210146,0.50253 -0.246235,0.60315 -0.267199,0.74495 -0.0108,0.0731 -0.03315,0.16877 -0.04965,0.21266 -0.111365,0.29615 -0.187687,0.76926 -0.226799,1.40591 -0.01966,0.31995 -0.0107,0.34387 0.280483,0.74871 0.187036,0.26005 0.256609,0.42214 0.256609,0.59785 0,0.13763 -0.135342,0.50849 -0.203402,0.55737 -0.01816,0.013 -0.04275,0.10857 -0.05465,0.2123 -0.0119,0.10373 -0.03432,0.23349 -0.04982,0.28835 -0.0155,0.0549 -0.04694,0.20748 -0.06987,0.33915 -0.05219,0.29971 -0.09777,0.44967 -0.177695,0.58472 -0.03448,0.0583 -0.06268,0.13694 -0.06268,0.17487 0,0.0672 0.120919,0.21797 0.17479,0.21797 0.06271,0 0.28492,0.31981 0.402001,0.57856 0.118592,0.26209 0.126405,0.30168 0.126778,0.64234 2.06e-4,0.19967 -0.0169,0.40615 -0.03804,0.45885 -0.02114,0.0527 -0.07382,0.19457 -0.117071,0.31527 -0.400048,1.11642 -0.748973,1.63592 -1.09878,1.63592 -0.143362,0 -0.582456,-0.23999 -0.721425,-0.3943 -0.06162,-0.0684 -0.122505,-0.12441 -0.135298,-0.12441 -0.04283,0 -0.16441,0.17844 -0.19032,0.27931 -0.01409,0.0549 -0.05116,0.14464 -0.08237,0.1995 -0.03121,0.0549 -0.155776,0.33317 -0.276808,0.61846 -0.121032,0.28528 -0.23157,0.52804 -0.245639,0.53945 -0.03548,0.0288 -0.167268,0.39226 -0.167268,0.46133 0,0.0311 -0.06181,0.20458 -0.13736,0.38555 -0.07555,0.18097 -0.137359,0.35269 -0.137359,0.3816 0,0.0289 -0.04499,0.16365 -0.09998,0.29943 -0.05499,0.13577 -0.118775,0.31868 -0.141751,0.40646 -0.02298,0.0878 -0.05525,0.20085 -0.07172,0.25126 -0.01647,0.0504 -0.02995,0.13128 -0.02995,0.17972 0,0.11484 -0.130072,0.52789 -0.28714,0.91183 -0.06872,0.16797 -0.124938,0.32381 -0.124938,0.34631 0,0.0225 -0.07111,0.21725 -0.158027,0.43276 -0.115989,0.28761 -0.165802,0.46895 -0.187254,0.68168 -0.01608,0.15941 -0.05313,0.32949 -0.08235,0.37795 -0.02922,0.0485 -0.05316,0.12454 -0.0532,0.16903 -1.03e-4,0.0969 -0.16876,0.48274 -0.331913,0.75921 -0.247723,0.41977 -0.300048,0.49196 -0.691007,0.95337 -0.742366,0.87615 -0.882258,1.03204 -1.01164,1.12734 -0.135047,0.0995 -0.166123,0.19941 -0.07469,0.24018 0.08735,0.0389 0.383641,-0.14729 0.504193,-0.31692 0.168635,-0.23729 0.220654,-0.28916 0.393778,-0.39262 0.143054,-0.0855 0.203268,-0.0951 0.593522,-0.0951 h 0.434317 l 0.199351,0.17955 c 0.399206,0.35956 0.448031,0.39583 0.499257,0.37084 0.02833,-0.0138 0.151954,-0.0388 0.274719,-0.0555 0.122764,-0.0167 0.300473,-0.0507 0.394907,-0.0756 0.09444,-0.0249 0.380314,-0.0616 0.635287,-0.0816 0.254973,-0.02 0.554432,-0.0476 0.665466,-0.0613 0.112626,-0.0139 0.234082,-0.007 0.274718,0.0149 0.04006,0.0219 0.126925,0.0629 0.193029,0.091 0.416049,0.17694 0.664816,0.53573 0.924594,1.3335 0.04288,0.13167 0.09112,0.27531 0.107219,0.3192 0.06677,0.18208 0.144483,0.49263 0.174741,0.69826 0.01776,0.1207 0.05083,0.33616 0.07348,0.4788 0.05155,0.32459 0.04875,3.88243 -0.0036,4.5287 -0.05224,0.64544 -0.157334,1.13742 -0.331116,1.55014 -0.088,0.209 -0.09325,0.2136 -0.337093,0.2959 -0.371894,0.12552 -0.58891,0.16893 -0.844396,0.16893 -0.267817,0 -0.313306,0.0362 -0.313306,0.24907 0,0.1507 -0.01967,0.19603 -0.15242,0.35135 -0.06488,0.0759 -0.133949,0.0779 -2.719814,0.0779 -2.756911,0 -2.802472,-0.003 -2.846998,-0.16566 -0.01108,-0.0406 -0.03456,-0.0737 -0.05217,-0.0737 -0.01885,0 -0.03203,-0.36724 -0.03203,-0.89288 0,-1.01348 0.0017,-1.00714 -0.26451,-0.99517 -0.126591,0.006 -0.182523,0.0377 -0.341731,0.19578 -0.313486,0.31118 -0.648002,0.53516 -0.79929,0.53516 -0.03686,0 -0.07658,0.0179 -0.08825,0.0399 -0.02352,0.0442 -0.507215,0.0557 -0.544044,0.0129 -0.04099,-0.0476 -0.51714,-0.21133 -0.616293,-0.21188 -0.05269,-4e-4 -0.158837,-0.0379 -0.235879,-0.0836 -0.09025,-0.0535 -0.151895,-0.0693 -0.173302,-0.0444 -0.01937,0.0225 -0.02444,0.16108 -0.01216,0.33241 0.0752,1.04871 0.06141,1.20754 -0.113155,1.30327 -0.06608,0.0362 -0.861703,0.0475 -3.265533,0.0463 -2.825449,-0.001 -3.189604,-0.009 -3.28119,-0.0645 z m 62.322112,-59.38842 c 0.0839,-0.0767 0.0905,-0.10521 0.0905,-0.39413 0,-0.18425 -0.0207,-0.36897 -0.0507,-0.45232 -0.0279,-0.0775 -0.0672,-0.22672 -0.0875,-0.33161 -0.0202,-0.1049 -0.0845,-0.30853 -0.14286,-0.45252 -0.0583,-0.14399 -0.11856,-0.32464 -0.13381,-0.40144 -0.0153,-0.0768 -0.0455,-0.22943 -0.0672,-0.33916 -0.0619,-0.31288 -0.19304,-0.37999 -0.39415,-0.20175 -0.0605,0.0536 -0.13646,0.16224 -0.16877,0.24137 l -0.0588,0.14386 0.12735,0.28732 c 0.07,0.15802 0.14068,0.2933 0.15695,0.30061 0.0163,0.007 0.0296,0.0356 0.0296,0.0627 0,0.0272 0.0496,0.15587 0.11026,0.28595 0.0607,0.13009 0.12188,0.31731 0.13606,0.41607 0.0537,0.37381 0.0662,0.4626 0.0837,0.59286 0.0179,0.13354 0.15744,0.32485 0.23701,0.32485 0.023,0 0.0826,-0.0372 0.13234,-0.0827 z m 1.66324,-10.69042 c 0.0763,-0.2688 0.11718,-0.36729 0.20524,-0.49428 0.0439,-0.0634 0.13055,-0.23395 0.19247,-0.37905 0.1291,-0.30252 0.38988,-0.83374 0.45271,-0.92218 0.0234,-0.0329 0.13568,-0.27027 0.24955,-0.52744 0.11387,-0.25717 0.25447,-0.54768 0.31245,-0.64559 0.058,-0.0979 0.10541,-0.18698 0.10541,-0.19792 0,-0.011 0.095,-0.18656 0.21105,-0.39024 0.11608,-0.20368 0.23133,-0.45183 0.2561,-0.55146 0.0573,-0.23025 0.21885,-0.78278 0.27466,-0.93924 0.0235,-0.0658 0.0528,-0.17356 0.0652,-0.2394 0.0124,-0.0658 0.0351,-0.15561 0.0505,-0.1995 0.10958,-0.31251 0.17271,-0.51639 0.17271,-0.5578 0,-0.0266 0.0233,-0.10255 0.0517,-0.16873 0.0284,-0.0662 0.0679,-0.20809 0.0878,-0.31536 0.11401,-0.61467 0.15791,-0.81921 0.27738,-1.29229 0.0493,-0.19518 0.0844,-0.41119 0.19919,-1.22693 0.0178,-0.12619 0.0487,-0.31472 0.0687,-0.41896 0.02,-0.10424 0.0502,-0.26584 0.067,-0.3591 0.085,-0.47151 0.10987,-0.59028 0.17734,-0.84789 0.0402,-0.15361 0.085,-0.34214 0.0994,-0.41895 0.10291,-0.54787 0.23733,-0.8266 0.45757,-0.94885 0.19755,-0.10965 0.44608,-0.16836 0.71262,-0.16836 0.32687,0 0.44403,-0.19634 0.44502,-0.74578 3.4e-4,-0.15781 0.0141,-0.29667 0.0307,-0.30859 0.0166,-0.0119 0.0388,-0.1252 0.0495,-0.25173 0.0106,-0.12654 0.0365,-0.31087 0.0576,-0.40962 0.0211,-0.0987 0.0516,-0.25137 0.0678,-0.33915 0.0323,-0.17488 0.12629,-0.63759 0.17421,-0.85786 0.0167,-0.0768 0.0555,-0.26534 0.0863,-0.41896 0.0519,-0.25933 0.12518,-0.55115 0.29196,-1.16235 0.0367,-0.13455 0.0665,-0.27819 0.0662,-0.3192 -3.4e-4,-0.041 0.0321,-0.20025 0.0719,-0.35387 0.25568,-0.98651 0.35558,-2.03344 0.39407,-4.12969 0.0206,-1.12192 0.0198,-1.1256 -0.26027,-1.16078 -0.3043,-0.0382 -0.5048,-0.1508 -0.66855,-0.37539 -0.13319,-0.18267 -0.28435,-0.4369 -0.37958,-0.6384 -0.13278,-0.28097 -0.18952,-0.33083 -0.27001,-0.2373 -0.0851,0.0989 -0.61314,0.43661 -0.75857,0.48513 -0.34191,0.1141 -0.63576,0.13727 -1.51095,0.11916 -0.49106,-0.0102 -0.97783,-0.0374 -1.0817,-0.0605 -0.10388,-0.0231 -0.26614,-0.0537 -0.36057,-0.0681 -0.0944,-0.0144 -0.22039,-0.0514 -0.27991,-0.0824 -0.0595,-0.031 -0.11899,-0.0563 -0.13217,-0.0563 -0.0768,0 -0.82247,-0.43155 -1.05134,-0.60848 -0.10645,-0.0823 -0.20209,-0.14963 -0.21253,-0.14963 -0.0528,0 -0.12689,0.13869 -0.12689,0.23769 0,0.27653 -0.20177,0.47586 -0.48471,0.47885 -0.17703,0.002 -0.33945,0.11713 -0.33945,0.2409 0,0.0406 -0.0475,0.12908 -0.10566,0.1966 -0.0896,0.10408 -0.13158,0.12277 -0.27592,0.12277 -0.0975,0 -0.20573,-0.027 -0.25323,-0.0632 -0.12491,-0.0951 -0.19106,-0.0454 -0.36678,0.2755 -0.22057,0.40283 -0.43827,0.66892 -0.93354,1.14103 -0.23301,0.22211 -0.46978,0.47979 -0.52616,0.57262 -0.087,0.1433 -0.38952,0.94827 -0.38906,1.03535 3.4e-4,0.0411 -0.25997,0.75895 -0.39453,1.08856 -0.0627,0.15361 -0.20818,0.5069 -0.32326,0.78509 -0.11508,0.27818 -0.20924,0.52002 -0.20924,0.53742 0,0.0268 -0.26822,0.67093 -0.57572,1.38248 -0.0661,0.15289 -0.0743,0.20293 -0.0412,0.24938 0.0798,0.11172 0.55046,0.0423 0.82289,-0.12143 0.0609,-0.0366 0.19266,-0.0764 0.29275,-0.0884 0.22658,-0.0272 0.37208,0.0744 0.42913,0.29956 0.11953,0.4718 0.13105,0.76724 0.0719,1.84368 -0.0658,1.19723 -0.11889,1.51618 -0.29014,1.7438 -0.0655,0.0871 -0.0653,0.0915 0.0275,0.45886 0.0515,0.204 0.10533,0.42478 0.1196,0.49062 0.0143,0.0658 0.0759,0.26334 0.13693,0.4389 0.14865,0.42757 0.24288,0.77105 0.31195,1.13716 0.0228,0.1207 0.0551,0.2607 0.0719,0.31111 0.0168,0.0504 0.0305,0.13485 0.0305,0.18765 0,0.0528 0.0137,0.13724 0.0305,0.18764 0.0168,0.0504 0.05,0.19041 0.0739,0.31111 0.0239,0.1207 0.055,0.24639 0.069,0.27931 0.0141,0.0329 0.053,0.137 0.0866,0.23131 0.0335,0.0943 0.0784,0.18408 0.0997,0.1995 0.0213,0.0154 0.0727,0.0847 0.11424,0.1539 0.0691,0.1151 0.0755,0.17367 0.0755,0.6851 0,0.52109 0.007,0.58328 0.10542,0.91155 0.058,0.19377 0.1568,0.45107 0.2196,0.57176 0.0628,0.1207 0.17311,0.35412 0.24512,0.51871 0.1906,0.43568 0.93417,1.69523 1.25313,2.12271 0.15167,0.20327 0.22361,0.3364 0.29751,0.55062 0.13061,0.37859 0.18385,0.48345 0.35409,0.69734 0.23963,0.30107 0.49023,0.71572 0.54314,0.89867 0.0638,0.22074 0.12148,0.35911 0.14964,0.35911 0.0366,0 0.0324,0.33515 -0.005,0.38105 -0.0398,0.0491 -0.1069,0.42409 -0.0837,0.46772 0.0423,0.0795 0.12913,-0.005 0.17622,-0.17047 z"
       id="path1032" />
  </g>
</svg>
